%TF.GenerationSoftware,KiCad,Pcbnew,10.0.6-10.0.6~ubuntu24.04.1*%
%TF.CreationDate,2026-09-18T16:39:39+00:00*%
%TF.ProjectId,recorder,7265636f-7264-4657-922e-6b696361645f,rev?*%
%TF.SameCoordinates,Original*%
%TF.FileFunction,Legend,Top*%
%TF.FilePolarity,Positive*%
%FSLAX46Y46*%
G04 Gerber Fmt 4.6, Leading zero omitted, Abs format (unit mm)*
G04 Created by KiCad (PCBNEW 10.0.6-10.0.6~ubuntu24.04.1) date 2026-09-18 16:39:39*
%MOMM*%
%LPD*%
G01*
G04 APERTURE LIST*
%ADD10C,0.150000*%
%ADD11C,0.120000*%
G04 APERTURE END LIST*
D10*
X15523809Y-21528628D02*
X15523809Y-22004819D01*
X15190476Y-21004819D02*
X15523809Y-21528628D01*
X15523809Y-21528628D02*
X15857142Y-21004819D01*
X16714285Y-22004819D02*
X16142857Y-22004819D01*
X16428571Y-22004819D02*
X16428571Y-21004819D01*
X16428571Y-21004819D02*
X16333333Y-21147676D01*
X16333333Y-21147676D02*
X16238095Y-21242914D01*
X16238095Y-21242914D02*
X16142857Y-21290533D01*
X-8190475Y24545180D02*
X-8523808Y25021371D01*
X-8761903Y24545180D02*
X-8761903Y25545180D01*
X-8761903Y25545180D02*
X-8380951Y25545180D01*
X-8380951Y25545180D02*
X-8285713Y25497561D01*
X-8285713Y25497561D02*
X-8238094Y25449942D01*
X-8238094Y25449942D02*
X-8190475Y25354704D01*
X-8190475Y25354704D02*
X-8190475Y25211847D01*
X-8190475Y25211847D02*
X-8238094Y25116609D01*
X-8238094Y25116609D02*
X-8285713Y25068990D01*
X-8285713Y25068990D02*
X-8380951Y25021371D01*
X-8380951Y25021371D02*
X-8761903Y25021371D01*
X-7809522Y24592800D02*
X-7714284Y24545180D01*
X-7714284Y24545180D02*
X-7523808Y24545180D01*
X-7523808Y24545180D02*
X-7428570Y24592800D01*
X-7428570Y24592800D02*
X-7380951Y24688038D01*
X-7380951Y24688038D02*
X-7380951Y24735657D01*
X-7380951Y24735657D02*
X-7428570Y24830895D01*
X-7428570Y24830895D02*
X-7523808Y24878514D01*
X-7523808Y24878514D02*
X-7666665Y24878514D01*
X-7666665Y24878514D02*
X-7761903Y24926133D01*
X-7761903Y24926133D02*
X-7809522Y25021371D01*
X-7809522Y25021371D02*
X-7809522Y25068990D01*
X-7809522Y25068990D02*
X-7761903Y25164228D01*
X-7761903Y25164228D02*
X-7666665Y25211847D01*
X-7666665Y25211847D02*
X-7523808Y25211847D01*
X-7523808Y25211847D02*
X-7428570Y25164228D01*
X-6523808Y24545180D02*
X-6523808Y25545180D01*
X-6523808Y24592800D02*
X-6619046Y24545180D01*
X-6619046Y24545180D02*
X-6809522Y24545180D01*
X-6809522Y24545180D02*
X-6904760Y24592800D01*
X-6904760Y24592800D02*
X-6952379Y24640419D01*
X-6952379Y24640419D02*
X-6999998Y24735657D01*
X-6999998Y24735657D02*
X-6999998Y25021371D01*
X-6999998Y25021371D02*
X-6952379Y25116609D01*
X-6952379Y25116609D02*
X-6904760Y25164228D01*
X-6904760Y25164228D02*
X-6809522Y25211847D01*
X-6809522Y25211847D02*
X-6619046Y25211847D01*
X-6619046Y25211847D02*
X-6523808Y25164228D01*
X-5857141Y25545180D02*
X-5761903Y25545180D01*
X-5761903Y25545180D02*
X-5666665Y25497561D01*
X-5666665Y25497561D02*
X-5619046Y25449942D01*
X-5619046Y25449942D02*
X-5571427Y25354704D01*
X-5571427Y25354704D02*
X-5523808Y25164228D01*
X-5523808Y25164228D02*
X-5523808Y24926133D01*
X-5523808Y24926133D02*
X-5571427Y24735657D01*
X-5571427Y24735657D02*
X-5619046Y24640419D01*
X-5619046Y24640419D02*
X-5666665Y24592800D01*
X-5666665Y24592800D02*
X-5761903Y24545180D01*
X-5761903Y24545180D02*
X-5857141Y24545180D01*
X-5857141Y24545180D02*
X-5952379Y24592800D01*
X-5952379Y24592800D02*
X-5999998Y24640419D01*
X-5999998Y24640419D02*
X-6047617Y24735657D01*
X-6047617Y24735657D02*
X-6095236Y24926133D01*
X-6095236Y24926133D02*
X-6095236Y25164228D01*
X-6095236Y25164228D02*
X-6047617Y25354704D01*
X-6047617Y25354704D02*
X-5999998Y25449942D01*
X-5999998Y25449942D02*
X-5952379Y25497561D01*
X-5952379Y25497561D02*
X-5857141Y25545180D01*
X19799047Y4592799D02*
X19941904Y4545179D01*
X19941904Y4545179D02*
X20179999Y4545179D01*
X20179999Y4545179D02*
X20275237Y4592799D01*
X20275237Y4592799D02*
X20322856Y4640418D01*
X20322856Y4640418D02*
X20370475Y4735656D01*
X20370475Y4735656D02*
X20370475Y4830894D01*
X20370475Y4830894D02*
X20322856Y4926132D01*
X20322856Y4926132D02*
X20275237Y4973751D01*
X20275237Y4973751D02*
X20179999Y5021370D01*
X20179999Y5021370D02*
X19989523Y5068989D01*
X19989523Y5068989D02*
X19894285Y5116608D01*
X19894285Y5116608D02*
X19846666Y5164227D01*
X19846666Y5164227D02*
X19799047Y5259465D01*
X19799047Y5259465D02*
X19799047Y5354703D01*
X19799047Y5354703D02*
X19846666Y5449941D01*
X19846666Y5449941D02*
X19894285Y5497560D01*
X19894285Y5497560D02*
X19989523Y5545179D01*
X19989523Y5545179D02*
X20227618Y5545179D01*
X20227618Y5545179D02*
X20370475Y5497560D01*
X20703809Y5545179D02*
X20941904Y4545179D01*
X20941904Y4545179D02*
X21132380Y5259465D01*
X21132380Y5259465D02*
X21322856Y4545179D01*
X21322856Y4545179D02*
X21560952Y5545179D01*
X21703809Y4449941D02*
X22465713Y4449941D01*
X23275237Y4545179D02*
X22941904Y5021370D01*
X22703809Y4545179D02*
X22703809Y5545179D01*
X22703809Y5545179D02*
X23084761Y5545179D01*
X23084761Y5545179D02*
X23179999Y5497560D01*
X23179999Y5497560D02*
X23227618Y5449941D01*
X23227618Y5449941D02*
X23275237Y5354703D01*
X23275237Y5354703D02*
X23275237Y5211846D01*
X23275237Y5211846D02*
X23227618Y5116608D01*
X23227618Y5116608D02*
X23179999Y5068989D01*
X23179999Y5068989D02*
X23084761Y5021370D01*
X23084761Y5021370D02*
X22703809Y5021370D01*
X23656190Y4592799D02*
X23799047Y4545179D01*
X23799047Y4545179D02*
X24037142Y4545179D01*
X24037142Y4545179D02*
X24132380Y4592799D01*
X24132380Y4592799D02*
X24179999Y4640418D01*
X24179999Y4640418D02*
X24227618Y4735656D01*
X24227618Y4735656D02*
X24227618Y4830894D01*
X24227618Y4830894D02*
X24179999Y4926132D01*
X24179999Y4926132D02*
X24132380Y4973751D01*
X24132380Y4973751D02*
X24037142Y5021370D01*
X24037142Y5021370D02*
X23846666Y5068989D01*
X23846666Y5068989D02*
X23751428Y5116608D01*
X23751428Y5116608D02*
X23703809Y5164227D01*
X23703809Y5164227D02*
X23656190Y5259465D01*
X23656190Y5259465D02*
X23656190Y5354703D01*
X23656190Y5354703D02*
X23703809Y5449941D01*
X23703809Y5449941D02*
X23751428Y5497560D01*
X23751428Y5497560D02*
X23846666Y5545179D01*
X23846666Y5545179D02*
X24084761Y5545179D01*
X24084761Y5545179D02*
X24227618Y5497560D01*
X24513333Y5545179D02*
X25084761Y5545179D01*
X24799047Y4545179D02*
X24799047Y5545179D01*
X24216349Y-25266847D02*
X24168730Y-25314467D01*
X24168730Y-25314467D02*
X24025873Y-25362086D01*
X24025873Y-25362086D02*
X23930635Y-25362086D01*
X23930635Y-25362086D02*
X23787778Y-25314467D01*
X23787778Y-25314467D02*
X23692540Y-25219228D01*
X23692540Y-25219228D02*
X23644921Y-25123990D01*
X23644921Y-25123990D02*
X23597302Y-24933514D01*
X23597302Y-24933514D02*
X23597302Y-24790657D01*
X23597302Y-24790657D02*
X23644921Y-24600181D01*
X23644921Y-24600181D02*
X23692540Y-24504943D01*
X23692540Y-24504943D02*
X23787778Y-24409705D01*
X23787778Y-24409705D02*
X23930635Y-24362086D01*
X23930635Y-24362086D02*
X24025873Y-24362086D01*
X24025873Y-24362086D02*
X24168730Y-24409705D01*
X24168730Y-24409705D02*
X24216349Y-24457324D01*
X25168730Y-25362086D02*
X24597302Y-25362086D01*
X24883016Y-25362086D02*
X24883016Y-24362086D01*
X24883016Y-24362086D02*
X24787778Y-24504943D01*
X24787778Y-24504943D02*
X24692540Y-24600181D01*
X24692540Y-24600181D02*
X24597302Y-24647800D01*
X25740159Y-24790657D02*
X25644921Y-24743038D01*
X25644921Y-24743038D02*
X25597302Y-24695419D01*
X25597302Y-24695419D02*
X25549683Y-24600181D01*
X25549683Y-24600181D02*
X25549683Y-24552562D01*
X25549683Y-24552562D02*
X25597302Y-24457324D01*
X25597302Y-24457324D02*
X25644921Y-24409705D01*
X25644921Y-24409705D02*
X25740159Y-24362086D01*
X25740159Y-24362086D02*
X25930635Y-24362086D01*
X25930635Y-24362086D02*
X26025873Y-24409705D01*
X26025873Y-24409705D02*
X26073492Y-24457324D01*
X26073492Y-24457324D02*
X26121111Y-24552562D01*
X26121111Y-24552562D02*
X26121111Y-24600181D01*
X26121111Y-24600181D02*
X26073492Y-24695419D01*
X26073492Y-24695419D02*
X26025873Y-24743038D01*
X26025873Y-24743038D02*
X25930635Y-24790657D01*
X25930635Y-24790657D02*
X25740159Y-24790657D01*
X25740159Y-24790657D02*
X25644921Y-24838276D01*
X25644921Y-24838276D02*
X25597302Y-24885895D01*
X25597302Y-24885895D02*
X25549683Y-24981133D01*
X25549683Y-24981133D02*
X25549683Y-25171609D01*
X25549683Y-25171609D02*
X25597302Y-25266847D01*
X25597302Y-25266847D02*
X25644921Y-25314467D01*
X25644921Y-25314467D02*
X25740159Y-25362086D01*
X25740159Y-25362086D02*
X25930635Y-25362086D01*
X25930635Y-25362086D02*
X26025873Y-25314467D01*
X26025873Y-25314467D02*
X26073492Y-25266847D01*
X26073492Y-25266847D02*
X26121111Y-25171609D01*
X26121111Y-25171609D02*
X26121111Y-24981133D01*
X26121111Y-24981133D02*
X26073492Y-24885895D01*
X26073492Y-24885895D02*
X26025873Y-24838276D01*
X26025873Y-24838276D02*
X25930635Y-24790657D01*
X27300305Y-18846205D02*
X27252686Y-18893825D01*
X27252686Y-18893825D02*
X27109829Y-18941444D01*
X27109829Y-18941444D02*
X27014591Y-18941444D01*
X27014591Y-18941444D02*
X26871734Y-18893825D01*
X26871734Y-18893825D02*
X26776496Y-18798586D01*
X26776496Y-18798586D02*
X26728877Y-18703348D01*
X26728877Y-18703348D02*
X26681258Y-18512872D01*
X26681258Y-18512872D02*
X26681258Y-18370015D01*
X26681258Y-18370015D02*
X26728877Y-18179539D01*
X26728877Y-18179539D02*
X26776496Y-18084301D01*
X26776496Y-18084301D02*
X26871734Y-17989063D01*
X26871734Y-17989063D02*
X27014591Y-17941444D01*
X27014591Y-17941444D02*
X27109829Y-17941444D01*
X27109829Y-17941444D02*
X27252686Y-17989063D01*
X27252686Y-17989063D02*
X27300305Y-18036682D01*
X28252686Y-18941444D02*
X27681258Y-18941444D01*
X27966972Y-18941444D02*
X27966972Y-17941444D01*
X27966972Y-17941444D02*
X27871734Y-18084301D01*
X27871734Y-18084301D02*
X27776496Y-18179539D01*
X27776496Y-18179539D02*
X27681258Y-18227158D01*
X29205067Y-18941444D02*
X28633639Y-18941444D01*
X28919353Y-18941444D02*
X28919353Y-17941444D01*
X28919353Y-17941444D02*
X28824115Y-18084301D01*
X28824115Y-18084301D02*
X28728877Y-18179539D01*
X28728877Y-18179539D02*
X28633639Y-18227158D01*
X-8190475Y19545180D02*
X-8523808Y20021371D01*
X-8761903Y19545180D02*
X-8761903Y20545180D01*
X-8761903Y20545180D02*
X-8380951Y20545180D01*
X-8380951Y20545180D02*
X-8285713Y20497561D01*
X-8285713Y20497561D02*
X-8238094Y20449942D01*
X-8238094Y20449942D02*
X-8190475Y20354704D01*
X-8190475Y20354704D02*
X-8190475Y20211847D01*
X-8190475Y20211847D02*
X-8238094Y20116609D01*
X-8238094Y20116609D02*
X-8285713Y20068990D01*
X-8285713Y20068990D02*
X-8380951Y20021371D01*
X-8380951Y20021371D02*
X-8761903Y20021371D01*
X-7809522Y19592800D02*
X-7714284Y19545180D01*
X-7714284Y19545180D02*
X-7523808Y19545180D01*
X-7523808Y19545180D02*
X-7428570Y19592800D01*
X-7428570Y19592800D02*
X-7380951Y19688038D01*
X-7380951Y19688038D02*
X-7380951Y19735657D01*
X-7380951Y19735657D02*
X-7428570Y19830895D01*
X-7428570Y19830895D02*
X-7523808Y19878514D01*
X-7523808Y19878514D02*
X-7666665Y19878514D01*
X-7666665Y19878514D02*
X-7761903Y19926133D01*
X-7761903Y19926133D02*
X-7809522Y20021371D01*
X-7809522Y20021371D02*
X-7809522Y20068990D01*
X-7809522Y20068990D02*
X-7761903Y20164228D01*
X-7761903Y20164228D02*
X-7666665Y20211847D01*
X-7666665Y20211847D02*
X-7523808Y20211847D01*
X-7523808Y20211847D02*
X-7428570Y20164228D01*
X-6523808Y19545180D02*
X-6523808Y20545180D01*
X-6523808Y19592800D02*
X-6619046Y19545180D01*
X-6619046Y19545180D02*
X-6809522Y19545180D01*
X-6809522Y19545180D02*
X-6904760Y19592800D01*
X-6904760Y19592800D02*
X-6952379Y19640419D01*
X-6952379Y19640419D02*
X-6999998Y19735657D01*
X-6999998Y19735657D02*
X-6999998Y20021371D01*
X-6999998Y20021371D02*
X-6952379Y20116609D01*
X-6952379Y20116609D02*
X-6904760Y20164228D01*
X-6904760Y20164228D02*
X-6809522Y20211847D01*
X-6809522Y20211847D02*
X-6619046Y20211847D01*
X-6619046Y20211847D02*
X-6523808Y20164228D01*
X-6095236Y20449942D02*
X-6047617Y20497561D01*
X-6047617Y20497561D02*
X-5952379Y20545180D01*
X-5952379Y20545180D02*
X-5714284Y20545180D01*
X-5714284Y20545180D02*
X-5619046Y20497561D01*
X-5619046Y20497561D02*
X-5571427Y20449942D01*
X-5571427Y20449942D02*
X-5523808Y20354704D01*
X-5523808Y20354704D02*
X-5523808Y20259466D01*
X-5523808Y20259466D02*
X-5571427Y20116609D01*
X-5571427Y20116609D02*
X-6142855Y19545180D01*
X-6142855Y19545180D02*
X-5523808Y19545180D01*
X27535631Y-25311924D02*
X27488012Y-25359544D01*
X27488012Y-25359544D02*
X27345155Y-25407163D01*
X27345155Y-25407163D02*
X27249917Y-25407163D01*
X27249917Y-25407163D02*
X27107060Y-25359544D01*
X27107060Y-25359544D02*
X27011822Y-25264305D01*
X27011822Y-25264305D02*
X26964203Y-25169067D01*
X26964203Y-25169067D02*
X26916584Y-24978591D01*
X26916584Y-24978591D02*
X26916584Y-24835734D01*
X26916584Y-24835734D02*
X26964203Y-24645258D01*
X26964203Y-24645258D02*
X27011822Y-24550020D01*
X27011822Y-24550020D02*
X27107060Y-24454782D01*
X27107060Y-24454782D02*
X27249917Y-24407163D01*
X27249917Y-24407163D02*
X27345155Y-24407163D01*
X27345155Y-24407163D02*
X27488012Y-24454782D01*
X27488012Y-24454782D02*
X27535631Y-24502401D01*
X28488012Y-25407163D02*
X27916584Y-25407163D01*
X28202298Y-25407163D02*
X28202298Y-24407163D01*
X28202298Y-24407163D02*
X28107060Y-24550020D01*
X28107060Y-24550020D02*
X28011822Y-24645258D01*
X28011822Y-24645258D02*
X27916584Y-24692877D01*
X28868965Y-24502401D02*
X28916584Y-24454782D01*
X28916584Y-24454782D02*
X29011822Y-24407163D01*
X29011822Y-24407163D02*
X29249917Y-24407163D01*
X29249917Y-24407163D02*
X29345155Y-24454782D01*
X29345155Y-24454782D02*
X29392774Y-24502401D01*
X29392774Y-24502401D02*
X29440393Y-24597639D01*
X29440393Y-24597639D02*
X29440393Y-24692877D01*
X29440393Y-24692877D02*
X29392774Y-24835734D01*
X29392774Y-24835734D02*
X28821346Y-25407163D01*
X28821346Y-25407163D02*
X29440393Y-25407163D01*
X10808095Y31632680D02*
X10808095Y30823157D01*
X10808095Y30823157D02*
X10855714Y30727919D01*
X10855714Y30727919D02*
X10903333Y30680300D01*
X10903333Y30680300D02*
X10998571Y30632680D01*
X10998571Y30632680D02*
X11189047Y30632680D01*
X11189047Y30632680D02*
X11284285Y30680300D01*
X11284285Y30680300D02*
X11331904Y30727919D01*
X11331904Y30727919D02*
X11379523Y30823157D01*
X11379523Y30823157D02*
X11379523Y31632680D01*
X11760476Y31632680D02*
X12427142Y31632680D01*
X12427142Y31632680D02*
X11998571Y30632680D01*
X19127295Y-29066444D02*
X18793962Y-28590253D01*
X18555867Y-29066444D02*
X18555867Y-28066444D01*
X18555867Y-28066444D02*
X18936819Y-28066444D01*
X18936819Y-28066444D02*
X19032057Y-28114063D01*
X19032057Y-28114063D02*
X19079676Y-28161682D01*
X19079676Y-28161682D02*
X19127295Y-28256920D01*
X19127295Y-28256920D02*
X19127295Y-28399777D01*
X19127295Y-28399777D02*
X19079676Y-28495015D01*
X19079676Y-28495015D02*
X19032057Y-28542634D01*
X19032057Y-28542634D02*
X18936819Y-28590253D01*
X18936819Y-28590253D02*
X18555867Y-28590253D01*
X19460629Y-28066444D02*
X20127295Y-28066444D01*
X20127295Y-28066444D02*
X19698724Y-29066444D01*
X-1261904Y-28207200D02*
X-1119047Y-28254819D01*
X-1119047Y-28254819D02*
X-880952Y-28254819D01*
X-880952Y-28254819D02*
X-785714Y-28207200D01*
X-785714Y-28207200D02*
X-738095Y-28159580D01*
X-738095Y-28159580D02*
X-690476Y-28064342D01*
X-690476Y-28064342D02*
X-690476Y-27969104D01*
X-690476Y-27969104D02*
X-738095Y-27873866D01*
X-738095Y-27873866D02*
X-785714Y-27826247D01*
X-785714Y-27826247D02*
X-880952Y-27778628D01*
X-880952Y-27778628D02*
X-1071428Y-27731009D01*
X-1071428Y-27731009D02*
X-1166666Y-27683390D01*
X-1166666Y-27683390D02*
X-1214285Y-27635771D01*
X-1214285Y-27635771D02*
X-1261904Y-27540533D01*
X-1261904Y-27540533D02*
X-1261904Y-27445295D01*
X-1261904Y-27445295D02*
X-1214285Y-27350057D01*
X-1214285Y-27350057D02*
X-1166666Y-27302438D01*
X-1166666Y-27302438D02*
X-1071428Y-27254819D01*
X-1071428Y-27254819D02*
X-833333Y-27254819D01*
X-833333Y-27254819D02*
X-690476Y-27302438D01*
X-261904Y-28254819D02*
X-261904Y-27254819D01*
X-261904Y-27254819D02*
X119047Y-27254819D01*
X119047Y-27254819D02*
X214285Y-27302438D01*
X214285Y-27302438D02*
X261904Y-27350057D01*
X261904Y-27350057D02*
X309523Y-27445295D01*
X309523Y-27445295D02*
X309523Y-27588152D01*
X309523Y-27588152D02*
X261904Y-27683390D01*
X261904Y-27683390D02*
X214285Y-27731009D01*
X214285Y-27731009D02*
X119047Y-27778628D01*
X119047Y-27778628D02*
X-261904Y-27778628D01*
X1261904Y-28254819D02*
X690476Y-28254819D01*
X976190Y-28254819D02*
X976190Y-27254819D01*
X976190Y-27254819D02*
X880952Y-27397676D01*
X880952Y-27397676D02*
X785714Y-27492914D01*
X785714Y-27492914D02*
X690476Y-27540533D01*
X-23285714Y-31381009D02*
X-23142857Y-31428628D01*
X-23142857Y-31428628D02*
X-23095238Y-31476247D01*
X-23095238Y-31476247D02*
X-23047619Y-31571485D01*
X-23047619Y-31571485D02*
X-23047619Y-31714342D01*
X-23047619Y-31714342D02*
X-23095238Y-31809580D01*
X-23095238Y-31809580D02*
X-23142857Y-31857200D01*
X-23142857Y-31857200D02*
X-23238095Y-31904819D01*
X-23238095Y-31904819D02*
X-23619047Y-31904819D01*
X-23619047Y-31904819D02*
X-23619047Y-30904819D01*
X-23619047Y-30904819D02*
X-23285714Y-30904819D01*
X-23285714Y-30904819D02*
X-23190476Y-30952438D01*
X-23190476Y-30952438D02*
X-23142857Y-31000057D01*
X-23142857Y-31000057D02*
X-23095238Y-31095295D01*
X-23095238Y-31095295D02*
X-23095238Y-31190533D01*
X-23095238Y-31190533D02*
X-23142857Y-31285771D01*
X-23142857Y-31285771D02*
X-23190476Y-31333390D01*
X-23190476Y-31333390D02*
X-23285714Y-31381009D01*
X-23285714Y-31381009D02*
X-23619047Y-31381009D01*
X-22761904Y-30904819D02*
X-22190476Y-30904819D01*
X-22476190Y-31904819D02*
X-22476190Y-30904819D01*
X-21333333Y-31904819D02*
X-21904761Y-31904819D01*
X-21619047Y-31904819D02*
X-21619047Y-30904819D01*
X-21619047Y-30904819D02*
X-21714285Y-31047676D01*
X-21714285Y-31047676D02*
X-21809523Y-31142914D01*
X-21809523Y-31142914D02*
X-21904761Y-31190533D01*
X26976190Y30572180D02*
X26642857Y31048371D01*
X26404762Y30572180D02*
X26404762Y31572180D01*
X26404762Y31572180D02*
X26785714Y31572180D01*
X26785714Y31572180D02*
X26880952Y31524561D01*
X26880952Y31524561D02*
X26928571Y31476942D01*
X26928571Y31476942D02*
X26976190Y31381704D01*
X26976190Y31381704D02*
X26976190Y31238847D01*
X26976190Y31238847D02*
X26928571Y31143609D01*
X26928571Y31143609D02*
X26880952Y31095990D01*
X26880952Y31095990D02*
X26785714Y31048371D01*
X26785714Y31048371D02*
X26404762Y31048371D01*
X27833333Y30619800D02*
X27738095Y30572180D01*
X27738095Y30572180D02*
X27547619Y30572180D01*
X27547619Y30572180D02*
X27452381Y30619800D01*
X27452381Y30619800D02*
X27404762Y30667419D01*
X27404762Y30667419D02*
X27357143Y30762657D01*
X27357143Y30762657D02*
X27357143Y31048371D01*
X27357143Y31048371D02*
X27404762Y31143609D01*
X27404762Y31143609D02*
X27452381Y31191228D01*
X27452381Y31191228D02*
X27547619Y31238847D01*
X27547619Y31238847D02*
X27738095Y31238847D01*
X27738095Y31238847D02*
X27833333Y31191228D01*
X28261905Y30572180D02*
X28261905Y31572180D01*
X28690476Y30572180D02*
X28690476Y31095990D01*
X28690476Y31095990D02*
X28642857Y31191228D01*
X28642857Y31191228D02*
X28547619Y31238847D01*
X28547619Y31238847D02*
X28404762Y31238847D01*
X28404762Y31238847D02*
X28309524Y31191228D01*
X28309524Y31191228D02*
X28261905Y31143609D01*
X29595238Y31238847D02*
X29595238Y30429323D01*
X29595238Y30429323D02*
X29547619Y30334085D01*
X29547619Y30334085D02*
X29500000Y30286466D01*
X29500000Y30286466D02*
X29404762Y30238847D01*
X29404762Y30238847D02*
X29261905Y30238847D01*
X29261905Y30238847D02*
X29166667Y30286466D01*
X29595238Y30619800D02*
X29500000Y30572180D01*
X29500000Y30572180D02*
X29309524Y30572180D01*
X29309524Y30572180D02*
X29214286Y30619800D01*
X29214286Y30619800D02*
X29166667Y30667419D01*
X29166667Y30667419D02*
X29119048Y30762657D01*
X29119048Y30762657D02*
X29119048Y31048371D01*
X29119048Y31048371D02*
X29166667Y31143609D01*
X29166667Y31143609D02*
X29214286Y31191228D01*
X29214286Y31191228D02*
X29309524Y31238847D01*
X29309524Y31238847D02*
X29500000Y31238847D01*
X29500000Y31238847D02*
X29595238Y31191228D01*
X26559523Y14045180D02*
X26226190Y14521371D01*
X25988095Y14045180D02*
X25988095Y15045180D01*
X25988095Y15045180D02*
X26369047Y15045180D01*
X26369047Y15045180D02*
X26464285Y14997561D01*
X26464285Y14997561D02*
X26511904Y14949942D01*
X26511904Y14949942D02*
X26559523Y14854704D01*
X26559523Y14854704D02*
X26559523Y14711847D01*
X26559523Y14711847D02*
X26511904Y14616609D01*
X26511904Y14616609D02*
X26464285Y14568990D01*
X26464285Y14568990D02*
X26369047Y14521371D01*
X26369047Y14521371D02*
X25988095Y14521371D01*
X27511904Y14045180D02*
X26940476Y14045180D01*
X27226190Y14045180D02*
X27226190Y15045180D01*
X27226190Y15045180D02*
X27130952Y14902323D01*
X27130952Y14902323D02*
X27035714Y14807085D01*
X27035714Y14807085D02*
X26940476Y14759466D01*
X15857142Y32345179D02*
X15523809Y32821370D01*
X15285714Y32345179D02*
X15285714Y33345179D01*
X15285714Y33345179D02*
X15666666Y33345179D01*
X15666666Y33345179D02*
X15761904Y33297560D01*
X15761904Y33297560D02*
X15809523Y33249941D01*
X15809523Y33249941D02*
X15857142Y33154703D01*
X15857142Y33154703D02*
X15857142Y33011846D01*
X15857142Y33011846D02*
X15809523Y32916608D01*
X15809523Y32916608D02*
X15761904Y32868989D01*
X15761904Y32868989D02*
X15666666Y32821370D01*
X15666666Y32821370D02*
X15285714Y32821370D01*
X16714285Y33011846D02*
X16714285Y32345179D01*
X16476190Y33392799D02*
X16238095Y32678513D01*
X16238095Y32678513D02*
X16857142Y32678513D01*
X17857142Y-31359580D02*
X17809523Y-31407200D01*
X17809523Y-31407200D02*
X17666666Y-31454819D01*
X17666666Y-31454819D02*
X17571428Y-31454819D01*
X17571428Y-31454819D02*
X17428571Y-31407200D01*
X17428571Y-31407200D02*
X17333333Y-31311961D01*
X17333333Y-31311961D02*
X17285714Y-31216723D01*
X17285714Y-31216723D02*
X17238095Y-31026247D01*
X17238095Y-31026247D02*
X17238095Y-30883390D01*
X17238095Y-30883390D02*
X17285714Y-30692914D01*
X17285714Y-30692914D02*
X17333333Y-30597676D01*
X17333333Y-30597676D02*
X17428571Y-30502438D01*
X17428571Y-30502438D02*
X17571428Y-30454819D01*
X17571428Y-30454819D02*
X17666666Y-30454819D01*
X17666666Y-30454819D02*
X17809523Y-30502438D01*
X17809523Y-30502438D02*
X17857142Y-30550057D01*
X18333333Y-31454819D02*
X18523809Y-31454819D01*
X18523809Y-31454819D02*
X18619047Y-31407200D01*
X18619047Y-31407200D02*
X18666666Y-31359580D01*
X18666666Y-31359580D02*
X18761904Y-31216723D01*
X18761904Y-31216723D02*
X18809523Y-31026247D01*
X18809523Y-31026247D02*
X18809523Y-30645295D01*
X18809523Y-30645295D02*
X18761904Y-30550057D01*
X18761904Y-30550057D02*
X18714285Y-30502438D01*
X18714285Y-30502438D02*
X18619047Y-30454819D01*
X18619047Y-30454819D02*
X18428571Y-30454819D01*
X18428571Y-30454819D02*
X18333333Y-30502438D01*
X18333333Y-30502438D02*
X18285714Y-30550057D01*
X18285714Y-30550057D02*
X18238095Y-30645295D01*
X18238095Y-30645295D02*
X18238095Y-30883390D01*
X18238095Y-30883390D02*
X18285714Y-30978628D01*
X18285714Y-30978628D02*
X18333333Y-31026247D01*
X18333333Y-31026247D02*
X18428571Y-31073866D01*
X18428571Y-31073866D02*
X18619047Y-31073866D01*
X18619047Y-31073866D02*
X18714285Y-31026247D01*
X18714285Y-31026247D02*
X18761904Y-30978628D01*
X18761904Y-30978628D02*
X18809523Y-30883390D01*
X-26940475Y-22454819D02*
X-27273808Y-21978628D01*
X-27511903Y-22454819D02*
X-27511903Y-21454819D01*
X-27511903Y-21454819D02*
X-27130951Y-21454819D01*
X-27130951Y-21454819D02*
X-27035713Y-21502438D01*
X-27035713Y-21502438D02*
X-26988094Y-21550057D01*
X-26988094Y-21550057D02*
X-26940475Y-21645295D01*
X-26940475Y-21645295D02*
X-26940475Y-21788152D01*
X-26940475Y-21788152D02*
X-26988094Y-21883390D01*
X-26988094Y-21883390D02*
X-27035713Y-21931009D01*
X-27035713Y-21931009D02*
X-27130951Y-21978628D01*
X-27130951Y-21978628D02*
X-27511903Y-21978628D01*
X-26369046Y-22454819D02*
X-26464284Y-22407200D01*
X-26464284Y-22407200D02*
X-26511903Y-22311961D01*
X-26511903Y-22311961D02*
X-26511903Y-21454819D01*
X-25607141Y-22407200D02*
X-25702379Y-22454819D01*
X-25702379Y-22454819D02*
X-25892855Y-22454819D01*
X-25892855Y-22454819D02*
X-25988093Y-22407200D01*
X-25988093Y-22407200D02*
X-26035712Y-22311961D01*
X-26035712Y-22311961D02*
X-26035712Y-21931009D01*
X-26035712Y-21931009D02*
X-25988093Y-21835771D01*
X-25988093Y-21835771D02*
X-25892855Y-21788152D01*
X-25892855Y-21788152D02*
X-25702379Y-21788152D01*
X-25702379Y-21788152D02*
X-25607141Y-21835771D01*
X-25607141Y-21835771D02*
X-25559522Y-21931009D01*
X-25559522Y-21931009D02*
X-25559522Y-22026247D01*
X-25559522Y-22026247D02*
X-26035712Y-22121485D01*
X-24702379Y-22454819D02*
X-24702379Y-21454819D01*
X-24702379Y-22407200D02*
X-24797617Y-22454819D01*
X-24797617Y-22454819D02*
X-24988093Y-22454819D01*
X-24988093Y-22454819D02*
X-25083331Y-22407200D01*
X-25083331Y-22407200D02*
X-25130950Y-22359580D01*
X-25130950Y-22359580D02*
X-25178569Y-22264342D01*
X-25178569Y-22264342D02*
X-25178569Y-21978628D01*
X-25178569Y-21978628D02*
X-25130950Y-21883390D01*
X-25130950Y-21883390D02*
X-25083331Y-21835771D01*
X-25083331Y-21835771D02*
X-24988093Y-21788152D01*
X-24988093Y-21788152D02*
X-24797617Y-21788152D01*
X-24797617Y-21788152D02*
X-24702379Y-21835771D01*
X-8190475Y11640419D02*
X-8238094Y11592800D01*
X-8238094Y11592800D02*
X-8380951Y11545180D01*
X-8380951Y11545180D02*
X-8476189Y11545180D01*
X-8476189Y11545180D02*
X-8619046Y11592800D01*
X-8619046Y11592800D02*
X-8714284Y11688038D01*
X-8714284Y11688038D02*
X-8761903Y11783276D01*
X-8761903Y11783276D02*
X-8809522Y11973752D01*
X-8809522Y11973752D02*
X-8809522Y12116609D01*
X-8809522Y12116609D02*
X-8761903Y12307085D01*
X-8761903Y12307085D02*
X-8714284Y12402323D01*
X-8714284Y12402323D02*
X-8619046Y12497561D01*
X-8619046Y12497561D02*
X-8476189Y12545180D01*
X-8476189Y12545180D02*
X-8380951Y12545180D01*
X-8380951Y12545180D02*
X-8238094Y12497561D01*
X-8238094Y12497561D02*
X-8190475Y12449942D01*
X-7238094Y11545180D02*
X-7809522Y11545180D01*
X-7523808Y11545180D02*
X-7523808Y12545180D01*
X-7523808Y12545180D02*
X-7619046Y12402323D01*
X-7619046Y12402323D02*
X-7714284Y12307085D01*
X-7714284Y12307085D02*
X-7809522Y12259466D01*
X-6380951Y12211847D02*
X-6380951Y11545180D01*
X-6619046Y12592800D02*
X-6857141Y11878514D01*
X-6857141Y11878514D02*
X-6238094Y11878514D01*
X26559523Y17640419D02*
X26511904Y17592800D01*
X26511904Y17592800D02*
X26369047Y17545180D01*
X26369047Y17545180D02*
X26273809Y17545180D01*
X26273809Y17545180D02*
X26130952Y17592800D01*
X26130952Y17592800D02*
X26035714Y17688038D01*
X26035714Y17688038D02*
X25988095Y17783276D01*
X25988095Y17783276D02*
X25940476Y17973752D01*
X25940476Y17973752D02*
X25940476Y18116609D01*
X25940476Y18116609D02*
X25988095Y18307085D01*
X25988095Y18307085D02*
X26035714Y18402323D01*
X26035714Y18402323D02*
X26130952Y18497561D01*
X26130952Y18497561D02*
X26273809Y18545180D01*
X26273809Y18545180D02*
X26369047Y18545180D01*
X26369047Y18545180D02*
X26511904Y18497561D01*
X26511904Y18497561D02*
X26559523Y18449942D01*
X26940476Y18449942D02*
X26988095Y18497561D01*
X26988095Y18497561D02*
X27083333Y18545180D01*
X27083333Y18545180D02*
X27321428Y18545180D01*
X27321428Y18545180D02*
X27416666Y18497561D01*
X27416666Y18497561D02*
X27464285Y18449942D01*
X27464285Y18449942D02*
X27511904Y18354704D01*
X27511904Y18354704D02*
X27511904Y18259466D01*
X27511904Y18259466D02*
X27464285Y18116609D01*
X27464285Y18116609D02*
X26892857Y17545180D01*
X26892857Y17545180D02*
X27511904Y17545180D01*
X-8440475Y35640419D02*
X-8488094Y35592800D01*
X-8488094Y35592800D02*
X-8630951Y35545180D01*
X-8630951Y35545180D02*
X-8726189Y35545180D01*
X-8726189Y35545180D02*
X-8869046Y35592800D01*
X-8869046Y35592800D02*
X-8964284Y35688038D01*
X-8964284Y35688038D02*
X-9011903Y35783276D01*
X-9011903Y35783276D02*
X-9059522Y35973752D01*
X-9059522Y35973752D02*
X-9059522Y36116609D01*
X-9059522Y36116609D02*
X-9011903Y36307085D01*
X-9011903Y36307085D02*
X-8964284Y36402323D01*
X-8964284Y36402323D02*
X-8869046Y36497561D01*
X-8869046Y36497561D02*
X-8726189Y36545180D01*
X-8726189Y36545180D02*
X-8630951Y36545180D01*
X-8630951Y36545180D02*
X-8488094Y36497561D01*
X-8488094Y36497561D02*
X-8440475Y36449942D01*
X-7583332Y36545180D02*
X-7773808Y36545180D01*
X-7773808Y36545180D02*
X-7869046Y36497561D01*
X-7869046Y36497561D02*
X-7916665Y36449942D01*
X-7916665Y36449942D02*
X-8011903Y36307085D01*
X-8011903Y36307085D02*
X-8059522Y36116609D01*
X-8059522Y36116609D02*
X-8059522Y35735657D01*
X-8059522Y35735657D02*
X-8011903Y35640419D01*
X-8011903Y35640419D02*
X-7964284Y35592800D01*
X-7964284Y35592800D02*
X-7869046Y35545180D01*
X-7869046Y35545180D02*
X-7678570Y35545180D01*
X-7678570Y35545180D02*
X-7583332Y35592800D01*
X-7583332Y35592800D02*
X-7535713Y35640419D01*
X-7535713Y35640419D02*
X-7488094Y35735657D01*
X-7488094Y35735657D02*
X-7488094Y35973752D01*
X-7488094Y35973752D02*
X-7535713Y36068990D01*
X-7535713Y36068990D02*
X-7583332Y36116609D01*
X-7583332Y36116609D02*
X-7678570Y36164228D01*
X-7678570Y36164228D02*
X-7869046Y36164228D01*
X-7869046Y36164228D02*
X-7964284Y36116609D01*
X-7964284Y36116609D02*
X-8011903Y36068990D01*
X-8011903Y36068990D02*
X-8059522Y35973752D01*
X20190475Y-16954819D02*
X19857142Y-16478628D01*
X19619047Y-16954819D02*
X19619047Y-15954819D01*
X19619047Y-15954819D02*
X19999999Y-15954819D01*
X19999999Y-15954819D02*
X20095237Y-16002438D01*
X20095237Y-16002438D02*
X20142856Y-16050057D01*
X20142856Y-16050057D02*
X20190475Y-16145295D01*
X20190475Y-16145295D02*
X20190475Y-16288152D01*
X20190475Y-16288152D02*
X20142856Y-16383390D01*
X20142856Y-16383390D02*
X20095237Y-16431009D01*
X20095237Y-16431009D02*
X19999999Y-16478628D01*
X19999999Y-16478628D02*
X19619047Y-16478628D01*
X21047618Y-16954819D02*
X21047618Y-16431009D01*
X21047618Y-16431009D02*
X20999999Y-16335771D01*
X20999999Y-16335771D02*
X20904761Y-16288152D01*
X20904761Y-16288152D02*
X20714285Y-16288152D01*
X20714285Y-16288152D02*
X20619047Y-16335771D01*
X21047618Y-16907200D02*
X20952380Y-16954819D01*
X20952380Y-16954819D02*
X20714285Y-16954819D01*
X20714285Y-16954819D02*
X20619047Y-16907200D01*
X20619047Y-16907200D02*
X20571428Y-16811961D01*
X20571428Y-16811961D02*
X20571428Y-16716723D01*
X20571428Y-16716723D02*
X20619047Y-16621485D01*
X20619047Y-16621485D02*
X20714285Y-16573866D01*
X20714285Y-16573866D02*
X20952380Y-16573866D01*
X20952380Y-16573866D02*
X21047618Y-16526247D01*
X21952380Y-16288152D02*
X21952380Y-17097676D01*
X21952380Y-17097676D02*
X21904761Y-17192914D01*
X21904761Y-17192914D02*
X21857142Y-17240533D01*
X21857142Y-17240533D02*
X21761904Y-17288152D01*
X21761904Y-17288152D02*
X21619047Y-17288152D01*
X21619047Y-17288152D02*
X21523809Y-17240533D01*
X21952380Y-16907200D02*
X21857142Y-16954819D01*
X21857142Y-16954819D02*
X21666666Y-16954819D01*
X21666666Y-16954819D02*
X21571428Y-16907200D01*
X21571428Y-16907200D02*
X21523809Y-16859580D01*
X21523809Y-16859580D02*
X21476190Y-16764342D01*
X21476190Y-16764342D02*
X21476190Y-16478628D01*
X21476190Y-16478628D02*
X21523809Y-16383390D01*
X21523809Y-16383390D02*
X21571428Y-16335771D01*
X21571428Y-16335771D02*
X21666666Y-16288152D01*
X21666666Y-16288152D02*
X21857142Y-16288152D01*
X21857142Y-16288152D02*
X21952380Y-16335771D01*
X22428571Y-16288152D02*
X22428571Y-16954819D01*
X22428571Y-16383390D02*
X22476190Y-16335771D01*
X22476190Y-16335771D02*
X22571428Y-16288152D01*
X22571428Y-16288152D02*
X22714285Y-16288152D01*
X22714285Y-16288152D02*
X22809523Y-16335771D01*
X22809523Y-16335771D02*
X22857142Y-16431009D01*
X22857142Y-16431009D02*
X22857142Y-16954819D01*
X23761904Y-16954819D02*
X23761904Y-15954819D01*
X23761904Y-16907200D02*
X23666666Y-16954819D01*
X23666666Y-16954819D02*
X23476190Y-16954819D01*
X23476190Y-16954819D02*
X23380952Y-16907200D01*
X23380952Y-16907200D02*
X23333333Y-16859580D01*
X23333333Y-16859580D02*
X23285714Y-16764342D01*
X23285714Y-16764342D02*
X23285714Y-16478628D01*
X23285714Y-16478628D02*
X23333333Y-16383390D01*
X23333333Y-16383390D02*
X23380952Y-16335771D01*
X23380952Y-16335771D02*
X23476190Y-16288152D01*
X23476190Y-16288152D02*
X23666666Y-16288152D01*
X23666666Y-16288152D02*
X23761904Y-16335771D01*
X-16761904Y37101930D02*
X-16761904Y36292407D01*
X-16761904Y36292407D02*
X-16714285Y36197169D01*
X-16714285Y36197169D02*
X-16666666Y36149550D01*
X-16666666Y36149550D02*
X-16571428Y36101930D01*
X-16571428Y36101930D02*
X-16380952Y36101930D01*
X-16380952Y36101930D02*
X-16285714Y36149550D01*
X-16285714Y36149550D02*
X-16238095Y36197169D01*
X-16238095Y36197169D02*
X-16190476Y36292407D01*
X-16190476Y36292407D02*
X-16190476Y37101930D01*
X-15238095Y37101930D02*
X-15714285Y37101930D01*
X-15714285Y37101930D02*
X-15761904Y36625740D01*
X-15761904Y36625740D02*
X-15714285Y36673359D01*
X-15714285Y36673359D02*
X-15619047Y36720978D01*
X-15619047Y36720978D02*
X-15380952Y36720978D01*
X-15380952Y36720978D02*
X-15285714Y36673359D01*
X-15285714Y36673359D02*
X-15238095Y36625740D01*
X-15238095Y36625740D02*
X-15190476Y36530502D01*
X-15190476Y36530502D02*
X-15190476Y36292407D01*
X-15190476Y36292407D02*
X-15238095Y36197169D01*
X-15238095Y36197169D02*
X-15285714Y36149550D01*
X-15285714Y36149550D02*
X-15380952Y36101930D01*
X-15380952Y36101930D02*
X-15619047Y36101930D01*
X-15619047Y36101930D02*
X-15714285Y36149550D01*
X-15714285Y36149550D02*
X-15761904Y36197169D01*
X13683068Y35603555D02*
X13683068Y34889270D01*
X13683068Y34889270D02*
X13635449Y34746413D01*
X13635449Y34746413D02*
X13540211Y34651175D01*
X13540211Y34651175D02*
X13397354Y34603555D01*
X13397354Y34603555D02*
X13302116Y34603555D01*
X14111640Y35508317D02*
X14159259Y35555936D01*
X14159259Y35555936D02*
X14254497Y35603555D01*
X14254497Y35603555D02*
X14492592Y35603555D01*
X14492592Y35603555D02*
X14587830Y35555936D01*
X14587830Y35555936D02*
X14635449Y35508317D01*
X14635449Y35508317D02*
X14683068Y35413079D01*
X14683068Y35413079D02*
X14683068Y35317841D01*
X14683068Y35317841D02*
X14635449Y35174984D01*
X14635449Y35174984D02*
X14064021Y34603555D01*
X14064021Y34603555D02*
X14683068Y34603555D01*
X19857142Y-22332830D02*
X19809523Y-22380450D01*
X19809523Y-22380450D02*
X19666666Y-22428069D01*
X19666666Y-22428069D02*
X19571428Y-22428069D01*
X19571428Y-22428069D02*
X19428571Y-22380450D01*
X19428571Y-22380450D02*
X19333333Y-22285211D01*
X19333333Y-22285211D02*
X19285714Y-22189973D01*
X19285714Y-22189973D02*
X19238095Y-21999497D01*
X19238095Y-21999497D02*
X19238095Y-21856640D01*
X19238095Y-21856640D02*
X19285714Y-21666164D01*
X19285714Y-21666164D02*
X19333333Y-21570926D01*
X19333333Y-21570926D02*
X19428571Y-21475688D01*
X19428571Y-21475688D02*
X19571428Y-21428069D01*
X19571428Y-21428069D02*
X19666666Y-21428069D01*
X19666666Y-21428069D02*
X19809523Y-21475688D01*
X19809523Y-21475688D02*
X19857142Y-21523307D01*
X20809523Y-22428069D02*
X20238095Y-22428069D01*
X20523809Y-22428069D02*
X20523809Y-21428069D01*
X20523809Y-21428069D02*
X20428571Y-21570926D01*
X20428571Y-21570926D02*
X20333333Y-21666164D01*
X20333333Y-21666164D02*
X20238095Y-21713783D01*
X21428571Y-21428069D02*
X21523809Y-21428069D01*
X21523809Y-21428069D02*
X21619047Y-21475688D01*
X21619047Y-21475688D02*
X21666666Y-21523307D01*
X21666666Y-21523307D02*
X21714285Y-21618545D01*
X21714285Y-21618545D02*
X21761904Y-21809021D01*
X21761904Y-21809021D02*
X21761904Y-22047116D01*
X21761904Y-22047116D02*
X21714285Y-22237592D01*
X21714285Y-22237592D02*
X21666666Y-22332830D01*
X21666666Y-22332830D02*
X21619047Y-22380450D01*
X21619047Y-22380450D02*
X21523809Y-22428069D01*
X21523809Y-22428069D02*
X21428571Y-22428069D01*
X21428571Y-22428069D02*
X21333333Y-22380450D01*
X21333333Y-22380450D02*
X21285714Y-22332830D01*
X21285714Y-22332830D02*
X21238095Y-22237592D01*
X21238095Y-22237592D02*
X21190476Y-22047116D01*
X21190476Y-22047116D02*
X21190476Y-21809021D01*
X21190476Y-21809021D02*
X21238095Y-21618545D01*
X21238095Y-21618545D02*
X21285714Y-21523307D01*
X21285714Y-21523307D02*
X21333333Y-21475688D01*
X21333333Y-21475688D02*
X21428571Y-21428069D01*
X-8190475Y22045180D02*
X-8523808Y22521371D01*
X-8761903Y22045180D02*
X-8761903Y23045180D01*
X-8761903Y23045180D02*
X-8380951Y23045180D01*
X-8380951Y23045180D02*
X-8285713Y22997561D01*
X-8285713Y22997561D02*
X-8238094Y22949942D01*
X-8238094Y22949942D02*
X-8190475Y22854704D01*
X-8190475Y22854704D02*
X-8190475Y22711847D01*
X-8190475Y22711847D02*
X-8238094Y22616609D01*
X-8238094Y22616609D02*
X-8285713Y22568990D01*
X-8285713Y22568990D02*
X-8380951Y22521371D01*
X-8380951Y22521371D02*
X-8761903Y22521371D01*
X-7809522Y22092800D02*
X-7714284Y22045180D01*
X-7714284Y22045180D02*
X-7523808Y22045180D01*
X-7523808Y22045180D02*
X-7428570Y22092800D01*
X-7428570Y22092800D02*
X-7380951Y22188038D01*
X-7380951Y22188038D02*
X-7380951Y22235657D01*
X-7380951Y22235657D02*
X-7428570Y22330895D01*
X-7428570Y22330895D02*
X-7523808Y22378514D01*
X-7523808Y22378514D02*
X-7666665Y22378514D01*
X-7666665Y22378514D02*
X-7761903Y22426133D01*
X-7761903Y22426133D02*
X-7809522Y22521371D01*
X-7809522Y22521371D02*
X-7809522Y22568990D01*
X-7809522Y22568990D02*
X-7761903Y22664228D01*
X-7761903Y22664228D02*
X-7666665Y22711847D01*
X-7666665Y22711847D02*
X-7523808Y22711847D01*
X-7523808Y22711847D02*
X-7428570Y22664228D01*
X-6523808Y22045180D02*
X-6523808Y23045180D01*
X-6523808Y22092800D02*
X-6619046Y22045180D01*
X-6619046Y22045180D02*
X-6809522Y22045180D01*
X-6809522Y22045180D02*
X-6904760Y22092800D01*
X-6904760Y22092800D02*
X-6952379Y22140419D01*
X-6952379Y22140419D02*
X-6999998Y22235657D01*
X-6999998Y22235657D02*
X-6999998Y22521371D01*
X-6999998Y22521371D02*
X-6952379Y22616609D01*
X-6952379Y22616609D02*
X-6904760Y22664228D01*
X-6904760Y22664228D02*
X-6809522Y22711847D01*
X-6809522Y22711847D02*
X-6619046Y22711847D01*
X-6619046Y22711847D02*
X-6523808Y22664228D01*
X-5523808Y22045180D02*
X-6095236Y22045180D01*
X-5809522Y22045180D02*
X-5809522Y23045180D01*
X-5809522Y23045180D02*
X-5904760Y22902323D01*
X-5904760Y22902323D02*
X-5999998Y22807085D01*
X-5999998Y22807085D02*
X-6095236Y22759466D01*
X4313809Y26735180D02*
X4313809Y26020895D01*
X4313809Y26020895D02*
X4266190Y25878038D01*
X4266190Y25878038D02*
X4170952Y25782800D01*
X4170952Y25782800D02*
X4028095Y25735180D01*
X4028095Y25735180D02*
X3932857Y25735180D01*
X5313809Y25735180D02*
X4742381Y25735180D01*
X5028095Y25735180D02*
X5028095Y26735180D01*
X5028095Y26735180D02*
X4932857Y26592323D01*
X4932857Y26592323D02*
X4837619Y26497085D01*
X4837619Y26497085D02*
X4742381Y26449466D01*
X7288095Y9245180D02*
X7288095Y8435657D01*
X7288095Y8435657D02*
X7335714Y8340419D01*
X7335714Y8340419D02*
X7383333Y8292800D01*
X7383333Y8292800D02*
X7478571Y8245180D01*
X7478571Y8245180D02*
X7669047Y8245180D01*
X7669047Y8245180D02*
X7764285Y8292800D01*
X7764285Y8292800D02*
X7811904Y8340419D01*
X7811904Y8340419D02*
X7859523Y8435657D01*
X7859523Y8435657D02*
X7859523Y9245180D01*
X8859523Y8245180D02*
X8288095Y8245180D01*
X8573809Y8245180D02*
X8573809Y9245180D01*
X8573809Y9245180D02*
X8478571Y9102323D01*
X8478571Y9102323D02*
X8383333Y9007085D01*
X8383333Y9007085D02*
X8288095Y8959466D01*
X26809523Y24640419D02*
X26761904Y24592800D01*
X26761904Y24592800D02*
X26619047Y24545180D01*
X26619047Y24545180D02*
X26523809Y24545180D01*
X26523809Y24545180D02*
X26380952Y24592800D01*
X26380952Y24592800D02*
X26285714Y24688038D01*
X26285714Y24688038D02*
X26238095Y24783276D01*
X26238095Y24783276D02*
X26190476Y24973752D01*
X26190476Y24973752D02*
X26190476Y25116609D01*
X26190476Y25116609D02*
X26238095Y25307085D01*
X26238095Y25307085D02*
X26285714Y25402323D01*
X26285714Y25402323D02*
X26380952Y25497561D01*
X26380952Y25497561D02*
X26523809Y25545180D01*
X26523809Y25545180D02*
X26619047Y25545180D01*
X26619047Y25545180D02*
X26761904Y25497561D01*
X26761904Y25497561D02*
X26809523Y25449942D01*
X27761904Y24545180D02*
X27190476Y24545180D01*
X27476190Y24545180D02*
X27476190Y25545180D01*
X27476190Y25545180D02*
X27380952Y25402323D01*
X27380952Y25402323D02*
X27285714Y25307085D01*
X27285714Y25307085D02*
X27190476Y25259466D01*
X14539370Y29433555D02*
X14206037Y29909746D01*
X13967942Y29433555D02*
X13967942Y30433555D01*
X13967942Y30433555D02*
X14348894Y30433555D01*
X14348894Y30433555D02*
X14444132Y30385936D01*
X14444132Y30385936D02*
X14491751Y30338317D01*
X14491751Y30338317D02*
X14539370Y30243079D01*
X14539370Y30243079D02*
X14539370Y30100222D01*
X14539370Y30100222D02*
X14491751Y30004984D01*
X14491751Y30004984D02*
X14444132Y29957365D01*
X14444132Y29957365D02*
X14348894Y29909746D01*
X14348894Y29909746D02*
X13967942Y29909746D01*
X15110799Y30004984D02*
X15015561Y30052603D01*
X15015561Y30052603D02*
X14967942Y30100222D01*
X14967942Y30100222D02*
X14920323Y30195460D01*
X14920323Y30195460D02*
X14920323Y30243079D01*
X14920323Y30243079D02*
X14967942Y30338317D01*
X14967942Y30338317D02*
X15015561Y30385936D01*
X15015561Y30385936D02*
X15110799Y30433555D01*
X15110799Y30433555D02*
X15301275Y30433555D01*
X15301275Y30433555D02*
X15396513Y30385936D01*
X15396513Y30385936D02*
X15444132Y30338317D01*
X15444132Y30338317D02*
X15491751Y30243079D01*
X15491751Y30243079D02*
X15491751Y30195460D01*
X15491751Y30195460D02*
X15444132Y30100222D01*
X15444132Y30100222D02*
X15396513Y30052603D01*
X15396513Y30052603D02*
X15301275Y30004984D01*
X15301275Y30004984D02*
X15110799Y30004984D01*
X15110799Y30004984D02*
X15015561Y29957365D01*
X15015561Y29957365D02*
X14967942Y29909746D01*
X14967942Y29909746D02*
X14920323Y29814508D01*
X14920323Y29814508D02*
X14920323Y29624032D01*
X14920323Y29624032D02*
X14967942Y29528794D01*
X14967942Y29528794D02*
X15015561Y29481175D01*
X15015561Y29481175D02*
X15110799Y29433555D01*
X15110799Y29433555D02*
X15301275Y29433555D01*
X15301275Y29433555D02*
X15396513Y29481175D01*
X15396513Y29481175D02*
X15444132Y29528794D01*
X15444132Y29528794D02*
X15491751Y29624032D01*
X15491751Y29624032D02*
X15491751Y29814508D01*
X15491751Y29814508D02*
X15444132Y29909746D01*
X15444132Y29909746D02*
X15396513Y29957365D01*
X15396513Y29957365D02*
X15301275Y30004984D01*
X23006844Y-18316992D02*
X23006844Y-19126515D01*
X23006844Y-19126515D02*
X23054463Y-19221753D01*
X23054463Y-19221753D02*
X23102082Y-19269373D01*
X23102082Y-19269373D02*
X23197320Y-19316992D01*
X23197320Y-19316992D02*
X23387796Y-19316992D01*
X23387796Y-19316992D02*
X23483034Y-19269373D01*
X23483034Y-19269373D02*
X23530653Y-19221753D01*
X23530653Y-19221753D02*
X23578272Y-19126515D01*
X23578272Y-19126515D02*
X23578272Y-18316992D01*
X24006844Y-18412230D02*
X24054463Y-18364611D01*
X24054463Y-18364611D02*
X24149701Y-18316992D01*
X24149701Y-18316992D02*
X24387796Y-18316992D01*
X24387796Y-18316992D02*
X24483034Y-18364611D01*
X24483034Y-18364611D02*
X24530653Y-18412230D01*
X24530653Y-18412230D02*
X24578272Y-18507468D01*
X24578272Y-18507468D02*
X24578272Y-18602706D01*
X24578272Y-18602706D02*
X24530653Y-18745563D01*
X24530653Y-18745563D02*
X23959225Y-19316992D01*
X23959225Y-19316992D02*
X24578272Y-19316992D01*
X-6055155Y36655570D02*
X-6055155Y35846047D01*
X-6055155Y35846047D02*
X-6007536Y35750809D01*
X-6007536Y35750809D02*
X-5959917Y35703190D01*
X-5959917Y35703190D02*
X-5864679Y35655570D01*
X-5864679Y35655570D02*
X-5674203Y35655570D01*
X-5674203Y35655570D02*
X-5578965Y35703190D01*
X-5578965Y35703190D02*
X-5531346Y35750809D01*
X-5531346Y35750809D02*
X-5483727Y35846047D01*
X-5483727Y35846047D02*
X-5483727Y36655570D01*
X-4578965Y36322237D02*
X-4578965Y35655570D01*
X-4817060Y36703190D02*
X-5055155Y35988904D01*
X-5055155Y35988904D02*
X-4436108Y35988904D01*
X21904761Y-27859580D02*
X21857142Y-27907200D01*
X21857142Y-27907200D02*
X21714285Y-27954819D01*
X21714285Y-27954819D02*
X21619047Y-27954819D01*
X21619047Y-27954819D02*
X21476190Y-27907200D01*
X21476190Y-27907200D02*
X21380952Y-27811961D01*
X21380952Y-27811961D02*
X21333333Y-27716723D01*
X21333333Y-27716723D02*
X21285714Y-27526247D01*
X21285714Y-27526247D02*
X21285714Y-27383390D01*
X21285714Y-27383390D02*
X21333333Y-27192914D01*
X21333333Y-27192914D02*
X21380952Y-27097676D01*
X21380952Y-27097676D02*
X21476190Y-27002438D01*
X21476190Y-27002438D02*
X21619047Y-26954819D01*
X21619047Y-26954819D02*
X21714285Y-26954819D01*
X21714285Y-26954819D02*
X21857142Y-27002438D01*
X21857142Y-27002438D02*
X21904761Y-27050057D01*
X22857142Y-27954819D02*
X22285714Y-27954819D01*
X22571428Y-27954819D02*
X22571428Y-26954819D01*
X22571428Y-26954819D02*
X22476190Y-27097676D01*
X22476190Y-27097676D02*
X22380952Y-27192914D01*
X22380952Y-27192914D02*
X22285714Y-27240533D01*
X23190476Y-26954819D02*
X23809523Y-26954819D01*
X23809523Y-26954819D02*
X23476190Y-27335771D01*
X23476190Y-27335771D02*
X23619047Y-27335771D01*
X23619047Y-27335771D02*
X23714285Y-27383390D01*
X23714285Y-27383390D02*
X23761904Y-27431009D01*
X23761904Y-27431009D02*
X23809523Y-27526247D01*
X23809523Y-27526247D02*
X23809523Y-27764342D01*
X23809523Y-27764342D02*
X23761904Y-27859580D01*
X23761904Y-27859580D02*
X23714285Y-27907200D01*
X23714285Y-27907200D02*
X23619047Y-27954819D01*
X23619047Y-27954819D02*
X23333333Y-27954819D01*
X23333333Y-27954819D02*
X23238095Y-27907200D01*
X23238095Y-27907200D02*
X23190476Y-27859580D01*
X11238095Y-33448068D02*
X11238095Y-34257591D01*
X11238095Y-34257591D02*
X11285714Y-34352829D01*
X11285714Y-34352829D02*
X11333333Y-34400449D01*
X11333333Y-34400449D02*
X11428571Y-34448068D01*
X11428571Y-34448068D02*
X11619047Y-34448068D01*
X11619047Y-34448068D02*
X11714285Y-34400449D01*
X11714285Y-34400449D02*
X11761904Y-34352829D01*
X11761904Y-34352829D02*
X11809523Y-34257591D01*
X11809523Y-34257591D02*
X11809523Y-33448068D01*
X12714285Y-33448068D02*
X12523809Y-33448068D01*
X12523809Y-33448068D02*
X12428571Y-33495687D01*
X12428571Y-33495687D02*
X12380952Y-33543306D01*
X12380952Y-33543306D02*
X12285714Y-33686163D01*
X12285714Y-33686163D02*
X12238095Y-33876639D01*
X12238095Y-33876639D02*
X12238095Y-34257591D01*
X12238095Y-34257591D02*
X12285714Y-34352829D01*
X12285714Y-34352829D02*
X12333333Y-34400449D01*
X12333333Y-34400449D02*
X12428571Y-34448068D01*
X12428571Y-34448068D02*
X12619047Y-34448068D01*
X12619047Y-34448068D02*
X12714285Y-34400449D01*
X12714285Y-34400449D02*
X12761904Y-34352829D01*
X12761904Y-34352829D02*
X12809523Y-34257591D01*
X12809523Y-34257591D02*
X12809523Y-34019496D01*
X12809523Y-34019496D02*
X12761904Y-33924258D01*
X12761904Y-33924258D02*
X12714285Y-33876639D01*
X12714285Y-33876639D02*
X12619047Y-33829020D01*
X12619047Y-33829020D02*
X12428571Y-33829020D01*
X12428571Y-33829020D02*
X12333333Y-33876639D01*
X12333333Y-33876639D02*
X12285714Y-33924258D01*
X12285714Y-33924258D02*
X12238095Y-34019496D01*
X333333Y36821930D02*
X0Y37298121D01*
X-238094Y36821930D02*
X-238094Y37821930D01*
X-238094Y37821930D02*
X142857Y37821930D01*
X142857Y37821930D02*
X238095Y37774311D01*
X238095Y37774311D02*
X285714Y37726692D01*
X285714Y37726692D02*
X333333Y37631454D01*
X333333Y37631454D02*
X333333Y37488597D01*
X333333Y37488597D02*
X285714Y37393359D01*
X285714Y37393359D02*
X238095Y37345740D01*
X238095Y37345740D02*
X142857Y37298121D01*
X142857Y37298121D02*
X-238094Y37298121D01*
X714286Y37726692D02*
X761905Y37774311D01*
X761905Y37774311D02*
X857143Y37821930D01*
X857143Y37821930D02*
X1095238Y37821930D01*
X1095238Y37821930D02*
X1190476Y37774311D01*
X1190476Y37774311D02*
X1238095Y37726692D01*
X1238095Y37726692D02*
X1285714Y37631454D01*
X1285714Y37631454D02*
X1285714Y37536216D01*
X1285714Y37536216D02*
X1238095Y37393359D01*
X1238095Y37393359D02*
X666667Y36821930D01*
X666667Y36821930D02*
X1285714Y36821930D01*
X18362125Y35762305D02*
X18362125Y34952782D01*
X18362125Y34952782D02*
X18409744Y34857544D01*
X18409744Y34857544D02*
X18457363Y34809925D01*
X18457363Y34809925D02*
X18552601Y34762305D01*
X18552601Y34762305D02*
X18743077Y34762305D01*
X18743077Y34762305D02*
X18838315Y34809925D01*
X18838315Y34809925D02*
X18885934Y34857544D01*
X18885934Y34857544D02*
X18933553Y34952782D01*
X18933553Y34952782D02*
X18933553Y35762305D01*
X19314506Y35762305D02*
X19933553Y35762305D01*
X19933553Y35762305D02*
X19600220Y35381353D01*
X19600220Y35381353D02*
X19743077Y35381353D01*
X19743077Y35381353D02*
X19838315Y35333734D01*
X19838315Y35333734D02*
X19885934Y35286115D01*
X19885934Y35286115D02*
X19933553Y35190877D01*
X19933553Y35190877D02*
X19933553Y34952782D01*
X19933553Y34952782D02*
X19885934Y34857544D01*
X19885934Y34857544D02*
X19838315Y34809925D01*
X19838315Y34809925D02*
X19743077Y34762305D01*
X19743077Y34762305D02*
X19457363Y34762305D01*
X19457363Y34762305D02*
X19362125Y34809925D01*
X19362125Y34809925D02*
X19314506Y34857544D01*
X23154761Y-10359580D02*
X23107142Y-10407200D01*
X23107142Y-10407200D02*
X22964285Y-10454819D01*
X22964285Y-10454819D02*
X22869047Y-10454819D01*
X22869047Y-10454819D02*
X22726190Y-10407200D01*
X22726190Y-10407200D02*
X22630952Y-10311961D01*
X22630952Y-10311961D02*
X22583333Y-10216723D01*
X22583333Y-10216723D02*
X22535714Y-10026247D01*
X22535714Y-10026247D02*
X22535714Y-9883390D01*
X22535714Y-9883390D02*
X22583333Y-9692914D01*
X22583333Y-9692914D02*
X22630952Y-9597676D01*
X22630952Y-9597676D02*
X22726190Y-9502438D01*
X22726190Y-9502438D02*
X22869047Y-9454819D01*
X22869047Y-9454819D02*
X22964285Y-9454819D01*
X22964285Y-9454819D02*
X23107142Y-9502438D01*
X23107142Y-9502438D02*
X23154761Y-9550057D01*
X24107142Y-10454819D02*
X23535714Y-10454819D01*
X23821428Y-10454819D02*
X23821428Y-9454819D01*
X23821428Y-9454819D02*
X23726190Y-9597676D01*
X23726190Y-9597676D02*
X23630952Y-9692914D01*
X23630952Y-9692914D02*
X23535714Y-9740533D01*
X25011904Y-9454819D02*
X24535714Y-9454819D01*
X24535714Y-9454819D02*
X24488095Y-9931009D01*
X24488095Y-9931009D02*
X24535714Y-9883390D01*
X24535714Y-9883390D02*
X24630952Y-9835771D01*
X24630952Y-9835771D02*
X24869047Y-9835771D01*
X24869047Y-9835771D02*
X24964285Y-9883390D01*
X24964285Y-9883390D02*
X25011904Y-9931009D01*
X25011904Y-9931009D02*
X25059523Y-10026247D01*
X25059523Y-10026247D02*
X25059523Y-10264342D01*
X25059523Y-10264342D02*
X25011904Y-10359580D01*
X25011904Y-10359580D02*
X24964285Y-10407200D01*
X24964285Y-10407200D02*
X24869047Y-10454819D01*
X24869047Y-10454819D02*
X24630952Y-10454819D01*
X24630952Y-10454819D02*
X24535714Y-10407200D01*
X24535714Y-10407200D02*
X24488095Y-10359580D01*
X-8190475Y14545180D02*
X-8523808Y15021371D01*
X-8761903Y14545180D02*
X-8761903Y15545180D01*
X-8761903Y15545180D02*
X-8380951Y15545180D01*
X-8380951Y15545180D02*
X-8285713Y15497561D01*
X-8285713Y15497561D02*
X-8238094Y15449942D01*
X-8238094Y15449942D02*
X-8190475Y15354704D01*
X-8190475Y15354704D02*
X-8190475Y15211847D01*
X-8190475Y15211847D02*
X-8238094Y15116609D01*
X-8238094Y15116609D02*
X-8285713Y15068990D01*
X-8285713Y15068990D02*
X-8380951Y15021371D01*
X-8380951Y15021371D02*
X-8761903Y15021371D01*
X-7809522Y14592800D02*
X-7714284Y14545180D01*
X-7714284Y14545180D02*
X-7523808Y14545180D01*
X-7523808Y14545180D02*
X-7428570Y14592800D01*
X-7428570Y14592800D02*
X-7380951Y14688038D01*
X-7380951Y14688038D02*
X-7380951Y14735657D01*
X-7380951Y14735657D02*
X-7428570Y14830895D01*
X-7428570Y14830895D02*
X-7523808Y14878514D01*
X-7523808Y14878514D02*
X-7666665Y14878514D01*
X-7666665Y14878514D02*
X-7761903Y14926133D01*
X-7761903Y14926133D02*
X-7809522Y15021371D01*
X-7809522Y15021371D02*
X-7809522Y15068990D01*
X-7809522Y15068990D02*
X-7761903Y15164228D01*
X-7761903Y15164228D02*
X-7666665Y15211847D01*
X-7666665Y15211847D02*
X-7523808Y15211847D01*
X-7523808Y15211847D02*
X-7428570Y15164228D01*
X-6523808Y14545180D02*
X-6523808Y15545180D01*
X-6523808Y14592800D02*
X-6619046Y14545180D01*
X-6619046Y14545180D02*
X-6809522Y14545180D01*
X-6809522Y14545180D02*
X-6904760Y14592800D01*
X-6904760Y14592800D02*
X-6952379Y14640419D01*
X-6952379Y14640419D02*
X-6999998Y14735657D01*
X-6999998Y14735657D02*
X-6999998Y15021371D01*
X-6999998Y15021371D02*
X-6952379Y15116609D01*
X-6952379Y15116609D02*
X-6904760Y15164228D01*
X-6904760Y15164228D02*
X-6809522Y15211847D01*
X-6809522Y15211847D02*
X-6619046Y15211847D01*
X-6619046Y15211847D02*
X-6523808Y15164228D01*
X-5619046Y15211847D02*
X-5619046Y14545180D01*
X-5857141Y15592800D02*
X-6095236Y14878514D01*
X-6095236Y14878514D02*
X-5476189Y14878514D01*
X-22255833Y9221930D02*
X-22255833Y8507645D01*
X-22255833Y8507645D02*
X-22303452Y8364788D01*
X-22303452Y8364788D02*
X-22398690Y8269550D01*
X-22398690Y8269550D02*
X-22541547Y8221930D01*
X-22541547Y8221930D02*
X-22636785Y8221930D01*
X-21874880Y9221930D02*
X-21255833Y9221930D01*
X-21255833Y9221930D02*
X-21589166Y8840978D01*
X-21589166Y8840978D02*
X-21446309Y8840978D01*
X-21446309Y8840978D02*
X-21351071Y8793359D01*
X-21351071Y8793359D02*
X-21303452Y8745740D01*
X-21303452Y8745740D02*
X-21255833Y8650502D01*
X-21255833Y8650502D02*
X-21255833Y8412407D01*
X-21255833Y8412407D02*
X-21303452Y8317169D01*
X-21303452Y8317169D02*
X-21351071Y8269550D01*
X-21351071Y8269550D02*
X-21446309Y8221930D01*
X-21446309Y8221930D02*
X-21732023Y8221930D01*
X-21732023Y8221930D02*
X-21827261Y8269550D01*
X-21827261Y8269550D02*
X-21874880Y8317169D01*
X26559523Y21140419D02*
X26511904Y21092800D01*
X26511904Y21092800D02*
X26369047Y21045180D01*
X26369047Y21045180D02*
X26273809Y21045180D01*
X26273809Y21045180D02*
X26130952Y21092800D01*
X26130952Y21092800D02*
X26035714Y21188038D01*
X26035714Y21188038D02*
X25988095Y21283276D01*
X25988095Y21283276D02*
X25940476Y21473752D01*
X25940476Y21473752D02*
X25940476Y21616609D01*
X25940476Y21616609D02*
X25988095Y21807085D01*
X25988095Y21807085D02*
X26035714Y21902323D01*
X26035714Y21902323D02*
X26130952Y21997561D01*
X26130952Y21997561D02*
X26273809Y22045180D01*
X26273809Y22045180D02*
X26369047Y22045180D01*
X26369047Y22045180D02*
X26511904Y21997561D01*
X26511904Y21997561D02*
X26559523Y21949942D01*
X26892857Y22045180D02*
X27511904Y22045180D01*
X27511904Y22045180D02*
X27178571Y21664228D01*
X27178571Y21664228D02*
X27321428Y21664228D01*
X27321428Y21664228D02*
X27416666Y21616609D01*
X27416666Y21616609D02*
X27464285Y21568990D01*
X27464285Y21568990D02*
X27511904Y21473752D01*
X27511904Y21473752D02*
X27511904Y21235657D01*
X27511904Y21235657D02*
X27464285Y21140419D01*
X27464285Y21140419D02*
X27416666Y21092800D01*
X27416666Y21092800D02*
X27321428Y21045180D01*
X27321428Y21045180D02*
X27035714Y21045180D01*
X27035714Y21045180D02*
X26940476Y21092800D01*
X26940476Y21092800D02*
X26892857Y21140419D01*
X21833333Y-36928069D02*
X21500000Y-36451878D01*
X21261905Y-36928069D02*
X21261905Y-35928069D01*
X21261905Y-35928069D02*
X21642857Y-35928069D01*
X21642857Y-35928069D02*
X21738095Y-35975688D01*
X21738095Y-35975688D02*
X21785714Y-36023307D01*
X21785714Y-36023307D02*
X21833333Y-36118545D01*
X21833333Y-36118545D02*
X21833333Y-36261402D01*
X21833333Y-36261402D02*
X21785714Y-36356640D01*
X21785714Y-36356640D02*
X21738095Y-36404259D01*
X21738095Y-36404259D02*
X21642857Y-36451878D01*
X21642857Y-36451878D02*
X21261905Y-36451878D01*
X22738095Y-35928069D02*
X22261905Y-35928069D01*
X22261905Y-35928069D02*
X22214286Y-36404259D01*
X22214286Y-36404259D02*
X22261905Y-36356640D01*
X22261905Y-36356640D02*
X22357143Y-36309021D01*
X22357143Y-36309021D02*
X22595238Y-36309021D01*
X22595238Y-36309021D02*
X22690476Y-36356640D01*
X22690476Y-36356640D02*
X22738095Y-36404259D01*
X22738095Y-36404259D02*
X22785714Y-36499497D01*
X22785714Y-36499497D02*
X22785714Y-36737592D01*
X22785714Y-36737592D02*
X22738095Y-36832830D01*
X22738095Y-36832830D02*
X22690476Y-36880450D01*
X22690476Y-36880450D02*
X22595238Y-36928069D01*
X22595238Y-36928069D02*
X22357143Y-36928069D01*
X22357143Y-36928069D02*
X22261905Y-36880450D01*
X22261905Y-36880450D02*
X22214286Y-36832830D01*
X-26889522Y-12407200D02*
X-26746665Y-12454819D01*
X-26746665Y-12454819D02*
X-26508570Y-12454819D01*
X-26508570Y-12454819D02*
X-26413332Y-12407200D01*
X-26413332Y-12407200D02*
X-26365713Y-12359580D01*
X-26365713Y-12359580D02*
X-26318094Y-12264342D01*
X-26318094Y-12264342D02*
X-26318094Y-12169104D01*
X-26318094Y-12169104D02*
X-26365713Y-12073866D01*
X-26365713Y-12073866D02*
X-26413332Y-12026247D01*
X-26413332Y-12026247D02*
X-26508570Y-11978628D01*
X-26508570Y-11978628D02*
X-26699046Y-11931009D01*
X-26699046Y-11931009D02*
X-26794284Y-11883390D01*
X-26794284Y-11883390D02*
X-26841903Y-11835771D01*
X-26841903Y-11835771D02*
X-26889522Y-11740533D01*
X-26889522Y-11740533D02*
X-26889522Y-11645295D01*
X-26889522Y-11645295D02*
X-26841903Y-11550057D01*
X-26841903Y-11550057D02*
X-26794284Y-11502438D01*
X-26794284Y-11502438D02*
X-26699046Y-11454819D01*
X-26699046Y-11454819D02*
X-26460951Y-11454819D01*
X-26460951Y-11454819D02*
X-26318094Y-11502438D01*
X-25984760Y-11454819D02*
X-25746665Y-12454819D01*
X-25746665Y-12454819D02*
X-25556189Y-11740533D01*
X-25556189Y-11740533D02*
X-25365713Y-12454819D01*
X-25365713Y-12454819D02*
X-25127618Y-11454819D01*
X-24222856Y-12454819D02*
X-24794284Y-12454819D01*
X-24508570Y-12454819D02*
X-24508570Y-11454819D01*
X-24508570Y-11454819D02*
X-24603808Y-11597676D01*
X-24603808Y-11597676D02*
X-24699046Y-11692914D01*
X-24699046Y-11692914D02*
X-24794284Y-11740533D01*
X23420545Y28680987D02*
X23087212Y29157178D01*
X22849117Y28680987D02*
X22849117Y29680987D01*
X22849117Y29680987D02*
X23230069Y29680987D01*
X23230069Y29680987D02*
X23325307Y29633368D01*
X23325307Y29633368D02*
X23372926Y29585749D01*
X23372926Y29585749D02*
X23420545Y29490511D01*
X23420545Y29490511D02*
X23420545Y29347654D01*
X23420545Y29347654D02*
X23372926Y29252416D01*
X23372926Y29252416D02*
X23325307Y29204797D01*
X23325307Y29204797D02*
X23230069Y29157178D01*
X23230069Y29157178D02*
X22849117Y29157178D01*
X24372926Y28680987D02*
X23801498Y28680987D01*
X24087212Y28680987D02*
X24087212Y29680987D01*
X24087212Y29680987D02*
X23991974Y29538130D01*
X23991974Y29538130D02*
X23896736Y29442892D01*
X23896736Y29442892D02*
X23801498Y29395273D01*
X24991974Y29680987D02*
X25087212Y29680987D01*
X25087212Y29680987D02*
X25182450Y29633368D01*
X25182450Y29633368D02*
X25230069Y29585749D01*
X25230069Y29585749D02*
X25277688Y29490511D01*
X25277688Y29490511D02*
X25325307Y29300035D01*
X25325307Y29300035D02*
X25325307Y29061940D01*
X25325307Y29061940D02*
X25277688Y28871464D01*
X25277688Y28871464D02*
X25230069Y28776226D01*
X25230069Y28776226D02*
X25182450Y28728607D01*
X25182450Y28728607D02*
X25087212Y28680987D01*
X25087212Y28680987D02*
X24991974Y28680987D01*
X24991974Y28680987D02*
X24896736Y28728607D01*
X24896736Y28728607D02*
X24849117Y28776226D01*
X24849117Y28776226D02*
X24801498Y28871464D01*
X24801498Y28871464D02*
X24753879Y29061940D01*
X24753879Y29061940D02*
X24753879Y29300035D01*
X24753879Y29300035D02*
X24801498Y29490511D01*
X24801498Y29490511D02*
X24849117Y29585749D01*
X24849117Y29585749D02*
X24896736Y29633368D01*
X24896736Y29633368D02*
X24991974Y29680987D01*
X16078395Y35151163D02*
X15745062Y35627354D01*
X15506967Y35151163D02*
X15506967Y36151163D01*
X15506967Y36151163D02*
X15887919Y36151163D01*
X15887919Y36151163D02*
X15983157Y36103544D01*
X15983157Y36103544D02*
X16030776Y36055925D01*
X16030776Y36055925D02*
X16078395Y35960687D01*
X16078395Y35960687D02*
X16078395Y35817830D01*
X16078395Y35817830D02*
X16030776Y35722592D01*
X16030776Y35722592D02*
X15983157Y35674973D01*
X15983157Y35674973D02*
X15887919Y35627354D01*
X15887919Y35627354D02*
X15506967Y35627354D01*
X16411729Y36151163D02*
X17030776Y36151163D01*
X17030776Y36151163D02*
X16697443Y35770211D01*
X16697443Y35770211D02*
X16840300Y35770211D01*
X16840300Y35770211D02*
X16935538Y35722592D01*
X16935538Y35722592D02*
X16983157Y35674973D01*
X16983157Y35674973D02*
X17030776Y35579735D01*
X17030776Y35579735D02*
X17030776Y35341640D01*
X17030776Y35341640D02*
X16983157Y35246402D01*
X16983157Y35246402D02*
X16935538Y35198783D01*
X16935538Y35198783D02*
X16840300Y35151163D01*
X16840300Y35151163D02*
X16554586Y35151163D01*
X16554586Y35151163D02*
X16459348Y35198783D01*
X16459348Y35198783D02*
X16411729Y35246402D01*
X17329442Y26455405D02*
X16996109Y26931596D01*
X16758014Y26455405D02*
X16758014Y27455405D01*
X16758014Y27455405D02*
X17138966Y27455405D01*
X17138966Y27455405D02*
X17234204Y27407786D01*
X17234204Y27407786D02*
X17281823Y27360167D01*
X17281823Y27360167D02*
X17329442Y27264929D01*
X17329442Y27264929D02*
X17329442Y27122072D01*
X17329442Y27122072D02*
X17281823Y27026834D01*
X17281823Y27026834D02*
X17234204Y26979215D01*
X17234204Y26979215D02*
X17138966Y26931596D01*
X17138966Y26931596D02*
X16758014Y26931596D01*
X18281823Y26455405D02*
X17710395Y26455405D01*
X17996109Y26455405D02*
X17996109Y27455405D01*
X17996109Y27455405D02*
X17900871Y27312548D01*
X17900871Y27312548D02*
X17805633Y27217310D01*
X17805633Y27217310D02*
X17710395Y27169691D01*
X19234204Y26455405D02*
X18662776Y26455405D01*
X18948490Y26455405D02*
X18948490Y27455405D01*
X18948490Y27455405D02*
X18853252Y27312548D01*
X18853252Y27312548D02*
X18758014Y27217310D01*
X18758014Y27217310D02*
X18662776Y27169691D01*
X18656190Y-3607200D02*
X18799047Y-3654819D01*
X18799047Y-3654819D02*
X19037142Y-3654819D01*
X19037142Y-3654819D02*
X19132380Y-3607200D01*
X19132380Y-3607200D02*
X19179999Y-3559580D01*
X19179999Y-3559580D02*
X19227618Y-3464342D01*
X19227618Y-3464342D02*
X19227618Y-3369104D01*
X19227618Y-3369104D02*
X19179999Y-3273866D01*
X19179999Y-3273866D02*
X19132380Y-3226247D01*
X19132380Y-3226247D02*
X19037142Y-3178628D01*
X19037142Y-3178628D02*
X18846666Y-3131009D01*
X18846666Y-3131009D02*
X18751428Y-3083390D01*
X18751428Y-3083390D02*
X18703809Y-3035771D01*
X18703809Y-3035771D02*
X18656190Y-2940533D01*
X18656190Y-2940533D02*
X18656190Y-2845295D01*
X18656190Y-2845295D02*
X18703809Y-2750057D01*
X18703809Y-2750057D02*
X18751428Y-2702438D01*
X18751428Y-2702438D02*
X18846666Y-2654819D01*
X18846666Y-2654819D02*
X19084761Y-2654819D01*
X19084761Y-2654819D02*
X19227618Y-2702438D01*
X19560952Y-2654819D02*
X19799047Y-3654819D01*
X19799047Y-3654819D02*
X19989523Y-2940533D01*
X19989523Y-2940533D02*
X20179999Y-3654819D01*
X20179999Y-3654819D02*
X20418095Y-2654819D01*
X20560952Y-3750057D02*
X21322856Y-3750057D01*
X21894285Y-3131009D02*
X22037142Y-3178628D01*
X22037142Y-3178628D02*
X22084761Y-3226247D01*
X22084761Y-3226247D02*
X22132380Y-3321485D01*
X22132380Y-3321485D02*
X22132380Y-3464342D01*
X22132380Y-3464342D02*
X22084761Y-3559580D01*
X22084761Y-3559580D02*
X22037142Y-3607200D01*
X22037142Y-3607200D02*
X21941904Y-3654819D01*
X21941904Y-3654819D02*
X21560952Y-3654819D01*
X21560952Y-3654819D02*
X21560952Y-2654819D01*
X21560952Y-2654819D02*
X21894285Y-2654819D01*
X21894285Y-2654819D02*
X21989523Y-2702438D01*
X21989523Y-2702438D02*
X22037142Y-2750057D01*
X22037142Y-2750057D02*
X22084761Y-2845295D01*
X22084761Y-2845295D02*
X22084761Y-2940533D01*
X22084761Y-2940533D02*
X22037142Y-3035771D01*
X22037142Y-3035771D02*
X21989523Y-3083390D01*
X21989523Y-3083390D02*
X21894285Y-3131009D01*
X21894285Y-3131009D02*
X21560952Y-3131009D01*
X22751428Y-2654819D02*
X22941904Y-2654819D01*
X22941904Y-2654819D02*
X23037142Y-2702438D01*
X23037142Y-2702438D02*
X23132380Y-2797676D01*
X23132380Y-2797676D02*
X23179999Y-2988152D01*
X23179999Y-2988152D02*
X23179999Y-3321485D01*
X23179999Y-3321485D02*
X23132380Y-3511961D01*
X23132380Y-3511961D02*
X23037142Y-3607200D01*
X23037142Y-3607200D02*
X22941904Y-3654819D01*
X22941904Y-3654819D02*
X22751428Y-3654819D01*
X22751428Y-3654819D02*
X22656190Y-3607200D01*
X22656190Y-3607200D02*
X22560952Y-3511961D01*
X22560952Y-3511961D02*
X22513333Y-3321485D01*
X22513333Y-3321485D02*
X22513333Y-2988152D01*
X22513333Y-2988152D02*
X22560952Y-2797676D01*
X22560952Y-2797676D02*
X22656190Y-2702438D01*
X22656190Y-2702438D02*
X22751428Y-2654819D01*
X23799047Y-2654819D02*
X23989523Y-2654819D01*
X23989523Y-2654819D02*
X24084761Y-2702438D01*
X24084761Y-2702438D02*
X24179999Y-2797676D01*
X24179999Y-2797676D02*
X24227618Y-2988152D01*
X24227618Y-2988152D02*
X24227618Y-3321485D01*
X24227618Y-3321485D02*
X24179999Y-3511961D01*
X24179999Y-3511961D02*
X24084761Y-3607200D01*
X24084761Y-3607200D02*
X23989523Y-3654819D01*
X23989523Y-3654819D02*
X23799047Y-3654819D01*
X23799047Y-3654819D02*
X23703809Y-3607200D01*
X23703809Y-3607200D02*
X23608571Y-3511961D01*
X23608571Y-3511961D02*
X23560952Y-3321485D01*
X23560952Y-3321485D02*
X23560952Y-2988152D01*
X23560952Y-2988152D02*
X23608571Y-2797676D01*
X23608571Y-2797676D02*
X23703809Y-2702438D01*
X23703809Y-2702438D02*
X23799047Y-2654819D01*
X24513333Y-2654819D02*
X25084761Y-2654819D01*
X24799047Y-3654819D02*
X24799047Y-2654819D01*
X-8190475Y17045180D02*
X-8523808Y17521371D01*
X-8761903Y17045180D02*
X-8761903Y18045180D01*
X-8761903Y18045180D02*
X-8380951Y18045180D01*
X-8380951Y18045180D02*
X-8285713Y17997561D01*
X-8285713Y17997561D02*
X-8238094Y17949942D01*
X-8238094Y17949942D02*
X-8190475Y17854704D01*
X-8190475Y17854704D02*
X-8190475Y17711847D01*
X-8190475Y17711847D02*
X-8238094Y17616609D01*
X-8238094Y17616609D02*
X-8285713Y17568990D01*
X-8285713Y17568990D02*
X-8380951Y17521371D01*
X-8380951Y17521371D02*
X-8761903Y17521371D01*
X-7809522Y17092800D02*
X-7714284Y17045180D01*
X-7714284Y17045180D02*
X-7523808Y17045180D01*
X-7523808Y17045180D02*
X-7428570Y17092800D01*
X-7428570Y17092800D02*
X-7380951Y17188038D01*
X-7380951Y17188038D02*
X-7380951Y17235657D01*
X-7380951Y17235657D02*
X-7428570Y17330895D01*
X-7428570Y17330895D02*
X-7523808Y17378514D01*
X-7523808Y17378514D02*
X-7666665Y17378514D01*
X-7666665Y17378514D02*
X-7761903Y17426133D01*
X-7761903Y17426133D02*
X-7809522Y17521371D01*
X-7809522Y17521371D02*
X-7809522Y17568990D01*
X-7809522Y17568990D02*
X-7761903Y17664228D01*
X-7761903Y17664228D02*
X-7666665Y17711847D01*
X-7666665Y17711847D02*
X-7523808Y17711847D01*
X-7523808Y17711847D02*
X-7428570Y17664228D01*
X-6523808Y17045180D02*
X-6523808Y18045180D01*
X-6523808Y17092800D02*
X-6619046Y17045180D01*
X-6619046Y17045180D02*
X-6809522Y17045180D01*
X-6809522Y17045180D02*
X-6904760Y17092800D01*
X-6904760Y17092800D02*
X-6952379Y17140419D01*
X-6952379Y17140419D02*
X-6999998Y17235657D01*
X-6999998Y17235657D02*
X-6999998Y17521371D01*
X-6999998Y17521371D02*
X-6952379Y17616609D01*
X-6952379Y17616609D02*
X-6904760Y17664228D01*
X-6904760Y17664228D02*
X-6809522Y17711847D01*
X-6809522Y17711847D02*
X-6619046Y17711847D01*
X-6619046Y17711847D02*
X-6523808Y17664228D01*
X-6142855Y18045180D02*
X-5523808Y18045180D01*
X-5523808Y18045180D02*
X-5857141Y17664228D01*
X-5857141Y17664228D02*
X-5714284Y17664228D01*
X-5714284Y17664228D02*
X-5619046Y17616609D01*
X-5619046Y17616609D02*
X-5571427Y17568990D01*
X-5571427Y17568990D02*
X-5523808Y17473752D01*
X-5523808Y17473752D02*
X-5523808Y17235657D01*
X-5523808Y17235657D02*
X-5571427Y17140419D01*
X-5571427Y17140419D02*
X-5619046Y17092800D01*
X-5619046Y17092800D02*
X-5714284Y17045180D01*
X-5714284Y17045180D02*
X-5999998Y17045180D01*
X-5999998Y17045180D02*
X-6095236Y17092800D01*
X-6095236Y17092800D02*
X-6142855Y17140419D01*
X28380951Y-28934490D02*
X28333332Y-28982110D01*
X28333332Y-28982110D02*
X28190475Y-29029729D01*
X28190475Y-29029729D02*
X28095237Y-29029729D01*
X28095237Y-29029729D02*
X27952380Y-28982110D01*
X27952380Y-28982110D02*
X27857142Y-28886871D01*
X27857142Y-28886871D02*
X27809523Y-28791633D01*
X27809523Y-28791633D02*
X27761904Y-28601157D01*
X27761904Y-28601157D02*
X27761904Y-28458300D01*
X27761904Y-28458300D02*
X27809523Y-28267824D01*
X27809523Y-28267824D02*
X27857142Y-28172586D01*
X27857142Y-28172586D02*
X27952380Y-28077348D01*
X27952380Y-28077348D02*
X28095237Y-28029729D01*
X28095237Y-28029729D02*
X28190475Y-28029729D01*
X28190475Y-28029729D02*
X28333332Y-28077348D01*
X28333332Y-28077348D02*
X28380951Y-28124967D01*
X29333332Y-29029729D02*
X28761904Y-29029729D01*
X29047618Y-29029729D02*
X29047618Y-28029729D01*
X29047618Y-28029729D02*
X28952380Y-28172586D01*
X28952380Y-28172586D02*
X28857142Y-28267824D01*
X28857142Y-28267824D02*
X28761904Y-28315443D01*
X29666666Y-28029729D02*
X30333332Y-28029729D01*
X30333332Y-28029729D02*
X29904761Y-29029729D01*
X23059523Y35140419D02*
X23011904Y35092800D01*
X23011904Y35092800D02*
X22869047Y35045180D01*
X22869047Y35045180D02*
X22773809Y35045180D01*
X22773809Y35045180D02*
X22630952Y35092800D01*
X22630952Y35092800D02*
X22535714Y35188038D01*
X22535714Y35188038D02*
X22488095Y35283276D01*
X22488095Y35283276D02*
X22440476Y35473752D01*
X22440476Y35473752D02*
X22440476Y35616609D01*
X22440476Y35616609D02*
X22488095Y35807085D01*
X22488095Y35807085D02*
X22535714Y35902323D01*
X22535714Y35902323D02*
X22630952Y35997561D01*
X22630952Y35997561D02*
X22773809Y36045180D01*
X22773809Y36045180D02*
X22869047Y36045180D01*
X22869047Y36045180D02*
X23011904Y35997561D01*
X23011904Y35997561D02*
X23059523Y35949942D01*
X23964285Y36045180D02*
X23488095Y36045180D01*
X23488095Y36045180D02*
X23440476Y35568990D01*
X23440476Y35568990D02*
X23488095Y35616609D01*
X23488095Y35616609D02*
X23583333Y35664228D01*
X23583333Y35664228D02*
X23821428Y35664228D01*
X23821428Y35664228D02*
X23916666Y35616609D01*
X23916666Y35616609D02*
X23964285Y35568990D01*
X23964285Y35568990D02*
X24011904Y35473752D01*
X24011904Y35473752D02*
X24011904Y35235657D01*
X24011904Y35235657D02*
X23964285Y35140419D01*
X23964285Y35140419D02*
X23916666Y35092800D01*
X23916666Y35092800D02*
X23821428Y35045180D01*
X23821428Y35045180D02*
X23583333Y35045180D01*
X23583333Y35045180D02*
X23488095Y35092800D01*
X23488095Y35092800D02*
X23440476Y35140419D01*
X29809523Y-34954819D02*
X29476190Y-34478628D01*
X29238095Y-34954819D02*
X29238095Y-33954819D01*
X29238095Y-33954819D02*
X29619047Y-33954819D01*
X29619047Y-33954819D02*
X29714285Y-34002438D01*
X29714285Y-34002438D02*
X29761904Y-34050057D01*
X29761904Y-34050057D02*
X29809523Y-34145295D01*
X29809523Y-34145295D02*
X29809523Y-34288152D01*
X29809523Y-34288152D02*
X29761904Y-34383390D01*
X29761904Y-34383390D02*
X29714285Y-34431009D01*
X29714285Y-34431009D02*
X29619047Y-34478628D01*
X29619047Y-34478628D02*
X29238095Y-34478628D01*
X30666666Y-33954819D02*
X30476190Y-33954819D01*
X30476190Y-33954819D02*
X30380952Y-34002438D01*
X30380952Y-34002438D02*
X30333333Y-34050057D01*
X30333333Y-34050057D02*
X30238095Y-34192914D01*
X30238095Y-34192914D02*
X30190476Y-34383390D01*
X30190476Y-34383390D02*
X30190476Y-34764342D01*
X30190476Y-34764342D02*
X30238095Y-34859580D01*
X30238095Y-34859580D02*
X30285714Y-34907200D01*
X30285714Y-34907200D02*
X30380952Y-34954819D01*
X30380952Y-34954819D02*
X30571428Y-34954819D01*
X30571428Y-34954819D02*
X30666666Y-34907200D01*
X30666666Y-34907200D02*
X30714285Y-34859580D01*
X30714285Y-34859580D02*
X30761904Y-34764342D01*
X30761904Y-34764342D02*
X30761904Y-34526247D01*
X30761904Y-34526247D02*
X30714285Y-34431009D01*
X30714285Y-34431009D02*
X30666666Y-34383390D01*
X30666666Y-34383390D02*
X30571428Y-34335771D01*
X30571428Y-34335771D02*
X30380952Y-34335771D01*
X30380952Y-34335771D02*
X30285714Y-34383390D01*
X30285714Y-34383390D02*
X30238095Y-34431009D01*
X30238095Y-34431009D02*
X30190476Y-34526247D01*
X23241904Y30531929D02*
X23241904Y31531929D01*
X23241904Y31531929D02*
X23479999Y31531929D01*
X23479999Y31531929D02*
X23622856Y31484310D01*
X23622856Y31484310D02*
X23718094Y31389072D01*
X23718094Y31389072D02*
X23765713Y31293834D01*
X23765713Y31293834D02*
X23813332Y31103358D01*
X23813332Y31103358D02*
X23813332Y30960501D01*
X23813332Y30960501D02*
X23765713Y30770025D01*
X23765713Y30770025D02*
X23718094Y30674787D01*
X23718094Y30674787D02*
X23622856Y30579549D01*
X23622856Y30579549D02*
X23479999Y30531929D01*
X23479999Y30531929D02*
X23241904Y30531929D01*
X24194285Y31436691D02*
X24241904Y31484310D01*
X24241904Y31484310D02*
X24337142Y31531929D01*
X24337142Y31531929D02*
X24575237Y31531929D01*
X24575237Y31531929D02*
X24670475Y31484310D01*
X24670475Y31484310D02*
X24718094Y31436691D01*
X24718094Y31436691D02*
X24765713Y31341453D01*
X24765713Y31341453D02*
X24765713Y31246215D01*
X24765713Y31246215D02*
X24718094Y31103358D01*
X24718094Y31103358D02*
X24146666Y30531929D01*
X24146666Y30531929D02*
X24765713Y30531929D01*
X14539370Y26933555D02*
X14206037Y27409746D01*
X13967942Y26933555D02*
X13967942Y27933555D01*
X13967942Y27933555D02*
X14348894Y27933555D01*
X14348894Y27933555D02*
X14444132Y27885936D01*
X14444132Y27885936D02*
X14491751Y27838317D01*
X14491751Y27838317D02*
X14539370Y27743079D01*
X14539370Y27743079D02*
X14539370Y27600222D01*
X14539370Y27600222D02*
X14491751Y27504984D01*
X14491751Y27504984D02*
X14444132Y27457365D01*
X14444132Y27457365D02*
X14348894Y27409746D01*
X14348894Y27409746D02*
X13967942Y27409746D01*
X15015561Y26933555D02*
X15206037Y26933555D01*
X15206037Y26933555D02*
X15301275Y26981175D01*
X15301275Y26981175D02*
X15348894Y27028794D01*
X15348894Y27028794D02*
X15444132Y27171651D01*
X15444132Y27171651D02*
X15491751Y27362127D01*
X15491751Y27362127D02*
X15491751Y27743079D01*
X15491751Y27743079D02*
X15444132Y27838317D01*
X15444132Y27838317D02*
X15396513Y27885936D01*
X15396513Y27885936D02*
X15301275Y27933555D01*
X15301275Y27933555D02*
X15110799Y27933555D01*
X15110799Y27933555D02*
X15015561Y27885936D01*
X15015561Y27885936D02*
X14967942Y27838317D01*
X14967942Y27838317D02*
X14920323Y27743079D01*
X14920323Y27743079D02*
X14920323Y27504984D01*
X14920323Y27504984D02*
X14967942Y27409746D01*
X14967942Y27409746D02*
X15015561Y27362127D01*
X15015561Y27362127D02*
X15110799Y27314508D01*
X15110799Y27314508D02*
X15301275Y27314508D01*
X15301275Y27314508D02*
X15396513Y27362127D01*
X15396513Y27362127D02*
X15444132Y27409746D01*
X15444132Y27409746D02*
X15491751Y27504984D01*
X-27471903Y-18474819D02*
X-27471903Y-17474819D01*
X-27471903Y-17474819D02*
X-27233808Y-17474819D01*
X-27233808Y-17474819D02*
X-27090951Y-17522438D01*
X-27090951Y-17522438D02*
X-26995713Y-17617676D01*
X-26995713Y-17617676D02*
X-26948094Y-17712914D01*
X-26948094Y-17712914D02*
X-26900475Y-17903390D01*
X-26900475Y-17903390D02*
X-26900475Y-18046247D01*
X-26900475Y-18046247D02*
X-26948094Y-18236723D01*
X-26948094Y-18236723D02*
X-26995713Y-18331961D01*
X-26995713Y-18331961D02*
X-27090951Y-18427200D01*
X-27090951Y-18427200D02*
X-27233808Y-18474819D01*
X-27233808Y-18474819D02*
X-27471903Y-18474819D01*
X-25948094Y-18474819D02*
X-26519522Y-18474819D01*
X-26233808Y-18474819D02*
X-26233808Y-17474819D01*
X-26233808Y-17474819D02*
X-26329046Y-17617676D01*
X-26329046Y-17617676D02*
X-26424284Y-17712914D01*
X-26424284Y-17712914D02*
X-26519522Y-17760533D01*
X7904760Y-27859580D02*
X7857141Y-27907200D01*
X7857141Y-27907200D02*
X7714284Y-27954819D01*
X7714284Y-27954819D02*
X7619046Y-27954819D01*
X7619046Y-27954819D02*
X7476189Y-27907200D01*
X7476189Y-27907200D02*
X7380951Y-27811961D01*
X7380951Y-27811961D02*
X7333332Y-27716723D01*
X7333332Y-27716723D02*
X7285713Y-27526247D01*
X7285713Y-27526247D02*
X7285713Y-27383390D01*
X7285713Y-27383390D02*
X7333332Y-27192914D01*
X7333332Y-27192914D02*
X7380951Y-27097676D01*
X7380951Y-27097676D02*
X7476189Y-27002438D01*
X7476189Y-27002438D02*
X7619046Y-26954819D01*
X7619046Y-26954819D02*
X7714284Y-26954819D01*
X7714284Y-26954819D02*
X7857141Y-27002438D01*
X7857141Y-27002438D02*
X7904760Y-27050057D01*
X8857141Y-27954819D02*
X8285713Y-27954819D01*
X8571427Y-27954819D02*
X8571427Y-26954819D01*
X8571427Y-26954819D02*
X8476189Y-27097676D01*
X8476189Y-27097676D02*
X8380951Y-27192914D01*
X8380951Y-27192914D02*
X8285713Y-27240533D01*
X9333332Y-27954819D02*
X9523808Y-27954819D01*
X9523808Y-27954819D02*
X9619046Y-27907200D01*
X9619046Y-27907200D02*
X9666665Y-27859580D01*
X9666665Y-27859580D02*
X9761903Y-27716723D01*
X9761903Y-27716723D02*
X9809522Y-27526247D01*
X9809522Y-27526247D02*
X9809522Y-27145295D01*
X9809522Y-27145295D02*
X9761903Y-27050057D01*
X9761903Y-27050057D02*
X9714284Y-27002438D01*
X9714284Y-27002438D02*
X9619046Y-26954819D01*
X9619046Y-26954819D02*
X9428570Y-26954819D01*
X9428570Y-26954819D02*
X9333332Y-27002438D01*
X9333332Y-27002438D02*
X9285713Y-27050057D01*
X9285713Y-27050057D02*
X9238094Y-27145295D01*
X9238094Y-27145295D02*
X9238094Y-27383390D01*
X9238094Y-27383390D02*
X9285713Y-27478628D01*
X9285713Y-27478628D02*
X9333332Y-27526247D01*
X9333332Y-27526247D02*
X9428570Y-27573866D01*
X9428570Y-27573866D02*
X9619046Y-27573866D01*
X9619046Y-27573866D02*
X9714284Y-27526247D01*
X9714284Y-27526247D02*
X9761903Y-27478628D01*
X9761903Y-27478628D02*
X9809522Y-27383390D01*
X19095237Y37065508D02*
X19047618Y37017889D01*
X19047618Y37017889D02*
X18904761Y36970269D01*
X18904761Y36970269D02*
X18809523Y36970269D01*
X18809523Y36970269D02*
X18666666Y37017889D01*
X18666666Y37017889D02*
X18571428Y37113127D01*
X18571428Y37113127D02*
X18523809Y37208365D01*
X18523809Y37208365D02*
X18476190Y37398841D01*
X18476190Y37398841D02*
X18476190Y37541698D01*
X18476190Y37541698D02*
X18523809Y37732174D01*
X18523809Y37732174D02*
X18571428Y37827412D01*
X18571428Y37827412D02*
X18666666Y37922650D01*
X18666666Y37922650D02*
X18809523Y37970269D01*
X18809523Y37970269D02*
X18904761Y37970269D01*
X18904761Y37970269D02*
X19047618Y37922650D01*
X19047618Y37922650D02*
X19095237Y37875031D01*
X19952380Y37636936D02*
X19952380Y36970269D01*
X19714285Y38017889D02*
X19476190Y37303603D01*
X19476190Y37303603D02*
X20095237Y37303603D01*
X-2666666Y36917169D02*
X-2714285Y36869550D01*
X-2714285Y36869550D02*
X-2857142Y36821930D01*
X-2857142Y36821930D02*
X-2952380Y36821930D01*
X-2952380Y36821930D02*
X-3095237Y36869550D01*
X-3095237Y36869550D02*
X-3190475Y36964788D01*
X-3190475Y36964788D02*
X-3238094Y37060026D01*
X-3238094Y37060026D02*
X-3285713Y37250502D01*
X-3285713Y37250502D02*
X-3285713Y37393359D01*
X-3285713Y37393359D02*
X-3238094Y37583835D01*
X-3238094Y37583835D02*
X-3190475Y37679073D01*
X-3190475Y37679073D02*
X-3095237Y37774311D01*
X-3095237Y37774311D02*
X-2952380Y37821930D01*
X-2952380Y37821930D02*
X-2857142Y37821930D01*
X-2857142Y37821930D02*
X-2714285Y37774311D01*
X-2714285Y37774311D02*
X-2666666Y37726692D01*
X-2333332Y37821930D02*
X-1666666Y37821930D01*
X-1666666Y37821930D02*
X-2095237Y36821930D01*
X28054951Y28632180D02*
X27721618Y29108371D01*
X27483523Y28632180D02*
X27483523Y29632180D01*
X27483523Y29632180D02*
X27864475Y29632180D01*
X27864475Y29632180D02*
X27959713Y29584561D01*
X27959713Y29584561D02*
X28007332Y29536942D01*
X28007332Y29536942D02*
X28054951Y29441704D01*
X28054951Y29441704D02*
X28054951Y29298847D01*
X28054951Y29298847D02*
X28007332Y29203609D01*
X28007332Y29203609D02*
X27959713Y29155990D01*
X27959713Y29155990D02*
X27864475Y29108371D01*
X27864475Y29108371D02*
X27483523Y29108371D01*
X28435904Y28679800D02*
X28531142Y28632180D01*
X28531142Y28632180D02*
X28721618Y28632180D01*
X28721618Y28632180D02*
X28816856Y28679800D01*
X28816856Y28679800D02*
X28864475Y28775038D01*
X28864475Y28775038D02*
X28864475Y28822657D01*
X28864475Y28822657D02*
X28816856Y28917895D01*
X28816856Y28917895D02*
X28721618Y28965514D01*
X28721618Y28965514D02*
X28578761Y28965514D01*
X28578761Y28965514D02*
X28483523Y29013133D01*
X28483523Y29013133D02*
X28435904Y29108371D01*
X28435904Y29108371D02*
X28435904Y29155990D01*
X28435904Y29155990D02*
X28483523Y29251228D01*
X28483523Y29251228D02*
X28578761Y29298847D01*
X28578761Y29298847D02*
X28721618Y29298847D01*
X28721618Y29298847D02*
X28816856Y29251228D01*
X29150190Y29298847D02*
X29531142Y29298847D01*
X29293047Y29632180D02*
X29293047Y28775038D01*
X29293047Y28775038D02*
X29340666Y28679800D01*
X29340666Y28679800D02*
X29435904Y28632180D01*
X29435904Y28632180D02*
X29531142Y28632180D01*
X30293047Y28632180D02*
X30293047Y29155990D01*
X30293047Y29155990D02*
X30245428Y29251228D01*
X30245428Y29251228D02*
X30150190Y29298847D01*
X30150190Y29298847D02*
X29959714Y29298847D01*
X29959714Y29298847D02*
X29864476Y29251228D01*
X30293047Y28679800D02*
X30197809Y28632180D01*
X30197809Y28632180D02*
X29959714Y28632180D01*
X29959714Y28632180D02*
X29864476Y28679800D01*
X29864476Y28679800D02*
X29816857Y28775038D01*
X29816857Y28775038D02*
X29816857Y28870276D01*
X29816857Y28870276D02*
X29864476Y28965514D01*
X29864476Y28965514D02*
X29959714Y29013133D01*
X29959714Y29013133D02*
X30197809Y29013133D01*
X30197809Y29013133D02*
X30293047Y29060752D01*
X30626381Y29298847D02*
X31007333Y29298847D01*
X30769238Y29632180D02*
X30769238Y28775038D01*
X30769238Y28775038D02*
X30816857Y28679800D01*
X30816857Y28679800D02*
X30912095Y28632180D01*
X30912095Y28632180D02*
X31007333Y28632180D01*
X28808095Y-30367319D02*
X28808095Y-31176842D01*
X28808095Y-31176842D02*
X28855714Y-31272080D01*
X28855714Y-31272080D02*
X28903333Y-31319700D01*
X28903333Y-31319700D02*
X28998571Y-31367319D01*
X28998571Y-31367319D02*
X29189047Y-31367319D01*
X29189047Y-31367319D02*
X29284285Y-31319700D01*
X29284285Y-31319700D02*
X29331904Y-31272080D01*
X29331904Y-31272080D02*
X29379523Y-31176842D01*
X29379523Y-31176842D02*
X29379523Y-30367319D01*
X29998571Y-30795890D02*
X29903333Y-30748271D01*
X29903333Y-30748271D02*
X29855714Y-30700652D01*
X29855714Y-30700652D02*
X29808095Y-30605414D01*
X29808095Y-30605414D02*
X29808095Y-30557795D01*
X29808095Y-30557795D02*
X29855714Y-30462557D01*
X29855714Y-30462557D02*
X29903333Y-30414938D01*
X29903333Y-30414938D02*
X29998571Y-30367319D01*
X29998571Y-30367319D02*
X30189047Y-30367319D01*
X30189047Y-30367319D02*
X30284285Y-30414938D01*
X30284285Y-30414938D02*
X30331904Y-30462557D01*
X30331904Y-30462557D02*
X30379523Y-30557795D01*
X30379523Y-30557795D02*
X30379523Y-30605414D01*
X30379523Y-30605414D02*
X30331904Y-30700652D01*
X30331904Y-30700652D02*
X30284285Y-30748271D01*
X30284285Y-30748271D02*
X30189047Y-30795890D01*
X30189047Y-30795890D02*
X29998571Y-30795890D01*
X29998571Y-30795890D02*
X29903333Y-30843509D01*
X29903333Y-30843509D02*
X29855714Y-30891128D01*
X29855714Y-30891128D02*
X29808095Y-30986366D01*
X29808095Y-30986366D02*
X29808095Y-31176842D01*
X29808095Y-31176842D02*
X29855714Y-31272080D01*
X29855714Y-31272080D02*
X29903333Y-31319700D01*
X29903333Y-31319700D02*
X29998571Y-31367319D01*
X29998571Y-31367319D02*
X30189047Y-31367319D01*
X30189047Y-31367319D02*
X30284285Y-31319700D01*
X30284285Y-31319700D02*
X30331904Y-31272080D01*
X30331904Y-31272080D02*
X30379523Y-31176842D01*
X30379523Y-31176842D02*
X30379523Y-30986366D01*
X30379523Y-30986366D02*
X30331904Y-30891128D01*
X30331904Y-30891128D02*
X30284285Y-30843509D01*
X30284285Y-30843509D02*
X30189047Y-30795890D01*
X28567975Y-14193068D02*
X28567975Y-13193068D01*
X28567975Y-13193068D02*
X28901308Y-13907353D01*
X28901308Y-13907353D02*
X29234641Y-13193068D01*
X29234641Y-13193068D02*
X29234641Y-14193068D01*
X29710832Y-14193068D02*
X29710832Y-13193068D01*
X30282260Y-14193068D02*
X29853689Y-13621639D01*
X30282260Y-13193068D02*
X29710832Y-13764496D01*
X31234641Y-14193068D02*
X30663213Y-14193068D01*
X30948927Y-14193068D02*
X30948927Y-13193068D01*
X30948927Y-13193068D02*
X30853689Y-13335925D01*
X30853689Y-13335925D02*
X30758451Y-13431163D01*
X30758451Y-13431163D02*
X30663213Y-13478782D01*
X26559523Y10545180D02*
X26226190Y11021371D01*
X25988095Y10545180D02*
X25988095Y11545180D01*
X25988095Y11545180D02*
X26369047Y11545180D01*
X26369047Y11545180D02*
X26464285Y11497561D01*
X26464285Y11497561D02*
X26511904Y11449942D01*
X26511904Y11449942D02*
X26559523Y11354704D01*
X26559523Y11354704D02*
X26559523Y11211847D01*
X26559523Y11211847D02*
X26511904Y11116609D01*
X26511904Y11116609D02*
X26464285Y11068990D01*
X26464285Y11068990D02*
X26369047Y11021371D01*
X26369047Y11021371D02*
X25988095Y11021371D01*
X26988095Y10545180D02*
X26988095Y11545180D01*
X26988095Y11164228D02*
X27083333Y11211847D01*
X27083333Y11211847D02*
X27273809Y11211847D01*
X27273809Y11211847D02*
X27369047Y11164228D01*
X27369047Y11164228D02*
X27416666Y11116609D01*
X27416666Y11116609D02*
X27464285Y11021371D01*
X27464285Y11021371D02*
X27464285Y10735657D01*
X27464285Y10735657D02*
X27416666Y10640419D01*
X27416666Y10640419D02*
X27369047Y10592800D01*
X27369047Y10592800D02*
X27273809Y10545180D01*
X27273809Y10545180D02*
X27083333Y10545180D01*
X27083333Y10545180D02*
X26988095Y10592800D01*
X28035714Y10545180D02*
X27940476Y10592800D01*
X27940476Y10592800D02*
X27892857Y10640419D01*
X27892857Y10640419D02*
X27845238Y10735657D01*
X27845238Y10735657D02*
X27845238Y11021371D01*
X27845238Y11021371D02*
X27892857Y11116609D01*
X27892857Y11116609D02*
X27940476Y11164228D01*
X27940476Y11164228D02*
X28035714Y11211847D01*
X28035714Y11211847D02*
X28178571Y11211847D01*
X28178571Y11211847D02*
X28273809Y11164228D01*
X28273809Y11164228D02*
X28321428Y11116609D01*
X28321428Y11116609D02*
X28369047Y11021371D01*
X28369047Y11021371D02*
X28369047Y10735657D01*
X28369047Y10735657D02*
X28321428Y10640419D01*
X28321428Y10640419D02*
X28273809Y10592800D01*
X28273809Y10592800D02*
X28178571Y10545180D01*
X28178571Y10545180D02*
X28035714Y10545180D01*
X28940476Y10545180D02*
X28845238Y10592800D01*
X28845238Y10592800D02*
X28797619Y10640419D01*
X28797619Y10640419D02*
X28750000Y10735657D01*
X28750000Y10735657D02*
X28750000Y11021371D01*
X28750000Y11021371D02*
X28797619Y11116609D01*
X28797619Y11116609D02*
X28845238Y11164228D01*
X28845238Y11164228D02*
X28940476Y11211847D01*
X28940476Y11211847D02*
X29083333Y11211847D01*
X29083333Y11211847D02*
X29178571Y11164228D01*
X29178571Y11164228D02*
X29226190Y11116609D01*
X29226190Y11116609D02*
X29273809Y11021371D01*
X29273809Y11021371D02*
X29273809Y10735657D01*
X29273809Y10735657D02*
X29226190Y10640419D01*
X29226190Y10640419D02*
X29178571Y10592800D01*
X29178571Y10592800D02*
X29083333Y10545180D01*
X29083333Y10545180D02*
X28940476Y10545180D01*
X29559524Y11211847D02*
X29940476Y11211847D01*
X29702381Y11545180D02*
X29702381Y10688038D01*
X29702381Y10688038D02*
X29750000Y10592800D01*
X29750000Y10592800D02*
X29845238Y10545180D01*
X29845238Y10545180D02*
X29940476Y10545180D01*
X15964285Y37494079D02*
X15630952Y37494079D01*
X15630952Y36970269D02*
X15630952Y37970269D01*
X15630952Y37970269D02*
X16107142Y37970269D01*
X17011904Y36970269D02*
X16440476Y36970269D01*
X16726190Y36970269D02*
X16726190Y37970269D01*
X16726190Y37970269D02*
X16630952Y37827412D01*
X16630952Y37827412D02*
X16535714Y37732174D01*
X16535714Y37732174D02*
X16440476Y37684555D01*
X28357142Y26140419D02*
X28309523Y26092800D01*
X28309523Y26092800D02*
X28166666Y26045180D01*
X28166666Y26045180D02*
X28071428Y26045180D01*
X28071428Y26045180D02*
X27928571Y26092800D01*
X27928571Y26092800D02*
X27833333Y26188038D01*
X27833333Y26188038D02*
X27785714Y26283276D01*
X27785714Y26283276D02*
X27738095Y26473752D01*
X27738095Y26473752D02*
X27738095Y26616609D01*
X27738095Y26616609D02*
X27785714Y26807085D01*
X27785714Y26807085D02*
X27833333Y26902323D01*
X27833333Y26902323D02*
X27928571Y26997561D01*
X27928571Y26997561D02*
X28071428Y27045180D01*
X28071428Y27045180D02*
X28166666Y27045180D01*
X28166666Y27045180D02*
X28309523Y26997561D01*
X28309523Y26997561D02*
X28357142Y26949942D01*
X28738095Y26949942D02*
X28785714Y26997561D01*
X28785714Y26997561D02*
X28880952Y27045180D01*
X28880952Y27045180D02*
X29119047Y27045180D01*
X29119047Y27045180D02*
X29214285Y26997561D01*
X29214285Y26997561D02*
X29261904Y26949942D01*
X29261904Y26949942D02*
X29309523Y26854704D01*
X29309523Y26854704D02*
X29309523Y26759466D01*
X29309523Y26759466D02*
X29261904Y26616609D01*
X29261904Y26616609D02*
X28690476Y26045180D01*
X28690476Y26045180D02*
X29309523Y26045180D01*
X30261904Y26045180D02*
X29690476Y26045180D01*
X29976190Y26045180D02*
X29976190Y27045180D01*
X29976190Y27045180D02*
X29880952Y26902323D01*
X29880952Y26902323D02*
X29785714Y26807085D01*
X29785714Y26807085D02*
X29690476Y26759466D01*
X19857142Y-24386330D02*
X19809523Y-24433950D01*
X19809523Y-24433950D02*
X19666666Y-24481569D01*
X19666666Y-24481569D02*
X19571428Y-24481569D01*
X19571428Y-24481569D02*
X19428571Y-24433950D01*
X19428571Y-24433950D02*
X19333333Y-24338711D01*
X19333333Y-24338711D02*
X19285714Y-24243473D01*
X19285714Y-24243473D02*
X19238095Y-24052997D01*
X19238095Y-24052997D02*
X19238095Y-23910140D01*
X19238095Y-23910140D02*
X19285714Y-23719664D01*
X19285714Y-23719664D02*
X19333333Y-23624426D01*
X19333333Y-23624426D02*
X19428571Y-23529188D01*
X19428571Y-23529188D02*
X19571428Y-23481569D01*
X19571428Y-23481569D02*
X19666666Y-23481569D01*
X19666666Y-23481569D02*
X19809523Y-23529188D01*
X19809523Y-23529188D02*
X19857142Y-23576807D01*
X20809523Y-24481569D02*
X20238095Y-24481569D01*
X20523809Y-24481569D02*
X20523809Y-23481569D01*
X20523809Y-23481569D02*
X20428571Y-23624426D01*
X20428571Y-23624426D02*
X20333333Y-23719664D01*
X20333333Y-23719664D02*
X20238095Y-23767283D01*
X21666666Y-23481569D02*
X21476190Y-23481569D01*
X21476190Y-23481569D02*
X21380952Y-23529188D01*
X21380952Y-23529188D02*
X21333333Y-23576807D01*
X21333333Y-23576807D02*
X21238095Y-23719664D01*
X21238095Y-23719664D02*
X21190476Y-23910140D01*
X21190476Y-23910140D02*
X21190476Y-24291092D01*
X21190476Y-24291092D02*
X21238095Y-24386330D01*
X21238095Y-24386330D02*
X21285714Y-24433950D01*
X21285714Y-24433950D02*
X21380952Y-24481569D01*
X21380952Y-24481569D02*
X21571428Y-24481569D01*
X21571428Y-24481569D02*
X21666666Y-24433950D01*
X21666666Y-24433950D02*
X21714285Y-24386330D01*
X21714285Y-24386330D02*
X21761904Y-24291092D01*
X21761904Y-24291092D02*
X21761904Y-24052997D01*
X21761904Y-24052997D02*
X21714285Y-23957759D01*
X21714285Y-23957759D02*
X21666666Y-23910140D01*
X21666666Y-23910140D02*
X21571428Y-23862521D01*
X21571428Y-23862521D02*
X21380952Y-23862521D01*
X21380952Y-23862521D02*
X21285714Y-23910140D01*
X21285714Y-23910140D02*
X21238095Y-23957759D01*
X21238095Y-23957759D02*
X21190476Y-24052997D01*
X-20666666Y36697169D02*
X-20714285Y36649550D01*
X-20714285Y36649550D02*
X-20857142Y36601930D01*
X-20857142Y36601930D02*
X-20952380Y36601930D01*
X-20952380Y36601930D02*
X-21095237Y36649550D01*
X-21095237Y36649550D02*
X-21190475Y36744788D01*
X-21190475Y36744788D02*
X-21238094Y36840026D01*
X-21238094Y36840026D02*
X-21285713Y37030502D01*
X-21285713Y37030502D02*
X-21285713Y37173359D01*
X-21285713Y37173359D02*
X-21238094Y37363835D01*
X-21238094Y37363835D02*
X-21190475Y37459073D01*
X-21190475Y37459073D02*
X-21095237Y37554311D01*
X-21095237Y37554311D02*
X-20952380Y37601930D01*
X-20952380Y37601930D02*
X-20857142Y37601930D01*
X-20857142Y37601930D02*
X-20714285Y37554311D01*
X-20714285Y37554311D02*
X-20666666Y37506692D01*
X-20095237Y37173359D02*
X-20190475Y37220978D01*
X-20190475Y37220978D02*
X-20238094Y37268597D01*
X-20238094Y37268597D02*
X-20285713Y37363835D01*
X-20285713Y37363835D02*
X-20285713Y37411454D01*
X-20285713Y37411454D02*
X-20238094Y37506692D01*
X-20238094Y37506692D02*
X-20190475Y37554311D01*
X-20190475Y37554311D02*
X-20095237Y37601930D01*
X-20095237Y37601930D02*
X-19904761Y37601930D01*
X-19904761Y37601930D02*
X-19809523Y37554311D01*
X-19809523Y37554311D02*
X-19761904Y37506692D01*
X-19761904Y37506692D02*
X-19714285Y37411454D01*
X-19714285Y37411454D02*
X-19714285Y37363835D01*
X-19714285Y37363835D02*
X-19761904Y37268597D01*
X-19761904Y37268597D02*
X-19809523Y37220978D01*
X-19809523Y37220978D02*
X-19904761Y37173359D01*
X-19904761Y37173359D02*
X-20095237Y37173359D01*
X-20095237Y37173359D02*
X-20190475Y37125740D01*
X-20190475Y37125740D02*
X-20238094Y37078121D01*
X-20238094Y37078121D02*
X-20285713Y36982883D01*
X-20285713Y36982883D02*
X-20285713Y36792407D01*
X-20285713Y36792407D02*
X-20238094Y36697169D01*
X-20238094Y36697169D02*
X-20190475Y36649550D01*
X-20190475Y36649550D02*
X-20095237Y36601930D01*
X-20095237Y36601930D02*
X-19904761Y36601930D01*
X-19904761Y36601930D02*
X-19809523Y36649550D01*
X-19809523Y36649550D02*
X-19761904Y36697169D01*
X-19761904Y36697169D02*
X-19714285Y36792407D01*
X-19714285Y36792407D02*
X-19714285Y36982883D01*
X-19714285Y36982883D02*
X-19761904Y37078121D01*
X-19761904Y37078121D02*
X-19809523Y37125740D01*
X-19809523Y37125740D02*
X-19904761Y37173359D01*
X-12970475Y-26359580D02*
X-13018094Y-26407200D01*
X-13018094Y-26407200D02*
X-13160951Y-26454819D01*
X-13160951Y-26454819D02*
X-13256189Y-26454819D01*
X-13256189Y-26454819D02*
X-13399046Y-26407200D01*
X-13399046Y-26407200D02*
X-13494284Y-26311961D01*
X-13494284Y-26311961D02*
X-13541903Y-26216723D01*
X-13541903Y-26216723D02*
X-13589522Y-26026247D01*
X-13589522Y-26026247D02*
X-13589522Y-25883390D01*
X-13589522Y-25883390D02*
X-13541903Y-25692914D01*
X-13541903Y-25692914D02*
X-13494284Y-25597676D01*
X-13494284Y-25597676D02*
X-13399046Y-25502438D01*
X-13399046Y-25502438D02*
X-13256189Y-25454819D01*
X-13256189Y-25454819D02*
X-13160951Y-25454819D01*
X-13160951Y-25454819D02*
X-13018094Y-25502438D01*
X-13018094Y-25502438D02*
X-12970475Y-25550057D01*
X-12589522Y-25550057D02*
X-12541903Y-25502438D01*
X-12541903Y-25502438D02*
X-12446665Y-25454819D01*
X-12446665Y-25454819D02*
X-12208570Y-25454819D01*
X-12208570Y-25454819D02*
X-12113332Y-25502438D01*
X-12113332Y-25502438D02*
X-12065713Y-25550057D01*
X-12065713Y-25550057D02*
X-12018094Y-25645295D01*
X-12018094Y-25645295D02*
X-12018094Y-25740533D01*
X-12018094Y-25740533D02*
X-12065713Y-25883390D01*
X-12065713Y-25883390D02*
X-12637141Y-26454819D01*
X-12637141Y-26454819D02*
X-12018094Y-26454819D01*
X-11399046Y-25454819D02*
X-11303808Y-25454819D01*
X-11303808Y-25454819D02*
X-11208570Y-25502438D01*
X-11208570Y-25502438D02*
X-11160951Y-25550057D01*
X-11160951Y-25550057D02*
X-11113332Y-25645295D01*
X-11113332Y-25645295D02*
X-11065713Y-25835771D01*
X-11065713Y-25835771D02*
X-11065713Y-26073866D01*
X-11065713Y-26073866D02*
X-11113332Y-26264342D01*
X-11113332Y-26264342D02*
X-11160951Y-26359580D01*
X-11160951Y-26359580D02*
X-11208570Y-26407200D01*
X-11208570Y-26407200D02*
X-11303808Y-26454819D01*
X-11303808Y-26454819D02*
X-11399046Y-26454819D01*
X-11399046Y-26454819D02*
X-11494284Y-26407200D01*
X-11494284Y-26407200D02*
X-11541903Y-26359580D01*
X-11541903Y-26359580D02*
X-11589522Y-26264342D01*
X-11589522Y-26264342D02*
X-11637141Y-26073866D01*
X-11637141Y-26073866D02*
X-11637141Y-25835771D01*
X-11637141Y-25835771D02*
X-11589522Y-25645295D01*
X-11589522Y-25645295D02*
X-11541903Y-25550057D01*
X-11541903Y-25550057D02*
X-11494284Y-25502438D01*
X-11494284Y-25502438D02*
X-11399046Y-25454819D01*
%TO.C,Y1*%
D11*
X14040000Y-22365000D02*
X14040000Y-25635000D01*
X14040000Y-25635000D02*
X17960000Y-25635000D01*
%TO.C,Rsd0*%
X-11237258Y25522500D02*
X-10762742Y25522500D01*
X-11237258Y24477500D02*
X-10762742Y24477500D01*
%TO.C,SW_RST*%
X25750000Y3700000D02*
X25750000Y6300000D01*
X26200000Y6750000D02*
X25750000Y6300000D01*
X26200000Y3250000D02*
X25750000Y3700000D01*
X27500000Y7750000D02*
X29500000Y7750000D01*
X27500000Y2250000D02*
X29500000Y2250000D01*
X30800000Y6750000D02*
X31250000Y6300000D01*
X30800000Y3250000D02*
X31250000Y3700000D01*
X31250000Y3700000D02*
X31250000Y6300000D01*
%TO.C,C18*%
X29990000Y-22859420D02*
X29990000Y-23140580D01*
X31010000Y-22859420D02*
X31010000Y-23140580D01*
%TO.C,H1*%
D10*
X-26550000Y39500000D02*
G75*
G02*
X-30450000Y39500000I-1950000J0D01*
G01*
X-30450000Y39500000D02*
G75*
G02*
X-26550000Y39500000I1950000J0D01*
G01*
%TO.C,C11*%
D11*
X29990000Y-17140580D02*
X29990000Y-16859420D01*
X31010000Y-17140580D02*
X31010000Y-16859420D01*
%TO.C,Rsd2*%
X-11237258Y20522500D02*
X-10762742Y20522500D01*
X-11237258Y19477500D02*
X-10762742Y19477500D01*
%TO.C,C12*%
X29990000Y-20140580D02*
X29990000Y-19859420D01*
X31010000Y-20140580D02*
X31010000Y-19859420D01*
%TO.C,U7*%
X7090000Y32560000D02*
X8910000Y32560000D01*
X7090000Y32510000D02*
X7090000Y32560000D01*
X7090000Y29440000D02*
X7090000Y29490000D01*
X8910000Y32560000D02*
X8910000Y32510000D01*
X8910000Y29490000D02*
X8910000Y29440000D01*
X8910000Y29440000D02*
X7090000Y29440000D01*
X6550000Y32510000D02*
X6310000Y32840000D01*
X6790000Y32840000D01*
X6550000Y32510000D01*
G36*
X6550000Y32510000D02*
G01*
X6310000Y32840000D01*
X6790000Y32840000D01*
X6550000Y32510000D01*
G37*
%TO.C,R7*%
X16262742Y-26977500D02*
X16737258Y-26977500D01*
X16262742Y-28022500D02*
X16737258Y-28022500D01*
%TO.C,SP1*%
X-6700000Y-29300000D02*
X-6700000Y-30200000D01*
X-6700000Y-29300000D02*
X-4200000Y-29300000D01*
X-6700000Y-42700000D02*
X-6700000Y-41800000D01*
X-6700000Y-42700000D02*
X-4200000Y-42700000D01*
X2800000Y-29750000D02*
X3800000Y-29750000D01*
X3300000Y-29250000D02*
X3300000Y-30250000D01*
X6700000Y-29300000D02*
X4200000Y-29300000D01*
X6700000Y-29300000D02*
X6700000Y-30200000D01*
X6700000Y-42700000D02*
X4200000Y-42700000D01*
X6700000Y-42700000D02*
X6700000Y-41800000D01*
%TO.C,BT1*%
X-25560000Y-32540000D02*
X-25560000Y-40360000D01*
X-25560000Y-34140000D02*
X-24640000Y-34140000D01*
X-25560000Y-40360000D02*
X-19440000Y-40360000D01*
X-24640000Y-32540000D02*
X-25560000Y-32540000D01*
X-24640000Y-34140000D02*
X-24640000Y-32540000D01*
X-24360000Y-34140000D02*
X-24640000Y-34140000D01*
X-24360000Y-34140000D02*
X-24360000Y-32925000D01*
X-24300000Y-38100000D02*
X-24300000Y-40360000D01*
X-23800000Y-38100000D02*
X-23800000Y-40360000D01*
X-23000000Y-36000000D02*
X-22000000Y-36000000D01*
X-23000000Y-40360000D02*
X-23000000Y-36000000D01*
X-22000000Y-36000000D02*
X-22000000Y-40360000D01*
X-20360000Y-32540000D02*
X-20360000Y-34140000D01*
X-20360000Y-34140000D02*
X-20640000Y-34140000D01*
X-19440000Y-32540000D02*
X-20360000Y-32540000D01*
X-19440000Y-34140000D02*
X-20360000Y-34140000D01*
X-19440000Y-40360000D02*
X-19440000Y-32540000D01*
X-24800000Y-36500000D02*
X-23800000Y-36500000D01*
X-23800000Y-38100000D01*
X-24800000Y-38100000D01*
X-24800000Y-36500000D01*
X-21200000Y-36500000D02*
X-20200000Y-36500000D01*
X-20200000Y-38100000D01*
X-21200000Y-38100000D01*
X-21200000Y-36500000D01*
%TO.C,Rchg*%
X27762742Y33522500D02*
X28237258Y33522500D01*
X27762742Y32477500D02*
X28237258Y32477500D01*
%TO.C,R1*%
X23977500Y14262742D02*
X23977500Y14737258D01*
X25022500Y14262742D02*
X25022500Y14737258D01*
%TO.C,R4*%
X18762742Y33322499D02*
X19237258Y33322499D01*
X18762742Y32277499D02*
X19237258Y32277499D01*
%TO.C,C9*%
X20859420Y-30490000D02*
X21140580Y-30490000D01*
X20859420Y-31510000D02*
X21140580Y-31510000D01*
%TO.C,Rled*%
X-29522500Y-22237258D02*
X-29522500Y-21762742D01*
X-28477500Y-22237258D02*
X-28477500Y-21762742D01*
%TO.C,C14*%
X-11140580Y12510000D02*
X-10859420Y12510000D01*
X-11140580Y11490000D02*
X-10859420Y11490000D01*
%TO.C,C2*%
X23990000Y17859420D02*
X23990000Y18140580D01*
X25010000Y17859420D02*
X25010000Y18140580D01*
%TO.C,C6*%
X-11010000Y35859420D02*
X-11010000Y36140580D01*
X-9990000Y35859420D02*
X-9990000Y36140580D01*
%TO.C,Ragnd*%
X25762742Y-15977500D02*
X26237258Y-15977500D01*
X25762742Y-17022500D02*
X26237258Y-17022500D01*
%TO.C,U5*%
X-16910000Y41060000D02*
X-15090000Y41060000D01*
X-16910000Y41010000D02*
X-16910000Y41060000D01*
X-16910000Y37940000D02*
X-16910000Y37990000D01*
X-15090000Y41060000D02*
X-15090000Y41010000D01*
X-15090000Y39890000D02*
X-15090000Y39110000D01*
X-15090000Y37990000D02*
X-15090000Y37940000D01*
X-15090000Y37940000D02*
X-16910000Y37940000D01*
X-17450000Y41010000D02*
X-17690000Y41340000D01*
X-17210000Y41340000D01*
X-17450000Y41010000D01*
G36*
X-17450000Y41010000D02*
G01*
X-17690000Y41340000D01*
X-17210000Y41340000D01*
X-17450000Y41010000D01*
G37*
%TO.C,J2*%
X3300000Y39500000D02*
X3300000Y37500000D01*
X3300000Y35600000D02*
X3300000Y33700000D01*
X3300000Y33700000D02*
X12700000Y33700000D01*
X12700000Y39500000D02*
X12700000Y37500000D01*
X12700000Y35600000D02*
X12700000Y33700000D01*
%TO.C,C10*%
X20359420Y-19490000D02*
X20640580Y-19490000D01*
X20359420Y-20510000D02*
X20640580Y-20510000D01*
%TO.C,H3*%
D10*
X-26550000Y-39500000D02*
G75*
G02*
X-30450000Y-39500000I-1950000J0D01*
G01*
X-30450000Y-39500000D02*
G75*
G02*
X-26550000Y-39500000I1950000J0D01*
G01*
%TO.C,Rsd1*%
D11*
X-11237258Y23022500D02*
X-10762742Y23022500D01*
X-11237258Y21977500D02*
X-10762742Y21977500D01*
%TO.C,J1*%
X120000Y31380000D02*
X1500000Y31380000D01*
X120000Y30000000D02*
X120000Y31380000D01*
X120000Y28730000D02*
X120000Y21000000D01*
X120000Y28730000D02*
X2880000Y28730000D01*
X120000Y21000000D02*
X2880000Y21000000D01*
X2880000Y28730000D02*
X2880000Y21000000D01*
%TO.C,U1*%
X6200000Y25800000D02*
X21800000Y25800000D01*
X6200000Y10200000D02*
X6200000Y25800000D01*
X21800000Y25800000D02*
X21800000Y10200000D01*
X21800000Y10200000D02*
X6200000Y10200000D01*
X6025000Y23950000D02*
X5689000Y23710000D01*
X5689000Y24190000D01*
X6025000Y23950000D01*
G36*
X6025000Y23950000D02*
G01*
X5689000Y23710000D01*
X5689000Y24190000D01*
X6025000Y23950000D01*
G37*
%TO.C,C1*%
X23765000Y24738748D02*
X23765000Y25261252D01*
X25235000Y24738748D02*
X25235000Y25261252D01*
%TO.C,R8*%
X17262742Y31522500D02*
X17737258Y31522500D01*
X17262742Y30477500D02*
X17737258Y30477500D01*
%TO.C,U2*%
X24390000Y-20390000D02*
X24840000Y-20390000D01*
X24390000Y-20840000D02*
X24390000Y-20390000D01*
X24390000Y-23610000D02*
X24390000Y-23160000D01*
X24840000Y-23610000D02*
X24390000Y-23610000D01*
X27160000Y-20390000D02*
X27610000Y-20390000D01*
X27610000Y-20390000D02*
X27610000Y-20840000D01*
X27610000Y-23160000D02*
X27610000Y-23610000D01*
X27610000Y-23610000D02*
X27160000Y-23610000D01*
X23860000Y-21200000D02*
X23530000Y-21440000D01*
X23530000Y-20960000D01*
X23860000Y-21200000D01*
G36*
X23860000Y-21200000D02*
G01*
X23530000Y-21440000D01*
X23530000Y-20960000D01*
X23860000Y-21200000D01*
G37*
%TO.C,U4*%
X-6910000Y41060000D02*
X-5090000Y41060000D01*
X-6910000Y41010000D02*
X-6910000Y41060000D01*
X-6910000Y37940000D02*
X-6910000Y37990000D01*
X-5090000Y41060000D02*
X-5090000Y41010000D01*
X-5090000Y39890000D02*
X-5090000Y39110000D01*
X-5090000Y37990000D02*
X-5090000Y37940000D01*
X-5090000Y37940000D02*
X-6910000Y37940000D01*
X-7450000Y41010000D02*
X-7690000Y41340000D01*
X-7210000Y41340000D01*
X-7450000Y41010000D01*
G36*
X-7450000Y41010000D02*
G01*
X-7690000Y41340000D01*
X-7210000Y41340000D01*
X-7450000Y41010000D01*
G37*
%TO.C,C13*%
X25859420Y-26990000D02*
X26140580Y-26990000D01*
X25859420Y-28010000D02*
X26140580Y-28010000D01*
%TO.C,U6*%
X10390000Y-29390000D02*
X13610000Y-29390000D01*
X10390000Y-29565000D02*
X10390000Y-29390000D01*
X10390000Y-32610000D02*
X10390000Y-32435000D01*
X13610000Y-29390000D02*
X13610000Y-29565000D01*
X13610000Y-32435000D02*
X13610000Y-32610000D01*
X13610000Y-32610000D02*
X10390000Y-32610000D01*
X9840000Y-29560000D02*
X9600000Y-29230000D01*
X10080000Y-29230000D01*
X9840000Y-29560000D01*
G36*
X9840000Y-29560000D02*
G01*
X9600000Y-29230000D01*
X10080000Y-29230000D01*
X9840000Y-29560000D01*
G37*
%TO.C,R2*%
X-22500Y39762742D02*
X-22500Y40237258D01*
X1022500Y39762742D02*
X1022500Y40237258D01*
%TO.C,U3*%
X22390000Y41110000D02*
X22865000Y41110000D01*
X22390000Y40635000D02*
X22390000Y41110000D01*
X22390000Y37890000D02*
X22390000Y38365000D01*
X22865000Y37890000D02*
X22390000Y37890000D01*
X25135000Y41110000D02*
X25610000Y41110000D01*
X25610000Y41110000D02*
X25610000Y40635000D01*
X25610000Y38365000D02*
X25610000Y37890000D01*
X25610000Y37890000D02*
X25135000Y37890000D01*
X26140000Y38750000D02*
X26470000Y38990000D01*
X26470000Y38510000D01*
X26140000Y38750000D01*
G36*
X26470000Y38510000D02*
G01*
X26140000Y38750000D01*
X26470000Y38990000D01*
X26470000Y38510000D01*
G37*
%TO.C,C15*%
X25990000Y-10140580D02*
X25990000Y-9859420D01*
X27010000Y-10140580D02*
X27010000Y-9859420D01*
%TO.C,Rsd4*%
X-11237258Y15522500D02*
X-10762742Y15522500D01*
X-11237258Y14477500D02*
X-10762742Y14477500D01*
%TO.C,J3*%
X-29810000Y13000000D02*
X-29810000Y23000000D01*
X-29210000Y12500000D02*
X-29010000Y13300000D01*
X-29110000Y23000000D02*
X-29210000Y23500000D01*
X-29010000Y13300000D02*
X-28710000Y15000000D01*
X-28810000Y21700000D02*
X-29110000Y23000000D01*
X-28710000Y15000000D02*
X-28610000Y15800000D01*
X-28610000Y20200000D02*
X-28810000Y21700000D01*
X-28610000Y15800000D02*
X-28510000Y17100000D01*
X-28510000Y18900000D02*
X-28610000Y20200000D01*
X-28510000Y17100000D02*
X-28510000Y18900000D01*
X-28310000Y24910000D02*
X-27910000Y24910000D01*
X-28310000Y23500000D02*
X-29310000Y23500000D01*
X-28310000Y12500000D02*
X-29310000Y12500000D01*
X-28310000Y11090000D02*
X-28310000Y24910000D01*
X-28310000Y11090000D02*
X-27910000Y11090000D01*
X-25390000Y24910000D02*
X-19610000Y24910000D01*
X-25390000Y11090000D02*
X-19610000Y11090000D01*
X-17090000Y24910000D02*
X-14390000Y24910000D01*
X-17090000Y11090000D02*
X-14390000Y11090000D01*
X-14390000Y24910000D02*
X-14390000Y11090000D01*
X-29810000Y23000000D02*
G75*
G02*
X-29310000Y23500000I500000J0D01*
G01*
X-29310000Y12500000D02*
G75*
G02*
X-29810000Y13000000I1J500001D01*
G01*
%TO.C,C3*%
X23990000Y21359420D02*
X23990000Y21640580D01*
X25010000Y21359420D02*
X25010000Y21640580D01*
%TO.C,R5*%
X21762742Y-33977500D02*
X22237258Y-33977500D01*
X21762742Y-35022500D02*
X22237258Y-35022500D01*
%TO.C,SW1*%
X-27790000Y-9450000D02*
X-27790000Y-10250000D01*
X-27750000Y-10250000D02*
X-27790000Y-10250000D01*
X-27750000Y-10250000D02*
X-27750000Y-13750000D01*
%TO.C,R10*%
X20762742Y31522500D02*
X21237258Y31522500D01*
X20762742Y30477500D02*
X21237258Y30477500D01*
%TO.C,R3*%
X14977500Y39762742D02*
X14977500Y40237258D01*
X16022500Y39762742D02*
X16022500Y40237258D01*
%TO.C,R11*%
X20762742Y29022500D02*
X21237258Y29022500D01*
X20762742Y27977500D02*
X21237258Y27977500D01*
%TO.C,H2*%
D10*
X30450000Y39500000D02*
G75*
G02*
X26550000Y39500000I-1950000J0D01*
G01*
X26550000Y39500000D02*
G75*
G02*
X30450000Y39500000I1950000J0D01*
G01*
%TO.C,SW_BOOT*%
D11*
X25750000Y-4500000D02*
X25750000Y-1900000D01*
X26200000Y-1450000D02*
X25750000Y-1900000D01*
X26200000Y-4950000D02*
X25750000Y-4500000D01*
X27500000Y-450000D02*
X29500000Y-450000D01*
X27500000Y-5950000D02*
X29500000Y-5950000D01*
X30800000Y-1450000D02*
X31250000Y-1900000D01*
X30800000Y-4950000D02*
X31250000Y-4500000D01*
X31250000Y-4500000D02*
X31250000Y-1900000D01*
%TO.C,Rsd3*%
X-11237258Y18022500D02*
X-10762742Y18022500D01*
X-11237258Y16977500D02*
X-10762742Y16977500D01*
%TO.C,C17*%
X29990000Y-25859420D02*
X29990000Y-26140580D01*
X31010000Y-25859420D02*
X31010000Y-26140580D01*
%TO.C,C5*%
X20490000Y35359420D02*
X20490000Y35640580D01*
X21510000Y35359420D02*
X21510000Y35640580D01*
%TO.C,R6*%
X26762742Y-33977500D02*
X27237258Y-33977500D01*
X26762742Y-35022500D02*
X27237258Y-35022500D01*
%TO.C,D2*%
X22515000Y33735000D02*
X22515000Y32265000D01*
X22515000Y32265000D02*
X24800000Y32265000D01*
X24800000Y33735000D02*
X22515000Y33735000D01*
%TO.C,R9*%
X17262742Y29022500D02*
X17737258Y29022500D01*
X17262742Y27977500D02*
X17737258Y27977500D01*
%TO.C,D1*%
X-29735000Y-17200000D02*
X-29735000Y-19485000D01*
X-29735000Y-19485000D02*
X-28265000Y-19485000D01*
X-28265000Y-19485000D02*
X-28265000Y-17200000D01*
%TO.C,C19*%
X11859420Y-26990000D02*
X12140580Y-26990000D01*
X11859420Y-28010000D02*
X12140580Y-28010000D01*
%TO.C,C4*%
X19990000Y39859420D02*
X19990000Y40140580D01*
X21010000Y39859420D02*
X21010000Y40140580D01*
%TO.C,C7*%
X-3010000Y39859420D02*
X-3010000Y40140580D01*
X-1990000Y39859420D02*
X-1990000Y40140580D01*
%TO.C,Rstat*%
X27762742Y36522500D02*
X28237258Y36522500D01*
X27762742Y35477500D02*
X28237258Y35477500D01*
%TO.C,U8*%
X25090000Y-29440000D02*
X26910000Y-29440000D01*
X25090000Y-29490000D02*
X25090000Y-29440000D01*
X25090000Y-32560000D02*
X25090000Y-32510000D01*
X26910000Y-29440000D02*
X26910000Y-29490000D01*
X26910000Y-30610000D02*
X26910000Y-31390000D01*
X26910000Y-32510000D02*
X26910000Y-32560000D01*
X26910000Y-32560000D02*
X25090000Y-32560000D01*
X24550000Y-29490000D02*
X24310000Y-29160000D01*
X24790000Y-29160000D01*
X24550000Y-29490000D01*
G36*
X24550000Y-29490000D02*
G01*
X24310000Y-29160000D01*
X24790000Y-29160000D01*
X24550000Y-29490000D01*
G37*
%TO.C,MK1*%
X28320000Y-7820000D02*
X31680000Y-7820000D01*
X28320000Y-11880000D02*
X28320000Y-7820000D01*
X28620000Y-12180000D02*
X31680000Y-12180000D01*
X31680000Y-12180000D02*
X31680000Y-7820000D01*
X28320000Y-12180000D02*
X28320000Y-12460000D01*
X28040000Y-12180000D01*
X28320000Y-12180000D01*
G36*
X28320000Y-12460000D02*
G01*
X28040000Y-12180000D01*
X28320000Y-12180000D01*
X28320000Y-12460000D01*
G37*
%TO.C,Rboot*%
X23977500Y10762742D02*
X23977500Y11237258D01*
X25022500Y10762742D02*
X25022500Y11237258D01*
%TO.C,F1*%
X16990000Y39837221D02*
X16990000Y40162779D01*
X18010000Y39837221D02*
X18010000Y40162779D01*
%TO.C,C21*%
X30290000Y26640580D02*
X30290000Y26359420D01*
X31310000Y26640580D02*
X31310000Y26359420D01*
%TO.C,C16*%
X20359420Y-25490000D02*
X20640580Y-25490000D01*
X20359420Y-26510000D02*
X20640580Y-26510000D01*
%TO.C,C8*%
X-21235000Y39738748D02*
X-21235000Y40261252D01*
X-19765000Y39738748D02*
X-19765000Y40261252D01*
%TO.C,C20*%
X-16261252Y-25265000D02*
X-15738748Y-25265000D01*
X-16261252Y-26735000D02*
X-15738748Y-26735000D01*
%TO.C,H4*%
D10*
X30450000Y-39500000D02*
G75*
G02*
X26550000Y-39500000I-1950000J0D01*
G01*
X26550000Y-39500000D02*
G75*
G02*
X30450000Y-39500000I1950000J0D01*
G01*
%TD*%
M02*
