%TF.GenerationSoftware,KiCad,Pcbnew,10.0.6-10.0.6~ubuntu24.04.1*%
%TF.CreationDate,2026-09-18T15:53:06+00:00*%
%TF.ProjectId,recorder,7265636f-7264-4657-922e-6b696361645f,rev?*%
%TF.SameCoordinates,Original*%
%TF.FileFunction,Soldermask,Top*%
%TF.FilePolarity,Negative*%
%FSLAX46Y46*%
G04 Gerber Fmt 4.6, Leading zero omitted, Abs format (unit mm)*
G04 Created by KiCad (PCBNEW 10.0.6-10.0.6~ubuntu24.04.1) date 2026-09-18 15:53:06*
%MOMM*%
%LPD*%
G01*
G04 APERTURE LIST*
G04 Aperture macros list*
%AMRoundRect*
0 Rectangle with rounded corners*
0 $1 Rounding radius*
0 $2 $3 $4 $5 $6 $7 $8 $9 X,Y pos of 4 corners*
0 Add a 4 corners polygon primitive as box body*
4,1,4,$2,$3,$4,$5,$6,$7,$8,$9,$2,$3,0*
0 Add four circle primitives for the rounded corners*
1,1,$1+$1,$2,$3*
1,1,$1+$1,$4,$5*
1,1,$1+$1,$6,$7*
1,1,$1+$1,$8,$9*
0 Add four rect primitives between the rounded corners*
20,1,$1+$1,$2,$3,$4,$5,0*
20,1,$1+$1,$4,$5,$6,$7,0*
20,1,$1+$1,$6,$7,$8,$9,0*
20,1,$1+$1,$8,$9,$2,$3,0*%
%AMOutline5P*
0 Free polygon, 5 corners , with rotation*
0 The origin of the aperture is its center*
0 number of corners: always 5*
0 $1 to $10 corner X, Y*
0 $11 Rotation angle, in degrees counterclockwise*
0 create outline with 5 corners*
4,1,5,$1,$2,$3,$4,$5,$6,$7,$8,$9,$10,$1,$2,$11*%
%AMOutline6P*
0 Free polygon, 6 corners , with rotation*
0 The origin of the aperture is its center*
0 number of corners: always 6*
0 $1 to $12 corner X, Y*
0 $13 Rotation angle, in degrees counterclockwise*
0 create outline with 6 corners*
4,1,6,$1,$2,$3,$4,$5,$6,$7,$8,$9,$10,$11,$12,$1,$2,$13*%
%AMOutline7P*
0 Free polygon, 7 corners , with rotation*
0 The origin of the aperture is its center*
0 number of corners: always 7*
0 $1 to $14 corner X, Y*
0 $15 Rotation angle, in degrees counterclockwise*
0 create outline with 7 corners*
4,1,7,$1,$2,$3,$4,$5,$6,$7,$8,$9,$10,$11,$12,$13,$14,$1,$2,$15*%
%AMOutline8P*
0 Free polygon, 8 corners , with rotation*
0 The origin of the aperture is its center*
0 number of corners: always 8*
0 $1 to $16 corner X, Y*
0 $17 Rotation angle, in degrees counterclockwise*
0 create outline with 8 corners*
4,1,8,$1,$2,$3,$4,$5,$6,$7,$8,$9,$10,$11,$12,$13,$14,$15,$16,$1,$2,$17*%
%AMFreePoly0*
4,1,76,0.275466,2.027397,0.451566,1.970178,0.616548,1.886115,0.766349,1.777279,0.897279,1.646349,1.006115,1.496548,1.090178,1.331566,1.147397,1.155466,1.176362,0.972582,1.176362,0.787418,1.147397,0.604534,1.090178,0.428434,1.006115,0.263452,0.897279,0.113651,0.766349,-0.017279,0.616548,-0.126115,0.451566,-0.210178,0.275466,-0.267397,0.092582,-0.296362,-0.092582,-0.296362,
-0.275466,-0.267397,-0.451566,-0.210178,-0.616548,-0.126115,-0.766349,-0.017279,-0.897279,0.113651,-1.006115,0.263452,-1.090178,0.428434,-1.147397,0.604534,-1.176362,0.787418,-1.176362,0.950914,-0.720000,0.950914,-0.720000,0.809086,-0.692331,0.669984,-0.638056,0.538952,-0.559261,0.421027,-0.458973,0.320739,-0.341048,0.241944,-0.210016,0.187669,-0.070914,0.160000,0.070914,0.160000,
0.210016,0.187669,0.341048,0.241944,0.458973,0.320739,0.559261,0.421027,0.638056,0.538952,0.692331,0.669984,0.720000,0.809086,0.720000,0.950914,0.692331,1.090016,0.638056,1.221048,0.559261,1.338973,0.458973,1.439261,0.341048,1.518056,0.210016,1.572331,0.070914,1.600000,-0.070914,1.600000,-0.210016,1.572331,-0.341048,1.518056,-0.458973,1.439261,-0.559261,1.338973,
-0.638056,1.221048,-0.692331,1.090016,-0.720000,0.950914,-1.176362,0.950914,-1.176362,0.972582,-1.147397,1.155466,-1.090178,1.331566,-1.006115,1.496548,-0.897279,1.646349,-0.766349,1.777279,-0.616548,1.886115,-0.451566,1.970178,-0.275466,2.027397,-0.092582,2.056362,0.092582,2.056362,0.275466,2.027397,0.275466,2.027397,$1*%
G04 Aperture macros list end*
%ADD10RoundRect,0.250000X-0.400000X-0.300000X0.400000X-0.300000X0.400000X0.300000X-0.400000X0.300000X0*%
%ADD11RoundRect,0.200000X-0.200000X-0.275000X0.200000X-0.275000X0.200000X0.275000X-0.200000X0.275000X0*%
%ADD12R,0.750000X1.000000*%
%ADD13RoundRect,0.225000X-0.250000X0.225000X-0.250000X-0.225000X0.250000X-0.225000X0.250000X0.225000X0*%
%ADD14C,1.700000*%
%ADD15RoundRect,0.225000X0.250000X-0.225000X0.250000X0.225000X-0.250000X0.225000X-0.250000X-0.225000X0*%
%ADD16RoundRect,0.150000X-0.512500X-0.150000X0.512500X-0.150000X0.512500X0.150000X-0.512500X0.150000X0*%
%ADD17RoundRect,0.500000X-0.500000X-0.750000X0.500000X-0.750000X0.500000X0.750000X-0.500000X0.750000X0*%
%ADD18RoundRect,0.250000X-0.350000X-0.625000X0.350000X-0.625000X0.350000X0.625000X-0.350000X0.625000X0*%
%ADD19O,1.200000X1.750000*%
%ADD20RoundRect,0.200000X0.275000X-0.200000X0.275000X0.200000X-0.275000X0.200000X-0.275000X-0.200000X0*%
%ADD21RoundRect,0.225000X-0.225000X-0.250000X0.225000X-0.250000X0.225000X0.250000X-0.225000X0.250000X0*%
%ADD22C,0.650000*%
%ADD23RoundRect,0.150000X-0.150000X-0.575000X0.150000X-0.575000X0.150000X0.575000X-0.150000X0.575000X0*%
%ADD24RoundRect,0.075000X-0.075000X-0.650000X0.075000X-0.650000X0.075000X0.650000X-0.075000X0.650000X0*%
%ADD25O,1.000000X2.100000*%
%ADD26O,1.000000X1.600000*%
%ADD27R,1.700000X1.700000*%
%ADD28R,0.800000X0.400000*%
%ADD29R,0.400000X0.800000*%
%ADD30Outline5P,-0.600000X0.204000X-0.204000X0.600000X0.600000X0.600000X0.600000X-0.600000X-0.600000X-0.600000X0.000000*%
%ADD31R,1.200000X1.200000*%
%ADD32R,0.800000X0.800000*%
%ADD33RoundRect,0.250000X0.475000X-0.250000X0.475000X0.250000X-0.475000X0.250000X-0.475000X-0.250000X0*%
%ADD34RoundRect,0.050000X-0.375000X-0.050000X0.375000X-0.050000X0.375000X0.050000X-0.375000X0.050000X0*%
%ADD35RoundRect,0.050000X-0.050000X-0.375000X0.050000X-0.375000X0.050000X0.375000X-0.050000X0.375000X0*%
%ADD36R,1.650000X1.650000*%
%ADD37RoundRect,0.100000X-0.712500X-0.100000X0.712500X-0.100000X0.712500X0.100000X-0.712500X0.100000X0*%
%ADD38RoundRect,0.062500X0.375000X0.062500X-0.375000X0.062500X-0.375000X-0.062500X0.375000X-0.062500X0*%
%ADD39RoundRect,0.062500X0.062500X0.375000X-0.062500X0.375000X-0.062500X-0.375000X0.062500X-0.375000X0*%
%ADD40R,1.600000X1.600000*%
%ADD41R,1.500000X0.800000*%
%ADD42R,2.000000X1.450000*%
%ADD43C,0.700000*%
%ADD44RoundRect,0.250000X-0.275000X0.450000X-0.275000X-0.450000X0.275000X-0.450000X0.275000X0.450000X0*%
%ADD45RoundRect,0.218750X-0.218750X-0.256250X0.218750X-0.256250X0.218750X0.256250X-0.218750X0.256250X0*%
%ADD46RoundRect,0.218750X0.256250X-0.218750X0.256250X0.218750X-0.256250X0.218750X-0.256250X-0.218750X0*%
%ADD47C,0.800000*%
%ADD48RoundRect,0.112500X-0.262500X-0.112500X0.262500X-0.112500X0.262500X0.112500X-0.262500X0.112500X0*%
%ADD49FreePoly0,0.000000*%
%ADD50RoundRect,0.250000X-0.250000X-0.475000X0.250000X-0.475000X0.250000X0.475000X-0.250000X0.475000X0*%
G04 APERTURE END LIST*
D10*
%TO.C,Y1*%
X14950000Y-24825000D03*
X17050000Y-24825000D03*
X17050000Y-23175000D03*
X14950000Y-23175000D03*
%TD*%
D11*
%TO.C,Rsd0*%
X-11825000Y25000000D03*
X-10175000Y25000000D03*
%TD*%
D12*
%TO.C,SW_RST*%
X26625000Y2000000D03*
X26625000Y8000000D03*
X30375000Y2000000D03*
X30375000Y8000000D03*
%TD*%
D13*
%TO.C,C18*%
X30500000Y-22225000D03*
X30500000Y-23775000D03*
%TD*%
D14*
%TO.C,H1*%
X-28500000Y39500000D03*
%TD*%
D15*
%TO.C,C11*%
X30500000Y-17775000D03*
X30500000Y-16225000D03*
%TD*%
D11*
%TO.C,Rsd2*%
X-11825000Y20000000D03*
X-10175000Y20000000D03*
%TD*%
D15*
%TO.C,C12*%
X30500000Y-20775000D03*
X30500000Y-19225000D03*
%TD*%
D16*
%TO.C,U7*%
X6862500Y31950000D03*
X6862500Y31000000D03*
X6862500Y30050000D03*
X9137500Y30050000D03*
X9137500Y31000000D03*
X9137500Y31950000D03*
%TD*%
D11*
%TO.C,R7*%
X15675000Y-27500000D03*
X17325000Y-27500000D03*
%TD*%
D17*
%TO.C,SP1*%
X-5700000Y-40350000D03*
X5700000Y-40350000D03*
X5700000Y-31650000D03*
X-5700000Y-31650000D03*
%TD*%
D18*
%TO.C,BT1*%
X-23500000Y-34000000D03*
D19*
X-21500000Y-34000000D03*
%TD*%
D11*
%TO.C,Rchg*%
X27175000Y33000000D03*
X28825000Y33000000D03*
%TD*%
D20*
%TO.C,R1*%
X24500000Y13675000D03*
X24500000Y15325000D03*
%TD*%
D11*
%TO.C,R4*%
X18175000Y32799999D03*
X19825000Y32799999D03*
%TD*%
D21*
%TO.C,C9*%
X20225000Y-31000000D03*
X21775000Y-31000000D03*
%TD*%
D20*
%TO.C,Rled*%
X-29000000Y-22825000D03*
X-29000000Y-21175000D03*
%TD*%
D21*
%TO.C,C14*%
X-11775000Y12000000D03*
X-10225000Y12000000D03*
%TD*%
D15*
%TO.C,C2*%
X24500000Y17225000D03*
X24500000Y18775000D03*
%TD*%
%TO.C,C6*%
X-10500000Y35225000D03*
X-10500000Y36775000D03*
%TD*%
D11*
%TO.C,Ragnd*%
X25175000Y-16500000D03*
X26825000Y-16500000D03*
%TD*%
D16*
%TO.C,U5*%
X-17137500Y40450000D03*
X-17137500Y39500000D03*
X-17137500Y38550000D03*
X-14862500Y38550000D03*
X-14862500Y40450000D03*
%TD*%
D22*
%TO.C,J2*%
X5110000Y40200000D03*
X10890000Y40200000D03*
D23*
X4750000Y41645000D03*
X5550000Y41645000D03*
D24*
X6750000Y41645000D03*
X7750000Y41645000D03*
X8250000Y41645000D03*
X9250000Y41645000D03*
D23*
X10450000Y41645000D03*
X11250000Y41645000D03*
X11250000Y41645000D03*
X10450000Y41645000D03*
D24*
X9750000Y41645000D03*
X8750000Y41645000D03*
X7250000Y41645000D03*
X6250000Y41645000D03*
D23*
X5550000Y41645000D03*
X4750000Y41645000D03*
D25*
X3680000Y40730000D03*
D26*
X3680000Y36550000D03*
D25*
X12320000Y40730000D03*
D26*
X12320000Y36550000D03*
%TD*%
D21*
%TO.C,C10*%
X19725000Y-20000000D03*
X21275000Y-20000000D03*
%TD*%
D14*
%TO.C,H3*%
X-28500000Y-39500000D03*
%TD*%
D11*
%TO.C,Rsd1*%
X-11825000Y22500000D03*
X-10175000Y22500000D03*
%TD*%
D27*
%TO.C,J1*%
X1500000Y30000000D03*
D14*
X1500000Y27460000D03*
X1500000Y24920000D03*
X1500000Y22380000D03*
%TD*%
D28*
%TO.C,U1*%
X7000000Y23950000D03*
X7000000Y23100000D03*
X7000000Y22250000D03*
X7000000Y21400000D03*
X7000000Y20550000D03*
X7000000Y19700000D03*
X7000000Y18850000D03*
X7000000Y18000000D03*
X7000000Y17150000D03*
X7000000Y16300000D03*
X7000000Y15450000D03*
X7000000Y14600000D03*
X7000000Y13750000D03*
X7000000Y12900000D03*
X7000000Y12050000D03*
D29*
X8050000Y11000000D03*
X8900000Y11000000D03*
X9750000Y11000000D03*
X10600000Y11000000D03*
X11450000Y11000000D03*
X12300000Y11000000D03*
X13150000Y11000000D03*
X14000000Y11000000D03*
X14850000Y11000000D03*
X15700000Y11000000D03*
X16550000Y11000000D03*
X17400000Y11000000D03*
X18250000Y11000000D03*
X19100000Y11000000D03*
X19950000Y11000000D03*
D28*
X21000000Y12050000D03*
X21000000Y12900000D03*
X21000000Y13750000D03*
X21000000Y14600000D03*
X21000000Y15450000D03*
X21000000Y16300000D03*
X21000000Y17150000D03*
X21000000Y18000000D03*
X21000000Y18850000D03*
X21000000Y19700000D03*
X21000000Y20550000D03*
X21000000Y21400000D03*
X21000000Y22250000D03*
X21000000Y23100000D03*
X21000000Y23950000D03*
D29*
X19950000Y25000000D03*
X19100000Y25000000D03*
X18250000Y25000000D03*
X17400000Y25000000D03*
X16550000Y25000000D03*
X15700000Y25000000D03*
X14850000Y25000000D03*
X14000000Y25000000D03*
X13150000Y25000000D03*
X12300000Y25000000D03*
X11450000Y25000000D03*
X10600000Y25000000D03*
X9750000Y25000000D03*
X8900000Y25000000D03*
X8050000Y25000000D03*
D30*
X12350000Y19650000D03*
D31*
X12350000Y18000000D03*
X12350000Y16350000D03*
X14000000Y19650000D03*
X14000000Y18000000D03*
X14000000Y16350000D03*
X15650000Y19650000D03*
X15650000Y18000000D03*
X15650000Y16350000D03*
D32*
X7000000Y25000000D03*
X7000000Y11000000D03*
X21000000Y11000000D03*
X21000000Y25000000D03*
%TD*%
D33*
%TO.C,C1*%
X24500000Y24050000D03*
X24500000Y25950000D03*
%TD*%
D11*
%TO.C,R8*%
X16675000Y31000000D03*
X18325000Y31000000D03*
%TD*%
D34*
%TO.C,U2*%
X24550000Y-21200000D03*
X24550000Y-21600000D03*
X24550000Y-22000000D03*
X24550000Y-22400000D03*
X24550000Y-22800000D03*
D35*
X25200000Y-23450000D03*
X25600000Y-23450000D03*
X26000000Y-23450000D03*
X26400000Y-23450000D03*
X26800000Y-23450000D03*
D34*
X27450000Y-22800000D03*
X27450000Y-22400000D03*
X27450000Y-22000000D03*
X27450000Y-21600000D03*
X27450000Y-21200000D03*
D35*
X26800000Y-20550000D03*
X26400000Y-20550000D03*
X26000000Y-20550000D03*
X25600000Y-20550000D03*
X25200000Y-20550000D03*
D36*
X26000000Y-22000000D03*
%TD*%
D16*
%TO.C,U4*%
X-7137500Y40450000D03*
X-7137500Y39500000D03*
X-7137500Y38550000D03*
X-4862500Y38550000D03*
X-4862500Y40450000D03*
%TD*%
D21*
%TO.C,C13*%
X25225000Y-27500000D03*
X26775000Y-27500000D03*
%TD*%
D37*
%TO.C,U6*%
X9887500Y-30025000D03*
X9887500Y-30675000D03*
X9887500Y-31325000D03*
X9887500Y-31975000D03*
X14112500Y-31975000D03*
X14112500Y-31325000D03*
X14112500Y-30675000D03*
X14112500Y-30025000D03*
%TD*%
D20*
%TO.C,R2*%
X500000Y39175000D03*
X500000Y40825000D03*
%TD*%
D38*
%TO.C,U3*%
X25437500Y38750000D03*
X25437500Y39250000D03*
X25437500Y39750000D03*
X25437500Y40250000D03*
D39*
X24750000Y40937500D03*
X24250000Y40937500D03*
X23750000Y40937500D03*
X23250000Y40937500D03*
D38*
X22562500Y40250000D03*
X22562500Y39750000D03*
X22562500Y39250000D03*
X22562500Y38750000D03*
D39*
X23250000Y38062500D03*
X23750000Y38062500D03*
X24250000Y38062500D03*
X24750000Y38062500D03*
D40*
X24000000Y39500000D03*
%TD*%
D15*
%TO.C,C15*%
X26500000Y-10775000D03*
X26500000Y-9225000D03*
%TD*%
D11*
%TO.C,Rsd4*%
X-11825000Y15000000D03*
X-10175000Y15000000D03*
%TD*%
D41*
%TO.C,J3*%
X-24050000Y14800000D03*
X-24050000Y15900000D03*
X-24050000Y17000000D03*
X-24050000Y18100000D03*
X-24050000Y19200000D03*
X-24050000Y20300000D03*
X-24050000Y21400000D03*
X-24050000Y22500000D03*
D42*
X-26650000Y11125000D03*
X-18350000Y11125000D03*
X-26650000Y24875000D03*
X-18350000Y24875000D03*
%TD*%
D15*
%TO.C,C3*%
X24500000Y20725000D03*
X24500000Y22275000D03*
%TD*%
D11*
%TO.C,R5*%
X21175000Y-34500000D03*
X22825000Y-34500000D03*
%TD*%
D43*
%TO.C,SW1*%
X-28400000Y-12000000D03*
X-30200000Y-12000000D03*
D44*
X-28580000Y-10200000D03*
X-28580000Y-13800000D03*
X-30020000Y-10200000D03*
X-30020000Y-13800000D03*
%TD*%
D11*
%TO.C,R10*%
X20175000Y31000000D03*
X21825000Y31000000D03*
%TD*%
D20*
%TO.C,R3*%
X15500000Y39175000D03*
X15500000Y40825000D03*
%TD*%
D11*
%TO.C,R11*%
X20175000Y28500000D03*
X21825000Y28500000D03*
%TD*%
D14*
%TO.C,H2*%
X28500000Y39500000D03*
%TD*%
D12*
%TO.C,SW_BOOT*%
X26625000Y-6200000D03*
X26625000Y-200000D03*
X30375000Y-6200000D03*
X30375000Y-200000D03*
%TD*%
D11*
%TO.C,Rsd3*%
X-11825000Y17500000D03*
X-10175000Y17500000D03*
%TD*%
D13*
%TO.C,C17*%
X30500000Y-25225000D03*
X30500000Y-26775000D03*
%TD*%
D15*
%TO.C,C5*%
X21000000Y34725000D03*
X21000000Y36275000D03*
%TD*%
D11*
%TO.C,R6*%
X26175000Y-34500000D03*
X27825000Y-34500000D03*
%TD*%
D45*
%TO.C,D2*%
X23212500Y33000000D03*
X24787500Y33000000D03*
%TD*%
D11*
%TO.C,R9*%
X16675000Y28500000D03*
X18325000Y28500000D03*
%TD*%
D46*
%TO.C,D1*%
X-29000000Y-18787500D03*
X-29000000Y-17212500D03*
%TD*%
D21*
%TO.C,C19*%
X11225000Y-27500000D03*
X12775000Y-27500000D03*
%TD*%
D15*
%TO.C,C4*%
X20500000Y39225000D03*
X20500000Y40775000D03*
%TD*%
%TO.C,C7*%
X-2500000Y39225000D03*
X-2500000Y40775000D03*
%TD*%
D11*
%TO.C,Rstat*%
X27175000Y36000000D03*
X28825000Y36000000D03*
%TD*%
D16*
%TO.C,U8*%
X24862500Y-30050000D03*
X24862500Y-31000000D03*
X24862500Y-31950000D03*
X27137500Y-31950000D03*
X27137500Y-30050000D03*
%TD*%
D47*
%TO.C,MK1*%
X30000000Y-9320000D03*
D48*
X29150000Y-11500000D03*
X29150000Y-10800000D03*
X30850000Y-11500000D03*
X30850000Y-10800000D03*
D49*
X30000000Y-10200000D03*
%TD*%
D20*
%TO.C,Rboot*%
X24500000Y10175000D03*
X24500000Y11825000D03*
%TD*%
D46*
%TO.C,F1*%
X17500000Y39212500D03*
X17500000Y40787500D03*
%TD*%
D13*
%TO.C,C21*%
X30800000Y27275000D03*
X30800000Y25725000D03*
%TD*%
D21*
%TO.C,C16*%
X19725000Y-26000000D03*
X21275000Y-26000000D03*
%TD*%
D33*
%TO.C,C8*%
X-20500000Y39050000D03*
X-20500000Y40950000D03*
%TD*%
D50*
%TO.C,C20*%
X-16950000Y-26000000D03*
X-15050000Y-26000000D03*
%TD*%
D14*
%TO.C,H4*%
X28500000Y-39500000D03*
%TD*%
M02*
