M48
; DRILL file KiCad 10.0.6-10.0.6~ubuntu24.04.1 date 2026-09-18T15:53:07
; FORMAT={-:-/ absolute / metric / decimal}
; #@! TF.CreationDate,2026-09-18T15:53:07+00:00
; #@! TF.GenerationSoftware,Kicad,Pcbnew,10.0.6-10.0.6~ubuntu24.04.1
; #@! TF.FileFunction,Plated,1,4,PTH
FMAT,2
METRIC
; #@! TA.AperFunction,Plated,PTH,ViaDrill
T1C0.300
; #@! TA.AperFunction,Plated,PTH,ComponentDrill
T2C0.600
; #@! TA.AperFunction,Plated,PTH,ComponentDrill
T3C0.750
; #@! TA.AperFunction,Plated,PTH,ComponentDrill
T4C1.000
%
G90
G05
T1
X-29.0Y34.0
X-29.0Y28.0
X-29.0Y22.0
X-29.0Y16.0
X-29.0Y10.0
X-29.0Y-20.0
X-29.0Y-26.0
X-29.0Y-32.0
X-27.484Y-0.239
X-23.0Y40.0
X-23.0Y34.0
X-23.0Y28.0
X-23.0Y10.0
X-23.0Y4.0
X-23.0Y-2.0
X-23.0Y-8.0
X-23.0Y-14.0
X-23.0Y-20.0
X-23.0Y-26.0
X-23.0Y-38.0
X-22.95Y18.1
X-22.841Y15.819
X-22.838Y22.324
X-22.833Y19.2
X-21.862Y22.101
X-21.752Y19.787
X-21.448Y16.099
X-21.02Y41.245
X-20.957Y22.273
X-20.957Y20.84
X-20.842Y18.22
X-20.5Y40.0
X-19.4Y39.05
X-18.238Y40.45
X-17.0Y34.0
X-17.0Y-38.0
X-16.95Y-27.235
X-12.925Y25.0
X-12.925Y22.5
X-12.925Y15.0
X-12.875Y12.0
X-11.825Y18.9
X-11.0Y28.0
X-11.0Y10.0
X-11.0Y4.0
X-11.0Y-2.0
X-11.0Y-8.0
X-11.0Y-14.0
X-11.0Y-20.0
X-11.0Y-26.0
X-11.0Y-32.0
X-11.0Y-38.0
X-10.885Y21.79
X-10.882Y20.708
X-10.874Y15.699
X-10.47Y12.27
X-10.175Y26.715
X-9.627Y16.388
X-5.968Y39.485
X-5.0Y34.0
X-5.0Y28.0
X-5.0Y22.0
X-5.0Y10.0
X-5.0Y-2.0
X-5.0Y-8.0
X-5.0Y-14.0
X-5.0Y-20.0
X-5.0Y-26.0
X-5.0Y-38.0
X-4.687Y-30.034
X-0.64Y34.3
X1.0Y34.0
X1.0Y4.0
X1.0Y-2.0
X1.0Y-8.0
X1.0Y-14.0
X1.0Y-20.0
X1.0Y-26.0
X1.0Y-32.0
X1.0Y-38.0
X3.772Y17.704
X3.772Y-8.365
X4.8Y36.9
X5.55Y39.2
X5.756Y19.629
X5.801Y14.82
X5.9Y11.0
X6.141Y13.865
X6.141Y11.892
X6.847Y-30.172
X7.0Y34.0
X7.0Y28.0
X7.0Y4.0
X7.0Y-2.0
X7.0Y-8.0
X7.0Y-14.0
X7.0Y-20.0
X7.0Y-26.0
X7.0Y-38.0
X7.6Y36.9
X7.856Y14.83
X7.857Y19.0
X7.859Y12.567
X7.866Y17.704
X8.1Y22.25
X8.675Y16.522
X8.881Y13.047
X8.9Y11.861
X9.161Y19.394
X9.2Y36.9
X9.566Y20.754
X9.887Y9.274
X9.887Y-33.636
X10.061Y12.629
X10.45Y39.2
X10.597Y17.299
X11.125Y18.435
X12.3Y14.65
X12.802Y-31.325
X13.0Y34.0
X13.0Y28.0
X13.0Y22.0
X13.0Y4.0
X13.0Y-2.0
X13.132Y-33.103
X13.15Y11.87
X13.804Y8.888
X13.875Y-27.5
X15.212Y-30.675
X15.369Y-29.665
X15.7Y28.5
X15.9Y-21.3
X16.5Y39.2
X16.7Y32.6
X17.05Y-22.148
X17.05Y-25.925
X18.5Y39.2
X19.0Y34.0
X19.0Y28.0
X19.0Y22.0
X19.0Y16.0
X19.0Y10.0
X19.0Y-2.0
X19.1Y38.1
X19.5Y40.5
X19.743Y19.275
X20.14Y19.952
X20.25Y37.79
X20.3Y31.8
X20.3Y30.0
X20.451Y-19.274
X21.0Y25.9
X21.175Y-32.9
X21.275Y-22.665
X21.6Y30.0
X21.9Y38.1
X21.9Y15.6
X21.95Y34.334
X22.0Y35.2
X22.155Y-19.314
X22.3Y39.6
X22.41Y14.136
X22.675Y-20.4
X22.675Y-21.2
X22.675Y-22.0
X22.675Y-22.8
X22.675Y-23.6
X22.875Y-31.0
X23.0Y38.1
X23.1Y37.4
X23.193Y-33.333
X23.2Y36.6
X23.212Y34.106
X23.4Y13.675
X23.762Y-31.95
X23.8Y34.8
X23.9Y40.8
X24.198Y19.068
X24.4Y-18.675
X24.4Y-25.325
X24.7Y11.5
X24.862Y-29.272
X24.9Y37.6
X24.9Y15.6
X24.9Y8.9
X24.957Y40.816
X25.0Y28.0
X25.0Y4.0
X25.075Y-34.5
X25.2Y-18.675
X25.2Y-25.325
X25.4Y39.6
X25.4Y11.075
X25.438Y38.175
X25.457Y15.044
X25.752Y-29.385
X26.0Y9.8
X26.0Y-18.675
X26.0Y-25.325
X26.075Y36.0
X26.269Y37.412
X26.6Y-15.5
X26.7Y-19.0
X26.8Y-25.325
X26.9Y37.0
X27.317Y-8.602
X27.6Y-25.325
X27.603Y-26.634
X27.925Y-16.5
X28.272Y-29.724
X28.825Y34.192
X29.325Y-23.6
X29.8Y33.7
T3
X-23.5Y-34.0
X-21.5Y-34.0
T4
X1.5Y30.0
X1.5Y27.46
X1.5Y24.92
X1.5Y22.38
T2
X3.68Y41.28G85X3.68Y40.18
G05
X3.68Y36.85G85X3.68Y36.25
G05
X12.32Y41.28G85X12.32Y40.18
G05
X12.32Y36.85G85X12.32Y36.25
G05
M30
