M48
; DRILL file KiCad 10.0.6-10.0.6~ubuntu24.04.1 date 2026-09-06T18:34:02
; FORMAT={-:-/ absolute / metric / decimal}
; #@! TF.CreationDate,2026-09-06T18:34:02+00:00
; #@! TF.GenerationSoftware,Kicad,Pcbnew,10.0.6-10.0.6~ubuntu24.04.1
; #@! TF.FileFunction,Plated,1,4,PTH
FMAT,2
METRIC
; #@! TA.AperFunction,Plated,PTH,ViaDrill
T1C0.300
; #@! TA.AperFunction,Plated,PTH,ComponentDrill
T2C0.600
; #@! TA.AperFunction,Plated,PTH,ComponentDrill
T3C1.000
; #@! TA.AperFunction,Plated,PTH,ComponentDrill
T4C2.500
%
G90
G05
T1
X-29.0Y34.0
X-29.0Y28.0
X-29.0Y22.0
X-29.0Y16.0
X-29.0Y10.0
X-29.0Y4.0
X-29.0Y-2.0
X-29.0Y-8.0
X-29.0Y-20.0
X-29.0Y-26.0
X-29.0Y-32.0
X-28.063Y-14.788
X-25.15Y18.1
X-23.0Y40.0
X-23.0Y34.0
X-23.0Y28.0
X-23.0Y10.0
X-23.0Y4.0
X-23.0Y-2.0
X-23.0Y-8.0
X-23.0Y-20.0
X-23.0Y-26.0
X-23.0Y-38.0
X-22.845Y18.795
X-22.841Y15.819
X-22.833Y17.289
X-22.831Y14.8
X-21.02Y41.245
X-20.5Y40.0
X-19.4Y39.05
X-18.238Y40.45
X-17.0Y34.0
X-17.0Y28.0
X-17.0Y22.0
X-17.0Y10.0
X-17.0Y4.0
X-17.0Y-2.0
X-17.0Y-8.0
X-17.0Y-14.0
X-17.0Y-20.0
X-17.0Y-32.0
X-17.0Y-38.0
X-16.95Y-27.235
X-16.05Y19.729
X-12.925Y25.0
X-12.925Y22.5
X-12.875Y12.0
X-12.725Y15.9
X-11.825Y18.9
X-11.0Y34.0
X-11.0Y28.0
X-11.0Y10.0
X-11.0Y4.0
X-11.0Y-2.0
X-11.0Y-8.0
X-11.0Y-14.0
X-11.0Y-26.0
X-11.0Y-32.0
X-11.0Y-38.0
X-10.839Y14.206
X-10.47Y12.27
X-10.175Y26.65
X-9.888Y21.336
X-9.31Y14.864
X-9.182Y17.949
X-7.295Y-32.696
X-5.0Y34.0
X-5.0Y28.0
X-5.0Y22.0
X-5.0Y10.0
X-5.0Y4.0
X-5.0Y-2.0
X-5.0Y-8.0
X-5.0Y-14.0
X-5.0Y-20.0
X-5.0Y-26.0
X-5.0Y-32.0
X-5.0Y-38.0
X-4.014Y39.225
X-0.64Y34.3
X1.0Y34.0
X1.0Y10.0
X1.0Y4.0
X1.0Y-2.0
X1.0Y-8.0
X1.0Y-14.0
X1.0Y-20.0
X1.0Y-26.0
X1.0Y-30.183
X1.0Y-38.0
X2.6Y30.0
X4.8Y36.9
X5.55Y39.2
X6.092Y20.011
X6.129Y10.819
X6.136Y19.101
X6.166Y14.176
X7.0Y34.0
X7.0Y28.0
X7.0Y-32.0
X7.0Y-38.0
X7.374Y9.281
X7.6Y36.9
X7.854Y14.731
X7.864Y20.583
X8.1Y22.25
X8.297Y18.374
X8.357Y11.859
X8.388Y17.619
X8.675Y13.757
X8.97Y12.332
X9.2Y36.9
X9.553Y18.09
X9.598Y11.854
X10.122Y14.532
X10.214Y-33.514
X10.45Y39.2
X10.593Y13.43
X10.76Y18.409
X11.45Y12.98
X12.3Y11.858
X12.606Y-31.246
X13.0Y40.0
X13.0Y34.0
X13.0Y28.0
X13.0Y22.0
X13.0Y4.0
X13.0Y-2.0
X13.875Y-27.5
X14.765Y-32.627
X16.15Y-25.725
X16.217Y-31.325
X16.5Y39.2
X16.64Y34.3
X17.325Y-28.6
X18.161Y-24.286
X19.0Y34.0
X19.0Y28.0
X19.0Y22.0
X19.0Y16.0
X19.0Y10.0
X19.0Y4.0
X19.0Y-2.0
X19.725Y-25.063
X19.743Y19.275
X20.14Y19.952
X20.985Y-30.24
X21.175Y-32.9
X21.698Y38.841
X21.783Y-27.498
X22.675Y-20.4
X22.675Y-21.2
X22.675Y-22.0
X22.675Y-22.8
X22.675Y-23.6
X23.02Y-17.912
X23.037Y-33.056
X23.175Y36.945
X23.262Y-31.95
X23.4Y13.675
X23.762Y-31.0
X24.0Y13.675
X24.4Y-18.675
X24.4Y-25.325
X24.854Y21.079
X25.0Y34.0
X25.0Y28.0
X25.0Y4.0
X25.0Y-2.0
X25.075Y-34.5
X25.2Y-18.675
X25.2Y-25.325
X25.39Y-28.472
X25.457Y15.044
X25.6Y10.175
X25.985Y39.755
X26.0Y-25.325
X26.8Y-18.675
X26.8Y-25.325
X27.6Y-18.675
X27.6Y-25.325
X27.925Y-16.5
X28.075Y35.1
X28.272Y-29.724
X28.752Y-19.767
X29.325Y-23.6
X29.469Y24.316
T3
X1.5Y30.0
X1.5Y27.46
X1.5Y24.92
X1.5Y22.38
T4
X-23.5Y-34.0
X-15.7Y-34.0
T2
X3.68Y41.28G85X3.68Y40.18
G05
X3.68Y36.85G85X3.68Y36.25
G05
X12.32Y41.28G85X12.32Y40.18
G05
X12.32Y36.85G85X12.32Y36.25
G05
M30
