%TF.GenerationSoftware,KiCad,Pcbnew,10.0.6-10.0.6~ubuntu24.04.1*%
%TF.CreationDate,2026-09-12T15:49:27+00:00*%
%TF.ProjectId,recorder,7265636f-7264-4657-922e-6b696361645f,rev?*%
%TF.SameCoordinates,Original*%
%TF.FileFunction,Other,User*%
%FSLAX46Y46*%
G04 Gerber Fmt 4.6, Leading zero omitted, Abs format (unit mm)*
G04 Created by KiCad (PCBNEW 10.0.6-10.0.6~ubuntu24.04.1) date 2026-09-12 15:49:27*
%MOMM*%
%LPD*%
G01*
G04 APERTURE LIST*
%ADD10C,0.050000*%
G04 APERTURE END LIST*
%TO.C,C6*%
D10*
X-11230000Y37480000D02*
X-9770000Y37480000D01*
X-9770000Y34520000D01*
X-11230000Y34520000D01*
X-11230000Y37480000D01*
%TO.C,R4*%
X22520000Y36730000D02*
X25480000Y36730000D01*
X25480000Y35270000D01*
X22520000Y35270000D01*
X22520000Y36730000D01*
%TO.C,R3*%
X14770000Y41480000D02*
X16230000Y41480000D01*
X16230000Y38520000D01*
X14770000Y38520000D01*
X14770000Y41480000D01*
%TO.C,U1*%
X6050000Y25950000D02*
X21950000Y25950000D01*
X6050000Y10050000D02*
X6050000Y25950000D01*
X21950000Y25950000D02*
X21950000Y10050000D01*
X21950000Y10050000D02*
X6050000Y10050000D01*
%TO.C,U5*%
X-18050000Y41000000D02*
X-17050000Y41000000D01*
X-18050000Y38000000D02*
X-18050000Y41000000D01*
X-17050000Y41200000D02*
X-14950000Y41200000D01*
X-17050000Y41000000D02*
X-17050000Y41200000D01*
X-17050000Y38000000D02*
X-18050000Y38000000D01*
X-17050000Y37800000D02*
X-17050000Y38000000D01*
X-14950000Y41200000D02*
X-14950000Y41000000D01*
X-14950000Y41000000D02*
X-13950000Y41000000D01*
X-14950000Y39890000D02*
X-14950000Y39110000D01*
X-14950000Y39110000D02*
X-13950000Y39110000D01*
X-14950000Y38000000D02*
X-14950000Y37800000D01*
X-14950000Y37800000D02*
X-17050000Y37800000D01*
X-13950000Y41000000D02*
X-13950000Y39890000D01*
X-13950000Y39890000D02*
X-14950000Y39890000D01*
X-13950000Y39110000D02*
X-13950000Y38000000D01*
X-13950000Y38000000D02*
X-14950000Y38000000D01*
%TO.C,BT1*%
X-26200000Y-31550000D02*
X-20800000Y-31550000D01*
X-20800000Y-36450000D01*
X-26200000Y-36450000D01*
X-26200000Y-31550000D01*
X-18400000Y-31550000D02*
X-13000000Y-31550000D01*
X-13000000Y-36450000D01*
X-18400000Y-36450000D01*
X-18400000Y-31550000D01*
%TO.C,H1*%
X-26400000Y39500000D02*
G75*
G02*
X-30600000Y39500000I-2100000J0D01*
G01*
X-30600000Y39500000D02*
G75*
G02*
X-26400000Y39500000I2100000J0D01*
G01*
%TO.C,Rboot*%
X23770000Y12480000D02*
X25230000Y12480000D01*
X25230000Y9520000D01*
X23770000Y9520000D01*
X23770000Y12480000D01*
%TO.C,Rsd2*%
X-12480000Y20730000D02*
X-9520000Y20730000D01*
X-9520000Y19270000D01*
X-12480000Y19270000D01*
X-12480000Y20730000D01*
%TO.C,Rsd3*%
X-12480000Y18230000D02*
X-9520000Y18230000D01*
X-9520000Y16770000D01*
X-12480000Y16770000D01*
X-12480000Y18230000D01*
%TO.C,Ragnd*%
X24520000Y-15770000D02*
X27480000Y-15770000D01*
X27480000Y-17230000D01*
X24520000Y-17230000D01*
X24520000Y-15770000D01*
%TO.C,C4*%
X19770000Y41480000D02*
X21230000Y41480000D01*
X21230000Y38520000D01*
X19770000Y38520000D01*
X19770000Y41480000D01*
%TO.C,C1*%
X23520000Y26700000D02*
X25480000Y26700000D01*
X25480000Y23300000D01*
X23520000Y23300000D01*
X23520000Y26700000D01*
%TO.C,F1*%
X16770000Y41480000D02*
X18230000Y41480000D01*
X18230000Y38520000D01*
X16770000Y38520000D01*
X16770000Y41480000D01*
%TO.C,Rsd0*%
X-12480000Y25730000D02*
X-9520000Y25730000D01*
X-9520000Y24270000D01*
X-12480000Y24270000D01*
X-12480000Y25730000D01*
%TO.C,U7*%
X5950000Y32500000D02*
X6950000Y32500000D01*
X5950000Y29500000D02*
X5950000Y32500000D01*
X6950000Y32700000D02*
X9050000Y32700000D01*
X6950000Y32500000D02*
X6950000Y32700000D01*
X6950000Y29500000D02*
X5950000Y29500000D01*
X6950000Y29300000D02*
X6950000Y29500000D01*
X9050000Y32700000D02*
X9050000Y32500000D01*
X9050000Y32500000D02*
X10050000Y32500000D01*
X9050000Y29500000D02*
X9050000Y29300000D01*
X9050000Y29300000D02*
X6950000Y29300000D01*
X10050000Y32500000D02*
X10050000Y29500000D01*
X10050000Y29500000D02*
X9050000Y29500000D01*
%TO.C,C16*%
X19020000Y-25270000D02*
X21980000Y-25270000D01*
X21980000Y-26730000D01*
X19020000Y-26730000D01*
X19020000Y-25270000D01*
%TO.C,Rled*%
X-29730000Y-20520000D02*
X-28270000Y-20520000D01*
X-28270000Y-23480000D01*
X-29730000Y-23480000D01*
X-29730000Y-20520000D01*
%TO.C,R7*%
X15020000Y-26770000D02*
X17980000Y-26770000D01*
X17980000Y-28230000D01*
X15020000Y-28230000D01*
X15020000Y-26770000D01*
%TO.C,R5*%
X20520000Y-33770000D02*
X23480000Y-33770000D01*
X23480000Y-35230000D01*
X20520000Y-35230000D01*
X20520000Y-33770000D01*
%TO.C,C11*%
X29770000Y-15520000D02*
X31230000Y-15520000D01*
X31230000Y-18480000D01*
X29770000Y-18480000D01*
X29770000Y-15520000D01*
%TO.C,U3*%
X21950000Y41000000D02*
X22950000Y41000000D01*
X21950000Y38000000D02*
X21950000Y41000000D01*
X22950000Y41200000D02*
X25050000Y41200000D01*
X22950000Y41000000D02*
X22950000Y41200000D01*
X22950000Y38000000D02*
X21950000Y38000000D01*
X22950000Y37800000D02*
X22950000Y38000000D01*
X25050000Y41200000D02*
X25050000Y41000000D01*
X25050000Y41000000D02*
X26050000Y41000000D01*
X25050000Y39890000D02*
X25050000Y39110000D01*
X25050000Y39110000D02*
X26050000Y39110000D01*
X25050000Y38000000D02*
X25050000Y37800000D01*
X25050000Y37800000D02*
X22950000Y37800000D01*
X26050000Y41000000D02*
X26050000Y39890000D01*
X26050000Y39890000D02*
X25050000Y39890000D01*
X26050000Y39110000D02*
X26050000Y38000000D01*
X26050000Y38000000D02*
X25050000Y38000000D01*
%TO.C,C19*%
X10520000Y-26770000D02*
X13480000Y-26770000D01*
X13480000Y-28230000D01*
X10520000Y-28230000D01*
X10520000Y-26770000D01*
%TO.C,R6*%
X25520000Y-33770000D02*
X28480000Y-33770000D01*
X28480000Y-35230000D01*
X25520000Y-35230000D01*
X25520000Y-33770000D01*
%TO.C,U4*%
X-8050000Y41000000D02*
X-7050000Y41000000D01*
X-8050000Y38000000D02*
X-8050000Y41000000D01*
X-7050000Y41200000D02*
X-4950000Y41200000D01*
X-7050000Y41000000D02*
X-7050000Y41200000D01*
X-7050000Y38000000D02*
X-8050000Y38000000D01*
X-7050000Y37800000D02*
X-7050000Y38000000D01*
X-4950000Y41200000D02*
X-4950000Y41000000D01*
X-4950000Y41000000D02*
X-3950000Y41000000D01*
X-4950000Y39890000D02*
X-4950000Y39110000D01*
X-4950000Y39110000D02*
X-3950000Y39110000D01*
X-4950000Y38000000D02*
X-4950000Y37800000D01*
X-4950000Y37800000D02*
X-7050000Y37800000D01*
X-3950000Y41000000D02*
X-3950000Y39890000D01*
X-3950000Y39890000D02*
X-4950000Y39890000D01*
X-3950000Y39110000D02*
X-3950000Y38000000D01*
X-3950000Y38000000D02*
X-4950000Y38000000D01*
%TO.C,R2*%
X-230000Y41480000D02*
X1230000Y41480000D01*
X1230000Y38520000D01*
X-230000Y38520000D01*
X-230000Y41480000D01*
%TO.C,C3*%
X23770000Y22980000D02*
X25230000Y22980000D01*
X25230000Y20020000D01*
X23770000Y20020000D01*
X23770000Y22980000D01*
%TO.C,D1*%
X-29730000Y-16520000D02*
X-28270000Y-16520000D01*
X-28270000Y-19480000D01*
X-29730000Y-19480000D01*
X-29730000Y-16520000D01*
%TO.C,J2*%
X2680000Y42870000D02*
X2680000Y33450000D01*
X2680000Y42870000D02*
X13320000Y42870000D01*
X2680000Y33450000D02*
X13320000Y33450000D01*
X13320000Y42870000D02*
X13320000Y33450000D01*
%TO.C,C12*%
X29770000Y-18520000D02*
X31230000Y-18520000D01*
X31230000Y-21480000D01*
X29770000Y-21480000D01*
X29770000Y-18520000D01*
%TO.C,C13*%
X24520000Y-26770000D02*
X27480000Y-26770000D01*
X27480000Y-28230000D01*
X24520000Y-28230000D01*
X24520000Y-26770000D01*
%TO.C,SW1*%
X-31650000Y-10900000D02*
X-31000000Y-10900000D01*
X-31650000Y-13100000D02*
X-31650000Y-10900000D01*
X-31000000Y-9250000D02*
X-27600000Y-9250000D01*
X-31000000Y-10900000D02*
X-31000000Y-9250000D01*
X-31000000Y-13100000D02*
X-31650000Y-13100000D01*
X-31000000Y-14750000D02*
X-31000000Y-13100000D01*
X-27600000Y-9250000D02*
X-27600000Y-14750000D01*
X-27600000Y-14750000D02*
X-31000000Y-14750000D01*
%TO.C,C18*%
X29770000Y-21520000D02*
X31230000Y-21520000D01*
X31230000Y-24480000D01*
X29770000Y-24480000D01*
X29770000Y-21520000D01*
%TO.C,R1*%
X23770000Y15980000D02*
X25230000Y15980000D01*
X25230000Y13020000D01*
X23770000Y13020000D01*
X23770000Y15980000D01*
%TO.C,Rsd4*%
X-12480000Y15730000D02*
X-9520000Y15730000D01*
X-9520000Y14270000D01*
X-12480000Y14270000D01*
X-12480000Y15730000D01*
%TO.C,C15*%
X25770000Y-8520000D02*
X27230000Y-8520000D01*
X27230000Y-11480000D01*
X25770000Y-11480000D01*
X25770000Y-8520000D01*
%TO.C,J3*%
X-28700000Y26080000D02*
X-28700000Y9920000D01*
X-28700000Y26080000D02*
X-14000000Y26080000D01*
X-28700000Y9920000D02*
X-14000000Y9920000D01*
X-14000000Y26080000D02*
X-14000000Y9920000D01*
%TO.C,U2*%
X23870000Y-20850000D02*
X24250000Y-20850000D01*
X23870000Y-23150000D02*
X23870000Y-20850000D01*
X24250000Y-20250000D02*
X24850000Y-20250000D01*
X24250000Y-20850000D02*
X24250000Y-20250000D01*
X24250000Y-23150000D02*
X23870000Y-23150000D01*
X24250000Y-23750000D02*
X24250000Y-23150000D01*
X24850000Y-19870000D02*
X27150000Y-19870000D01*
X24850000Y-20250000D02*
X24850000Y-19870000D01*
X24850000Y-23750000D02*
X24250000Y-23750000D01*
X24850000Y-24130000D02*
X24850000Y-23750000D01*
X27150000Y-19870000D02*
X27150000Y-20250000D01*
X27150000Y-20250000D02*
X27750000Y-20250000D01*
X27150000Y-23750000D02*
X27150000Y-24130000D01*
X27150000Y-24130000D02*
X24850000Y-24130000D01*
X27750000Y-20250000D02*
X27750000Y-20850000D01*
X27750000Y-20850000D02*
X28130000Y-20850000D01*
X27750000Y-23150000D02*
X27750000Y-23750000D01*
X27750000Y-23750000D02*
X27150000Y-23750000D01*
X28130000Y-20850000D02*
X28130000Y-23150000D01*
X28130000Y-23150000D02*
X27750000Y-23150000D01*
%TO.C,U6*%
X8820000Y-29570000D02*
X10250000Y-29570000D01*
X8820000Y-32430000D02*
X8820000Y-29570000D01*
X10250000Y-29250000D02*
X13750000Y-29250000D01*
X10250000Y-29570000D02*
X10250000Y-29250000D01*
X10250000Y-32430000D02*
X8820000Y-32430000D01*
X10250000Y-32750000D02*
X10250000Y-32430000D01*
X13750000Y-29250000D02*
X13750000Y-29570000D01*
X13750000Y-29570000D02*
X15180000Y-29570000D01*
X13750000Y-32430000D02*
X13750000Y-32750000D01*
X13750000Y-32750000D02*
X10250000Y-32750000D01*
X15180000Y-29570000D02*
X15180000Y-32430000D01*
X15180000Y-32430000D02*
X13750000Y-32430000D01*
%TO.C,Rstat*%
X26520000Y36730000D02*
X29480000Y36730000D01*
X29480000Y35270000D01*
X26520000Y35270000D01*
X26520000Y36730000D01*
%TO.C,MK1*%
X28250000Y-7750000D02*
X31750000Y-7750000D01*
X28250000Y-12250000D02*
X28250000Y-7750000D01*
X31750000Y-7750000D02*
X31750000Y-12250000D01*
X31750000Y-12250000D02*
X28250000Y-12250000D01*
%TO.C,Rsd1*%
X-12480000Y23230000D02*
X-9520000Y23230000D01*
X-9520000Y21770000D01*
X-12480000Y21770000D01*
X-12480000Y23230000D01*
%TO.C,C8*%
X-21480000Y41700000D02*
X-19520000Y41700000D01*
X-19520000Y38300000D01*
X-21480000Y38300000D01*
X-21480000Y41700000D01*
%TO.C,Y1*%
X13900000Y-22250000D02*
X18100000Y-22250000D01*
X18100000Y-25750000D01*
X13900000Y-25750000D01*
X13900000Y-22250000D01*
%TO.C,H3*%
X-26400000Y-39500000D02*
G75*
G02*
X-30600000Y-39500000I-2100000J0D01*
G01*
X-30600000Y-39500000D02*
G75*
G02*
X-26400000Y-39500000I2100000J0D01*
G01*
%TO.C,U8*%
X23950000Y-29500000D02*
X24950000Y-29500000D01*
X23950000Y-32500000D02*
X23950000Y-29500000D01*
X24950000Y-29300000D02*
X27050000Y-29300000D01*
X24950000Y-29500000D02*
X24950000Y-29300000D01*
X24950000Y-32500000D02*
X23950000Y-32500000D01*
X24950000Y-32700000D02*
X24950000Y-32500000D01*
X27050000Y-29300000D02*
X27050000Y-29500000D01*
X27050000Y-29500000D02*
X28050000Y-29500000D01*
X27050000Y-30610000D02*
X27050000Y-31390000D01*
X27050000Y-31390000D02*
X28050000Y-31390000D01*
X27050000Y-32500000D02*
X27050000Y-32700000D01*
X27050000Y-32700000D02*
X24950000Y-32700000D01*
X28050000Y-29500000D02*
X28050000Y-30610000D01*
X28050000Y-30610000D02*
X27050000Y-30610000D01*
X28050000Y-31390000D02*
X28050000Y-32500000D01*
X28050000Y-32500000D02*
X27050000Y-32500000D01*
%TO.C,J1*%
X-270000Y31770000D02*
X3270000Y31770000D01*
X3270000Y20610000D01*
X-270000Y20610000D01*
X-270000Y31770000D01*
%TO.C,H2*%
X30600000Y39500000D02*
G75*
G02*
X26400000Y39500000I-2100000J0D01*
G01*
X26400000Y39500000D02*
G75*
G02*
X30600000Y39500000I2100000J0D01*
G01*
%TO.C,C2*%
X23770000Y19480000D02*
X25230000Y19480000D01*
X25230000Y16520000D01*
X23770000Y16520000D01*
X23770000Y19480000D01*
%TO.C,C14*%
X-12480000Y12730000D02*
X-9520000Y12730000D01*
X-9520000Y11270000D01*
X-12480000Y11270000D01*
X-12480000Y12730000D01*
%TO.C,D2*%
X22520000Y33730000D02*
X25480000Y33730000D01*
X25480000Y32270000D01*
X22520000Y32270000D01*
X22520000Y33730000D01*
%TO.C,Rchg*%
X26520000Y33730000D02*
X29480000Y33730000D01*
X29480000Y32270000D01*
X26520000Y32270000D01*
X26520000Y33730000D01*
%TO.C,SP1*%
X-11750000Y-26250000D02*
X3750000Y-26250000D01*
X3750000Y-37750000D01*
X-11750000Y-37750000D01*
X-11750000Y-26250000D01*
%TO.C,C10*%
X19020000Y-19270000D02*
X21980000Y-19270000D01*
X21980000Y-20730000D01*
X19020000Y-20730000D01*
X19020000Y-19270000D01*
%TO.C,H4*%
X30600000Y-39500000D02*
G75*
G02*
X26400000Y-39500000I-2100000J0D01*
G01*
X26400000Y-39500000D02*
G75*
G02*
X30600000Y-39500000I2100000J0D01*
G01*
%TO.C,C9*%
X19520000Y-30270000D02*
X22480000Y-30270000D01*
X22480000Y-31730000D01*
X19520000Y-31730000D01*
X19520000Y-30270000D01*
%TO.C,C7*%
X-3230000Y41480000D02*
X-1770000Y41480000D01*
X-1770000Y38520000D01*
X-3230000Y38520000D01*
X-3230000Y41480000D01*
%TO.C,C5*%
X-11230000Y41480000D02*
X-9770000Y41480000D01*
X-9770000Y38520000D01*
X-11230000Y38520000D01*
X-11230000Y41480000D01*
%TO.C,C17*%
X29770000Y-24520000D02*
X31230000Y-24520000D01*
X31230000Y-27480000D01*
X29770000Y-27480000D01*
X29770000Y-24520000D01*
%TO.C,C20*%
X-17700000Y-25020000D02*
X-14300000Y-25020000D01*
X-14300000Y-26980000D01*
X-17700000Y-26980000D01*
X-17700000Y-25020000D01*
%TD*%
M02*
