G04 #@! TF.GenerationSoftware,KiCad,Pcbnew,10.0.5*
G04 #@! TF.CreationDate,2026-08-30T23:55:51-05:00*
G04 #@! TF.ProjectId,recorder,7265636f-7264-4657-922e-6b696361645f,rev?*
G04 #@! TF.SameCoordinates,Original*
G04 #@! TF.FileFunction,Soldermask,Top*
G04 #@! TF.FilePolarity,Negative*
%FSLAX46Y46*%
G04 Gerber Fmt 4.6, Leading zero omitted, Abs format (unit mm)*
G04 Created by KiCad (PCBNEW 10.0.5) date 2026-08-30 23:55:51*
%MOMM*%
%LPD*%
G01*
G04 APERTURE LIST*
G04 Aperture macros list*
%AMRoundRect*
0 Rectangle with rounded corners*
0 $1 Rounding radius*
0 $2 $3 $4 $5 $6 $7 $8 $9 X,Y pos of 4 corners*
0 Add a 4 corners polygon primitive as box body*
4,1,4,$2,$3,$4,$5,$6,$7,$8,$9,$2,$3,0*
0 Add four circle primitives for the rounded corners*
1,1,$1+$1,$2,$3*
1,1,$1+$1,$4,$5*
1,1,$1+$1,$6,$7*
1,1,$1+$1,$8,$9*
0 Add four rect primitives between the rounded corners*
20,1,$1+$1,$2,$3,$4,$5,0*
20,1,$1+$1,$4,$5,$6,$7,0*
20,1,$1+$1,$6,$7,$8,$9,0*
20,1,$1+$1,$8,$9,$2,$3,0*%
%AMOutline5P*
0 Free polygon, 5 corners , with rotation*
0 The origin of the aperture is its center*
0 number of corners: always 5*
0 $1 to $10 corner X, Y*
0 $11 Rotation angle, in degrees counterclockwise*
0 create outline with 5 corners*
4,1,5,$1,$2,$3,$4,$5,$6,$7,$8,$9,$10,$1,$2,$11*%
%AMOutline6P*
0 Free polygon, 6 corners , with rotation*
0 The origin of the aperture is its center*
0 number of corners: always 6*
0 $1 to $12 corner X, Y*
0 $13 Rotation angle, in degrees counterclockwise*
0 create outline with 6 corners*
4,1,6,$1,$2,$3,$4,$5,$6,$7,$8,$9,$10,$11,$12,$1,$2,$13*%
%AMOutline7P*
0 Free polygon, 7 corners , with rotation*
0 The origin of the aperture is its center*
0 number of corners: always 7*
0 $1 to $14 corner X, Y*
0 $15 Rotation angle, in degrees counterclockwise*
0 create outline with 7 corners*
4,1,7,$1,$2,$3,$4,$5,$6,$7,$8,$9,$10,$11,$12,$13,$14,$1,$2,$15*%
%AMOutline8P*
0 Free polygon, 8 corners , with rotation*
0 The origin of the aperture is its center*
0 number of corners: always 8*
0 $1 to $16 corner X, Y*
0 $17 Rotation angle, in degrees counterclockwise*
0 create outline with 8 corners*
4,1,8,$1,$2,$3,$4,$5,$6,$7,$8,$9,$10,$11,$12,$13,$14,$15,$16,$1,$2,$17*%
%AMFreePoly0*
4,1,64,0.301896,1.805218,0.490253,1.727198,0.659769,1.613931,0.803931,1.469769,0.917198,1.300253,0.995218,1.111896,1.034992,0.911938,1.034992,0.708062,0.995218,0.508104,0.917198,0.319747,0.803931,0.150231,0.659769,0.006069,0.490253,-0.107198,0.301896,-0.185218,0.101938,-0.224992,0.046293,-0.224992,0.044871,-0.225581,-0.044871,-0.225581,-0.046293,-0.224992,-0.101938,-0.224992,
-0.301896,-0.185218,-0.490253,-0.107198,-0.659769,0.006069,-0.803931,0.150231,-0.917198,0.319747,-0.995218,0.508104,-1.034992,0.708062,-1.034992,0.886358,-0.580000,0.886358,-0.580000,0.733642,-0.540474,0.586128,-0.464116,0.453872,-0.356128,0.345884,-0.223872,0.269526,-0.076358,0.230000,0.076358,0.230000,0.223872,0.269526,0.356128,0.345884,0.464116,0.453872,0.540474,0.586128,
0.580000,0.733642,0.580000,0.886358,0.540474,1.033872,0.464116,1.166128,0.356128,1.274116,0.223872,1.350474,0.076358,1.390000,-0.076358,1.390000,-0.223872,1.350474,-0.356128,1.274116,-0.464116,1.166128,-0.540474,1.033872,-0.580000,0.886358,-1.034992,0.886358,-1.034992,0.911938,-0.995218,1.111896,-0.917198,1.300253,-0.803931,1.469769,-0.659769,1.613931,-0.490253,1.727198,
-0.301896,1.805218,-0.101938,1.844992,0.101938,1.844992,0.301896,1.805218,0.301896,1.805218,$1*%
G04 Aperture macros list end*
%ADD10RoundRect,0.200000X-0.200000X-0.275000X0.200000X-0.275000X0.200000X0.275000X-0.200000X0.275000X0*%
%ADD11R,0.800000X0.400000*%
%ADD12R,0.400000X0.800000*%
%ADD13Outline5P,-0.600000X0.204000X-0.204000X0.600000X0.600000X0.600000X0.600000X-0.600000X-0.600000X-0.600000X0.000000*%
%ADD14R,1.200000X1.200000*%
%ADD15R,0.800000X0.800000*%
%ADD16RoundRect,0.250000X-0.250000X-0.475000X0.250000X-0.475000X0.250000X0.475000X-0.250000X0.475000X0*%
%ADD17RoundRect,0.150000X-0.512500X-0.150000X0.512500X-0.150000X0.512500X0.150000X-0.512500X0.150000X0*%
%ADD18RoundRect,0.100000X-0.712500X-0.100000X0.712500X-0.100000X0.712500X0.100000X-0.712500X0.100000X0*%
%ADD19RoundRect,0.250000X-0.525000X-0.400000X0.525000X-0.400000X0.525000X0.400000X-0.525000X0.400000X0*%
%ADD20RoundRect,0.218750X-0.218750X-0.256250X0.218750X-0.256250X0.218750X0.256250X-0.218750X0.256250X0*%
%ADD21R,1.500000X0.800000*%
%ADD22R,2.000000X1.450000*%
%ADD23RoundRect,0.218750X0.256250X-0.218750X0.256250X0.218750X-0.256250X0.218750X-0.256250X-0.218750X0*%
%ADD24C,1.700000*%
%ADD25RoundRect,0.225000X0.250000X-0.225000X0.250000X0.225000X-0.250000X0.225000X-0.250000X-0.225000X0*%
%ADD26RoundRect,0.050000X-0.375000X-0.050000X0.375000X-0.050000X0.375000X0.050000X-0.375000X0.050000X0*%
%ADD27RoundRect,0.050000X-0.050000X-0.375000X0.050000X-0.375000X0.050000X0.375000X-0.050000X0.375000X0*%
%ADD28R,1.650000X1.650000*%
%ADD29RoundRect,0.225000X-0.225000X-0.250000X0.225000X-0.250000X0.225000X0.250000X-0.225000X0.250000X0*%
%ADD30RoundRect,0.200000X0.275000X-0.200000X0.275000X0.200000X-0.275000X0.200000X-0.275000X-0.200000X0*%
%ADD31RoundRect,0.400000X-0.800000X-0.400000X0.800000X-0.400000X0.800000X0.400000X-0.800000X0.400000X0*%
%ADD32RoundRect,0.250002X-1.699998X-1.699998X1.699998X-1.699998X1.699998X1.699998X-1.699998X1.699998X0*%
%ADD33C,3.900000*%
%ADD34RoundRect,0.250000X0.475000X-0.250000X0.475000X0.250000X-0.475000X0.250000X-0.475000X-0.250000X0*%
%ADD35C,0.650000*%
%ADD36RoundRect,0.150000X-0.150000X-0.575000X0.150000X-0.575000X0.150000X0.575000X-0.150000X0.575000X0*%
%ADD37RoundRect,0.075000X-0.075000X-0.650000X0.075000X-0.650000X0.075000X0.650000X-0.075000X0.650000X0*%
%ADD38O,1.000000X2.100000*%
%ADD39O,1.000000X1.600000*%
%ADD40RoundRect,0.250000X-0.400000X-0.300000X0.400000X-0.300000X0.400000X0.300000X-0.400000X0.300000X0*%
%ADD41C,0.800000*%
%ADD42RoundRect,0.112500X-0.262500X-0.112500X0.262500X-0.112500X0.262500X0.112500X-0.262500X0.112500X0*%
%ADD43FreePoly0,0.000000*%
%ADD44R,1.700000X1.700000*%
G04 APERTURE END LIST*
D10*
G04 #@! TO.C,Rstat*
X27175000Y36000000D03*
X28825000Y36000000D03*
G04 #@! TD*
G04 #@! TO.C,Rsd1*
X-11825000Y22500000D03*
X-10175000Y22500000D03*
G04 #@! TD*
G04 #@! TO.C,Rsd3*
X-11825000Y17500000D03*
X-10175000Y17500000D03*
G04 #@! TD*
D11*
G04 #@! TO.C,U1*
X7000000Y23950000D03*
X7000000Y23100000D03*
X7000000Y22250000D03*
X7000000Y21400000D03*
X7000000Y20550000D03*
X7000000Y19700000D03*
X7000000Y18850000D03*
X7000000Y18000000D03*
X7000000Y17150000D03*
X7000000Y16300000D03*
X7000000Y15450000D03*
X7000000Y14600000D03*
X7000000Y13750000D03*
X7000000Y12900000D03*
X7000000Y12050000D03*
D12*
X8050000Y11000000D03*
X8900000Y11000000D03*
X9750000Y11000000D03*
X10600000Y11000000D03*
X11450000Y11000000D03*
X12300000Y11000000D03*
X13150000Y11000000D03*
X14000000Y11000000D03*
X14850000Y11000000D03*
X15700000Y11000000D03*
X16550000Y11000000D03*
X17400000Y11000000D03*
X18250000Y11000000D03*
X19100000Y11000000D03*
X19950000Y11000000D03*
D11*
X21000000Y12050000D03*
X21000000Y12900000D03*
X21000000Y13750000D03*
X21000000Y14600000D03*
X21000000Y15450000D03*
X21000000Y16300000D03*
X21000000Y17150000D03*
X21000000Y18000000D03*
X21000000Y18850000D03*
X21000000Y19700000D03*
X21000000Y20550000D03*
X21000000Y21400000D03*
X21000000Y22250000D03*
X21000000Y23100000D03*
X21000000Y23950000D03*
D12*
X19950000Y25000000D03*
X19100000Y25000000D03*
X18250000Y25000000D03*
X17400000Y25000000D03*
X16550000Y25000000D03*
X15700000Y25000000D03*
X14850000Y25000000D03*
X14000000Y25000000D03*
X13150000Y25000000D03*
X12300000Y25000000D03*
X11450000Y25000000D03*
X10600000Y25000000D03*
X9750000Y25000000D03*
X8900000Y25000000D03*
X8050000Y25000000D03*
D13*
X12350000Y19650000D03*
D14*
X12350000Y18000000D03*
X12350000Y16350000D03*
X14000000Y19650000D03*
X14000000Y18000000D03*
X14000000Y16350000D03*
X15650000Y19650000D03*
X15650000Y18000000D03*
X15650000Y16350000D03*
D15*
X7000000Y25000000D03*
X7000000Y11000000D03*
X21000000Y11000000D03*
X21000000Y25000000D03*
G04 #@! TD*
D16*
G04 #@! TO.C,C20*
X-16950000Y-26000000D03*
X-15050000Y-26000000D03*
G04 #@! TD*
D17*
G04 #@! TO.C,U7*
X6862500Y31950000D03*
X6862500Y31000000D03*
X6862500Y30050000D03*
X9137500Y30050000D03*
X9137500Y31000000D03*
X9137500Y31950000D03*
G04 #@! TD*
D18*
G04 #@! TO.C,U6*
X9887500Y-30025000D03*
X9887500Y-30675000D03*
X9887500Y-31325000D03*
X9887500Y-31975000D03*
X14112500Y-31975000D03*
X14112500Y-31325000D03*
X14112500Y-30675000D03*
X14112500Y-30025000D03*
G04 #@! TD*
D19*
G04 #@! TO.C,SW1*
X-29980000Y-9750000D03*
X-22020000Y-9750000D03*
X-29980000Y-14250000D03*
X-22020000Y-14250000D03*
G04 #@! TD*
D20*
G04 #@! TO.C,D2*
X23212500Y33000000D03*
X24787500Y33000000D03*
G04 #@! TD*
D21*
G04 #@! TO.C,J3*
X-24050000Y14800000D03*
X-24050000Y15900000D03*
X-24050000Y17000000D03*
X-24050000Y18100000D03*
X-24050000Y19200000D03*
X-24050000Y20300000D03*
X-24050000Y21400000D03*
X-24050000Y22500000D03*
D22*
X-26650000Y11125000D03*
X-18350000Y11125000D03*
X-26650000Y24875000D03*
X-18350000Y24875000D03*
G04 #@! TD*
D23*
G04 #@! TO.C,D1*
X-29000000Y-18787500D03*
X-29000000Y-17212500D03*
G04 #@! TD*
D24*
G04 #@! TO.C,H3*
X-28500000Y-39500000D03*
G04 #@! TD*
D25*
G04 #@! TO.C,C2*
X24500000Y17225000D03*
X24500000Y18775000D03*
G04 #@! TD*
D26*
G04 #@! TO.C,U2*
X24550000Y-21200000D03*
X24550000Y-21600000D03*
X24550000Y-22000000D03*
X24550000Y-22400000D03*
X24550000Y-22800000D03*
D27*
X25200000Y-23450000D03*
X25600000Y-23450000D03*
X26000000Y-23450000D03*
X26400000Y-23450000D03*
X26800000Y-23450000D03*
D26*
X27450000Y-22800000D03*
X27450000Y-22400000D03*
X27450000Y-22000000D03*
X27450000Y-21600000D03*
X27450000Y-21200000D03*
D27*
X26800000Y-20550000D03*
X26400000Y-20550000D03*
X26000000Y-20550000D03*
X25600000Y-20550000D03*
X25200000Y-20550000D03*
D28*
X26000000Y-22000000D03*
G04 #@! TD*
D29*
G04 #@! TO.C,C13*
X25225000Y-27500000D03*
X26775000Y-27500000D03*
G04 #@! TD*
D10*
G04 #@! TO.C,Rchg*
X27175000Y33000000D03*
X28825000Y33000000D03*
G04 #@! TD*
D25*
G04 #@! TO.C,C15*
X26500000Y-10775000D03*
X26500000Y-9225000D03*
G04 #@! TD*
G04 #@! TO.C,C3*
X24500000Y20725000D03*
X24500000Y22275000D03*
G04 #@! TD*
D29*
G04 #@! TO.C,C17*
X29225000Y-22000000D03*
X30775000Y-22000000D03*
G04 #@! TD*
D25*
G04 #@! TO.C,C5*
X-10500000Y39225000D03*
X-10500000Y40775000D03*
G04 #@! TD*
D29*
G04 #@! TO.C,C19*
X11225000Y-27500000D03*
X12775000Y-27500000D03*
G04 #@! TD*
D30*
G04 #@! TO.C,R3*
X15500000Y39175000D03*
X15500000Y40825000D03*
G04 #@! TD*
D31*
G04 #@! TO.C,SP1*
X-9000000Y-35500000D03*
X1000000Y-35500000D03*
G04 #@! TD*
D29*
G04 #@! TO.C,C9*
X20225000Y-31000000D03*
X21775000Y-31000000D03*
G04 #@! TD*
D30*
G04 #@! TO.C,Rled*
X-29000000Y-22825000D03*
X-29000000Y-21175000D03*
G04 #@! TD*
D32*
G04 #@! TO.C,BT1*
X-23500000Y-34000000D03*
D33*
X-15700000Y-34000000D03*
G04 #@! TD*
D25*
G04 #@! TO.C,C7*
X-2500000Y39225000D03*
X-2500000Y40775000D03*
G04 #@! TD*
D34*
G04 #@! TO.C,C8*
X-20500000Y39050000D03*
X-20500000Y40950000D03*
G04 #@! TD*
D17*
G04 #@! TO.C,U3*
X22862500Y40450000D03*
X22862500Y39500000D03*
X22862500Y38550000D03*
X25137500Y38550000D03*
X25137500Y40450000D03*
G04 #@! TD*
D10*
G04 #@! TO.C,R7*
X15675000Y-27500000D03*
X17325000Y-27500000D03*
G04 #@! TD*
D29*
G04 #@! TO.C,C16*
X19725000Y-26000000D03*
X21275000Y-26000000D03*
G04 #@! TD*
D17*
G04 #@! TO.C,U8*
X24862500Y-30050000D03*
X24862500Y-31000000D03*
X24862500Y-31950000D03*
X27137500Y-31950000D03*
X27137500Y-30050000D03*
G04 #@! TD*
D24*
G04 #@! TO.C,H4*
X28500000Y-39500000D03*
G04 #@! TD*
D29*
G04 #@! TO.C,C14*
X-11775000Y12000000D03*
X-10225000Y12000000D03*
G04 #@! TD*
D10*
G04 #@! TO.C,Rsd0*
X-11825000Y25000000D03*
X-10175000Y25000000D03*
G04 #@! TD*
D29*
G04 #@! TO.C,C12*
X29225000Y-19000000D03*
X30775000Y-19000000D03*
G04 #@! TD*
D10*
G04 #@! TO.C,R5*
X21175000Y-34500000D03*
X22825000Y-34500000D03*
G04 #@! TD*
D17*
G04 #@! TO.C,U4*
X-7137500Y40450000D03*
X-7137500Y39500000D03*
X-7137500Y38550000D03*
X-4862500Y38550000D03*
X-4862500Y40450000D03*
G04 #@! TD*
D10*
G04 #@! TO.C,Ragnd*
X25175000Y-16500000D03*
X26825000Y-16500000D03*
G04 #@! TD*
D30*
G04 #@! TO.C,Rboot*
X24500000Y10175000D03*
X24500000Y11825000D03*
G04 #@! TD*
D23*
G04 #@! TO.C,F1*
X17500000Y39212500D03*
X17500000Y40787500D03*
G04 #@! TD*
D35*
G04 #@! TO.C,J2*
X5110000Y40200000D03*
X10890000Y40200000D03*
D36*
X4750000Y41645000D03*
X5550000Y41645000D03*
D37*
X6750000Y41645000D03*
X7750000Y41645000D03*
X8250000Y41645000D03*
X9250000Y41645000D03*
D36*
X10450000Y41645000D03*
X11250000Y41645000D03*
X11250000Y41645000D03*
X10450000Y41645000D03*
D37*
X9750000Y41645000D03*
X8750000Y41645000D03*
X7250000Y41645000D03*
X6250000Y41645000D03*
D36*
X5550000Y41645000D03*
X4750000Y41645000D03*
D38*
X3680000Y40730000D03*
D39*
X3680000Y36550000D03*
D38*
X12320000Y40730000D03*
D39*
X12320000Y36550000D03*
G04 #@! TD*
D40*
G04 #@! TO.C,Y1*
X14950000Y-24825000D03*
X17050000Y-24825000D03*
X17050000Y-23175000D03*
X14950000Y-23175000D03*
G04 #@! TD*
D25*
G04 #@! TO.C,C6*
X-10500000Y35225000D03*
X-10500000Y36775000D03*
G04 #@! TD*
D29*
G04 #@! TO.C,C10*
X19725000Y-20000000D03*
X21275000Y-20000000D03*
G04 #@! TD*
D34*
G04 #@! TO.C,C1*
X24500000Y24050000D03*
X24500000Y25950000D03*
G04 #@! TD*
D29*
G04 #@! TO.C,C11*
X19725000Y-23000000D03*
X21275000Y-23000000D03*
G04 #@! TD*
D10*
G04 #@! TO.C,Rsd4*
X-11825000Y15000000D03*
X-10175000Y15000000D03*
G04 #@! TD*
D17*
G04 #@! TO.C,U5*
X-17137500Y40450000D03*
X-17137500Y39500000D03*
X-17137500Y38550000D03*
X-14862500Y38550000D03*
X-14862500Y40450000D03*
G04 #@! TD*
D25*
G04 #@! TO.C,C4*
X20500000Y39225000D03*
X20500000Y40775000D03*
G04 #@! TD*
D10*
G04 #@! TO.C,R4*
X23175000Y36000000D03*
X24825000Y36000000D03*
G04 #@! TD*
G04 #@! TO.C,Rsd2*
X-11825000Y20000000D03*
X-10175000Y20000000D03*
G04 #@! TD*
D29*
G04 #@! TO.C,C18*
X29225000Y-25000000D03*
X30775000Y-25000000D03*
G04 #@! TD*
D24*
G04 #@! TO.C,H1*
X-28500000Y39500000D03*
G04 #@! TD*
D30*
G04 #@! TO.C,R1*
X24500000Y13675000D03*
X24500000Y15325000D03*
G04 #@! TD*
G04 #@! TO.C,R2*
X500000Y39175000D03*
X500000Y40825000D03*
G04 #@! TD*
D24*
G04 #@! TO.C,H2*
X28500000Y39500000D03*
G04 #@! TD*
D41*
G04 #@! TO.C,MK1*
X30000000Y-9320000D03*
D42*
X29150000Y-11500000D03*
X29150000Y-10800000D03*
X30850000Y-11500000D03*
X30850000Y-10800000D03*
D43*
X30000000Y-10130000D03*
G04 #@! TD*
D44*
G04 #@! TO.C,J1*
X1500000Y30000000D03*
D24*
X1500000Y27460000D03*
X1500000Y24920000D03*
X1500000Y22380000D03*
G04 #@! TD*
D10*
G04 #@! TO.C,R6*
X26175000Y-34500000D03*
X27825000Y-34500000D03*
G04 #@! TD*
M02*
