%TF.GenerationSoftware,KiCad,Pcbnew,10.0.6-10.0.6~ubuntu24.04.1*%
%TF.CreationDate,2026-09-18T16:39:39+00:00*%
%TF.ProjectId,recorder,7265636f-7264-4657-922e-6b696361645f,rev?*%
%TF.SameCoordinates,Original*%
%TF.FileFunction,Other,ECO1*%
%FSLAX46Y46*%
G04 Gerber Fmt 4.6, Leading zero omitted, Abs format (unit mm)*
G04 Created by KiCad (PCBNEW 10.0.6-10.0.6~ubuntu24.04.1) date 2026-09-18 16:39:39*
%MOMM*%
%LPD*%
G01*
G04 APERTURE LIST*
%ADD10C,0.150000*%
G04 APERTURE END LIST*
D10*
X28000000Y0D02*
X27998934Y-244343D01*
X27998934Y-244343D02*
X27995735Y-488667D01*
X27995735Y-488667D02*
X27990405Y-732955D01*
X27990405Y-732955D02*
X27982943Y-977186D01*
X27982943Y-977186D02*
X27973350Y-1221343D01*
X27973350Y-1221343D02*
X27961627Y-1465407D01*
X27961627Y-1465407D02*
X27951398Y-1649045D01*
X27909647Y-2247579D02*
X27888971Y-2491048D01*
X27888971Y-2491048D02*
X27866170Y-2734327D01*
X27866170Y-2734327D02*
X27841248Y-2977398D01*
X27841248Y-2977398D02*
X27814206Y-3220243D01*
X27814206Y-3220243D02*
X27785045Y-3462842D01*
X27785045Y-3462842D02*
X27753768Y-3705177D01*
X27753768Y-3705177D02*
X27728832Y-3887402D01*
X27639171Y-4480653D02*
X27599018Y-4721677D01*
X27599018Y-4721677D02*
X27556763Y-4962341D01*
X27556763Y-4962341D02*
X27512409Y-5202627D01*
X27512409Y-5202627D02*
X27465961Y-5442517D01*
X27465961Y-5442517D02*
X27417421Y-5681992D01*
X27417421Y-5681992D02*
X27366793Y-5921035D01*
X27366793Y-5921035D02*
X27327309Y-6100670D01*
X27190317Y-6684810D02*
X27130946Y-6921833D01*
X27130946Y-6921833D02*
X27069509Y-7158328D01*
X27069509Y-7158328D02*
X27006011Y-7394279D01*
X27006011Y-7394279D02*
X26940457Y-7629666D01*
X26940457Y-7629666D02*
X26872850Y-7864472D01*
X26872850Y-7864472D02*
X26803197Y-8098680D01*
X26803197Y-8098680D02*
X26749422Y-8274566D01*
X26565982Y-8845824D02*
X26487777Y-9077316D01*
X26487777Y-9077316D02*
X26407555Y-9308117D01*
X26407555Y-9308117D02*
X26325322Y-9538209D01*
X26325322Y-9538209D02*
X26241084Y-9767575D01*
X26241084Y-9767575D02*
X26154848Y-9996197D01*
X26154848Y-9996197D02*
X26066620Y-10224057D01*
X26066620Y-10224057D02*
X25998899Y-10395059D01*
X25770196Y-10949749D02*
X25673661Y-11174217D01*
X25673661Y-11174217D02*
X25575171Y-11397833D01*
X25575171Y-11397833D02*
X25474734Y-11620582D01*
X25474734Y-11620582D02*
X25372357Y-11842446D01*
X25372357Y-11842446D02*
X25268047Y-12063408D01*
X25268047Y-12063408D02*
X25161813Y-12283451D01*
X25161813Y-12283451D02*
X25080585Y-12448465D01*
X24808094Y-12983007D02*
X24693853Y-13199001D01*
X24693853Y-13199001D02*
X24577731Y-13413990D01*
X24577731Y-13413990D02*
X24459737Y-13627958D01*
X24459737Y-13627958D02*
X24339881Y-13840888D01*
X24339881Y-13840888D02*
X24218171Y-14052764D01*
X24218171Y-14052764D02*
X24094617Y-14263569D01*
X24094617Y-14263569D02*
X24000405Y-14421531D01*
X23685886Y-14932475D02*
X23554675Y-15138602D01*
X23554675Y-15138602D02*
X23421671Y-15343576D01*
X23421671Y-15343576D02*
X23286883Y-15547382D01*
X23286883Y-15547382D02*
X23150321Y-15750004D01*
X23150321Y-15750004D02*
X23011997Y-15951426D01*
X23011997Y-15951426D02*
X22871920Y-16151634D01*
X22871920Y-16151634D02*
X22765332Y-16301523D01*
X22410814Y-16785572D02*
X22263481Y-16980501D01*
X22263481Y-16980501D02*
X22114452Y-17174138D01*
X22114452Y-17174138D02*
X21963739Y-17366466D01*
X21963739Y-17366466D02*
X21811354Y-17557472D01*
X21811354Y-17557472D02*
X21657308Y-17747142D01*
X21657308Y-17747142D02*
X21501612Y-17935459D01*
X21501612Y-17935459D02*
X21383336Y-18076309D01*
X20991107Y-18530338D02*
X20828602Y-18712812D01*
X20828602Y-18712812D02*
X20664511Y-18893861D01*
X20664511Y-18893861D02*
X20498846Y-19073471D01*
X20498846Y-19073471D02*
X20331620Y-19251629D01*
X20331620Y-19251629D02*
X20162846Y-19428320D01*
X20162846Y-19428320D02*
X19992537Y-19603532D01*
X19992537Y-19603532D02*
X19863337Y-19734433D01*
X19435928Y-20155513D02*
X19259300Y-20324354D01*
X19259300Y-20324354D02*
X19081206Y-20491647D01*
X19081206Y-20491647D02*
X18901658Y-20657379D01*
X18901658Y-20657379D02*
X18720671Y-20821539D01*
X18720671Y-20821539D02*
X18538258Y-20984113D01*
X18538258Y-20984113D02*
X18354434Y-21145088D01*
X18354434Y-21145088D02*
X18215143Y-21265196D01*
X17755313Y-21650609D02*
X17565702Y-21804727D01*
X17565702Y-21804727D02*
X17374754Y-21957184D01*
X17374754Y-21957184D02*
X17182482Y-22107969D01*
X17182482Y-22107969D02*
X16988902Y-22257071D01*
X16988902Y-22257071D02*
X16794028Y-22404478D01*
X16794028Y-22404478D02*
X16597875Y-22550178D01*
X16597875Y-22550178D02*
X16449393Y-22658717D01*
X15960109Y-23005975D02*
X15758739Y-23144376D01*
X15758739Y-23144376D02*
X15556169Y-23281014D01*
X15556169Y-23281014D02*
X15352414Y-23415879D01*
X15352414Y-23415879D02*
X15147490Y-23548961D01*
X15147490Y-23548961D02*
X14941412Y-23680249D01*
X14941412Y-23680249D02*
X14734197Y-23809734D01*
X14734197Y-23809734D02*
X14577481Y-23906004D01*
X14061902Y-24212866D02*
X13850072Y-24334656D01*
X13850072Y-24334656D02*
X13637188Y-24454593D01*
X13637188Y-24454593D02*
X13423265Y-24572667D01*
X13423265Y-24572667D02*
X13208319Y-24688870D01*
X13208319Y-24688870D02*
X12992368Y-24803193D01*
X12992368Y-24803193D02*
X12775427Y-24915627D01*
X12775427Y-24915627D02*
X12611490Y-24999006D01*
X12072942Y-25263493D02*
X11852020Y-25367886D01*
X11852020Y-25367886D02*
X11630195Y-25470347D01*
X11630195Y-25470347D02*
X11407484Y-25570868D01*
X11407484Y-25570868D02*
X11183905Y-25669442D01*
X11183905Y-25669442D02*
X10959474Y-25766062D01*
X10959474Y-25766062D02*
X10734208Y-25860719D01*
X10734208Y-25860719D02*
X10564106Y-25930670D01*
X10006066Y-26151073D02*
X9777477Y-26237396D01*
X9777477Y-26237396D02*
X9548143Y-26321720D01*
X9548143Y-26321720D02*
X9318082Y-26404040D01*
X9318082Y-26404040D02*
X9087312Y-26484349D01*
X9087312Y-26484349D02*
X8855849Y-26562642D01*
X8855849Y-26562642D02*
X8623712Y-26638911D01*
X8623712Y-26638911D02*
X8448544Y-26694983D01*
X7874613Y-26869880D02*
X7639832Y-26937575D01*
X7639832Y-26937575D02*
X7404470Y-27003219D01*
X7404470Y-27003219D02*
X7168543Y-27066806D01*
X7168543Y-27066806D02*
X6932071Y-27128332D01*
X6932071Y-27128332D02*
X6695070Y-27187792D01*
X6695070Y-27187792D02*
X6457560Y-27245181D01*
X6457560Y-27245181D02*
X6278457Y-27287011D01*
X5692339Y-27415275D02*
X5452882Y-27463905D01*
X5452882Y-27463905D02*
X5213009Y-27510444D01*
X5213009Y-27510444D02*
X4972740Y-27554888D01*
X4972740Y-27554888D02*
X4732092Y-27597234D01*
X4732092Y-27597234D02*
X4491083Y-27637478D01*
X4491083Y-27637478D02*
X4249733Y-27675617D01*
X4249733Y-27675617D02*
X4067850Y-27702935D01*
X3473327Y-27783736D02*
X3230739Y-27812988D01*
X3230739Y-27812988D02*
X2987905Y-27840123D01*
X2987905Y-27840123D02*
X2744843Y-27865137D01*
X2744843Y-27865137D02*
X2501573Y-27888028D01*
X2501573Y-27888028D02*
X2258112Y-27908797D01*
X2258112Y-27908797D02*
X2014479Y-27927439D01*
X2014479Y-27927439D02*
X1830990Y-27940069D01*
X1231899Y-27972887D02*
X987746Y-27982572D01*
X987746Y-27982572D02*
X743518Y-27990127D01*
X743518Y-27990127D02*
X499232Y-27995549D01*
X499232Y-27995549D02*
X254909Y-27998840D01*
X254909Y-27998840D02*
X10567Y-27999998D01*
X10567Y-27999998D02*
X-233777Y-27999024D01*
X-233777Y-27999024D02*
X-417687Y-27996884D01*
X-1017479Y-27981507D02*
X-1261622Y-27971563D01*
X-1261622Y-27971563D02*
X-1505668Y-27959488D01*
X-1505668Y-27959488D02*
X-1749601Y-27945284D01*
X-1749601Y-27945284D02*
X-1993399Y-27928952D01*
X-1993399Y-27928952D02*
X-2237047Y-27910493D01*
X-2237047Y-27910493D02*
X-2480523Y-27889909D01*
X-2480523Y-27889909D02*
X-2663669Y-27873013D01*
X-3260290Y-27809540D02*
X-3502847Y-27780030D01*
X-3502847Y-27780030D02*
X-3745137Y-27748404D01*
X-3745137Y-27748404D02*
X-3987142Y-27714666D01*
X-3987142Y-27714666D02*
X-4228843Y-27678817D01*
X-4228843Y-27678817D02*
X-4470222Y-27640859D01*
X-4470222Y-27640859D02*
X-4711261Y-27600797D01*
X-4711261Y-27600797D02*
X-4892459Y-27569255D01*
X-5482061Y-27458096D02*
X-5721466Y-27409211D01*
X-5721466Y-27409211D02*
X-5960436Y-27358238D01*
X-5960436Y-27358238D02*
X-6198951Y-27305183D01*
X-6198951Y-27305183D02*
X-6436995Y-27250048D01*
X-6436995Y-27250048D02*
X-6674548Y-27192837D01*
X-6674548Y-27192837D02*
X-6911593Y-27133556D01*
X-6911593Y-27133556D02*
X-7089675Y-27087571D01*
X-7668451Y-26929442D02*
X-7903160Y-26861498D01*
X-7903160Y-26861498D02*
X-8137267Y-26791508D01*
X-8137267Y-26791508D02*
X-8370754Y-26719478D01*
X-8370754Y-26719478D02*
X-8603603Y-26645413D01*
X-8603603Y-26645413D02*
X-8835798Y-26569318D01*
X-8835798Y-26569318D02*
X-9067320Y-26491201D01*
X-9067320Y-26491201D02*
X-9241135Y-26431069D01*
X-9805350Y-26226992D02*
X-10033848Y-26140426D01*
X-10033848Y-26140426D02*
X-10261581Y-26051870D01*
X-10261581Y-26051870D02*
X-10488533Y-25961330D01*
X-10488533Y-25961330D02*
X-10714686Y-25868813D01*
X-10714686Y-25868813D02*
X-10940023Y-25774326D01*
X-10940023Y-25774326D02*
X-11164527Y-25677876D01*
X-11164527Y-25677876D02*
X-11332955Y-25603986D01*
X-11878968Y-25355278D02*
X-12099780Y-25250650D01*
X-12099780Y-25250650D02*
X-12319670Y-25144099D01*
X-12319670Y-25144099D02*
X-12538621Y-25035634D01*
X-12538621Y-25035634D02*
X-12756618Y-24925262D01*
X-12756618Y-24925262D02*
X-12973644Y-24812992D01*
X-12973644Y-24812992D02*
X-13189681Y-24698832D01*
X-13189681Y-24698832D02*
X-13351635Y-24611661D01*
X-13875922Y-24319926D02*
X-14087622Y-24197911D01*
X-14087622Y-24197911D02*
X-14298250Y-24074054D01*
X-14298250Y-24074054D02*
X-14507788Y-23948363D01*
X-14507788Y-23948363D02*
X-14716222Y-23820848D01*
X-14716222Y-23820848D02*
X-14923535Y-23691520D01*
X-14923535Y-23691520D02*
X-15129712Y-23560387D01*
X-15129712Y-23560387D02*
X-15284145Y-23460497D01*
X-15783323Y-23127618D02*
X-15984546Y-22989004D01*
X-15984546Y-22989004D02*
X-16184551Y-22848639D01*
X-16184551Y-22848639D02*
X-16383325Y-22706534D01*
X-16383325Y-22706534D02*
X-16580850Y-22562699D01*
X-16580850Y-22562699D02*
X-16777113Y-22417147D01*
X-16777113Y-22417147D02*
X-16972098Y-22269887D01*
X-16972098Y-22269887D02*
X-17118015Y-22157923D01*
X-17588861Y-21786050D02*
X-17778308Y-21631730D01*
X-17778308Y-21631730D02*
X-17966402Y-21475763D01*
X-17966402Y-21475763D02*
X-18153126Y-21318161D01*
X-18153126Y-21318161D02*
X-18338469Y-21158936D01*
X-18338469Y-21158936D02*
X-18522415Y-20998099D01*
X-18522415Y-20998099D02*
X-18704950Y-20835663D01*
X-18704950Y-20835663D02*
X-18841409Y-20712347D01*
X-19280885Y-20303878D02*
X-19457334Y-20134850D01*
X-19457334Y-20134850D02*
X-19632300Y-19964288D01*
X-19632300Y-19964288D02*
X-19805772Y-19792206D01*
X-19805772Y-19792206D02*
X-19977735Y-19618616D01*
X-19977735Y-19618616D02*
X-20148177Y-19443533D01*
X-20148177Y-19443533D02*
X-20317084Y-19266969D01*
X-20317084Y-19266969D02*
X-20443204Y-19133097D01*
X-20848474Y-18690670D02*
X-21010785Y-18508023D01*
X-21010785Y-18508023D02*
X-21171496Y-18323967D01*
X-21171496Y-18323967D02*
X-21330594Y-18138515D01*
X-21330594Y-18138515D02*
X-21488069Y-17951683D01*
X-21488069Y-17951683D02*
X-21643906Y-17763483D01*
X-21643906Y-17763483D02*
X-21798096Y-17573930D01*
X-21798096Y-17573930D02*
X-21913063Y-17430367D01*
X-22281511Y-16956835D02*
X-22428637Y-16761749D01*
X-22428637Y-16761749D02*
X-22574055Y-16565387D01*
X-22574055Y-16565387D02*
X-22717754Y-16367763D01*
X-22717754Y-16367763D02*
X-22859723Y-16168892D01*
X-22859723Y-16168892D02*
X-22999951Y-15968790D01*
X-22999951Y-15968790D02*
X-23138427Y-15767472D01*
X-23138427Y-15767472D02*
X-23241499Y-15615144D01*
X-23570748Y-15113565D02*
X-23701739Y-14907299D01*
X-23701739Y-14907299D02*
X-23830926Y-14699897D01*
X-23830926Y-14699897D02*
X-23958298Y-14491376D01*
X-23958298Y-14491376D02*
X-24083845Y-14281751D01*
X-24083845Y-14281751D02*
X-24207558Y-14071039D01*
X-24207558Y-14071039D02*
X-24329428Y-13859255D01*
X-24329428Y-13859255D02*
X-24419939Y-13699144D01*
X-24707864Y-13172755D02*
X-24821875Y-12956639D01*
X-24821875Y-12956639D02*
X-24933997Y-12739537D01*
X-24933997Y-12739537D02*
X-25044219Y-12521465D01*
X-25044219Y-12521465D02*
X-25152535Y-12302439D01*
X-25152535Y-12302439D02*
X-25258935Y-12082476D01*
X-25258935Y-12082476D02*
X-25363411Y-11861593D01*
X-25363411Y-11861593D02*
X-25440779Y-11694733D01*
X-25685520Y-11146931D02*
X-25781816Y-10922361D01*
X-25781816Y-10922361D02*
X-25876149Y-10696959D01*
X-25876149Y-10696959D02*
X-25968511Y-10470742D01*
X-25968511Y-10470742D02*
X-26058895Y-10243728D01*
X-26058895Y-10243728D02*
X-26147295Y-10015935D01*
X-26147295Y-10015935D02*
X-26233704Y-9787378D01*
X-26233704Y-9787378D02*
X-26297428Y-9614847D01*
X-26497407Y-9049166D02*
X-26575366Y-8817591D01*
X-26575366Y-8817591D02*
X-26651301Y-8585344D01*
X-26651301Y-8585344D02*
X-26725207Y-8352444D01*
X-26725207Y-8352444D02*
X-26797077Y-8118908D01*
X-26797077Y-8118908D02*
X-26866907Y-7884753D01*
X-26866907Y-7884753D02*
X-26934690Y-7649997D01*
X-26934690Y-7649997D02*
X-26984359Y-7472908D01*
X-27138286Y-6893000D02*
X-27197404Y-6655915D01*
X-27197404Y-6655915D02*
X-27254452Y-6418322D01*
X-27254452Y-6418322D02*
X-27309424Y-6180241D01*
X-27309424Y-6180241D02*
X-27362316Y-5941689D01*
X-27362316Y-5941689D02*
X-27413124Y-5702684D01*
X-27413124Y-5702684D02*
X-27461845Y-5463246D01*
X-27461845Y-5463246D02*
X-27497139Y-5282741D01*
X-27604019Y-4692348D02*
X-27643916Y-4451282D01*
X-27643916Y-4451282D02*
X-27681708Y-4209877D01*
X-27681708Y-4209877D02*
X-27717391Y-3968151D01*
X-27717391Y-3968151D02*
X-27750964Y-3726124D01*
X-27750964Y-3726124D02*
X-27782423Y-3483812D01*
X-27782423Y-3483812D02*
X-27811767Y-3241235D01*
X-27811767Y-3241235D02*
X-27832458Y-3058479D01*
X-27891602Y-2461413D02*
X-27912019Y-2217922D01*
X-27912019Y-2217922D02*
X-27930311Y-1974263D01*
X-27930311Y-1974263D02*
X-27946476Y-1730453D01*
X-27946476Y-1730453D02*
X-27960513Y-1486511D01*
X-27960513Y-1486511D02*
X-27972420Y-1242456D01*
X-27972420Y-1242456D02*
X-27982198Y-998306D01*
X-27982198Y-998306D02*
X-27988151Y-814479D01*
X-27999178Y-214592D02*
X-27999984Y29752D01*
X-27999984Y29752D02*
X-27998658Y274094D01*
X-27998658Y274094D02*
X-27995200Y518414D01*
X-27995200Y518414D02*
X-27989610Y762696D01*
X-27989610Y762696D02*
X-27981889Y1006919D01*
X-27981889Y1006919D02*
X-27972037Y1251066D01*
X-27972037Y1251066D02*
X-27963215Y1434777D01*
X-27926053Y2033614D02*
X-27907243Y2277234D01*
X-27907243Y2277234D02*
X-27886308Y2520681D01*
X-27886308Y2520681D02*
X-27863249Y2763936D01*
X-27863249Y2763936D02*
X-27838069Y3006980D01*
X-27838069Y3006980D02*
X-27810768Y3249795D01*
X-27810768Y3249795D02*
X-27781350Y3492363D01*
X-27781350Y3492363D02*
X-27757810Y3674774D01*
X-27672699Y4268695D02*
X-27634394Y4510019D01*
X-27634394Y4510019D02*
X-27593985Y4751000D01*
X-27593985Y4751000D02*
X-27551474Y4991619D01*
X-27551474Y4991619D02*
X-27506866Y5231858D01*
X-27506866Y5231858D02*
X-27460162Y5471698D01*
X-27460162Y5471698D02*
X-27411368Y5711122D01*
X-27411368Y5711122D02*
X-27373262Y5891054D01*
X-27240750Y6476227D02*
X-27183198Y6713698D01*
X-27183198Y6713698D02*
X-27123576Y6950657D01*
X-27123576Y6950657D02*
X-27061888Y7187087D01*
X-27061888Y7187087D02*
X-26998139Y7422970D01*
X-26998139Y7422970D02*
X-26932334Y7658288D01*
X-26932334Y7658288D02*
X-26864478Y7893022D01*
X-26864478Y7893022D02*
X-26812052Y8069315D01*
X-26632996Y8641962D02*
X-26556568Y8874047D01*
X-26556568Y8874047D02*
X-26478117Y9105456D01*
X-26478117Y9105456D02*
X-26397650Y9336172D01*
X-26397650Y9336172D02*
X-26315172Y9566176D01*
X-26315172Y9566176D02*
X-26230690Y9795452D01*
X-26230690Y9795452D02*
X-26144211Y10023982D01*
X-26144211Y10023982D02*
X-26077803Y10195498D01*
X-25853358Y10751925D02*
X-25758546Y10977126D01*
X-25758546Y10977126D02*
X-25661773Y11201490D01*
X-25661773Y11201490D02*
X-25563046Y11425002D01*
X-25563046Y11425002D02*
X-25462372Y11647644D01*
X-25462372Y11647644D02*
X-25359759Y11869399D01*
X-25359759Y11869399D02*
X-25255215Y12090250D01*
X-25255215Y12090250D02*
X-25175253Y12255881D01*
X-24906867Y12792496D02*
X-24794285Y13009360D01*
X-24794285Y13009360D02*
X-24679814Y13225233D01*
X-24679814Y13225233D02*
X-24563464Y13440098D01*
X-24563464Y13440098D02*
X-24445243Y13653940D01*
X-24445243Y13653940D02*
X-24325161Y13866743D01*
X-24325161Y13866743D02*
X-24203226Y14078489D01*
X-24203226Y14078489D02*
X-24110227Y14237168D01*
X-23799633Y14750508D02*
X-23670006Y14957634D01*
X-23670006Y14957634D02*
X-23538576Y15163622D01*
X-23538576Y15163622D02*
X-23405354Y15368455D01*
X-23405354Y15368455D02*
X-23270350Y15572117D01*
X-23270350Y15572117D02*
X-23133573Y15774594D01*
X-23133573Y15774594D02*
X-22995034Y15975869D01*
X-22995034Y15975869D02*
X-22889599Y16126571D01*
X-22538801Y16613322D02*
X-22392966Y16809375D01*
X-22392966Y16809375D02*
X-22245425Y17004148D01*
X-22245425Y17004148D02*
X-22096191Y17197626D01*
X-22096191Y17197626D02*
X-21945274Y17389794D01*
X-21945274Y17389794D02*
X-21792686Y17580639D01*
X-21792686Y17580639D02*
X-21638438Y17770144D01*
X-21638438Y17770144D02*
X-21521245Y17911896D01*
X-21132507Y18368918D02*
X-20971406Y18552632D01*
X-20971406Y18552632D02*
X-20808707Y18734933D01*
X-20808707Y18734933D02*
X-20644424Y18915808D01*
X-20644424Y18915808D02*
X-20478568Y19095242D01*
X-20478568Y19095242D02*
X-20311153Y19273222D01*
X-20311153Y19273222D02*
X-20142191Y19449734D01*
X-20142191Y19449734D02*
X-20013998Y19581621D01*
X-19589829Y20005964D02*
X-19414501Y20176154D01*
X-19414501Y20176154D02*
X-19237693Y20344807D01*
X-19237693Y20344807D02*
X-19059421Y20511910D01*
X-19059421Y20511910D02*
X-18879698Y20677452D01*
X-18879698Y20677452D02*
X-18698536Y20841419D01*
X-18698536Y20841419D02*
X-18515951Y21003799D01*
X-18515951Y21003799D02*
X-18377585Y21124971D01*
X-17920722Y21513896D02*
X-17732298Y21669462D01*
X-17732298Y21669462D02*
X-17542524Y21823379D01*
X-17542524Y21823379D02*
X-17351413Y21975633D01*
X-17351413Y21975633D02*
X-17158981Y22126214D01*
X-17158981Y22126214D02*
X-16965243Y22275110D01*
X-16965243Y22275110D02*
X-16770212Y22422310D01*
X-16770212Y22422310D02*
X-16622566Y22531984D01*
X-16135959Y22882981D02*
X-15935655Y23022921D01*
X-15935655Y23022921D02*
X-15734138Y23161108D01*
X-15734138Y23161108D02*
X-15531423Y23297530D01*
X-15531423Y23297530D02*
X-15327525Y23432179D01*
X-15327525Y23432179D02*
X-15122459Y23565043D01*
X-15122459Y23565043D02*
X-14916242Y23696112D01*
X-14916242Y23696112D02*
X-14760269Y23793580D01*
X-14247057Y24104385D02*
X-14036167Y24227795D01*
X-14036167Y24227795D02*
X-13824207Y24349359D01*
X-13824207Y24349359D02*
X-13611196Y24469069D01*
X-13611196Y24469069D02*
X-13397147Y24586916D01*
X-13397147Y24586916D02*
X-13182078Y24702891D01*
X-13182078Y24702891D02*
X-12966006Y24816984D01*
X-12966006Y24816984D02*
X-12802712Y24901618D01*
X-12266207Y25170224D02*
X-12046092Y25276307D01*
X-12046092Y25276307D02*
X-11825058Y25380465D01*
X-11825058Y25380465D02*
X-11603125Y25482690D01*
X-11603125Y25482690D02*
X-11380307Y25582975D01*
X-11380307Y25582975D02*
X-11156623Y25681312D01*
X-11156623Y25681312D02*
X-10932089Y25777692D01*
X-10932089Y25777692D02*
X-10762529Y25848945D01*
X-10206194Y26073619D02*
X-9978274Y26161691D01*
X-9978274Y26161691D02*
X-9749593Y26247770D01*
X-9749593Y26247770D02*
X-9520169Y26331851D01*
X-9520169Y26331851D02*
X-9290021Y26413926D01*
X-9290021Y26413926D02*
X-9059165Y26493990D01*
X-9059165Y26493990D02*
X-8827619Y26572037D01*
X-8827619Y26572037D02*
X-8652887Y26629449D01*
X-8080313Y26808740D02*
X-7846058Y26878232D01*
X-7846058Y26878232D02*
X-7611205Y26945678D01*
X-7611205Y26945678D02*
X-7375773Y27011071D01*
X-7375773Y27011071D02*
X-7139779Y27074408D01*
X-7139779Y27074408D02*
X-6903241Y27135682D01*
X-6903241Y27135682D02*
X-6666178Y27194891D01*
X-6666178Y27194891D02*
X-6487401Y27238092D01*
X-5902282Y27370843D02*
X-5663205Y27421308D01*
X-5663205Y27421308D02*
X-5423696Y27469684D01*
X-5423696Y27469684D02*
X-5183775Y27515968D01*
X-5183775Y27515968D02*
X-4943458Y27560156D01*
X-4943458Y27560156D02*
X-4702765Y27602246D01*
X-4702765Y27602246D02*
X-4461714Y27642234D01*
X-4461714Y27642234D02*
X-4280046Y27670945D01*
X-3686160Y27756301D02*
X-3443803Y27787411D01*
X-3443803Y27787411D02*
X-3201184Y27816406D01*
X-3201184Y27816406D02*
X-2958321Y27843282D01*
X-2958321Y27843282D02*
X-2715233Y27868037D01*
X-2715233Y27868037D02*
X-2471939Y27890671D01*
X-2471939Y27890671D02*
X-2228456Y27911180D01*
X-2228456Y27911180D02*
X-2045069Y27925216D01*
X-1446248Y27962624D02*
X-1202176Y27974180D01*
X-1202176Y27974180D02*
X-958012Y27983606D01*
X-958012Y27983606D02*
X-713776Y27990901D01*
X-713776Y27990901D02*
X-469485Y27996064D01*
X-469485Y27996064D02*
X-225159Y27999095D01*
X-225159Y27999095D02*
X19185Y27999993D01*
X19185Y27999993D02*
X203107Y27999263D01*
X802998Y27988483D02*
X1047210Y27980410D01*
X1047210Y27980410D02*
X1291343Y27970206D01*
X1291343Y27970206D02*
X1535376Y27957872D01*
X1535376Y27957872D02*
X1779293Y27943409D01*
X1779293Y27943409D02*
X2023075Y27926818D01*
X2023075Y27926818D02*
X2266702Y27908100D01*
X2266702Y27908100D02*
X2449972Y27892609D01*
X3047062Y27833710D02*
X3289838Y27806060D01*
X3289838Y27806060D02*
X3532363Y27776292D01*
X3532363Y27776292D02*
X3774620Y27744409D01*
X3774620Y27744409D02*
X4016588Y27710414D01*
X4016588Y27710414D02*
X4258251Y27674307D01*
X4258251Y27674307D02*
X4499590Y27636094D01*
X4499590Y27636094D02*
X4681025Y27605942D01*
X5271461Y27499304D02*
X5511234Y27452255D01*
X5511234Y27452255D02*
X5750587Y27403116D01*
X5750587Y27403116D02*
X5989502Y27351890D01*
X5989502Y27351890D02*
X6227961Y27298581D01*
X6227961Y27298581D02*
X6465946Y27243193D01*
X6465946Y27243193D02*
X6703439Y27185730D01*
X6703439Y27185730D02*
X6881867Y27141111D01*
X7461838Y26987422D02*
X7697061Y26921279D01*
X7697061Y26921279D02*
X7931697Y26853085D01*
X7931697Y26853085D02*
X8165730Y26782846D01*
X8165730Y26782846D02*
X8399140Y26710568D01*
X8399140Y26710568D02*
X8631911Y26636256D01*
X8631911Y26636256D02*
X8864025Y26559915D01*
X8864025Y26559915D02*
X9038296Y26501117D01*
X9604059Y26301370D02*
X9833213Y26216558D01*
X9833213Y26216558D02*
X10061618Y26129750D01*
X10061618Y26129750D02*
X10289257Y26040952D01*
X10289257Y26040952D02*
X10516113Y25950171D01*
X10516113Y25950171D02*
X10742167Y25857414D01*
X10742167Y25857414D02*
X10967404Y25762687D01*
X10967404Y25762687D02*
X11136393Y25690090D01*
X11684296Y25445574D02*
X11905903Y25342641D01*
X11905903Y25342641D02*
X12126603Y25237779D01*
X12126603Y25237779D02*
X12346380Y25130995D01*
X12346380Y25130995D02*
X12565216Y25022297D01*
X12565216Y25022297D02*
X12783096Y24911693D01*
X12783096Y24911693D02*
X13000002Y24799193D01*
X13000002Y24799193D02*
X13162619Y24713265D01*
X13689126Y24425557D02*
X13901755Y24305168D01*
X13901755Y24305168D02*
X14113326Y24182929D01*
X14113326Y24182929D02*
X14323822Y24058847D01*
X14323822Y24058847D02*
X14533227Y23932934D01*
X14533227Y23932934D02*
X14741525Y23805198D01*
X14741525Y23805198D02*
X14948701Y23675649D01*
X14948701Y23675649D02*
X15103895Y23576945D01*
X15605609Y23247902D02*
X15807888Y23110834D01*
X15807888Y23110834D02*
X16008964Y22972006D01*
X16008964Y22972006D02*
X16208820Y22831429D01*
X16208820Y22831429D02*
X16407443Y22689113D01*
X16407443Y22689113D02*
X16604815Y22545068D01*
X16604815Y22545068D02*
X16800923Y22399308D01*
X16800923Y22399308D02*
X16947694Y22288465D01*
X17421376Y21920211D02*
X17612001Y21767348D01*
X17612001Y21767348D02*
X17801284Y21612827D01*
X17801284Y21612827D02*
X17989211Y21456661D01*
X17989211Y21456661D02*
X18175768Y21298860D01*
X18175768Y21298860D02*
X18360941Y21139438D01*
X18360941Y21139438D02*
X18544716Y20978406D01*
X18544716Y20978406D02*
X18682116Y20856139D01*
X19124710Y20451051D02*
X19302448Y20283379D01*
X19302448Y20283379D02*
X19478717Y20114164D01*
X19478717Y20114164D02*
X19653502Y19943416D01*
X19653502Y19943416D02*
X19826791Y19771150D01*
X19826791Y19771150D02*
X19998570Y19597378D01*
X19998570Y19597378D02*
X20168825Y19422113D01*
X20168825Y19422113D02*
X20295967Y19289212D01*
X20704616Y18849904D02*
X20868322Y18668506D01*
X20868322Y18668506D02*
X21030439Y18485687D01*
X21030439Y18485687D02*
X21190954Y18301460D01*
X21190954Y18301460D02*
X21349856Y18115840D01*
X21349856Y18115840D02*
X21507131Y17928840D01*
X21507131Y17928840D02*
X21662769Y17740475D01*
X21662769Y17740475D02*
X21778833Y17597797D01*
X22150899Y17127103D02*
X22299516Y16933150D01*
X22299516Y16933150D02*
X22446435Y16737908D01*
X22446435Y16737908D02*
X22591644Y16541391D01*
X22591644Y16541391D02*
X22735133Y16343614D01*
X22735133Y16343614D02*
X22876890Y16144593D01*
X22876890Y16144593D02*
X23016906Y15944342D01*
X23016906Y15944342D02*
X23121142Y15792809D01*
X23454225Y15293768D02*
X23586794Y15088511D01*
X23586794Y15088511D02*
X23717566Y14882106D01*
X23717566Y14882106D02*
X23846532Y14674567D01*
X23846532Y14674567D02*
X23973682Y14465910D01*
X23973682Y14465910D02*
X24099007Y14256152D01*
X24099007Y14256152D02*
X24222496Y14045309D01*
X24222496Y14045309D02*
X24314232Y13885897D01*
X24606182Y13361729D02*
X24721847Y13146494D01*
X24721847Y13146494D02*
X24835629Y12930257D01*
X24835629Y12930257D02*
X24947519Y12713036D01*
X24947519Y12713036D02*
X25057510Y12494846D01*
X25057510Y12494846D02*
X25165593Y12275705D01*
X25165593Y12275705D02*
X25271759Y12055630D01*
X25271759Y12055630D02*
X25350403Y11889368D01*
X25599335Y11343457D02*
X25697350Y11119632D01*
X25697350Y11119632D02*
X25793407Y10894960D01*
X25793407Y10894960D02*
X25887500Y10669458D01*
X25887500Y10669458D02*
X25979622Y10443143D01*
X25979622Y10443143D02*
X26069765Y10216033D01*
X26069765Y10216033D02*
X26157923Y9988146D01*
X26157923Y9988146D02*
X26222967Y9816108D01*
X26427276Y9251977D02*
X26507008Y9021006D01*
X26507008Y9021006D02*
X26584720Y8789348D01*
X26584720Y8789348D02*
X26660409Y8557021D01*
X26660409Y8557021D02*
X26734067Y8324042D01*
X26734067Y8324042D02*
X26805689Y8090429D01*
X26805689Y8090429D02*
X26875270Y7856200D01*
X26875270Y7856200D02*
X26926294Y7679497D01*
X27084661Y7100786D02*
X27145595Y6864160D01*
X27145595Y6864160D02*
X27204461Y6627012D01*
X27204461Y6627012D02*
X27261256Y6389359D01*
X27261256Y6389359D02*
X27315975Y6151219D01*
X27315975Y6151219D02*
X27368614Y5912611D01*
X27368614Y5912611D02*
X27419168Y5673553D01*
X27419168Y5673553D02*
X27455844Y5493324D01*
X27567246Y4903768D02*
X27608989Y4663015D01*
X27608989Y4663015D02*
X27648630Y4421906D01*
X27648630Y4421906D02*
X27686165Y4180461D01*
X27686165Y4180461D02*
X27721592Y3938698D01*
X27721592Y3938698D02*
X27754908Y3696634D01*
X27754908Y3696634D02*
X27786110Y3454289D01*
X27786110Y3454289D02*
X27808200Y3271698D01*
X27871918Y2675102D02*
X27894201Y2431775D01*
X27894201Y2431775D02*
X27914360Y2188263D01*
X27914360Y2188263D02*
X27932393Y1944584D01*
X27932393Y1944584D02*
X27948299Y1700757D01*
X27948299Y1700757D02*
X27962077Y1456800D01*
X27962077Y1456800D02*
X27973725Y1212733D01*
X27973725Y1212733D02*
X27981087Y1028957D01*
X27996711Y429172D02*
X27999390Y184841D01*
X27999390Y184841D02*
X28000000Y0D01*
M02*
