%TF.GenerationSoftware,KiCad,Pcbnew,10.0.5*%
%TF.CreationDate,2026-09-13T10:19:23-05:00*%
%TF.ProjectId,recorder,7265636f-7264-4657-922e-6b696361645f,rev?*%
%TF.SameCoordinates,Original*%
%TF.FileFunction,Copper,L2,Inr*%
%TF.FilePolarity,Positive*%
%FSLAX46Y46*%
G04 Gerber Fmt 4.6, Leading zero omitted, Abs format (unit mm)*
G04 Created by KiCad (PCBNEW 10.0.5) date 2026-09-13 10:19:23*
%MOMM*%
%LPD*%
G01*
G04 APERTURE LIST*
G04 Aperture macros list*
%AMRoundRect*
0 Rectangle with rounded corners*
0 $1 Rounding radius*
0 $2 $3 $4 $5 $6 $7 $8 $9 X,Y pos of 4 corners*
0 Add a 4 corners polygon primitive as box body*
4,1,4,$2,$3,$4,$5,$6,$7,$8,$9,$2,$3,0*
0 Add four circle primitives for the rounded corners*
1,1,$1+$1,$2,$3*
1,1,$1+$1,$4,$5*
1,1,$1+$1,$6,$7*
1,1,$1+$1,$8,$9*
0 Add four rect primitives between the rounded corners*
20,1,$1+$1,$2,$3,$4,$5,0*
20,1,$1+$1,$4,$5,$6,$7,0*
20,1,$1+$1,$6,$7,$8,$9,0*
20,1,$1+$1,$8,$9,$2,$3,0*%
G04 Aperture macros list end*
%TA.AperFunction,ComponentPad*%
%ADD10O,1.000000X2.100000*%
%TD*%
%TA.AperFunction,ComponentPad*%
%ADD11O,1.000000X1.600000*%
%TD*%
%TA.AperFunction,ComponentPad*%
%ADD12R,1.700000X1.700000*%
%TD*%
%TA.AperFunction,ComponentPad*%
%ADD13C,1.700000*%
%TD*%
%TA.AperFunction,ComponentPad*%
%ADD14RoundRect,0.250002X-1.699998X-1.699998X1.699998X-1.699998X1.699998X1.699998X-1.699998X1.699998X0*%
%TD*%
%TA.AperFunction,ComponentPad*%
%ADD15C,3.900000*%
%TD*%
%TA.AperFunction,ViaPad*%
%ADD16C,0.600000*%
%TD*%
G04 APERTURE END LIST*
D10*
%TO.N,GND*%
%TO.C,J2*%
X3680000Y40730000D03*
D11*
X3680000Y36550000D03*
D10*
X12320000Y40730000D03*
D11*
X12320000Y36550000D03*
%TD*%
D12*
%TO.N,VDD33*%
%TO.C,J1*%
X1500000Y30000000D03*
D13*
%TO.N,/MCU_USB/UART_RX*%
X1500000Y27460000D03*
%TO.N,/MCU_USB/UART_TX*%
X1500000Y24920000D03*
%TO.N,GND*%
X1500000Y22380000D03*
%TD*%
D14*
%TO.N,VBAT*%
%TO.C,BT1*%
X-23500000Y-34000000D03*
D15*
%TO.N,GND*%
X-15700000Y-34000000D03*
%TD*%
D16*
%TO.N,3V3A*%
X27602600Y-26634200D03*
X29325000Y-23599999D03*
%TO.N,GND*%
X24198490Y19068086D03*
X7000000Y-26000000D03*
X25000000Y4000000D03*
X-23000000Y34000000D03*
X19000000Y10000000D03*
X13000000Y4000000D03*
X-29000000Y16000000D03*
X22875000Y-31000000D03*
X19000000Y34000000D03*
X-29000000Y-32000000D03*
X-5000000Y-14000000D03*
X-23000000Y-26000000D03*
X19000000Y16000000D03*
X-11000000Y-2000000D03*
X-23000000Y-8000000D03*
X19000000Y22000000D03*
X7000000Y-8000000D03*
X-17000000Y-38000000D03*
X-11000000Y-20000000D03*
X7000000Y-20000000D03*
X-5000000Y28000000D03*
X1000000Y-26000000D03*
X1000000Y-32000000D03*
X13000000Y-2000000D03*
X7000000Y28000000D03*
X-5000000Y-20000000D03*
X-23000000Y4000000D03*
X-23000000Y-2000000D03*
X-11000000Y28000000D03*
X-29000000Y28000000D03*
X-5000000Y22000000D03*
X-11000000Y-26000000D03*
X27925000Y-16500000D03*
X-640000Y34300000D03*
X7000000Y34000000D03*
X1000000Y-14000000D03*
X-29000000Y22000000D03*
X-23000000Y10000000D03*
X17050000Y-25925000D03*
X15212500Y-30675000D03*
X1000000Y-2000000D03*
X-5000000Y-26000000D03*
X22675000Y-23600000D03*
X-11000000Y4000000D03*
X13000000Y22000000D03*
X-5000000Y34000000D03*
X-23000000Y-38000000D03*
X-23000000Y-20000000D03*
X-11000000Y-32000000D03*
X1000000Y34000000D03*
X-5000000Y-8000000D03*
X-23000000Y28000000D03*
X1000000Y-38000000D03*
X19000000Y-2000000D03*
X-11000000Y10000000D03*
X-29000000Y10000000D03*
X7000000Y4000000D03*
X-5000000Y-2000000D03*
X1000000Y4000000D03*
X13000000Y28000000D03*
X1000000Y-8000000D03*
X-11000000Y-14000000D03*
X13000000Y34000000D03*
X-29000000Y-20000000D03*
X-29000000Y-26000000D03*
X16640000Y34300000D03*
X26269299Y37412496D03*
X19000000Y28000000D03*
X25000000Y28000000D03*
X-10470000Y12270000D03*
X13875000Y-27500000D03*
X-17000000Y34000000D03*
X-5000000Y-38000000D03*
X-17000000Y-32000000D03*
X7000000Y-14000000D03*
X-23000000Y-14000000D03*
X-11000000Y-8000000D03*
X-29000000Y34000000D03*
X1000000Y-20000000D03*
X-11000000Y-38000000D03*
X7000000Y-2000000D03*
X-5000000Y10000000D03*
X-21020000Y41245000D03*
X7000000Y-38000000D03*
X5900000Y11000000D03*
X-23000000Y40000000D03*
%TO.N,I2S_MCLK*%
X10061300Y12628700D03*
X13804200Y8888000D03*
X17050000Y-22148200D03*
X22675000Y-21200000D03*
%TO.N,VDD33*%
X25075000Y-34500000D03*
X23400000Y13675000D03*
X-20500000Y40000000D03*
X-12924999Y15000000D03*
X-19400000Y39050000D03*
X24400000Y-18675000D03*
X-12924999Y22500000D03*
X23762500Y-31950000D03*
X-11825000Y18900000D03*
X-12924999Y25000000D03*
X22675000Y-22800000D03*
X25400000Y11075000D03*
X8100000Y22250000D03*
X22675000Y-22000000D03*
X-18237500Y40450000D03*
X-12875000Y12000000D03*
X26075000Y36000000D03*
X-22950000Y18100000D03*
X21175000Y-32900000D03*
%TO.N,SD_CMD*%
X-20957000Y22273100D03*
X-20957000Y20840000D03*
X9161400Y19394400D03*
X-21751600Y19786500D03*
X-10175000Y26715300D03*
%TO.N,/Audio/PA_INN*%
X9887500Y-33635800D03*
X28272400Y-29723700D03*
%TO.N,/Audio/AGND*%
X21275000Y-22665100D03*
X27600000Y-25325000D03*
%TO.N,SD_D1*%
X-22837600Y22323800D03*
X11125200Y18434800D03*
X-10881800Y20708400D03*
%TO.N,USB_DP*%
X7600000Y36900000D03*
X9200000Y36900000D03*
X4800000Y36900000D03*
%TO.N,VBUS*%
X5550000Y39200000D03*
X16500000Y39200000D03*
X10450000Y39200000D03*
%TO.N,/Audio/SPK_P*%
X15368700Y-29664600D03*
X6846900Y-30172500D03*
%TO.N,/Audio/SPK_N*%
X-4687200Y-30033800D03*
X13132100Y-33103400D03*
%TO.N,/Power/CHG_LED*%
X28825000Y34192500D03*
X23212500Y34106400D03*
%TO.N,VBAT*%
X24862500Y-29272100D03*
X12801600Y-31325000D03*
X-5968300Y39485300D03*
X21697600Y38841400D03*
X-16950000Y-27235300D03*
%TO.N,/Audio/VMID*%
X20451200Y-19273800D03*
X22154900Y-19313900D03*
%TO.N,SD_D0*%
X-10885200Y21789800D03*
X9565800Y20753700D03*
X-21861800Y22101100D03*
%TO.N,/MCU_USB/UART_RX*%
X20139900Y19952200D03*
%TO.N,/MCU_USB/UART_TX*%
X19743200Y19274800D03*
%TO.N,/MCU_USB/BOOT*%
X7857500Y19000500D03*
X25457000Y15043600D03*
%TO.N,BTN*%
X5755800Y19628800D03*
X-20842300Y18220200D03*
%TO.N,LED*%
X-27484300Y-238600D03*
X5801300Y14820400D03*
%TO.N,I2C_SDA*%
X23192600Y-33332600D03*
X6140900Y13865500D03*
X25200000Y-18675000D03*
%TO.N,I2C_SCL*%
X22675000Y-20400000D03*
X3771700Y17704000D03*
X25752300Y-29384900D03*
X7865700Y17704000D03*
X3771700Y-8364700D03*
%TO.N,PA_EN*%
X7856400Y14829700D03*
X9887500Y9274300D03*
%TO.N,CHG_STAT*%
X8675400Y16522200D03*
X22410400Y14135600D03*
%TO.N,I2S_DIN*%
X25200000Y-25325000D03*
X7858900Y12567400D03*
%TO.N,I2S_DOUT*%
X6141100Y11891700D03*
X26799999Y-25325000D03*
%TO.N,I2S_WS*%
X26000000Y-25325000D03*
X8881400Y13046900D03*
%TO.N,I2S_BCLK*%
X24400000Y-25325000D03*
X8900000Y11861200D03*
%TO.N,SD_CLK*%
X10597300Y17299300D03*
X-22833000Y19200000D03*
%TO.N,SD_D2*%
X12300000Y14650000D03*
X-9626800Y16388200D03*
X-21447900Y16098600D03*
%TO.N,SD_D3*%
X-10874300Y15699300D03*
X-22841500Y15819000D03*
X13150000Y11869800D03*
%TO.N,/Audio/MIC_N*%
X26600000Y-15500000D03*
X26700000Y-19000000D03*
%TO.N,MIC_P*%
X27316800Y-8602500D03*
X26000000Y-18675000D03*
%TO.N,/Power/PROG*%
X27439700Y38137000D03*
X23175000Y35062500D03*
%TD*%
%TA.AperFunction,Conductor*%
%TO.N,GND*%
G36*
X31658691Y42680593D02*
G01*
X31694655Y42631093D01*
X31699500Y42600500D01*
X31699500Y-42600500D01*
X31680593Y-42658691D01*
X31631093Y-42694655D01*
X31600500Y-42699500D01*
X-31600500Y-42699500D01*
X-31658691Y-42680593D01*
X-31694655Y-42631093D01*
X-31699500Y-42600500D01*
X-31699500Y-39409450D01*
X-29650500Y-39409450D01*
X-29650500Y-39409454D01*
X-29650500Y-39590546D01*
X-29622171Y-39769409D01*
X-29566211Y-39941639D01*
X-29483996Y-40102994D01*
X-29377553Y-40249501D01*
X-29249501Y-40377553D01*
X-29102994Y-40483996D01*
X-28941639Y-40566211D01*
X-28769409Y-40622171D01*
X-28679977Y-40636335D01*
X-28590549Y-40650500D01*
X-28590546Y-40650500D01*
X-28409451Y-40650500D01*
X-28302136Y-40633502D01*
X-28230591Y-40622171D01*
X-28058361Y-40566211D01*
X-27897006Y-40483996D01*
X-27750499Y-40377553D01*
X-27622447Y-40249501D01*
X-27516004Y-40102994D01*
X-27433789Y-39941639D01*
X-27377829Y-39769409D01*
X-27377828Y-39769406D01*
X-27349500Y-39590549D01*
X-27349500Y-39409450D01*
X27349500Y-39409450D01*
X27349500Y-39590549D01*
X27377828Y-39769406D01*
X27377829Y-39769409D01*
X27433789Y-39941639D01*
X27516004Y-40102994D01*
X27622447Y-40249501D01*
X27750499Y-40377553D01*
X27897006Y-40483996D01*
X28058361Y-40566211D01*
X28230591Y-40622171D01*
X28302136Y-40633502D01*
X28409451Y-40650500D01*
X28409454Y-40650500D01*
X28590549Y-40650500D01*
X28679977Y-40636335D01*
X28769409Y-40622171D01*
X28941639Y-40566211D01*
X29102994Y-40483996D01*
X29249501Y-40377553D01*
X29377553Y-40249501D01*
X29483996Y-40102994D01*
X29566211Y-39941639D01*
X29622171Y-39769409D01*
X29650500Y-39590546D01*
X29650500Y-39409454D01*
X29650500Y-39409450D01*
X29622171Y-39230593D01*
X29622171Y-39230591D01*
X29566211Y-39058361D01*
X29483996Y-38897006D01*
X29377553Y-38750499D01*
X29249501Y-38622447D01*
X29102994Y-38516004D01*
X29102993Y-38516003D01*
X29102991Y-38516002D01*
X28941637Y-38433788D01*
X28769406Y-38377828D01*
X28590549Y-38349500D01*
X28590546Y-38349500D01*
X28409454Y-38349500D01*
X28409451Y-38349500D01*
X28230593Y-38377828D01*
X28058362Y-38433788D01*
X27897008Y-38516002D01*
X27823752Y-38569225D01*
X27750499Y-38622447D01*
X27622447Y-38750499D01*
X27569225Y-38823752D01*
X27516002Y-38897008D01*
X27433788Y-39058362D01*
X27377828Y-39230593D01*
X27349500Y-39409450D01*
X-27349500Y-39409450D01*
X-27377828Y-39230593D01*
X-27433788Y-39058362D01*
X-27516002Y-38897008D01*
X-27569225Y-38823752D01*
X-27622447Y-38750499D01*
X-27750499Y-38622447D01*
X-27823752Y-38569225D01*
X-27897008Y-38516002D01*
X-28058362Y-38433788D01*
X-28230593Y-38377828D01*
X-28409451Y-38349500D01*
X-28409454Y-38349500D01*
X-28590546Y-38349500D01*
X-28590549Y-38349500D01*
X-28769406Y-38377828D01*
X-28941637Y-38433788D01*
X-29102991Y-38516002D01*
X-29102993Y-38516003D01*
X-29102994Y-38516004D01*
X-29249501Y-38622447D01*
X-29377553Y-38750499D01*
X-29483996Y-38897006D01*
X-29566211Y-39058361D01*
X-29622171Y-39230591D01*
X-29622171Y-39230593D01*
X-29650500Y-39409450D01*
X-31699500Y-39409450D01*
X-31699500Y-32245729D01*
X-25650500Y-32245729D01*
X-25650500Y-35754271D01*
X-25650499Y-35754271D01*
X-25647646Y-35784698D01*
X-25602793Y-35912881D01*
X-25522149Y-36022149D01*
X-25412881Y-36102793D01*
X-25284698Y-36147646D01*
X-25254271Y-36150499D01*
X-25254271Y-36150500D01*
X-25254264Y-36150500D01*
X-21745729Y-36150500D01*
X-21745727Y-36150499D01*
X-21715302Y-36147646D01*
X-21587119Y-36102793D01*
X-21477851Y-36022149D01*
X-21397207Y-35912881D01*
X-21397206Y-35912880D01*
X-21352355Y-35784702D01*
X-21352353Y-35784693D01*
X-21349500Y-35754272D01*
X-21349500Y-34434108D01*
X24574500Y-34434108D01*
X24574500Y-34565892D01*
X24604579Y-34678151D01*
X24608609Y-34693190D01*
X24674496Y-34807309D01*
X24674498Y-34807311D01*
X24674500Y-34807314D01*
X24767686Y-34900500D01*
X24767688Y-34900501D01*
X24767690Y-34900503D01*
X24881810Y-34966390D01*
X24881808Y-34966390D01*
X24881812Y-34966391D01*
X24881814Y-34966392D01*
X25009108Y-35000500D01*
X25009110Y-35000500D01*
X25140890Y-35000500D01*
X25140892Y-35000500D01*
X25268186Y-34966392D01*
X25268188Y-34966390D01*
X25268190Y-34966390D01*
X25382309Y-34900503D01*
X25382309Y-34900502D01*
X25382314Y-34900500D01*
X25475500Y-34807314D01*
X25541392Y-34693186D01*
X25575500Y-34565892D01*
X25575500Y-34434108D01*
X25541392Y-34306814D01*
X25541390Y-34306811D01*
X25541390Y-34306809D01*
X25475503Y-34192690D01*
X25475501Y-34192688D01*
X25475500Y-34192686D01*
X25382314Y-34099500D01*
X25382311Y-34099498D01*
X25382309Y-34099496D01*
X25268189Y-34033609D01*
X25268191Y-34033609D01*
X25218799Y-34020375D01*
X25140892Y-33999500D01*
X25009108Y-33999500D01*
X24931200Y-34020375D01*
X24881809Y-34033609D01*
X24767690Y-34099496D01*
X24674496Y-34192690D01*
X24608609Y-34306809D01*
X24608608Y-34306814D01*
X24574500Y-34434108D01*
X-21349500Y-34434108D01*
X-21349500Y-33569908D01*
X9387000Y-33569908D01*
X9387000Y-33701692D01*
X9413071Y-33798990D01*
X9421109Y-33828990D01*
X9486996Y-33943109D01*
X9486998Y-33943111D01*
X9487000Y-33943114D01*
X9580186Y-34036300D01*
X9580188Y-34036301D01*
X9580190Y-34036303D01*
X9694310Y-34102190D01*
X9694308Y-34102190D01*
X9694312Y-34102191D01*
X9694314Y-34102192D01*
X9821608Y-34136300D01*
X9821610Y-34136300D01*
X9953390Y-34136300D01*
X9953392Y-34136300D01*
X10080686Y-34102192D01*
X10080688Y-34102190D01*
X10080690Y-34102190D01*
X10194809Y-34036303D01*
X10194809Y-34036302D01*
X10194814Y-34036300D01*
X10288000Y-33943114D01*
X10353892Y-33828986D01*
X10388000Y-33701692D01*
X10388000Y-33569908D01*
X10353892Y-33442614D01*
X10353890Y-33442611D01*
X10353890Y-33442609D01*
X10288003Y-33328490D01*
X10288001Y-33328488D01*
X10288000Y-33328486D01*
X10194814Y-33235300D01*
X10194811Y-33235298D01*
X10194809Y-33235296D01*
X10080689Y-33169409D01*
X10080691Y-33169409D01*
X10031299Y-33156175D01*
X9953392Y-33135300D01*
X9821608Y-33135300D01*
X9743700Y-33156175D01*
X9694309Y-33169409D01*
X9580190Y-33235296D01*
X9486996Y-33328490D01*
X9421109Y-33442609D01*
X9421108Y-33442614D01*
X9387000Y-33569908D01*
X-21349500Y-33569908D01*
X-21349500Y-33037508D01*
X12631600Y-33037508D01*
X12631600Y-33169292D01*
X12641787Y-33207309D01*
X12665709Y-33296590D01*
X12731596Y-33410709D01*
X12731598Y-33410711D01*
X12731600Y-33410714D01*
X12824786Y-33503900D01*
X12824788Y-33503901D01*
X12824790Y-33503903D01*
X12938910Y-33569790D01*
X12938908Y-33569790D01*
X12938912Y-33569791D01*
X12938914Y-33569792D01*
X13066208Y-33603900D01*
X13066210Y-33603900D01*
X13197990Y-33603900D01*
X13197992Y-33603900D01*
X13325286Y-33569792D01*
X13325288Y-33569790D01*
X13325290Y-33569790D01*
X13439409Y-33503903D01*
X13439409Y-33503902D01*
X13439414Y-33503900D01*
X13532600Y-33410714D01*
X13538497Y-33400500D01*
X13598490Y-33296590D01*
X13598490Y-33296588D01*
X13598492Y-33296586D01*
X13632600Y-33169292D01*
X13632600Y-33037508D01*
X13598492Y-32910214D01*
X13554552Y-32834108D01*
X20674500Y-32834108D01*
X20674500Y-32965892D01*
X20693689Y-33037508D01*
X20708609Y-33093190D01*
X20774496Y-33207309D01*
X20774498Y-33207311D01*
X20774500Y-33207314D01*
X20867686Y-33300500D01*
X20867688Y-33300501D01*
X20867690Y-33300503D01*
X20981810Y-33366390D01*
X20981808Y-33366390D01*
X20981812Y-33366391D01*
X20981814Y-33366392D01*
X21109108Y-33400500D01*
X21109110Y-33400500D01*
X21240890Y-33400500D01*
X21240892Y-33400500D01*
X21368186Y-33366392D01*
X21368188Y-33366390D01*
X21368190Y-33366390D01*
X21482309Y-33300503D01*
X21482309Y-33300502D01*
X21482314Y-33300500D01*
X21516106Y-33266708D01*
X22692100Y-33266708D01*
X22692100Y-33398492D01*
X22720344Y-33503900D01*
X22726209Y-33525790D01*
X22792096Y-33639909D01*
X22792098Y-33639911D01*
X22792100Y-33639914D01*
X22885286Y-33733100D01*
X22885288Y-33733101D01*
X22885290Y-33733103D01*
X22999410Y-33798990D01*
X22999408Y-33798990D01*
X22999412Y-33798991D01*
X22999414Y-33798992D01*
X23126708Y-33833100D01*
X23126710Y-33833100D01*
X23258490Y-33833100D01*
X23258492Y-33833100D01*
X23385786Y-33798992D01*
X23385788Y-33798990D01*
X23385790Y-33798990D01*
X23499909Y-33733103D01*
X23499909Y-33733102D01*
X23499914Y-33733100D01*
X23593100Y-33639914D01*
X23658992Y-33525786D01*
X23693100Y-33398492D01*
X23693100Y-33266708D01*
X23658992Y-33139414D01*
X23658990Y-33139411D01*
X23658990Y-33139409D01*
X23593103Y-33025290D01*
X23593101Y-33025288D01*
X23593100Y-33025286D01*
X23499914Y-32932100D01*
X23499911Y-32932098D01*
X23499909Y-32932096D01*
X23385789Y-32866209D01*
X23385791Y-32866209D01*
X23336399Y-32852975D01*
X23258492Y-32832100D01*
X23126708Y-32832100D01*
X23048800Y-32852975D01*
X22999409Y-32866209D01*
X22885290Y-32932096D01*
X22792096Y-33025290D01*
X22726209Y-33139409D01*
X22726208Y-33139414D01*
X22692100Y-33266708D01*
X21516106Y-33266708D01*
X21575500Y-33207314D01*
X21575502Y-33207309D01*
X21575504Y-33207308D01*
X21641390Y-33093190D01*
X21641390Y-33093188D01*
X21641392Y-33093186D01*
X21675500Y-32965892D01*
X21675500Y-32834108D01*
X21641392Y-32706814D01*
X21641390Y-32706811D01*
X21641390Y-32706809D01*
X21575503Y-32592690D01*
X21575501Y-32592688D01*
X21575500Y-32592686D01*
X21482314Y-32499500D01*
X21482311Y-32499498D01*
X21482309Y-32499496D01*
X21368189Y-32433609D01*
X21368191Y-32433609D01*
X21303927Y-32416390D01*
X21240892Y-32399500D01*
X21109108Y-32399500D01*
X21046073Y-32416390D01*
X20981809Y-32433609D01*
X20867690Y-32499496D01*
X20774496Y-32592690D01*
X20708609Y-32706809D01*
X20708608Y-32706814D01*
X20674500Y-32834108D01*
X13554552Y-32834108D01*
X13532600Y-32796086D01*
X13439414Y-32702900D01*
X13439411Y-32702898D01*
X13439409Y-32702896D01*
X13325289Y-32637009D01*
X13325291Y-32637009D01*
X13275899Y-32623775D01*
X13197992Y-32602900D01*
X13066208Y-32602900D01*
X12988300Y-32623775D01*
X12938909Y-32637009D01*
X12824790Y-32702896D01*
X12731596Y-32796090D01*
X12665709Y-32910209D01*
X12650790Y-32965890D01*
X12631600Y-33037508D01*
X-21349500Y-33037508D01*
X-21349500Y-32245727D01*
X-21352353Y-32215306D01*
X-21352355Y-32215297D01*
X-21397206Y-32087119D01*
X-21477850Y-31977852D01*
X-21477852Y-31977850D01*
X-21587119Y-31897206D01*
X-21624551Y-31884108D01*
X23262000Y-31884108D01*
X23262000Y-32015892D01*
X23281085Y-32087119D01*
X23296109Y-32143190D01*
X23361996Y-32257309D01*
X23361998Y-32257311D01*
X23362000Y-32257314D01*
X23455186Y-32350500D01*
X23455188Y-32350501D01*
X23455190Y-32350503D01*
X23569310Y-32416390D01*
X23569308Y-32416390D01*
X23569312Y-32416391D01*
X23569314Y-32416392D01*
X23696608Y-32450500D01*
X23696610Y-32450500D01*
X23828390Y-32450500D01*
X23828392Y-32450500D01*
X23955686Y-32416392D01*
X23955688Y-32416390D01*
X23955690Y-32416390D01*
X24069809Y-32350503D01*
X24069809Y-32350502D01*
X24069814Y-32350500D01*
X24163000Y-32257314D01*
X24169690Y-32245727D01*
X24228890Y-32143190D01*
X24228890Y-32143188D01*
X24228892Y-32143186D01*
X24263000Y-32015892D01*
X24263000Y-31884108D01*
X24228892Y-31756814D01*
X24228890Y-31756811D01*
X24228890Y-31756809D01*
X24163003Y-31642690D01*
X24163001Y-31642688D01*
X24163000Y-31642686D01*
X24069814Y-31549500D01*
X24069811Y-31549498D01*
X24069809Y-31549496D01*
X23955689Y-31483609D01*
X23955691Y-31483609D01*
X23906299Y-31470375D01*
X23828392Y-31449500D01*
X23696608Y-31449500D01*
X23618700Y-31470375D01*
X23569309Y-31483609D01*
X23455190Y-31549496D01*
X23361996Y-31642690D01*
X23296109Y-31756809D01*
X23296108Y-31756814D01*
X23262000Y-31884108D01*
X-21624551Y-31884108D01*
X-21715297Y-31852355D01*
X-21715306Y-31852353D01*
X-21745727Y-31849500D01*
X-21745736Y-31849500D01*
X-25254264Y-31849500D01*
X-25254272Y-31849500D01*
X-25284693Y-31852353D01*
X-25284702Y-31852355D01*
X-25412880Y-31897206D01*
X-25412881Y-31897207D01*
X-25522149Y-31977851D01*
X-25602793Y-32087119D01*
X-25647646Y-32215302D01*
X-25647646Y-32215306D01*
X-25650499Y-32245727D01*
X-25650500Y-32245729D01*
X-31699500Y-32245729D01*
X-31699500Y-31259108D01*
X12301100Y-31259108D01*
X12301100Y-31390892D01*
X12316804Y-31449500D01*
X12335209Y-31518190D01*
X12401096Y-31632309D01*
X12401098Y-31632311D01*
X12401100Y-31632314D01*
X12494286Y-31725500D01*
X12494288Y-31725501D01*
X12494290Y-31725503D01*
X12608410Y-31791390D01*
X12608408Y-31791390D01*
X12608412Y-31791391D01*
X12608414Y-31791392D01*
X12735708Y-31825500D01*
X12735710Y-31825500D01*
X12867490Y-31825500D01*
X12867492Y-31825500D01*
X12994786Y-31791392D01*
X12994788Y-31791390D01*
X12994790Y-31791390D01*
X13108909Y-31725503D01*
X13108909Y-31725502D01*
X13108914Y-31725500D01*
X13202100Y-31632314D01*
X13267992Y-31518186D01*
X13302100Y-31390892D01*
X13302100Y-31259108D01*
X13267992Y-31131814D01*
X13267990Y-31131811D01*
X13267990Y-31131809D01*
X13202103Y-31017690D01*
X13202101Y-31017688D01*
X13202100Y-31017686D01*
X13108914Y-30924500D01*
X13108911Y-30924498D01*
X13108909Y-30924496D01*
X12994789Y-30858609D01*
X12994791Y-30858609D01*
X12945399Y-30845375D01*
X12867492Y-30824500D01*
X12735708Y-30824500D01*
X12657800Y-30845375D01*
X12608409Y-30858609D01*
X12494290Y-30924496D01*
X12401096Y-31017690D01*
X12335209Y-31131809D01*
X12335208Y-31131814D01*
X12301100Y-31259108D01*
X-31699500Y-31259108D01*
X-31699500Y-29967908D01*
X-5187700Y-29967908D01*
X-5187700Y-30099692D01*
X-5153592Y-30226986D01*
X-5087700Y-30341114D01*
X-4994514Y-30434300D01*
X-4915682Y-30479814D01*
X-4880389Y-30500190D01*
X-4880388Y-30500190D01*
X-4880386Y-30500192D01*
X-4753092Y-30534300D01*
X-4753090Y-30534300D01*
X-4621310Y-30534300D01*
X-4621308Y-30534300D01*
X-4494014Y-30500192D01*
X-4494011Y-30500190D01*
X-4494009Y-30500190D01*
X-4379890Y-30434303D01*
X-4379888Y-30434301D01*
X-4379886Y-30434300D01*
X-4286700Y-30341114D01*
X-4286698Y-30341111D01*
X-4286696Y-30341109D01*
X-4220809Y-30226990D01*
X-4195087Y-30130992D01*
X-4188553Y-30106608D01*
X6346400Y-30106608D01*
X6346400Y-30238392D01*
X6373923Y-30341109D01*
X6380509Y-30365690D01*
X6446396Y-30479809D01*
X6446398Y-30479811D01*
X6446400Y-30479814D01*
X6539586Y-30573000D01*
X6539588Y-30573001D01*
X6539590Y-30573003D01*
X6653710Y-30638890D01*
X6653708Y-30638890D01*
X6653712Y-30638891D01*
X6653714Y-30638892D01*
X6781008Y-30673000D01*
X6781010Y-30673000D01*
X6912790Y-30673000D01*
X6912792Y-30673000D01*
X7040086Y-30638892D01*
X7040088Y-30638890D01*
X7040090Y-30638890D01*
X7154209Y-30573003D01*
X7154209Y-30573002D01*
X7154214Y-30573000D01*
X7247400Y-30479814D01*
X7313292Y-30365686D01*
X7347400Y-30238392D01*
X7347400Y-30106608D01*
X7313292Y-29979314D01*
X7313290Y-29979311D01*
X7313290Y-29979309D01*
X7247403Y-29865190D01*
X7247401Y-29865188D01*
X7247400Y-29865186D01*
X7154214Y-29772000D01*
X7154211Y-29771998D01*
X7154209Y-29771996D01*
X7040089Y-29706109D01*
X7040091Y-29706109D01*
X7010368Y-29698145D01*
X6912792Y-29672000D01*
X6781008Y-29672000D01*
X6705586Y-29692209D01*
X6653709Y-29706109D01*
X6539590Y-29771996D01*
X6446396Y-29865190D01*
X6380509Y-29979309D01*
X6380508Y-29979314D01*
X6346400Y-30106608D01*
X-4188553Y-30106608D01*
X-4186700Y-30099692D01*
X-4186700Y-29967908D01*
X-4214224Y-29865186D01*
X-4220809Y-29840609D01*
X-4286696Y-29726490D01*
X-4379890Y-29633296D01*
X-4439798Y-29598708D01*
X14868200Y-29598708D01*
X14868200Y-29730492D01*
X14882913Y-29785403D01*
X14902309Y-29857790D01*
X14968196Y-29971909D01*
X14968198Y-29971911D01*
X14968200Y-29971914D01*
X15061386Y-30065100D01*
X15061388Y-30065101D01*
X15061390Y-30065103D01*
X15175510Y-30130990D01*
X15175508Y-30130990D01*
X15175512Y-30130991D01*
X15175514Y-30130992D01*
X15302808Y-30165100D01*
X15302810Y-30165100D01*
X15434590Y-30165100D01*
X15434592Y-30165100D01*
X15561886Y-30130992D01*
X15561888Y-30130990D01*
X15561890Y-30130990D01*
X15676009Y-30065103D01*
X15676009Y-30065102D01*
X15676014Y-30065100D01*
X15769200Y-29971914D01*
X15819149Y-29885400D01*
X15835090Y-29857790D01*
X15835090Y-29857788D01*
X15835092Y-29857786D01*
X15869200Y-29730492D01*
X15869200Y-29598708D01*
X15835092Y-29471414D01*
X15835090Y-29471411D01*
X15835090Y-29471409D01*
X15769203Y-29357290D01*
X15769201Y-29357288D01*
X15769200Y-29357286D01*
X15676014Y-29264100D01*
X15676011Y-29264098D01*
X15676009Y-29264096D01*
X15575744Y-29206208D01*
X24362000Y-29206208D01*
X24362000Y-29337992D01*
X24392079Y-29450251D01*
X24396109Y-29465290D01*
X24461996Y-29579409D01*
X24461998Y-29579411D01*
X24462000Y-29579414D01*
X24555186Y-29672600D01*
X24555188Y-29672601D01*
X24555190Y-29672603D01*
X24669310Y-29738490D01*
X24669308Y-29738490D01*
X24669312Y-29738491D01*
X24669314Y-29738492D01*
X24796608Y-29772600D01*
X24796610Y-29772600D01*
X24928390Y-29772600D01*
X24928392Y-29772600D01*
X25055686Y-29738492D01*
X25055688Y-29738490D01*
X25055690Y-29738490D01*
X25169809Y-29672603D01*
X25169809Y-29672602D01*
X25169814Y-29672600D01*
X25186779Y-29655634D01*
X25241293Y-29627857D01*
X25301725Y-29637427D01*
X25342519Y-29676139D01*
X25351800Y-29692214D01*
X25444986Y-29785400D01*
X25444988Y-29785401D01*
X25444990Y-29785403D01*
X25559110Y-29851290D01*
X25559108Y-29851290D01*
X25559112Y-29851291D01*
X25559114Y-29851292D01*
X25686408Y-29885400D01*
X25686410Y-29885400D01*
X25818190Y-29885400D01*
X25818192Y-29885400D01*
X25945486Y-29851292D01*
X25945488Y-29851290D01*
X25945490Y-29851290D01*
X26059609Y-29785403D01*
X26059609Y-29785402D01*
X26059614Y-29785400D01*
X26152800Y-29692214D01*
X26162081Y-29676139D01*
X26172665Y-29657808D01*
X27771900Y-29657808D01*
X27771900Y-29789592D01*
X27801979Y-29901851D01*
X27806009Y-29916890D01*
X27871896Y-30031009D01*
X27871898Y-30031011D01*
X27871900Y-30031014D01*
X27965086Y-30124200D01*
X27965088Y-30124201D01*
X27965090Y-30124203D01*
X28079210Y-30190090D01*
X28079208Y-30190090D01*
X28079212Y-30190091D01*
X28079214Y-30190092D01*
X28206508Y-30224200D01*
X28206510Y-30224200D01*
X28338290Y-30224200D01*
X28338292Y-30224200D01*
X28465586Y-30190092D01*
X28465588Y-30190090D01*
X28465590Y-30190090D01*
X28579709Y-30124203D01*
X28579709Y-30124202D01*
X28579714Y-30124200D01*
X28672900Y-30031014D01*
X28702752Y-29979309D01*
X28738790Y-29916890D01*
X28738790Y-29916888D01*
X28738792Y-29916886D01*
X28772900Y-29789592D01*
X28772900Y-29657808D01*
X28738792Y-29530514D01*
X28738790Y-29530511D01*
X28738790Y-29530509D01*
X28672903Y-29416390D01*
X28672901Y-29416388D01*
X28672900Y-29416386D01*
X28579714Y-29323200D01*
X28579711Y-29323198D01*
X28579709Y-29323196D01*
X28465589Y-29257309D01*
X28465591Y-29257309D01*
X28416199Y-29244075D01*
X28338292Y-29223200D01*
X28206508Y-29223200D01*
X28128600Y-29244075D01*
X28079209Y-29257309D01*
X27965090Y-29323196D01*
X27871896Y-29416390D01*
X27806009Y-29530509D01*
X27800280Y-29551892D01*
X27771900Y-29657808D01*
X26172665Y-29657808D01*
X26204991Y-29601819D01*
X26218690Y-29578089D01*
X26218689Y-29578089D01*
X26218692Y-29578086D01*
X26252800Y-29450792D01*
X26252800Y-29319008D01*
X26218692Y-29191714D01*
X26218690Y-29191711D01*
X26218690Y-29191709D01*
X26152803Y-29077590D01*
X26152801Y-29077588D01*
X26152800Y-29077586D01*
X26059614Y-28984400D01*
X26059611Y-28984398D01*
X26059609Y-28984396D01*
X25945489Y-28918509D01*
X25945491Y-28918509D01*
X25896099Y-28905275D01*
X25818192Y-28884400D01*
X25686408Y-28884400D01*
X25608500Y-28905275D01*
X25559109Y-28918509D01*
X25444990Y-28984396D01*
X25444984Y-28984401D01*
X25428019Y-29001366D01*
X25373502Y-29029143D01*
X25313070Y-29019570D01*
X25272280Y-28980860D01*
X25263000Y-28964786D01*
X25169814Y-28871600D01*
X25169811Y-28871598D01*
X25169809Y-28871596D01*
X25055689Y-28805709D01*
X25055691Y-28805709D01*
X25006299Y-28792475D01*
X24928392Y-28771600D01*
X24796608Y-28771600D01*
X24718700Y-28792475D01*
X24669309Y-28805709D01*
X24555190Y-28871596D01*
X24461996Y-28964790D01*
X24396109Y-29078909D01*
X24377039Y-29150078D01*
X24362000Y-29206208D01*
X15575744Y-29206208D01*
X15561889Y-29198209D01*
X15561891Y-29198209D01*
X15512499Y-29184975D01*
X15434592Y-29164100D01*
X15302808Y-29164100D01*
X15224900Y-29184975D01*
X15175509Y-29198209D01*
X15061390Y-29264096D01*
X14968196Y-29357290D01*
X14902309Y-29471409D01*
X14902308Y-29471414D01*
X14868200Y-29598708D01*
X-4439798Y-29598708D01*
X-4494010Y-29567409D01*
X-4494008Y-29567409D01*
X-4561654Y-29549283D01*
X-4621308Y-29533300D01*
X-4753092Y-29533300D01*
X-4865351Y-29563379D01*
X-4880390Y-29567409D01*
X-4994509Y-29633296D01*
X-4994511Y-29633298D01*
X-4994514Y-29633300D01*
X-5087700Y-29726486D01*
X-5087701Y-29726488D01*
X-5087703Y-29726490D01*
X-5153590Y-29840609D01*
X-5153590Y-29840611D01*
X-5153592Y-29840614D01*
X-5187700Y-29967908D01*
X-31699500Y-29967908D01*
X-31699500Y-27169408D01*
X-17450500Y-27169408D01*
X-17450500Y-27301192D01*
X-17416392Y-27428486D01*
X-17350500Y-27542614D01*
X-17257314Y-27635800D01*
X-17257309Y-27635802D01*
X-17257309Y-27635803D01*
X-17143189Y-27701690D01*
X-17143188Y-27701690D01*
X-17143186Y-27701692D01*
X-17015892Y-27735800D01*
X-17015890Y-27735800D01*
X-16884110Y-27735800D01*
X-16884108Y-27735800D01*
X-16756814Y-27701692D01*
X-16756811Y-27701690D01*
X-16756809Y-27701690D01*
X-16642690Y-27635803D01*
X-16642688Y-27635801D01*
X-16642686Y-27635800D01*
X-16549500Y-27542614D01*
X-16549498Y-27542611D01*
X-16549496Y-27542609D01*
X-16483609Y-27428490D01*
X-16479579Y-27413451D01*
X-16449500Y-27301192D01*
X-16449500Y-27169408D01*
X-16467939Y-27100592D01*
X-16483609Y-27042109D01*
X-16549496Y-26927990D01*
X-16642690Y-26834796D01*
X-16756810Y-26768909D01*
X-16756808Y-26768909D01*
X-16824454Y-26750783D01*
X-16884108Y-26734800D01*
X-17015892Y-26734800D01*
X-17128151Y-26764879D01*
X-17143190Y-26768909D01*
X-17257309Y-26834796D01*
X-17257311Y-26834798D01*
X-17257314Y-26834800D01*
X-17350500Y-26927986D01*
X-17350501Y-26927988D01*
X-17350503Y-26927990D01*
X-17416390Y-27042109D01*
X-17416390Y-27042111D01*
X-17416392Y-27042114D01*
X-17450500Y-27169408D01*
X-31699500Y-27169408D01*
X-31699500Y-26568308D01*
X27102100Y-26568308D01*
X27102100Y-26700092D01*
X27111400Y-26734800D01*
X27136209Y-26827390D01*
X27202096Y-26941509D01*
X27202098Y-26941511D01*
X27202100Y-26941514D01*
X27295286Y-27034700D01*
X27295288Y-27034701D01*
X27295290Y-27034703D01*
X27409410Y-27100590D01*
X27409408Y-27100590D01*
X27409412Y-27100591D01*
X27409414Y-27100592D01*
X27536708Y-27134700D01*
X27536710Y-27134700D01*
X27668490Y-27134700D01*
X27668492Y-27134700D01*
X27795786Y-27100592D01*
X27795788Y-27100590D01*
X27795790Y-27100590D01*
X27909909Y-27034703D01*
X27909909Y-27034702D01*
X27909914Y-27034700D01*
X28003100Y-26941514D01*
X28010908Y-26927990D01*
X28068990Y-26827390D01*
X28068990Y-26827388D01*
X28068992Y-26827386D01*
X28103100Y-26700092D01*
X28103100Y-26568308D01*
X28068992Y-26441014D01*
X28068990Y-26441011D01*
X28068990Y-26441009D01*
X28003103Y-26326890D01*
X28003101Y-26326888D01*
X28003100Y-26326886D01*
X27909914Y-26233700D01*
X27909911Y-26233698D01*
X27909909Y-26233696D01*
X27795789Y-26167809D01*
X27795791Y-26167809D01*
X27746399Y-26154575D01*
X27668492Y-26133700D01*
X27536708Y-26133700D01*
X27458800Y-26154575D01*
X27409409Y-26167809D01*
X27295290Y-26233696D01*
X27202096Y-26326890D01*
X27136209Y-26441009D01*
X27136208Y-26441014D01*
X27102100Y-26568308D01*
X-31699500Y-26568308D01*
X-31699500Y-25259108D01*
X23899500Y-25259108D01*
X23899500Y-25390892D01*
X23929579Y-25503151D01*
X23933609Y-25518190D01*
X23999496Y-25632309D01*
X23999498Y-25632311D01*
X23999500Y-25632314D01*
X24092686Y-25725500D01*
X24092688Y-25725501D01*
X24092690Y-25725503D01*
X24206810Y-25791390D01*
X24206808Y-25791390D01*
X24206812Y-25791391D01*
X24206814Y-25791392D01*
X24334108Y-25825500D01*
X24334110Y-25825500D01*
X24465890Y-25825500D01*
X24465892Y-25825500D01*
X24593186Y-25791392D01*
X24593188Y-25791390D01*
X24593190Y-25791390D01*
X24707309Y-25725503D01*
X24707309Y-25725502D01*
X24707314Y-25725500D01*
X24729998Y-25702815D01*
X24784513Y-25675040D01*
X24844945Y-25684611D01*
X24870000Y-25702814D01*
X24892686Y-25725500D01*
X24892688Y-25725501D01*
X24892690Y-25725503D01*
X25006810Y-25791390D01*
X25006808Y-25791390D01*
X25006812Y-25791391D01*
X25006814Y-25791392D01*
X25134108Y-25825500D01*
X25134110Y-25825500D01*
X25265890Y-25825500D01*
X25265892Y-25825500D01*
X25393186Y-25791392D01*
X25393188Y-25791390D01*
X25393190Y-25791390D01*
X25507309Y-25725503D01*
X25507309Y-25725502D01*
X25507314Y-25725500D01*
X25529998Y-25702815D01*
X25584513Y-25675040D01*
X25644945Y-25684611D01*
X25670000Y-25702814D01*
X25692686Y-25725500D01*
X25692688Y-25725501D01*
X25692690Y-25725503D01*
X25806810Y-25791390D01*
X25806808Y-25791390D01*
X25806812Y-25791391D01*
X25806814Y-25791392D01*
X25934108Y-25825500D01*
X25934110Y-25825500D01*
X26065890Y-25825500D01*
X26065892Y-25825500D01*
X26193186Y-25791392D01*
X26193188Y-25791390D01*
X26193190Y-25791390D01*
X26233009Y-25768399D01*
X26307314Y-25725500D01*
X26329994Y-25702819D01*
X26384508Y-25675040D01*
X26444941Y-25684610D01*
X26469999Y-25702814D01*
X26492685Y-25725500D01*
X26492687Y-25725501D01*
X26492689Y-25725503D01*
X26606809Y-25791390D01*
X26606807Y-25791390D01*
X26606811Y-25791391D01*
X26606813Y-25791392D01*
X26734107Y-25825500D01*
X26734109Y-25825500D01*
X26865889Y-25825500D01*
X26865891Y-25825500D01*
X26993185Y-25791392D01*
X26993187Y-25791390D01*
X26993189Y-25791390D01*
X27033008Y-25768399D01*
X27107313Y-25725500D01*
X27129994Y-25702818D01*
X27184508Y-25675039D01*
X27244941Y-25684609D01*
X27269999Y-25702813D01*
X27292686Y-25725500D01*
X27292688Y-25725501D01*
X27292690Y-25725503D01*
X27406810Y-25791390D01*
X27406808Y-25791390D01*
X27406812Y-25791391D01*
X27406814Y-25791392D01*
X27534108Y-25825500D01*
X27534110Y-25825500D01*
X27665890Y-25825500D01*
X27665892Y-25825500D01*
X27793186Y-25791392D01*
X27793188Y-25791390D01*
X27793190Y-25791390D01*
X27907309Y-25725503D01*
X27907309Y-25725502D01*
X27907314Y-25725500D01*
X28000500Y-25632314D01*
X28066392Y-25518186D01*
X28100500Y-25390892D01*
X28100500Y-25259108D01*
X28066392Y-25131814D01*
X28066390Y-25131811D01*
X28066390Y-25131809D01*
X28000503Y-25017690D01*
X28000501Y-25017688D01*
X28000500Y-25017686D01*
X27907314Y-24924500D01*
X27907311Y-24924498D01*
X27907309Y-24924496D01*
X27793189Y-24858609D01*
X27793191Y-24858609D01*
X27743799Y-24845375D01*
X27665892Y-24824500D01*
X27534108Y-24824500D01*
X27456200Y-24845375D01*
X27406809Y-24858609D01*
X27292686Y-24924499D01*
X27270001Y-24947184D01*
X27215484Y-24974960D01*
X27155052Y-24965388D01*
X27129998Y-24947185D01*
X27107313Y-24924500D01*
X27107310Y-24924498D01*
X27107308Y-24924496D01*
X26993188Y-24858609D01*
X26993190Y-24858609D01*
X26943798Y-24845375D01*
X26865891Y-24824500D01*
X26734107Y-24824500D01*
X26656199Y-24845375D01*
X26606808Y-24858609D01*
X26492685Y-24924499D01*
X26470001Y-24947183D01*
X26415484Y-24974959D01*
X26355052Y-24965387D01*
X26329998Y-24947184D01*
X26307314Y-24924500D01*
X26307311Y-24924498D01*
X26307309Y-24924496D01*
X26193189Y-24858609D01*
X26193191Y-24858609D01*
X26143799Y-24845375D01*
X26065892Y-24824500D01*
X25934108Y-24824500D01*
X25856200Y-24845375D01*
X25806809Y-24858609D01*
X25692690Y-24924496D01*
X25692684Y-24924501D01*
X25670002Y-24947183D01*
X25615485Y-24974959D01*
X25555053Y-24965387D01*
X25529998Y-24947183D01*
X25507315Y-24924501D01*
X25507309Y-24924496D01*
X25393189Y-24858609D01*
X25393191Y-24858609D01*
X25343799Y-24845375D01*
X25265892Y-24824500D01*
X25134108Y-24824500D01*
X25056200Y-24845375D01*
X25006809Y-24858609D01*
X24892690Y-24924496D01*
X24892684Y-24924501D01*
X24870002Y-24947183D01*
X24815485Y-24974959D01*
X24755053Y-24965387D01*
X24729998Y-24947183D01*
X24707315Y-24924501D01*
X24707309Y-24924496D01*
X24593189Y-24858609D01*
X24593191Y-24858609D01*
X24543799Y-24845375D01*
X24465892Y-24824500D01*
X24334108Y-24824500D01*
X24256200Y-24845375D01*
X24206809Y-24858609D01*
X24092690Y-24924496D01*
X23999496Y-25017690D01*
X23933609Y-25131809D01*
X23933608Y-25131814D01*
X23899500Y-25259108D01*
X-31699500Y-25259108D01*
X-31699500Y-23534107D01*
X28824500Y-23534107D01*
X28824500Y-23665891D01*
X28854579Y-23778150D01*
X28858609Y-23793189D01*
X28924496Y-23907308D01*
X28924498Y-23907310D01*
X28924500Y-23907313D01*
X29017686Y-24000499D01*
X29017688Y-24000500D01*
X29017690Y-24000502D01*
X29131810Y-24066389D01*
X29131808Y-24066389D01*
X29131812Y-24066390D01*
X29131814Y-24066391D01*
X29259108Y-24100499D01*
X29259110Y-24100499D01*
X29390890Y-24100499D01*
X29390892Y-24100499D01*
X29518186Y-24066391D01*
X29518188Y-24066389D01*
X29518190Y-24066389D01*
X29632309Y-24000502D01*
X29632309Y-24000501D01*
X29632314Y-24000499D01*
X29725500Y-23907313D01*
X29791392Y-23793185D01*
X29825500Y-23665891D01*
X29825500Y-23534107D01*
X29791392Y-23406813D01*
X29791390Y-23406810D01*
X29791390Y-23406808D01*
X29725503Y-23292689D01*
X29725501Y-23292687D01*
X29725500Y-23292685D01*
X29632314Y-23199499D01*
X29632311Y-23199497D01*
X29632309Y-23199495D01*
X29518189Y-23133608D01*
X29518191Y-23133608D01*
X29468799Y-23120374D01*
X29390892Y-23099499D01*
X29259108Y-23099499D01*
X29181200Y-23120374D01*
X29131809Y-23133608D01*
X29017690Y-23199495D01*
X28924496Y-23292689D01*
X28858609Y-23406808D01*
X28858608Y-23406813D01*
X28824500Y-23534107D01*
X-31699500Y-23534107D01*
X-31699500Y-22082308D01*
X16549500Y-22082308D01*
X16549500Y-22214092D01*
X16574479Y-22307314D01*
X16583609Y-22341390D01*
X16649496Y-22455509D01*
X16649498Y-22455511D01*
X16649500Y-22455514D01*
X16742686Y-22548700D01*
X16742688Y-22548701D01*
X16742690Y-22548703D01*
X16856810Y-22614590D01*
X16856808Y-22614590D01*
X16856812Y-22614591D01*
X16856814Y-22614592D01*
X16984108Y-22648700D01*
X16984110Y-22648700D01*
X17115890Y-22648700D01*
X17115892Y-22648700D01*
X17243186Y-22614592D01*
X17243188Y-22614590D01*
X17243190Y-22614590D01*
X17269832Y-22599208D01*
X20774500Y-22599208D01*
X20774500Y-22730992D01*
X20804579Y-22843251D01*
X20808609Y-22858290D01*
X20874496Y-22972409D01*
X20874498Y-22972411D01*
X20874500Y-22972414D01*
X20967686Y-23065600D01*
X20967688Y-23065601D01*
X20967690Y-23065603D01*
X21081810Y-23131490D01*
X21081808Y-23131490D01*
X21081812Y-23131491D01*
X21081814Y-23131492D01*
X21209108Y-23165600D01*
X21209110Y-23165600D01*
X21340890Y-23165600D01*
X21340892Y-23165600D01*
X21468186Y-23131492D01*
X21468188Y-23131490D01*
X21468190Y-23131490D01*
X21582309Y-23065603D01*
X21582309Y-23065602D01*
X21582314Y-23065600D01*
X21675500Y-22972414D01*
X21741392Y-22858286D01*
X21775500Y-22730992D01*
X21775500Y-22599208D01*
X21741392Y-22471914D01*
X21741390Y-22471911D01*
X21741390Y-22471909D01*
X21675503Y-22357790D01*
X21675501Y-22357788D01*
X21675500Y-22357786D01*
X21582314Y-22264600D01*
X21582311Y-22264598D01*
X21582309Y-22264596D01*
X21468189Y-22198709D01*
X21468191Y-22198709D01*
X21418799Y-22185475D01*
X21340892Y-22164600D01*
X21209108Y-22164600D01*
X21131200Y-22185475D01*
X21081809Y-22198709D01*
X20967690Y-22264596D01*
X20874496Y-22357790D01*
X20808609Y-22471909D01*
X20808608Y-22471914D01*
X20774500Y-22599208D01*
X17269832Y-22599208D01*
X17357309Y-22548703D01*
X17357309Y-22548702D01*
X17357314Y-22548700D01*
X17450500Y-22455514D01*
X17482551Y-22400000D01*
X17516390Y-22341390D01*
X17516390Y-22341388D01*
X17516392Y-22341386D01*
X17550500Y-22214092D01*
X17550500Y-22082308D01*
X17516392Y-21955014D01*
X17516390Y-21955011D01*
X17516390Y-21955009D01*
X17450503Y-21840890D01*
X17450501Y-21840888D01*
X17450500Y-21840886D01*
X17357314Y-21747700D01*
X17357311Y-21747698D01*
X17357309Y-21747696D01*
X17243189Y-21681809D01*
X17243191Y-21681809D01*
X17193799Y-21668575D01*
X17115892Y-21647700D01*
X16984108Y-21647700D01*
X16906200Y-21668575D01*
X16856809Y-21681809D01*
X16742690Y-21747696D01*
X16649496Y-21840890D01*
X16583609Y-21955009D01*
X16583608Y-21955014D01*
X16549500Y-22082308D01*
X-31699500Y-22082308D01*
X-31699500Y-20334108D01*
X22174500Y-20334108D01*
X22174500Y-20465892D01*
X22204579Y-20578151D01*
X22208609Y-20593190D01*
X22274496Y-20707309D01*
X22274501Y-20707315D01*
X22297183Y-20729998D01*
X22324959Y-20784515D01*
X22315387Y-20844947D01*
X22297183Y-20870002D01*
X22274501Y-20892684D01*
X22274496Y-20892690D01*
X22208609Y-21006809D01*
X22208608Y-21006814D01*
X22174500Y-21134108D01*
X22174500Y-21265892D01*
X22204579Y-21378151D01*
X22208609Y-21393190D01*
X22274496Y-21507309D01*
X22274501Y-21507315D01*
X22297183Y-21529998D01*
X22324959Y-21584515D01*
X22315387Y-21644947D01*
X22297183Y-21670002D01*
X22274501Y-21692684D01*
X22274496Y-21692690D01*
X22208609Y-21806809D01*
X22199477Y-21840890D01*
X22174500Y-21934108D01*
X22174500Y-22065892D01*
X22204579Y-22178151D01*
X22208609Y-22193190D01*
X22274496Y-22307309D01*
X22274501Y-22307315D01*
X22297183Y-22329998D01*
X22324959Y-22384515D01*
X22315387Y-22444947D01*
X22297183Y-22470002D01*
X22274501Y-22492684D01*
X22274496Y-22492690D01*
X22208609Y-22606809D01*
X22208608Y-22606814D01*
X22174500Y-22734108D01*
X22174500Y-22865892D01*
X22203041Y-22972409D01*
X22208609Y-22993190D01*
X22274496Y-23107309D01*
X22274498Y-23107311D01*
X22274500Y-23107314D01*
X22367686Y-23200500D01*
X22367688Y-23200501D01*
X22367690Y-23200503D01*
X22481810Y-23266390D01*
X22481808Y-23266390D01*
X22481812Y-23266391D01*
X22481814Y-23266392D01*
X22609108Y-23300500D01*
X22609110Y-23300500D01*
X22740890Y-23300500D01*
X22740892Y-23300500D01*
X22868186Y-23266392D01*
X22868188Y-23266390D01*
X22868190Y-23266390D01*
X22982309Y-23200503D01*
X22982309Y-23200502D01*
X22982314Y-23200500D01*
X23075500Y-23107314D01*
X23141392Y-22993186D01*
X23175500Y-22865892D01*
X23175500Y-22734108D01*
X23141392Y-22606814D01*
X23141390Y-22606811D01*
X23141390Y-22606809D01*
X23075503Y-22492690D01*
X23075501Y-22492688D01*
X23075500Y-22492686D01*
X23052815Y-22470001D01*
X23025040Y-22415487D01*
X23034611Y-22355055D01*
X23052816Y-22329998D01*
X23075500Y-22307314D01*
X23129323Y-22214090D01*
X23141390Y-22193190D01*
X23141390Y-22193188D01*
X23141392Y-22193186D01*
X23175500Y-22065892D01*
X23175500Y-21934108D01*
X23141392Y-21806814D01*
X23141390Y-21806811D01*
X23141390Y-21806809D01*
X23075503Y-21692690D01*
X23075501Y-21692688D01*
X23075500Y-21692686D01*
X23052815Y-21670001D01*
X23025040Y-21615487D01*
X23034611Y-21555055D01*
X23052816Y-21529998D01*
X23075500Y-21507314D01*
X23141392Y-21393186D01*
X23175500Y-21265892D01*
X23175500Y-21134108D01*
X23141392Y-21006814D01*
X23141390Y-21006811D01*
X23141390Y-21006809D01*
X23075503Y-20892690D01*
X23075501Y-20892688D01*
X23075500Y-20892686D01*
X23052815Y-20870001D01*
X23025040Y-20815487D01*
X23034611Y-20755055D01*
X23052816Y-20729998D01*
X23075500Y-20707314D01*
X23141392Y-20593186D01*
X23175500Y-20465892D01*
X23175500Y-20334108D01*
X23141392Y-20206814D01*
X23141390Y-20206811D01*
X23141390Y-20206809D01*
X23075503Y-20092690D01*
X23075501Y-20092688D01*
X23075500Y-20092686D01*
X22982314Y-19999500D01*
X22982311Y-19999498D01*
X22982309Y-19999496D01*
X22868189Y-19933609D01*
X22868191Y-19933609D01*
X22818799Y-19920375D01*
X22740892Y-19899500D01*
X22609108Y-19899500D01*
X22531200Y-19920375D01*
X22481809Y-19933609D01*
X22367690Y-19999496D01*
X22274496Y-20092690D01*
X22208609Y-20206809D01*
X22208608Y-20206814D01*
X22174500Y-20334108D01*
X-31699500Y-20334108D01*
X-31699500Y-19207908D01*
X19950700Y-19207908D01*
X19950700Y-19339692D01*
X19966994Y-19400503D01*
X19984809Y-19466990D01*
X20050696Y-19581109D01*
X20050698Y-19581111D01*
X20050700Y-19581114D01*
X20143886Y-19674300D01*
X20143888Y-19674301D01*
X20143890Y-19674303D01*
X20258010Y-19740190D01*
X20258008Y-19740190D01*
X20258012Y-19740191D01*
X20258014Y-19740192D01*
X20385308Y-19774300D01*
X20385310Y-19774300D01*
X20517090Y-19774300D01*
X20517092Y-19774300D01*
X20644386Y-19740192D01*
X20644388Y-19740190D01*
X20644390Y-19740190D01*
X20758509Y-19674303D01*
X20758509Y-19674302D01*
X20758514Y-19674300D01*
X20851700Y-19581114D01*
X20917592Y-19466986D01*
X20951700Y-19339692D01*
X20951700Y-19248008D01*
X21654400Y-19248008D01*
X21654400Y-19379792D01*
X21684479Y-19492051D01*
X21688509Y-19507090D01*
X21754396Y-19621209D01*
X21754398Y-19621211D01*
X21754400Y-19621214D01*
X21847586Y-19714400D01*
X21847588Y-19714401D01*
X21847590Y-19714403D01*
X21961710Y-19780290D01*
X21961708Y-19780290D01*
X21961712Y-19780291D01*
X21961714Y-19780292D01*
X22089008Y-19814400D01*
X22089010Y-19814400D01*
X22220790Y-19814400D01*
X22220792Y-19814400D01*
X22348086Y-19780292D01*
X22348088Y-19780290D01*
X22348090Y-19780290D01*
X22462209Y-19714403D01*
X22462209Y-19714402D01*
X22462214Y-19714400D01*
X22555400Y-19621214D01*
X22621292Y-19507086D01*
X22655400Y-19379792D01*
X22655400Y-19248008D01*
X22621292Y-19120714D01*
X22621290Y-19120711D01*
X22621290Y-19120709D01*
X22555403Y-19006590D01*
X22555401Y-19006588D01*
X22555400Y-19006586D01*
X22462214Y-18913400D01*
X22462211Y-18913398D01*
X22462209Y-18913396D01*
X22348089Y-18847509D01*
X22348091Y-18847509D01*
X22298699Y-18834275D01*
X22220792Y-18813400D01*
X22089008Y-18813400D01*
X22011100Y-18834275D01*
X21961709Y-18847509D01*
X21847590Y-18913396D01*
X21754396Y-19006590D01*
X21688509Y-19120709D01*
X21673828Y-19175500D01*
X21654400Y-19248008D01*
X20951700Y-19248008D01*
X20951700Y-19207908D01*
X20917592Y-19080614D01*
X20917590Y-19080611D01*
X20917590Y-19080609D01*
X20851703Y-18966490D01*
X20851701Y-18966488D01*
X20851700Y-18966486D01*
X20758514Y-18873300D01*
X20758511Y-18873298D01*
X20758509Y-18873296D01*
X20644389Y-18807409D01*
X20644391Y-18807409D01*
X20594999Y-18794175D01*
X20517092Y-18773300D01*
X20385308Y-18773300D01*
X20307400Y-18794175D01*
X20258009Y-18807409D01*
X20143890Y-18873296D01*
X20050696Y-18966490D01*
X19984809Y-19080609D01*
X19984808Y-19080614D01*
X19950700Y-19207908D01*
X-31699500Y-19207908D01*
X-31699500Y-18609108D01*
X23899500Y-18609108D01*
X23899500Y-18740892D01*
X23908184Y-18773300D01*
X23933609Y-18868190D01*
X23999496Y-18982309D01*
X23999498Y-18982311D01*
X23999500Y-18982314D01*
X24092686Y-19075500D01*
X24092688Y-19075501D01*
X24092690Y-19075503D01*
X24206810Y-19141390D01*
X24206808Y-19141390D01*
X24206812Y-19141391D01*
X24206814Y-19141392D01*
X24334108Y-19175500D01*
X24334110Y-19175500D01*
X24465890Y-19175500D01*
X24465892Y-19175500D01*
X24593186Y-19141392D01*
X24593188Y-19141390D01*
X24593190Y-19141390D01*
X24707309Y-19075503D01*
X24707309Y-19075502D01*
X24707314Y-19075500D01*
X24729998Y-19052815D01*
X24784513Y-19025040D01*
X24844945Y-19034611D01*
X24870000Y-19052814D01*
X24892686Y-19075500D01*
X24892688Y-19075501D01*
X24892690Y-19075503D01*
X25006810Y-19141390D01*
X25006808Y-19141390D01*
X25006812Y-19141391D01*
X25006814Y-19141392D01*
X25134108Y-19175500D01*
X25134110Y-19175500D01*
X25265890Y-19175500D01*
X25265892Y-19175500D01*
X25393186Y-19141392D01*
X25393188Y-19141390D01*
X25393190Y-19141390D01*
X25507309Y-19075503D01*
X25507309Y-19075502D01*
X25507314Y-19075500D01*
X25529998Y-19052815D01*
X25584513Y-19025040D01*
X25644945Y-19034611D01*
X25670000Y-19052814D01*
X25692686Y-19075500D01*
X25692688Y-19075501D01*
X25692690Y-19075503D01*
X25806810Y-19141390D01*
X25806808Y-19141390D01*
X25806812Y-19141391D01*
X25806814Y-19141392D01*
X25934108Y-19175500D01*
X25934110Y-19175500D01*
X26065891Y-19175500D01*
X26065892Y-19175500D01*
X26128919Y-19158612D01*
X26190019Y-19161813D01*
X26237569Y-19200318D01*
X26240270Y-19204725D01*
X26299500Y-19307314D01*
X26392686Y-19400500D01*
X26392688Y-19400501D01*
X26392690Y-19400503D01*
X26506810Y-19466390D01*
X26506808Y-19466390D01*
X26506812Y-19466391D01*
X26506814Y-19466392D01*
X26634108Y-19500500D01*
X26634110Y-19500500D01*
X26765890Y-19500500D01*
X26765892Y-19500500D01*
X26893186Y-19466392D01*
X26893188Y-19466390D01*
X26893190Y-19466390D01*
X27007309Y-19400503D01*
X27007309Y-19400502D01*
X27007314Y-19400500D01*
X27100500Y-19307314D01*
X27134740Y-19248009D01*
X27166390Y-19193190D01*
X27166390Y-19193188D01*
X27166392Y-19193186D01*
X27200500Y-19065892D01*
X27200500Y-18934108D01*
X27166392Y-18806814D01*
X27166390Y-18806811D01*
X27166390Y-18806809D01*
X27100503Y-18692690D01*
X27100501Y-18692688D01*
X27100500Y-18692686D01*
X27007314Y-18599500D01*
X27007311Y-18599498D01*
X27007309Y-18599496D01*
X26893189Y-18533609D01*
X26893191Y-18533609D01*
X26828919Y-18516388D01*
X26765892Y-18499500D01*
X26634108Y-18499500D01*
X26592814Y-18510564D01*
X26571080Y-18516388D01*
X26509979Y-18513185D01*
X26462429Y-18474680D01*
X26459735Y-18470285D01*
X26400500Y-18367686D01*
X26307314Y-18274500D01*
X26307311Y-18274498D01*
X26307309Y-18274496D01*
X26193189Y-18208609D01*
X26193191Y-18208609D01*
X26143799Y-18195375D01*
X26065892Y-18174500D01*
X25934108Y-18174500D01*
X25856200Y-18195375D01*
X25806809Y-18208609D01*
X25692690Y-18274496D01*
X25692684Y-18274501D01*
X25670002Y-18297183D01*
X25615485Y-18324959D01*
X25555053Y-18315387D01*
X25529998Y-18297183D01*
X25507315Y-18274501D01*
X25507309Y-18274496D01*
X25393189Y-18208609D01*
X25393191Y-18208609D01*
X25343799Y-18195375D01*
X25265892Y-18174500D01*
X25134108Y-18174500D01*
X25056200Y-18195375D01*
X25006809Y-18208609D01*
X24892690Y-18274496D01*
X24892684Y-18274501D01*
X24870002Y-18297183D01*
X24815485Y-18324959D01*
X24755053Y-18315387D01*
X24729998Y-18297183D01*
X24707315Y-18274501D01*
X24707309Y-18274496D01*
X24593189Y-18208609D01*
X24593191Y-18208609D01*
X24543799Y-18195375D01*
X24465892Y-18174500D01*
X24334108Y-18174500D01*
X24256200Y-18195375D01*
X24206809Y-18208609D01*
X24092690Y-18274496D01*
X23999496Y-18367690D01*
X23933609Y-18481809D01*
X23933608Y-18481814D01*
X23899500Y-18609108D01*
X-31699500Y-18609108D01*
X-31699500Y-15434108D01*
X26099500Y-15434108D01*
X26099500Y-15565892D01*
X26129579Y-15678151D01*
X26133609Y-15693190D01*
X26199496Y-15807309D01*
X26199498Y-15807311D01*
X26199500Y-15807314D01*
X26292686Y-15900500D01*
X26292688Y-15900501D01*
X26292690Y-15900503D01*
X26406810Y-15966390D01*
X26406808Y-15966390D01*
X26406812Y-15966391D01*
X26406814Y-15966392D01*
X26534108Y-16000500D01*
X26534110Y-16000500D01*
X26665890Y-16000500D01*
X26665892Y-16000500D01*
X26793186Y-15966392D01*
X26793188Y-15966390D01*
X26793190Y-15966390D01*
X26907309Y-15900503D01*
X26907309Y-15900502D01*
X26907314Y-15900500D01*
X27000500Y-15807314D01*
X27066392Y-15693186D01*
X27100500Y-15565892D01*
X27100500Y-15434108D01*
X27066392Y-15306814D01*
X27066390Y-15306811D01*
X27066390Y-15306809D01*
X27000503Y-15192690D01*
X27000501Y-15192688D01*
X27000500Y-15192686D01*
X26907314Y-15099500D01*
X26907311Y-15099498D01*
X26907309Y-15099496D01*
X26793189Y-15033609D01*
X26793191Y-15033609D01*
X26743799Y-15020375D01*
X26665892Y-14999500D01*
X26534108Y-14999500D01*
X26456200Y-15020375D01*
X26406809Y-15033609D01*
X26292690Y-15099496D01*
X26199496Y-15192690D01*
X26133609Y-15306809D01*
X26133608Y-15306814D01*
X26099500Y-15434108D01*
X-31699500Y-15434108D01*
X-31699500Y-11935931D01*
X-30850500Y-11935931D01*
X-30850500Y-12064069D01*
X-30825501Y-12189744D01*
X-30776465Y-12308127D01*
X-30705276Y-12414669D01*
X-30614669Y-12505276D01*
X-30508127Y-12576465D01*
X-30389744Y-12625501D01*
X-30264069Y-12650500D01*
X-30264068Y-12650500D01*
X-30135932Y-12650500D01*
X-30135931Y-12650500D01*
X-30010256Y-12625501D01*
X-29891873Y-12576465D01*
X-29891870Y-12576463D01*
X-29891866Y-12576461D01*
X-29848848Y-12547717D01*
X-29785331Y-12505276D01*
X-29694724Y-12414669D01*
X-29666365Y-12372226D01*
X-29623538Y-12308133D01*
X-29623534Y-12308125D01*
X-29574500Y-12189747D01*
X-29574499Y-12189742D01*
X-29549500Y-12064069D01*
X-29549500Y-11935931D01*
X-29050500Y-11935931D01*
X-29050500Y-12064069D01*
X-29025501Y-12189744D01*
X-28976465Y-12308127D01*
X-28905276Y-12414669D01*
X-28814669Y-12505276D01*
X-28708127Y-12576465D01*
X-28589744Y-12625501D01*
X-28464069Y-12650500D01*
X-28464068Y-12650500D01*
X-28335932Y-12650500D01*
X-28335931Y-12650500D01*
X-28210256Y-12625501D01*
X-28091873Y-12576465D01*
X-28091870Y-12576463D01*
X-28091866Y-12576461D01*
X-28048848Y-12547717D01*
X-27985331Y-12505276D01*
X-27894724Y-12414669D01*
X-27866365Y-12372226D01*
X-27823538Y-12308133D01*
X-27823534Y-12308125D01*
X-27774500Y-12189747D01*
X-27774499Y-12189742D01*
X-27749500Y-12064069D01*
X-27749500Y-11935930D01*
X-27774499Y-11810257D01*
X-27774500Y-11810252D01*
X-27823534Y-11691874D01*
X-27823538Y-11691866D01*
X-27894724Y-11585331D01*
X-27894727Y-11585327D01*
X-27985327Y-11494727D01*
X-27985331Y-11494724D01*
X-28091866Y-11423538D01*
X-28091874Y-11423534D01*
X-28210252Y-11374500D01*
X-28210255Y-11374499D01*
X-28210256Y-11374499D01*
X-28273093Y-11361999D01*
X-28335930Y-11349500D01*
X-28335931Y-11349500D01*
X-28464069Y-11349500D01*
X-28589744Y-11374499D01*
X-28589745Y-11374499D01*
X-28589747Y-11374500D01*
X-28708125Y-11423534D01*
X-28708133Y-11423538D01*
X-28772226Y-11466365D01*
X-28814669Y-11494724D01*
X-28905276Y-11585331D01*
X-28947717Y-11648848D01*
X-28976461Y-11691866D01*
X-28976463Y-11691870D01*
X-28976465Y-11691873D01*
X-29025501Y-11810256D01*
X-29050500Y-11935931D01*
X-29549500Y-11935931D01*
X-29549500Y-11935930D01*
X-29574499Y-11810257D01*
X-29574500Y-11810252D01*
X-29623534Y-11691874D01*
X-29623538Y-11691866D01*
X-29694724Y-11585331D01*
X-29694727Y-11585327D01*
X-29785327Y-11494727D01*
X-29785331Y-11494724D01*
X-29891866Y-11423538D01*
X-29891874Y-11423534D01*
X-30010252Y-11374500D01*
X-30010255Y-11374499D01*
X-30010256Y-11374499D01*
X-30073093Y-11361999D01*
X-30135930Y-11349500D01*
X-30135931Y-11349500D01*
X-30264069Y-11349500D01*
X-30389744Y-11374499D01*
X-30389745Y-11374499D01*
X-30389747Y-11374500D01*
X-30508125Y-11423534D01*
X-30508133Y-11423538D01*
X-30572226Y-11466365D01*
X-30614669Y-11494724D01*
X-30705276Y-11585331D01*
X-30747717Y-11648848D01*
X-30776461Y-11691866D01*
X-30776463Y-11691870D01*
X-30776465Y-11691873D01*
X-30825501Y-11810256D01*
X-30850500Y-11935931D01*
X-31699500Y-11935931D01*
X-31699500Y-9251004D01*
X29299500Y-9251004D01*
X29299500Y-9388995D01*
X29326420Y-9524327D01*
X29326420Y-9524329D01*
X29379222Y-9651806D01*
X29379228Y-9651817D01*
X29455885Y-9766541D01*
X29553458Y-9864114D01*
X29668182Y-9940771D01*
X29668193Y-9940777D01*
X29715283Y-9960282D01*
X29795672Y-9993580D01*
X29931007Y-10020500D01*
X29931008Y-10020500D01*
X30068992Y-10020500D01*
X30068993Y-10020500D01*
X30204328Y-9993580D01*
X30331811Y-9940775D01*
X30446542Y-9864114D01*
X30544114Y-9766542D01*
X30620775Y-9651811D01*
X30673580Y-9524328D01*
X30700500Y-9388993D01*
X30700500Y-9251007D01*
X30673580Y-9115672D01*
X30620775Y-8988189D01*
X30620774Y-8988187D01*
X30620771Y-8988182D01*
X30544114Y-8873458D01*
X30446541Y-8775885D01*
X30331817Y-8699228D01*
X30331806Y-8699222D01*
X30204328Y-8646420D01*
X30068995Y-8619500D01*
X30068993Y-8619500D01*
X29931007Y-8619500D01*
X29931004Y-8619500D01*
X29795672Y-8646420D01*
X29795670Y-8646420D01*
X29668193Y-8699222D01*
X29668182Y-8699228D01*
X29553458Y-8775885D01*
X29455885Y-8873458D01*
X29379228Y-8988182D01*
X29379222Y-8988193D01*
X29326420Y-9115670D01*
X29326420Y-9115672D01*
X29299500Y-9251004D01*
X-31699500Y-9251004D01*
X-31699500Y-8298808D01*
X3271200Y-8298808D01*
X3271200Y-8430592D01*
X3299607Y-8536608D01*
X3305309Y-8557890D01*
X3371196Y-8672009D01*
X3371198Y-8672011D01*
X3371200Y-8672014D01*
X3464386Y-8765200D01*
X3464388Y-8765201D01*
X3464390Y-8765203D01*
X3578510Y-8831090D01*
X3578508Y-8831090D01*
X3578512Y-8831091D01*
X3578514Y-8831092D01*
X3705808Y-8865200D01*
X3705810Y-8865200D01*
X3837590Y-8865200D01*
X3837592Y-8865200D01*
X3964886Y-8831092D01*
X3964888Y-8831090D01*
X3964890Y-8831090D01*
X4079009Y-8765203D01*
X4079009Y-8765202D01*
X4079014Y-8765200D01*
X4172200Y-8672014D01*
X4238092Y-8557886D01*
X4243793Y-8536608D01*
X26816300Y-8536608D01*
X26816300Y-8668392D01*
X26842239Y-8765200D01*
X26850409Y-8795690D01*
X26916296Y-8909809D01*
X26916298Y-8909811D01*
X26916300Y-8909814D01*
X27009486Y-9003000D01*
X27009488Y-9003001D01*
X27009490Y-9003003D01*
X27123610Y-9068890D01*
X27123608Y-9068890D01*
X27123612Y-9068891D01*
X27123614Y-9068892D01*
X27250908Y-9103000D01*
X27250910Y-9103000D01*
X27382690Y-9103000D01*
X27382692Y-9103000D01*
X27509986Y-9068892D01*
X27509988Y-9068890D01*
X27509990Y-9068890D01*
X27624109Y-9003003D01*
X27624109Y-9003002D01*
X27624114Y-9003000D01*
X27717300Y-8909814D01*
X27743058Y-8865200D01*
X27783190Y-8795690D01*
X27783190Y-8795688D01*
X27783192Y-8795686D01*
X27817300Y-8668392D01*
X27817300Y-8536608D01*
X27783192Y-8409314D01*
X27783190Y-8409311D01*
X27783190Y-8409309D01*
X27717303Y-8295190D01*
X27717301Y-8295188D01*
X27717300Y-8295186D01*
X27624114Y-8202000D01*
X27624111Y-8201998D01*
X27624109Y-8201996D01*
X27509989Y-8136109D01*
X27509991Y-8136109D01*
X27460599Y-8122875D01*
X27382692Y-8102000D01*
X27250908Y-8102000D01*
X27173000Y-8122875D01*
X27123609Y-8136109D01*
X27009490Y-8201996D01*
X26916296Y-8295190D01*
X26850409Y-8409309D01*
X26831339Y-8480478D01*
X26816300Y-8536608D01*
X4243793Y-8536608D01*
X4272200Y-8430592D01*
X4272200Y-8298808D01*
X4238092Y-8171514D01*
X4238090Y-8171511D01*
X4238090Y-8171509D01*
X4172203Y-8057390D01*
X4172201Y-8057388D01*
X4172200Y-8057386D01*
X4079014Y-7964200D01*
X4079011Y-7964198D01*
X4079009Y-7964196D01*
X3964889Y-7898309D01*
X3964891Y-7898309D01*
X3915499Y-7885075D01*
X3837592Y-7864200D01*
X3705808Y-7864200D01*
X3627900Y-7885075D01*
X3578509Y-7898309D01*
X3464390Y-7964196D01*
X3371196Y-8057390D01*
X3305309Y-8171509D01*
X3305308Y-8171514D01*
X3271200Y-8298808D01*
X-31699500Y-8298808D01*
X-31699500Y-172708D01*
X-27984800Y-172708D01*
X-27984800Y-304492D01*
X-27950692Y-431786D01*
X-27884800Y-545914D01*
X-27791614Y-639100D01*
X-27791609Y-639102D01*
X-27791609Y-639103D01*
X-27677489Y-704990D01*
X-27677488Y-704990D01*
X-27677486Y-704992D01*
X-27550192Y-739100D01*
X-27550190Y-739100D01*
X-27418410Y-739100D01*
X-27418408Y-739100D01*
X-27291114Y-704992D01*
X-27291111Y-704990D01*
X-27291109Y-704990D01*
X-27176990Y-639103D01*
X-27176988Y-639101D01*
X-27176986Y-639100D01*
X-27083800Y-545914D01*
X-27083798Y-545911D01*
X-27083796Y-545909D01*
X-27017909Y-431790D01*
X-27013879Y-416751D01*
X-26983800Y-304492D01*
X-26983800Y-172708D01*
X-27017908Y-45414D01*
X-27017909Y-45409D01*
X-27083796Y68709D01*
X-27083798Y68711D01*
X-27083800Y68714D01*
X-27176986Y161900D01*
X-27176988Y161901D01*
X-27176990Y161903D01*
X-27291110Y227790D01*
X-27291108Y227790D01*
X-27291112Y227791D01*
X-27291114Y227792D01*
X-27418408Y261900D01*
X-27550192Y261900D01*
X-27677486Y227792D01*
X-27677488Y227790D01*
X-27677490Y227790D01*
X-27791609Y161903D01*
X-27791614Y161900D01*
X-27884800Y68714D01*
X-27884802Y68709D01*
X-27884803Y68709D01*
X-27950690Y-45409D01*
X-27950690Y-45411D01*
X-27950692Y-45414D01*
X-27984800Y-172708D01*
X-31699500Y-172708D01*
X-31699500Y9340192D01*
X9387000Y9340192D01*
X9387000Y9208408D01*
X9390510Y9195309D01*
X9421109Y9081109D01*
X9486996Y8966990D01*
X9580190Y8873796D01*
X9694310Y8807909D01*
X9694308Y8807909D01*
X9761954Y8789783D01*
X9821608Y8773800D01*
X9821610Y8773800D01*
X9953390Y8773800D01*
X9953392Y8773800D01*
X10080686Y8807908D01*
X10080690Y8807909D01*
X10194809Y8873796D01*
X10194811Y8873798D01*
X10194814Y8873800D01*
X10274906Y8953892D01*
X13303700Y8953892D01*
X13303700Y8953890D01*
X13303700Y8822109D01*
X13337809Y8694809D01*
X13403696Y8580690D01*
X13496890Y8487496D01*
X13611010Y8421609D01*
X13611008Y8421609D01*
X13678654Y8403483D01*
X13738308Y8387500D01*
X13738310Y8387500D01*
X13870090Y8387500D01*
X13870092Y8387500D01*
X13997386Y8421608D01*
X13997390Y8421609D01*
X14111509Y8487496D01*
X14111511Y8487498D01*
X14111514Y8487500D01*
X14204700Y8580686D01*
X14204701Y8580688D01*
X14204703Y8580690D01*
X14270590Y8694809D01*
X14270590Y8694811D01*
X14270592Y8694814D01*
X14304700Y8822108D01*
X14304700Y8953892D01*
X14270592Y9081186D01*
X14204700Y9195314D01*
X14111514Y9288500D01*
X13997389Y9354390D01*
X13997388Y9354390D01*
X13997386Y9354392D01*
X13870092Y9388500D01*
X13738308Y9388500D01*
X13611014Y9354392D01*
X13611011Y9354390D01*
X13611009Y9354390D01*
X13496890Y9288503D01*
X13496888Y9288501D01*
X13496886Y9288500D01*
X13403700Y9195314D01*
X13403698Y9195311D01*
X13403696Y9195309D01*
X13337809Y9081190D01*
X13337808Y9081186D01*
X13303700Y8953892D01*
X10274906Y8953892D01*
X10288000Y8966986D01*
X10312765Y9009881D01*
X10312767Y9009882D01*
X10353890Y9081109D01*
X10353890Y9081111D01*
X10353892Y9081114D01*
X10388000Y9208408D01*
X10388000Y9340192D01*
X10353892Y9467486D01*
X10288000Y9581614D01*
X10194814Y9674800D01*
X10080689Y9740690D01*
X10080688Y9740690D01*
X10080686Y9740692D01*
X9953392Y9774800D01*
X9821608Y9774800D01*
X9694314Y9740692D01*
X9694311Y9740690D01*
X9694309Y9740690D01*
X9580190Y9674803D01*
X9580188Y9674801D01*
X9580186Y9674800D01*
X9487000Y9581614D01*
X9486998Y9581611D01*
X9486996Y9581609D01*
X9421109Y9467490D01*
X9421108Y9467486D01*
X9387000Y9340192D01*
X-31699500Y9340192D01*
X-31699500Y11140892D01*
X24899500Y11140892D01*
X24899500Y11140890D01*
X24899500Y11009109D01*
X24933609Y10881809D01*
X24999496Y10767690D01*
X25092690Y10674496D01*
X25206810Y10608609D01*
X25206808Y10608609D01*
X25274454Y10590483D01*
X25334108Y10574500D01*
X25334110Y10574500D01*
X25465890Y10574500D01*
X25465892Y10574500D01*
X25593186Y10608608D01*
X25593190Y10608609D01*
X25707309Y10674496D01*
X25707311Y10674498D01*
X25707314Y10674500D01*
X25800500Y10767686D01*
X25800501Y10767688D01*
X25800503Y10767690D01*
X25866390Y10881809D01*
X25866390Y10881811D01*
X25866392Y10881814D01*
X25900500Y11009108D01*
X25900500Y11140892D01*
X25866392Y11268186D01*
X25800500Y11382314D01*
X25707314Y11475500D01*
X25593189Y11541390D01*
X25593188Y11541390D01*
X25593186Y11541392D01*
X25465892Y11575500D01*
X25334108Y11575500D01*
X25206814Y11541392D01*
X25206811Y11541390D01*
X25206809Y11541390D01*
X25092690Y11475503D01*
X25092688Y11475501D01*
X25092686Y11475500D01*
X24999500Y11382314D01*
X24999498Y11382311D01*
X24999496Y11382309D01*
X24933609Y11268190D01*
X24933608Y11268186D01*
X24899500Y11140892D01*
X-31699500Y11140892D01*
X-31699500Y12065892D01*
X-13375500Y12065892D01*
X-13375500Y11934108D01*
X-13341392Y11806814D01*
X-13341390Y11806811D01*
X-13341390Y11806809D01*
X-13275503Y11692690D01*
X-13275501Y11692688D01*
X-13275500Y11692686D01*
X-13182314Y11599500D01*
X-13182311Y11599498D01*
X-13182309Y11599496D01*
X-13068189Y11533609D01*
X-13068191Y11533609D01*
X-13018799Y11520375D01*
X-12940892Y11499500D01*
X-12940890Y11499500D01*
X-12809110Y11499500D01*
X-12809108Y11499500D01*
X-12731200Y11520375D01*
X-12681809Y11533609D01*
X-12567690Y11599496D01*
X-12474496Y11692690D01*
X-12408609Y11806809D01*
X-12389539Y11877978D01*
X-12374500Y11934108D01*
X-12374500Y11957592D01*
X5640600Y11957592D01*
X5640600Y11825808D01*
X5645691Y11806809D01*
X5674709Y11698509D01*
X5740596Y11584390D01*
X5833790Y11491196D01*
X5947910Y11425309D01*
X5947908Y11425309D01*
X6015554Y11407183D01*
X6075208Y11391200D01*
X6075210Y11391200D01*
X6206990Y11391200D01*
X6206992Y11391200D01*
X6334286Y11425308D01*
X6334290Y11425309D01*
X6448409Y11491196D01*
X6448411Y11491198D01*
X6448414Y11491200D01*
X6541600Y11584386D01*
X6541601Y11584388D01*
X6541603Y11584390D01*
X6607490Y11698509D01*
X6607490Y11698511D01*
X6607492Y11698514D01*
X6641600Y11825808D01*
X6641600Y11957592D01*
X6607492Y12084886D01*
X6598183Y12101009D01*
X6541603Y12199009D01*
X6541602Y12199009D01*
X6541600Y12199014D01*
X6448414Y12292200D01*
X6334289Y12358090D01*
X6334288Y12358090D01*
X6334286Y12358092D01*
X6206992Y12392200D01*
X6075208Y12392200D01*
X5947914Y12358092D01*
X5947911Y12358090D01*
X5947909Y12358090D01*
X5833790Y12292203D01*
X5833788Y12292201D01*
X5833786Y12292200D01*
X5740600Y12199014D01*
X5740598Y12199011D01*
X5740596Y12199009D01*
X5674709Y12084890D01*
X5674708Y12084886D01*
X5640600Y11957592D01*
X-12374500Y11957592D01*
X-12374500Y12065892D01*
X-12408608Y12193186D01*
X-12408609Y12193190D01*
X-12474496Y12307309D01*
X-12474498Y12307311D01*
X-12474500Y12307314D01*
X-12567686Y12400500D01*
X-12567688Y12400501D01*
X-12567690Y12400503D01*
X-12681810Y12466390D01*
X-12681808Y12466390D01*
X-12681812Y12466391D01*
X-12681814Y12466392D01*
X-12809108Y12500500D01*
X-12940892Y12500500D01*
X-13068186Y12466392D01*
X-13068188Y12466390D01*
X-13068190Y12466390D01*
X-13121677Y12435509D01*
X-13182314Y12400500D01*
X-13275500Y12307314D01*
X-13275502Y12307309D01*
X-13275503Y12307309D01*
X-13301835Y12261700D01*
X-13341392Y12193186D01*
X-13375500Y12065892D01*
X-31699500Y12065892D01*
X-31699500Y12633292D01*
X7358400Y12633292D01*
X7358400Y12633290D01*
X7358400Y12501509D01*
X7392509Y12374209D01*
X7458396Y12260090D01*
X7551590Y12166896D01*
X7665710Y12101009D01*
X7665708Y12101009D01*
X7733354Y12082883D01*
X7793008Y12066900D01*
X7793010Y12066900D01*
X7924790Y12066900D01*
X7924792Y12066900D01*
X8052086Y12101008D01*
X8052090Y12101009D01*
X8166209Y12166896D01*
X8166211Y12166898D01*
X8166214Y12166900D01*
X8259400Y12260086D01*
X8259401Y12260088D01*
X8259403Y12260090D01*
X8325290Y12374209D01*
X8325290Y12374211D01*
X8325292Y12374214D01*
X8359400Y12501508D01*
X8359400Y12622079D01*
X8378307Y12680270D01*
X8427807Y12716234D01*
X8488993Y12716234D01*
X8528401Y12692084D01*
X8574086Y12646400D01*
X8574089Y12646397D01*
X8574090Y12646396D01*
X8688210Y12580509D01*
X8688208Y12580509D01*
X8783639Y12554939D01*
X8812579Y12547184D01*
X8863893Y12513861D01*
X8885820Y12456739D01*
X8869984Y12397639D01*
X8822434Y12359134D01*
X8812585Y12355933D01*
X8706814Y12327592D01*
X8706811Y12327590D01*
X8706809Y12327590D01*
X8592690Y12261703D01*
X8592688Y12261701D01*
X8592686Y12261700D01*
X8499500Y12168514D01*
X8499498Y12168511D01*
X8499496Y12168509D01*
X8433609Y12054390D01*
X8433608Y12054386D01*
X8399500Y11927092D01*
X8399500Y11927090D01*
X8399500Y11795309D01*
X8433609Y11668009D01*
X8499496Y11553890D01*
X8592690Y11460696D01*
X8706810Y11394809D01*
X8706808Y11394809D01*
X8753461Y11382309D01*
X8834108Y11360700D01*
X8834110Y11360700D01*
X8965890Y11360700D01*
X8965892Y11360700D01*
X9093186Y11394808D01*
X9093190Y11394809D01*
X9207309Y11460696D01*
X9207311Y11460698D01*
X9207314Y11460700D01*
X9300500Y11553886D01*
X9300501Y11553888D01*
X9300503Y11553890D01*
X9366390Y11668009D01*
X9366390Y11668011D01*
X9366392Y11668014D01*
X9400500Y11795308D01*
X9400500Y11927092D01*
X9398196Y11935692D01*
X12649500Y11935692D01*
X12649500Y11803908D01*
X12664539Y11747778D01*
X12683609Y11676609D01*
X12749496Y11562490D01*
X12842690Y11469296D01*
X12956810Y11403409D01*
X12956808Y11403409D01*
X13002375Y11391200D01*
X13084108Y11369300D01*
X13084110Y11369300D01*
X13215890Y11369300D01*
X13215892Y11369300D01*
X13343186Y11403408D01*
X13343190Y11403409D01*
X13457309Y11469296D01*
X13457311Y11469298D01*
X13457314Y11469300D01*
X13550500Y11562486D01*
X13550501Y11562488D01*
X13550503Y11562490D01*
X13616390Y11676609D01*
X13616390Y11676611D01*
X13616392Y11676614D01*
X13650500Y11803908D01*
X13650500Y11935692D01*
X13616392Y12062986D01*
X13614715Y12065890D01*
X13550503Y12177109D01*
X13550502Y12177109D01*
X13550500Y12177114D01*
X13457314Y12270300D01*
X13343189Y12336190D01*
X13343188Y12336190D01*
X13343186Y12336192D01*
X13215892Y12370300D01*
X13084108Y12370300D01*
X12956814Y12336192D01*
X12956811Y12336190D01*
X12956809Y12336190D01*
X12842690Y12270303D01*
X12842688Y12270301D01*
X12842686Y12270300D01*
X12749500Y12177114D01*
X12749498Y12177111D01*
X12749496Y12177109D01*
X12683609Y12062990D01*
X12683608Y12062986D01*
X12649500Y11935692D01*
X9398196Y11935692D01*
X9366392Y12054386D01*
X9361424Y12062990D01*
X9300503Y12168509D01*
X9300502Y12168509D01*
X9300500Y12168514D01*
X9207314Y12261700D01*
X9192418Y12270300D01*
X9173406Y12281276D01*
X9093186Y12327592D01*
X8968817Y12360916D01*
X8917506Y12394238D01*
X8895579Y12451359D01*
X8911414Y12510460D01*
X8958964Y12548965D01*
X8968819Y12552168D01*
X8981181Y12555480D01*
X9074586Y12580508D01*
X9074588Y12580509D01*
X9074591Y12580510D01*
X9188709Y12646396D01*
X9188711Y12646398D01*
X9188714Y12646400D01*
X9236906Y12694592D01*
X9560800Y12694592D01*
X9560800Y12562808D01*
X9573915Y12513861D01*
X9594909Y12435509D01*
X9660796Y12321390D01*
X9753990Y12228196D01*
X9868110Y12162309D01*
X9868108Y12162309D01*
X9935754Y12144183D01*
X9995408Y12128200D01*
X9995410Y12128200D01*
X10127190Y12128200D01*
X10127192Y12128200D01*
X10254486Y12162308D01*
X10254490Y12162309D01*
X10368609Y12228196D01*
X10368611Y12228198D01*
X10368614Y12228200D01*
X10461800Y12321386D01*
X10461801Y12321388D01*
X10461803Y12321390D01*
X10527690Y12435509D01*
X10527690Y12435511D01*
X10527692Y12435514D01*
X10561800Y12562808D01*
X10561800Y12694592D01*
X10527692Y12821886D01*
X10483709Y12898066D01*
X10461803Y12936009D01*
X10461802Y12936009D01*
X10461800Y12936014D01*
X10368614Y13029200D01*
X10360660Y13033792D01*
X10254489Y13095090D01*
X10254488Y13095090D01*
X10254486Y13095092D01*
X10127192Y13129200D01*
X9995408Y13129200D01*
X9868114Y13095092D01*
X9868111Y13095090D01*
X9868109Y13095090D01*
X9753990Y13029203D01*
X9753988Y13029201D01*
X9753986Y13029200D01*
X9660800Y12936014D01*
X9660798Y12936011D01*
X9660796Y12936009D01*
X9594909Y12821890D01*
X9594908Y12821886D01*
X9560800Y12694592D01*
X9236906Y12694592D01*
X9281900Y12739586D01*
X9294025Y12760586D01*
X9347791Y12853712D01*
X9353418Y12874709D01*
X9381900Y12981008D01*
X9381900Y13112792D01*
X9347792Y13240086D01*
X9327925Y13274496D01*
X9281903Y13354209D01*
X9281902Y13354209D01*
X9281900Y13354214D01*
X9188714Y13447400D01*
X9074589Y13513290D01*
X9074588Y13513290D01*
X9074586Y13513292D01*
X8947292Y13547400D01*
X8815508Y13547400D01*
X8688214Y13513292D01*
X8688211Y13513290D01*
X8688209Y13513290D01*
X8574090Y13447403D01*
X8574088Y13447401D01*
X8574086Y13447400D01*
X8480900Y13354214D01*
X8480898Y13354211D01*
X8480896Y13354209D01*
X8415009Y13240090D01*
X8415008Y13240086D01*
X8380900Y13112792D01*
X8380900Y13112790D01*
X8380900Y12992221D01*
X8361993Y12934030D01*
X8312493Y12898066D01*
X8251307Y12898066D01*
X8211898Y12922215D01*
X8166214Y12967900D01*
X8052089Y13033790D01*
X8052088Y13033790D01*
X8052086Y13033792D01*
X7924792Y13067900D01*
X7793008Y13067900D01*
X7665714Y13033792D01*
X7665711Y13033790D01*
X7665709Y13033790D01*
X7551590Y12967903D01*
X7551589Y12967902D01*
X7551586Y12967900D01*
X7458400Y12874714D01*
X7458398Y12874711D01*
X7458396Y12874709D01*
X7392509Y12760590D01*
X7392508Y12760586D01*
X7358400Y12633292D01*
X-31699500Y12633292D01*
X-31699500Y15065892D01*
X-13425499Y15065892D01*
X-13425499Y14934108D01*
X-13391391Y14806814D01*
X-13391389Y14806811D01*
X-13391389Y14806809D01*
X-13325502Y14692690D01*
X-13325500Y14692688D01*
X-13325499Y14692686D01*
X-13232313Y14599500D01*
X-13232310Y14599498D01*
X-13232308Y14599496D01*
X-13118188Y14533609D01*
X-13118190Y14533609D01*
X-13076304Y14522386D01*
X-12990891Y14499500D01*
X-12990889Y14499500D01*
X-12859109Y14499500D01*
X-12859107Y14499500D01*
X-12773694Y14522386D01*
X-12731808Y14533609D01*
X-12617689Y14599496D01*
X-12524495Y14692690D01*
X-12458608Y14806809D01*
X-12437311Y14886292D01*
X5300800Y14886292D01*
X5300800Y14754508D01*
X5305683Y14736286D01*
X5334909Y14627209D01*
X5400796Y14513090D01*
X5493990Y14419896D01*
X5608110Y14354009D01*
X5608109Y14354009D01*
X5690048Y14332054D01*
X5741363Y14298729D01*
X5763289Y14241608D01*
X5747453Y14182507D01*
X5742967Y14176159D01*
X5740402Y14172816D01*
X5740400Y14172814D01*
X5740398Y14172810D01*
X5740396Y14172808D01*
X5674509Y14058690D01*
X5674508Y14058686D01*
X5640400Y13931392D01*
X5640400Y13931390D01*
X5640400Y13799609D01*
X5674509Y13672309D01*
X5740396Y13558190D01*
X5833590Y13464996D01*
X5947710Y13399109D01*
X5947708Y13399109D01*
X6015354Y13380983D01*
X6075008Y13365000D01*
X6075010Y13365000D01*
X6206790Y13365000D01*
X6206792Y13365000D01*
X6334086Y13399108D01*
X6334090Y13399109D01*
X6448209Y13464996D01*
X6448211Y13464998D01*
X6448214Y13465000D01*
X6541400Y13558186D01*
X6541401Y13558188D01*
X6541403Y13558190D01*
X6607290Y13672309D01*
X6607290Y13672311D01*
X6607292Y13672314D01*
X6641400Y13799608D01*
X6641400Y13931392D01*
X6607292Y14058686D01*
X6600928Y14069708D01*
X6541403Y14172809D01*
X6541402Y14172809D01*
X6541400Y14172814D01*
X6448214Y14266000D01*
X6334086Y14331892D01*
X6252149Y14353846D01*
X6200837Y14387169D01*
X6178910Y14444290D01*
X6194745Y14503390D01*
X6199233Y14509741D01*
X6201803Y14513090D01*
X6267690Y14627209D01*
X6267690Y14627211D01*
X6267692Y14627214D01*
X6301800Y14754508D01*
X6301800Y14886292D01*
X6299308Y14895592D01*
X7355900Y14895592D01*
X7355900Y14763808D01*
X7370939Y14707678D01*
X7390009Y14636509D01*
X7455896Y14522390D01*
X7549090Y14429196D01*
X7663210Y14363309D01*
X7663208Y14363309D01*
X7730854Y14345183D01*
X7790508Y14329200D01*
X7790510Y14329200D01*
X7922290Y14329200D01*
X7922292Y14329200D01*
X8049586Y14363308D01*
X8049590Y14363309D01*
X8163709Y14429196D01*
X8163711Y14429198D01*
X8163714Y14429200D01*
X8256900Y14522386D01*
X8256901Y14522388D01*
X8256903Y14522390D01*
X8322790Y14636509D01*
X8322790Y14636511D01*
X8322792Y14636514D01*
X8344061Y14715892D01*
X11799500Y14715892D01*
X11799500Y14715890D01*
X11799500Y14584109D01*
X11833609Y14456809D01*
X11899496Y14342690D01*
X11992690Y14249496D01*
X12106810Y14183609D01*
X12106808Y14183609D01*
X12174454Y14165483D01*
X12234108Y14149500D01*
X12234110Y14149500D01*
X12365890Y14149500D01*
X12365892Y14149500D01*
X12493186Y14183608D01*
X12493190Y14183609D01*
X12524164Y14201492D01*
X21909900Y14201492D01*
X21909900Y14069708D01*
X21919216Y14034940D01*
X21944009Y13942409D01*
X22009896Y13828290D01*
X22103090Y13735096D01*
X22217210Y13669209D01*
X22217208Y13669209D01*
X22284854Y13651083D01*
X22344508Y13635100D01*
X22344510Y13635100D01*
X22476290Y13635100D01*
X22476292Y13635100D01*
X22603586Y13669208D01*
X22603590Y13669209D01*
X22717709Y13735096D01*
X22717711Y13735098D01*
X22717714Y13735100D01*
X22730498Y13747884D01*
X22785013Y13775660D01*
X22845445Y13766089D01*
X22888710Y13722824D01*
X22899500Y13677879D01*
X22899500Y13609109D01*
X22933609Y13481809D01*
X22999496Y13367690D01*
X23092690Y13274496D01*
X23206810Y13208609D01*
X23206808Y13208609D01*
X23274454Y13190483D01*
X23334108Y13174500D01*
X23334110Y13174500D01*
X23465890Y13174500D01*
X23465892Y13174500D01*
X23593186Y13208608D01*
X23593190Y13208609D01*
X23707309Y13274496D01*
X23707311Y13274498D01*
X23707314Y13274500D01*
X23800500Y13367686D01*
X23800501Y13367688D01*
X23800503Y13367690D01*
X23866390Y13481809D01*
X23866390Y13481811D01*
X23866392Y13481814D01*
X23900500Y13609108D01*
X23900500Y13740892D01*
X23866392Y13868186D01*
X23823536Y13942414D01*
X23800503Y13982309D01*
X23800502Y13982309D01*
X23800500Y13982314D01*
X23707314Y14075500D01*
X23593189Y14141390D01*
X23593188Y14141390D01*
X23593186Y14141392D01*
X23465892Y14175500D01*
X23334108Y14175500D01*
X23206814Y14141392D01*
X23206811Y14141390D01*
X23206809Y14141390D01*
X23092690Y14075503D01*
X23092688Y14075501D01*
X23092686Y14075500D01*
X23079901Y14062715D01*
X23025387Y14034940D01*
X22964955Y14044511D01*
X22921690Y14087776D01*
X22910900Y14132721D01*
X22910900Y14201490D01*
X22910900Y14201492D01*
X22876792Y14328786D01*
X22874905Y14332054D01*
X22810903Y14442909D01*
X22810902Y14442909D01*
X22810900Y14442914D01*
X22717714Y14536100D01*
X22603589Y14601990D01*
X22603588Y14601990D01*
X22603586Y14601992D01*
X22476292Y14636100D01*
X22344508Y14636100D01*
X22217214Y14601992D01*
X22217211Y14601990D01*
X22217209Y14601990D01*
X22103090Y14536103D01*
X22103088Y14536101D01*
X22103086Y14536100D01*
X22009900Y14442914D01*
X22009898Y14442911D01*
X22009896Y14442909D01*
X21944009Y14328790D01*
X21944008Y14328786D01*
X21909900Y14201492D01*
X12524164Y14201492D01*
X12607309Y14249496D01*
X12607311Y14249498D01*
X12607314Y14249500D01*
X12700500Y14342686D01*
X12700501Y14342688D01*
X12700503Y14342690D01*
X12766390Y14456809D01*
X12766390Y14456811D01*
X12766392Y14456814D01*
X12800500Y14584108D01*
X12800500Y14715892D01*
X12766392Y14843186D01*
X12736136Y14895590D01*
X12700503Y14957309D01*
X12700502Y14957310D01*
X12700500Y14957314D01*
X12607314Y15050500D01*
X12505137Y15109492D01*
X24956500Y15109492D01*
X24956500Y14977708D01*
X24968183Y14934107D01*
X24990609Y14850409D01*
X25056496Y14736290D01*
X25149690Y14643096D01*
X25263810Y14577209D01*
X25263808Y14577209D01*
X25331454Y14559083D01*
X25391108Y14543100D01*
X25391110Y14543100D01*
X25522890Y14543100D01*
X25522892Y14543100D01*
X25650186Y14577208D01*
X25650190Y14577209D01*
X25764309Y14643096D01*
X25764311Y14643098D01*
X25764314Y14643100D01*
X25857500Y14736286D01*
X25857501Y14736288D01*
X25857503Y14736290D01*
X25923390Y14850409D01*
X25923390Y14850411D01*
X25923392Y14850414D01*
X25957500Y14977708D01*
X25957500Y15109492D01*
X25923392Y15236786D01*
X25887590Y15298796D01*
X25857503Y15350909D01*
X25857502Y15350909D01*
X25857500Y15350914D01*
X25764314Y15444100D01*
X25650189Y15509990D01*
X25650188Y15509990D01*
X25650186Y15509992D01*
X25522892Y15544100D01*
X25391108Y15544100D01*
X25263814Y15509992D01*
X25263811Y15509990D01*
X25263809Y15509990D01*
X25149690Y15444103D01*
X25149688Y15444101D01*
X25149686Y15444100D01*
X25056500Y15350914D01*
X25056498Y15350911D01*
X25056496Y15350909D01*
X24990609Y15236790D01*
X24990608Y15236786D01*
X24956500Y15109492D01*
X12505137Y15109492D01*
X12493189Y15116390D01*
X12493188Y15116390D01*
X12493186Y15116392D01*
X12365892Y15150500D01*
X12234108Y15150500D01*
X12106814Y15116392D01*
X12106811Y15116390D01*
X12106809Y15116390D01*
X11992690Y15050503D01*
X11992689Y15050502D01*
X11992686Y15050500D01*
X11899500Y14957314D01*
X11899498Y14957311D01*
X11899496Y14957309D01*
X11833609Y14843190D01*
X11833608Y14843186D01*
X11799500Y14715892D01*
X8344061Y14715892D01*
X8356900Y14763808D01*
X8356900Y14895592D01*
X8322792Y15022886D01*
X8309460Y15045977D01*
X8256903Y15137009D01*
X8256902Y15137009D01*
X8256900Y15137014D01*
X8163714Y15230200D01*
X8049589Y15296090D01*
X8049588Y15296090D01*
X8049586Y15296092D01*
X7922292Y15330200D01*
X7790508Y15330200D01*
X7663214Y15296092D01*
X7663211Y15296090D01*
X7663209Y15296090D01*
X7549090Y15230203D01*
X7549088Y15230201D01*
X7549086Y15230200D01*
X7455900Y15137014D01*
X7455898Y15137011D01*
X7455896Y15137009D01*
X7390009Y15022890D01*
X7390008Y15022886D01*
X7355900Y14895592D01*
X6299308Y14895592D01*
X6267692Y15013586D01*
X6262320Y15022890D01*
X6201803Y15127709D01*
X6201802Y15127709D01*
X6201800Y15127714D01*
X6108614Y15220900D01*
X5994489Y15286790D01*
X5994488Y15286790D01*
X5994486Y15286792D01*
X5867192Y15320900D01*
X5735408Y15320900D01*
X5608114Y15286792D01*
X5608111Y15286790D01*
X5608109Y15286790D01*
X5493990Y15220903D01*
X5493988Y15220901D01*
X5493986Y15220900D01*
X5400800Y15127714D01*
X5400798Y15127711D01*
X5400796Y15127709D01*
X5334909Y15013590D01*
X5334908Y15013586D01*
X5300800Y14886292D01*
X-12437311Y14886292D01*
X-12428707Y14918404D01*
X-12428706Y14918404D01*
X-12424499Y14934107D01*
X-12424499Y15065890D01*
X-12424499Y15065892D01*
X-12458607Y15193186D01*
X-12458608Y15193190D01*
X-12524495Y15307309D01*
X-12524497Y15307311D01*
X-12524499Y15307314D01*
X-12617685Y15400500D01*
X-12617687Y15400501D01*
X-12617689Y15400503D01*
X-12731809Y15466390D01*
X-12731807Y15466390D01*
X-12731811Y15466391D01*
X-12731813Y15466392D01*
X-12859107Y15500500D01*
X-12990891Y15500500D01*
X-13118185Y15466392D01*
X-13118187Y15466390D01*
X-13118189Y15466390D01*
X-13156791Y15444103D01*
X-13232313Y15400500D01*
X-13325499Y15307314D01*
X-13325501Y15307309D01*
X-13325502Y15307309D01*
X-13375390Y15220900D01*
X-13391391Y15193186D01*
X-13425499Y15065892D01*
X-31699500Y15065892D01*
X-31699500Y15884892D01*
X-23342000Y15884892D01*
X-23342000Y15753108D01*
X-23307892Y15625814D01*
X-23307890Y15625811D01*
X-23307890Y15625809D01*
X-23242003Y15511690D01*
X-23242001Y15511688D01*
X-23242000Y15511686D01*
X-23148814Y15418500D01*
X-23148811Y15418498D01*
X-23148809Y15418496D01*
X-23034689Y15352609D01*
X-23034691Y15352609D01*
X-22985299Y15339375D01*
X-22907392Y15318500D01*
X-22907390Y15318500D01*
X-22775610Y15318500D01*
X-22775608Y15318500D01*
X-22697700Y15339375D01*
X-22648309Y15352609D01*
X-22534190Y15418496D01*
X-22440996Y15511690D01*
X-22375109Y15625809D01*
X-22341000Y15753109D01*
X-22341000Y15884890D01*
X-22341000Y15884892D01*
X-22375108Y16012186D01*
X-22375109Y16012190D01*
X-22438207Y16121477D01*
X-22438210Y16121481D01*
X-22440999Y16126312D01*
X-22441000Y16126314D01*
X-22479178Y16164492D01*
X-21948400Y16164492D01*
X-21948400Y16032708D01*
X-21914292Y15905414D01*
X-21914291Y15905412D01*
X-21914290Y15905409D01*
X-21848403Y15791290D01*
X-21848401Y15791288D01*
X-21848400Y15791286D01*
X-21755214Y15698100D01*
X-21755211Y15698098D01*
X-21755209Y15698096D01*
X-21641089Y15632209D01*
X-21641091Y15632209D01*
X-21591699Y15618975D01*
X-21513792Y15598100D01*
X-21513790Y15598100D01*
X-21382010Y15598100D01*
X-21382008Y15598100D01*
X-21304100Y15618975D01*
X-21254709Y15632209D01*
X-21140590Y15698096D01*
X-21073494Y15765192D01*
X-11374800Y15765192D01*
X-11374800Y15633408D01*
X-11340692Y15506114D01*
X-11340690Y15506111D01*
X-11340690Y15506109D01*
X-11274803Y15391990D01*
X-11274801Y15391988D01*
X-11274800Y15391986D01*
X-11181614Y15298800D01*
X-11181611Y15298798D01*
X-11181609Y15298796D01*
X-11067489Y15232909D01*
X-11067491Y15232909D01*
X-11022682Y15220903D01*
X-10940192Y15198800D01*
X-10940190Y15198800D01*
X-10808410Y15198800D01*
X-10808408Y15198800D01*
X-10725918Y15220903D01*
X-10681109Y15232909D01*
X-10566990Y15298796D01*
X-10473796Y15391990D01*
X-10407909Y15506109D01*
X-10374122Y15632208D01*
X-10373800Y15633408D01*
X-10373800Y15765192D01*
X-10407908Y15892486D01*
X-10407909Y15892490D01*
X-10473796Y16006609D01*
X-10473798Y16006611D01*
X-10473800Y16006614D01*
X-10566986Y16099800D01*
X-10566988Y16099801D01*
X-10566990Y16099803D01*
X-10681110Y16165690D01*
X-10681108Y16165690D01*
X-10681112Y16165691D01*
X-10681114Y16165692D01*
X-10808408Y16199800D01*
X-10940192Y16199800D01*
X-11067486Y16165692D01*
X-11067488Y16165690D01*
X-11067490Y16165690D01*
X-11181609Y16099803D01*
X-11181614Y16099800D01*
X-11274800Y16006614D01*
X-11274802Y16006609D01*
X-11274803Y16006609D01*
X-11323762Y15921809D01*
X-11340692Y15892486D01*
X-11374800Y15765192D01*
X-21073494Y15765192D01*
X-21047398Y15791288D01*
X-21030139Y15821182D01*
X-20981508Y15905412D01*
X-20947400Y16032709D01*
X-20947400Y16164490D01*
X-20947400Y16164492D01*
X-20981508Y16291786D01*
X-20981508Y16291787D01*
X-21047398Y16405911D01*
X-21047400Y16405914D01*
X-21095578Y16454092D01*
X-10127300Y16454092D01*
X-10127300Y16322308D01*
X-10093192Y16195014D01*
X-10093190Y16195011D01*
X-10093190Y16195009D01*
X-10027303Y16080890D01*
X-10027301Y16080888D01*
X-10027300Y16080886D01*
X-9934114Y15987700D01*
X-9934111Y15987698D01*
X-9934109Y15987696D01*
X-9819989Y15921809D01*
X-9819991Y15921809D01*
X-9770599Y15908575D01*
X-9692692Y15887700D01*
X-9692690Y15887700D01*
X-9560910Y15887700D01*
X-9560908Y15887700D01*
X-9483000Y15908575D01*
X-9433609Y15921809D01*
X-9319490Y15987696D01*
X-9226296Y16080890D01*
X-9160409Y16195009D01*
X-9134477Y16291790D01*
X-9126300Y16322308D01*
X-9126300Y16454092D01*
X-9157077Y16568958D01*
X-9157077Y16568959D01*
X-9160408Y16581386D01*
X-9160409Y16581389D01*
X-9164279Y16588092D01*
X8174900Y16588092D01*
X8174900Y16456308D01*
X8188403Y16405914D01*
X8209009Y16329009D01*
X8274896Y16214890D01*
X8368090Y16121696D01*
X8482210Y16055809D01*
X8482208Y16055809D01*
X8549854Y16037683D01*
X8609508Y16021700D01*
X8609510Y16021700D01*
X8741290Y16021700D01*
X8741292Y16021700D01*
X8868586Y16055808D01*
X8868590Y16055809D01*
X8982709Y16121696D01*
X8982711Y16121698D01*
X8982714Y16121700D01*
X9075900Y16214886D01*
X9075901Y16214888D01*
X9075903Y16214890D01*
X9141790Y16329009D01*
X9141790Y16329011D01*
X9141792Y16329014D01*
X9175900Y16456308D01*
X9175900Y16588092D01*
X9141792Y16715386D01*
X9075900Y16829514D01*
X8982714Y16922700D01*
X8868589Y16988590D01*
X8868588Y16988590D01*
X8868586Y16988592D01*
X8741292Y17022700D01*
X8609508Y17022700D01*
X8482214Y16988592D01*
X8482211Y16988590D01*
X8482209Y16988590D01*
X8368090Y16922703D01*
X8368088Y16922701D01*
X8368086Y16922700D01*
X8274900Y16829514D01*
X8274898Y16829511D01*
X8274896Y16829509D01*
X8209009Y16715390D01*
X8209008Y16715386D01*
X8174900Y16588092D01*
X-9164279Y16588092D01*
X-9226296Y16695509D01*
X-9226298Y16695511D01*
X-9226300Y16695514D01*
X-9319486Y16788700D01*
X-9319488Y16788701D01*
X-9319490Y16788703D01*
X-9433610Y16854590D01*
X-9433608Y16854590D01*
X-9433612Y16854591D01*
X-9433614Y16854592D01*
X-9560908Y16888700D01*
X-9692692Y16888700D01*
X-9819986Y16854592D01*
X-9819988Y16854590D01*
X-9819990Y16854590D01*
X-9934109Y16788703D01*
X-9934114Y16788700D01*
X-10027300Y16695514D01*
X-10027302Y16695509D01*
X-10027303Y16695509D01*
X-10089321Y16588090D01*
X-10093192Y16581386D01*
X-10127300Y16454092D01*
X-21095578Y16454092D01*
X-21140586Y16499100D01*
X-21140588Y16499101D01*
X-21140590Y16499103D01*
X-21254710Y16564990D01*
X-21254708Y16564990D01*
X-21254712Y16564991D01*
X-21254714Y16564992D01*
X-21382008Y16599100D01*
X-21513792Y16599100D01*
X-21641086Y16564992D01*
X-21641088Y16564990D01*
X-21641090Y16564990D01*
X-21755209Y16499103D01*
X-21755214Y16499100D01*
X-21848400Y16405914D01*
X-21848402Y16405909D01*
X-21848403Y16405909D01*
X-21898291Y16319500D01*
X-21914292Y16291786D01*
X-21948400Y16164492D01*
X-22479178Y16164492D01*
X-22534186Y16219500D01*
X-22534188Y16219501D01*
X-22534190Y16219503D01*
X-22648310Y16285390D01*
X-22648308Y16285390D01*
X-22648312Y16285391D01*
X-22648314Y16285392D01*
X-22775608Y16319500D01*
X-22907392Y16319500D01*
X-23034686Y16285392D01*
X-23034688Y16285390D01*
X-23034690Y16285390D01*
X-23148809Y16219503D01*
X-23148814Y16219500D01*
X-23242000Y16126314D01*
X-23307892Y16012186D01*
X-23342000Y15884892D01*
X-31699500Y15884892D01*
X-31699500Y18165892D01*
X-23450500Y18165892D01*
X-23450500Y18034108D01*
X-23416392Y17906814D01*
X-23416390Y17906811D01*
X-23416390Y17906809D01*
X-23350503Y17792690D01*
X-23350501Y17792688D01*
X-23350500Y17792686D01*
X-23257314Y17699500D01*
X-23257311Y17699498D01*
X-23257309Y17699496D01*
X-23143189Y17633609D01*
X-23143191Y17633609D01*
X-23093799Y17620375D01*
X-23015892Y17599500D01*
X-23015890Y17599500D01*
X-22884110Y17599500D01*
X-22884108Y17599500D01*
X-22806200Y17620375D01*
X-22756809Y17633609D01*
X-22642690Y17699496D01*
X-22549496Y17792690D01*
X-22483609Y17906809D01*
X-22449500Y18034109D01*
X-22449500Y18165890D01*
X-22449500Y18165892D01*
X-22481707Y18286092D01*
X-21342800Y18286092D01*
X-21342800Y18154308D01*
X-21308692Y18027014D01*
X-21308690Y18027011D01*
X-21308690Y18027009D01*
X-21242803Y17912890D01*
X-21242802Y17912889D01*
X-21242800Y17912886D01*
X-21149614Y17819700D01*
X-21149611Y17819698D01*
X-21149609Y17819696D01*
X-21035489Y17753809D01*
X-21035491Y17753809D01*
X-20986099Y17740575D01*
X-20908192Y17719700D01*
X-20908190Y17719700D01*
X-20776410Y17719700D01*
X-20776408Y17719700D01*
X-20698500Y17740575D01*
X-20649109Y17753809D01*
X-20621253Y17769892D01*
X3271200Y17769892D01*
X3271200Y17638108D01*
X3272406Y17633608D01*
X3305309Y17510809D01*
X3371196Y17396690D01*
X3464390Y17303496D01*
X3578510Y17237609D01*
X3578508Y17237609D01*
X3646154Y17219483D01*
X3705808Y17203500D01*
X3705810Y17203500D01*
X3837590Y17203500D01*
X3837592Y17203500D01*
X3964886Y17237608D01*
X3964890Y17237609D01*
X4079009Y17303496D01*
X4079011Y17303498D01*
X4079014Y17303500D01*
X4172200Y17396686D01*
X4172201Y17396688D01*
X4172203Y17396690D01*
X4238090Y17510809D01*
X4238090Y17510811D01*
X4238092Y17510814D01*
X4272200Y17638108D01*
X4272200Y17769892D01*
X7365200Y17769892D01*
X7365200Y17638108D01*
X7366406Y17633608D01*
X7399309Y17510809D01*
X7465196Y17396690D01*
X7558390Y17303496D01*
X7672510Y17237609D01*
X7672508Y17237609D01*
X7740154Y17219483D01*
X7799808Y17203500D01*
X7799810Y17203500D01*
X7931590Y17203500D01*
X7931592Y17203500D01*
X8058886Y17237608D01*
X8058890Y17237609D01*
X8173009Y17303496D01*
X8173011Y17303498D01*
X8173014Y17303500D01*
X8234706Y17365192D01*
X10096800Y17365192D01*
X10096800Y17365190D01*
X10096800Y17233409D01*
X10130909Y17106109D01*
X10196796Y16991990D01*
X10289990Y16898796D01*
X10404110Y16832909D01*
X10404108Y16832909D01*
X10471754Y16814783D01*
X10531408Y16798800D01*
X10531410Y16798800D01*
X10663190Y16798800D01*
X10663192Y16798800D01*
X10790486Y16832908D01*
X10790490Y16832909D01*
X10904609Y16898796D01*
X10904611Y16898798D01*
X10904614Y16898800D01*
X10997800Y16991986D01*
X10997801Y16991988D01*
X10997803Y16991990D01*
X11063690Y17106109D01*
X11063690Y17106111D01*
X11063692Y17106114D01*
X11097800Y17233408D01*
X11097800Y17365192D01*
X11063692Y17492486D01*
X11053110Y17510814D01*
X10997803Y17606609D01*
X10997802Y17606609D01*
X10997800Y17606614D01*
X10904614Y17699800D01*
X10790489Y17765690D01*
X10790488Y17765690D01*
X10790486Y17765692D01*
X10663192Y17799800D01*
X10531408Y17799800D01*
X10404114Y17765692D01*
X10404111Y17765690D01*
X10404109Y17765690D01*
X10289990Y17699803D01*
X10289988Y17699801D01*
X10289986Y17699800D01*
X10196800Y17606614D01*
X10196798Y17606611D01*
X10196796Y17606609D01*
X10130909Y17492490D01*
X10130908Y17492486D01*
X10096800Y17365192D01*
X8234706Y17365192D01*
X8266200Y17396686D01*
X8266201Y17396688D01*
X8266203Y17396690D01*
X8280343Y17421181D01*
X8332090Y17510809D01*
X8332090Y17510811D01*
X8332092Y17510814D01*
X8366200Y17638108D01*
X8366200Y17769892D01*
X8332092Y17897186D01*
X8326533Y17906814D01*
X8266203Y18011309D01*
X8266202Y18011309D01*
X8266200Y18011314D01*
X8173014Y18104500D01*
X8058889Y18170390D01*
X8058888Y18170390D01*
X8058886Y18170392D01*
X7931592Y18204500D01*
X7799808Y18204500D01*
X7672514Y18170392D01*
X7672511Y18170390D01*
X7672509Y18170390D01*
X7558390Y18104503D01*
X7558388Y18104501D01*
X7558386Y18104500D01*
X7465200Y18011314D01*
X7465198Y18011311D01*
X7465196Y18011309D01*
X7399309Y17897190D01*
X7399308Y17897186D01*
X7365200Y17769892D01*
X4272200Y17769892D01*
X4238092Y17897186D01*
X4232533Y17906814D01*
X4172203Y18011309D01*
X4172202Y18011309D01*
X4172200Y18011314D01*
X4079014Y18104500D01*
X3964889Y18170390D01*
X3964888Y18170390D01*
X3964886Y18170392D01*
X3837592Y18204500D01*
X3705808Y18204500D01*
X3578514Y18170392D01*
X3578511Y18170390D01*
X3578509Y18170390D01*
X3464390Y18104503D01*
X3464388Y18104501D01*
X3464386Y18104500D01*
X3371200Y18011314D01*
X3371198Y18011311D01*
X3371196Y18011309D01*
X3305309Y17897190D01*
X3305308Y17897186D01*
X3271200Y17769892D01*
X-20621253Y17769892D01*
X-20534990Y17819696D01*
X-20534989Y17819697D01*
X-20534986Y17819700D01*
X-20441800Y17912886D01*
X-20441799Y17912886D01*
X-20441797Y17912889D01*
X-20441796Y17912890D01*
X-20375909Y18027009D01*
X-20341800Y18154309D01*
X-20341800Y18286090D01*
X-20341800Y18286092D01*
X-20375908Y18413386D01*
X-20375909Y18413390D01*
X-20441796Y18527509D01*
X-20441798Y18527511D01*
X-20441800Y18527514D01*
X-20534986Y18620700D01*
X-20534988Y18620701D01*
X-20534990Y18620703D01*
X-20649110Y18686590D01*
X-20649108Y18686590D01*
X-20649112Y18686591D01*
X-20649114Y18686592D01*
X-20776408Y18720700D01*
X-20908192Y18720700D01*
X-21035486Y18686592D01*
X-21035488Y18686590D01*
X-21035490Y18686590D01*
X-21149609Y18620703D01*
X-21149614Y18620700D01*
X-21242800Y18527514D01*
X-21308692Y18413386D01*
X-21342800Y18286092D01*
X-22481707Y18286092D01*
X-22483608Y18293186D01*
X-22483609Y18293189D01*
X-22549496Y18407309D01*
X-22549498Y18407311D01*
X-22549500Y18407314D01*
X-22642686Y18500500D01*
X-22642688Y18500501D01*
X-22642690Y18500503D01*
X-22710558Y18539687D01*
X-22751499Y18585156D01*
X-22757895Y18646007D01*
X-22727302Y18698995D01*
X-22686682Y18721049D01*
X-22639814Y18733607D01*
X-22639810Y18733609D01*
X-22525690Y18799496D01*
X-22432496Y18892690D01*
X-22390233Y18965892D01*
X-12325500Y18965892D01*
X-12325500Y18834108D01*
X-12291392Y18706814D01*
X-12291390Y18706811D01*
X-12291390Y18706809D01*
X-12225503Y18592690D01*
X-12225501Y18592688D01*
X-12225500Y18592686D01*
X-12132314Y18499500D01*
X-12132311Y18499498D01*
X-12132309Y18499496D01*
X-12018189Y18433609D01*
X-12018191Y18433609D01*
X-11968799Y18420375D01*
X-11890892Y18399500D01*
X-11890890Y18399500D01*
X-11759110Y18399500D01*
X-11759108Y18399500D01*
X-11681200Y18420375D01*
X-11631809Y18433609D01*
X-11517690Y18499496D01*
X-11424496Y18592690D01*
X-11358609Y18706809D01*
X-11331681Y18807309D01*
X-11324500Y18834108D01*
X-11324500Y18965892D01*
X-11351428Y19066392D01*
X7357000Y19066392D01*
X7357000Y18934608D01*
X7365954Y18901192D01*
X7391109Y18807309D01*
X7456996Y18693190D01*
X7550190Y18599996D01*
X7664310Y18534109D01*
X7664308Y18534109D01*
X7731954Y18515983D01*
X7791608Y18500000D01*
X7791610Y18500000D01*
X7923390Y18500000D01*
X7923392Y18500000D01*
X7925975Y18500692D01*
X10624700Y18500692D01*
X10624700Y18500690D01*
X10624700Y18368909D01*
X10658809Y18241609D01*
X10724696Y18127490D01*
X10817890Y18034296D01*
X10932010Y17968409D01*
X10932008Y17968409D01*
X10999654Y17950283D01*
X11059308Y17934300D01*
X11059310Y17934300D01*
X11191090Y17934300D01*
X11191092Y17934300D01*
X11318386Y17968408D01*
X11318390Y17968409D01*
X11432509Y18034296D01*
X11432511Y18034298D01*
X11432514Y18034300D01*
X11525700Y18127486D01*
X11525701Y18127488D01*
X11525703Y18127490D01*
X11591590Y18241609D01*
X11591590Y18241611D01*
X11591592Y18241614D01*
X11625700Y18368908D01*
X11625700Y18500692D01*
X11591592Y18627986D01*
X11576577Y18653992D01*
X11525703Y18742109D01*
X11525702Y18742109D01*
X11525700Y18742114D01*
X11432514Y18835300D01*
X11318389Y18901190D01*
X11318388Y18901190D01*
X11318386Y18901192D01*
X11191092Y18935300D01*
X11059308Y18935300D01*
X10932014Y18901192D01*
X10932011Y18901190D01*
X10932009Y18901190D01*
X10817890Y18835303D01*
X10817888Y18835301D01*
X10817886Y18835300D01*
X10724700Y18742114D01*
X10724698Y18742111D01*
X10724696Y18742109D01*
X10658809Y18627990D01*
X10658808Y18627986D01*
X10624700Y18500692D01*
X7925975Y18500692D01*
X8050686Y18534108D01*
X8050690Y18534109D01*
X8152533Y18592908D01*
X8152544Y18592916D01*
X8164814Y18600000D01*
X8258000Y18693186D01*
X8258001Y18693188D01*
X8258003Y18693190D01*
X8323890Y18807309D01*
X8323890Y18807311D01*
X8323892Y18807314D01*
X8358000Y18934608D01*
X8358000Y19066392D01*
X8323892Y19193686D01*
X8270594Y19286000D01*
X8258003Y19307809D01*
X8258002Y19307810D01*
X8258000Y19307814D01*
X8164814Y19401000D01*
X8062117Y19460292D01*
X8660900Y19460292D01*
X8660900Y19328508D01*
X8663151Y19320108D01*
X8695009Y19201209D01*
X8760896Y19087090D01*
X8854090Y18993896D01*
X8968210Y18928009D01*
X8968208Y18928009D01*
X9035854Y18909883D01*
X9095508Y18893900D01*
X9095510Y18893900D01*
X9227290Y18893900D01*
X9227292Y18893900D01*
X9354586Y18928008D01*
X9354590Y18928009D01*
X9468709Y18993896D01*
X9468711Y18993898D01*
X9468714Y18993900D01*
X9561900Y19087086D01*
X9561901Y19087088D01*
X9561903Y19087090D01*
X9627790Y19201209D01*
X9627790Y19201211D01*
X9627792Y19201214D01*
X9661900Y19328508D01*
X9661900Y19340692D01*
X19242700Y19340692D01*
X19242700Y19208908D01*
X19244762Y19201214D01*
X19276809Y19081609D01*
X19342696Y18967490D01*
X19435890Y18874296D01*
X19550010Y18808409D01*
X19550008Y18808409D01*
X19617654Y18790283D01*
X19677308Y18774300D01*
X19677310Y18774300D01*
X19809090Y18774300D01*
X19809092Y18774300D01*
X19921351Y18804379D01*
X19936390Y18808409D01*
X20050509Y18874296D01*
X20050511Y18874298D01*
X20050514Y18874300D01*
X20143700Y18967486D01*
X20143701Y18967488D01*
X20143703Y18967490D01*
X20209590Y19081609D01*
X20209590Y19081611D01*
X20209592Y19081614D01*
X20243700Y19208908D01*
X20243700Y19340692D01*
X20239032Y19358112D01*
X20242232Y19419211D01*
X20280736Y19466763D01*
X20309032Y19479362D01*
X20333088Y19485808D01*
X20333089Y19485809D01*
X20447209Y19551696D01*
X20447211Y19551698D01*
X20447214Y19551700D01*
X20540400Y19644886D01*
X20540401Y19644888D01*
X20540403Y19644890D01*
X20606290Y19759009D01*
X20606290Y19759011D01*
X20606292Y19759014D01*
X20640400Y19886308D01*
X20640400Y20018092D01*
X20606292Y20145386D01*
X20582264Y20187003D01*
X20540403Y20259509D01*
X20540402Y20259509D01*
X20540400Y20259514D01*
X20447214Y20352700D01*
X20333089Y20418590D01*
X20333088Y20418590D01*
X20333086Y20418592D01*
X20205792Y20452700D01*
X20074008Y20452700D01*
X19946714Y20418592D01*
X19946711Y20418590D01*
X19946709Y20418590D01*
X19832590Y20352703D01*
X19832588Y20352701D01*
X19832586Y20352700D01*
X19739400Y20259514D01*
X19739398Y20259511D01*
X19739396Y20259509D01*
X19673509Y20145390D01*
X19673508Y20145386D01*
X19639400Y20018092D01*
X19639400Y20018090D01*
X19639400Y19886308D01*
X19644069Y19868881D01*
X19640864Y19807780D01*
X19602357Y19760232D01*
X19574065Y19747636D01*
X19550014Y19741192D01*
X19550013Y19741191D01*
X19550011Y19741191D01*
X19550010Y19741190D01*
X19435890Y19675303D01*
X19435888Y19675301D01*
X19435886Y19675300D01*
X19342700Y19582114D01*
X19342698Y19582111D01*
X19342696Y19582109D01*
X19276809Y19467990D01*
X19276808Y19467986D01*
X19242700Y19340692D01*
X9661900Y19340692D01*
X9661900Y19460292D01*
X9627792Y19587586D01*
X9620334Y19600503D01*
X9561903Y19701709D01*
X9561902Y19701709D01*
X9561900Y19701714D01*
X9468714Y19794900D01*
X9354589Y19860790D01*
X9354588Y19860790D01*
X9354586Y19860792D01*
X9227292Y19894900D01*
X9095508Y19894900D01*
X8968214Y19860792D01*
X8968211Y19860790D01*
X8968209Y19860790D01*
X8854090Y19794903D01*
X8854088Y19794901D01*
X8854086Y19794900D01*
X8760900Y19701714D01*
X8760898Y19701711D01*
X8760896Y19701709D01*
X8695009Y19587590D01*
X8695008Y19587586D01*
X8660900Y19460292D01*
X8062117Y19460292D01*
X8050689Y19466890D01*
X8050688Y19466890D01*
X8050686Y19466892D01*
X7923392Y19501000D01*
X7791608Y19501000D01*
X7664314Y19466892D01*
X7664311Y19466890D01*
X7664309Y19466890D01*
X7550190Y19401003D01*
X7550189Y19401002D01*
X7550186Y19401000D01*
X7457000Y19307814D01*
X7456998Y19307811D01*
X7456996Y19307809D01*
X7391109Y19193690D01*
X7391108Y19193686D01*
X7357000Y19066392D01*
X-11351428Y19066392D01*
X-11355507Y19081614D01*
X-11358609Y19093190D01*
X-11424496Y19207309D01*
X-11424498Y19207311D01*
X-11424500Y19207314D01*
X-11517686Y19300500D01*
X-11517688Y19300501D01*
X-11517690Y19300503D01*
X-11631810Y19366390D01*
X-11631808Y19366390D01*
X-11631812Y19366391D01*
X-11631814Y19366392D01*
X-11759108Y19400500D01*
X-11890892Y19400500D01*
X-12018186Y19366392D01*
X-12018188Y19366390D01*
X-12018190Y19366390D01*
X-12132309Y19300503D01*
X-12132314Y19300500D01*
X-12225500Y19207314D01*
X-12291392Y19093186D01*
X-12325500Y18965892D01*
X-22390233Y18965892D01*
X-22366611Y19006806D01*
X-22366608Y19006813D01*
X-22332500Y19134109D01*
X-22332500Y19265890D01*
X-22332500Y19265892D01*
X-22364681Y19385996D01*
X-22366609Y19393190D01*
X-22432496Y19507309D01*
X-22432498Y19507311D01*
X-22432500Y19507314D01*
X-22525686Y19600500D01*
X-22525688Y19600501D01*
X-22525690Y19600503D01*
X-22639810Y19666390D01*
X-22639808Y19666390D01*
X-22639812Y19666391D01*
X-22639814Y19666392D01*
X-22767108Y19700500D01*
X-22898892Y19700500D01*
X-23026186Y19666392D01*
X-23026188Y19666390D01*
X-23026190Y19666390D01*
X-23140309Y19600503D01*
X-23140314Y19600500D01*
X-23233500Y19507314D01*
X-23233502Y19507309D01*
X-23233503Y19507309D01*
X-23295169Y19400500D01*
X-23299392Y19393186D01*
X-23333500Y19265892D01*
X-23333500Y19134108D01*
X-23299392Y19006814D01*
X-23299391Y19006813D01*
X-23299390Y19006809D01*
X-23233503Y18892690D01*
X-23233501Y18892688D01*
X-23233500Y18892686D01*
X-23140314Y18799500D01*
X-23140311Y18799498D01*
X-23072440Y18760312D01*
X-23031500Y18714842D01*
X-23025105Y18653992D01*
X-23055698Y18601004D01*
X-23096315Y18578950D01*
X-23143186Y18566392D01*
X-23143189Y18566390D01*
X-23256981Y18500692D01*
X-23257314Y18500500D01*
X-23350500Y18407314D01*
X-23350502Y18407309D01*
X-23350503Y18407309D01*
X-23355011Y18399500D01*
X-23416392Y18293186D01*
X-23450500Y18165892D01*
X-31699500Y18165892D01*
X-31699500Y19852392D01*
X-22252100Y19852392D01*
X-22252100Y19720608D01*
X-22217992Y19593314D01*
X-22217990Y19593311D01*
X-22217990Y19593309D01*
X-22152103Y19479190D01*
X-22152101Y19479188D01*
X-22152100Y19479186D01*
X-22058914Y19386000D01*
X-22058911Y19385998D01*
X-22058909Y19385996D01*
X-21944789Y19320109D01*
X-21944791Y19320109D01*
X-21898904Y19307814D01*
X-21817492Y19286000D01*
X-21817490Y19286000D01*
X-21685710Y19286000D01*
X-21685708Y19286000D01*
X-21604296Y19307814D01*
X-21558409Y19320109D01*
X-21444290Y19385996D01*
X-21351096Y19479190D01*
X-21285209Y19593309D01*
X-21258044Y19694692D01*
X5255300Y19694692D01*
X5255300Y19694690D01*
X5255300Y19562909D01*
X5289409Y19435609D01*
X5355296Y19321490D01*
X5448490Y19228296D01*
X5562610Y19162409D01*
X5562608Y19162409D01*
X5630254Y19144283D01*
X5689908Y19128300D01*
X5689910Y19128300D01*
X5821690Y19128300D01*
X5821692Y19128300D01*
X5906554Y19151038D01*
X5948987Y19162408D01*
X5948992Y19162411D01*
X6063109Y19228296D01*
X6063111Y19228298D01*
X6063114Y19228300D01*
X6156300Y19321486D01*
X6156301Y19321488D01*
X6156303Y19321490D01*
X6222190Y19435609D01*
X6222190Y19435611D01*
X6222192Y19435614D01*
X6256300Y19562908D01*
X6256300Y19694692D01*
X6222192Y19821986D01*
X6199788Y19860790D01*
X6156303Y19936109D01*
X6156302Y19936109D01*
X6156300Y19936114D01*
X6063114Y20029300D01*
X5948989Y20095190D01*
X5948988Y20095190D01*
X5948986Y20095192D01*
X5821692Y20129300D01*
X5689908Y20129300D01*
X5562614Y20095192D01*
X5562611Y20095190D01*
X5562609Y20095190D01*
X5448490Y20029303D01*
X5448488Y20029301D01*
X5448486Y20029300D01*
X5355300Y19936114D01*
X5355298Y19936111D01*
X5355296Y19936109D01*
X5289409Y19821990D01*
X5289408Y19821986D01*
X5255300Y19694692D01*
X-21258044Y19694692D01*
X-21251100Y19720608D01*
X-21251100Y19852390D01*
X-21251100Y19852392D01*
X-21285208Y19979686D01*
X-21285209Y19979690D01*
X-21351096Y20093809D01*
X-21351098Y20093811D01*
X-21351100Y20093814D01*
X-21444286Y20187000D01*
X-21444288Y20187001D01*
X-21444290Y20187003D01*
X-21558410Y20252890D01*
X-21558408Y20252890D01*
X-21558412Y20252891D01*
X-21558414Y20252892D01*
X-21685708Y20287000D01*
X-21817492Y20287000D01*
X-21944786Y20252892D01*
X-21944788Y20252890D01*
X-21944790Y20252890D01*
X-22058909Y20187003D01*
X-22058914Y20187000D01*
X-22152100Y20093814D01*
X-22152102Y20093809D01*
X-22152103Y20093809D01*
X-22195819Y20018090D01*
X-22217992Y19979686D01*
X-22252100Y19852392D01*
X-31699500Y19852392D01*
X-31699500Y20905892D01*
X-21457500Y20905892D01*
X-21457500Y20774108D01*
X-21423392Y20646814D01*
X-21423390Y20646811D01*
X-21423390Y20646809D01*
X-21357503Y20532690D01*
X-21357501Y20532688D01*
X-21357500Y20532686D01*
X-21264314Y20439500D01*
X-21264311Y20439498D01*
X-21264309Y20439496D01*
X-21150189Y20373609D01*
X-21150191Y20373609D01*
X-21100799Y20360375D01*
X-21022892Y20339500D01*
X-21022890Y20339500D01*
X-20891110Y20339500D01*
X-20891108Y20339500D01*
X-20813200Y20360375D01*
X-20763809Y20373609D01*
X-20649690Y20439496D01*
X-20556496Y20532690D01*
X-20490609Y20646809D01*
X-20456500Y20774109D01*
X-20456500Y20905890D01*
X-20456500Y20905892D01*
X-20490608Y21033186D01*
X-20490609Y21033190D01*
X-20556496Y21147309D01*
X-20556498Y21147311D01*
X-20556500Y21147314D01*
X-20649686Y21240500D01*
X-20649688Y21240501D01*
X-20649690Y21240503D01*
X-20763810Y21306390D01*
X-20763808Y21306390D01*
X-20763812Y21306391D01*
X-20763814Y21306392D01*
X-20891108Y21340500D01*
X-21022892Y21340500D01*
X-21150186Y21306392D01*
X-21150188Y21306390D01*
X-21150190Y21306390D01*
X-21181375Y21288385D01*
X-21264314Y21240500D01*
X-21357500Y21147314D01*
X-21357502Y21147309D01*
X-21357503Y21147309D01*
X-21407328Y21061009D01*
X-21423392Y21033186D01*
X-21457500Y20905892D01*
X-31699500Y20905892D01*
X-31699500Y22389692D01*
X-23338100Y22389692D01*
X-23338100Y22257908D01*
X-23303992Y22130614D01*
X-23303990Y22130611D01*
X-23303990Y22130609D01*
X-23238103Y22016490D01*
X-23238101Y22016488D01*
X-23238100Y22016486D01*
X-23144914Y21923300D01*
X-23144911Y21923298D01*
X-23144909Y21923296D01*
X-23030789Y21857409D01*
X-23030791Y21857409D01*
X-23001273Y21849500D01*
X-22903492Y21823300D01*
X-22903490Y21823300D01*
X-22771710Y21823300D01*
X-22771708Y21823300D01*
X-22673927Y21849500D01*
X-22644409Y21857409D01*
X-22530290Y21923296D01*
X-22530284Y21923301D01*
X-22495399Y21958186D01*
X-22440882Y21985963D01*
X-22380450Y21976391D01*
X-22337186Y21933126D01*
X-22329772Y21913811D01*
X-22328192Y21907914D01*
X-22328189Y21907910D01*
X-22328189Y21907907D01*
X-22262303Y21793790D01*
X-22262301Y21793788D01*
X-22262300Y21793786D01*
X-22169114Y21700600D01*
X-22169111Y21700598D01*
X-22169109Y21700596D01*
X-22054989Y21634709D01*
X-22054991Y21634709D01*
X-22005599Y21621475D01*
X-21927692Y21600600D01*
X-21927690Y21600600D01*
X-21795910Y21600600D01*
X-21795908Y21600600D01*
X-21718000Y21621475D01*
X-21668609Y21634709D01*
X-21554490Y21700596D01*
X-21461296Y21793790D01*
X-21424859Y21856902D01*
X-21379390Y21897843D01*
X-21318539Y21904239D01*
X-21269121Y21877407D01*
X-21264314Y21872600D01*
X-21264311Y21872598D01*
X-21264309Y21872596D01*
X-21150189Y21806709D01*
X-21150191Y21806709D01*
X-21101975Y21793790D01*
X-21022892Y21772600D01*
X-21022890Y21772600D01*
X-20891110Y21772600D01*
X-20891108Y21772600D01*
X-20812025Y21793790D01*
X-20763809Y21806709D01*
X-20678968Y21855692D01*
X-11385700Y21855692D01*
X-11385700Y21723908D01*
X-11351592Y21596614D01*
X-11351590Y21596611D01*
X-11351590Y21596609D01*
X-11285703Y21482490D01*
X-11285701Y21482488D01*
X-11285700Y21482486D01*
X-11192514Y21389300D01*
X-11192511Y21389298D01*
X-11192509Y21389296D01*
X-11096481Y21333854D01*
X-11055540Y21288385D01*
X-11049144Y21227534D01*
X-11079737Y21174546D01*
X-11096475Y21162385D01*
X-11189114Y21108900D01*
X-11282300Y21015714D01*
X-11348192Y20901586D01*
X-11382300Y20774292D01*
X-11382300Y20642508D01*
X-11348192Y20515214D01*
X-11348190Y20515211D01*
X-11348190Y20515209D01*
X-11282303Y20401090D01*
X-11282301Y20401088D01*
X-11282300Y20401086D01*
X-11189114Y20307900D01*
X-11189111Y20307898D01*
X-11189109Y20307896D01*
X-11074989Y20242009D01*
X-11074991Y20242009D01*
X-11025599Y20228775D01*
X-10947692Y20207900D01*
X-10947690Y20207900D01*
X-10815910Y20207900D01*
X-10815908Y20207900D01*
X-10738000Y20228775D01*
X-10688609Y20242009D01*
X-10574490Y20307896D01*
X-10481296Y20401090D01*
X-10415409Y20515209D01*
X-10381300Y20642509D01*
X-10381300Y20774294D01*
X-10388304Y20800432D01*
X-10388304Y20800435D01*
X-10393437Y20819592D01*
X9065300Y20819592D01*
X9065300Y20819590D01*
X9065300Y20687809D01*
X9099409Y20560509D01*
X9165296Y20446390D01*
X9258490Y20353196D01*
X9372610Y20287309D01*
X9372608Y20287309D01*
X9440254Y20269183D01*
X9499908Y20253200D01*
X9499910Y20253200D01*
X9631690Y20253200D01*
X9631692Y20253200D01*
X9758986Y20287308D01*
X9758990Y20287309D01*
X9873109Y20353196D01*
X9873111Y20353198D01*
X9873114Y20353200D01*
X9966300Y20446386D01*
X9966301Y20446388D01*
X9966303Y20446390D01*
X10032190Y20560509D01*
X10032190Y20560511D01*
X10032192Y20560514D01*
X10066300Y20687808D01*
X10066300Y20819592D01*
X10032192Y20946886D01*
X9966300Y21061014D01*
X9873114Y21154200D01*
X9758989Y21220090D01*
X9758988Y21220090D01*
X9758986Y21220092D01*
X9631692Y21254200D01*
X9499908Y21254200D01*
X9372614Y21220092D01*
X9372611Y21220090D01*
X9372609Y21220090D01*
X9258490Y21154203D01*
X9258488Y21154201D01*
X9258486Y21154200D01*
X9165300Y21061014D01*
X9165298Y21061011D01*
X9165296Y21061009D01*
X9099409Y20946890D01*
X9099408Y20946886D01*
X9065300Y20819592D01*
X-10393437Y20819592D01*
X-10415408Y20901586D01*
X-10415409Y20901590D01*
X-10481296Y21015709D01*
X-10481298Y21015711D01*
X-10481300Y21015714D01*
X-10574486Y21108900D01*
X-10574488Y21108901D01*
X-10574490Y21108903D01*
X-10670518Y21164345D01*
X-10711459Y21209814D01*
X-10717855Y21270664D01*
X-10687262Y21323652D01*
X-10670519Y21335817D01*
X-10577888Y21389298D01*
X-10484696Y21482490D01*
X-10418809Y21596609D01*
X-10399739Y21667778D01*
X-10384700Y21723908D01*
X-10384700Y21855692D01*
X-10418808Y21982986D01*
X-10418809Y21982990D01*
X-10484696Y22097109D01*
X-10484698Y22097111D01*
X-10484700Y22097114D01*
X-10577886Y22190300D01*
X-10577888Y22190301D01*
X-10577890Y22190303D01*
X-10658152Y22236643D01*
X-10658156Y22236644D01*
X-10692012Y22256191D01*
X-10692014Y22256192D01*
X-10819308Y22290300D01*
X-10951092Y22290300D01*
X-11078386Y22256192D01*
X-11078388Y22256190D01*
X-11078390Y22256190D01*
X-11192509Y22190303D01*
X-11192514Y22190300D01*
X-11285700Y22097114D01*
X-11285702Y22097109D01*
X-11285703Y22097109D01*
X-11349873Y21985963D01*
X-11351592Y21982986D01*
X-11385700Y21855692D01*
X-20678968Y21855692D01*
X-20649690Y21872596D01*
X-20649689Y21872597D01*
X-20624443Y21897843D01*
X-20556500Y21965786D01*
X-20556499Y21965786D01*
X-20556497Y21965789D01*
X-20556496Y21965790D01*
X-20490609Y22079909D01*
X-20462689Y22184109D01*
X-20456500Y22207208D01*
X-20456500Y22338992D01*
X-20484418Y22443186D01*
X-20490608Y22466287D01*
X-20523283Y22522881D01*
X-20523283Y22522882D01*
X-20548115Y22565892D01*
X-13425499Y22565892D01*
X-13425499Y22434108D01*
X-13391391Y22306814D01*
X-13391389Y22306811D01*
X-13391389Y22306809D01*
X-13325502Y22192690D01*
X-13325500Y22192688D01*
X-13325499Y22192686D01*
X-13232313Y22099500D01*
X-13232310Y22099498D01*
X-13232308Y22099496D01*
X-13118188Y22033609D01*
X-13118190Y22033609D01*
X-13068798Y22020375D01*
X-12990891Y21999500D01*
X-12990889Y21999500D01*
X-12859109Y21999500D01*
X-12859107Y21999500D01*
X-12781199Y22020375D01*
X-12731808Y22033609D01*
X-12617689Y22099496D01*
X-12524495Y22192690D01*
X-12458608Y22306809D01*
X-12456174Y22315892D01*
X7599500Y22315892D01*
X7599500Y22315890D01*
X7599500Y22184109D01*
X7633609Y22056809D01*
X7699496Y21942690D01*
X7792690Y21849496D01*
X7906810Y21783609D01*
X7906808Y21783609D01*
X7974454Y21765483D01*
X8034108Y21749500D01*
X8034110Y21749500D01*
X8165890Y21749500D01*
X8165892Y21749500D01*
X8293186Y21783608D01*
X8293190Y21783609D01*
X8407309Y21849496D01*
X8407311Y21849498D01*
X8407314Y21849500D01*
X8500500Y21942686D01*
X8500501Y21942688D01*
X8500503Y21942690D01*
X8566390Y22056809D01*
X8566390Y22056811D01*
X8566392Y22056814D01*
X8600500Y22184108D01*
X8600500Y22315892D01*
X8566392Y22443186D01*
X8538341Y22491771D01*
X8500503Y22557309D01*
X8500502Y22557309D01*
X8500500Y22557314D01*
X8407314Y22650500D01*
X8293189Y22716390D01*
X8293188Y22716390D01*
X8293186Y22716392D01*
X8165892Y22750500D01*
X8034108Y22750500D01*
X7906814Y22716392D01*
X7906811Y22716390D01*
X7906809Y22716390D01*
X7792690Y22650503D01*
X7792688Y22650501D01*
X7792686Y22650500D01*
X7699500Y22557314D01*
X7699498Y22557311D01*
X7699496Y22557309D01*
X7633609Y22443190D01*
X7633608Y22443186D01*
X7599500Y22315892D01*
X-12456174Y22315892D01*
X-12424499Y22434109D01*
X-12424499Y22565890D01*
X-12424499Y22565892D01*
X-12458607Y22693186D01*
X-12458608Y22693190D01*
X-12524495Y22807309D01*
X-12524497Y22807311D01*
X-12524499Y22807314D01*
X-12617685Y22900500D01*
X-12617687Y22900501D01*
X-12617689Y22900503D01*
X-12731809Y22966390D01*
X-12731807Y22966390D01*
X-12731811Y22966391D01*
X-12731813Y22966392D01*
X-12859107Y23000500D01*
X-12990891Y23000500D01*
X-13118185Y22966392D01*
X-13118187Y22966390D01*
X-13118189Y22966390D01*
X-13232308Y22900503D01*
X-13232313Y22900500D01*
X-13325499Y22807314D01*
X-13325501Y22807309D01*
X-13325502Y22807309D01*
X-13373427Y22724300D01*
X-13391391Y22693186D01*
X-13425499Y22565892D01*
X-20548115Y22565892D01*
X-20556498Y22580411D01*
X-20556500Y22580414D01*
X-20649686Y22673600D01*
X-20649688Y22673601D01*
X-20649690Y22673603D01*
X-20763810Y22739490D01*
X-20763808Y22739490D01*
X-20763812Y22739491D01*
X-20763814Y22739492D01*
X-20891108Y22773600D01*
X-21022892Y22773600D01*
X-21150186Y22739492D01*
X-21150188Y22739490D01*
X-21150190Y22739490D01*
X-21230390Y22693186D01*
X-21264314Y22673600D01*
X-21357500Y22580414D01*
X-21393941Y22517295D01*
X-21439408Y22476357D01*
X-21500258Y22469960D01*
X-21549677Y22496791D01*
X-21554486Y22501600D01*
X-21554488Y22501601D01*
X-21554490Y22501603D01*
X-21668610Y22567490D01*
X-21668608Y22567490D01*
X-21668612Y22567491D01*
X-21668614Y22567492D01*
X-21795908Y22601600D01*
X-21927692Y22601600D01*
X-22054986Y22567492D01*
X-22054988Y22567490D01*
X-22054990Y22567490D01*
X-22169109Y22501603D01*
X-22169114Y22501600D01*
X-22204001Y22466712D01*
X-22258515Y22438936D01*
X-22318947Y22448507D01*
X-22362212Y22491771D01*
X-22369630Y22511096D01*
X-22371208Y22516988D01*
X-22371209Y22516989D01*
X-22437096Y22631109D01*
X-22437098Y22631111D01*
X-22437100Y22631114D01*
X-22530286Y22724300D01*
X-22530288Y22724301D01*
X-22530290Y22724303D01*
X-22644410Y22790190D01*
X-22644408Y22790190D01*
X-22644412Y22790191D01*
X-22644414Y22790192D01*
X-22771708Y22824300D01*
X-22903492Y22824300D01*
X-23030786Y22790192D01*
X-23030788Y22790190D01*
X-23030790Y22790190D01*
X-23118601Y22739492D01*
X-23144914Y22724300D01*
X-23238100Y22631114D01*
X-23238102Y22631109D01*
X-23238103Y22631109D01*
X-23280711Y22557309D01*
X-23303992Y22516986D01*
X-23338100Y22389692D01*
X-31699500Y22389692D01*
X-31699500Y25065892D01*
X-13425499Y25065892D01*
X-13425499Y24934108D01*
X-13391391Y24806814D01*
X-13391389Y24806811D01*
X-13391389Y24806809D01*
X-13325502Y24692690D01*
X-13325500Y24692688D01*
X-13325499Y24692686D01*
X-13232313Y24599500D01*
X-13232310Y24599498D01*
X-13232308Y24599496D01*
X-13118188Y24533609D01*
X-13118190Y24533609D01*
X-13068798Y24520375D01*
X-12990891Y24499500D01*
X-12990889Y24499500D01*
X-12859109Y24499500D01*
X-12859107Y24499500D01*
X-12781199Y24520375D01*
X-12731808Y24533609D01*
X-12617689Y24599496D01*
X-12524495Y24692690D01*
X-12458608Y24806809D01*
X-12424499Y24934109D01*
X-12424499Y25023467D01*
X449500Y25023467D01*
X449500Y24816532D01*
X489869Y24613581D01*
X569058Y24422402D01*
X684020Y24250348D01*
X830348Y24104020D01*
X1002402Y23989058D01*
X1193581Y23909869D01*
X1396532Y23869500D01*
X1396535Y23869500D01*
X1603467Y23869500D01*
X1806418Y23909869D01*
X1997597Y23989058D01*
X2169651Y24104020D01*
X2169655Y24104023D01*
X2315977Y24250345D01*
X2430941Y24422402D01*
X2510130Y24613580D01*
X2550500Y24816535D01*
X2550500Y25023465D01*
X2510130Y25226420D01*
X2430941Y25417598D01*
X2315977Y25589655D01*
X2169655Y25735977D01*
X1997598Y25850941D01*
X1806420Y25930130D01*
X1603465Y25970500D01*
X1396535Y25970500D01*
X1193580Y25930130D01*
X1002402Y25850941D01*
X830345Y25735977D01*
X684023Y25589655D01*
X684020Y25589651D01*
X569058Y25417597D01*
X489869Y25226418D01*
X449500Y25023467D01*
X-12424499Y25023467D01*
X-12424499Y25065890D01*
X-12424499Y25065892D01*
X-12458607Y25193186D01*
X-12458608Y25193190D01*
X-12524495Y25307309D01*
X-12524497Y25307311D01*
X-12524499Y25307314D01*
X-12617685Y25400500D01*
X-12617687Y25400501D01*
X-12617689Y25400503D01*
X-12731809Y25466390D01*
X-12731807Y25466390D01*
X-12731811Y25466391D01*
X-12731813Y25466392D01*
X-12859107Y25500500D01*
X-12990891Y25500500D01*
X-13118185Y25466392D01*
X-13118187Y25466390D01*
X-13118189Y25466390D01*
X-13202700Y25417597D01*
X-13232313Y25400500D01*
X-13325499Y25307314D01*
X-13325501Y25307309D01*
X-13325502Y25307309D01*
X-13372204Y25226418D01*
X-13391391Y25193186D01*
X-13425499Y25065892D01*
X-31699500Y25065892D01*
X-31699500Y26781192D01*
X-10675500Y26781192D01*
X-10675500Y26649408D01*
X-10641392Y26522114D01*
X-10641390Y26522111D01*
X-10641390Y26522109D01*
X-10575503Y26407990D01*
X-10575501Y26407988D01*
X-10575500Y26407986D01*
X-10482314Y26314800D01*
X-10482311Y26314798D01*
X-10482309Y26314796D01*
X-10368189Y26248909D01*
X-10368191Y26248909D01*
X-10318799Y26235675D01*
X-10240892Y26214800D01*
X-10240890Y26214800D01*
X-10109110Y26214800D01*
X-10109108Y26214800D01*
X-10031200Y26235675D01*
X-9981809Y26248909D01*
X-9867690Y26314796D01*
X-9774496Y26407990D01*
X-9708609Y26522109D01*
X-9674500Y26649409D01*
X-9674500Y26781190D01*
X-9674500Y26781192D01*
X-9708608Y26908486D01*
X-9708609Y26908490D01*
X-9774496Y27022609D01*
X-9774498Y27022611D01*
X-9774500Y27022614D01*
X-9867686Y27115800D01*
X-9867688Y27115801D01*
X-9867690Y27115803D01*
X-9981810Y27181690D01*
X-9981808Y27181690D01*
X-9981812Y27181691D01*
X-9981814Y27181692D01*
X-10109108Y27215800D01*
X-10240892Y27215800D01*
X-10368186Y27181692D01*
X-10368188Y27181690D01*
X-10368190Y27181690D01*
X-10482309Y27115803D01*
X-10482314Y27115800D01*
X-10575500Y27022614D01*
X-10641392Y26908486D01*
X-10675500Y26781192D01*
X-31699500Y26781192D01*
X-31699500Y27563467D01*
X449500Y27563467D01*
X449500Y27356532D01*
X489869Y27153581D01*
X569058Y26962402D01*
X684020Y26790348D01*
X830348Y26644020D01*
X1002402Y26529058D01*
X1193581Y26449869D01*
X1396532Y26409500D01*
X1396535Y26409500D01*
X1603467Y26409500D01*
X1806418Y26449869D01*
X1997597Y26529058D01*
X2169651Y26644020D01*
X2169655Y26644023D01*
X2315977Y26790345D01*
X2430941Y26962402D01*
X2510130Y27153580D01*
X2550500Y27356535D01*
X2550500Y27563465D01*
X2510130Y27766420D01*
X2430941Y27957598D01*
X2315977Y28129655D01*
X2169655Y28275977D01*
X1997598Y28390941D01*
X1806420Y28470130D01*
X1603465Y28510500D01*
X1396535Y28510500D01*
X1193580Y28470130D01*
X1002402Y28390941D01*
X830345Y28275977D01*
X684023Y28129655D01*
X684020Y28129651D01*
X569058Y27957597D01*
X489869Y27766418D01*
X449500Y27563467D01*
X-31699500Y27563467D01*
X-31699500Y30869746D01*
X449500Y30869746D01*
X449500Y29130253D01*
X449501Y29130241D01*
X461132Y29071772D01*
X461134Y29071766D01*
X505445Y29005451D01*
X505451Y29005445D01*
X571766Y28961134D01*
X571772Y28961132D01*
X630241Y28949501D01*
X630251Y28949500D01*
X630252Y28949500D01*
X630253Y28949500D01*
X2369747Y28949500D01*
X2369748Y28949500D01*
X2369758Y28949501D01*
X2428227Y28961132D01*
X2428228Y28961132D01*
X2428231Y28961133D01*
X2428233Y28961134D01*
X2494548Y29005445D01*
X2494552Y29005448D01*
X2538867Y29071769D01*
X2550500Y29130252D01*
X2550500Y30869748D01*
X2538867Y30928231D01*
X2494552Y30994552D01*
X2428231Y31038867D01*
X2369748Y31050500D01*
X630252Y31050500D01*
X630246Y31050498D01*
X630241Y31050498D01*
X616231Y31047711D01*
X571769Y31038867D01*
X505448Y30994552D01*
X505445Y30994548D01*
X461134Y30928233D01*
X461132Y30928227D01*
X449501Y30869758D01*
X449500Y30869746D01*
X-31699500Y30869746D01*
X-31699500Y35128392D01*
X22674500Y35128392D01*
X22674500Y35128390D01*
X22674500Y34996609D01*
X22708609Y34869309D01*
X22774496Y34755190D01*
X22867688Y34661998D01*
X22878058Y34656011D01*
X22918997Y34610540D01*
X22925391Y34549689D01*
X22898560Y34500274D01*
X22812000Y34413714D01*
X22811998Y34413711D01*
X22811996Y34413709D01*
X22746109Y34299590D01*
X22746108Y34299586D01*
X22712000Y34172292D01*
X22712000Y34172290D01*
X22712000Y34040509D01*
X22746109Y33913209D01*
X22811996Y33799090D01*
X22905190Y33705896D01*
X23019310Y33640009D01*
X23019308Y33640009D01*
X23086954Y33621883D01*
X23146608Y33605900D01*
X23146610Y33605900D01*
X23278390Y33605900D01*
X23278392Y33605900D01*
X23405686Y33640008D01*
X23405690Y33640009D01*
X23519809Y33705896D01*
X23519811Y33705898D01*
X23519814Y33705900D01*
X23613000Y33799086D01*
X23613001Y33799088D01*
X23613003Y33799090D01*
X23678890Y33913209D01*
X23678890Y33913211D01*
X23678892Y33913214D01*
X23713000Y34040508D01*
X23713000Y34172292D01*
X23689930Y34258392D01*
X28324500Y34258392D01*
X28324500Y34258390D01*
X28324500Y34126609D01*
X28358609Y33999309D01*
X28424496Y33885190D01*
X28517690Y33791996D01*
X28631810Y33726109D01*
X28631808Y33726109D01*
X28699454Y33707983D01*
X28759108Y33692000D01*
X28759110Y33692000D01*
X28890890Y33692000D01*
X28890892Y33692000D01*
X29018186Y33726108D01*
X29018190Y33726109D01*
X29132309Y33791996D01*
X29132311Y33791998D01*
X29132314Y33792000D01*
X29225500Y33885186D01*
X29225501Y33885188D01*
X29225503Y33885190D01*
X29291390Y33999309D01*
X29291390Y33999311D01*
X29291392Y33999314D01*
X29325500Y34126608D01*
X29325500Y34258392D01*
X29291392Y34385686D01*
X29225500Y34499814D01*
X29132314Y34593000D01*
X29018189Y34658890D01*
X29018188Y34658890D01*
X29018186Y34658892D01*
X28890892Y34693000D01*
X28759108Y34693000D01*
X28631814Y34658892D01*
X28631811Y34658890D01*
X28631809Y34658890D01*
X28517690Y34593003D01*
X28517688Y34593001D01*
X28517686Y34593000D01*
X28424500Y34499814D01*
X28424498Y34499811D01*
X28424496Y34499809D01*
X28358609Y34385690D01*
X28358608Y34385686D01*
X28324500Y34258392D01*
X23689930Y34258392D01*
X23678892Y34299586D01*
X23613000Y34413714D01*
X23519814Y34506900D01*
X23509446Y34512885D01*
X23468505Y34558353D01*
X23462107Y34619202D01*
X23488938Y34668624D01*
X23575500Y34755186D01*
X23575501Y34755188D01*
X23575503Y34755190D01*
X23641390Y34869309D01*
X23641390Y34869311D01*
X23641392Y34869314D01*
X23675500Y34996608D01*
X23675500Y35128392D01*
X23641392Y35255686D01*
X23575500Y35369814D01*
X23482314Y35463000D01*
X23368189Y35528890D01*
X23368188Y35528890D01*
X23368186Y35528892D01*
X23240892Y35563000D01*
X23109108Y35563000D01*
X22981814Y35528892D01*
X22981811Y35528890D01*
X22981809Y35528890D01*
X22867690Y35463003D01*
X22867688Y35463001D01*
X22867686Y35463000D01*
X22774500Y35369814D01*
X22774498Y35369811D01*
X22774496Y35369809D01*
X22708609Y35255690D01*
X22708608Y35255686D01*
X22674500Y35128392D01*
X-31699500Y35128392D01*
X-31699500Y36065892D01*
X25574500Y36065892D01*
X25574500Y36065890D01*
X25574500Y35934109D01*
X25608609Y35806809D01*
X25674496Y35692690D01*
X25767690Y35599496D01*
X25881810Y35533609D01*
X25881808Y35533609D01*
X25949454Y35515483D01*
X26009108Y35499500D01*
X26009110Y35499500D01*
X26140890Y35499500D01*
X26140892Y35499500D01*
X26268186Y35533608D01*
X26268190Y35533609D01*
X26382309Y35599496D01*
X26382311Y35599498D01*
X26382314Y35599500D01*
X26475500Y35692686D01*
X26475501Y35692688D01*
X26475503Y35692690D01*
X26541390Y35806809D01*
X26541390Y35806811D01*
X26541392Y35806814D01*
X26575500Y35934108D01*
X26575500Y36065892D01*
X26541392Y36193186D01*
X26475500Y36307314D01*
X26382314Y36400500D01*
X26268189Y36466390D01*
X26268188Y36466390D01*
X26268186Y36466392D01*
X26140892Y36500500D01*
X26009108Y36500500D01*
X25881814Y36466392D01*
X25881811Y36466390D01*
X25881809Y36466390D01*
X25767690Y36400503D01*
X25767688Y36400501D01*
X25767686Y36400500D01*
X25674500Y36307314D01*
X25674498Y36307311D01*
X25674496Y36307309D01*
X25608609Y36193190D01*
X25608608Y36193186D01*
X25574500Y36065892D01*
X-31699500Y36065892D01*
X-31699500Y36965892D01*
X4299500Y36965892D01*
X4299500Y36965890D01*
X4299500Y36834109D01*
X4333609Y36706809D01*
X4399496Y36592690D01*
X4492690Y36499496D01*
X4606810Y36433609D01*
X4606808Y36433609D01*
X4674454Y36415483D01*
X4734108Y36399500D01*
X4734110Y36399500D01*
X4865890Y36399500D01*
X4865892Y36399500D01*
X4993186Y36433608D01*
X4993190Y36433609D01*
X5107309Y36499496D01*
X5107311Y36499498D01*
X5107314Y36499500D01*
X5200500Y36592686D01*
X5200501Y36592688D01*
X5200503Y36592690D01*
X5266390Y36706809D01*
X5266390Y36706811D01*
X5266392Y36706814D01*
X5300500Y36834108D01*
X5300500Y36965892D01*
X7099500Y36965892D01*
X7099500Y36965890D01*
X7099500Y36834109D01*
X7133609Y36706809D01*
X7199496Y36592690D01*
X7292690Y36499496D01*
X7406810Y36433609D01*
X7406808Y36433609D01*
X7474454Y36415483D01*
X7534108Y36399500D01*
X7534110Y36399500D01*
X7665890Y36399500D01*
X7665892Y36399500D01*
X7793186Y36433608D01*
X7793190Y36433609D01*
X7907309Y36499496D01*
X7907311Y36499498D01*
X7907314Y36499500D01*
X8000500Y36592686D01*
X8000501Y36592688D01*
X8000503Y36592690D01*
X8066390Y36706809D01*
X8066390Y36706811D01*
X8066392Y36706814D01*
X8100500Y36834108D01*
X8100500Y36965892D01*
X8699500Y36965892D01*
X8699500Y36965890D01*
X8699500Y36834109D01*
X8733609Y36706809D01*
X8799496Y36592690D01*
X8892690Y36499496D01*
X9006810Y36433609D01*
X9006808Y36433609D01*
X9074454Y36415483D01*
X9134108Y36399500D01*
X9134110Y36399500D01*
X9265890Y36399500D01*
X9265892Y36399500D01*
X9393186Y36433608D01*
X9393190Y36433609D01*
X9507309Y36499496D01*
X9507311Y36499498D01*
X9507314Y36499500D01*
X9600500Y36592686D01*
X9600501Y36592688D01*
X9600503Y36592690D01*
X9666390Y36706809D01*
X9666390Y36706811D01*
X9666392Y36706814D01*
X9700500Y36834108D01*
X9700500Y36965892D01*
X9666392Y37093186D01*
X9600500Y37207314D01*
X9507314Y37300500D01*
X9393189Y37366390D01*
X9393188Y37366390D01*
X9393186Y37366392D01*
X9265892Y37400500D01*
X9134108Y37400500D01*
X9006814Y37366392D01*
X9006811Y37366390D01*
X9006809Y37366390D01*
X8892690Y37300503D01*
X8892688Y37300501D01*
X8892686Y37300500D01*
X8799500Y37207314D01*
X8799498Y37207311D01*
X8799496Y37207309D01*
X8733609Y37093190D01*
X8733608Y37093186D01*
X8699500Y36965892D01*
X8100500Y36965892D01*
X8066392Y37093186D01*
X8000500Y37207314D01*
X7907314Y37300500D01*
X7793189Y37366390D01*
X7793188Y37366390D01*
X7793186Y37366392D01*
X7665892Y37400500D01*
X7534108Y37400500D01*
X7406814Y37366392D01*
X7406811Y37366390D01*
X7406809Y37366390D01*
X7292690Y37300503D01*
X7292688Y37300501D01*
X7292686Y37300500D01*
X7199500Y37207314D01*
X7199498Y37207311D01*
X7199496Y37207309D01*
X7133609Y37093190D01*
X7133608Y37093186D01*
X7099500Y36965892D01*
X5300500Y36965892D01*
X5266392Y37093186D01*
X5200500Y37207314D01*
X5107314Y37300500D01*
X4993189Y37366390D01*
X4993188Y37366390D01*
X4993186Y37366392D01*
X4865892Y37400500D01*
X4734108Y37400500D01*
X4606814Y37366392D01*
X4606811Y37366390D01*
X4606809Y37366390D01*
X4492690Y37300503D01*
X4492688Y37300501D01*
X4492686Y37300500D01*
X4399500Y37207314D01*
X4399498Y37207311D01*
X4399496Y37207309D01*
X4333609Y37093190D01*
X4333608Y37093186D01*
X4299500Y36965892D01*
X-31699500Y36965892D01*
X-31699500Y38202892D01*
X26939200Y38202892D01*
X26939200Y38202890D01*
X26939200Y38071109D01*
X26973309Y37943809D01*
X27039196Y37829690D01*
X27132390Y37736496D01*
X27246510Y37670609D01*
X27246508Y37670609D01*
X27314154Y37652483D01*
X27373808Y37636500D01*
X27373810Y37636500D01*
X27505590Y37636500D01*
X27505592Y37636500D01*
X27632886Y37670608D01*
X27632890Y37670609D01*
X27747009Y37736496D01*
X27747011Y37736498D01*
X27747014Y37736500D01*
X27840200Y37829686D01*
X27840201Y37829688D01*
X27840203Y37829690D01*
X27906090Y37943809D01*
X27906090Y37943811D01*
X27906092Y37943814D01*
X27940200Y38071108D01*
X27940200Y38202892D01*
X27907416Y38325244D01*
X27910618Y38386342D01*
X27949124Y38433892D01*
X28008224Y38449728D01*
X28047986Y38439074D01*
X28058352Y38433792D01*
X28058359Y38433789D01*
X28230593Y38377828D01*
X28409451Y38349500D01*
X28409454Y38349500D01*
X28590549Y38349500D01*
X28769406Y38377828D01*
X28941637Y38433788D01*
X29102991Y38516002D01*
X29102994Y38516004D01*
X29249501Y38622447D01*
X29377553Y38750499D01*
X29483996Y38897006D01*
X29566211Y39058361D01*
X29622171Y39230591D01*
X29642242Y39357314D01*
X29650500Y39409450D01*
X29650500Y39590549D01*
X29630326Y39717921D01*
X29622171Y39769409D01*
X29566211Y39941639D01*
X29483996Y40102994D01*
X29377553Y40249501D01*
X29249501Y40377553D01*
X29102994Y40483996D01*
X28941639Y40566211D01*
X28769409Y40622171D01*
X28679977Y40636335D01*
X28590549Y40650500D01*
X28590546Y40650500D01*
X28409454Y40650500D01*
X28409451Y40650500D01*
X28302136Y40633502D01*
X28230591Y40622171D01*
X28058361Y40566211D01*
X27897006Y40483996D01*
X27750499Y40377553D01*
X27622447Y40249501D01*
X27516004Y40102994D01*
X27516002Y40102991D01*
X27433788Y39941637D01*
X27377828Y39769406D01*
X27349500Y39590549D01*
X27349500Y39409450D01*
X27377828Y39230593D01*
X27433788Y39058362D01*
X27516002Y38897008D01*
X27539320Y38864912D01*
X27590341Y38794688D01*
X27609248Y38736500D01*
X27590341Y38678309D01*
X27540841Y38642345D01*
X27510248Y38637500D01*
X27505592Y38637500D01*
X27373808Y38637500D01*
X27246514Y38603392D01*
X27246511Y38603390D01*
X27246509Y38603390D01*
X27132390Y38537503D01*
X27132388Y38537501D01*
X27132386Y38537500D01*
X27039200Y38444314D01*
X27039198Y38444311D01*
X27039196Y38444309D01*
X26973309Y38330190D01*
X26973308Y38330186D01*
X26939200Y38202892D01*
X-31699500Y38202892D01*
X-31699500Y39590549D01*
X-29650500Y39590549D01*
X-29650500Y39409450D01*
X-29642242Y39357314D01*
X-29622171Y39230591D01*
X-29566211Y39058361D01*
X-29483996Y38897006D01*
X-29377553Y38750499D01*
X-29249501Y38622447D01*
X-29102994Y38516004D01*
X-29102991Y38516002D01*
X-28941637Y38433788D01*
X-28769406Y38377828D01*
X-28590549Y38349500D01*
X-28590546Y38349500D01*
X-28409451Y38349500D01*
X-28230593Y38377828D01*
X-28058362Y38433788D01*
X-27897008Y38516002D01*
X-27776729Y38603390D01*
X-27750499Y38622447D01*
X-27622447Y38750499D01*
X-27569225Y38823752D01*
X-27516002Y38897008D01*
X-27433788Y39058362D01*
X-27415096Y39115892D01*
X-19900500Y39115892D01*
X-19900500Y38984108D01*
X-19866392Y38856814D01*
X-19866390Y38856811D01*
X-19866390Y38856809D01*
X-19800503Y38742690D01*
X-19800501Y38742688D01*
X-19800500Y38742686D01*
X-19707314Y38649500D01*
X-19707311Y38649498D01*
X-19707309Y38649496D01*
X-19593189Y38583609D01*
X-19593191Y38583609D01*
X-19543799Y38570375D01*
X-19465892Y38549500D01*
X-19465890Y38549500D01*
X-19334110Y38549500D01*
X-19334108Y38549500D01*
X-19256200Y38570375D01*
X-19206809Y38583609D01*
X-19092690Y38649496D01*
X-18999496Y38742690D01*
X-18933609Y38856809D01*
X-18899500Y38984109D01*
X-18899500Y39115890D01*
X-18899500Y39115892D01*
X-18933608Y39243186D01*
X-18933609Y39243190D01*
X-18999496Y39357309D01*
X-18999498Y39357311D01*
X-18999500Y39357314D01*
X-19092686Y39450500D01*
X-19191090Y39507314D01*
X-19206812Y39516391D01*
X-19206814Y39516392D01*
X-19334108Y39550500D01*
X-19465892Y39550500D01*
X-19593186Y39516392D01*
X-19593188Y39516390D01*
X-19593190Y39516390D01*
X-19639347Y39489741D01*
X-19707314Y39450500D01*
X-19800500Y39357314D01*
X-19800502Y39357309D01*
X-19800503Y39357309D01*
X-19838143Y39292114D01*
X-19866392Y39243186D01*
X-19900500Y39115892D01*
X-27415096Y39115892D01*
X-27403048Y39152973D01*
X-27377828Y39230593D01*
X-27349500Y39409450D01*
X-27349500Y39590549D01*
X-27377828Y39769406D01*
X-27433788Y39941637D01*
X-27477505Y40027436D01*
X-27497099Y40065892D01*
X-21000500Y40065892D01*
X-21000500Y39934108D01*
X-20966392Y39806814D01*
X-20966390Y39806811D01*
X-20966390Y39806809D01*
X-20900503Y39692690D01*
X-20900501Y39692688D01*
X-20900500Y39692686D01*
X-20807314Y39599500D01*
X-20807311Y39599498D01*
X-20807309Y39599496D01*
X-20693189Y39533609D01*
X-20693191Y39533609D01*
X-20643799Y39520375D01*
X-20565892Y39499500D01*
X-20565890Y39499500D01*
X-20434110Y39499500D01*
X-20434108Y39499500D01*
X-20356200Y39520375D01*
X-20306809Y39533609D01*
X-20276355Y39551192D01*
X-6468800Y39551192D01*
X-6468800Y39419408D01*
X-6434692Y39292114D01*
X-6434690Y39292111D01*
X-6434690Y39292109D01*
X-6368803Y39177990D01*
X-6368801Y39177988D01*
X-6368800Y39177986D01*
X-6275614Y39084800D01*
X-6275611Y39084798D01*
X-6275609Y39084796D01*
X-6161489Y39018909D01*
X-6161491Y39018909D01*
X-6112099Y39005675D01*
X-6034192Y38984800D01*
X-6034190Y38984800D01*
X-5902410Y38984800D01*
X-5902408Y38984800D01*
X-5824500Y39005675D01*
X-5775109Y39018909D01*
X-5660990Y39084796D01*
X-5567796Y39177990D01*
X-5501909Y39292109D01*
X-5467800Y39419409D01*
X-5467800Y39551190D01*
X-5467800Y39551192D01*
X-5501908Y39678486D01*
X-5501909Y39678490D01*
X-5567796Y39792609D01*
X-5567798Y39792611D01*
X-5567800Y39792614D01*
X-5660986Y39885800D01*
X-5660988Y39885801D01*
X-5660990Y39885803D01*
X-5775110Y39951690D01*
X-5775108Y39951690D01*
X-5775112Y39951691D01*
X-5775114Y39951692D01*
X-5902408Y39985800D01*
X-6034192Y39985800D01*
X-6161486Y39951692D01*
X-6161488Y39951690D01*
X-6161490Y39951690D01*
X-6244586Y39903714D01*
X-6275614Y39885800D01*
X-6368800Y39792614D01*
X-6368802Y39792609D01*
X-6368803Y39792609D01*
X-6426491Y39692690D01*
X-6434692Y39678486D01*
X-6468800Y39551192D01*
X-20276355Y39551192D01*
X-20192690Y39599496D01*
X-20099496Y39692690D01*
X-20033609Y39806809D01*
X-19999500Y39934109D01*
X-19999500Y40065890D01*
X-19999500Y40065892D01*
X-20033608Y40193186D01*
X-20033609Y40193190D01*
X-20099496Y40307309D01*
X-20099498Y40307311D01*
X-20099500Y40307314D01*
X-20192686Y40400500D01*
X-20192688Y40400501D01*
X-20192690Y40400503D01*
X-20255285Y40436643D01*
X-20255289Y40436644D01*
X-20306812Y40466391D01*
X-20306814Y40466392D01*
X-20434108Y40500500D01*
X-20565892Y40500500D01*
X-20693186Y40466392D01*
X-20693188Y40466390D01*
X-20693190Y40466390D01*
X-20744711Y40436644D01*
X-20807314Y40400500D01*
X-20900500Y40307314D01*
X-20900502Y40307309D01*
X-20900503Y40307309D01*
X-20933878Y40249501D01*
X-20966392Y40193186D01*
X-21000500Y40065892D01*
X-27497099Y40065892D01*
X-27516002Y40102991D01*
X-27516004Y40102994D01*
X-27622447Y40249501D01*
X-27750499Y40377553D01*
X-27897006Y40483996D01*
X-27959605Y40515892D01*
X-18738000Y40515892D01*
X-18738000Y40384108D01*
X-18703892Y40256814D01*
X-18703890Y40256811D01*
X-18703890Y40256809D01*
X-18638003Y40142690D01*
X-18638001Y40142688D01*
X-18638000Y40142686D01*
X-18544814Y40049500D01*
X-18544811Y40049498D01*
X-18544809Y40049496D01*
X-18430689Y39983609D01*
X-18430691Y39983609D01*
X-18381299Y39970375D01*
X-18303392Y39949500D01*
X-18303390Y39949500D01*
X-18171610Y39949500D01*
X-18171608Y39949500D01*
X-18093700Y39970375D01*
X-18044309Y39983609D01*
X-17930190Y40049496D01*
X-17836996Y40142690D01*
X-17771109Y40256809D01*
X-17769823Y40261608D01*
X4484500Y40261608D01*
X4484500Y40138391D01*
X4508536Y40017549D01*
X4555688Y39903714D01*
X4624142Y39801267D01*
X4624145Y39801263D01*
X4711263Y39714145D01*
X4711267Y39714142D01*
X4813714Y39645688D01*
X4927549Y39598536D01*
X5038378Y39576492D01*
X5091762Y39546595D01*
X5117378Y39491030D01*
X5105441Y39431021D01*
X5104801Y39429895D01*
X5083609Y39393189D01*
X5083609Y39393188D01*
X5083608Y39393186D01*
X5049500Y39265892D01*
X5049500Y39134108D01*
X5062712Y39084800D01*
X5083609Y39006809D01*
X5149496Y38892690D01*
X5242690Y38799496D01*
X5356810Y38733609D01*
X5356808Y38733609D01*
X5424454Y38715483D01*
X5484108Y38699500D01*
X5484110Y38699500D01*
X5615890Y38699500D01*
X5615892Y38699500D01*
X5743186Y38733608D01*
X5743190Y38733609D01*
X5857309Y38799496D01*
X5857311Y38799498D01*
X5857314Y38799500D01*
X5950500Y38892686D01*
X5950501Y38892688D01*
X5950503Y38892690D01*
X6016390Y39006809D01*
X6016390Y39006811D01*
X6016392Y39006814D01*
X6050500Y39134108D01*
X6050500Y39265892D01*
X9949500Y39265892D01*
X9949500Y39134108D01*
X9962712Y39084800D01*
X9983609Y39006809D01*
X10049496Y38892690D01*
X10142690Y38799496D01*
X10256810Y38733609D01*
X10256808Y38733609D01*
X10324454Y38715483D01*
X10384108Y38699500D01*
X10384110Y38699500D01*
X10515890Y38699500D01*
X10515892Y38699500D01*
X10643186Y38733608D01*
X10643190Y38733609D01*
X10757309Y38799496D01*
X10757311Y38799498D01*
X10757314Y38799500D01*
X10850500Y38892686D01*
X10850501Y38892688D01*
X10850503Y38892690D01*
X10916390Y39006809D01*
X10916390Y39006811D01*
X10916392Y39006814D01*
X10950500Y39134108D01*
X10950500Y39265892D01*
X15999500Y39265892D01*
X15999500Y39134108D01*
X16012712Y39084800D01*
X16033609Y39006809D01*
X16099496Y38892690D01*
X16192690Y38799496D01*
X16306810Y38733609D01*
X16306808Y38733609D01*
X16374454Y38715483D01*
X16434108Y38699500D01*
X16434110Y38699500D01*
X16565890Y38699500D01*
X16565892Y38699500D01*
X16693186Y38733608D01*
X16693190Y38733609D01*
X16807309Y38799496D01*
X16807311Y38799498D01*
X16807314Y38799500D01*
X16900500Y38892686D01*
X16900501Y38892688D01*
X16900503Y38892690D01*
X16908934Y38907292D01*
X21197100Y38907292D01*
X21197100Y38775508D01*
X21205895Y38742686D01*
X21231209Y38648209D01*
X21297096Y38534090D01*
X21390290Y38440896D01*
X21504410Y38375009D01*
X21504408Y38375009D01*
X21572054Y38356883D01*
X21631708Y38340900D01*
X21631710Y38340900D01*
X21763490Y38340900D01*
X21763492Y38340900D01*
X21890786Y38375008D01*
X21890790Y38375009D01*
X22004909Y38440896D01*
X22004911Y38440898D01*
X22004914Y38440900D01*
X22098100Y38534086D01*
X22098101Y38534088D01*
X22098103Y38534090D01*
X22163990Y38648209D01*
X22163990Y38648211D01*
X22163992Y38648214D01*
X22198100Y38775508D01*
X22198100Y38907292D01*
X22163992Y39034586D01*
X22150265Y39058361D01*
X22098103Y39148709D01*
X22098102Y39148709D01*
X22098100Y39148714D01*
X22004914Y39241900D01*
X21890789Y39307790D01*
X21890788Y39307790D01*
X21890786Y39307792D01*
X21763492Y39341900D01*
X21631708Y39341900D01*
X21504414Y39307792D01*
X21504411Y39307790D01*
X21504409Y39307790D01*
X21390290Y39241903D01*
X21390288Y39241901D01*
X21390286Y39241900D01*
X21297100Y39148714D01*
X21297098Y39148711D01*
X21297096Y39148709D01*
X21231209Y39034590D01*
X21231208Y39034586D01*
X21197100Y38907292D01*
X16908934Y38907292D01*
X16941259Y38963281D01*
X16966390Y39006809D01*
X16966390Y39006811D01*
X16966392Y39006814D01*
X17000500Y39134108D01*
X17000500Y39265892D01*
X16966392Y39393186D01*
X16905011Y39499500D01*
X16900503Y39507309D01*
X16900502Y39507309D01*
X16900500Y39507314D01*
X16807314Y39600500D01*
X16693189Y39666390D01*
X16693188Y39666390D01*
X16693186Y39666392D01*
X16565892Y39700500D01*
X16434108Y39700500D01*
X16306814Y39666392D01*
X16306811Y39666390D01*
X16306809Y39666390D01*
X16192690Y39600503D01*
X16192688Y39600501D01*
X16192686Y39600500D01*
X16099500Y39507314D01*
X16099498Y39507311D01*
X16099496Y39507309D01*
X16033609Y39393190D01*
X16033608Y39393186D01*
X15999500Y39265892D01*
X10950500Y39265892D01*
X10916392Y39393186D01*
X10895198Y39429893D01*
X10882477Y39489741D01*
X10907363Y39545637D01*
X10960351Y39576230D01*
X10961621Y39576492D01*
X11072450Y39598536D01*
X11186285Y39645688D01*
X11235376Y39678490D01*
X11288733Y39714142D01*
X11375858Y39801267D01*
X11444311Y39903714D01*
X11491463Y40017548D01*
X11515500Y40138394D01*
X11515500Y40261606D01*
X11491463Y40382452D01*
X11444311Y40496286D01*
X11375858Y40598733D01*
X11288733Y40685858D01*
X11186286Y40754311D01*
X11072452Y40801463D01*
X10951606Y40825500D01*
X10828394Y40825500D01*
X10707548Y40801463D01*
X10593714Y40754311D01*
X10491267Y40685858D01*
X10404142Y40598733D01*
X10358402Y40530279D01*
X10335688Y40496285D01*
X10288536Y40382450D01*
X10264500Y40261608D01*
X10264500Y40138391D01*
X10288536Y40017549D01*
X10335688Y39903715D01*
X10381452Y39835225D01*
X10398060Y39776337D01*
X10376882Y39718933D01*
X10326008Y39684941D01*
X10324843Y39684620D01*
X10256814Y39666392D01*
X10256811Y39666390D01*
X10256809Y39666390D01*
X10142690Y39600503D01*
X10142688Y39600501D01*
X10142686Y39600500D01*
X10049500Y39507314D01*
X10049498Y39507311D01*
X10049496Y39507309D01*
X9983609Y39393190D01*
X9983608Y39393186D01*
X9949500Y39265892D01*
X6050500Y39265892D01*
X6016392Y39393186D01*
X5955011Y39499500D01*
X5950503Y39507309D01*
X5950502Y39507309D01*
X5950500Y39507314D01*
X5857314Y39600500D01*
X5743186Y39666392D01*
X5675239Y39684598D01*
X5623926Y39717921D01*
X5601999Y39775042D01*
X5617834Y39834143D01*
X5618495Y39835145D01*
X5664311Y39903714D01*
X5711463Y40017548D01*
X5735500Y40138394D01*
X5735500Y40261606D01*
X5711463Y40382452D01*
X5664311Y40496286D01*
X5595858Y40598733D01*
X5508733Y40685858D01*
X5406286Y40754311D01*
X5292452Y40801463D01*
X5171606Y40825500D01*
X5048394Y40825500D01*
X4927548Y40801463D01*
X4813714Y40754311D01*
X4711267Y40685858D01*
X4624142Y40598733D01*
X4578402Y40530279D01*
X4555688Y40496285D01*
X4508536Y40382450D01*
X4484500Y40261608D01*
X-17769823Y40261608D01*
X-17767768Y40269276D01*
X-17737000Y40384108D01*
X-17737000Y40515892D01*
X-17771108Y40643186D01*
X-17771109Y40643190D01*
X-17836996Y40757309D01*
X-17836998Y40757311D01*
X-17837000Y40757314D01*
X-17930186Y40850500D01*
X-17930188Y40850501D01*
X-17930190Y40850503D01*
X-18044310Y40916390D01*
X-18044308Y40916390D01*
X-18044312Y40916391D01*
X-18044314Y40916392D01*
X-18171608Y40950500D01*
X-18303392Y40950500D01*
X-18430686Y40916392D01*
X-18430688Y40916390D01*
X-18430690Y40916390D01*
X-18544809Y40850503D01*
X-18544814Y40850500D01*
X-18638000Y40757314D01*
X-18638002Y40757309D01*
X-18638003Y40757309D01*
X-18699669Y40650500D01*
X-18703892Y40643186D01*
X-18738000Y40515892D01*
X-27959605Y40515892D01*
X-28058361Y40566211D01*
X-28230591Y40622171D01*
X-28302136Y40633502D01*
X-28409451Y40650500D01*
X-28409454Y40650500D01*
X-28590546Y40650500D01*
X-28590549Y40650500D01*
X-28679977Y40636335D01*
X-28769409Y40622171D01*
X-28941639Y40566211D01*
X-29102994Y40483996D01*
X-29249501Y40377553D01*
X-29377553Y40249501D01*
X-29483996Y40102994D01*
X-29566211Y39941639D01*
X-29622171Y39769409D01*
X-29630326Y39717921D01*
X-29650500Y39590549D01*
X-31699500Y39590549D01*
X-31699500Y42600500D01*
X-31680593Y42658691D01*
X-31631093Y42694655D01*
X-31600500Y42699500D01*
X31600500Y42699500D01*
X31658691Y42680593D01*
G37*
%TD.AperFunction*%
%TD*%
M02*
