%TF.GenerationSoftware,KiCad,Pcbnew,10.0.6-10.0.6~ubuntu24.04.1*%
%TF.CreationDate,2026-09-06T18:12:05+00:00*%
%TF.ProjectId,recorder,7265636f-7264-4657-922e-6b696361645f,rev?*%
%TF.SameCoordinates,Original*%
%TF.FileFunction,Paste,Top*%
%TF.FilePolarity,Positive*%
%FSLAX46Y46*%
G04 Gerber Fmt 4.6, Leading zero omitted, Abs format (unit mm)*
G04 Created by KiCad (PCBNEW 10.0.6-10.0.6~ubuntu24.04.1) date 2026-09-06 18:12:05*
%MOMM*%
%LPD*%
G01*
G04 APERTURE LIST*
G04 Aperture macros list*
%AMRoundRect*
0 Rectangle with rounded corners*
0 $1 Rounding radius*
0 $2 $3 $4 $5 $6 $7 $8 $9 X,Y pos of 4 corners*
0 Add a 4 corners polygon primitive as box body*
4,1,4,$2,$3,$4,$5,$6,$7,$8,$9,$2,$3,0*
0 Add four circle primitives for the rounded corners*
1,1,$1+$1,$2,$3*
1,1,$1+$1,$4,$5*
1,1,$1+$1,$6,$7*
1,1,$1+$1,$8,$9*
0 Add four rect primitives between the rounded corners*
20,1,$1+$1,$2,$3,$4,$5,0*
20,1,$1+$1,$4,$5,$6,$7,0*
20,1,$1+$1,$6,$7,$8,$9,0*
20,1,$1+$1,$8,$9,$2,$3,0*%
%AMOutline5P*
0 Free polygon, 5 corners , with rotation*
0 The origin of the aperture is its center*
0 number of corners: always 5*
0 $1 to $10 corner X, Y*
0 $11 Rotation angle, in degrees counterclockwise*
0 create outline with 5 corners*
4,1,5,$1,$2,$3,$4,$5,$6,$7,$8,$9,$10,$1,$2,$11*%
%AMOutline6P*
0 Free polygon, 6 corners , with rotation*
0 The origin of the aperture is its center*
0 number of corners: always 6*
0 $1 to $12 corner X, Y*
0 $13 Rotation angle, in degrees counterclockwise*
0 create outline with 6 corners*
4,1,6,$1,$2,$3,$4,$5,$6,$7,$8,$9,$10,$11,$12,$1,$2,$13*%
%AMOutline7P*
0 Free polygon, 7 corners , with rotation*
0 The origin of the aperture is its center*
0 number of corners: always 7*
0 $1 to $14 corner X, Y*
0 $15 Rotation angle, in degrees counterclockwise*
0 create outline with 7 corners*
4,1,7,$1,$2,$3,$4,$5,$6,$7,$8,$9,$10,$11,$12,$13,$14,$1,$2,$15*%
%AMOutline8P*
0 Free polygon, 8 corners , with rotation*
0 The origin of the aperture is its center*
0 number of corners: always 8*
0 $1 to $16 corner X, Y*
0 $17 Rotation angle, in degrees counterclockwise*
0 create outline with 8 corners*
4,1,8,$1,$2,$3,$4,$5,$6,$7,$8,$9,$10,$11,$12,$13,$14,$15,$16,$1,$2,$17*%
G04 Aperture macros list end*
%ADD10C,0.400000*%
%ADD11RoundRect,0.200000X-0.200000X-0.275000X0.200000X-0.275000X0.200000X0.275000X-0.200000X0.275000X0*%
%ADD12RoundRect,0.225000X-0.225000X-0.250000X0.225000X-0.250000X0.225000X0.250000X-0.225000X0.250000X0*%
%ADD13RoundRect,0.225000X0.250000X-0.225000X0.250000X0.225000X-0.250000X0.225000X-0.250000X-0.225000X0*%
%ADD14RoundRect,0.225000X-0.250000X0.225000X-0.250000X-0.225000X0.250000X-0.225000X0.250000X0.225000X0*%
%ADD15R,0.800000X0.400000*%
%ADD16R,0.400000X0.800000*%
%ADD17Outline5P,-0.600000X0.204000X-0.204000X0.600000X0.600000X0.600000X0.600000X-0.600000X-0.600000X-0.600000X0.000000*%
%ADD18R,1.200000X1.200000*%
%ADD19R,0.800000X0.800000*%
%ADD20RoundRect,0.250000X-0.525000X-0.400000X0.525000X-0.400000X0.525000X0.400000X-0.525000X0.400000X0*%
%ADD21RoundRect,0.400000X-0.800000X-0.400000X0.800000X-0.400000X0.800000X0.400000X-0.800000X0.400000X0*%
%ADD22RoundRect,0.218750X-0.218750X-0.256250X0.218750X-0.256250X0.218750X0.256250X-0.218750X0.256250X0*%
%ADD23RoundRect,0.150000X-0.512500X-0.150000X0.512500X-0.150000X0.512500X0.150000X-0.512500X0.150000X0*%
%ADD24RoundRect,0.250000X-0.400000X-0.300000X0.400000X-0.300000X0.400000X0.300000X-0.400000X0.300000X0*%
%ADD25RoundRect,0.250000X0.475000X-0.250000X0.475000X0.250000X-0.475000X0.250000X-0.475000X-0.250000X0*%
%ADD26RoundRect,0.200000X0.275000X-0.200000X0.275000X0.200000X-0.275000X0.200000X-0.275000X-0.200000X0*%
%ADD27RoundRect,0.250000X-0.250000X-0.475000X0.250000X-0.475000X0.250000X0.475000X-0.250000X0.475000X0*%
%ADD28RoundRect,0.218750X0.256250X-0.218750X0.256250X0.218750X-0.256250X0.218750X-0.256250X-0.218750X0*%
%ADD29RoundRect,0.167500X-0.167500X-0.167500X0.167500X-0.167500X0.167500X0.167500X-0.167500X0.167500X0*%
%ADD30RoundRect,0.050000X-0.375000X-0.050000X0.375000X-0.050000X0.375000X0.050000X-0.375000X0.050000X0*%
%ADD31RoundRect,0.050000X-0.050000X-0.375000X0.050000X-0.375000X0.050000X0.375000X-0.050000X0.375000X0*%
%ADD32RoundRect,0.150000X-0.150000X-0.575000X0.150000X-0.575000X0.150000X0.575000X-0.150000X0.575000X0*%
%ADD33RoundRect,0.075000X-0.075000X-0.650000X0.075000X-0.650000X0.075000X0.650000X-0.075000X0.650000X0*%
%ADD34RoundRect,0.100000X-0.712500X-0.100000X0.712500X-0.100000X0.712500X0.100000X-0.712500X0.100000X0*%
%ADD35R,1.500000X0.800000*%
%ADD36R,2.000000X1.450000*%
G04 APERTURE END LIST*
%TO.C,MK1*%
D10*
X29250000Y-10800000D02*
X29050000Y-10800000D01*
X29250000Y-11500000D02*
X29050000Y-11500000D01*
X30950000Y-10800000D02*
X30750000Y-10800000D01*
X30950000Y-11500000D02*
X30750000Y-11500000D01*
X29240565Y-9068489D02*
G75*
G02*
X29402468Y-8788066I759435J-251511D01*
G01*
X29402467Y-9851935D02*
G75*
G02*
X29240565Y-9571511I597503J531915D01*
G01*
X29838098Y-8536554D02*
G75*
G02*
X30161902Y-8536554I161902J-783446D01*
G01*
X30161902Y-10103446D02*
G75*
G02*
X29838098Y-10103446I-161902J783446D01*
G01*
X30597533Y-8788065D02*
G75*
G02*
X30759436Y-9068489I-597533J-531935D01*
G01*
X30759435Y-9571511D02*
G75*
G02*
X30597532Y-9851934I-759435J251511D01*
G01*
%TD*%
D11*
%TO.C,R6*%
X26175000Y-34500000D03*
X27825000Y-34500000D03*
%TD*%
D12*
%TO.C,C13*%
X25225000Y-27500000D03*
X26775000Y-27500000D03*
%TD*%
D13*
%TO.C,C7*%
X-2500000Y39225000D03*
X-2500000Y40775000D03*
%TD*%
D11*
%TO.C,Rsd0*%
X-11825000Y25000000D03*
X-10175000Y25000000D03*
%TD*%
D14*
%TO.C,C18*%
X30500000Y-22225000D03*
X30500000Y-23775000D03*
%TD*%
%TO.C,C17*%
X30500000Y-25225000D03*
X30500000Y-26775000D03*
%TD*%
D15*
%TO.C,U1*%
X7000000Y23950000D03*
X7000000Y23100000D03*
X7000000Y22250000D03*
X7000000Y21400000D03*
X7000000Y20550000D03*
X7000000Y19700000D03*
X7000000Y18850000D03*
X7000000Y18000000D03*
X7000000Y17150000D03*
X7000000Y16300000D03*
X7000000Y15450000D03*
X7000000Y14600000D03*
X7000000Y13750000D03*
X7000000Y12900000D03*
X7000000Y12050000D03*
D16*
X8050000Y11000000D03*
X8900000Y11000000D03*
X9750000Y11000000D03*
X10600000Y11000000D03*
X11450000Y11000000D03*
X12300000Y11000000D03*
X13150000Y11000000D03*
X14000000Y11000000D03*
X14850000Y11000000D03*
X15700000Y11000000D03*
X16550000Y11000000D03*
X17400000Y11000000D03*
X18250000Y11000000D03*
X19100000Y11000000D03*
X19950000Y11000000D03*
D15*
X21000000Y12050000D03*
X21000000Y12900000D03*
X21000000Y13750000D03*
X21000000Y14600000D03*
X21000000Y15450000D03*
X21000000Y16300000D03*
X21000000Y17150000D03*
X21000000Y18000000D03*
X21000000Y18850000D03*
X21000000Y19700000D03*
X21000000Y20550000D03*
X21000000Y21400000D03*
X21000000Y22250000D03*
X21000000Y23100000D03*
X21000000Y23950000D03*
D16*
X19950000Y25000000D03*
X19100000Y25000000D03*
X18250000Y25000000D03*
X17400000Y25000000D03*
X16550000Y25000000D03*
X15700000Y25000000D03*
X14850000Y25000000D03*
X14000000Y25000000D03*
X13150000Y25000000D03*
X12300000Y25000000D03*
X11450000Y25000000D03*
X10600000Y25000000D03*
X9750000Y25000000D03*
X8900000Y25000000D03*
X8050000Y25000000D03*
D17*
X12350000Y19650000D03*
D18*
X12350000Y18000000D03*
X12350000Y16350000D03*
X14000000Y19650000D03*
X14000000Y18000000D03*
X14000000Y16350000D03*
X15650000Y19650000D03*
X15650000Y18000000D03*
X15650000Y16350000D03*
D19*
X7000000Y25000000D03*
X7000000Y11000000D03*
X21000000Y11000000D03*
X21000000Y25000000D03*
%TD*%
D20*
%TO.C,SW1*%
X-29980000Y-9750000D03*
X-22020000Y-9750000D03*
X-29980000Y-14250000D03*
X-22020000Y-14250000D03*
%TD*%
D11*
%TO.C,R4*%
X23175000Y36000000D03*
X24825000Y36000000D03*
%TD*%
D21*
%TO.C,SP1*%
X-9000000Y-35500000D03*
X1000000Y-35500000D03*
%TD*%
D22*
%TO.C,D2*%
X23212500Y33000000D03*
X24787500Y33000000D03*
%TD*%
D11*
%TO.C,Ragnd*%
X25175000Y-16500000D03*
X26825000Y-16500000D03*
%TD*%
%TO.C,Rchg*%
X27175000Y33000000D03*
X28825000Y33000000D03*
%TD*%
D23*
%TO.C,U3*%
X22862500Y40450000D03*
X22862500Y39500000D03*
X22862500Y38550000D03*
X25137500Y38550000D03*
X25137500Y40450000D03*
%TD*%
D12*
%TO.C,C16*%
X19725000Y-26000000D03*
X21275000Y-26000000D03*
%TD*%
D24*
%TO.C,Y1*%
X14950000Y-24825000D03*
X17050000Y-24825000D03*
X17050000Y-23175000D03*
X14950000Y-23175000D03*
%TD*%
D23*
%TO.C,U4*%
X-7137500Y40450000D03*
X-7137500Y39500000D03*
X-7137500Y38550000D03*
X-4862500Y38550000D03*
X-4862500Y40450000D03*
%TD*%
D25*
%TO.C,C8*%
X-20500000Y39050000D03*
X-20500000Y40950000D03*
%TD*%
D26*
%TO.C,Rled*%
X-29000000Y-22825000D03*
X-29000000Y-21175000D03*
%TD*%
D12*
%TO.C,C10*%
X19725000Y-20000000D03*
X21275000Y-20000000D03*
%TD*%
D27*
%TO.C,C20*%
X-16950000Y-26000000D03*
X-15050000Y-26000000D03*
%TD*%
D23*
%TO.C,U8*%
X24862500Y-30050000D03*
X24862500Y-31000000D03*
X24862500Y-31950000D03*
X27137500Y-31950000D03*
X27137500Y-30050000D03*
%TD*%
D13*
%TO.C,C15*%
X26500000Y-10775000D03*
X26500000Y-9225000D03*
%TD*%
D26*
%TO.C,R1*%
X24500000Y13675000D03*
X24500000Y15325000D03*
%TD*%
D13*
%TO.C,C6*%
X-10500000Y35225000D03*
X-10500000Y36775000D03*
%TD*%
%TO.C,C12*%
X30500000Y-20775000D03*
X30500000Y-19225000D03*
%TD*%
D28*
%TO.C,D1*%
X-29000000Y-18787500D03*
X-29000000Y-17212500D03*
%TD*%
D26*
%TO.C,Rboot*%
X24500000Y10175000D03*
X24500000Y11825000D03*
%TD*%
D13*
%TO.C,C5*%
X-10500000Y39225000D03*
X-10500000Y40775000D03*
%TD*%
D23*
%TO.C,U5*%
X-17137500Y40450000D03*
X-17137500Y39500000D03*
X-17137500Y38550000D03*
X-14862500Y38550000D03*
X-14862500Y40450000D03*
%TD*%
D12*
%TO.C,C19*%
X11225000Y-27500000D03*
X12775000Y-27500000D03*
%TD*%
D11*
%TO.C,Rsd4*%
X-11825000Y15000000D03*
X-10175000Y15000000D03*
%TD*%
D29*
%TO.C,U2*%
X25590000Y-21590000D03*
X25590000Y-22410000D03*
X26410000Y-21590000D03*
X26410000Y-22410000D03*
D30*
X24550000Y-21200000D03*
X24550000Y-21600000D03*
X24550000Y-22000000D03*
X24550000Y-22400000D03*
X24550000Y-22800000D03*
D31*
X25200000Y-23450000D03*
X25600000Y-23450000D03*
X26000000Y-23450000D03*
X26400000Y-23450000D03*
X26800000Y-23450000D03*
D30*
X27450000Y-22800000D03*
X27450000Y-22400000D03*
X27450000Y-22000000D03*
X27450000Y-21600000D03*
X27450000Y-21200000D03*
D31*
X26800000Y-20550000D03*
X26400000Y-20550000D03*
X26000000Y-20550000D03*
X25600000Y-20550000D03*
X25200000Y-20550000D03*
%TD*%
D28*
%TO.C,F1*%
X17500000Y39212500D03*
X17500000Y40787500D03*
%TD*%
D13*
%TO.C,C3*%
X24500000Y20725000D03*
X24500000Y22275000D03*
%TD*%
%TO.C,C11*%
X30500000Y-17775000D03*
X30500000Y-16225000D03*
%TD*%
D26*
%TO.C,R2*%
X500000Y39175000D03*
X500000Y40825000D03*
%TD*%
D23*
%TO.C,U7*%
X6862500Y31950000D03*
X6862500Y31000000D03*
X6862500Y30050000D03*
X9137500Y30050000D03*
X9137500Y31000000D03*
X9137500Y31950000D03*
%TD*%
D11*
%TO.C,Rstat*%
X27175000Y36000000D03*
X28825000Y36000000D03*
%TD*%
D25*
%TO.C,C1*%
X24500000Y24050000D03*
X24500000Y25950000D03*
%TD*%
D26*
%TO.C,R3*%
X15500000Y39175000D03*
X15500000Y40825000D03*
%TD*%
D11*
%TO.C,R7*%
X15675000Y-27500000D03*
X17325000Y-27500000D03*
%TD*%
D32*
%TO.C,J2*%
X4750000Y41645000D03*
X5550000Y41645000D03*
D33*
X6750000Y41645000D03*
X7750000Y41645000D03*
X8250000Y41645000D03*
X9250000Y41645000D03*
D32*
X10450000Y41645000D03*
X11250000Y41645000D03*
X11250000Y41645000D03*
X10450000Y41645000D03*
D33*
X9750000Y41645000D03*
X8750000Y41645000D03*
X7250000Y41645000D03*
X6250000Y41645000D03*
D32*
X5550000Y41645000D03*
X4750000Y41645000D03*
%TD*%
D11*
%TO.C,R5*%
X21175000Y-34500000D03*
X22825000Y-34500000D03*
%TD*%
D13*
%TO.C,C2*%
X24500000Y17225000D03*
X24500000Y18775000D03*
%TD*%
D12*
%TO.C,C9*%
X20225000Y-31000000D03*
X21775000Y-31000000D03*
%TD*%
D11*
%TO.C,Rsd3*%
X-11825000Y17500000D03*
X-10175000Y17500000D03*
%TD*%
D34*
%TO.C,U6*%
X9887500Y-30025000D03*
X9887500Y-30675000D03*
X9887500Y-31325000D03*
X9887500Y-31975000D03*
X14112500Y-31975000D03*
X14112500Y-31325000D03*
X14112500Y-30675000D03*
X14112500Y-30025000D03*
%TD*%
D13*
%TO.C,C4*%
X20500000Y39225000D03*
X20500000Y40775000D03*
%TD*%
D35*
%TO.C,J3*%
X-24050000Y14800000D03*
X-24050000Y15900000D03*
X-24050000Y17000000D03*
X-24050000Y18100000D03*
X-24050000Y19200000D03*
X-24050000Y20300000D03*
X-24050000Y21400000D03*
X-24050000Y22500000D03*
D36*
X-26650000Y11125000D03*
X-18350000Y11125000D03*
X-26650000Y24875000D03*
X-18350000Y24875000D03*
%TD*%
D12*
%TO.C,C14*%
X-11775000Y12000000D03*
X-10225000Y12000000D03*
%TD*%
D11*
%TO.C,Rsd1*%
X-11825000Y22500000D03*
X-10175000Y22500000D03*
%TD*%
%TO.C,Rsd2*%
X-11825000Y20000000D03*
X-10175000Y20000000D03*
%TD*%
M02*
