%TF.GenerationSoftware,KiCad,Pcbnew,10.0.5*%
%TF.CreationDate,2026-09-13T10:19:23-05:00*%
%TF.ProjectId,recorder,7265636f-7264-4657-922e-6b696361645f,rev?*%
%TF.SameCoordinates,Original*%
%TF.FileFunction,Copper,L4,Bot*%
%TF.FilePolarity,Positive*%
%FSLAX46Y46*%
G04 Gerber Fmt 4.6, Leading zero omitted, Abs format (unit mm)*
G04 Created by KiCad (PCBNEW 10.0.5) date 2026-09-13 10:19:23*
%MOMM*%
%LPD*%
G01*
G04 APERTURE LIST*
G04 Aperture macros list*
%AMRoundRect*
0 Rectangle with rounded corners*
0 $1 Rounding radius*
0 $2 $3 $4 $5 $6 $7 $8 $9 X,Y pos of 4 corners*
0 Add a 4 corners polygon primitive as box body*
4,1,4,$2,$3,$4,$5,$6,$7,$8,$9,$2,$3,0*
0 Add four circle primitives for the rounded corners*
1,1,$1+$1,$2,$3*
1,1,$1+$1,$4,$5*
1,1,$1+$1,$6,$7*
1,1,$1+$1,$8,$9*
0 Add four rect primitives between the rounded corners*
20,1,$1+$1,$2,$3,$4,$5,0*
20,1,$1+$1,$4,$5,$6,$7,0*
20,1,$1+$1,$6,$7,$8,$9,0*
20,1,$1+$1,$8,$9,$2,$3,0*%
G04 Aperture macros list end*
%TA.AperFunction,ComponentPad*%
%ADD10O,1.000000X2.100000*%
%TD*%
%TA.AperFunction,ComponentPad*%
%ADD11O,1.000000X1.600000*%
%TD*%
%TA.AperFunction,ComponentPad*%
%ADD12R,1.700000X1.700000*%
%TD*%
%TA.AperFunction,ComponentPad*%
%ADD13C,1.700000*%
%TD*%
%TA.AperFunction,ComponentPad*%
%ADD14RoundRect,0.250002X-1.699998X-1.699998X1.699998X-1.699998X1.699998X1.699998X-1.699998X1.699998X0*%
%TD*%
%TA.AperFunction,ComponentPad*%
%ADD15C,3.900000*%
%TD*%
%TA.AperFunction,ViaPad*%
%ADD16C,0.600000*%
%TD*%
%TA.AperFunction,Conductor*%
%ADD17C,0.300000*%
%TD*%
%TA.AperFunction,Conductor*%
%ADD18C,0.150000*%
%TD*%
%TA.AperFunction,Conductor*%
%ADD19C,0.200000*%
%TD*%
G04 APERTURE END LIST*
D10*
%TO.P,J2,SH*%
%TO.N,GND*%
X3680000Y40730000D03*
D11*
X3680000Y36550000D03*
D10*
X12320000Y40730000D03*
D11*
X12320000Y36550000D03*
%TD*%
D12*
%TO.P,J1,1*%
%TO.N,VDD33*%
X1500000Y30000000D03*
D13*
%TO.P,J1,2*%
%TO.N,/MCU_USB/UART_RX*%
X1500000Y27460000D03*
%TO.P,J1,3*%
%TO.N,/MCU_USB/UART_TX*%
X1500000Y24920000D03*
%TO.P,J1,4*%
%TO.N,GND*%
X1500000Y22380000D03*
%TD*%
D14*
%TO.P,BT1,1*%
%TO.N,VBAT*%
X-23500000Y-34000000D03*
D15*
%TO.P,BT1,2*%
%TO.N,GND*%
X-15700000Y-34000000D03*
%TD*%
D16*
%TO.N,3V3A*%
X27602600Y-26634200D03*
X29325000Y-23599999D03*
%TO.N,GND*%
X24198490Y19068086D03*
X7000000Y-26000000D03*
X25000000Y4000000D03*
X-23000000Y34000000D03*
X19000000Y10000000D03*
X13000000Y4000000D03*
X-29000000Y16000000D03*
X22875000Y-31000000D03*
X19000000Y34000000D03*
X-29000000Y-32000000D03*
X-5000000Y-14000000D03*
X-23000000Y-26000000D03*
X19000000Y16000000D03*
X-11000000Y-2000000D03*
X-23000000Y-8000000D03*
X19000000Y22000000D03*
X7000000Y-8000000D03*
X-17000000Y-38000000D03*
X-11000000Y-20000000D03*
X7000000Y-20000000D03*
X-5000000Y28000000D03*
X1000000Y-26000000D03*
X1000000Y-32000000D03*
X13000000Y-2000000D03*
X7000000Y28000000D03*
X-5000000Y-20000000D03*
X-23000000Y4000000D03*
X-23000000Y-2000000D03*
X-11000000Y28000000D03*
X-29000000Y28000000D03*
X-5000000Y22000000D03*
X-11000000Y-26000000D03*
X27925000Y-16500000D03*
X-640000Y34300000D03*
X7000000Y34000000D03*
X1000000Y-14000000D03*
X-29000000Y22000000D03*
X-23000000Y10000000D03*
X17050000Y-25925000D03*
X15212500Y-30675000D03*
X1000000Y-2000000D03*
X-5000000Y-26000000D03*
X22675000Y-23600000D03*
X-11000000Y4000000D03*
X13000000Y22000000D03*
X-5000000Y34000000D03*
X-23000000Y-38000000D03*
X-23000000Y-20000000D03*
X-11000000Y-32000000D03*
X1000000Y34000000D03*
X-5000000Y-8000000D03*
X-23000000Y28000000D03*
X1000000Y-38000000D03*
X19000000Y-2000000D03*
X-11000000Y10000000D03*
X-29000000Y10000000D03*
X7000000Y4000000D03*
X-5000000Y-2000000D03*
X1000000Y4000000D03*
X13000000Y28000000D03*
X1000000Y-8000000D03*
X-11000000Y-14000000D03*
X13000000Y34000000D03*
X-29000000Y-20000000D03*
X-29000000Y-26000000D03*
X16640000Y34300000D03*
X26269299Y37412496D03*
X19000000Y28000000D03*
X25000000Y28000000D03*
X-10470000Y12270000D03*
X13875000Y-27500000D03*
X-17000000Y34000000D03*
X-5000000Y-38000000D03*
X-17000000Y-32000000D03*
X7000000Y-14000000D03*
X-23000000Y-14000000D03*
X-11000000Y-8000000D03*
X-29000000Y34000000D03*
X1000000Y-20000000D03*
X-11000000Y-38000000D03*
X7000000Y-2000000D03*
X-5000000Y10000000D03*
X-21020000Y41245000D03*
X7000000Y-38000000D03*
X5900000Y11000000D03*
X-23000000Y40000000D03*
%TO.N,I2S_MCLK*%
X10061300Y12628700D03*
X13804200Y8888000D03*
X17050000Y-22148200D03*
X22675000Y-21200000D03*
%TO.N,VDD33*%
X25075000Y-34500000D03*
X23400000Y13675000D03*
X-20500000Y40000000D03*
X-12924999Y15000000D03*
X-19400000Y39050000D03*
X24400000Y-18675000D03*
X-12924999Y22500000D03*
X23762500Y-31950000D03*
X-11825000Y18900000D03*
X-12924999Y25000000D03*
X22675000Y-22800000D03*
X25400000Y11075000D03*
X8100000Y22250000D03*
X22675000Y-22000000D03*
X-18237500Y40450000D03*
X-12875000Y12000000D03*
X26075000Y36000000D03*
X-22950000Y18100000D03*
X21175000Y-32900000D03*
%TO.N,SD_CMD*%
X-20957000Y22273100D03*
X-20957000Y20840000D03*
X9161400Y19394400D03*
X-21751600Y19786500D03*
X-10175000Y26715300D03*
%TO.N,/Audio/PA_INN*%
X9887500Y-33635800D03*
X28272400Y-29723700D03*
%TO.N,/Audio/AGND*%
X21275000Y-22665100D03*
X27600000Y-25325000D03*
%TO.N,SD_D1*%
X-22837600Y22323800D03*
X11125200Y18434800D03*
X-10881800Y20708400D03*
%TO.N,USB_DP*%
X7600000Y36900000D03*
X9200000Y36900000D03*
X4800000Y36900000D03*
%TO.N,VBUS*%
X5550000Y39200000D03*
X16500000Y39200000D03*
X10450000Y39200000D03*
%TO.N,/Audio/SPK_P*%
X15368700Y-29664600D03*
X6846900Y-30172500D03*
%TO.N,/Audio/SPK_N*%
X-4687200Y-30033800D03*
X13132100Y-33103400D03*
%TO.N,/Power/CHG_LED*%
X28825000Y34192500D03*
X23212500Y34106400D03*
%TO.N,VBAT*%
X24862500Y-29272100D03*
X12801600Y-31325000D03*
X-5968300Y39485300D03*
X21697600Y38841400D03*
X-16950000Y-27235300D03*
%TO.N,/Audio/VMID*%
X20451200Y-19273800D03*
X22154900Y-19313900D03*
%TO.N,SD_D0*%
X-10885200Y21789800D03*
X9565800Y20753700D03*
X-21861800Y22101100D03*
%TO.N,/MCU_USB/UART_RX*%
X20139900Y19952200D03*
%TO.N,/MCU_USB/UART_TX*%
X19743200Y19274800D03*
%TO.N,/MCU_USB/BOOT*%
X7857500Y19000500D03*
X25457000Y15043600D03*
%TO.N,BTN*%
X5755800Y19628800D03*
X-20842300Y18220200D03*
%TO.N,LED*%
X-27484300Y-238600D03*
X5801300Y14820400D03*
%TO.N,I2C_SDA*%
X23192600Y-33332600D03*
X6140900Y13865500D03*
X25200000Y-18675000D03*
%TO.N,I2C_SCL*%
X22675000Y-20400000D03*
X3771700Y17704000D03*
X25752300Y-29384900D03*
X7865700Y17704000D03*
X3771700Y-8364700D03*
%TO.N,PA_EN*%
X7856400Y14829700D03*
X9887500Y9274300D03*
%TO.N,CHG_STAT*%
X8675400Y16522200D03*
X22410400Y14135600D03*
%TO.N,I2S_DIN*%
X25200000Y-25325000D03*
X7858900Y12567400D03*
%TO.N,I2S_DOUT*%
X6141100Y11891700D03*
X26799999Y-25325000D03*
%TO.N,I2S_WS*%
X26000000Y-25325000D03*
X8881400Y13046900D03*
%TO.N,I2S_BCLK*%
X24400000Y-25325000D03*
X8900000Y11861200D03*
%TO.N,SD_CLK*%
X10597300Y17299300D03*
X-22833000Y19200000D03*
%TO.N,SD_D2*%
X12300000Y14650000D03*
X-9626800Y16388200D03*
X-21447900Y16098600D03*
%TO.N,SD_D3*%
X-10874300Y15699300D03*
X-22841500Y15819000D03*
X13150000Y11869800D03*
%TO.N,/Audio/MIC_N*%
X26600000Y-15500000D03*
X26700000Y-19000000D03*
%TO.N,MIC_P*%
X27316800Y-8602500D03*
X26000000Y-18675000D03*
%TO.N,/Power/PROG*%
X27439700Y38137000D03*
X23175000Y35062500D03*
%TD*%
%TO.N,3V3A*%
D17*
X29325000Y-23600000D02*
X29325000Y-24911800D01*
X29325000Y-24911800D02*
X27602600Y-26634200D01*
%TO.N,I2S_MCLK*%
D18*
X13804200Y8888000D02*
X10063500Y12628700D01*
X10063500Y12628700D02*
X10061300Y12628700D01*
X22675000Y-21200000D02*
X17998200Y-21200000D01*
X17998200Y-21200000D02*
X17050000Y-22148200D01*
%TO.N,SD_CMD*%
X-16514800Y26715300D02*
X-10175000Y26715300D01*
X-20957000Y20840000D02*
X-20298600Y20181600D01*
X-21751600Y19786500D02*
X-21751600Y20045400D01*
X-21751600Y20045400D02*
X-20957000Y20840000D01*
X-20298600Y20181600D02*
X8374200Y20181600D01*
X8374200Y20181600D02*
X9161400Y19394400D01*
X-20957000Y22273100D02*
X-16514800Y26715300D01*
%TO.N,/Audio/PA_INN*%
X9887500Y-33635800D02*
X10111000Y-33859300D01*
X24136800Y-33859300D02*
X28272400Y-29723700D01*
X10111000Y-33859300D02*
X24136800Y-33859300D01*
%TO.N,/Audio/AGND*%
X24011300Y-26216500D02*
X21275000Y-23480200D01*
X27600000Y-25325000D02*
X26708500Y-26216500D01*
X21275000Y-23480200D02*
X21275000Y-22665100D01*
X26708500Y-26216500D02*
X24011300Y-26216500D01*
%TO.N,SD_D1*%
X-21880500Y21366700D02*
X-22837600Y22323800D01*
X-11540100Y21366700D02*
X-21880500Y21366700D01*
X-10881800Y20708400D02*
X-11540100Y21366700D01*
X8851600Y20708400D02*
X-10881800Y20708400D01*
X11125200Y18434800D02*
X8851600Y20708400D01*
%TO.N,USB_DP*%
D19*
X7600000Y36900000D02*
X9200000Y36900000D01*
X7600000Y36900000D02*
X4800000Y36900000D01*
%TO.N,VBUS*%
D17*
X5550000Y39200000D02*
X16500000Y39200000D01*
%TO.N,/Audio/SPK_P*%
D18*
X8548800Y-31874400D02*
X6846900Y-30172500D01*
X15368700Y-29664600D02*
X13158900Y-31874400D01*
X13158900Y-31874400D02*
X8548800Y-31874400D01*
%TO.N,/Audio/SPK_N*%
X13132100Y-33103400D02*
X-1617600Y-33103400D01*
X-1617600Y-33103400D02*
X-4687200Y-30033800D01*
%TO.N,/Power/CHG_LED*%
X23298600Y34192500D02*
X23212500Y34106400D01*
X28825000Y34192500D02*
X23298600Y34192500D01*
%TO.N,VBAT*%
D17*
X-15156600Y-29028700D02*
X12801600Y-29028700D01*
X-16950000Y-27235300D02*
X-15156600Y-29028700D01*
X-5042800Y38559800D02*
X-5968300Y39485300D01*
X24619100Y-29028700D02*
X24862500Y-29272100D01*
X12801600Y-29028700D02*
X12801600Y-31325000D01*
X-16950000Y-27235300D02*
X-23500000Y-33785300D01*
X-23500000Y-33785300D02*
X-23500000Y-34000000D01*
X21697600Y38841400D02*
X21416000Y38559800D01*
X12801600Y-29028700D02*
X24619100Y-29028700D01*
X21416000Y38559800D02*
X-5042800Y38559800D01*
%TO.N,/Audio/VMID*%
D18*
X20451200Y-19273800D02*
X20491300Y-19313900D01*
X20491300Y-19313900D02*
X22154900Y-19313900D01*
%TO.N,SD_D0*%
X-21507100Y21746400D02*
X-10928600Y21746400D01*
X-21861800Y22101100D02*
X-21507100Y21746400D01*
X-10885200Y21789800D02*
X-10327400Y21232000D01*
X9087500Y21232000D02*
X9565800Y20753700D01*
X-10327400Y21232000D02*
X9087500Y21232000D01*
X-10928600Y21746400D02*
X-10885200Y21789800D01*
%TO.N,/MCU_USB/UART_RX*%
X20139900Y19952200D02*
X12632100Y27460000D01*
X12632100Y27460000D02*
X1500000Y27460000D01*
%TO.N,/MCU_USB/UART_TX*%
X14098000Y24920000D02*
X1500000Y24920000D01*
X19743200Y19274800D02*
X14098000Y24920000D01*
%TO.N,/MCU_USB/BOOT*%
X13598000Y15043600D02*
X10732000Y17909600D01*
X8948400Y17909600D02*
X7857500Y19000500D01*
X25457000Y15043600D02*
X13598000Y15043600D01*
X10732000Y17909600D02*
X8948400Y17909600D01*
%TO.N,BTN*%
X5755800Y19628800D02*
X-19433700Y19628800D01*
X-19433700Y19628800D02*
X-20842300Y18220200D01*
%TO.N,LED*%
X-9257700Y-238600D02*
X5801300Y14820400D01*
X-27484300Y-238600D02*
X-9257700Y-238600D01*
%TO.N,I2C_SDA*%
X25200000Y-18675000D02*
X28200600Y-21675600D01*
X8138300Y15369400D02*
X25200000Y-1692300D01*
X27384500Y-26107500D02*
X26457700Y-27034300D01*
X27565200Y-26107500D02*
X27384500Y-26107500D01*
X25200000Y-1692300D02*
X25200000Y-18675000D01*
X6140900Y13865500D02*
X7644800Y15369400D01*
X26457700Y-30067500D02*
X23192600Y-33332600D01*
X7644800Y15369400D02*
X8138300Y15369400D01*
X28200600Y-21675600D02*
X28200600Y-25472100D01*
X26457700Y-27034300D02*
X26457700Y-30067500D01*
X28200600Y-25472100D02*
X27565200Y-26107500D01*
%TO.N,I2C_SCL*%
X16478800Y-20400000D02*
X15807000Y-20400000D01*
X16478800Y-20400000D02*
X16478800Y-22399900D01*
X7865700Y17704000D02*
X3771700Y17704000D01*
X16478800Y-22399900D02*
X20595600Y-26516700D01*
X15807000Y-20400000D02*
X3771700Y-8364700D01*
X22675000Y-20400000D02*
X16478800Y-20400000D01*
X20595600Y-26516700D02*
X22884100Y-26516700D01*
X22884100Y-26516700D02*
X25752300Y-29384900D01*
%TO.N,PA_EN*%
X7324400Y11837400D02*
X9887500Y9274300D01*
X7324400Y14297700D02*
X7324400Y11837400D01*
X7856400Y14829700D02*
X7324400Y14297700D01*
%TO.N,CHG_STAT*%
X13664100Y14135600D02*
X11277500Y16522200D01*
X11277500Y16522200D02*
X8675400Y16522200D01*
X22410400Y14135600D02*
X13664100Y14135600D01*
%TO.N,I2S_DIN*%
X23294900Y-1784800D02*
X8989900Y12520200D01*
X7906100Y12520200D02*
X7858900Y12567400D01*
X25200000Y-25325000D02*
X25200000Y-21141800D01*
X23294900Y-19236700D02*
X23294900Y-1784800D01*
X25200000Y-21141800D02*
X23294900Y-19236700D01*
X8989900Y12520200D02*
X7906100Y12520200D01*
%TO.N,I2S_DOUT*%
X23229600Y-20175000D02*
X22691500Y-19636900D01*
X26800000Y-25325000D02*
X26240700Y-25884300D01*
X24151600Y-25884300D02*
X23229600Y-24962300D01*
X23229600Y-24962300D02*
X23229600Y-20175000D01*
X22691500Y-19636900D02*
X22691500Y-4658700D01*
X26240700Y-25884300D02*
X24151600Y-25884300D01*
X22691500Y-4658700D02*
X6141100Y11891700D01*
%TO.N,I2S_WS*%
X23834800Y-19349900D02*
X26000000Y-21515100D01*
X8881400Y13046900D02*
X8898300Y13046900D01*
X8898300Y13046900D02*
X23834700Y-1889500D01*
X23834800Y-1889500D02*
X23834800Y-19349900D01*
X23834700Y-1889500D02*
X23834800Y-1889500D01*
X26000000Y-21515100D02*
X26000000Y-25325000D01*
%TO.N,I2S_BCLK*%
X24400000Y-20768500D02*
X22993200Y-19361700D01*
X22993200Y-2232000D02*
X8900000Y11861200D01*
X22993200Y-19361700D02*
X22993200Y-2232000D01*
X24400000Y-25325000D02*
X24400000Y-20768500D01*
%TO.N,SD_CLK*%
X10475300Y17177300D02*
X10597300Y17299300D01*
X-20810300Y17177300D02*
X10475300Y17177300D01*
X-22833000Y19200000D02*
X-20810300Y17177300D01*
%TO.N,SD_D2*%
X8064300Y16388200D02*
X-9626800Y16388200D01*
X9802500Y14650000D02*
X8064300Y16388200D01*
X12300000Y14650000D02*
X9802500Y14650000D01*
X-9626800Y16388200D02*
X-21158300Y16388200D01*
X-21158300Y16388200D02*
X-21447900Y16098600D01*
%TO.N,SD_D3*%
X13150000Y11869800D02*
X12119200Y11869800D01*
X-22841500Y15819000D02*
X-22594400Y15571900D01*
X8289700Y15699300D02*
X-10874300Y15699300D01*
X-22594400Y15571900D02*
X-11001700Y15571900D01*
X-11001700Y15571900D02*
X-10874300Y15699300D01*
X12119200Y11869800D02*
X8289700Y15699300D01*
%TO.N,/Audio/MIC_N*%
X26600000Y-15500000D02*
X26700000Y-19000000D01*
%TO.N,MIC_P*%
X26000000Y-9919300D02*
X27316800Y-8602500D01*
X26000000Y-18675000D02*
X26000000Y-9919300D01*
%TO.N,/Power/PROG*%
X26249500Y38137000D02*
X23175000Y35062500D01*
X27439700Y38137000D02*
X26249500Y38137000D01*
%TD*%
%TA.AperFunction,Conductor*%
%TO.N,GND*%
G36*
X12410291Y-29398107D02*
G01*
X12446255Y-29447607D01*
X12451100Y-29478200D01*
X12451100Y-30926678D01*
X12432193Y-30984869D01*
X12422105Y-30996680D01*
X12401101Y-31017684D01*
X12401096Y-31017690D01*
X12335209Y-31131809D01*
X12335208Y-31131814D01*
X12301100Y-31259108D01*
X12301100Y-31390892D01*
X12316804Y-31449500D01*
X12323443Y-31474277D01*
X12320240Y-31535379D01*
X12281735Y-31582929D01*
X12227816Y-31598900D01*
X8703924Y-31598900D01*
X8645733Y-31579993D01*
X8633920Y-31569904D01*
X7376396Y-30312380D01*
X7348619Y-30257863D01*
X7347400Y-30242376D01*
X7347400Y-30106609D01*
X7345546Y-30099690D01*
X7313292Y-29979314D01*
X7313290Y-29979311D01*
X7313290Y-29979309D01*
X7247403Y-29865190D01*
X7247401Y-29865188D01*
X7247400Y-29865186D01*
X7154214Y-29772000D01*
X7154211Y-29771998D01*
X7154209Y-29771996D01*
X7040089Y-29706109D01*
X7040091Y-29706109D01*
X6988221Y-29692211D01*
X6912792Y-29672000D01*
X6781008Y-29672000D01*
X6705579Y-29692211D01*
X6653709Y-29706109D01*
X6539590Y-29771996D01*
X6446396Y-29865190D01*
X6380509Y-29979309D01*
X6371562Y-30012700D01*
X6346400Y-30106608D01*
X6346400Y-30238392D01*
X6355908Y-30273876D01*
X6380509Y-30365690D01*
X6446396Y-30479809D01*
X6446398Y-30479811D01*
X6446400Y-30479814D01*
X6539586Y-30573000D01*
X6539588Y-30573001D01*
X6539590Y-30573003D01*
X6653710Y-30638890D01*
X6653708Y-30638890D01*
X6653712Y-30638891D01*
X6653714Y-30638892D01*
X6781008Y-30673000D01*
X6781010Y-30673000D01*
X6916777Y-30673000D01*
X6974968Y-30691907D01*
X6986780Y-30701995D01*
X8392741Y-32107957D01*
X8422395Y-32120239D01*
X8422397Y-32120241D01*
X8422398Y-32120241D01*
X8458199Y-32135070D01*
X8494000Y-32149900D01*
X8494001Y-32149900D01*
X13213699Y-32149900D01*
X13213700Y-32149900D01*
X13314958Y-32107957D01*
X13392457Y-32030458D01*
X13392456Y-32030458D01*
X15228819Y-30194096D01*
X15283336Y-30166319D01*
X15298823Y-30165100D01*
X15434590Y-30165100D01*
X15434592Y-30165100D01*
X15561886Y-30130992D01*
X15561888Y-30130990D01*
X15561890Y-30130990D01*
X15676009Y-30065103D01*
X15676009Y-30065102D01*
X15676014Y-30065100D01*
X15769200Y-29971914D01*
X15819149Y-29885400D01*
X15835090Y-29857790D01*
X15835090Y-29857788D01*
X15835092Y-29857786D01*
X15869200Y-29730492D01*
X15869200Y-29598708D01*
X15843775Y-29503820D01*
X15846977Y-29442722D01*
X15885483Y-29395172D01*
X15939402Y-29379200D01*
X24297076Y-29379200D01*
X24355267Y-29398107D01*
X24391231Y-29447607D01*
X24392702Y-29452575D01*
X24396108Y-29465286D01*
X24462000Y-29579414D01*
X24555186Y-29672600D01*
X24555188Y-29672601D01*
X24555190Y-29672603D01*
X24669310Y-29738490D01*
X24669308Y-29738490D01*
X24669312Y-29738491D01*
X24669314Y-29738492D01*
X24796608Y-29772600D01*
X24796610Y-29772600D01*
X24928390Y-29772600D01*
X24928392Y-29772600D01*
X25055686Y-29738492D01*
X25055688Y-29738490D01*
X25055690Y-29738490D01*
X25169809Y-29672603D01*
X25169809Y-29672602D01*
X25169814Y-29672600D01*
X25186779Y-29655634D01*
X25241293Y-29627857D01*
X25301725Y-29637427D01*
X25342519Y-29676139D01*
X25351800Y-29692214D01*
X25444986Y-29785400D01*
X25444988Y-29785401D01*
X25444990Y-29785403D01*
X25559110Y-29851290D01*
X25559108Y-29851290D01*
X25559112Y-29851291D01*
X25559114Y-29851292D01*
X25686408Y-29885400D01*
X25686410Y-29885400D01*
X25818190Y-29885400D01*
X25818192Y-29885400D01*
X25945486Y-29851292D01*
X25945488Y-29851290D01*
X25945490Y-29851290D01*
X26033700Y-29800362D01*
X26093548Y-29787640D01*
X26149444Y-29812526D01*
X26180037Y-29865514D01*
X26182200Y-29886098D01*
X26182200Y-29912375D01*
X26163293Y-29970566D01*
X26153204Y-29982379D01*
X24374981Y-31760601D01*
X24320464Y-31788378D01*
X24260032Y-31778807D01*
X24219240Y-31740097D01*
X24163002Y-31642690D01*
X24163000Y-31642686D01*
X24069814Y-31549500D01*
X24069811Y-31549498D01*
X24069809Y-31549496D01*
X23955689Y-31483609D01*
X23955691Y-31483609D01*
X23906299Y-31470375D01*
X23828392Y-31449500D01*
X23696608Y-31449500D01*
X23618700Y-31470375D01*
X23569309Y-31483609D01*
X23455190Y-31549496D01*
X23361996Y-31642690D01*
X23296109Y-31756809D01*
X23279042Y-31820504D01*
X23262000Y-31884108D01*
X23262000Y-32015892D01*
X23265903Y-32030458D01*
X23296109Y-32143190D01*
X23361996Y-32257309D01*
X23361998Y-32257311D01*
X23362000Y-32257314D01*
X23455186Y-32350500D01*
X23552599Y-32406742D01*
X23593539Y-32452210D01*
X23599935Y-32513060D01*
X23573102Y-32562480D01*
X23332481Y-32803103D01*
X23277964Y-32830881D01*
X23262477Y-32832100D01*
X23258492Y-32832100D01*
X23126708Y-32832100D01*
X23048800Y-32852975D01*
X22999409Y-32866209D01*
X22885290Y-32932096D01*
X22792096Y-33025290D01*
X22726209Y-33139409D01*
X22726208Y-33139414D01*
X22692100Y-33266708D01*
X22692100Y-33398492D01*
X22708360Y-33459179D01*
X22705158Y-33520278D01*
X22666653Y-33567828D01*
X22612734Y-33583800D01*
X21308786Y-33583800D01*
X21250595Y-33564893D01*
X21214631Y-33515393D01*
X21214631Y-33454207D01*
X21250595Y-33404707D01*
X21283159Y-33389174D01*
X21368186Y-33366392D01*
X21368188Y-33366390D01*
X21368190Y-33366390D01*
X21482309Y-33300503D01*
X21482309Y-33300502D01*
X21482314Y-33300500D01*
X21575500Y-33207314D01*
X21641392Y-33093186D01*
X21675500Y-32965892D01*
X21675500Y-32834108D01*
X21641392Y-32706814D01*
X21641390Y-32706811D01*
X21641390Y-32706809D01*
X21575503Y-32592690D01*
X21575501Y-32592688D01*
X21575500Y-32592686D01*
X21482314Y-32499500D01*
X21482311Y-32499498D01*
X21482309Y-32499496D01*
X21368189Y-32433609D01*
X21368191Y-32433609D01*
X21303934Y-32416392D01*
X21240892Y-32399500D01*
X21109108Y-32399500D01*
X21046066Y-32416392D01*
X20981809Y-32433609D01*
X20867690Y-32499496D01*
X20774496Y-32592690D01*
X20708609Y-32706809D01*
X20708608Y-32706814D01*
X20674500Y-32834108D01*
X20674500Y-32965892D01*
X20693689Y-33037508D01*
X20708609Y-33093190D01*
X20774496Y-33207309D01*
X20774498Y-33207311D01*
X20774500Y-33207314D01*
X20867686Y-33300500D01*
X20867688Y-33300501D01*
X20867690Y-33300503D01*
X20981810Y-33366390D01*
X20981808Y-33366390D01*
X20981812Y-33366391D01*
X20981814Y-33366392D01*
X21066838Y-33389174D01*
X21118151Y-33422497D01*
X21140078Y-33479618D01*
X21124243Y-33538719D01*
X21076693Y-33577224D01*
X21041214Y-33583800D01*
X13598521Y-33583800D01*
X13540330Y-33564893D01*
X13504366Y-33515393D01*
X13504366Y-33454207D01*
X13528515Y-33414798D01*
X13532600Y-33410714D01*
X13538497Y-33400500D01*
X13598490Y-33296590D01*
X13598490Y-33296588D01*
X13598492Y-33296586D01*
X13632600Y-33169292D01*
X13632600Y-33037508D01*
X13598492Y-32910214D01*
X13598490Y-32910211D01*
X13598490Y-32910209D01*
X13532603Y-32796090D01*
X13532601Y-32796088D01*
X13532600Y-32796086D01*
X13439414Y-32702900D01*
X13439411Y-32702898D01*
X13439409Y-32702896D01*
X13325289Y-32637009D01*
X13325291Y-32637009D01*
X13275899Y-32623775D01*
X13197992Y-32602900D01*
X13066208Y-32602900D01*
X12988300Y-32623775D01*
X12938909Y-32637009D01*
X12824790Y-32702896D01*
X12824789Y-32702897D01*
X12824786Y-32702899D01*
X12824786Y-32702900D01*
X12731600Y-32796086D01*
X12731598Y-32796088D01*
X12728783Y-32798904D01*
X12674266Y-32826681D01*
X12658779Y-32827900D01*
X-1462477Y-32827900D01*
X-1520668Y-32808993D01*
X-1532481Y-32798904D01*
X-4157704Y-30173680D01*
X-4185481Y-30119163D01*
X-4186700Y-30103676D01*
X-4186700Y-29967909D01*
X-4220809Y-29840609D01*
X-4286696Y-29726490D01*
X-4379890Y-29633296D01*
X-4499633Y-29564163D01*
X-4498105Y-29561517D01*
X-4535093Y-29529926D01*
X-4549376Y-29470431D01*
X-4525960Y-29413903D01*
X-4473790Y-29381935D01*
X-4450681Y-29379200D01*
X12352100Y-29379200D01*
X12410291Y-29398107D01*
G37*
%TD.AperFunction*%
%TA.AperFunction,Conductor*%
G36*
X22259870Y-21494407D02*
G01*
X22271684Y-21504498D01*
X22297183Y-21529998D01*
X22324959Y-21584515D01*
X22315387Y-21644947D01*
X22297183Y-21670002D01*
X22274501Y-21692684D01*
X22274496Y-21692690D01*
X22208609Y-21806809D01*
X22189539Y-21877978D01*
X22174500Y-21934108D01*
X22174500Y-22065892D01*
X22204579Y-22178151D01*
X22208609Y-22193190D01*
X22274496Y-22307309D01*
X22274501Y-22307315D01*
X22297183Y-22329998D01*
X22324959Y-22384515D01*
X22315387Y-22444947D01*
X22297183Y-22470002D01*
X22274501Y-22492684D01*
X22274496Y-22492690D01*
X22208609Y-22606809D01*
X22189539Y-22677978D01*
X22174500Y-22734108D01*
X22174500Y-22865892D01*
X22203041Y-22972409D01*
X22208609Y-22993190D01*
X22274496Y-23107309D01*
X22274498Y-23107311D01*
X22274500Y-23107314D01*
X22367686Y-23200500D01*
X22367688Y-23200501D01*
X22367690Y-23200503D01*
X22481810Y-23266390D01*
X22481808Y-23266390D01*
X22481812Y-23266391D01*
X22481814Y-23266392D01*
X22609108Y-23300500D01*
X22609110Y-23300500D01*
X22740890Y-23300500D01*
X22740892Y-23300500D01*
X22829479Y-23276763D01*
X22890578Y-23279965D01*
X22938128Y-23318471D01*
X22954100Y-23372390D01*
X22954100Y-24530676D01*
X22935193Y-24588867D01*
X22885693Y-24624831D01*
X22824507Y-24624831D01*
X22785096Y-24600680D01*
X21579496Y-23395080D01*
X21551719Y-23340563D01*
X21550500Y-23325076D01*
X21550500Y-23138421D01*
X21569407Y-23080230D01*
X21579496Y-23068417D01*
X21582311Y-23065601D01*
X21582314Y-23065600D01*
X21675500Y-22972414D01*
X21741392Y-22858286D01*
X21775500Y-22730992D01*
X21775500Y-22599208D01*
X21741392Y-22471914D01*
X21741390Y-22471911D01*
X21741390Y-22471909D01*
X21675503Y-22357790D01*
X21675501Y-22357788D01*
X21675500Y-22357786D01*
X21582314Y-22264600D01*
X21582311Y-22264598D01*
X21582309Y-22264596D01*
X21468189Y-22198709D01*
X21468191Y-22198709D01*
X21418799Y-22185475D01*
X21340892Y-22164600D01*
X21209108Y-22164600D01*
X21131200Y-22185475D01*
X21081809Y-22198709D01*
X20967690Y-22264596D01*
X20874496Y-22357790D01*
X20808609Y-22471909D01*
X20808608Y-22471914D01*
X20774500Y-22599208D01*
X20774500Y-22730992D01*
X20783456Y-22764415D01*
X20808609Y-22858290D01*
X20874496Y-22972409D01*
X20874498Y-22972411D01*
X20874500Y-22972414D01*
X20967686Y-23065600D01*
X20967688Y-23065601D01*
X20970504Y-23068417D01*
X20998281Y-23122934D01*
X20999500Y-23138421D01*
X20999500Y-23535000D01*
X21007310Y-23553855D01*
X21007311Y-23553857D01*
X21041441Y-23636255D01*
X21041442Y-23636256D01*
X21041443Y-23636258D01*
X23855242Y-26450058D01*
X23855243Y-26450058D01*
X23855244Y-26450059D01*
X23956498Y-26492000D01*
X23956500Y-26492000D01*
X26371377Y-26492000D01*
X26429568Y-26510907D01*
X26465532Y-26560407D01*
X26465532Y-26621593D01*
X26441381Y-26661004D01*
X26301642Y-26800743D01*
X26301641Y-26800742D01*
X26224146Y-26878238D01*
X26224144Y-26878240D01*
X26224143Y-26878242D01*
X26197937Y-26941509D01*
X26182200Y-26979500D01*
X26182200Y-28883701D01*
X26163293Y-28941892D01*
X26113793Y-28977856D01*
X26052607Y-28977856D01*
X26033700Y-28969438D01*
X25945487Y-28918508D01*
X25903054Y-28907138D01*
X25818192Y-28884400D01*
X25686408Y-28884400D01*
X25682424Y-28884400D01*
X25624233Y-28865493D01*
X25612420Y-28855404D01*
X25266212Y-28509196D01*
X23040158Y-26283143D01*
X23017387Y-26273711D01*
X22938900Y-26241200D01*
X22938899Y-26241200D01*
X20750724Y-26241200D01*
X20692533Y-26222293D01*
X20680720Y-26212204D01*
X17232930Y-22764415D01*
X17205153Y-22709898D01*
X17214724Y-22649466D01*
X17253433Y-22608675D01*
X17357314Y-22548700D01*
X17450500Y-22455514D01*
X17482551Y-22400000D01*
X17516390Y-22341390D01*
X17516390Y-22341388D01*
X17516392Y-22341386D01*
X17550500Y-22214092D01*
X17550500Y-22082308D01*
X17550500Y-22078323D01*
X17569407Y-22020132D01*
X17579496Y-22008319D01*
X17827097Y-21760719D01*
X18083320Y-21504496D01*
X18137837Y-21476719D01*
X18153324Y-21475500D01*
X22201679Y-21475500D01*
X22259870Y-21494407D01*
G37*
%TD.AperFunction*%
%TA.AperFunction,Conductor*%
G36*
X31658691Y42680593D02*
G01*
X31694655Y42631093D01*
X31699500Y42600500D01*
X31699500Y-42600500D01*
X31680593Y-42658691D01*
X31631093Y-42694655D01*
X31600500Y-42699500D01*
X-31600500Y-42699500D01*
X-31658691Y-42680593D01*
X-31694655Y-42631093D01*
X-31699500Y-42600500D01*
X-31699500Y-39409450D01*
X-29650500Y-39409450D01*
X-29650500Y-39409454D01*
X-29650500Y-39590546D01*
X-29622171Y-39769409D01*
X-29566211Y-39941639D01*
X-29483996Y-40102994D01*
X-29377553Y-40249501D01*
X-29249501Y-40377553D01*
X-29102994Y-40483996D01*
X-28941639Y-40566211D01*
X-28769409Y-40622171D01*
X-28679977Y-40636335D01*
X-28590549Y-40650500D01*
X-28590546Y-40650500D01*
X-28409451Y-40650500D01*
X-28302136Y-40633502D01*
X-28230591Y-40622171D01*
X-28058361Y-40566211D01*
X-27897006Y-40483996D01*
X-27750499Y-40377553D01*
X-27622447Y-40249501D01*
X-27516004Y-40102994D01*
X-27433789Y-39941639D01*
X-27377829Y-39769409D01*
X-27377828Y-39769406D01*
X-27349500Y-39590549D01*
X-27349500Y-39409450D01*
X27349500Y-39409450D01*
X27349500Y-39590549D01*
X27377828Y-39769406D01*
X27377829Y-39769409D01*
X27433789Y-39941639D01*
X27516004Y-40102994D01*
X27622447Y-40249501D01*
X27750499Y-40377553D01*
X27897006Y-40483996D01*
X28058361Y-40566211D01*
X28230591Y-40622171D01*
X28302136Y-40633502D01*
X28409451Y-40650500D01*
X28409454Y-40650500D01*
X28590549Y-40650500D01*
X28679977Y-40636335D01*
X28769409Y-40622171D01*
X28941639Y-40566211D01*
X29102994Y-40483996D01*
X29249501Y-40377553D01*
X29377553Y-40249501D01*
X29483996Y-40102994D01*
X29566211Y-39941639D01*
X29622171Y-39769409D01*
X29650500Y-39590546D01*
X29650500Y-39409454D01*
X29650500Y-39409450D01*
X29622171Y-39230593D01*
X29622171Y-39230591D01*
X29566211Y-39058361D01*
X29483996Y-38897006D01*
X29377553Y-38750499D01*
X29249501Y-38622447D01*
X29102994Y-38516004D01*
X29102993Y-38516003D01*
X29102991Y-38516002D01*
X28941637Y-38433788D01*
X28769406Y-38377828D01*
X28590549Y-38349500D01*
X28590546Y-38349500D01*
X28409454Y-38349500D01*
X28409451Y-38349500D01*
X28230593Y-38377828D01*
X28058362Y-38433788D01*
X27897008Y-38516002D01*
X27823752Y-38569225D01*
X27750499Y-38622447D01*
X27622447Y-38750499D01*
X27569225Y-38823752D01*
X27516002Y-38897008D01*
X27433788Y-39058362D01*
X27377828Y-39230593D01*
X27349500Y-39409450D01*
X-27349500Y-39409450D01*
X-27377828Y-39230593D01*
X-27433788Y-39058362D01*
X-27516002Y-38897008D01*
X-27569225Y-38823752D01*
X-27622447Y-38750499D01*
X-27750499Y-38622447D01*
X-27823752Y-38569225D01*
X-27897008Y-38516002D01*
X-28058362Y-38433788D01*
X-28230593Y-38377828D01*
X-28409451Y-38349500D01*
X-28409454Y-38349500D01*
X-28590546Y-38349500D01*
X-28590549Y-38349500D01*
X-28769406Y-38377828D01*
X-28941637Y-38433788D01*
X-29102991Y-38516002D01*
X-29102993Y-38516003D01*
X-29102994Y-38516004D01*
X-29249501Y-38622447D01*
X-29377553Y-38750499D01*
X-29483996Y-38897006D01*
X-29566211Y-39058361D01*
X-29622171Y-39230591D01*
X-29622171Y-39230593D01*
X-29650500Y-39409450D01*
X-31699500Y-39409450D01*
X-31699500Y-11935931D01*
X-30850500Y-11935931D01*
X-30850500Y-12064069D01*
X-30825501Y-12189744D01*
X-30776465Y-12308127D01*
X-30705276Y-12414669D01*
X-30614669Y-12505276D01*
X-30508127Y-12576465D01*
X-30389744Y-12625501D01*
X-30264069Y-12650500D01*
X-30264068Y-12650500D01*
X-30135932Y-12650500D01*
X-30135931Y-12650500D01*
X-30010256Y-12625501D01*
X-29891873Y-12576465D01*
X-29891870Y-12576463D01*
X-29891866Y-12576461D01*
X-29848848Y-12547717D01*
X-29785331Y-12505276D01*
X-29694724Y-12414669D01*
X-29666365Y-12372226D01*
X-29623538Y-12308133D01*
X-29623534Y-12308125D01*
X-29574500Y-12189747D01*
X-29574499Y-12189742D01*
X-29549500Y-12064069D01*
X-29549500Y-11935931D01*
X-29050500Y-11935931D01*
X-29050500Y-12064069D01*
X-29025501Y-12189744D01*
X-28976465Y-12308127D01*
X-28905276Y-12414669D01*
X-28814669Y-12505276D01*
X-28708127Y-12576465D01*
X-28589744Y-12625501D01*
X-28464069Y-12650500D01*
X-28464068Y-12650500D01*
X-28335932Y-12650500D01*
X-28335931Y-12650500D01*
X-28210256Y-12625501D01*
X-28091873Y-12576465D01*
X-28091870Y-12576463D01*
X-28091866Y-12576461D01*
X-28048848Y-12547717D01*
X-27985331Y-12505276D01*
X-27894724Y-12414669D01*
X-27866365Y-12372226D01*
X-27823538Y-12308133D01*
X-27823534Y-12308125D01*
X-27774500Y-12189747D01*
X-27774499Y-12189742D01*
X-27749500Y-12064069D01*
X-27749500Y-11935930D01*
X-27774499Y-11810257D01*
X-27774500Y-11810252D01*
X-27823534Y-11691874D01*
X-27823538Y-11691866D01*
X-27894724Y-11585331D01*
X-27894727Y-11585327D01*
X-27985327Y-11494727D01*
X-27985331Y-11494724D01*
X-28091866Y-11423538D01*
X-28091874Y-11423534D01*
X-28210252Y-11374500D01*
X-28210255Y-11374499D01*
X-28210256Y-11374499D01*
X-28273093Y-11361999D01*
X-28335930Y-11349500D01*
X-28335931Y-11349500D01*
X-28464069Y-11349500D01*
X-28589744Y-11374499D01*
X-28589745Y-11374499D01*
X-28589747Y-11374500D01*
X-28708125Y-11423534D01*
X-28708133Y-11423538D01*
X-28772226Y-11466365D01*
X-28814669Y-11494724D01*
X-28905276Y-11585331D01*
X-28947717Y-11648848D01*
X-28976461Y-11691866D01*
X-28976463Y-11691870D01*
X-28976465Y-11691873D01*
X-29025501Y-11810256D01*
X-29050500Y-11935931D01*
X-29549500Y-11935931D01*
X-29549500Y-11935930D01*
X-29574499Y-11810257D01*
X-29574500Y-11810252D01*
X-29623534Y-11691874D01*
X-29623538Y-11691866D01*
X-29694724Y-11585331D01*
X-29694727Y-11585327D01*
X-29785327Y-11494727D01*
X-29785331Y-11494724D01*
X-29891866Y-11423538D01*
X-29891874Y-11423534D01*
X-30010252Y-11374500D01*
X-30010255Y-11374499D01*
X-30010256Y-11374499D01*
X-30073093Y-11361999D01*
X-30135930Y-11349500D01*
X-30135931Y-11349500D01*
X-30264069Y-11349500D01*
X-30389744Y-11374499D01*
X-30389745Y-11374499D01*
X-30389747Y-11374500D01*
X-30508125Y-11423534D01*
X-30508133Y-11423538D01*
X-30572226Y-11466365D01*
X-30614669Y-11494724D01*
X-30705276Y-11585331D01*
X-30747717Y-11648848D01*
X-30776461Y-11691866D01*
X-30776463Y-11691870D01*
X-30776465Y-11691873D01*
X-30825501Y-11810256D01*
X-30850500Y-11935931D01*
X-31699500Y-11935931D01*
X-31699500Y-172708D01*
X-27984800Y-172708D01*
X-27984800Y-304492D01*
X-27950692Y-431786D01*
X-27950690Y-431788D01*
X-27950690Y-431790D01*
X-27927384Y-472157D01*
X-27884800Y-545914D01*
X-27791614Y-639100D01*
X-27791609Y-639102D01*
X-27791609Y-639103D01*
X-27677489Y-704990D01*
X-27677488Y-704990D01*
X-27677486Y-704992D01*
X-27550192Y-739100D01*
X-27550190Y-739100D01*
X-27418410Y-739100D01*
X-27418408Y-739100D01*
X-27291114Y-704992D01*
X-27291111Y-704990D01*
X-27291109Y-704990D01*
X-27176990Y-639103D01*
X-27176988Y-639101D01*
X-27176986Y-639100D01*
X-27083800Y-545914D01*
X-27083798Y-545911D01*
X-27080983Y-543096D01*
X-27026466Y-515319D01*
X-27010979Y-514100D01*
X-9202901Y-514100D01*
X-9202900Y-514100D01*
X-9101642Y-472157D01*
X-9101638Y-472153D01*
X-9024142Y-394658D01*
X-9024143Y-394658D01*
X5503039Y14132524D01*
X5557556Y14160301D01*
X5617988Y14150730D01*
X5661253Y14107465D01*
X5670824Y14047033D01*
X5668671Y14036902D01*
X5640400Y13931392D01*
X5640400Y13931390D01*
X5640400Y13799609D01*
X5674509Y13672309D01*
X5740396Y13558190D01*
X5833590Y13464996D01*
X5947710Y13399109D01*
X5947708Y13399109D01*
X6015354Y13380983D01*
X6075008Y13365000D01*
X6075010Y13365000D01*
X6206790Y13365000D01*
X6206792Y13365000D01*
X6334086Y13399108D01*
X6334090Y13399109D01*
X6448209Y13464996D01*
X6448211Y13464998D01*
X6448214Y13465000D01*
X6541400Y13558186D01*
X6541401Y13558188D01*
X6541403Y13558190D01*
X6607290Y13672309D01*
X6607290Y13672311D01*
X6607292Y13672314D01*
X6641400Y13799608D01*
X6641400Y13931392D01*
X6641400Y13935377D01*
X6660307Y13993568D01*
X6670396Y14005381D01*
X6879896Y14214881D01*
X6934413Y14242658D01*
X6994845Y14233087D01*
X7038110Y14189822D01*
X7048900Y14144877D01*
X7048900Y11782600D01*
X7077423Y11713741D01*
X7077423Y11713740D01*
X7090841Y11681344D01*
X9358004Y9414179D01*
X9385781Y9359662D01*
X9387000Y9344175D01*
X9387000Y9274422D01*
X9368093Y9216231D01*
X9318593Y9180267D01*
X9257407Y9180267D01*
X9217996Y9204418D01*
X6670596Y11751818D01*
X6642819Y11806335D01*
X6641600Y11821822D01*
X6641600Y11957590D01*
X6641600Y11957592D01*
X6607492Y12084886D01*
X6600960Y12096199D01*
X6541603Y12199009D01*
X6541602Y12199009D01*
X6541600Y12199014D01*
X6448414Y12292200D01*
X6334289Y12358090D01*
X6334288Y12358090D01*
X6334286Y12358092D01*
X6206992Y12392200D01*
X6075208Y12392200D01*
X5947914Y12358092D01*
X5947911Y12358090D01*
X5947909Y12358090D01*
X5833790Y12292203D01*
X5833788Y12292201D01*
X5833786Y12292200D01*
X5740600Y12199014D01*
X5740598Y12199011D01*
X5740596Y12199009D01*
X5674709Y12084890D01*
X5674708Y12084886D01*
X5640600Y11957592D01*
X5640600Y11825808D01*
X5655639Y11769678D01*
X5674709Y11698509D01*
X5740596Y11584390D01*
X5833790Y11491196D01*
X5947910Y11425309D01*
X5947908Y11425309D01*
X6015554Y11407183D01*
X6075208Y11391200D01*
X6075210Y11391200D01*
X6210976Y11391200D01*
X6269167Y11372293D01*
X6280980Y11362204D01*
X22387004Y-4743819D01*
X22414781Y-4798336D01*
X22416000Y-4813823D01*
X22416000Y-18736686D01*
X22397093Y-18794877D01*
X22347593Y-18830841D01*
X22291378Y-18832313D01*
X22255197Y-18822618D01*
X22220792Y-18813400D01*
X22089008Y-18813400D01*
X22023917Y-18830841D01*
X21961709Y-18847509D01*
X21847590Y-18913396D01*
X21847589Y-18913397D01*
X21847586Y-18913399D01*
X21847586Y-18913400D01*
X21754400Y-19006586D01*
X21754398Y-19006588D01*
X21751583Y-19009404D01*
X21697066Y-19037181D01*
X21681579Y-19038400D01*
X20950377Y-19038400D01*
X20892186Y-19019493D01*
X20864640Y-18988899D01*
X20851701Y-18966488D01*
X20851700Y-18966486D01*
X20758514Y-18873300D01*
X20758511Y-18873298D01*
X20758509Y-18873296D01*
X20644389Y-18807409D01*
X20644391Y-18807409D01*
X20594999Y-18794175D01*
X20517092Y-18773300D01*
X20385308Y-18773300D01*
X20307400Y-18794175D01*
X20258009Y-18807409D01*
X20143890Y-18873296D01*
X20050696Y-18966490D01*
X19984809Y-19080609D01*
X19972079Y-19128119D01*
X19950700Y-19207908D01*
X19950700Y-19339692D01*
X19966994Y-19400503D01*
X19984809Y-19466990D01*
X20050696Y-19581109D01*
X20050698Y-19581111D01*
X20050700Y-19581114D01*
X20143886Y-19674300D01*
X20143888Y-19674301D01*
X20143890Y-19674303D01*
X20258010Y-19740190D01*
X20258008Y-19740190D01*
X20258012Y-19740191D01*
X20258014Y-19740192D01*
X20385308Y-19774300D01*
X20385310Y-19774300D01*
X20517090Y-19774300D01*
X20517092Y-19774300D01*
X20644386Y-19740192D01*
X20644388Y-19740190D01*
X20644390Y-19740190D01*
X20758509Y-19674303D01*
X20758509Y-19674302D01*
X20758514Y-19674300D01*
X20786466Y-19646347D01*
X20814419Y-19618396D01*
X20868936Y-19590619D01*
X20884422Y-19589400D01*
X21681579Y-19589400D01*
X21739770Y-19608307D01*
X21751583Y-19618396D01*
X21754398Y-19621211D01*
X21754400Y-19621214D01*
X21847586Y-19714400D01*
X21847588Y-19714401D01*
X21847590Y-19714403D01*
X21961710Y-19780290D01*
X21961708Y-19780290D01*
X21961712Y-19780291D01*
X21961714Y-19780292D01*
X22089008Y-19814400D01*
X22089010Y-19814400D01*
X22220790Y-19814400D01*
X22220792Y-19814400D01*
X22348086Y-19780292D01*
X22348088Y-19780290D01*
X22348091Y-19780290D01*
X22354084Y-19777808D01*
X22355125Y-19780322D01*
X22403733Y-19769976D01*
X22459636Y-19794846D01*
X22463388Y-19798404D01*
X22464588Y-19799603D01*
X22492389Y-19854108D01*
X22482842Y-19914544D01*
X22444115Y-19955372D01*
X22367688Y-19999498D01*
X22367686Y-19999499D01*
X22367686Y-19999500D01*
X22274500Y-20092686D01*
X22274498Y-20092688D01*
X22271683Y-20095504D01*
X22217166Y-20123281D01*
X22201679Y-20124500D01*
X15962124Y-20124500D01*
X15903933Y-20105593D01*
X15892120Y-20095504D01*
X4301196Y-8504580D01*
X4273419Y-8450063D01*
X4272200Y-8434576D01*
X4272200Y-8298809D01*
X4272200Y-8298808D01*
X4238092Y-8171514D01*
X4238090Y-8171511D01*
X4238090Y-8171509D01*
X4172203Y-8057390D01*
X4172201Y-8057388D01*
X4172200Y-8057386D01*
X4079014Y-7964200D01*
X4079011Y-7964198D01*
X4079009Y-7964196D01*
X3964889Y-7898309D01*
X3964891Y-7898309D01*
X3915499Y-7885075D01*
X3837592Y-7864200D01*
X3705808Y-7864200D01*
X3627900Y-7885075D01*
X3578509Y-7898309D01*
X3464390Y-7964196D01*
X3371196Y-8057390D01*
X3305309Y-8171509D01*
X3305308Y-8171514D01*
X3271200Y-8298808D01*
X3271200Y-8430592D01*
X3280708Y-8466076D01*
X3305309Y-8557890D01*
X3371196Y-8672009D01*
X3371198Y-8672011D01*
X3371200Y-8672014D01*
X3464386Y-8765200D01*
X3464388Y-8765201D01*
X3464390Y-8765203D01*
X3578510Y-8831090D01*
X3578508Y-8831090D01*
X3578512Y-8831091D01*
X3578514Y-8831092D01*
X3705808Y-8865200D01*
X3705810Y-8865200D01*
X3841577Y-8865200D01*
X3899768Y-8884107D01*
X3911580Y-8894195D01*
X15650941Y-20633557D01*
X15680595Y-20645839D01*
X15680597Y-20645841D01*
X15680598Y-20645841D01*
X15716399Y-20660670D01*
X15752200Y-20675500D01*
X16104300Y-20675500D01*
X16162491Y-20694407D01*
X16198455Y-20743907D01*
X16203300Y-20774500D01*
X16203300Y-22454700D01*
X16242237Y-22548700D01*
X16245243Y-22555958D01*
X20439541Y-26750257D01*
X20460164Y-26758799D01*
X20460165Y-26758800D01*
X20469656Y-26762731D01*
X20540800Y-26792200D01*
X22728977Y-26792200D01*
X22787168Y-26811107D01*
X22798981Y-26821196D01*
X24486980Y-28509196D01*
X24514757Y-28563713D01*
X24505186Y-28624145D01*
X24461921Y-28667410D01*
X24416976Y-28678200D01*
X-14970410Y-28678200D01*
X-15028601Y-28659293D01*
X-15040414Y-28649204D01*
X-16420504Y-27269114D01*
X-16448281Y-27214597D01*
X-16449500Y-27199110D01*
X-16449500Y-27169409D01*
X-16483609Y-27042109D01*
X-16549496Y-26927990D01*
X-16642690Y-26834796D01*
X-16756810Y-26768909D01*
X-16756808Y-26768909D01*
X-16826425Y-26750256D01*
X-16884108Y-26734800D01*
X-17015892Y-26734800D01*
X-17105462Y-26758800D01*
X-17143190Y-26768909D01*
X-17257309Y-26834796D01*
X-17257311Y-26834798D01*
X-17257314Y-26834800D01*
X-17350500Y-26927986D01*
X-17350501Y-26927988D01*
X-17350503Y-26927990D01*
X-17416390Y-27042109D01*
X-17416390Y-27042111D01*
X-17416392Y-27042114D01*
X-17441200Y-27134700D01*
X-17450500Y-27169409D01*
X-17450500Y-27199110D01*
X-17469407Y-27257301D01*
X-17479496Y-27269114D01*
X-22030886Y-31820504D01*
X-22085403Y-31848281D01*
X-22100890Y-31849500D01*
X-25254272Y-31849500D01*
X-25284693Y-31852353D01*
X-25284702Y-31852355D01*
X-25412880Y-31897206D01*
X-25412881Y-31897207D01*
X-25522149Y-31977851D01*
X-25602793Y-32087119D01*
X-25647646Y-32215302D01*
X-25647646Y-32215306D01*
X-25650499Y-32245727D01*
X-25650500Y-32245729D01*
X-25650500Y-35754271D01*
X-25650499Y-35754271D01*
X-25647646Y-35784698D01*
X-25602793Y-35912881D01*
X-25522149Y-36022149D01*
X-25412881Y-36102793D01*
X-25284698Y-36147646D01*
X-25254271Y-36150499D01*
X-25254271Y-36150500D01*
X-25254264Y-36150500D01*
X-21745729Y-36150500D01*
X-21745727Y-36150499D01*
X-21715302Y-36147646D01*
X-21587119Y-36102793D01*
X-21477851Y-36022149D01*
X-21397207Y-35912881D01*
X-21397206Y-35912880D01*
X-21352355Y-35784702D01*
X-21352353Y-35784693D01*
X-21349500Y-35754272D01*
X-21349500Y-34434108D01*
X24574500Y-34434108D01*
X24574500Y-34565892D01*
X24604579Y-34678151D01*
X24608609Y-34693190D01*
X24674496Y-34807309D01*
X24674498Y-34807311D01*
X24674500Y-34807314D01*
X24767686Y-34900500D01*
X24767688Y-34900501D01*
X24767690Y-34900503D01*
X24881810Y-34966390D01*
X24881808Y-34966390D01*
X24881812Y-34966391D01*
X24881814Y-34966392D01*
X25009108Y-35000500D01*
X25009110Y-35000500D01*
X25140890Y-35000500D01*
X25140892Y-35000500D01*
X25268186Y-34966392D01*
X25268188Y-34966390D01*
X25268190Y-34966390D01*
X25382309Y-34900503D01*
X25382309Y-34900502D01*
X25382314Y-34900500D01*
X25475500Y-34807314D01*
X25541392Y-34693186D01*
X25575500Y-34565892D01*
X25575500Y-34434108D01*
X25541392Y-34306814D01*
X25541390Y-34306811D01*
X25541390Y-34306809D01*
X25475503Y-34192690D01*
X25475501Y-34192688D01*
X25475500Y-34192686D01*
X25382314Y-34099500D01*
X25382311Y-34099498D01*
X25382309Y-34099496D01*
X25268189Y-34033609D01*
X25268191Y-34033609D01*
X25200075Y-34015358D01*
X25140892Y-33999500D01*
X25009108Y-33999500D01*
X24949925Y-34015358D01*
X24881809Y-34033609D01*
X24767690Y-34099496D01*
X24674496Y-34192690D01*
X24608609Y-34306809D01*
X24608608Y-34306814D01*
X24574500Y-34434108D01*
X-21349500Y-34434108D01*
X-21349500Y-32245727D01*
X-21352353Y-32215302D01*
X-21352354Y-32215300D01*
X-21353059Y-32213285D01*
X-21353089Y-32211935D01*
X-21353639Y-32209418D01*
X-21353147Y-32209310D01*
X-21354423Y-32152115D01*
X-21329614Y-32110596D01*
X-17020003Y-27800985D01*
X-16965486Y-27773208D01*
X-16905054Y-27782779D01*
X-16880002Y-27800979D01*
X-15371812Y-29309170D01*
X-15291888Y-29355314D01*
X-15202744Y-29379200D01*
X-15202743Y-29379200D01*
X-15110456Y-29379200D01*
X-4923719Y-29379200D01*
X-4865528Y-29398107D01*
X-4829564Y-29447607D01*
X-4829564Y-29508793D01*
X-4865528Y-29558293D01*
X-4875070Y-29563636D01*
X-4874767Y-29564163D01*
X-4994509Y-29633296D01*
X-4994511Y-29633298D01*
X-4994514Y-29633300D01*
X-5087700Y-29726486D01*
X-5087701Y-29726488D01*
X-5087703Y-29726490D01*
X-5153590Y-29840609D01*
X-5153590Y-29840611D01*
X-5153592Y-29840614D01*
X-5187700Y-29967908D01*
X-5187700Y-30099692D01*
X-5153592Y-30226986D01*
X-5087700Y-30341114D01*
X-4994514Y-30434300D01*
X-4915682Y-30479814D01*
X-4880389Y-30500190D01*
X-4880388Y-30500190D01*
X-4880386Y-30500192D01*
X-4753092Y-30534300D01*
X-4753090Y-30534300D01*
X-4617322Y-30534300D01*
X-4559131Y-30553207D01*
X-4547318Y-30563295D01*
X-1851157Y-33259458D01*
X-1773658Y-33336957D01*
X-1672400Y-33378900D01*
X9309161Y-33378900D01*
X9367352Y-33397807D01*
X9403316Y-33447307D01*
X9404787Y-33503521D01*
X9387000Y-33569908D01*
X9387000Y-33701692D01*
X9417079Y-33813951D01*
X9421109Y-33828990D01*
X9486996Y-33943109D01*
X9486998Y-33943111D01*
X9487000Y-33943114D01*
X9580186Y-34036300D01*
X9580188Y-34036301D01*
X9580190Y-34036303D01*
X9694310Y-34102190D01*
X9694308Y-34102190D01*
X9694312Y-34102191D01*
X9694314Y-34102192D01*
X9821608Y-34136300D01*
X9821610Y-34136300D01*
X9953391Y-34136300D01*
X9953392Y-34136300D01*
X9985554Y-34127682D01*
X10046655Y-34130883D01*
X10049066Y-34131845D01*
X10056199Y-34134800D01*
X10056200Y-34134800D01*
X24191599Y-34134800D01*
X24191600Y-34134800D01*
X24292858Y-34092857D01*
X24370357Y-34015358D01*
X24370356Y-34015358D01*
X26242528Y-32143186D01*
X28132519Y-30253196D01*
X28187036Y-30225419D01*
X28202523Y-30224200D01*
X28338290Y-30224200D01*
X28338292Y-30224200D01*
X28465586Y-30190092D01*
X28465588Y-30190090D01*
X28465590Y-30190090D01*
X28579709Y-30124203D01*
X28579709Y-30124202D01*
X28579714Y-30124200D01*
X28672900Y-30031014D01*
X28702752Y-29979309D01*
X28738790Y-29916890D01*
X28738790Y-29916888D01*
X28738792Y-29916886D01*
X28772900Y-29789592D01*
X28772900Y-29657808D01*
X28738792Y-29530514D01*
X28738790Y-29530511D01*
X28738790Y-29530509D01*
X28672903Y-29416390D01*
X28672901Y-29416388D01*
X28672900Y-29416386D01*
X28579714Y-29323200D01*
X28579711Y-29323198D01*
X28579709Y-29323196D01*
X28465589Y-29257309D01*
X28465591Y-29257309D01*
X28416199Y-29244075D01*
X28338292Y-29223200D01*
X28206508Y-29223200D01*
X28128600Y-29244075D01*
X28079209Y-29257309D01*
X27965090Y-29323196D01*
X27871896Y-29416390D01*
X27806009Y-29530509D01*
X27771900Y-29657809D01*
X27771900Y-29793575D01*
X27752993Y-29851766D01*
X27742903Y-29863579D01*
X24969476Y-32637009D01*
X24051681Y-33554804D01*
X23997164Y-33582581D01*
X23981677Y-33583800D01*
X23772466Y-33583800D01*
X23714275Y-33564893D01*
X23678311Y-33515393D01*
X23676839Y-33459179D01*
X23693100Y-33398492D01*
X23693100Y-33266708D01*
X23693100Y-33262722D01*
X23712007Y-33204531D01*
X23722096Y-33192718D01*
X24415318Y-32499496D01*
X26691258Y-30223558D01*
X26733200Y-30122300D01*
X26733200Y-30012700D01*
X26733200Y-27189423D01*
X26752107Y-27131232D01*
X26762196Y-27119420D01*
X27014970Y-26866645D01*
X27069487Y-26838867D01*
X27129919Y-26848438D01*
X27170710Y-26887147D01*
X27202097Y-26941509D01*
X27202100Y-26941514D01*
X27295286Y-27034700D01*
X27295288Y-27034701D01*
X27295290Y-27034703D01*
X27409410Y-27100590D01*
X27409408Y-27100590D01*
X27409412Y-27100591D01*
X27409414Y-27100592D01*
X27536708Y-27134700D01*
X27536710Y-27134700D01*
X27668490Y-27134700D01*
X27668492Y-27134700D01*
X27795786Y-27100592D01*
X27795788Y-27100590D01*
X27795790Y-27100590D01*
X27909909Y-27034703D01*
X27909909Y-27034702D01*
X27909914Y-27034700D01*
X28003100Y-26941514D01*
X28010908Y-26927990D01*
X28068990Y-26827390D01*
X28068990Y-26827388D01*
X28068992Y-26827386D01*
X28103100Y-26700092D01*
X28103100Y-26670389D01*
X28122007Y-26612198D01*
X28132090Y-26600391D01*
X29605469Y-25127013D01*
X29651614Y-25047088D01*
X29659649Y-25017100D01*
X29675500Y-24957944D01*
X29675500Y-23998320D01*
X29694407Y-23940129D01*
X29704490Y-23928322D01*
X29725500Y-23907313D01*
X29791392Y-23793185D01*
X29825500Y-23665891D01*
X29825500Y-23534107D01*
X29791392Y-23406813D01*
X29791390Y-23406810D01*
X29791390Y-23406808D01*
X29725503Y-23292689D01*
X29725501Y-23292687D01*
X29725500Y-23292685D01*
X29632314Y-23199499D01*
X29632311Y-23199497D01*
X29632309Y-23199495D01*
X29518189Y-23133608D01*
X29518191Y-23133608D01*
X29468799Y-23120374D01*
X29390892Y-23099499D01*
X29259108Y-23099499D01*
X29181200Y-23120374D01*
X29131809Y-23133608D01*
X29017690Y-23199495D01*
X28924496Y-23292689D01*
X28858609Y-23406808D01*
X28858608Y-23406813D01*
X28824500Y-23534107D01*
X28824500Y-23665891D01*
X28854579Y-23778150D01*
X28858609Y-23793189D01*
X28924496Y-23907308D01*
X28924498Y-23907310D01*
X28924500Y-23907313D01*
X28945505Y-23928318D01*
X28973281Y-23982833D01*
X28974500Y-23998320D01*
X28974500Y-24725610D01*
X28955593Y-24783801D01*
X28945504Y-24795614D01*
X28645104Y-25096014D01*
X28590587Y-25123791D01*
X28530155Y-25114220D01*
X28486890Y-25070955D01*
X28476100Y-25026010D01*
X28476100Y-21620800D01*
X28446441Y-21549198D01*
X28446441Y-21549197D01*
X28434158Y-21519544D01*
X28434157Y-21519542D01*
X28434157Y-21519541D01*
X26584118Y-19669503D01*
X26556342Y-19614987D01*
X26565913Y-19554555D01*
X26609178Y-19511290D01*
X26654123Y-19500500D01*
X26765890Y-19500500D01*
X26765892Y-19500500D01*
X26893186Y-19466392D01*
X26893188Y-19466390D01*
X26893190Y-19466390D01*
X27007309Y-19400503D01*
X27007309Y-19400502D01*
X27007314Y-19400500D01*
X27100500Y-19307314D01*
X27157892Y-19207909D01*
X27166390Y-19193190D01*
X27166390Y-19193188D01*
X27166392Y-19193186D01*
X27200500Y-19065892D01*
X27200500Y-18934108D01*
X27166392Y-18806814D01*
X27166390Y-18806811D01*
X27166390Y-18806809D01*
X27100503Y-18692690D01*
X27100499Y-18692685D01*
X27007312Y-18599497D01*
X27002169Y-18595551D01*
X27003785Y-18593443D01*
X26970382Y-18556339D01*
X26961867Y-18518907D01*
X26952786Y-18201076D01*
X26888836Y-15962848D01*
X26906074Y-15904144D01*
X26917788Y-15890025D01*
X27000500Y-15807314D01*
X27066392Y-15693186D01*
X27100500Y-15565892D01*
X27100500Y-15434108D01*
X27066392Y-15306814D01*
X27066390Y-15306811D01*
X27066390Y-15306809D01*
X27000503Y-15192690D01*
X27000501Y-15192688D01*
X27000500Y-15192686D01*
X26907314Y-15099500D01*
X26907311Y-15099498D01*
X26907309Y-15099496D01*
X26793189Y-15033609D01*
X26793191Y-15033609D01*
X26743799Y-15020375D01*
X26665892Y-14999500D01*
X26534108Y-14999500D01*
X26406814Y-15033608D01*
X26406812Y-15033608D01*
X26400546Y-15035288D01*
X26399746Y-15032302D01*
X26351348Y-15036091D01*
X26299192Y-15004099D01*
X26275802Y-14947561D01*
X26275500Y-14939836D01*
X26275500Y-10074423D01*
X26294407Y-10016232D01*
X26304496Y-10004419D01*
X27057911Y-9251004D01*
X29299500Y-9251004D01*
X29299500Y-9388995D01*
X29326420Y-9524327D01*
X29326420Y-9524329D01*
X29379222Y-9651806D01*
X29379228Y-9651817D01*
X29455885Y-9766541D01*
X29553458Y-9864114D01*
X29668182Y-9940771D01*
X29668193Y-9940777D01*
X29715283Y-9960282D01*
X29795672Y-9993580D01*
X29931007Y-10020500D01*
X29931008Y-10020500D01*
X30068992Y-10020500D01*
X30068993Y-10020500D01*
X30204328Y-9993580D01*
X30331811Y-9940775D01*
X30446542Y-9864114D01*
X30544114Y-9766542D01*
X30620775Y-9651811D01*
X30673580Y-9524328D01*
X30700500Y-9388993D01*
X30700500Y-9251007D01*
X30673580Y-9115672D01*
X30620775Y-8988189D01*
X30620774Y-8988187D01*
X30620771Y-8988182D01*
X30544114Y-8873458D01*
X30446541Y-8775885D01*
X30331817Y-8699228D01*
X30331806Y-8699222D01*
X30204328Y-8646420D01*
X30068995Y-8619500D01*
X30068993Y-8619500D01*
X29931007Y-8619500D01*
X29931004Y-8619500D01*
X29795672Y-8646420D01*
X29795670Y-8646420D01*
X29668193Y-8699222D01*
X29668182Y-8699228D01*
X29553458Y-8775885D01*
X29455885Y-8873458D01*
X29379228Y-8988182D01*
X29379222Y-8988193D01*
X29326420Y-9115670D01*
X29326420Y-9115672D01*
X29299500Y-9251004D01*
X27057911Y-9251004D01*
X27176919Y-9131996D01*
X27231436Y-9104219D01*
X27246923Y-9103000D01*
X27382690Y-9103000D01*
X27382692Y-9103000D01*
X27509986Y-9068892D01*
X27509988Y-9068890D01*
X27509990Y-9068890D01*
X27624109Y-9003003D01*
X27624109Y-9003002D01*
X27624114Y-9003000D01*
X27717300Y-8909814D01*
X27748548Y-8855691D01*
X27783190Y-8795690D01*
X27783190Y-8795688D01*
X27783192Y-8795686D01*
X27817300Y-8668392D01*
X27817300Y-8536608D01*
X27783192Y-8409314D01*
X27783190Y-8409311D01*
X27783190Y-8409309D01*
X27717303Y-8295190D01*
X27717301Y-8295188D01*
X27717300Y-8295186D01*
X27624114Y-8202000D01*
X27624111Y-8201998D01*
X27624109Y-8201996D01*
X27509989Y-8136109D01*
X27509991Y-8136109D01*
X27460599Y-8122875D01*
X27382692Y-8102000D01*
X27250908Y-8102000D01*
X27173000Y-8122875D01*
X27123609Y-8136109D01*
X27009490Y-8201996D01*
X26916296Y-8295190D01*
X26850409Y-8409309D01*
X26816300Y-8536609D01*
X26816300Y-8672375D01*
X26797393Y-8730566D01*
X26787304Y-8742378D01*
X25843942Y-9685742D01*
X25766446Y-9763238D01*
X25766444Y-9763240D01*
X25766443Y-9763242D01*
X25765076Y-9766542D01*
X25724500Y-9864500D01*
X25724500Y-18201678D01*
X25705593Y-18259869D01*
X25695504Y-18271682D01*
X25670004Y-18297182D01*
X25615487Y-18324959D01*
X25555055Y-18315388D01*
X25529996Y-18297182D01*
X25504496Y-18271682D01*
X25476719Y-18217165D01*
X25475500Y-18201678D01*
X25475500Y-1637501D01*
X25465765Y-1613998D01*
X25465765Y-1613997D01*
X25433559Y-1536244D01*
X25433558Y-1536243D01*
X25433558Y-1536242D01*
X12756422Y11140892D01*
X24899500Y11140892D01*
X24899500Y11140890D01*
X24899500Y11009109D01*
X24933609Y10881809D01*
X24999496Y10767690D01*
X25092690Y10674496D01*
X25206810Y10608609D01*
X25206808Y10608609D01*
X25274454Y10590483D01*
X25334108Y10574500D01*
X25334110Y10574500D01*
X25465890Y10574500D01*
X25465892Y10574500D01*
X25593186Y10608608D01*
X25593190Y10608609D01*
X25707309Y10674496D01*
X25707311Y10674498D01*
X25707314Y10674500D01*
X25800500Y10767686D01*
X25800501Y10767688D01*
X25800503Y10767690D01*
X25866390Y10881809D01*
X25866390Y10881811D01*
X25866392Y10881814D01*
X25900500Y11009108D01*
X25900500Y11140892D01*
X25866392Y11268186D01*
X25807489Y11370208D01*
X25800503Y11382309D01*
X25800502Y11382309D01*
X25800500Y11382314D01*
X25707314Y11475500D01*
X25593189Y11541390D01*
X25593188Y11541390D01*
X25593186Y11541392D01*
X25465892Y11575500D01*
X25334108Y11575500D01*
X25206814Y11541392D01*
X25206811Y11541390D01*
X25206809Y11541390D01*
X25092690Y11475503D01*
X25092688Y11475501D01*
X25092686Y11475500D01*
X24999500Y11382314D01*
X24999498Y11382311D01*
X24999496Y11382309D01*
X24933609Y11268190D01*
X24933608Y11268186D01*
X24899500Y11140892D01*
X12756422Y11140892D01*
X12472018Y11425296D01*
X12444242Y11479813D01*
X12453813Y11540245D01*
X12497078Y11583510D01*
X12542023Y11594300D01*
X12676679Y11594300D01*
X12734870Y11575393D01*
X12746683Y11565304D01*
X12749498Y11562488D01*
X12749500Y11562486D01*
X12812486Y11499500D01*
X12842689Y11469297D01*
X12842690Y11469296D01*
X12956810Y11403409D01*
X12956808Y11403409D01*
X13002375Y11391200D01*
X13084108Y11369300D01*
X13084110Y11369300D01*
X13215890Y11369300D01*
X13215892Y11369300D01*
X13343186Y11403408D01*
X13343190Y11403409D01*
X13457309Y11469296D01*
X13457311Y11469298D01*
X13457314Y11469300D01*
X13550500Y11562486D01*
X13550501Y11562488D01*
X13550503Y11562490D01*
X13616390Y11676609D01*
X13616390Y11676611D01*
X13616392Y11676614D01*
X13650500Y11803908D01*
X13650500Y11935692D01*
X13616392Y12062986D01*
X13614715Y12065890D01*
X13550503Y12177109D01*
X13550502Y12177109D01*
X13550500Y12177114D01*
X13457314Y12270300D01*
X13343189Y12336190D01*
X13343188Y12336190D01*
X13343186Y12336192D01*
X13215892Y12370300D01*
X13084108Y12370300D01*
X12956814Y12336192D01*
X12956811Y12336190D01*
X12956809Y12336190D01*
X12842690Y12270303D01*
X12842688Y12270301D01*
X12842686Y12270300D01*
X12749500Y12177114D01*
X12749498Y12177111D01*
X12746683Y12174296D01*
X12692166Y12146519D01*
X12676679Y12145300D01*
X12274323Y12145300D01*
X12216132Y12164207D01*
X12204319Y12174296D01*
X10173119Y14205496D01*
X10145342Y14260013D01*
X10154913Y14320445D01*
X10198178Y14363710D01*
X10243123Y14374500D01*
X11826679Y14374500D01*
X11884870Y14355593D01*
X11896683Y14345504D01*
X11899498Y14342688D01*
X11899500Y14342686D01*
X11976186Y14266000D01*
X11992689Y14249497D01*
X11992690Y14249496D01*
X12106810Y14183609D01*
X12106808Y14183609D01*
X12174454Y14165483D01*
X12234108Y14149500D01*
X12234110Y14149500D01*
X12365890Y14149500D01*
X12365892Y14149500D01*
X12478151Y14179579D01*
X12493190Y14183609D01*
X12607309Y14249496D01*
X12607311Y14249498D01*
X12607314Y14249500D01*
X12700500Y14342686D01*
X12700501Y14342688D01*
X12700503Y14342690D01*
X12769637Y14462433D01*
X12772077Y14461023D01*
X12804153Y14498589D01*
X12863646Y14512880D01*
X12920177Y14489472D01*
X12925894Y14484188D01*
X13508039Y13902044D01*
X13508040Y13902043D01*
X13508041Y13902043D01*
X13537699Y13889758D01*
X13537699Y13889757D01*
X13609299Y13860100D01*
X13609300Y13860100D01*
X21937079Y13860100D01*
X21995270Y13841193D01*
X22007083Y13831104D01*
X22009898Y13828288D01*
X22009900Y13828286D01*
X22062526Y13775660D01*
X22103089Y13735097D01*
X22103090Y13735096D01*
X22217210Y13669209D01*
X22217208Y13669209D01*
X22284854Y13651083D01*
X22344508Y13635100D01*
X22344510Y13635100D01*
X22476290Y13635100D01*
X22476292Y13635100D01*
X22603586Y13669208D01*
X22603590Y13669209D01*
X22717709Y13735096D01*
X22717711Y13735098D01*
X22717714Y13735100D01*
X22730498Y13747884D01*
X22785013Y13775660D01*
X22845445Y13766089D01*
X22888710Y13722824D01*
X22899500Y13677879D01*
X22899500Y13609109D01*
X22933609Y13481809D01*
X22999496Y13367690D01*
X23092690Y13274496D01*
X23206810Y13208609D01*
X23206808Y13208609D01*
X23274454Y13190483D01*
X23334108Y13174500D01*
X23334110Y13174500D01*
X23465890Y13174500D01*
X23465892Y13174500D01*
X23593186Y13208608D01*
X23593190Y13208609D01*
X23707309Y13274496D01*
X23707311Y13274498D01*
X23707314Y13274500D01*
X23800500Y13367686D01*
X23800501Y13367688D01*
X23800503Y13367690D01*
X23866390Y13481809D01*
X23866390Y13481811D01*
X23866392Y13481814D01*
X23900500Y13609108D01*
X23900500Y13740892D01*
X23866392Y13868186D01*
X23853937Y13889758D01*
X23800503Y13982309D01*
X23800502Y13982309D01*
X23800500Y13982314D01*
X23707314Y14075500D01*
X23593189Y14141390D01*
X23593188Y14141390D01*
X23593186Y14141392D01*
X23465892Y14175500D01*
X23334108Y14175500D01*
X23206814Y14141392D01*
X23206811Y14141390D01*
X23206809Y14141390D01*
X23092690Y14075503D01*
X23092688Y14075501D01*
X23092686Y14075500D01*
X23079901Y14062715D01*
X23025387Y14034940D01*
X22964955Y14044511D01*
X22921690Y14087776D01*
X22910900Y14132721D01*
X22910900Y14201490D01*
X22910900Y14201492D01*
X22876792Y14328786D01*
X22860796Y14356491D01*
X22810903Y14442909D01*
X22810902Y14442909D01*
X22810900Y14442914D01*
X22717714Y14536100D01*
X22705590Y14543100D01*
X22635852Y14583364D01*
X22594911Y14628833D01*
X22588515Y14689683D01*
X22619108Y14742671D01*
X22675004Y14767558D01*
X22685352Y14768100D01*
X24983679Y14768100D01*
X25041870Y14749193D01*
X25053683Y14739104D01*
X25056498Y14736288D01*
X25056500Y14736286D01*
X25103103Y14689683D01*
X25149689Y14643097D01*
X25149690Y14643096D01*
X25263810Y14577209D01*
X25263808Y14577209D01*
X25331454Y14559083D01*
X25391108Y14543100D01*
X25391110Y14543100D01*
X25522890Y14543100D01*
X25522892Y14543100D01*
X25650186Y14577208D01*
X25650190Y14577209D01*
X25764309Y14643096D01*
X25764311Y14643098D01*
X25764314Y14643100D01*
X25857500Y14736286D01*
X25857501Y14736288D01*
X25857503Y14736290D01*
X25923390Y14850409D01*
X25923390Y14850411D01*
X25923392Y14850414D01*
X25957500Y14977708D01*
X25957500Y15109492D01*
X25923392Y15236786D01*
X25922077Y15239063D01*
X25857503Y15350909D01*
X25857502Y15350909D01*
X25857500Y15350914D01*
X25764314Y15444100D01*
X25650189Y15509990D01*
X25650188Y15509990D01*
X25650186Y15509992D01*
X25522892Y15544100D01*
X25391108Y15544100D01*
X25263814Y15509992D01*
X25263811Y15509990D01*
X25263809Y15509990D01*
X25149690Y15444103D01*
X25149688Y15444101D01*
X25149686Y15444100D01*
X25056500Y15350914D01*
X25056498Y15350911D01*
X25053683Y15348096D01*
X24999166Y15320319D01*
X24983679Y15319100D01*
X13753124Y15319100D01*
X13694933Y15338007D01*
X13683120Y15348096D01*
X12466224Y16564992D01*
X11238066Y17793148D01*
X11210290Y17847665D01*
X11219861Y17908097D01*
X11263126Y17951362D01*
X11282443Y17958777D01*
X11318386Y17968408D01*
X11318390Y17968409D01*
X11432509Y18034296D01*
X11432511Y18034298D01*
X11432514Y18034300D01*
X11525700Y18127486D01*
X11525701Y18127488D01*
X11525703Y18127490D01*
X11591590Y18241609D01*
X11591590Y18241611D01*
X11591592Y18241614D01*
X11625700Y18368908D01*
X11625700Y18500692D01*
X11591592Y18627986D01*
X11576577Y18653992D01*
X11525703Y18742109D01*
X11525702Y18742109D01*
X11525700Y18742114D01*
X11432514Y18835300D01*
X11318389Y18901190D01*
X11318388Y18901190D01*
X11318386Y18901192D01*
X11191092Y18935300D01*
X11059308Y18935300D01*
X11055322Y18935300D01*
X10997131Y18954207D01*
X10985318Y18964296D01*
X10397914Y19551700D01*
X9788922Y20160691D01*
X9761147Y20215206D01*
X9770718Y20275638D01*
X9809427Y20316429D01*
X9873111Y20353198D01*
X9873114Y20353200D01*
X9966300Y20446386D01*
X9966301Y20446388D01*
X9966303Y20446390D01*
X10032190Y20560509D01*
X10032190Y20560511D01*
X10032192Y20560514D01*
X10066300Y20687808D01*
X10066300Y20819592D01*
X10032192Y20946886D01*
X10026641Y20956500D01*
X9966303Y21061009D01*
X9966302Y21061009D01*
X9966300Y21061014D01*
X9873114Y21154200D01*
X9758989Y21220090D01*
X9758988Y21220090D01*
X9758986Y21220092D01*
X9631692Y21254200D01*
X9499908Y21254200D01*
X9495923Y21254200D01*
X9437732Y21273107D01*
X9425920Y21283196D01*
X9334738Y21374376D01*
X9243558Y21465557D01*
X9237108Y21468228D01*
X9230660Y21470900D01*
X9230659Y21470900D01*
X9142300Y21507500D01*
X9142299Y21507500D01*
X-10172276Y21507500D01*
X-10230467Y21526407D01*
X-10242280Y21536496D01*
X-10355704Y21649920D01*
X-10383481Y21704437D01*
X-10384700Y21719924D01*
X-10384700Y21855690D01*
X-10384700Y21855692D01*
X-10418808Y21982986D01*
X-10418809Y21982990D01*
X-10484696Y22097109D01*
X-10484698Y22097111D01*
X-10484700Y22097114D01*
X-10577886Y22190300D01*
X-10577888Y22190301D01*
X-10577890Y22190303D01*
X-10658152Y22236643D01*
X-10658156Y22236644D01*
X-10692012Y22256191D01*
X-10692014Y22256192D01*
X-10819308Y22290300D01*
X-10951092Y22290300D01*
X-11078386Y22256192D01*
X-11078388Y22256190D01*
X-11078390Y22256190D01*
X-11191468Y22190904D01*
X-11192514Y22190300D01*
X-11285700Y22097114D01*
X-11295630Y22079914D01*
X-11300545Y22071401D01*
X-11346014Y22030460D01*
X-11386282Y22021900D01*
X-12456278Y22021900D01*
X-12514469Y22040807D01*
X-12550433Y22090307D01*
X-12550433Y22151493D01*
X-12528376Y22187485D01*
X-12528448Y22187540D01*
X-12527928Y22188216D01*
X-12526283Y22190901D01*
X-12524499Y22192686D01*
X-12524498Y22192686D01*
X-12524496Y22192689D01*
X-12524495Y22192690D01*
X-12458608Y22306809D01*
X-12456174Y22315892D01*
X7599500Y22315892D01*
X7599500Y22315890D01*
X7599500Y22184109D01*
X7633609Y22056809D01*
X7699496Y21942690D01*
X7792690Y21849496D01*
X7906810Y21783609D01*
X7906808Y21783609D01*
X7974454Y21765483D01*
X8034108Y21749500D01*
X8034110Y21749500D01*
X8165890Y21749500D01*
X8165892Y21749500D01*
X8293186Y21783608D01*
X8293190Y21783609D01*
X8407309Y21849496D01*
X8407311Y21849498D01*
X8407314Y21849500D01*
X8500500Y21942686D01*
X8500501Y21942688D01*
X8500503Y21942690D01*
X8566390Y22056809D01*
X8566390Y22056811D01*
X8566392Y22056814D01*
X8600500Y22184108D01*
X8600500Y22315892D01*
X8566392Y22443186D01*
X8538341Y22491771D01*
X8500503Y22557309D01*
X8500502Y22557309D01*
X8500500Y22557314D01*
X8407314Y22650500D01*
X8293189Y22716390D01*
X8293188Y22716390D01*
X8293186Y22716392D01*
X8165892Y22750500D01*
X8034108Y22750500D01*
X7906814Y22716392D01*
X7906811Y22716390D01*
X7906809Y22716390D01*
X7792690Y22650503D01*
X7792688Y22650501D01*
X7792686Y22650500D01*
X7699500Y22557314D01*
X7699498Y22557311D01*
X7699496Y22557309D01*
X7633609Y22443190D01*
X7633608Y22443186D01*
X7599500Y22315892D01*
X-12456174Y22315892D01*
X-12436400Y22389692D01*
X-12424499Y22434108D01*
X-12424499Y22565892D01*
X-12458607Y22693186D01*
X-12458608Y22693190D01*
X-12524495Y22807309D01*
X-12524497Y22807311D01*
X-12524499Y22807314D01*
X-12617685Y22900500D01*
X-12617687Y22900501D01*
X-12617689Y22900503D01*
X-12731809Y22966390D01*
X-12731807Y22966390D01*
X-12731811Y22966391D01*
X-12731813Y22966392D01*
X-12859107Y23000500D01*
X-12990891Y23000500D01*
X-13118185Y22966392D01*
X-13118187Y22966390D01*
X-13118189Y22966390D01*
X-13232308Y22900503D01*
X-13232313Y22900500D01*
X-13325499Y22807314D01*
X-13325501Y22807309D01*
X-13325502Y22807309D01*
X-13373427Y22724300D01*
X-13391391Y22693186D01*
X-13425499Y22565892D01*
X-13425499Y22434108D01*
X-13391391Y22306814D01*
X-13391389Y22306811D01*
X-13391389Y22306809D01*
X-13325502Y22192690D01*
X-13325501Y22192689D01*
X-13325499Y22192686D01*
X-13323714Y22190901D01*
X-13322895Y22189292D01*
X-13321550Y22187540D01*
X-13321874Y22187290D01*
X-13295939Y22136387D01*
X-13305510Y22075955D01*
X-13348775Y22032690D01*
X-13393720Y22021900D01*
X-20377134Y22021900D01*
X-20435325Y22040807D01*
X-20471289Y22090307D01*
X-20472760Y22146520D01*
X-20456500Y22207208D01*
X-20456500Y22338992D01*
X-20456500Y22342976D01*
X-20437593Y22401167D01*
X-20427504Y22412980D01*
X-17774592Y25065892D01*
X-13425499Y25065892D01*
X-13425499Y24934108D01*
X-13391391Y24806814D01*
X-13391389Y24806811D01*
X-13391389Y24806809D01*
X-13325502Y24692690D01*
X-13325500Y24692688D01*
X-13325499Y24692686D01*
X-13232313Y24599500D01*
X-13232310Y24599498D01*
X-13232308Y24599496D01*
X-13118188Y24533609D01*
X-13118190Y24533609D01*
X-13068798Y24520375D01*
X-12990891Y24499500D01*
X-12990889Y24499500D01*
X-12859109Y24499500D01*
X-12859107Y24499500D01*
X-12781199Y24520375D01*
X-12731808Y24533609D01*
X-12617689Y24599496D01*
X-12524495Y24692690D01*
X-12458608Y24806809D01*
X-12424499Y24934109D01*
X-12424499Y25065890D01*
X-12424499Y25065892D01*
X-12458607Y25193186D01*
X-12458608Y25193190D01*
X-12524495Y25307309D01*
X-12524497Y25307311D01*
X-12524499Y25307314D01*
X-12617685Y25400500D01*
X-12617687Y25400501D01*
X-12617689Y25400503D01*
X-12731809Y25466390D01*
X-12731807Y25466390D01*
X-12731811Y25466391D01*
X-12731813Y25466392D01*
X-12859107Y25500500D01*
X-12990891Y25500500D01*
X-13118185Y25466392D01*
X-13118187Y25466390D01*
X-13118189Y25466390D01*
X-13202700Y25417597D01*
X-13232313Y25400500D01*
X-13325499Y25307314D01*
X-13325501Y25307309D01*
X-13325502Y25307309D01*
X-13372204Y25226418D01*
X-13391391Y25193186D01*
X-13425499Y25065892D01*
X-17774592Y25065892D01*
X-16429680Y26410804D01*
X-16375163Y26438581D01*
X-16359676Y26439800D01*
X-10648321Y26439800D01*
X-10590130Y26420893D01*
X-10578317Y26410804D01*
X-10575501Y26407988D01*
X-10575500Y26407986D01*
X-10482314Y26314800D01*
X-10482311Y26314798D01*
X-10482309Y26314796D01*
X-10368189Y26248909D01*
X-10368191Y26248909D01*
X-10318799Y26235675D01*
X-10240892Y26214800D01*
X-10240890Y26214800D01*
X-10109110Y26214800D01*
X-10109108Y26214800D01*
X-10031200Y26235675D01*
X-9981809Y26248909D01*
X-9867690Y26314796D01*
X-9774496Y26407990D01*
X-9708609Y26522109D01*
X-9674500Y26649409D01*
X-9674500Y26781190D01*
X-9674500Y26781192D01*
X-9708608Y26908486D01*
X-9708609Y26908490D01*
X-9774496Y27022609D01*
X-9774498Y27022611D01*
X-9774500Y27022614D01*
X-9867686Y27115800D01*
X-9867689Y27115802D01*
X-9867690Y27115803D01*
X-9981810Y27181690D01*
X-9981808Y27181690D01*
X-9981812Y27181691D01*
X-9981814Y27181692D01*
X-10109108Y27215800D01*
X-10240892Y27215800D01*
X-10368186Y27181692D01*
X-10368188Y27181690D01*
X-10368190Y27181690D01*
X-10469175Y27123386D01*
X-10482314Y27115800D01*
X-10575500Y27022614D01*
X-10575501Y27022611D01*
X-10578317Y27019796D01*
X-10632834Y26992019D01*
X-10648321Y26990800D01*
X-16569600Y26990800D01*
X-16638158Y26962402D01*
X-16670859Y26948857D01*
X-20619214Y23000500D01*
X-20817118Y22802596D01*
X-20871635Y22774819D01*
X-20887122Y22773600D01*
X-20891108Y22773600D01*
X-21022892Y22773600D01*
X-21150186Y22739492D01*
X-21150188Y22739490D01*
X-21150190Y22739490D01*
X-21230390Y22693186D01*
X-21264314Y22673600D01*
X-21357500Y22580414D01*
X-21393941Y22517295D01*
X-21439408Y22476357D01*
X-21500258Y22469960D01*
X-21549677Y22496791D01*
X-21554486Y22501600D01*
X-21554488Y22501601D01*
X-21554490Y22501603D01*
X-21668610Y22567490D01*
X-21668608Y22567490D01*
X-21668612Y22567491D01*
X-21668614Y22567492D01*
X-21795908Y22601600D01*
X-21927692Y22601600D01*
X-22054986Y22567492D01*
X-22054988Y22567490D01*
X-22054990Y22567490D01*
X-22169109Y22501603D01*
X-22169114Y22501600D01*
X-22204001Y22466712D01*
X-22258515Y22438936D01*
X-22318947Y22448507D01*
X-22362212Y22491771D01*
X-22369630Y22511096D01*
X-22371208Y22516988D01*
X-22371209Y22516989D01*
X-22437096Y22631109D01*
X-22437098Y22631111D01*
X-22437100Y22631114D01*
X-22530286Y22724300D01*
X-22530288Y22724301D01*
X-22530290Y22724303D01*
X-22644410Y22790190D01*
X-22644408Y22790190D01*
X-22644412Y22790191D01*
X-22644414Y22790192D01*
X-22771708Y22824300D01*
X-22903492Y22824300D01*
X-23030786Y22790192D01*
X-23030788Y22790190D01*
X-23030790Y22790190D01*
X-23118601Y22739492D01*
X-23144914Y22724300D01*
X-23238100Y22631114D01*
X-23238102Y22631109D01*
X-23238103Y22631109D01*
X-23280711Y22557309D01*
X-23303992Y22516986D01*
X-23338100Y22389692D01*
X-23338100Y22257908D01*
X-23303992Y22130614D01*
X-23303990Y22130611D01*
X-23303990Y22130609D01*
X-23238103Y22016490D01*
X-23238101Y22016488D01*
X-23238100Y22016486D01*
X-23144914Y21923300D01*
X-23144911Y21923298D01*
X-23144909Y21923296D01*
X-23030789Y21857409D01*
X-23030791Y21857409D01*
X-23001273Y21849500D01*
X-22903492Y21823300D01*
X-22903490Y21823300D01*
X-22767724Y21823300D01*
X-22709533Y21804393D01*
X-22697720Y21794304D01*
X-22036558Y21133142D01*
X-22036556Y21133141D01*
X-22036555Y21133140D01*
X-21935302Y21091200D01*
X-21935300Y21091200D01*
X-21536866Y21091200D01*
X-21478675Y21072293D01*
X-21442711Y21022793D01*
X-21441239Y20966579D01*
X-21457500Y20905892D01*
X-21457500Y20905890D01*
X-21457500Y20770122D01*
X-21476407Y20711931D01*
X-21486490Y20700124D01*
X-21907658Y20278957D01*
X-21911968Y20274646D01*
X-21939305Y20256378D01*
X-21939166Y20256136D01*
X-21942860Y20254003D01*
X-21944095Y20253178D01*
X-21944781Y20252893D01*
X-21944786Y20252892D01*
X-22058914Y20187000D01*
X-22152100Y20093814D01*
X-22152102Y20093809D01*
X-22152103Y20093809D01*
X-22195819Y20018090D01*
X-22217992Y19979686D01*
X-22252100Y19852392D01*
X-22252100Y19720608D01*
X-22217992Y19593314D01*
X-22217990Y19593311D01*
X-22217990Y19593309D01*
X-22152103Y19479190D01*
X-22152101Y19479188D01*
X-22152100Y19479186D01*
X-22058914Y19386000D01*
X-22058911Y19385998D01*
X-22058909Y19385996D01*
X-21944789Y19320109D01*
X-21944791Y19320109D01*
X-21898904Y19307814D01*
X-21817492Y19286000D01*
X-21817490Y19286000D01*
X-21685710Y19286000D01*
X-21685708Y19286000D01*
X-21604296Y19307814D01*
X-21558409Y19320109D01*
X-21444290Y19385996D01*
X-21351096Y19479190D01*
X-21285209Y19593309D01*
X-21251100Y19720609D01*
X-21251100Y19852390D01*
X-21251100Y19852392D01*
X-21285208Y19979686D01*
X-21285209Y19979689D01*
X-21299380Y20004234D01*
X-21312101Y20064082D01*
X-21287214Y20119978D01*
X-21283647Y20123737D01*
X-21220384Y20187000D01*
X-21096878Y20310504D01*
X-21042363Y20338281D01*
X-21026876Y20339500D01*
X-20887124Y20339500D01*
X-20828933Y20320593D01*
X-20817120Y20310504D01*
X-20454659Y19948043D01*
X-20425859Y19936114D01*
X-20353400Y19906100D01*
X-19785023Y19906100D01*
X-19726832Y19887193D01*
X-19690868Y19837693D01*
X-19690868Y19776507D01*
X-19715017Y19737098D01*
X-20458214Y18993900D01*
X-20702418Y18749696D01*
X-20756935Y18721919D01*
X-20772422Y18720700D01*
X-20776408Y18720700D01*
X-20908192Y18720700D01*
X-21035486Y18686592D01*
X-21035488Y18686590D01*
X-21035490Y18686590D01*
X-21149609Y18620703D01*
X-21149614Y18620700D01*
X-21242800Y18527514D01*
X-21308692Y18413386D01*
X-21337869Y18304494D01*
X-21371192Y18253181D01*
X-21428313Y18231254D01*
X-21487414Y18247089D01*
X-21503499Y18260114D01*
X-22303504Y19060119D01*
X-22331281Y19114636D01*
X-22332500Y19130123D01*
X-22332500Y19265890D01*
X-22332500Y19265892D01*
X-22364681Y19385996D01*
X-22366609Y19393190D01*
X-22432496Y19507309D01*
X-22432498Y19507311D01*
X-22432500Y19507314D01*
X-22525686Y19600500D01*
X-22525688Y19600501D01*
X-22525690Y19600503D01*
X-22639810Y19666390D01*
X-22639808Y19666390D01*
X-22639812Y19666391D01*
X-22639814Y19666392D01*
X-22767108Y19700500D01*
X-22898892Y19700500D01*
X-23026186Y19666392D01*
X-23026188Y19666390D01*
X-23026190Y19666390D01*
X-23140309Y19600503D01*
X-23140314Y19600500D01*
X-23233500Y19507314D01*
X-23233502Y19507309D01*
X-23233503Y19507309D01*
X-23284366Y19419211D01*
X-23299392Y19393186D01*
X-23333500Y19265892D01*
X-23333500Y19134108D01*
X-23299392Y19006814D01*
X-23299390Y19006811D01*
X-23299390Y19006809D01*
X-23233503Y18892690D01*
X-23233501Y18892688D01*
X-23233500Y18892686D01*
X-23140314Y18799500D01*
X-23140311Y18799498D01*
X-23072440Y18760312D01*
X-23031500Y18714842D01*
X-23025105Y18653992D01*
X-23055698Y18601004D01*
X-23096315Y18578950D01*
X-23143186Y18566392D01*
X-23199102Y18534109D01*
X-23256981Y18500692D01*
X-23257314Y18500500D01*
X-23350500Y18407314D01*
X-23350502Y18407309D01*
X-23350503Y18407309D01*
X-23406844Y18309723D01*
X-23416392Y18293186D01*
X-23450500Y18165892D01*
X-23450500Y18034108D01*
X-23416392Y17906814D01*
X-23416390Y17906811D01*
X-23416390Y17906809D01*
X-23350503Y17792690D01*
X-23350501Y17792688D01*
X-23350500Y17792686D01*
X-23257314Y17699500D01*
X-23257311Y17699498D01*
X-23257309Y17699496D01*
X-23143189Y17633609D01*
X-23143191Y17633609D01*
X-23093799Y17620375D01*
X-23015892Y17599500D01*
X-23015890Y17599500D01*
X-22884110Y17599500D01*
X-22884108Y17599500D01*
X-22806200Y17620375D01*
X-22756809Y17633609D01*
X-22642690Y17699496D01*
X-22549496Y17792690D01*
X-22483609Y17906809D01*
X-22449500Y18034109D01*
X-22449500Y18165891D01*
X-22450347Y18172324D01*
X-22449039Y18172496D01*
X-22446198Y18226639D01*
X-22407689Y18274186D01*
X-22348587Y18290017D01*
X-22291467Y18268085D01*
X-22283774Y18261159D01*
X-20966358Y16943742D01*
X-20966356Y16943741D01*
X-20966355Y16943740D01*
X-20865102Y16901800D01*
X-20865100Y16901800D01*
X-20755500Y16901800D01*
X-10060021Y16901800D01*
X-10001830Y16882893D01*
X-9965866Y16833393D01*
X-9965866Y16772207D01*
X-9990015Y16732798D01*
X-10027300Y16695514D01*
X-10027301Y16695511D01*
X-10030117Y16692696D01*
X-10084634Y16664919D01*
X-10100121Y16663700D01*
X-21213100Y16663700D01*
X-21284699Y16634041D01*
X-21284701Y16634041D01*
X-21284701Y16634040D01*
X-21314359Y16621757D01*
X-21314359Y16621756D01*
X-21314360Y16621756D01*
X-21322466Y16616340D01*
X-21324656Y16619618D01*
X-21362536Y16600319D01*
X-21378023Y16599100D01*
X-21382008Y16599100D01*
X-21513792Y16599100D01*
X-21641086Y16564992D01*
X-21641088Y16564990D01*
X-21641090Y16564990D01*
X-21755209Y16499103D01*
X-21755214Y16499100D01*
X-21848400Y16405914D01*
X-21848402Y16405909D01*
X-21848403Y16405909D01*
X-21898291Y16319500D01*
X-21914292Y16291786D01*
X-21948400Y16164492D01*
X-21948400Y16032708D01*
X-21932139Y15972020D01*
X-21935342Y15910922D01*
X-21973847Y15863372D01*
X-22027766Y15847400D01*
X-22254989Y15847400D01*
X-22313180Y15866307D01*
X-22349144Y15915807D01*
X-22350608Y15920750D01*
X-22375108Y16012186D01*
X-22375109Y16012190D01*
X-22440996Y16126309D01*
X-22440998Y16126311D01*
X-22441000Y16126314D01*
X-22534186Y16219500D01*
X-22534188Y16219501D01*
X-22534190Y16219503D01*
X-22648310Y16285390D01*
X-22648308Y16285390D01*
X-22648312Y16285391D01*
X-22648314Y16285392D01*
X-22775608Y16319500D01*
X-22907392Y16319500D01*
X-23034686Y16285392D01*
X-23034688Y16285390D01*
X-23034690Y16285390D01*
X-23103814Y16245481D01*
X-23148814Y16219500D01*
X-23242000Y16126314D01*
X-23242002Y16126309D01*
X-23242003Y16126309D01*
X-23262850Y16090200D01*
X-23307892Y16012186D01*
X-23342000Y15884892D01*
X-23342000Y15753108D01*
X-23307892Y15625814D01*
X-23307890Y15625811D01*
X-23307890Y15625809D01*
X-23242003Y15511690D01*
X-23242001Y15511688D01*
X-23242000Y15511686D01*
X-23148814Y15418500D01*
X-23148811Y15418498D01*
X-23148809Y15418496D01*
X-23034689Y15352609D01*
X-23034691Y15352609D01*
X-23007722Y15345383D01*
X-22907392Y15318500D01*
X-22907390Y15318500D01*
X-22775612Y15318500D01*
X-22775608Y15318500D01*
X-22775605Y15318500D01*
X-22775602Y15318501D01*
X-22763702Y15321689D01*
X-22702601Y15318483D01*
X-22700201Y15317525D01*
X-22649200Y15296400D01*
X-13492754Y15296400D01*
X-13434563Y15277493D01*
X-13398599Y15227993D01*
X-13397127Y15171778D01*
X-13425499Y15065892D01*
X-13425499Y14934108D01*
X-13391391Y14806814D01*
X-13391389Y14806811D01*
X-13391389Y14806809D01*
X-13325502Y14692690D01*
X-13325500Y14692688D01*
X-13325499Y14692686D01*
X-13232313Y14599500D01*
X-13232310Y14599498D01*
X-13232308Y14599496D01*
X-13118188Y14533609D01*
X-13118190Y14533609D01*
X-13088291Y14525598D01*
X-12990891Y14499500D01*
X-12990889Y14499500D01*
X-12859109Y14499500D01*
X-12859107Y14499500D01*
X-12761707Y14525598D01*
X-12731808Y14533609D01*
X-12617689Y14599496D01*
X-12524495Y14692690D01*
X-12458608Y14806809D01*
X-12437311Y14886292D01*
X-12424499Y14934108D01*
X-12424499Y15065892D01*
X-12452870Y15171778D01*
X-12449668Y15232879D01*
X-12411163Y15280429D01*
X-12357244Y15296400D01*
X-11203983Y15296400D01*
X-11154484Y15283136D01*
X-11067486Y15232908D01*
X-10940192Y15198800D01*
X-10940190Y15198800D01*
X-10808410Y15198800D01*
X-10808408Y15198800D01*
X-10724145Y15221378D01*
X-10681109Y15232909D01*
X-10566990Y15298796D01*
X-10566989Y15298797D01*
X-10520403Y15345383D01*
X-10473800Y15391986D01*
X-10473798Y15391988D01*
X-10470983Y15394804D01*
X-10416466Y15422581D01*
X-10400979Y15423800D01*
X5475946Y15423800D01*
X5534137Y15404893D01*
X5570101Y15355393D01*
X5570101Y15294207D01*
X5534137Y15244707D01*
X5525452Y15239067D01*
X5493986Y15220900D01*
X5400800Y15127714D01*
X5400798Y15127711D01*
X5400796Y15127709D01*
X5334909Y15013590D01*
X5334908Y15013586D01*
X5300800Y14886292D01*
X5300800Y14886290D01*
X5300800Y14750523D01*
X5281893Y14692332D01*
X5271804Y14680519D01*
X-9342819Y65896D01*
X-9397336Y38119D01*
X-9412823Y36900D01*
X-27010979Y36900D01*
X-27069170Y55807D01*
X-27080983Y65896D01*
X-27083798Y68711D01*
X-27083800Y68714D01*
X-27176986Y161900D01*
X-27176988Y161901D01*
X-27176990Y161903D01*
X-27291110Y227790D01*
X-27291108Y227790D01*
X-27291112Y227791D01*
X-27291114Y227792D01*
X-27418408Y261900D01*
X-27550192Y261900D01*
X-27677486Y227792D01*
X-27677488Y227790D01*
X-27677490Y227790D01*
X-27791609Y161903D01*
X-27791614Y161900D01*
X-27884800Y68714D01*
X-27884802Y68709D01*
X-27884803Y68709D01*
X-27950690Y-45409D01*
X-27950690Y-45411D01*
X-27950692Y-45414D01*
X-27984800Y-172708D01*
X-31699500Y-172708D01*
X-31699500Y12065892D01*
X-13375500Y12065892D01*
X-13375500Y11934108D01*
X-13341392Y11806814D01*
X-13341390Y11806811D01*
X-13341390Y11806809D01*
X-13275503Y11692690D01*
X-13275501Y11692688D01*
X-13275500Y11692686D01*
X-13182314Y11599500D01*
X-13182311Y11599498D01*
X-13182309Y11599496D01*
X-13068189Y11533609D01*
X-13068191Y11533609D01*
X-13018799Y11520375D01*
X-12940892Y11499500D01*
X-12940890Y11499500D01*
X-12809110Y11499500D01*
X-12809108Y11499500D01*
X-12731200Y11520375D01*
X-12681809Y11533609D01*
X-12567690Y11599496D01*
X-12474496Y11692690D01*
X-12408609Y11806809D01*
X-12378667Y11918558D01*
X-12374500Y11934108D01*
X-12374500Y12065892D01*
X-12408608Y12193186D01*
X-12408609Y12193190D01*
X-12474496Y12307309D01*
X-12474498Y12307311D01*
X-12474500Y12307314D01*
X-12567686Y12400500D01*
X-12567688Y12400501D01*
X-12567690Y12400503D01*
X-12681810Y12466390D01*
X-12681808Y12466390D01*
X-12681812Y12466391D01*
X-12681814Y12466392D01*
X-12809108Y12500500D01*
X-12940892Y12500500D01*
X-13068186Y12466392D01*
X-13068188Y12466390D01*
X-13068190Y12466390D01*
X-13182309Y12400503D01*
X-13182314Y12400500D01*
X-13275500Y12307314D01*
X-13275502Y12307309D01*
X-13275503Y12307309D01*
X-13322566Y12225793D01*
X-13341392Y12193186D01*
X-13375500Y12065892D01*
X-31699500Y12065892D01*
X-31699500Y27563467D01*
X449500Y27563467D01*
X449500Y27356532D01*
X489869Y27153581D01*
X569058Y26962402D01*
X684020Y26790348D01*
X830348Y26644020D01*
X1002402Y26529058D01*
X1193581Y26449869D01*
X1396532Y26409500D01*
X1396535Y26409500D01*
X1603467Y26409500D01*
X1806418Y26449869D01*
X1997597Y26529058D01*
X2169651Y26644020D01*
X2169655Y26644023D01*
X2315977Y26790345D01*
X2430941Y26962402D01*
X2497623Y27123386D01*
X2537360Y27169911D01*
X2589087Y27184500D01*
X12476977Y27184500D01*
X12535168Y27165593D01*
X12546980Y27155504D01*
X14395170Y25307314D01*
X19610404Y20092079D01*
X19638181Y20037562D01*
X19639400Y20022075D01*
X19639400Y20007222D01*
X19620493Y19949031D01*
X19570993Y19913067D01*
X19509807Y19913067D01*
X19470398Y19937216D01*
X14254058Y25153557D01*
X14152800Y25195500D01*
X14152799Y25195500D01*
X2589087Y25195500D01*
X2530896Y25214407D01*
X2497623Y25256614D01*
X2430941Y25417597D01*
X2430941Y25417598D01*
X2315977Y25589655D01*
X2169655Y25735977D01*
X1997598Y25850941D01*
X1806420Y25930130D01*
X1603465Y25970500D01*
X1396535Y25970500D01*
X1193580Y25930130D01*
X1002402Y25850941D01*
X830345Y25735977D01*
X684023Y25589655D01*
X684020Y25589651D01*
X569058Y25417597D01*
X489869Y25226418D01*
X449500Y25023467D01*
X449500Y24816532D01*
X489869Y24613581D01*
X569058Y24422402D01*
X684020Y24250348D01*
X830348Y24104020D01*
X1002402Y23989058D01*
X1193581Y23909869D01*
X1396532Y23869500D01*
X1396535Y23869500D01*
X1603467Y23869500D01*
X1806418Y23909869D01*
X1997597Y23989058D01*
X2169651Y24104020D01*
X2169655Y24104023D01*
X2315977Y24250345D01*
X2430941Y24422402D01*
X2497623Y24583386D01*
X2537360Y24629911D01*
X2589087Y24644500D01*
X13942877Y24644500D01*
X14001068Y24625593D01*
X14012881Y24615504D01*
X19213704Y19414679D01*
X19241481Y19360162D01*
X19242700Y19344675D01*
X19242700Y19208909D01*
X19276809Y19081609D01*
X19342696Y18967490D01*
X19435890Y18874296D01*
X19550010Y18808409D01*
X19550008Y18808409D01*
X19617654Y18790283D01*
X19677308Y18774300D01*
X19677310Y18774300D01*
X19809090Y18774300D01*
X19809092Y18774300D01*
X19921351Y18804379D01*
X19936390Y18808409D01*
X20050509Y18874296D01*
X20050511Y18874298D01*
X20050514Y18874300D01*
X20143700Y18967486D01*
X20143701Y18967488D01*
X20143703Y18967490D01*
X20209590Y19081609D01*
X20209590Y19081611D01*
X20209592Y19081614D01*
X20243700Y19208908D01*
X20243700Y19340692D01*
X20239032Y19358112D01*
X20242232Y19419211D01*
X20280736Y19466763D01*
X20309032Y19479362D01*
X20333088Y19485808D01*
X20333089Y19485809D01*
X20447209Y19551696D01*
X20447211Y19551698D01*
X20447214Y19551700D01*
X20540400Y19644886D01*
X20540401Y19644888D01*
X20540403Y19644890D01*
X20606290Y19759009D01*
X20606290Y19759011D01*
X20606292Y19759014D01*
X20640400Y19886308D01*
X20640400Y20018092D01*
X20606292Y20145386D01*
X20540400Y20259514D01*
X20447214Y20352700D01*
X20446351Y20353198D01*
X20413306Y20372276D01*
X20333089Y20418590D01*
X20333088Y20418590D01*
X20333086Y20418592D01*
X20205792Y20452700D01*
X20074008Y20452700D01*
X20070023Y20452700D01*
X20011832Y20471607D01*
X20000019Y20481696D01*
X18220675Y22261040D01*
X12788158Y27693557D01*
X12686900Y27735500D01*
X12686899Y27735500D01*
X2589087Y27735500D01*
X2530896Y27754407D01*
X2497623Y27796614D01*
X2430941Y27957597D01*
X2430941Y27957598D01*
X2315977Y28129655D01*
X2169655Y28275977D01*
X1997598Y28390941D01*
X1806420Y28470130D01*
X1603465Y28510500D01*
X1396535Y28510500D01*
X1193580Y28470130D01*
X1002402Y28390941D01*
X830345Y28275977D01*
X684023Y28129655D01*
X684020Y28129651D01*
X569058Y27957597D01*
X489869Y27766418D01*
X449500Y27563467D01*
X-31699500Y27563467D01*
X-31699500Y30869746D01*
X449500Y30869746D01*
X449500Y29130253D01*
X449501Y29130241D01*
X461132Y29071772D01*
X461134Y29071766D01*
X505445Y29005451D01*
X505451Y29005445D01*
X571766Y28961134D01*
X571772Y28961132D01*
X630241Y28949501D01*
X630251Y28949500D01*
X630252Y28949500D01*
X630253Y28949500D01*
X2369747Y28949500D01*
X2369748Y28949500D01*
X2369758Y28949501D01*
X2428227Y28961132D01*
X2428228Y28961132D01*
X2428231Y28961133D01*
X2428233Y28961134D01*
X2494548Y29005445D01*
X2494552Y29005448D01*
X2538867Y29071769D01*
X2550500Y29130252D01*
X2550500Y30869748D01*
X2538867Y30928231D01*
X2494552Y30994552D01*
X2428231Y31038867D01*
X2369748Y31050500D01*
X630252Y31050500D01*
X630246Y31050498D01*
X630241Y31050498D01*
X616231Y31047711D01*
X571769Y31038867D01*
X505448Y30994552D01*
X505445Y30994548D01*
X461134Y30928233D01*
X461132Y30928227D01*
X449501Y30869758D01*
X449500Y30869746D01*
X-31699500Y30869746D01*
X-31699500Y35128392D01*
X22674500Y35128392D01*
X22674500Y35128390D01*
X22674500Y34996609D01*
X22708609Y34869309D01*
X22774496Y34755190D01*
X22867688Y34661998D01*
X22878058Y34656011D01*
X22918997Y34610540D01*
X22925391Y34549689D01*
X22898560Y34500274D01*
X22812000Y34413714D01*
X22811998Y34413711D01*
X22811996Y34413709D01*
X22746109Y34299590D01*
X22746108Y34299586D01*
X22712000Y34172292D01*
X22712000Y34172290D01*
X22712000Y34040509D01*
X22746109Y33913209D01*
X22811996Y33799090D01*
X22905190Y33705896D01*
X23019310Y33640009D01*
X23019308Y33640009D01*
X23086954Y33621883D01*
X23146608Y33605900D01*
X23146610Y33605900D01*
X23278390Y33605900D01*
X23278392Y33605900D01*
X23405686Y33640008D01*
X23405690Y33640009D01*
X23519809Y33705896D01*
X23519811Y33705898D01*
X23519814Y33705900D01*
X23613000Y33799086D01*
X23652499Y33867501D01*
X23697968Y33908441D01*
X23738235Y33917000D01*
X28351679Y33917000D01*
X28409870Y33898093D01*
X28421683Y33888004D01*
X28424498Y33885188D01*
X28424500Y33885186D01*
X28510596Y33799090D01*
X28517689Y33791997D01*
X28517690Y33791996D01*
X28631810Y33726109D01*
X28631808Y33726109D01*
X28699454Y33707983D01*
X28759108Y33692000D01*
X28759110Y33692000D01*
X28890890Y33692000D01*
X28890892Y33692000D01*
X29018186Y33726108D01*
X29018190Y33726109D01*
X29132309Y33791996D01*
X29132311Y33791998D01*
X29132314Y33792000D01*
X29225500Y33885186D01*
X29225501Y33885188D01*
X29225503Y33885190D01*
X29291390Y33999309D01*
X29291390Y33999311D01*
X29291392Y33999314D01*
X29325500Y34126608D01*
X29325500Y34258392D01*
X29291392Y34385686D01*
X29225500Y34499814D01*
X29132314Y34593000D01*
X29018189Y34658890D01*
X29018188Y34658890D01*
X29018186Y34658892D01*
X28890892Y34693000D01*
X28759108Y34693000D01*
X28631814Y34658892D01*
X28631811Y34658890D01*
X28631809Y34658890D01*
X28517690Y34593003D01*
X28517688Y34593001D01*
X28517686Y34593000D01*
X28424500Y34499814D01*
X28424498Y34499811D01*
X28421683Y34496996D01*
X28367166Y34469219D01*
X28351679Y34468000D01*
X23599721Y34468000D01*
X23541530Y34486907D01*
X23529723Y34496990D01*
X23519814Y34506900D01*
X23509446Y34512885D01*
X23468505Y34558353D01*
X23462107Y34619202D01*
X23488938Y34668624D01*
X23575500Y34755186D01*
X23575501Y34755188D01*
X23575503Y34755190D01*
X23641390Y34869309D01*
X23641390Y34869311D01*
X23641392Y34869314D01*
X23675500Y34996608D01*
X23675500Y35128392D01*
X23675500Y35132376D01*
X23694407Y35190567D01*
X23704496Y35202380D01*
X24568008Y36065892D01*
X25574500Y36065892D01*
X25574500Y36065890D01*
X25574500Y35934109D01*
X25608609Y35806809D01*
X25674496Y35692690D01*
X25767690Y35599496D01*
X25881810Y35533609D01*
X25881808Y35533609D01*
X25949454Y35515483D01*
X26009108Y35499500D01*
X26009110Y35499500D01*
X26140890Y35499500D01*
X26140892Y35499500D01*
X26268186Y35533608D01*
X26268190Y35533609D01*
X26382309Y35599496D01*
X26382311Y35599498D01*
X26382314Y35599500D01*
X26475500Y35692686D01*
X26475501Y35692688D01*
X26475503Y35692690D01*
X26541390Y35806809D01*
X26541390Y35806811D01*
X26541392Y35806814D01*
X26575500Y35934108D01*
X26575500Y36065892D01*
X26541392Y36193186D01*
X26475500Y36307314D01*
X26382314Y36400500D01*
X26268189Y36466390D01*
X26268188Y36466390D01*
X26268186Y36466392D01*
X26140892Y36500500D01*
X26009108Y36500500D01*
X25881814Y36466392D01*
X25881811Y36466390D01*
X25881809Y36466390D01*
X25767690Y36400503D01*
X25767688Y36400501D01*
X25767686Y36400500D01*
X25674500Y36307314D01*
X25674498Y36307311D01*
X25674496Y36307309D01*
X25608609Y36193190D01*
X25608608Y36193186D01*
X25574500Y36065892D01*
X24568008Y36065892D01*
X26334620Y37832504D01*
X26389137Y37860281D01*
X26404624Y37861500D01*
X26966379Y37861500D01*
X27024570Y37842593D01*
X27036383Y37832504D01*
X27039198Y37829688D01*
X27039200Y37829686D01*
X27132386Y37736500D01*
X27132389Y37736497D01*
X27132390Y37736496D01*
X27246510Y37670609D01*
X27246508Y37670609D01*
X27314154Y37652483D01*
X27373808Y37636500D01*
X27373810Y37636500D01*
X27505590Y37636500D01*
X27505592Y37636500D01*
X27632886Y37670608D01*
X27632890Y37670609D01*
X27747009Y37736496D01*
X27747011Y37736498D01*
X27747014Y37736500D01*
X27840200Y37829686D01*
X27840201Y37829688D01*
X27840203Y37829690D01*
X27906090Y37943809D01*
X27906090Y37943811D01*
X27906092Y37943814D01*
X27940200Y38071108D01*
X27940200Y38202892D01*
X27907416Y38325244D01*
X27910618Y38386342D01*
X27949124Y38433892D01*
X28008224Y38449728D01*
X28047986Y38439074D01*
X28058352Y38433792D01*
X28058359Y38433789D01*
X28230593Y38377828D01*
X28409451Y38349500D01*
X28409454Y38349500D01*
X28590549Y38349500D01*
X28769406Y38377828D01*
X28941637Y38433788D01*
X29102991Y38516002D01*
X29102994Y38516004D01*
X29249501Y38622447D01*
X29377553Y38750499D01*
X29483996Y38897006D01*
X29566211Y39058361D01*
X29622171Y39230591D01*
X29642242Y39357314D01*
X29650500Y39409450D01*
X29650500Y39590549D01*
X29630326Y39717921D01*
X29622171Y39769409D01*
X29566211Y39941639D01*
X29483996Y40102994D01*
X29377553Y40249501D01*
X29249501Y40377553D01*
X29102994Y40483996D01*
X28941639Y40566211D01*
X28769409Y40622171D01*
X28679977Y40636335D01*
X28590549Y40650500D01*
X28590546Y40650500D01*
X28409454Y40650500D01*
X28409451Y40650500D01*
X28302136Y40633502D01*
X28230591Y40622171D01*
X28058361Y40566211D01*
X27897006Y40483996D01*
X27750499Y40377553D01*
X27622447Y40249501D01*
X27516004Y40102994D01*
X27516002Y40102991D01*
X27433788Y39941637D01*
X27377828Y39769406D01*
X27349500Y39590549D01*
X27349500Y39409450D01*
X27377828Y39230593D01*
X27433788Y39058362D01*
X27516002Y38897008D01*
X27539320Y38864912D01*
X27590341Y38794688D01*
X27609248Y38736500D01*
X27590341Y38678309D01*
X27540841Y38642345D01*
X27510248Y38637500D01*
X27505592Y38637500D01*
X27373808Y38637500D01*
X27246514Y38603392D01*
X27246511Y38603390D01*
X27246509Y38603390D01*
X27132390Y38537503D01*
X27132388Y38537501D01*
X27132386Y38537500D01*
X27039200Y38444314D01*
X27039198Y38444311D01*
X27036383Y38441496D01*
X26981866Y38413719D01*
X26966379Y38412500D01*
X26194698Y38412500D01*
X26104185Y38375008D01*
X26093442Y38370558D01*
X24556994Y36834109D01*
X23314881Y35591996D01*
X23260364Y35564219D01*
X23244877Y35563000D01*
X23240892Y35563000D01*
X23109108Y35563000D01*
X22981814Y35528892D01*
X22981811Y35528890D01*
X22981809Y35528890D01*
X22867690Y35463003D01*
X22867688Y35463001D01*
X22867686Y35463000D01*
X22774500Y35369814D01*
X22774498Y35369811D01*
X22774496Y35369809D01*
X22708609Y35255690D01*
X22708608Y35255686D01*
X22674500Y35128392D01*
X-31699500Y35128392D01*
X-31699500Y36965892D01*
X4299500Y36965892D01*
X4299500Y36965890D01*
X4299500Y36834109D01*
X4333609Y36706809D01*
X4399496Y36592690D01*
X4492690Y36499496D01*
X4606810Y36433609D01*
X4606808Y36433609D01*
X4674454Y36415483D01*
X4734108Y36399500D01*
X4734110Y36399500D01*
X4865890Y36399500D01*
X4865892Y36399500D01*
X4993186Y36433608D01*
X4993190Y36433609D01*
X5107309Y36499496D01*
X5107311Y36499498D01*
X5107314Y36499500D01*
X5178319Y36570505D01*
X5232834Y36598281D01*
X5248321Y36599500D01*
X7151679Y36599500D01*
X7209870Y36580593D01*
X7221676Y36570509D01*
X7291686Y36500500D01*
X7292689Y36499497D01*
X7292690Y36499496D01*
X7406810Y36433609D01*
X7406808Y36433609D01*
X7474454Y36415483D01*
X7534108Y36399500D01*
X7534110Y36399500D01*
X7665890Y36399500D01*
X7665892Y36399500D01*
X7793186Y36433608D01*
X7793190Y36433609D01*
X7907309Y36499496D01*
X7907311Y36499498D01*
X7907314Y36499500D01*
X7978319Y36570505D01*
X8032834Y36598281D01*
X8048321Y36599500D01*
X8751679Y36599500D01*
X8809870Y36580593D01*
X8821676Y36570509D01*
X8891686Y36500500D01*
X8892689Y36499497D01*
X8892690Y36499496D01*
X9006810Y36433609D01*
X9006808Y36433609D01*
X9074454Y36415483D01*
X9134108Y36399500D01*
X9134110Y36399500D01*
X9265890Y36399500D01*
X9265892Y36399500D01*
X9393186Y36433608D01*
X9393190Y36433609D01*
X9507309Y36499496D01*
X9507311Y36499498D01*
X9507314Y36499500D01*
X9600500Y36592686D01*
X9600501Y36592688D01*
X9600503Y36592690D01*
X9666390Y36706809D01*
X9666390Y36706811D01*
X9666392Y36706814D01*
X9700500Y36834108D01*
X9700500Y36965892D01*
X9666392Y37093186D01*
X9600500Y37207314D01*
X9507314Y37300500D01*
X9393189Y37366390D01*
X9393188Y37366390D01*
X9393186Y37366392D01*
X9265892Y37400500D01*
X9134108Y37400500D01*
X9006814Y37366392D01*
X9006811Y37366390D01*
X9006809Y37366390D01*
X8892690Y37300503D01*
X8892689Y37300502D01*
X8892686Y37300500D01*
X8821680Y37229494D01*
X8767166Y37201719D01*
X8751679Y37200500D01*
X8048321Y37200500D01*
X7990130Y37219407D01*
X7978323Y37229490D01*
X7907314Y37300500D01*
X7793189Y37366390D01*
X7793188Y37366390D01*
X7793186Y37366392D01*
X7665892Y37400500D01*
X7534108Y37400500D01*
X7406814Y37366392D01*
X7406811Y37366390D01*
X7406809Y37366390D01*
X7292690Y37300503D01*
X7292689Y37300502D01*
X7292686Y37300500D01*
X7221680Y37229494D01*
X7167166Y37201719D01*
X7151679Y37200500D01*
X5248321Y37200500D01*
X5190130Y37219407D01*
X5178323Y37229490D01*
X5107314Y37300500D01*
X4993189Y37366390D01*
X4993188Y37366390D01*
X4993186Y37366392D01*
X4865892Y37400500D01*
X4734108Y37400500D01*
X4606814Y37366392D01*
X4606811Y37366390D01*
X4606809Y37366390D01*
X4492690Y37300503D01*
X4492689Y37300502D01*
X4492686Y37300500D01*
X4399500Y37207314D01*
X4399498Y37207311D01*
X4399496Y37207309D01*
X4333609Y37093190D01*
X4333608Y37093186D01*
X4299500Y36965892D01*
X-31699500Y36965892D01*
X-31699500Y39590549D01*
X-29650500Y39590549D01*
X-29650500Y39409450D01*
X-29642242Y39357314D01*
X-29622171Y39230591D01*
X-29566211Y39058361D01*
X-29483996Y38897006D01*
X-29377553Y38750499D01*
X-29249501Y38622447D01*
X-29102994Y38516004D01*
X-29102991Y38516002D01*
X-28941637Y38433788D01*
X-28769406Y38377828D01*
X-28590549Y38349500D01*
X-28590546Y38349500D01*
X-28409451Y38349500D01*
X-28230593Y38377828D01*
X-28058362Y38433788D01*
X-27897008Y38516002D01*
X-27776729Y38603390D01*
X-27750499Y38622447D01*
X-27622447Y38750499D01*
X-27569225Y38823752D01*
X-27516002Y38897008D01*
X-27433788Y39058362D01*
X-27415096Y39115892D01*
X-19900500Y39115892D01*
X-19900500Y38984108D01*
X-19866392Y38856814D01*
X-19866390Y38856811D01*
X-19866390Y38856809D01*
X-19800503Y38742690D01*
X-19800501Y38742688D01*
X-19800500Y38742686D01*
X-19707314Y38649500D01*
X-19707311Y38649498D01*
X-19707309Y38649496D01*
X-19593189Y38583609D01*
X-19593191Y38583609D01*
X-19543799Y38570375D01*
X-19465892Y38549500D01*
X-19465890Y38549500D01*
X-19334110Y38549500D01*
X-19334108Y38549500D01*
X-19256200Y38570375D01*
X-19206809Y38583609D01*
X-19092690Y38649496D01*
X-18999496Y38742690D01*
X-18933609Y38856809D01*
X-18899500Y38984109D01*
X-18899500Y39115890D01*
X-18899500Y39115892D01*
X-18933608Y39243186D01*
X-18933609Y39243190D01*
X-18999496Y39357309D01*
X-18999498Y39357311D01*
X-18999500Y39357314D01*
X-19092686Y39450500D01*
X-19191090Y39507314D01*
X-19206812Y39516391D01*
X-19206814Y39516392D01*
X-19334108Y39550500D01*
X-19465892Y39550500D01*
X-19593186Y39516392D01*
X-19593188Y39516390D01*
X-19593190Y39516390D01*
X-19655384Y39480482D01*
X-19707314Y39450500D01*
X-19800500Y39357314D01*
X-19800502Y39357309D01*
X-19800503Y39357309D01*
X-19838143Y39292114D01*
X-19866392Y39243186D01*
X-19900500Y39115892D01*
X-27415096Y39115892D01*
X-27403048Y39152973D01*
X-27377828Y39230593D01*
X-27349500Y39409450D01*
X-27349500Y39590549D01*
X-27377828Y39769406D01*
X-27433788Y39941637D01*
X-27477505Y40027436D01*
X-27497099Y40065892D01*
X-21000500Y40065892D01*
X-21000500Y39934108D01*
X-20966392Y39806814D01*
X-20966390Y39806811D01*
X-20966390Y39806809D01*
X-20900503Y39692690D01*
X-20900501Y39692688D01*
X-20900500Y39692686D01*
X-20807314Y39599500D01*
X-20807311Y39599498D01*
X-20807309Y39599496D01*
X-20693189Y39533609D01*
X-20693191Y39533609D01*
X-20647961Y39521490D01*
X-20565892Y39499500D01*
X-20565890Y39499500D01*
X-20434110Y39499500D01*
X-20434108Y39499500D01*
X-20352039Y39521490D01*
X-20306809Y39533609D01*
X-20276355Y39551192D01*
X-6468800Y39551192D01*
X-6468800Y39419408D01*
X-6434692Y39292114D01*
X-6434690Y39292111D01*
X-6434690Y39292109D01*
X-6368803Y39177990D01*
X-6368801Y39177988D01*
X-6368800Y39177986D01*
X-6275614Y39084800D01*
X-6275611Y39084798D01*
X-6275609Y39084796D01*
X-6161489Y39018909D01*
X-6161491Y39018909D01*
X-6116350Y39006814D01*
X-6034192Y38984800D01*
X-6004490Y38984800D01*
X-5946299Y38965893D01*
X-5934486Y38955804D01*
X-5258012Y38279330D01*
X-5178088Y38233186D01*
X-5088944Y38209300D01*
X-5088943Y38209300D01*
X-5088942Y38209300D01*
X21462142Y38209300D01*
X21462144Y38209300D01*
X21551288Y38233186D01*
X21631212Y38279330D01*
X21663787Y38311905D01*
X21718304Y38339681D01*
X21733790Y38340900D01*
X21763490Y38340900D01*
X21763492Y38340900D01*
X21890786Y38375008D01*
X21890790Y38375009D01*
X22004909Y38440896D01*
X22004911Y38440898D01*
X22004914Y38440900D01*
X22098100Y38534086D01*
X22098101Y38534088D01*
X22098103Y38534090D01*
X22163990Y38648209D01*
X22163990Y38648211D01*
X22163992Y38648214D01*
X22198100Y38775508D01*
X22198100Y38907292D01*
X22163992Y39034586D01*
X22163797Y39034923D01*
X22098103Y39148709D01*
X22098102Y39148709D01*
X22098100Y39148714D01*
X22004914Y39241900D01*
X21890789Y39307790D01*
X21890788Y39307790D01*
X21890786Y39307792D01*
X21763492Y39341900D01*
X21631708Y39341900D01*
X21504414Y39307792D01*
X21504411Y39307790D01*
X21504409Y39307790D01*
X21390290Y39241903D01*
X21390288Y39241901D01*
X21390286Y39241900D01*
X21297100Y39148714D01*
X21297098Y39148711D01*
X21297096Y39148709D01*
X21231209Y39034589D01*
X21231207Y39034585D01*
X21217566Y38983676D01*
X21184242Y38932362D01*
X21127121Y38910436D01*
X21121940Y38910300D01*
X17069550Y38910300D01*
X17011359Y38929207D01*
X16975395Y38978707D01*
X16973923Y39034920D01*
X17000500Y39134108D01*
X17000500Y39265892D01*
X16966392Y39393186D01*
X16932732Y39451486D01*
X16900503Y39507309D01*
X16900502Y39507309D01*
X16900500Y39507314D01*
X16807314Y39600500D01*
X16693189Y39666390D01*
X16693188Y39666390D01*
X16693186Y39666392D01*
X16565892Y39700500D01*
X16434108Y39700500D01*
X16306814Y39666392D01*
X16306811Y39666390D01*
X16306809Y39666390D01*
X16192690Y39600503D01*
X16192689Y39600502D01*
X16192686Y39600500D01*
X16171680Y39579494D01*
X16117166Y39551719D01*
X16101679Y39550500D01*
X11364099Y39550500D01*
X11305908Y39569407D01*
X11269944Y39618907D01*
X11269944Y39680093D01*
X11294095Y39719504D01*
X11375854Y39801263D01*
X11375858Y39801267D01*
X11444311Y39903714D01*
X11491463Y40017548D01*
X11515500Y40138394D01*
X11515500Y40261606D01*
X11491463Y40382452D01*
X11444311Y40496286D01*
X11375858Y40598733D01*
X11288733Y40685858D01*
X11186286Y40754311D01*
X11072452Y40801463D01*
X10951606Y40825500D01*
X10828394Y40825500D01*
X10707548Y40801463D01*
X10593714Y40754311D01*
X10491267Y40685858D01*
X10404142Y40598733D01*
X10358402Y40530279D01*
X10335688Y40496285D01*
X10288536Y40382450D01*
X10264500Y40261608D01*
X10264500Y40138391D01*
X10288536Y40017549D01*
X10335688Y39903715D01*
X10381452Y39835225D01*
X10398060Y39776337D01*
X10376882Y39718933D01*
X10326008Y39684941D01*
X10324843Y39684620D01*
X10256814Y39666392D01*
X10256811Y39666390D01*
X10256809Y39666390D01*
X10142690Y39600503D01*
X10142689Y39600502D01*
X10142686Y39600500D01*
X10121680Y39579494D01*
X10067166Y39551719D01*
X10051679Y39550500D01*
X5948321Y39550500D01*
X5890130Y39569407D01*
X5878323Y39579490D01*
X5857314Y39600500D01*
X5743186Y39666392D01*
X5675239Y39684598D01*
X5623926Y39717921D01*
X5601999Y39775042D01*
X5617834Y39834143D01*
X5618495Y39835145D01*
X5664311Y39903714D01*
X5711463Y40017548D01*
X5735500Y40138394D01*
X5735500Y40261606D01*
X5711463Y40382452D01*
X5664311Y40496286D01*
X5595858Y40598733D01*
X5508733Y40685858D01*
X5406286Y40754311D01*
X5292452Y40801463D01*
X5171606Y40825500D01*
X5048394Y40825500D01*
X4927548Y40801463D01*
X4813714Y40754311D01*
X4711267Y40685858D01*
X4624142Y40598733D01*
X4578402Y40530279D01*
X4555688Y40496285D01*
X4508536Y40382450D01*
X4484500Y40261608D01*
X4484500Y40138391D01*
X4508536Y40017549D01*
X4555688Y39903714D01*
X4624142Y39801267D01*
X4624145Y39801263D01*
X4711263Y39714145D01*
X4711267Y39714142D01*
X4813714Y39645688D01*
X4927549Y39598536D01*
X5038378Y39576492D01*
X5091762Y39546595D01*
X5117378Y39491030D01*
X5105441Y39431021D01*
X5104801Y39429895D01*
X5083609Y39393189D01*
X5083608Y39393186D01*
X5049500Y39265892D01*
X5049500Y39134108D01*
X5076076Y39034920D01*
X5072874Y38973822D01*
X5034369Y38926272D01*
X4980450Y38910300D01*
X-4856610Y38910300D01*
X-4914801Y38929207D01*
X-4926614Y38939296D01*
X-5438804Y39451486D01*
X-5466581Y39506003D01*
X-5467800Y39521490D01*
X-5467800Y39551190D01*
X-5467800Y39551192D01*
X-5501908Y39678486D01*
X-5501909Y39678490D01*
X-5567796Y39792609D01*
X-5567798Y39792611D01*
X-5567800Y39792614D01*
X-5660986Y39885800D01*
X-5660988Y39885801D01*
X-5660990Y39885803D01*
X-5775110Y39951690D01*
X-5775108Y39951690D01*
X-5775112Y39951691D01*
X-5775114Y39951692D01*
X-5902408Y39985800D01*
X-6034192Y39985800D01*
X-6161486Y39951692D01*
X-6161488Y39951690D01*
X-6161490Y39951690D01*
X-6244586Y39903714D01*
X-6275614Y39885800D01*
X-6368800Y39792614D01*
X-6368802Y39792609D01*
X-6368803Y39792609D01*
X-6433764Y39680093D01*
X-6434692Y39678486D01*
X-6468800Y39551192D01*
X-20276355Y39551192D01*
X-20192690Y39599496D01*
X-20099496Y39692690D01*
X-20033609Y39806809D01*
X-19999500Y39934109D01*
X-19999500Y40065890D01*
X-19999500Y40065892D01*
X-20033608Y40193186D01*
X-20033609Y40193190D01*
X-20099496Y40307309D01*
X-20099498Y40307311D01*
X-20099500Y40307314D01*
X-20192686Y40400500D01*
X-20192688Y40400501D01*
X-20192690Y40400503D01*
X-20255285Y40436643D01*
X-20255289Y40436644D01*
X-20306812Y40466391D01*
X-20306814Y40466392D01*
X-20434108Y40500500D01*
X-20565892Y40500500D01*
X-20693186Y40466392D01*
X-20693188Y40466390D01*
X-20693190Y40466390D01*
X-20744711Y40436644D01*
X-20807314Y40400500D01*
X-20900500Y40307314D01*
X-20900502Y40307309D01*
X-20900503Y40307309D01*
X-20933878Y40249501D01*
X-20966392Y40193186D01*
X-21000500Y40065892D01*
X-27497099Y40065892D01*
X-27516002Y40102991D01*
X-27516004Y40102994D01*
X-27622447Y40249501D01*
X-27750499Y40377553D01*
X-27897006Y40483996D01*
X-27959605Y40515892D01*
X-18738000Y40515892D01*
X-18738000Y40384108D01*
X-18703892Y40256814D01*
X-18703890Y40256811D01*
X-18703890Y40256809D01*
X-18638003Y40142690D01*
X-18638001Y40142688D01*
X-18638000Y40142686D01*
X-18544814Y40049500D01*
X-18544811Y40049498D01*
X-18544809Y40049496D01*
X-18430689Y39983609D01*
X-18430691Y39983609D01*
X-18381299Y39970375D01*
X-18303392Y39949500D01*
X-18303390Y39949500D01*
X-18171610Y39949500D01*
X-18171608Y39949500D01*
X-18093700Y39970375D01*
X-18044309Y39983609D01*
X-17930190Y40049496D01*
X-17836996Y40142690D01*
X-17771109Y40256809D01*
X-17738757Y40377550D01*
X-17737000Y40384108D01*
X-17737000Y40515892D01*
X-17771108Y40643186D01*
X-17771109Y40643190D01*
X-17836996Y40757309D01*
X-17836998Y40757311D01*
X-17837000Y40757314D01*
X-17930186Y40850500D01*
X-17930188Y40850501D01*
X-17930190Y40850503D01*
X-18044310Y40916390D01*
X-18044308Y40916390D01*
X-18044312Y40916391D01*
X-18044314Y40916392D01*
X-18171608Y40950500D01*
X-18303392Y40950500D01*
X-18430686Y40916392D01*
X-18430688Y40916390D01*
X-18430690Y40916390D01*
X-18544809Y40850503D01*
X-18544814Y40850500D01*
X-18638000Y40757314D01*
X-18638002Y40757309D01*
X-18638003Y40757309D01*
X-18699669Y40650500D01*
X-18703892Y40643186D01*
X-18738000Y40515892D01*
X-27959605Y40515892D01*
X-28058361Y40566211D01*
X-28230591Y40622171D01*
X-28302136Y40633502D01*
X-28409451Y40650500D01*
X-28409454Y40650500D01*
X-28590546Y40650500D01*
X-28590549Y40650500D01*
X-28679977Y40636335D01*
X-28769409Y40622171D01*
X-28941639Y40566211D01*
X-29102994Y40483996D01*
X-29249501Y40377553D01*
X-29377553Y40249501D01*
X-29483996Y40102994D01*
X-29566211Y39941639D01*
X-29622171Y39769409D01*
X-29630326Y39717921D01*
X-29650500Y39590549D01*
X-31699500Y39590549D01*
X-31699500Y42600500D01*
X-31680593Y42658691D01*
X-31631093Y42694655D01*
X-31600500Y42699500D01*
X31600500Y42699500D01*
X31658691Y42680593D01*
G37*
%TD.AperFunction*%
%TD*%
M02*
