G04 #@! TF.GenerationSoftware,KiCad,Pcbnew,10.0.5*
G04 #@! TF.CreationDate,2026-08-30T23:55:51-05:00*
G04 #@! TF.ProjectId,recorder,7265636f-7264-4657-922e-6b696361645f,rev?*
G04 #@! TF.SameCoordinates,Original*
G04 #@! TF.FileFunction,Copper,L1,Top*
G04 #@! TF.FilePolarity,Positive*
%FSLAX46Y46*%
G04 Gerber Fmt 4.6, Leading zero omitted, Abs format (unit mm)*
G04 Created by KiCad (PCBNEW 10.0.5) date 2026-08-30 23:55:51*
%MOMM*%
%LPD*%
G01*
G04 APERTURE LIST*
G04 Aperture macros list*
%AMRoundRect*
0 Rectangle with rounded corners*
0 $1 Rounding radius*
0 $2 $3 $4 $5 $6 $7 $8 $9 X,Y pos of 4 corners*
0 Add a 4 corners polygon primitive as box body*
4,1,4,$2,$3,$4,$5,$6,$7,$8,$9,$2,$3,0*
0 Add four circle primitives for the rounded corners*
1,1,$1+$1,$2,$3*
1,1,$1+$1,$4,$5*
1,1,$1+$1,$6,$7*
1,1,$1+$1,$8,$9*
0 Add four rect primitives between the rounded corners*
20,1,$1+$1,$2,$3,$4,$5,0*
20,1,$1+$1,$4,$5,$6,$7,0*
20,1,$1+$1,$6,$7,$8,$9,0*
20,1,$1+$1,$8,$9,$2,$3,0*%
%AMOutline5P*
0 Free polygon, 5 corners , with rotation*
0 The origin of the aperture is its center*
0 number of corners: always 5*
0 $1 to $10 corner X, Y*
0 $11 Rotation angle, in degrees counterclockwise*
0 create outline with 5 corners*
4,1,5,$1,$2,$3,$4,$5,$6,$7,$8,$9,$10,$1,$2,$11*%
%AMOutline6P*
0 Free polygon, 6 corners , with rotation*
0 The origin of the aperture is its center*
0 number of corners: always 6*
0 $1 to $12 corner X, Y*
0 $13 Rotation angle, in degrees counterclockwise*
0 create outline with 6 corners*
4,1,6,$1,$2,$3,$4,$5,$6,$7,$8,$9,$10,$11,$12,$1,$2,$13*%
%AMOutline7P*
0 Free polygon, 7 corners , with rotation*
0 The origin of the aperture is its center*
0 number of corners: always 7*
0 $1 to $14 corner X, Y*
0 $15 Rotation angle, in degrees counterclockwise*
0 create outline with 7 corners*
4,1,7,$1,$2,$3,$4,$5,$6,$7,$8,$9,$10,$11,$12,$13,$14,$1,$2,$15*%
%AMOutline8P*
0 Free polygon, 8 corners , with rotation*
0 The origin of the aperture is its center*
0 number of corners: always 8*
0 $1 to $16 corner X, Y*
0 $17 Rotation angle, in degrees counterclockwise*
0 create outline with 8 corners*
4,1,8,$1,$2,$3,$4,$5,$6,$7,$8,$9,$10,$11,$12,$13,$14,$15,$16,$1,$2,$17*%
%AMFreePoly0*
4,1,64,0.301896,1.805218,0.490253,1.727198,0.659769,1.613931,0.803931,1.469769,0.917198,1.300253,0.995218,1.111896,1.034992,0.911938,1.034992,0.708062,0.995218,0.508104,0.917198,0.319747,0.803931,0.150231,0.659769,0.006069,0.490253,-0.107198,0.301896,-0.185218,0.101938,-0.224992,0.046293,-0.224992,0.044871,-0.225581,-0.044871,-0.225581,-0.046293,-0.224992,-0.101938,-0.224992,
-0.301896,-0.185218,-0.490253,-0.107198,-0.659769,0.006069,-0.803931,0.150231,-0.917198,0.319747,-0.995218,0.508104,-1.034992,0.708062,-1.034992,0.886358,-0.580000,0.886358,-0.580000,0.733642,-0.540474,0.586128,-0.464116,0.453872,-0.356128,0.345884,-0.223872,0.269526,-0.076358,0.230000,0.076358,0.230000,0.223872,0.269526,0.356128,0.345884,0.464116,0.453872,0.540474,0.586128,
0.580000,0.733642,0.580000,0.886358,0.540474,1.033872,0.464116,1.166128,0.356128,1.274116,0.223872,1.350474,0.076358,1.390000,-0.076358,1.390000,-0.223872,1.350474,-0.356128,1.274116,-0.464116,1.166128,-0.540474,1.033872,-0.580000,0.886358,-1.034992,0.886358,-1.034992,0.911938,-0.995218,1.111896,-0.917198,1.300253,-0.803931,1.469769,-0.659769,1.613931,-0.490253,1.727198,
-0.301896,1.805218,-0.101938,1.844992,0.101938,1.844992,0.301896,1.805218,0.301896,1.805218,$1*%
G04 Aperture macros list end*
G04 #@! TA.AperFunction,SMDPad,CuDef*
%ADD10RoundRect,0.200000X-0.200000X-0.275000X0.200000X-0.275000X0.200000X0.275000X-0.200000X0.275000X0*%
G04 #@! TD*
G04 #@! TA.AperFunction,SMDPad,CuDef*
%ADD11R,0.800000X0.400000*%
G04 #@! TD*
G04 #@! TA.AperFunction,SMDPad,CuDef*
%ADD12R,0.400000X0.800000*%
G04 #@! TD*
G04 #@! TA.AperFunction,HeatsinkPad*
%ADD13Outline5P,-0.600000X0.204000X-0.204000X0.600000X0.600000X0.600000X0.600000X-0.600000X-0.600000X-0.600000X0.000000*%
G04 #@! TD*
G04 #@! TA.AperFunction,HeatsinkPad*
%ADD14R,1.200000X1.200000*%
G04 #@! TD*
G04 #@! TA.AperFunction,SMDPad,CuDef*
%ADD15R,0.800000X0.800000*%
G04 #@! TD*
G04 #@! TA.AperFunction,SMDPad,CuDef*
%ADD16RoundRect,0.250000X-0.250000X-0.475000X0.250000X-0.475000X0.250000X0.475000X-0.250000X0.475000X0*%
G04 #@! TD*
G04 #@! TA.AperFunction,SMDPad,CuDef*
%ADD17RoundRect,0.150000X-0.512500X-0.150000X0.512500X-0.150000X0.512500X0.150000X-0.512500X0.150000X0*%
G04 #@! TD*
G04 #@! TA.AperFunction,SMDPad,CuDef*
%ADD18RoundRect,0.100000X-0.712500X-0.100000X0.712500X-0.100000X0.712500X0.100000X-0.712500X0.100000X0*%
G04 #@! TD*
G04 #@! TA.AperFunction,SMDPad,CuDef*
%ADD19RoundRect,0.250000X-0.525000X-0.400000X0.525000X-0.400000X0.525000X0.400000X-0.525000X0.400000X0*%
G04 #@! TD*
G04 #@! TA.AperFunction,SMDPad,CuDef*
%ADD20RoundRect,0.218750X-0.218750X-0.256250X0.218750X-0.256250X0.218750X0.256250X-0.218750X0.256250X0*%
G04 #@! TD*
G04 #@! TA.AperFunction,SMDPad,CuDef*
%ADD21R,1.500000X0.800000*%
G04 #@! TD*
G04 #@! TA.AperFunction,SMDPad,CuDef*
%ADD22R,2.000000X1.450000*%
G04 #@! TD*
G04 #@! TA.AperFunction,SMDPad,CuDef*
%ADD23RoundRect,0.218750X0.256250X-0.218750X0.256250X0.218750X-0.256250X0.218750X-0.256250X-0.218750X0*%
G04 #@! TD*
G04 #@! TA.AperFunction,SMDPad,CuDef*
%ADD24RoundRect,0.225000X0.250000X-0.225000X0.250000X0.225000X-0.250000X0.225000X-0.250000X-0.225000X0*%
G04 #@! TD*
G04 #@! TA.AperFunction,SMDPad,CuDef*
%ADD25RoundRect,0.050000X-0.375000X-0.050000X0.375000X-0.050000X0.375000X0.050000X-0.375000X0.050000X0*%
G04 #@! TD*
G04 #@! TA.AperFunction,SMDPad,CuDef*
%ADD26RoundRect,0.050000X-0.050000X-0.375000X0.050000X-0.375000X0.050000X0.375000X-0.050000X0.375000X0*%
G04 #@! TD*
G04 #@! TA.AperFunction,HeatsinkPad*
%ADD27R,1.650000X1.650000*%
G04 #@! TD*
G04 #@! TA.AperFunction,SMDPad,CuDef*
%ADD28RoundRect,0.225000X-0.225000X-0.250000X0.225000X-0.250000X0.225000X0.250000X-0.225000X0.250000X0*%
G04 #@! TD*
G04 #@! TA.AperFunction,SMDPad,CuDef*
%ADD29RoundRect,0.200000X0.275000X-0.200000X0.275000X0.200000X-0.275000X0.200000X-0.275000X-0.200000X0*%
G04 #@! TD*
G04 #@! TA.AperFunction,SMDPad,CuDef*
%ADD30RoundRect,0.400000X-0.800000X-0.400000X0.800000X-0.400000X0.800000X0.400000X-0.800000X0.400000X0*%
G04 #@! TD*
G04 #@! TA.AperFunction,ComponentPad*
%ADD31RoundRect,0.250002X-1.699998X-1.699998X1.699998X-1.699998X1.699998X1.699998X-1.699998X1.699998X0*%
G04 #@! TD*
G04 #@! TA.AperFunction,ComponentPad*
%ADD32C,3.900000*%
G04 #@! TD*
G04 #@! TA.AperFunction,SMDPad,CuDef*
%ADD33RoundRect,0.250000X0.475000X-0.250000X0.475000X0.250000X-0.475000X0.250000X-0.475000X-0.250000X0*%
G04 #@! TD*
G04 #@! TA.AperFunction,SMDPad,CuDef*
%ADD34RoundRect,0.150000X-0.150000X-0.575000X0.150000X-0.575000X0.150000X0.575000X-0.150000X0.575000X0*%
G04 #@! TD*
G04 #@! TA.AperFunction,SMDPad,CuDef*
%ADD35RoundRect,0.075000X-0.075000X-0.650000X0.075000X-0.650000X0.075000X0.650000X-0.075000X0.650000X0*%
G04 #@! TD*
G04 #@! TA.AperFunction,ComponentPad*
%ADD36O,1.000000X2.100000*%
G04 #@! TD*
G04 #@! TA.AperFunction,ComponentPad*
%ADD37O,1.000000X1.600000*%
G04 #@! TD*
G04 #@! TA.AperFunction,SMDPad,CuDef*
%ADD38RoundRect,0.250000X-0.400000X-0.300000X0.400000X-0.300000X0.400000X0.300000X-0.400000X0.300000X0*%
G04 #@! TD*
G04 #@! TA.AperFunction,SMDPad,CuDef*
%ADD39RoundRect,0.112500X-0.262500X-0.112500X0.262500X-0.112500X0.262500X0.112500X-0.262500X0.112500X0*%
G04 #@! TD*
G04 #@! TA.AperFunction,SMDPad,CuDef*
%ADD40FreePoly0,0.000000*%
G04 #@! TD*
G04 #@! TA.AperFunction,ComponentPad*
%ADD41R,1.700000X1.700000*%
G04 #@! TD*
G04 #@! TA.AperFunction,ComponentPad*
%ADD42C,1.700000*%
G04 #@! TD*
G04 APERTURE END LIST*
D10*
G04 #@! TO.P,Rstat,1*
G04 #@! TO.N,VDD33*
X27175000Y36000000D03*
G04 #@! TO.P,Rstat,2*
G04 #@! TO.N,CHG_STAT*
X28825000Y36000000D03*
G04 #@! TD*
G04 #@! TO.P,Rsd1,1*
G04 #@! TO.N,VDD33*
X-11825000Y22500000D03*
G04 #@! TO.P,Rsd1,2*
G04 #@! TO.N,SD_D0*
X-10175000Y22500000D03*
G04 #@! TD*
G04 #@! TO.P,Rsd3,1*
G04 #@! TO.N,VDD33*
X-11825000Y17500000D03*
G04 #@! TO.P,Rsd3,2*
G04 #@! TO.N,SD_D2*
X-10175000Y17500000D03*
G04 #@! TD*
D11*
G04 #@! TO.P,U1,1*
G04 #@! TO.N,GND*
X7000000Y23950000D03*
G04 #@! TO.P,U1,2*
X7000000Y23100000D03*
G04 #@! TO.P,U1,3*
G04 #@! TO.N,VDD33*
X7000000Y22250000D03*
G04 #@! TO.P,U1,4*
G04 #@! TO.N,/MCU_USB/BOOT*
X7000000Y21400000D03*
G04 #@! TO.P,U1,5*
G04 #@! TO.N,BTN*
X7000000Y20550000D03*
G04 #@! TO.P,U1,6*
G04 #@! TO.N,LED*
X7000000Y19700000D03*
G04 #@! TO.P,U1,7*
G04 #@! TO.N,unconnected-(U1-IO3-Pad7)*
X7000000Y18850000D03*
G04 #@! TO.P,U1,8*
G04 #@! TO.N,I2C_SDA*
X7000000Y18000000D03*
G04 #@! TO.P,U1,9*
G04 #@! TO.N,I2C_SCL*
X7000000Y17150000D03*
G04 #@! TO.P,U1,10*
G04 #@! TO.N,SD_D0*
X7000000Y16300000D03*
G04 #@! TO.P,U1,11*
G04 #@! TO.N,SD_CMD*
X7000000Y15450000D03*
G04 #@! TO.P,U1,12*
G04 #@! TO.N,PA_EN*
X7000000Y14600000D03*
G04 #@! TO.P,U1,13*
G04 #@! TO.N,CHG_STAT*
X7000000Y13750000D03*
G04 #@! TO.P,U1,14*
G04 #@! TO.N,I2S_DIN*
X7000000Y12900000D03*
G04 #@! TO.P,U1,15*
G04 #@! TO.N,I2S_DOUT*
X7000000Y12050000D03*
D12*
G04 #@! TO.P,U1,16*
G04 #@! TO.N,I2S_WS*
X8050000Y11000000D03*
G04 #@! TO.P,U1,17*
G04 #@! TO.N,I2S_BCLK*
X8900000Y11000000D03*
G04 #@! TO.P,U1,18*
G04 #@! TO.N,I2S_MCLK*
X9750000Y11000000D03*
G04 #@! TO.P,U1,19*
G04 #@! TO.N,SD_CLK*
X10600000Y11000000D03*
G04 #@! TO.P,U1,20*
G04 #@! TO.N,SD_D1*
X11450000Y11000000D03*
G04 #@! TO.P,U1,21*
G04 #@! TO.N,SD_D2*
X12300000Y11000000D03*
G04 #@! TO.P,U1,22*
G04 #@! TO.N,SD_D3*
X13150000Y11000000D03*
G04 #@! TO.P,U1,23*
G04 #@! TO.N,USB_DM*
X14000000Y11000000D03*
G04 #@! TO.P,U1,24*
G04 #@! TO.N,USB_DP*
X14850000Y11000000D03*
G04 #@! TO.P,U1,25*
G04 #@! TO.N,unconnected-(U1-IO21-Pad25)*
X15700000Y11000000D03*
G04 #@! TO.P,U1,26*
G04 #@! TO.N,unconnected-(U1-IO26-Pad26)*
X16550000Y11000000D03*
G04 #@! TO.P,U1,27*
G04 #@! TO.N,unconnected-(U1-IO47-Pad27)*
X17400000Y11000000D03*
G04 #@! TO.P,U1,28*
G04 #@! TO.N,unconnected-(U1-IO33-Pad28)*
X18250000Y11000000D03*
G04 #@! TO.P,U1,29*
G04 #@! TO.N,unconnected-(U1-IO34-Pad29)*
X19100000Y11000000D03*
G04 #@! TO.P,U1,30*
G04 #@! TO.N,unconnected-(U1-IO48-Pad30)*
X19950000Y11000000D03*
D11*
G04 #@! TO.P,U1,31*
G04 #@! TO.N,unconnected-(U1-IO35-Pad31)*
X21000000Y12050000D03*
G04 #@! TO.P,U1,32*
G04 #@! TO.N,unconnected-(U1-IO36-Pad32)*
X21000000Y12900000D03*
G04 #@! TO.P,U1,33*
G04 #@! TO.N,unconnected-(U1-IO37-Pad33)*
X21000000Y13750000D03*
G04 #@! TO.P,U1,34*
G04 #@! TO.N,unconnected-(U1-IO38-Pad34)*
X21000000Y14600000D03*
G04 #@! TO.P,U1,35*
G04 #@! TO.N,unconnected-(U1-IO39-Pad35)*
X21000000Y15450000D03*
G04 #@! TO.P,U1,36*
G04 #@! TO.N,unconnected-(U1-IO40-Pad36)*
X21000000Y16300000D03*
G04 #@! TO.P,U1,37*
G04 #@! TO.N,unconnected-(U1-IO41-Pad37)*
X21000000Y17150000D03*
G04 #@! TO.P,U1,38*
G04 #@! TO.N,unconnected-(U1-IO42-Pad38)*
X21000000Y18000000D03*
G04 #@! TO.P,U1,39*
G04 #@! TO.N,/MCU_USB/UART_TX*
X21000000Y18850000D03*
G04 #@! TO.P,U1,40*
G04 #@! TO.N,/MCU_USB/UART_RX*
X21000000Y19700000D03*
G04 #@! TO.P,U1,41*
G04 #@! TO.N,unconnected-(U1-IO45-Pad41)*
X21000000Y20550000D03*
G04 #@! TO.P,U1,42*
G04 #@! TO.N,GND*
X21000000Y21400000D03*
G04 #@! TO.P,U1,43*
X21000000Y22250000D03*
G04 #@! TO.P,U1,44*
G04 #@! TO.N,unconnected-(U1-IO46-Pad44)*
X21000000Y23100000D03*
G04 #@! TO.P,U1,45*
G04 #@! TO.N,/MCU_USB/EN*
X21000000Y23950000D03*
D12*
G04 #@! TO.P,U1,46*
G04 #@! TO.N,GND*
X19950000Y25000000D03*
G04 #@! TO.P,U1,47*
X19100000Y25000000D03*
G04 #@! TO.P,U1,48*
X18250000Y25000000D03*
G04 #@! TO.P,U1,49*
X17400000Y25000000D03*
G04 #@! TO.P,U1,50*
X16550000Y25000000D03*
G04 #@! TO.P,U1,51*
X15700000Y25000000D03*
G04 #@! TO.P,U1,52*
X14850000Y25000000D03*
G04 #@! TO.P,U1,53*
X14000000Y25000000D03*
G04 #@! TO.P,U1,54*
X13150000Y25000000D03*
G04 #@! TO.P,U1,55*
X12300000Y25000000D03*
G04 #@! TO.P,U1,56*
X11450000Y25000000D03*
G04 #@! TO.P,U1,57*
X10600000Y25000000D03*
G04 #@! TO.P,U1,58*
X9750000Y25000000D03*
G04 #@! TO.P,U1,59*
X8900000Y25000000D03*
G04 #@! TO.P,U1,60*
X8050000Y25000000D03*
D13*
G04 #@! TO.P,U1,61*
X12350000Y19650000D03*
D14*
X12350000Y18000000D03*
X12350000Y16350000D03*
X14000000Y19650000D03*
X14000000Y18000000D03*
X14000000Y16350000D03*
X15650000Y19650000D03*
X15650000Y18000000D03*
X15650000Y16350000D03*
D15*
G04 #@! TO.P,U1,62*
X7000000Y25000000D03*
G04 #@! TO.P,U1,63*
X7000000Y11000000D03*
G04 #@! TO.P,U1,64*
X21000000Y11000000D03*
G04 #@! TO.P,U1,65*
X21000000Y25000000D03*
G04 #@! TD*
D16*
G04 #@! TO.P,C20,1*
G04 #@! TO.N,VBAT*
X-16950000Y-26000000D03*
G04 #@! TO.P,C20,2*
G04 #@! TO.N,GND*
X-15050000Y-26000000D03*
G04 #@! TD*
D17*
G04 #@! TO.P,U7,1*
G04 #@! TO.N,USB_DP*
X6862500Y31950000D03*
G04 #@! TO.P,U7,2*
G04 #@! TO.N,GND*
X6862500Y31000000D03*
G04 #@! TO.P,U7,3*
G04 #@! TO.N,USB_DM*
X6862500Y30050000D03*
G04 #@! TO.P,U7,4*
X9137500Y30050000D03*
G04 #@! TO.P,U7,5*
G04 #@! TO.N,VBUS*
X9137500Y31000000D03*
G04 #@! TO.P,U7,6*
G04 #@! TO.N,USB_DP*
X9137500Y31950000D03*
G04 #@! TD*
D18*
G04 #@! TO.P,U6,1*
G04 #@! TO.N,PA_EN*
X9887500Y-30025000D03*
G04 #@! TO.P,U6,2*
G04 #@! TO.N,/Audio/PA_BYP*
X9887500Y-30675000D03*
G04 #@! TO.P,U6,3*
G04 #@! TO.N,/Audio/PA_INP*
X9887500Y-31325000D03*
G04 #@! TO.P,U6,4*
G04 #@! TO.N,/Audio/PA_INN*
X9887500Y-31975000D03*
G04 #@! TO.P,U6,5*
G04 #@! TO.N,/Audio/SPK_N*
X14112500Y-31975000D03*
G04 #@! TO.P,U6,6*
G04 #@! TO.N,VBAT*
X14112500Y-31325000D03*
G04 #@! TO.P,U6,7*
G04 #@! TO.N,GND*
X14112500Y-30675000D03*
G04 #@! TO.P,U6,8*
G04 #@! TO.N,/Audio/SPK_P*
X14112500Y-30025000D03*
G04 #@! TD*
D19*
G04 #@! TO.P,SW1,1*
G04 #@! TO.N,GND*
X-29980000Y-9750000D03*
X-22020000Y-9750000D03*
G04 #@! TO.P,SW1,2*
G04 #@! TO.N,BTN*
X-29980000Y-14250000D03*
X-22020000Y-14250000D03*
G04 #@! TD*
D20*
G04 #@! TO.P,D2,1*
G04 #@! TO.N,/Power/CHG_LED*
X23212500Y33000000D03*
G04 #@! TO.P,D2,2*
G04 #@! TO.N,CHG_STAT*
X24787500Y33000000D03*
G04 #@! TD*
D21*
G04 #@! TO.P,J3,1*
G04 #@! TO.N,SD_D2*
X-24050000Y14800000D03*
G04 #@! TO.P,J3,2*
G04 #@! TO.N,SD_D3*
X-24050000Y15900000D03*
G04 #@! TO.P,J3,3*
G04 #@! TO.N,SD_CMD*
X-24050000Y17000000D03*
G04 #@! TO.P,J3,4*
G04 #@! TO.N,VDD33*
X-24050000Y18100000D03*
G04 #@! TO.P,J3,5*
G04 #@! TO.N,SD_CLK*
X-24050000Y19200000D03*
G04 #@! TO.P,J3,6*
G04 #@! TO.N,GND*
X-24050000Y20300000D03*
G04 #@! TO.P,J3,7*
G04 #@! TO.N,SD_D0*
X-24050000Y21400000D03*
G04 #@! TO.P,J3,8*
G04 #@! TO.N,SD_D1*
X-24050000Y22500000D03*
D22*
G04 #@! TO.P,J3,SH*
G04 #@! TO.N,GND*
X-26650000Y11125000D03*
X-18350000Y11125000D03*
X-26650000Y24875000D03*
X-18350000Y24875000D03*
G04 #@! TD*
D23*
G04 #@! TO.P,D1,1*
G04 #@! TO.N,LED*
X-29000000Y-18787500D03*
G04 #@! TO.P,D1,2*
G04 #@! TO.N,/IO/LED_K*
X-29000000Y-17212500D03*
G04 #@! TD*
D24*
G04 #@! TO.P,C2,1*
G04 #@! TO.N,/MCU_USB/EN*
X24500000Y17225000D03*
G04 #@! TO.P,C2,2*
G04 #@! TO.N,GND*
X24500000Y18775000D03*
G04 #@! TD*
D25*
G04 #@! TO.P,U2,1*
G04 #@! TO.N,I2C_SCL*
X24550000Y-21200000D03*
G04 #@! TO.P,U2,2*
G04 #@! TO.N,I2S_MCLK*
X24550000Y-21600000D03*
G04 #@! TO.P,U2,3*
G04 #@! TO.N,VDD33*
X24550000Y-22000000D03*
G04 #@! TO.P,U2,4*
X24550000Y-22400000D03*
G04 #@! TO.P,U2,5*
G04 #@! TO.N,GND*
X24550000Y-22800000D03*
D26*
G04 #@! TO.P,U2,6*
G04 #@! TO.N,I2S_BCLK*
X25200000Y-23450000D03*
G04 #@! TO.P,U2,7*
G04 #@! TO.N,I2S_DIN*
X25600000Y-23450000D03*
G04 #@! TO.P,U2,8*
G04 #@! TO.N,I2S_WS*
X26000000Y-23450000D03*
G04 #@! TO.P,U2,9*
G04 #@! TO.N,I2S_DOUT*
X26400000Y-23450000D03*
G04 #@! TO.P,U2,10*
G04 #@! TO.N,/Audio/AGND*
X26800000Y-23450000D03*
D25*
G04 #@! TO.P,U2,11*
G04 #@! TO.N,3V3A*
X27450000Y-22800000D03*
G04 #@! TO.P,U2,12*
G04 #@! TO.N,/Audio/AOUTP*
X27450000Y-22400000D03*
G04 #@! TO.P,U2,13*
G04 #@! TO.N,/Audio/AOUTN*
X27450000Y-22000000D03*
G04 #@! TO.P,U2,14*
G04 #@! TO.N,/Audio/DACVREF*
X27450000Y-21600000D03*
G04 #@! TO.P,U2,15*
G04 #@! TO.N,/Audio/ADCVREF*
X27450000Y-21200000D03*
D26*
G04 #@! TO.P,U2,16*
G04 #@! TO.N,/Audio/VMID*
X26800000Y-20550000D03*
G04 #@! TO.P,U2,17*
G04 #@! TO.N,/Audio/MIC_N*
X26400000Y-20550000D03*
G04 #@! TO.P,U2,18*
G04 #@! TO.N,MIC_P*
X26000000Y-20550000D03*
G04 #@! TO.P,U2,19*
G04 #@! TO.N,I2C_SDA*
X25600000Y-20550000D03*
G04 #@! TO.P,U2,20*
G04 #@! TO.N,VDD33*
X25200000Y-20550000D03*
D27*
G04 #@! TO.P,U2,21*
G04 #@! TO.N,N/C*
X26000000Y-22000000D03*
G04 #@! TD*
D28*
G04 #@! TO.P,C13,1*
G04 #@! TO.N,3V3A*
X25225000Y-27500000D03*
G04 #@! TO.P,C13,2*
G04 #@! TO.N,/Audio/AGND*
X26775000Y-27500000D03*
G04 #@! TD*
D10*
G04 #@! TO.P,Rchg,1*
G04 #@! TO.N,VBUS_CHG*
X27175000Y33000000D03*
G04 #@! TO.P,Rchg,2*
G04 #@! TO.N,/Power/CHG_LED*
X28825000Y33000000D03*
G04 #@! TD*
D24*
G04 #@! TO.P,C15,1*
G04 #@! TO.N,/Audio/MIC_OUT*
X26500000Y-10775000D03*
G04 #@! TO.P,C15,2*
G04 #@! TO.N,MIC_P*
X26500000Y-9225000D03*
G04 #@! TD*
G04 #@! TO.P,C3,1*
G04 #@! TO.N,VDD33*
X24500000Y20725000D03*
G04 #@! TO.P,C3,2*
G04 #@! TO.N,GND*
X24500000Y22275000D03*
G04 #@! TD*
D28*
G04 #@! TO.P,C17,1*
G04 #@! TO.N,/Audio/AOUTP*
X29225000Y-22000000D03*
G04 #@! TO.P,C17,2*
G04 #@! TO.N,/Audio/PA_INP*
X30775000Y-22000000D03*
G04 #@! TD*
D24*
G04 #@! TO.P,C5,1*
G04 #@! TO.N,VBAT*
X-10500000Y39225000D03*
G04 #@! TO.P,C5,2*
G04 #@! TO.N,GND*
X-10500000Y40775000D03*
G04 #@! TD*
D28*
G04 #@! TO.P,C19,1*
G04 #@! TO.N,/Audio/PA_BYP*
X11225000Y-27500000D03*
G04 #@! TO.P,C19,2*
G04 #@! TO.N,GND*
X12775000Y-27500000D03*
G04 #@! TD*
D29*
G04 #@! TO.P,R3,1*
G04 #@! TO.N,CC2*
X15500000Y39175000D03*
G04 #@! TO.P,R3,2*
G04 #@! TO.N,GND*
X15500000Y40825000D03*
G04 #@! TD*
D30*
G04 #@! TO.P,SP1,1*
G04 #@! TO.N,/Audio/SPK_P*
X-9000000Y-35500000D03*
G04 #@! TO.P,SP1,2*
G04 #@! TO.N,/Audio/SPK_N*
X1000000Y-35500000D03*
G04 #@! TD*
D28*
G04 #@! TO.P,C9,1*
G04 #@! TO.N,3V3A*
X20225000Y-31000000D03*
G04 #@! TO.P,C9,2*
G04 #@! TO.N,GND*
X21775000Y-31000000D03*
G04 #@! TD*
D29*
G04 #@! TO.P,Rled,1*
G04 #@! TO.N,/IO/LED_K*
X-29000000Y-22825000D03*
G04 #@! TO.P,Rled,2*
G04 #@! TO.N,GND*
X-29000000Y-21175000D03*
G04 #@! TD*
D31*
G04 #@! TO.P,BT1,1*
G04 #@! TO.N,VBAT*
X-23500000Y-34000000D03*
D32*
G04 #@! TO.P,BT1,2*
G04 #@! TO.N,GND*
X-15700000Y-34000000D03*
G04 #@! TD*
D24*
G04 #@! TO.P,C7,1*
G04 #@! TO.N,/Power/3V3_RAW*
X-2500000Y39225000D03*
G04 #@! TO.P,C7,2*
G04 #@! TO.N,GND*
X-2500000Y40775000D03*
G04 #@! TD*
D33*
G04 #@! TO.P,C8,1*
G04 #@! TO.N,VDD33*
X-20500000Y39050000D03*
G04 #@! TO.P,C8,2*
G04 #@! TO.N,GND*
X-20500000Y40950000D03*
G04 #@! TD*
D17*
G04 #@! TO.P,U3,1*
G04 #@! TO.N,CHG_STAT*
X22862500Y40450000D03*
G04 #@! TO.P,U3,2*
G04 #@! TO.N,GND*
X22862500Y39500000D03*
G04 #@! TO.P,U3,3*
G04 #@! TO.N,VBAT*
X22862500Y38550000D03*
G04 #@! TO.P,U3,4*
G04 #@! TO.N,VBUS_CHG*
X25137500Y38550000D03*
G04 #@! TO.P,U3,5*
G04 #@! TO.N,/Power/PROG*
X25137500Y40450000D03*
G04 #@! TD*
D10*
G04 #@! TO.P,R7,1*
G04 #@! TO.N,/Audio/PA_INP*
X15675000Y-27500000D03*
G04 #@! TO.P,R7,2*
G04 #@! TO.N,GND*
X17325000Y-27500000D03*
G04 #@! TD*
D28*
G04 #@! TO.P,C16,1*
G04 #@! TO.N,/Audio/MIC_N*
X19725000Y-26000000D03*
G04 #@! TO.P,C16,2*
G04 #@! TO.N,/Audio/AGND*
X21275000Y-26000000D03*
G04 #@! TD*
D17*
G04 #@! TO.P,U8,1*
G04 #@! TO.N,VBAT*
X24862500Y-30050000D03*
G04 #@! TO.P,U8,2*
G04 #@! TO.N,GND*
X24862500Y-31000000D03*
G04 #@! TO.P,U8,3*
G04 #@! TO.N,VDD33*
X24862500Y-31950000D03*
G04 #@! TO.P,U8,4*
G04 #@! TO.N,unconnected-(U8-NC-Pad4)*
X27137500Y-31950000D03*
G04 #@! TO.P,U8,5*
G04 #@! TO.N,3V3A*
X27137500Y-30050000D03*
G04 #@! TD*
D28*
G04 #@! TO.P,C14,1*
G04 #@! TO.N,VDD33*
X-11775000Y12000000D03*
G04 #@! TO.P,C14,2*
G04 #@! TO.N,GND*
X-10225000Y12000000D03*
G04 #@! TD*
D10*
G04 #@! TO.P,Rsd0,1*
G04 #@! TO.N,VDD33*
X-11825000Y25000000D03*
G04 #@! TO.P,Rsd0,2*
G04 #@! TO.N,SD_CMD*
X-10175000Y25000000D03*
G04 #@! TD*
D28*
G04 #@! TO.P,C12,1*
G04 #@! TO.N,/Audio/DACVREF*
X29225000Y-19000000D03*
G04 #@! TO.P,C12,2*
G04 #@! TO.N,/Audio/AGND*
X30775000Y-19000000D03*
G04 #@! TD*
D10*
G04 #@! TO.P,R5,1*
G04 #@! TO.N,VDD33*
X21175000Y-34500000D03*
G04 #@! TO.P,R5,2*
G04 #@! TO.N,I2C_SDA*
X22825000Y-34500000D03*
G04 #@! TD*
D17*
G04 #@! TO.P,U4,1*
G04 #@! TO.N,VBAT*
X-7137500Y40450000D03*
G04 #@! TO.P,U4,2*
G04 #@! TO.N,GND*
X-7137500Y39500000D03*
G04 #@! TO.P,U4,3*
G04 #@! TO.N,VBAT*
X-7137500Y38550000D03*
G04 #@! TO.P,U4,4*
G04 #@! TO.N,unconnected-(U4-NC-Pad4)*
X-4862500Y38550000D03*
G04 #@! TO.P,U4,5*
G04 #@! TO.N,/Power/3V3_RAW*
X-4862500Y40450000D03*
G04 #@! TD*
D10*
G04 #@! TO.P,Ragnd,1*
G04 #@! TO.N,/Audio/AGND*
X25175000Y-16500000D03*
G04 #@! TO.P,Ragnd,2*
G04 #@! TO.N,GND*
X26825000Y-16500000D03*
G04 #@! TD*
D29*
G04 #@! TO.P,Rboot,1*
G04 #@! TO.N,VDD33*
X24500000Y10175000D03*
G04 #@! TO.P,Rboot,2*
G04 #@! TO.N,/MCU_USB/BOOT*
X24500000Y11825000D03*
G04 #@! TD*
D23*
G04 #@! TO.P,F1,1*
G04 #@! TO.N,VBUS*
X17500000Y39212500D03*
G04 #@! TO.P,F1,2*
G04 #@! TO.N,VBUS_CHG*
X17500000Y40787500D03*
G04 #@! TD*
D34*
G04 #@! TO.P,J2,A1*
G04 #@! TO.N,GND*
X4750000Y41645000D03*
G04 #@! TO.P,J2,A4*
G04 #@! TO.N,VBUS*
X5550000Y41645000D03*
D35*
G04 #@! TO.P,J2,A5*
G04 #@! TO.N,CC1*
X6750000Y41645000D03*
G04 #@! TO.P,J2,A6*
G04 #@! TO.N,USB_DP*
X7750000Y41645000D03*
G04 #@! TO.P,J2,A7*
G04 #@! TO.N,USB_DM*
X8250000Y41645000D03*
G04 #@! TO.P,J2,A8*
G04 #@! TO.N,unconnected-(J2-SBU1-PadA8)*
X9250000Y41645000D03*
D34*
G04 #@! TO.P,J2,A9*
G04 #@! TO.N,VBUS*
X10450000Y41645000D03*
G04 #@! TO.P,J2,A12*
G04 #@! TO.N,GND*
X11250000Y41645000D03*
G04 #@! TO.P,J2,B1*
X11250000Y41645000D03*
G04 #@! TO.P,J2,B4*
G04 #@! TO.N,VBUS*
X10450000Y41645000D03*
D35*
G04 #@! TO.P,J2,B5*
G04 #@! TO.N,CC2*
X9750000Y41645000D03*
G04 #@! TO.P,J2,B6*
G04 #@! TO.N,USB_DP*
X8750000Y41645000D03*
G04 #@! TO.P,J2,B7*
G04 #@! TO.N,USB_DM*
X7250000Y41645000D03*
G04 #@! TO.P,J2,B8*
G04 #@! TO.N,unconnected-(J2-SBU2-PadB8)*
X6250000Y41645000D03*
D34*
G04 #@! TO.P,J2,B9*
G04 #@! TO.N,VBUS*
X5550000Y41645000D03*
G04 #@! TO.P,J2,B12*
G04 #@! TO.N,GND*
X4750000Y41645000D03*
D36*
G04 #@! TO.P,J2,SH*
G04 #@! TO.N,unconnected-(J2-SHIELD-PadSH)*
X3680000Y40730000D03*
D37*
X3680000Y36550000D03*
D36*
X12320000Y40730000D03*
D37*
X12320000Y36550000D03*
G04 #@! TD*
D38*
G04 #@! TO.P,Y1,1*
G04 #@! TO.N,3V3A*
X14950000Y-24825000D03*
G04 #@! TO.P,Y1,2*
G04 #@! TO.N,GND*
X17050000Y-24825000D03*
G04 #@! TO.P,Y1,3*
G04 #@! TO.N,I2S_MCLK*
X17050000Y-23175000D03*
G04 #@! TO.P,Y1,4*
G04 #@! TO.N,3V3A*
X14950000Y-23175000D03*
G04 #@! TD*
D24*
G04 #@! TO.P,C6,1*
G04 #@! TO.N,VBAT*
X-10500000Y35225000D03*
G04 #@! TO.P,C6,2*
G04 #@! TO.N,GND*
X-10500000Y36775000D03*
G04 #@! TD*
D28*
G04 #@! TO.P,C10,1*
G04 #@! TO.N,/Audio/VMID*
X19725000Y-20000000D03*
G04 #@! TO.P,C10,2*
G04 #@! TO.N,/Audio/AGND*
X21275000Y-20000000D03*
G04 #@! TD*
D33*
G04 #@! TO.P,C1,1*
G04 #@! TO.N,VDD33*
X24500000Y24050000D03*
G04 #@! TO.P,C1,2*
G04 #@! TO.N,GND*
X24500000Y25950000D03*
G04 #@! TD*
D28*
G04 #@! TO.P,C11,1*
G04 #@! TO.N,/Audio/ADCVREF*
X19725000Y-23000000D03*
G04 #@! TO.P,C11,2*
G04 #@! TO.N,/Audio/AGND*
X21275000Y-23000000D03*
G04 #@! TD*
D10*
G04 #@! TO.P,Rsd4,1*
G04 #@! TO.N,VDD33*
X-11825000Y15000000D03*
G04 #@! TO.P,Rsd4,2*
G04 #@! TO.N,SD_D3*
X-10175000Y15000000D03*
G04 #@! TD*
D17*
G04 #@! TO.P,U5,1*
G04 #@! TO.N,VDD33*
X-17137500Y40450000D03*
G04 #@! TO.P,U5,2*
G04 #@! TO.N,GND*
X-17137500Y39500000D03*
G04 #@! TO.P,U5,3*
G04 #@! TO.N,unconnected-(U5-~{FLG}-Pad3)*
X-17137500Y38550000D03*
G04 #@! TO.P,U5,4*
G04 #@! TO.N,/Power/3V3_RAW*
X-14862500Y38550000D03*
G04 #@! TO.P,U5,5*
X-14862500Y40450000D03*
G04 #@! TD*
D24*
G04 #@! TO.P,C4,1*
G04 #@! TO.N,VBUS_CHG*
X20500000Y39225000D03*
G04 #@! TO.P,C4,2*
G04 #@! TO.N,GND*
X20500000Y40775000D03*
G04 #@! TD*
D10*
G04 #@! TO.P,R4,1*
G04 #@! TO.N,/Power/PROG*
X23175000Y36000000D03*
G04 #@! TO.P,R4,2*
G04 #@! TO.N,GND*
X24825000Y36000000D03*
G04 #@! TD*
G04 #@! TO.P,Rsd2,1*
G04 #@! TO.N,VDD33*
X-11825000Y20000000D03*
G04 #@! TO.P,Rsd2,2*
G04 #@! TO.N,SD_D1*
X-10175000Y20000000D03*
G04 #@! TD*
D28*
G04 #@! TO.P,C18,1*
G04 #@! TO.N,/Audio/AOUTN*
X29225000Y-25000000D03*
G04 #@! TO.P,C18,2*
G04 #@! TO.N,/Audio/PA_INN*
X30775000Y-25000000D03*
G04 #@! TD*
D29*
G04 #@! TO.P,R1,1*
G04 #@! TO.N,VDD33*
X24500000Y13675000D03*
G04 #@! TO.P,R1,2*
G04 #@! TO.N,/MCU_USB/EN*
X24500000Y15325000D03*
G04 #@! TD*
G04 #@! TO.P,R2,1*
G04 #@! TO.N,CC1*
X500000Y39175000D03*
G04 #@! TO.P,R2,2*
G04 #@! TO.N,GND*
X500000Y40825000D03*
G04 #@! TD*
D39*
G04 #@! TO.P,MK1,1*
G04 #@! TO.N,/Audio/MIC_OUT*
X29150000Y-11500000D03*
G04 #@! TO.P,MK1,2*
G04 #@! TO.N,3V3A*
X29150000Y-10800000D03*
G04 #@! TO.P,MK1,3*
G04 #@! TO.N,/Audio/AGND*
X30850000Y-11500000D03*
G04 #@! TO.P,MK1,4*
X30850000Y-10800000D03*
D40*
G04 #@! TO.P,MK1,5*
X30000000Y-10130000D03*
G04 #@! TD*
D41*
G04 #@! TO.P,J1,1*
G04 #@! TO.N,VDD33*
X1500000Y30000000D03*
D42*
G04 #@! TO.P,J1,2*
G04 #@! TO.N,/MCU_USB/UART_RX*
X1500000Y27460000D03*
G04 #@! TO.P,J1,3*
G04 #@! TO.N,/MCU_USB/UART_TX*
X1500000Y24920000D03*
G04 #@! TO.P,J1,4*
G04 #@! TO.N,GND*
X1500000Y22380000D03*
G04 #@! TD*
D10*
G04 #@! TO.P,R6,1*
G04 #@! TO.N,VDD33*
X26175000Y-34500000D03*
G04 #@! TO.P,R6,2*
G04 #@! TO.N,I2C_SCL*
X27825000Y-34500000D03*
G04 #@! TD*
M02*
