%TF.GenerationSoftware,KiCad,Pcbnew,10.0.6-10.0.6~ubuntu24.04.1*%
%TF.CreationDate,2026-09-06T18:34:02+00:00*%
%TF.ProjectId,recorder,7265636f-7264-4657-922e-6b696361645f,rev?*%
%TF.SameCoordinates,Original*%
%TF.FileFunction,Legend,Top*%
%TF.FilePolarity,Positive*%
%FSLAX46Y46*%
G04 Gerber Fmt 4.6, Leading zero omitted, Abs format (unit mm)*
G04 Created by KiCad (PCBNEW 10.0.6-10.0.6~ubuntu24.04.1) date 2026-09-06 18:34:02*
%MOMM*%
%LPD*%
G01*
G04 APERTURE LIST*
%ADD10C,0.150000*%
%ADD11C,0.120000*%
G04 APERTURE END LIST*
D10*
X-20257619Y-12324200D02*
X-20143333Y-12362295D01*
X-20143333Y-12362295D02*
X-19952857Y-12362295D01*
X-19952857Y-12362295D02*
X-19876666Y-12324200D01*
X-19876666Y-12324200D02*
X-19838571Y-12286104D01*
X-19838571Y-12286104D02*
X-19800476Y-12209914D01*
X-19800476Y-12209914D02*
X-19800476Y-12133723D01*
X-19800476Y-12133723D02*
X-19838571Y-12057533D01*
X-19838571Y-12057533D02*
X-19876666Y-12019438D01*
X-19876666Y-12019438D02*
X-19952857Y-11981342D01*
X-19952857Y-11981342D02*
X-20105238Y-11943247D01*
X-20105238Y-11943247D02*
X-20181428Y-11905152D01*
X-20181428Y-11905152D02*
X-20219523Y-11867057D01*
X-20219523Y-11867057D02*
X-20257619Y-11790866D01*
X-20257619Y-11790866D02*
X-20257619Y-11714676D01*
X-20257619Y-11714676D02*
X-20219523Y-11638485D01*
X-20219523Y-11638485D02*
X-20181428Y-11600390D01*
X-20181428Y-11600390D02*
X-20105238Y-11562295D01*
X-20105238Y-11562295D02*
X-19914761Y-11562295D01*
X-19914761Y-11562295D02*
X-19800476Y-11600390D01*
X-19533809Y-11562295D02*
X-19343333Y-12362295D01*
X-19343333Y-12362295D02*
X-19190952Y-11790866D01*
X-19190952Y-11790866D02*
X-19038571Y-12362295D01*
X-19038571Y-12362295D02*
X-18848095Y-11562295D01*
X-18124285Y-12362295D02*
X-18581428Y-12362295D01*
X-18352856Y-12362295D02*
X-18352856Y-11562295D01*
X-18352856Y-11562295D02*
X-18429047Y-11676580D01*
X-18429047Y-11676580D02*
X-18505237Y-11752771D01*
X-18505237Y-11752771D02*
X-18581428Y-11790866D01*
X-8582379Y35713895D02*
X-8620475Y35675800D01*
X-8620475Y35675800D02*
X-8734760Y35637704D01*
X-8734760Y35637704D02*
X-8810951Y35637704D01*
X-8810951Y35637704D02*
X-8925237Y35675800D01*
X-8925237Y35675800D02*
X-9001427Y35751990D01*
X-9001427Y35751990D02*
X-9039522Y35828180D01*
X-9039522Y35828180D02*
X-9077618Y35980561D01*
X-9077618Y35980561D02*
X-9077618Y36094847D01*
X-9077618Y36094847D02*
X-9039522Y36247228D01*
X-9039522Y36247228D02*
X-9001427Y36323419D01*
X-9001427Y36323419D02*
X-8925237Y36399609D01*
X-8925237Y36399609D02*
X-8810951Y36437704D01*
X-8810951Y36437704D02*
X-8734760Y36437704D01*
X-8734760Y36437704D02*
X-8620475Y36399609D01*
X-8620475Y36399609D02*
X-8582379Y36361514D01*
X-7896665Y36437704D02*
X-8049046Y36437704D01*
X-8049046Y36437704D02*
X-8125237Y36399609D01*
X-8125237Y36399609D02*
X-8163332Y36361514D01*
X-8163332Y36361514D02*
X-8239522Y36247228D01*
X-8239522Y36247228D02*
X-8277618Y36094847D01*
X-8277618Y36094847D02*
X-8277618Y35790085D01*
X-8277618Y35790085D02*
X-8239522Y35713895D01*
X-8239522Y35713895D02*
X-8201427Y35675800D01*
X-8201427Y35675800D02*
X-8125237Y35637704D01*
X-8125237Y35637704D02*
X-7972856Y35637704D01*
X-7972856Y35637704D02*
X-7896665Y35675800D01*
X-7896665Y35675800D02*
X-7858570Y35713895D01*
X-7858570Y35713895D02*
X-7820475Y35790085D01*
X-7820475Y35790085D02*
X-7820475Y35980561D01*
X-7820475Y35980561D02*
X-7858570Y36056752D01*
X-7858570Y36056752D02*
X-7896665Y36094847D01*
X-7896665Y36094847D02*
X-7972856Y36132942D01*
X-7972856Y36132942D02*
X-8125237Y36132942D01*
X-8125237Y36132942D02*
X-8201427Y36094847D01*
X-8201427Y36094847D02*
X-8239522Y36056752D01*
X-8239522Y36056752D02*
X-8277618Y35980561D01*
X21224464Y34584579D02*
X20957797Y34965532D01*
X20767321Y34584579D02*
X20767321Y35384579D01*
X20767321Y35384579D02*
X21072083Y35384579D01*
X21072083Y35384579D02*
X21148273Y35346484D01*
X21148273Y35346484D02*
X21186368Y35308389D01*
X21186368Y35308389D02*
X21224464Y35232198D01*
X21224464Y35232198D02*
X21224464Y35117913D01*
X21224464Y35117913D02*
X21186368Y35041722D01*
X21186368Y35041722D02*
X21148273Y35003627D01*
X21148273Y35003627D02*
X21072083Y34965532D01*
X21072083Y34965532D02*
X20767321Y34965532D01*
X21910178Y35117913D02*
X21910178Y34584579D01*
X21719702Y35422675D02*
X21529225Y34851246D01*
X21529225Y34851246D02*
X22024464Y34851246D01*
X15366667Y37031454D02*
X15100000Y37412407D01*
X14909524Y37031454D02*
X14909524Y37831454D01*
X14909524Y37831454D02*
X15214286Y37831454D01*
X15214286Y37831454D02*
X15290476Y37793359D01*
X15290476Y37793359D02*
X15328571Y37755264D01*
X15328571Y37755264D02*
X15366667Y37679073D01*
X15366667Y37679073D02*
X15366667Y37564788D01*
X15366667Y37564788D02*
X15328571Y37488597D01*
X15328571Y37488597D02*
X15290476Y37450502D01*
X15290476Y37450502D02*
X15214286Y37412407D01*
X15214286Y37412407D02*
X14909524Y37412407D01*
X15633333Y37831454D02*
X16128571Y37831454D01*
X16128571Y37831454D02*
X15861905Y37526692D01*
X15861905Y37526692D02*
X15976190Y37526692D01*
X15976190Y37526692D02*
X16052381Y37488597D01*
X16052381Y37488597D02*
X16090476Y37450502D01*
X16090476Y37450502D02*
X16128571Y37374311D01*
X16128571Y37374311D02*
X16128571Y37183835D01*
X16128571Y37183835D02*
X16090476Y37107645D01*
X16090476Y37107645D02*
X16052381Y37069550D01*
X16052381Y37069550D02*
X15976190Y37031454D01*
X15976190Y37031454D02*
X15747619Y37031454D01*
X15747619Y37031454D02*
X15671428Y37069550D01*
X15671428Y37069550D02*
X15633333Y37107645D01*
X7440476Y9137704D02*
X7440476Y8490085D01*
X7440476Y8490085D02*
X7478571Y8413895D01*
X7478571Y8413895D02*
X7516666Y8375800D01*
X7516666Y8375800D02*
X7592857Y8337704D01*
X7592857Y8337704D02*
X7745238Y8337704D01*
X7745238Y8337704D02*
X7821428Y8375800D01*
X7821428Y8375800D02*
X7859523Y8413895D01*
X7859523Y8413895D02*
X7897619Y8490085D01*
X7897619Y8490085D02*
X7897619Y9137704D01*
X8697618Y8337704D02*
X8240475Y8337704D01*
X8469047Y8337704D02*
X8469047Y9137704D01*
X8469047Y9137704D02*
X8392856Y9023419D01*
X8392856Y9023419D02*
X8316666Y8947228D01*
X8316666Y8947228D02*
X8240475Y8909133D01*
X-16609523Y37111454D02*
X-16609523Y36463835D01*
X-16609523Y36463835D02*
X-16571428Y36387645D01*
X-16571428Y36387645D02*
X-16533333Y36349550D01*
X-16533333Y36349550D02*
X-16457142Y36311454D01*
X-16457142Y36311454D02*
X-16304761Y36311454D01*
X-16304761Y36311454D02*
X-16228571Y36349550D01*
X-16228571Y36349550D02*
X-16190476Y36387645D01*
X-16190476Y36387645D02*
X-16152380Y36463835D01*
X-16152380Y36463835D02*
X-16152380Y37111454D01*
X-15390476Y37111454D02*
X-15771428Y37111454D01*
X-15771428Y37111454D02*
X-15809524Y36730502D01*
X-15809524Y36730502D02*
X-15771428Y36768597D01*
X-15771428Y36768597D02*
X-15695238Y36806692D01*
X-15695238Y36806692D02*
X-15504762Y36806692D01*
X-15504762Y36806692D02*
X-15428571Y36768597D01*
X-15428571Y36768597D02*
X-15390476Y36730502D01*
X-15390476Y36730502D02*
X-15352381Y36654311D01*
X-15352381Y36654311D02*
X-15352381Y36463835D01*
X-15352381Y36463835D02*
X-15390476Y36387645D01*
X-15390476Y36387645D02*
X-15428571Y36349550D01*
X-15428571Y36349550D02*
X-15504762Y36311454D01*
X-15504762Y36311454D02*
X-15695238Y36311454D01*
X-15695238Y36311454D02*
X-15771428Y36349550D01*
X-15771428Y36349550D02*
X-15809524Y36387645D01*
X-20228571Y-30793247D02*
X-20114285Y-30831342D01*
X-20114285Y-30831342D02*
X-20076190Y-30869438D01*
X-20076190Y-30869438D02*
X-20038094Y-30945628D01*
X-20038094Y-30945628D02*
X-20038094Y-31059914D01*
X-20038094Y-31059914D02*
X-20076190Y-31136104D01*
X-20076190Y-31136104D02*
X-20114285Y-31174200D01*
X-20114285Y-31174200D02*
X-20190475Y-31212295D01*
X-20190475Y-31212295D02*
X-20495237Y-31212295D01*
X-20495237Y-31212295D02*
X-20495237Y-30412295D01*
X-20495237Y-30412295D02*
X-20228571Y-30412295D01*
X-20228571Y-30412295D02*
X-20152380Y-30450390D01*
X-20152380Y-30450390D02*
X-20114285Y-30488485D01*
X-20114285Y-30488485D02*
X-20076190Y-30564676D01*
X-20076190Y-30564676D02*
X-20076190Y-30640866D01*
X-20076190Y-30640866D02*
X-20114285Y-30717057D01*
X-20114285Y-30717057D02*
X-20152380Y-30755152D01*
X-20152380Y-30755152D02*
X-20228571Y-30793247D01*
X-20228571Y-30793247D02*
X-20495237Y-30793247D01*
X-19809523Y-30412295D02*
X-19352380Y-30412295D01*
X-19580952Y-31212295D02*
X-19580952Y-30412295D01*
X-18666666Y-31212295D02*
X-19123809Y-31212295D01*
X-18895237Y-31212295D02*
X-18895237Y-30412295D01*
X-18895237Y-30412295D02*
X-18971428Y-30526580D01*
X-18971428Y-30526580D02*
X-19047618Y-30602771D01*
X-19047618Y-30602771D02*
X-19123809Y-30640866D01*
X26417619Y10637704D02*
X26150952Y11018657D01*
X25960476Y10637704D02*
X25960476Y11437704D01*
X25960476Y11437704D02*
X26265238Y11437704D01*
X26265238Y11437704D02*
X26341428Y11399609D01*
X26341428Y11399609D02*
X26379523Y11361514D01*
X26379523Y11361514D02*
X26417619Y11285323D01*
X26417619Y11285323D02*
X26417619Y11171038D01*
X26417619Y11171038D02*
X26379523Y11094847D01*
X26379523Y11094847D02*
X26341428Y11056752D01*
X26341428Y11056752D02*
X26265238Y11018657D01*
X26265238Y11018657D02*
X25960476Y11018657D01*
X26760476Y10637704D02*
X26760476Y11437704D01*
X26760476Y11132942D02*
X26836666Y11171038D01*
X26836666Y11171038D02*
X26989047Y11171038D01*
X26989047Y11171038D02*
X27065238Y11132942D01*
X27065238Y11132942D02*
X27103333Y11094847D01*
X27103333Y11094847D02*
X27141428Y11018657D01*
X27141428Y11018657D02*
X27141428Y10790085D01*
X27141428Y10790085D02*
X27103333Y10713895D01*
X27103333Y10713895D02*
X27065238Y10675800D01*
X27065238Y10675800D02*
X26989047Y10637704D01*
X26989047Y10637704D02*
X26836666Y10637704D01*
X26836666Y10637704D02*
X26760476Y10675800D01*
X27598571Y10637704D02*
X27522381Y10675800D01*
X27522381Y10675800D02*
X27484286Y10713895D01*
X27484286Y10713895D02*
X27446190Y10790085D01*
X27446190Y10790085D02*
X27446190Y11018657D01*
X27446190Y11018657D02*
X27484286Y11094847D01*
X27484286Y11094847D02*
X27522381Y11132942D01*
X27522381Y11132942D02*
X27598571Y11171038D01*
X27598571Y11171038D02*
X27712857Y11171038D01*
X27712857Y11171038D02*
X27789048Y11132942D01*
X27789048Y11132942D02*
X27827143Y11094847D01*
X27827143Y11094847D02*
X27865238Y11018657D01*
X27865238Y11018657D02*
X27865238Y10790085D01*
X27865238Y10790085D02*
X27827143Y10713895D01*
X27827143Y10713895D02*
X27789048Y10675800D01*
X27789048Y10675800D02*
X27712857Y10637704D01*
X27712857Y10637704D02*
X27598571Y10637704D01*
X28322381Y10637704D02*
X28246191Y10675800D01*
X28246191Y10675800D02*
X28208096Y10713895D01*
X28208096Y10713895D02*
X28170000Y10790085D01*
X28170000Y10790085D02*
X28170000Y11018657D01*
X28170000Y11018657D02*
X28208096Y11094847D01*
X28208096Y11094847D02*
X28246191Y11132942D01*
X28246191Y11132942D02*
X28322381Y11171038D01*
X28322381Y11171038D02*
X28436667Y11171038D01*
X28436667Y11171038D02*
X28512858Y11132942D01*
X28512858Y11132942D02*
X28550953Y11094847D01*
X28550953Y11094847D02*
X28589048Y11018657D01*
X28589048Y11018657D02*
X28589048Y10790085D01*
X28589048Y10790085D02*
X28550953Y10713895D01*
X28550953Y10713895D02*
X28512858Y10675800D01*
X28512858Y10675800D02*
X28436667Y10637704D01*
X28436667Y10637704D02*
X28322381Y10637704D01*
X28817620Y11171038D02*
X29122382Y11171038D01*
X28931906Y11437704D02*
X28931906Y10751990D01*
X28931906Y10751990D02*
X28970001Y10675800D01*
X28970001Y10675800D02*
X29046191Y10637704D01*
X29046191Y10637704D02*
X29122382Y10637704D01*
X-8332379Y19637704D02*
X-8599046Y20018657D01*
X-8789522Y19637704D02*
X-8789522Y20437704D01*
X-8789522Y20437704D02*
X-8484760Y20437704D01*
X-8484760Y20437704D02*
X-8408570Y20399609D01*
X-8408570Y20399609D02*
X-8370475Y20361514D01*
X-8370475Y20361514D02*
X-8332379Y20285323D01*
X-8332379Y20285323D02*
X-8332379Y20171038D01*
X-8332379Y20171038D02*
X-8370475Y20094847D01*
X-8370475Y20094847D02*
X-8408570Y20056752D01*
X-8408570Y20056752D02*
X-8484760Y20018657D01*
X-8484760Y20018657D02*
X-8789522Y20018657D01*
X-8027618Y19675800D02*
X-7951427Y19637704D01*
X-7951427Y19637704D02*
X-7799046Y19637704D01*
X-7799046Y19637704D02*
X-7722856Y19675800D01*
X-7722856Y19675800D02*
X-7684760Y19751990D01*
X-7684760Y19751990D02*
X-7684760Y19790085D01*
X-7684760Y19790085D02*
X-7722856Y19866276D01*
X-7722856Y19866276D02*
X-7799046Y19904371D01*
X-7799046Y19904371D02*
X-7913332Y19904371D01*
X-7913332Y19904371D02*
X-7989522Y19942466D01*
X-7989522Y19942466D02*
X-8027618Y20018657D01*
X-8027618Y20018657D02*
X-8027618Y20056752D01*
X-8027618Y20056752D02*
X-7989522Y20132942D01*
X-7989522Y20132942D02*
X-7913332Y20171038D01*
X-7913332Y20171038D02*
X-7799046Y20171038D01*
X-7799046Y20171038D02*
X-7722856Y20132942D01*
X-6999046Y19637704D02*
X-6999046Y20437704D01*
X-6999046Y19675800D02*
X-7075237Y19637704D01*
X-7075237Y19637704D02*
X-7227618Y19637704D01*
X-7227618Y19637704D02*
X-7303808Y19675800D01*
X-7303808Y19675800D02*
X-7341903Y19713895D01*
X-7341903Y19713895D02*
X-7379999Y19790085D01*
X-7379999Y19790085D02*
X-7379999Y20018657D01*
X-7379999Y20018657D02*
X-7341903Y20094847D01*
X-7341903Y20094847D02*
X-7303808Y20132942D01*
X-7303808Y20132942D02*
X-7227618Y20171038D01*
X-7227618Y20171038D02*
X-7075237Y20171038D01*
X-7075237Y20171038D02*
X-6999046Y20132942D01*
X-6656189Y20361514D02*
X-6618093Y20399609D01*
X-6618093Y20399609D02*
X-6541903Y20437704D01*
X-6541903Y20437704D02*
X-6351427Y20437704D01*
X-6351427Y20437704D02*
X-6275236Y20399609D01*
X-6275236Y20399609D02*
X-6237141Y20361514D01*
X-6237141Y20361514D02*
X-6199046Y20285323D01*
X-6199046Y20285323D02*
X-6199046Y20209133D01*
X-6199046Y20209133D02*
X-6237141Y20094847D01*
X-6237141Y20094847D02*
X-6694284Y19637704D01*
X-6694284Y19637704D02*
X-6199046Y19637704D01*
X-8332379Y17137704D02*
X-8599046Y17518657D01*
X-8789522Y17137704D02*
X-8789522Y17937704D01*
X-8789522Y17937704D02*
X-8484760Y17937704D01*
X-8484760Y17937704D02*
X-8408570Y17899609D01*
X-8408570Y17899609D02*
X-8370475Y17861514D01*
X-8370475Y17861514D02*
X-8332379Y17785323D01*
X-8332379Y17785323D02*
X-8332379Y17671038D01*
X-8332379Y17671038D02*
X-8370475Y17594847D01*
X-8370475Y17594847D02*
X-8408570Y17556752D01*
X-8408570Y17556752D02*
X-8484760Y17518657D01*
X-8484760Y17518657D02*
X-8789522Y17518657D01*
X-8027618Y17175800D02*
X-7951427Y17137704D01*
X-7951427Y17137704D02*
X-7799046Y17137704D01*
X-7799046Y17137704D02*
X-7722856Y17175800D01*
X-7722856Y17175800D02*
X-7684760Y17251990D01*
X-7684760Y17251990D02*
X-7684760Y17290085D01*
X-7684760Y17290085D02*
X-7722856Y17366276D01*
X-7722856Y17366276D02*
X-7799046Y17404371D01*
X-7799046Y17404371D02*
X-7913332Y17404371D01*
X-7913332Y17404371D02*
X-7989522Y17442466D01*
X-7989522Y17442466D02*
X-8027618Y17518657D01*
X-8027618Y17518657D02*
X-8027618Y17556752D01*
X-8027618Y17556752D02*
X-7989522Y17632942D01*
X-7989522Y17632942D02*
X-7913332Y17671038D01*
X-7913332Y17671038D02*
X-7799046Y17671038D01*
X-7799046Y17671038D02*
X-7722856Y17632942D01*
X-6999046Y17137704D02*
X-6999046Y17937704D01*
X-6999046Y17175800D02*
X-7075237Y17137704D01*
X-7075237Y17137704D02*
X-7227618Y17137704D01*
X-7227618Y17137704D02*
X-7303808Y17175800D01*
X-7303808Y17175800D02*
X-7341903Y17213895D01*
X-7341903Y17213895D02*
X-7379999Y17290085D01*
X-7379999Y17290085D02*
X-7379999Y17518657D01*
X-7379999Y17518657D02*
X-7341903Y17594847D01*
X-7341903Y17594847D02*
X-7303808Y17632942D01*
X-7303808Y17632942D02*
X-7227618Y17671038D01*
X-7227618Y17671038D02*
X-7075237Y17671038D01*
X-7075237Y17671038D02*
X-6999046Y17632942D01*
X-6694284Y17937704D02*
X-6199046Y17937704D01*
X-6199046Y17937704D02*
X-6465712Y17632942D01*
X-6465712Y17632942D02*
X-6351427Y17632942D01*
X-6351427Y17632942D02*
X-6275236Y17594847D01*
X-6275236Y17594847D02*
X-6237141Y17556752D01*
X-6237141Y17556752D02*
X-6199046Y17480561D01*
X-6199046Y17480561D02*
X-6199046Y17290085D01*
X-6199046Y17290085D02*
X-6237141Y17213895D01*
X-6237141Y17213895D02*
X-6275236Y17175800D01*
X-6275236Y17175800D02*
X-6351427Y17137704D01*
X-6351427Y17137704D02*
X-6579998Y17137704D01*
X-6579998Y17137704D02*
X-6656189Y17175800D01*
X-6656189Y17175800D02*
X-6694284Y17213895D01*
X20932379Y-16862295D02*
X20665712Y-16481342D01*
X20475236Y-16862295D02*
X20475236Y-16062295D01*
X20475236Y-16062295D02*
X20779998Y-16062295D01*
X20779998Y-16062295D02*
X20856188Y-16100390D01*
X20856188Y-16100390D02*
X20894283Y-16138485D01*
X20894283Y-16138485D02*
X20932379Y-16214676D01*
X20932379Y-16214676D02*
X20932379Y-16328961D01*
X20932379Y-16328961D02*
X20894283Y-16405152D01*
X20894283Y-16405152D02*
X20856188Y-16443247D01*
X20856188Y-16443247D02*
X20779998Y-16481342D01*
X20779998Y-16481342D02*
X20475236Y-16481342D01*
X21618093Y-16862295D02*
X21618093Y-16443247D01*
X21618093Y-16443247D02*
X21579998Y-16367057D01*
X21579998Y-16367057D02*
X21503807Y-16328961D01*
X21503807Y-16328961D02*
X21351426Y-16328961D01*
X21351426Y-16328961D02*
X21275236Y-16367057D01*
X21618093Y-16824200D02*
X21541902Y-16862295D01*
X21541902Y-16862295D02*
X21351426Y-16862295D01*
X21351426Y-16862295D02*
X21275236Y-16824200D01*
X21275236Y-16824200D02*
X21237140Y-16748009D01*
X21237140Y-16748009D02*
X21237140Y-16671819D01*
X21237140Y-16671819D02*
X21275236Y-16595628D01*
X21275236Y-16595628D02*
X21351426Y-16557533D01*
X21351426Y-16557533D02*
X21541902Y-16557533D01*
X21541902Y-16557533D02*
X21618093Y-16519438D01*
X22341903Y-16328961D02*
X22341903Y-16976580D01*
X22341903Y-16976580D02*
X22303808Y-17052771D01*
X22303808Y-17052771D02*
X22265712Y-17090866D01*
X22265712Y-17090866D02*
X22189522Y-17128961D01*
X22189522Y-17128961D02*
X22075236Y-17128961D01*
X22075236Y-17128961D02*
X21999046Y-17090866D01*
X22341903Y-16824200D02*
X22265712Y-16862295D01*
X22265712Y-16862295D02*
X22113331Y-16862295D01*
X22113331Y-16862295D02*
X22037141Y-16824200D01*
X22037141Y-16824200D02*
X21999046Y-16786104D01*
X21999046Y-16786104D02*
X21960950Y-16709914D01*
X21960950Y-16709914D02*
X21960950Y-16481342D01*
X21960950Y-16481342D02*
X21999046Y-16405152D01*
X21999046Y-16405152D02*
X22037141Y-16367057D01*
X22037141Y-16367057D02*
X22113331Y-16328961D01*
X22113331Y-16328961D02*
X22265712Y-16328961D01*
X22265712Y-16328961D02*
X22341903Y-16367057D01*
X22722856Y-16328961D02*
X22722856Y-16862295D01*
X22722856Y-16405152D02*
X22760951Y-16367057D01*
X22760951Y-16367057D02*
X22837141Y-16328961D01*
X22837141Y-16328961D02*
X22951427Y-16328961D01*
X22951427Y-16328961D02*
X23027618Y-16367057D01*
X23027618Y-16367057D02*
X23065713Y-16443247D01*
X23065713Y-16443247D02*
X23065713Y-16862295D01*
X23789523Y-16862295D02*
X23789523Y-16062295D01*
X23789523Y-16824200D02*
X23713332Y-16862295D01*
X23713332Y-16862295D02*
X23560951Y-16862295D01*
X23560951Y-16862295D02*
X23484761Y-16824200D01*
X23484761Y-16824200D02*
X23446666Y-16786104D01*
X23446666Y-16786104D02*
X23408570Y-16709914D01*
X23408570Y-16709914D02*
X23408570Y-16481342D01*
X23408570Y-16481342D02*
X23446666Y-16405152D01*
X23446666Y-16405152D02*
X23484761Y-16367057D01*
X23484761Y-16367057D02*
X23560951Y-16328961D01*
X23560951Y-16328961D02*
X23713332Y-16328961D01*
X23713332Y-16328961D02*
X23789523Y-16367057D01*
X20366667Y37107645D02*
X20328571Y37069550D01*
X20328571Y37069550D02*
X20214286Y37031454D01*
X20214286Y37031454D02*
X20138095Y37031454D01*
X20138095Y37031454D02*
X20023809Y37069550D01*
X20023809Y37069550D02*
X19947619Y37145740D01*
X19947619Y37145740D02*
X19909524Y37221930D01*
X19909524Y37221930D02*
X19871428Y37374311D01*
X19871428Y37374311D02*
X19871428Y37488597D01*
X19871428Y37488597D02*
X19909524Y37640978D01*
X19909524Y37640978D02*
X19947619Y37717169D01*
X19947619Y37717169D02*
X20023809Y37793359D01*
X20023809Y37793359D02*
X20138095Y37831454D01*
X20138095Y37831454D02*
X20214286Y37831454D01*
X20214286Y37831454D02*
X20328571Y37793359D01*
X20328571Y37793359D02*
X20366667Y37755264D01*
X21052381Y37564788D02*
X21052381Y37031454D01*
X20861905Y37869550D02*
X20671428Y37298121D01*
X20671428Y37298121D02*
X21166667Y37298121D01*
X26667619Y24713895D02*
X26629523Y24675800D01*
X26629523Y24675800D02*
X26515238Y24637704D01*
X26515238Y24637704D02*
X26439047Y24637704D01*
X26439047Y24637704D02*
X26324761Y24675800D01*
X26324761Y24675800D02*
X26248571Y24751990D01*
X26248571Y24751990D02*
X26210476Y24828180D01*
X26210476Y24828180D02*
X26172380Y24980561D01*
X26172380Y24980561D02*
X26172380Y25094847D01*
X26172380Y25094847D02*
X26210476Y25247228D01*
X26210476Y25247228D02*
X26248571Y25323419D01*
X26248571Y25323419D02*
X26324761Y25399609D01*
X26324761Y25399609D02*
X26439047Y25437704D01*
X26439047Y25437704D02*
X26515238Y25437704D01*
X26515238Y25437704D02*
X26629523Y25399609D01*
X26629523Y25399609D02*
X26667619Y25361514D01*
X27429523Y24637704D02*
X26972380Y24637704D01*
X27200952Y24637704D02*
X27200952Y25437704D01*
X27200952Y25437704D02*
X27124761Y25323419D01*
X27124761Y25323419D02*
X27048571Y25247228D01*
X27048571Y25247228D02*
X26972380Y25209133D01*
X17233333Y37450502D02*
X16966667Y37450502D01*
X16966667Y37031454D02*
X16966667Y37831454D01*
X16966667Y37831454D02*
X17347619Y37831454D01*
X18071428Y37031454D02*
X17614285Y37031454D01*
X17842857Y37031454D02*
X17842857Y37831454D01*
X17842857Y37831454D02*
X17766666Y37717169D01*
X17766666Y37717169D02*
X17690476Y37640978D01*
X17690476Y37640978D02*
X17614285Y37602883D01*
X-8332379Y24637704D02*
X-8599046Y25018657D01*
X-8789522Y24637704D02*
X-8789522Y25437704D01*
X-8789522Y25437704D02*
X-8484760Y25437704D01*
X-8484760Y25437704D02*
X-8408570Y25399609D01*
X-8408570Y25399609D02*
X-8370475Y25361514D01*
X-8370475Y25361514D02*
X-8332379Y25285323D01*
X-8332379Y25285323D02*
X-8332379Y25171038D01*
X-8332379Y25171038D02*
X-8370475Y25094847D01*
X-8370475Y25094847D02*
X-8408570Y25056752D01*
X-8408570Y25056752D02*
X-8484760Y25018657D01*
X-8484760Y25018657D02*
X-8789522Y25018657D01*
X-8027618Y24675800D02*
X-7951427Y24637704D01*
X-7951427Y24637704D02*
X-7799046Y24637704D01*
X-7799046Y24637704D02*
X-7722856Y24675800D01*
X-7722856Y24675800D02*
X-7684760Y24751990D01*
X-7684760Y24751990D02*
X-7684760Y24790085D01*
X-7684760Y24790085D02*
X-7722856Y24866276D01*
X-7722856Y24866276D02*
X-7799046Y24904371D01*
X-7799046Y24904371D02*
X-7913332Y24904371D01*
X-7913332Y24904371D02*
X-7989522Y24942466D01*
X-7989522Y24942466D02*
X-8027618Y25018657D01*
X-8027618Y25018657D02*
X-8027618Y25056752D01*
X-8027618Y25056752D02*
X-7989522Y25132942D01*
X-7989522Y25132942D02*
X-7913332Y25171038D01*
X-7913332Y25171038D02*
X-7799046Y25171038D01*
X-7799046Y25171038D02*
X-7722856Y25132942D01*
X-6999046Y24637704D02*
X-6999046Y25437704D01*
X-6999046Y24675800D02*
X-7075237Y24637704D01*
X-7075237Y24637704D02*
X-7227618Y24637704D01*
X-7227618Y24637704D02*
X-7303808Y24675800D01*
X-7303808Y24675800D02*
X-7341903Y24713895D01*
X-7341903Y24713895D02*
X-7379999Y24790085D01*
X-7379999Y24790085D02*
X-7379999Y25018657D01*
X-7379999Y25018657D02*
X-7341903Y25094847D01*
X-7341903Y25094847D02*
X-7303808Y25132942D01*
X-7303808Y25132942D02*
X-7227618Y25171038D01*
X-7227618Y25171038D02*
X-7075237Y25171038D01*
X-7075237Y25171038D02*
X-6999046Y25132942D01*
X-6465712Y25437704D02*
X-6389522Y25437704D01*
X-6389522Y25437704D02*
X-6313331Y25399609D01*
X-6313331Y25399609D02*
X-6275236Y25361514D01*
X-6275236Y25361514D02*
X-6237141Y25285323D01*
X-6237141Y25285323D02*
X-6199046Y25132942D01*
X-6199046Y25132942D02*
X-6199046Y24942466D01*
X-6199046Y24942466D02*
X-6237141Y24790085D01*
X-6237141Y24790085D02*
X-6275236Y24713895D01*
X-6275236Y24713895D02*
X-6313331Y24675800D01*
X-6313331Y24675800D02*
X-6389522Y24637704D01*
X-6389522Y24637704D02*
X-6465712Y24637704D01*
X-6465712Y24637704D02*
X-6541903Y24675800D01*
X-6541903Y24675800D02*
X-6579998Y24713895D01*
X-6579998Y24713895D02*
X-6618093Y24790085D01*
X-6618093Y24790085D02*
X-6656189Y24942466D01*
X-6656189Y24942466D02*
X-6656189Y25132942D01*
X-6656189Y25132942D02*
X-6618093Y25285323D01*
X-6618093Y25285323D02*
X-6579998Y25361514D01*
X-6579998Y25361514D02*
X-6541903Y25399609D01*
X-6541903Y25399609D02*
X-6465712Y25437704D01*
X10780476Y31525204D02*
X10780476Y30877585D01*
X10780476Y30877585D02*
X10818571Y30801395D01*
X10818571Y30801395D02*
X10856666Y30763300D01*
X10856666Y30763300D02*
X10932857Y30725204D01*
X10932857Y30725204D02*
X11085238Y30725204D01*
X11085238Y30725204D02*
X11161428Y30763300D01*
X11161428Y30763300D02*
X11199523Y30801395D01*
X11199523Y30801395D02*
X11237619Y30877585D01*
X11237619Y30877585D02*
X11237619Y31525204D01*
X11542380Y31525204D02*
X12075714Y31525204D01*
X12075714Y31525204D02*
X11732856Y30725204D01*
X19985714Y-24856104D02*
X19947618Y-24894200D01*
X19947618Y-24894200D02*
X19833333Y-24932295D01*
X19833333Y-24932295D02*
X19757142Y-24932295D01*
X19757142Y-24932295D02*
X19642856Y-24894200D01*
X19642856Y-24894200D02*
X19566666Y-24818009D01*
X19566666Y-24818009D02*
X19528571Y-24741819D01*
X19528571Y-24741819D02*
X19490475Y-24589438D01*
X19490475Y-24589438D02*
X19490475Y-24475152D01*
X19490475Y-24475152D02*
X19528571Y-24322771D01*
X19528571Y-24322771D02*
X19566666Y-24246580D01*
X19566666Y-24246580D02*
X19642856Y-24170390D01*
X19642856Y-24170390D02*
X19757142Y-24132295D01*
X19757142Y-24132295D02*
X19833333Y-24132295D01*
X19833333Y-24132295D02*
X19947618Y-24170390D01*
X19947618Y-24170390D02*
X19985714Y-24208485D01*
X20747618Y-24932295D02*
X20290475Y-24932295D01*
X20519047Y-24932295D02*
X20519047Y-24132295D01*
X20519047Y-24132295D02*
X20442856Y-24246580D01*
X20442856Y-24246580D02*
X20366666Y-24322771D01*
X20366666Y-24322771D02*
X20290475Y-24360866D01*
X21433333Y-24132295D02*
X21280952Y-24132295D01*
X21280952Y-24132295D02*
X21204761Y-24170390D01*
X21204761Y-24170390D02*
X21166666Y-24208485D01*
X21166666Y-24208485D02*
X21090476Y-24322771D01*
X21090476Y-24322771D02*
X21052380Y-24475152D01*
X21052380Y-24475152D02*
X21052380Y-24779914D01*
X21052380Y-24779914D02*
X21090476Y-24856104D01*
X21090476Y-24856104D02*
X21128571Y-24894200D01*
X21128571Y-24894200D02*
X21204761Y-24932295D01*
X21204761Y-24932295D02*
X21357142Y-24932295D01*
X21357142Y-24932295D02*
X21433333Y-24894200D01*
X21433333Y-24894200D02*
X21471428Y-24856104D01*
X21471428Y-24856104D02*
X21509523Y-24779914D01*
X21509523Y-24779914D02*
X21509523Y-24589438D01*
X21509523Y-24589438D02*
X21471428Y-24513247D01*
X21471428Y-24513247D02*
X21433333Y-24475152D01*
X21433333Y-24475152D02*
X21357142Y-24437057D01*
X21357142Y-24437057D02*
X21204761Y-24437057D01*
X21204761Y-24437057D02*
X21128571Y-24475152D01*
X21128571Y-24475152D02*
X21090476Y-24513247D01*
X21090476Y-24513247D02*
X21052380Y-24589438D01*
X-27082380Y-22362295D02*
X-27349047Y-21981342D01*
X-27539523Y-22362295D02*
X-27539523Y-21562295D01*
X-27539523Y-21562295D02*
X-27234761Y-21562295D01*
X-27234761Y-21562295D02*
X-27158571Y-21600390D01*
X-27158571Y-21600390D02*
X-27120476Y-21638485D01*
X-27120476Y-21638485D02*
X-27082380Y-21714676D01*
X-27082380Y-21714676D02*
X-27082380Y-21828961D01*
X-27082380Y-21828961D02*
X-27120476Y-21905152D01*
X-27120476Y-21905152D02*
X-27158571Y-21943247D01*
X-27158571Y-21943247D02*
X-27234761Y-21981342D01*
X-27234761Y-21981342D02*
X-27539523Y-21981342D01*
X-26625238Y-22362295D02*
X-26701428Y-22324200D01*
X-26701428Y-22324200D02*
X-26739523Y-22248009D01*
X-26739523Y-22248009D02*
X-26739523Y-21562295D01*
X-26015713Y-22324200D02*
X-26091904Y-22362295D01*
X-26091904Y-22362295D02*
X-26244285Y-22362295D01*
X-26244285Y-22362295D02*
X-26320475Y-22324200D01*
X-26320475Y-22324200D02*
X-26358571Y-22248009D01*
X-26358571Y-22248009D02*
X-26358571Y-21943247D01*
X-26358571Y-21943247D02*
X-26320475Y-21867057D01*
X-26320475Y-21867057D02*
X-26244285Y-21828961D01*
X-26244285Y-21828961D02*
X-26091904Y-21828961D01*
X-26091904Y-21828961D02*
X-26015713Y-21867057D01*
X-26015713Y-21867057D02*
X-25977618Y-21943247D01*
X-25977618Y-21943247D02*
X-25977618Y-22019438D01*
X-25977618Y-22019438D02*
X-26358571Y-22095628D01*
X-25291904Y-22362295D02*
X-25291904Y-21562295D01*
X-25291904Y-22324200D02*
X-25368095Y-22362295D01*
X-25368095Y-22362295D02*
X-25520476Y-22362295D01*
X-25520476Y-22362295D02*
X-25596666Y-22324200D01*
X-25596666Y-22324200D02*
X-25634761Y-22286104D01*
X-25634761Y-22286104D02*
X-25672857Y-22209914D01*
X-25672857Y-22209914D02*
X-25672857Y-21981342D01*
X-25672857Y-21981342D02*
X-25634761Y-21905152D01*
X-25634761Y-21905152D02*
X-25596666Y-21867057D01*
X-25596666Y-21867057D02*
X-25520476Y-21828961D01*
X-25520476Y-21828961D02*
X-25368095Y-21828961D01*
X-25368095Y-21828961D02*
X-25291904Y-21867057D01*
X19167619Y-27862295D02*
X18900952Y-27481342D01*
X18710476Y-27862295D02*
X18710476Y-27062295D01*
X18710476Y-27062295D02*
X19015238Y-27062295D01*
X19015238Y-27062295D02*
X19091428Y-27100390D01*
X19091428Y-27100390D02*
X19129523Y-27138485D01*
X19129523Y-27138485D02*
X19167619Y-27214676D01*
X19167619Y-27214676D02*
X19167619Y-27328961D01*
X19167619Y-27328961D02*
X19129523Y-27405152D01*
X19129523Y-27405152D02*
X19091428Y-27443247D01*
X19091428Y-27443247D02*
X19015238Y-27481342D01*
X19015238Y-27481342D02*
X18710476Y-27481342D01*
X19434285Y-27062295D02*
X19967619Y-27062295D01*
X19967619Y-27062295D02*
X19624761Y-27862295D01*
X21866667Y-36718545D02*
X21600000Y-36337592D01*
X21409524Y-36718545D02*
X21409524Y-35918545D01*
X21409524Y-35918545D02*
X21714286Y-35918545D01*
X21714286Y-35918545D02*
X21790476Y-35956640D01*
X21790476Y-35956640D02*
X21828571Y-35994735D01*
X21828571Y-35994735D02*
X21866667Y-36070926D01*
X21866667Y-36070926D02*
X21866667Y-36185211D01*
X21866667Y-36185211D02*
X21828571Y-36261402D01*
X21828571Y-36261402D02*
X21790476Y-36299497D01*
X21790476Y-36299497D02*
X21714286Y-36337592D01*
X21714286Y-36337592D02*
X21409524Y-36337592D01*
X22590476Y-35918545D02*
X22209524Y-35918545D01*
X22209524Y-35918545D02*
X22171428Y-36299497D01*
X22171428Y-36299497D02*
X22209524Y-36261402D01*
X22209524Y-36261402D02*
X22285714Y-36223307D01*
X22285714Y-36223307D02*
X22476190Y-36223307D01*
X22476190Y-36223307D02*
X22552381Y-36261402D01*
X22552381Y-36261402D02*
X22590476Y-36299497D01*
X22590476Y-36299497D02*
X22628571Y-36375688D01*
X22628571Y-36375688D02*
X22628571Y-36566164D01*
X22628571Y-36566164D02*
X22590476Y-36642354D01*
X22590476Y-36642354D02*
X22552381Y-36680450D01*
X22552381Y-36680450D02*
X22476190Y-36718545D01*
X22476190Y-36718545D02*
X22285714Y-36718545D01*
X22285714Y-36718545D02*
X22209524Y-36680450D01*
X22209524Y-36680450D02*
X22171428Y-36642354D01*
X27663116Y-18714228D02*
X27625020Y-18752324D01*
X27625020Y-18752324D02*
X27510735Y-18790419D01*
X27510735Y-18790419D02*
X27434544Y-18790419D01*
X27434544Y-18790419D02*
X27320258Y-18752324D01*
X27320258Y-18752324D02*
X27244068Y-18676133D01*
X27244068Y-18676133D02*
X27205973Y-18599943D01*
X27205973Y-18599943D02*
X27167877Y-18447562D01*
X27167877Y-18447562D02*
X27167877Y-18333276D01*
X27167877Y-18333276D02*
X27205973Y-18180895D01*
X27205973Y-18180895D02*
X27244068Y-18104704D01*
X27244068Y-18104704D02*
X27320258Y-18028514D01*
X27320258Y-18028514D02*
X27434544Y-17990419D01*
X27434544Y-17990419D02*
X27510735Y-17990419D01*
X27510735Y-17990419D02*
X27625020Y-18028514D01*
X27625020Y-18028514D02*
X27663116Y-18066609D01*
X28425020Y-18790419D02*
X27967877Y-18790419D01*
X28196449Y-18790419D02*
X28196449Y-17990419D01*
X28196449Y-17990419D02*
X28120258Y-18104704D01*
X28120258Y-18104704D02*
X28044068Y-18180895D01*
X28044068Y-18180895D02*
X27967877Y-18218990D01*
X29186925Y-18790419D02*
X28729782Y-18790419D01*
X28958354Y-18790419D02*
X28958354Y-17990419D01*
X28958354Y-17990419D02*
X28882163Y-18104704D01*
X28882163Y-18104704D02*
X28805973Y-18180895D01*
X28805973Y-18180895D02*
X28729782Y-18218990D01*
X25613475Y35011841D02*
X25613475Y34364222D01*
X25613475Y34364222D02*
X25651570Y34288032D01*
X25651570Y34288032D02*
X25689665Y34249937D01*
X25689665Y34249937D02*
X25765856Y34211841D01*
X25765856Y34211841D02*
X25918237Y34211841D01*
X25918237Y34211841D02*
X25994427Y34249937D01*
X25994427Y34249937D02*
X26032522Y34288032D01*
X26032522Y34288032D02*
X26070618Y34364222D01*
X26070618Y34364222D02*
X26070618Y35011841D01*
X26375379Y35011841D02*
X26870617Y35011841D01*
X26870617Y35011841D02*
X26603951Y34707079D01*
X26603951Y34707079D02*
X26718236Y34707079D01*
X26718236Y34707079D02*
X26794427Y34668984D01*
X26794427Y34668984D02*
X26832522Y34630889D01*
X26832522Y34630889D02*
X26870617Y34554698D01*
X26870617Y34554698D02*
X26870617Y34364222D01*
X26870617Y34364222D02*
X26832522Y34288032D01*
X26832522Y34288032D02*
X26794427Y34249937D01*
X26794427Y34249937D02*
X26718236Y34211841D01*
X26718236Y34211841D02*
X26489665Y34211841D01*
X26489665Y34211841D02*
X26413474Y34249937D01*
X26413474Y34249937D02*
X26375379Y34288032D01*
X11485714Y-26356104D02*
X11447618Y-26394200D01*
X11447618Y-26394200D02*
X11333333Y-26432295D01*
X11333333Y-26432295D02*
X11257142Y-26432295D01*
X11257142Y-26432295D02*
X11142856Y-26394200D01*
X11142856Y-26394200D02*
X11066666Y-26318009D01*
X11066666Y-26318009D02*
X11028571Y-26241819D01*
X11028571Y-26241819D02*
X10990475Y-26089438D01*
X10990475Y-26089438D02*
X10990475Y-25975152D01*
X10990475Y-25975152D02*
X11028571Y-25822771D01*
X11028571Y-25822771D02*
X11066666Y-25746580D01*
X11066666Y-25746580D02*
X11142856Y-25670390D01*
X11142856Y-25670390D02*
X11257142Y-25632295D01*
X11257142Y-25632295D02*
X11333333Y-25632295D01*
X11333333Y-25632295D02*
X11447618Y-25670390D01*
X11447618Y-25670390D02*
X11485714Y-25708485D01*
X12247618Y-26432295D02*
X11790475Y-26432295D01*
X12019047Y-26432295D02*
X12019047Y-25632295D01*
X12019047Y-25632295D02*
X11942856Y-25746580D01*
X11942856Y-25746580D02*
X11866666Y-25822771D01*
X11866666Y-25822771D02*
X11790475Y-25860866D01*
X12628571Y-26432295D02*
X12780952Y-26432295D01*
X12780952Y-26432295D02*
X12857142Y-26394200D01*
X12857142Y-26394200D02*
X12895238Y-26356104D01*
X12895238Y-26356104D02*
X12971428Y-26241819D01*
X12971428Y-26241819D02*
X13009523Y-26089438D01*
X13009523Y-26089438D02*
X13009523Y-25784676D01*
X13009523Y-25784676D02*
X12971428Y-25708485D01*
X12971428Y-25708485D02*
X12933333Y-25670390D01*
X12933333Y-25670390D02*
X12857142Y-25632295D01*
X12857142Y-25632295D02*
X12704761Y-25632295D01*
X12704761Y-25632295D02*
X12628571Y-25670390D01*
X12628571Y-25670390D02*
X12590476Y-25708485D01*
X12590476Y-25708485D02*
X12552380Y-25784676D01*
X12552380Y-25784676D02*
X12552380Y-25975152D01*
X12552380Y-25975152D02*
X12590476Y-26051342D01*
X12590476Y-26051342D02*
X12628571Y-26089438D01*
X12628571Y-26089438D02*
X12704761Y-26127533D01*
X12704761Y-26127533D02*
X12857142Y-26127533D01*
X12857142Y-26127533D02*
X12933333Y-26089438D01*
X12933333Y-26089438D02*
X12971428Y-26051342D01*
X12971428Y-26051342D02*
X13009523Y-25975152D01*
X29667619Y-34862295D02*
X29400952Y-34481342D01*
X29210476Y-34862295D02*
X29210476Y-34062295D01*
X29210476Y-34062295D02*
X29515238Y-34062295D01*
X29515238Y-34062295D02*
X29591428Y-34100390D01*
X29591428Y-34100390D02*
X29629523Y-34138485D01*
X29629523Y-34138485D02*
X29667619Y-34214676D01*
X29667619Y-34214676D02*
X29667619Y-34328961D01*
X29667619Y-34328961D02*
X29629523Y-34405152D01*
X29629523Y-34405152D02*
X29591428Y-34443247D01*
X29591428Y-34443247D02*
X29515238Y-34481342D01*
X29515238Y-34481342D02*
X29210476Y-34481342D01*
X30353333Y-34062295D02*
X30200952Y-34062295D01*
X30200952Y-34062295D02*
X30124761Y-34100390D01*
X30124761Y-34100390D02*
X30086666Y-34138485D01*
X30086666Y-34138485D02*
X30010476Y-34252771D01*
X30010476Y-34252771D02*
X29972380Y-34405152D01*
X29972380Y-34405152D02*
X29972380Y-34709914D01*
X29972380Y-34709914D02*
X30010476Y-34786104D01*
X30010476Y-34786104D02*
X30048571Y-34824200D01*
X30048571Y-34824200D02*
X30124761Y-34862295D01*
X30124761Y-34862295D02*
X30277142Y-34862295D01*
X30277142Y-34862295D02*
X30353333Y-34824200D01*
X30353333Y-34824200D02*
X30391428Y-34786104D01*
X30391428Y-34786104D02*
X30429523Y-34709914D01*
X30429523Y-34709914D02*
X30429523Y-34519438D01*
X30429523Y-34519438D02*
X30391428Y-34443247D01*
X30391428Y-34443247D02*
X30353333Y-34405152D01*
X30353333Y-34405152D02*
X30277142Y-34367057D01*
X30277142Y-34367057D02*
X30124761Y-34367057D01*
X30124761Y-34367057D02*
X30048571Y-34405152D01*
X30048571Y-34405152D02*
X30010476Y-34443247D01*
X30010476Y-34443247D02*
X29972380Y-34519438D01*
X-6609523Y37111454D02*
X-6609523Y36463835D01*
X-6609523Y36463835D02*
X-6571428Y36387645D01*
X-6571428Y36387645D02*
X-6533333Y36349550D01*
X-6533333Y36349550D02*
X-6457142Y36311454D01*
X-6457142Y36311454D02*
X-6304761Y36311454D01*
X-6304761Y36311454D02*
X-6228571Y36349550D01*
X-6228571Y36349550D02*
X-6190476Y36387645D01*
X-6190476Y36387645D02*
X-6152380Y36463835D01*
X-6152380Y36463835D02*
X-6152380Y37111454D01*
X-5428571Y36844788D02*
X-5428571Y36311454D01*
X-5619047Y37149550D02*
X-5809524Y36578121D01*
X-5809524Y36578121D02*
X-5314285Y36578121D01*
X366667Y37031454D02*
X100000Y37412407D01*
X-90475Y37031454D02*
X-90475Y37831454D01*
X-90475Y37831454D02*
X214286Y37831454D01*
X214286Y37831454D02*
X290476Y37793359D01*
X290476Y37793359D02*
X328571Y37755264D01*
X328571Y37755264D02*
X366667Y37679073D01*
X366667Y37679073D02*
X366667Y37564788D01*
X366667Y37564788D02*
X328571Y37488597D01*
X328571Y37488597D02*
X290476Y37450502D01*
X290476Y37450502D02*
X214286Y37412407D01*
X214286Y37412407D02*
X-90475Y37412407D01*
X671428Y37755264D02*
X709524Y37793359D01*
X709524Y37793359D02*
X785714Y37831454D01*
X785714Y37831454D02*
X976190Y37831454D01*
X976190Y37831454D02*
X1052381Y37793359D01*
X1052381Y37793359D02*
X1090476Y37755264D01*
X1090476Y37755264D02*
X1128571Y37679073D01*
X1128571Y37679073D02*
X1128571Y37602883D01*
X1128571Y37602883D02*
X1090476Y37488597D01*
X1090476Y37488597D02*
X633333Y37031454D01*
X633333Y37031454D02*
X1128571Y37031454D01*
X26417619Y21213895D02*
X26379523Y21175800D01*
X26379523Y21175800D02*
X26265238Y21137704D01*
X26265238Y21137704D02*
X26189047Y21137704D01*
X26189047Y21137704D02*
X26074761Y21175800D01*
X26074761Y21175800D02*
X25998571Y21251990D01*
X25998571Y21251990D02*
X25960476Y21328180D01*
X25960476Y21328180D02*
X25922380Y21480561D01*
X25922380Y21480561D02*
X25922380Y21594847D01*
X25922380Y21594847D02*
X25960476Y21747228D01*
X25960476Y21747228D02*
X25998571Y21823419D01*
X25998571Y21823419D02*
X26074761Y21899609D01*
X26074761Y21899609D02*
X26189047Y21937704D01*
X26189047Y21937704D02*
X26265238Y21937704D01*
X26265238Y21937704D02*
X26379523Y21899609D01*
X26379523Y21899609D02*
X26417619Y21861514D01*
X26684285Y21937704D02*
X27179523Y21937704D01*
X27179523Y21937704D02*
X26912857Y21632942D01*
X26912857Y21632942D02*
X27027142Y21632942D01*
X27027142Y21632942D02*
X27103333Y21594847D01*
X27103333Y21594847D02*
X27141428Y21556752D01*
X27141428Y21556752D02*
X27179523Y21480561D01*
X27179523Y21480561D02*
X27179523Y21290085D01*
X27179523Y21290085D02*
X27141428Y21213895D01*
X27141428Y21213895D02*
X27103333Y21175800D01*
X27103333Y21175800D02*
X27027142Y21137704D01*
X27027142Y21137704D02*
X26798571Y21137704D01*
X26798571Y21137704D02*
X26722380Y21175800D01*
X26722380Y21175800D02*
X26684285Y21213895D01*
X-27499522Y-18382295D02*
X-27499522Y-17582295D01*
X-27499522Y-17582295D02*
X-27309046Y-17582295D01*
X-27309046Y-17582295D02*
X-27194760Y-17620390D01*
X-27194760Y-17620390D02*
X-27118570Y-17696580D01*
X-27118570Y-17696580D02*
X-27080475Y-17772771D01*
X-27080475Y-17772771D02*
X-27042379Y-17925152D01*
X-27042379Y-17925152D02*
X-27042379Y-18039438D01*
X-27042379Y-18039438D02*
X-27080475Y-18191819D01*
X-27080475Y-18191819D02*
X-27118570Y-18268009D01*
X-27118570Y-18268009D02*
X-27194760Y-18344200D01*
X-27194760Y-18344200D02*
X-27309046Y-18382295D01*
X-27309046Y-18382295D02*
X-27499522Y-18382295D01*
X-26280475Y-18382295D02*
X-26737618Y-18382295D01*
X-26509046Y-18382295D02*
X-26509046Y-17582295D01*
X-26509046Y-17582295D02*
X-26585237Y-17696580D01*
X-26585237Y-17696580D02*
X-26661427Y-17772771D01*
X-26661427Y-17772771D02*
X-26737618Y-17810866D01*
X13618594Y35554578D02*
X13618594Y34983150D01*
X13618594Y34983150D02*
X13580499Y34868864D01*
X13580499Y34868864D02*
X13504308Y34792674D01*
X13504308Y34792674D02*
X13390023Y34754578D01*
X13390023Y34754578D02*
X13313832Y34754578D01*
X13961451Y35478388D02*
X13999547Y35516483D01*
X13999547Y35516483D02*
X14075737Y35554578D01*
X14075737Y35554578D02*
X14266213Y35554578D01*
X14266213Y35554578D02*
X14342404Y35516483D01*
X14342404Y35516483D02*
X14380499Y35478388D01*
X14380499Y35478388D02*
X14418594Y35402197D01*
X14418594Y35402197D02*
X14418594Y35326007D01*
X14418594Y35326007D02*
X14380499Y35211721D01*
X14380499Y35211721D02*
X13923356Y34754578D01*
X13923356Y34754578D02*
X14418594Y34754578D01*
X27918375Y-24922092D02*
X27880279Y-24960188D01*
X27880279Y-24960188D02*
X27765994Y-24998283D01*
X27765994Y-24998283D02*
X27689803Y-24998283D01*
X27689803Y-24998283D02*
X27575517Y-24960188D01*
X27575517Y-24960188D02*
X27499327Y-24883997D01*
X27499327Y-24883997D02*
X27461232Y-24807807D01*
X27461232Y-24807807D02*
X27423136Y-24655426D01*
X27423136Y-24655426D02*
X27423136Y-24541140D01*
X27423136Y-24541140D02*
X27461232Y-24388759D01*
X27461232Y-24388759D02*
X27499327Y-24312568D01*
X27499327Y-24312568D02*
X27575517Y-24236378D01*
X27575517Y-24236378D02*
X27689803Y-24198283D01*
X27689803Y-24198283D02*
X27765994Y-24198283D01*
X27765994Y-24198283D02*
X27880279Y-24236378D01*
X27880279Y-24236378D02*
X27918375Y-24274473D01*
X28680279Y-24998283D02*
X28223136Y-24998283D01*
X28451708Y-24998283D02*
X28451708Y-24198283D01*
X28451708Y-24198283D02*
X28375517Y-24312568D01*
X28375517Y-24312568D02*
X28299327Y-24388759D01*
X28299327Y-24388759D02*
X28223136Y-24426854D01*
X28985041Y-24274473D02*
X29023137Y-24236378D01*
X29023137Y-24236378D02*
X29099327Y-24198283D01*
X29099327Y-24198283D02*
X29289803Y-24198283D01*
X29289803Y-24198283D02*
X29365994Y-24236378D01*
X29365994Y-24236378D02*
X29404089Y-24274473D01*
X29404089Y-24274473D02*
X29442184Y-24350664D01*
X29442184Y-24350664D02*
X29442184Y-24426854D01*
X29442184Y-24426854D02*
X29404089Y-24541140D01*
X29404089Y-24541140D02*
X28946946Y-24998283D01*
X28946946Y-24998283D02*
X29442184Y-24998283D01*
X22303809Y-27786104D02*
X22265713Y-27824200D01*
X22265713Y-27824200D02*
X22151428Y-27862295D01*
X22151428Y-27862295D02*
X22075237Y-27862295D01*
X22075237Y-27862295D02*
X21960951Y-27824200D01*
X21960951Y-27824200D02*
X21884761Y-27748009D01*
X21884761Y-27748009D02*
X21846666Y-27671819D01*
X21846666Y-27671819D02*
X21808570Y-27519438D01*
X21808570Y-27519438D02*
X21808570Y-27405152D01*
X21808570Y-27405152D02*
X21846666Y-27252771D01*
X21846666Y-27252771D02*
X21884761Y-27176580D01*
X21884761Y-27176580D02*
X21960951Y-27100390D01*
X21960951Y-27100390D02*
X22075237Y-27062295D01*
X22075237Y-27062295D02*
X22151428Y-27062295D01*
X22151428Y-27062295D02*
X22265713Y-27100390D01*
X22265713Y-27100390D02*
X22303809Y-27138485D01*
X23065713Y-27862295D02*
X22608570Y-27862295D01*
X22837142Y-27862295D02*
X22837142Y-27062295D01*
X22837142Y-27062295D02*
X22760951Y-27176580D01*
X22760951Y-27176580D02*
X22684761Y-27252771D01*
X22684761Y-27252771D02*
X22608570Y-27290866D01*
X23332380Y-27062295D02*
X23827618Y-27062295D01*
X23827618Y-27062295D02*
X23560952Y-27367057D01*
X23560952Y-27367057D02*
X23675237Y-27367057D01*
X23675237Y-27367057D02*
X23751428Y-27405152D01*
X23751428Y-27405152D02*
X23789523Y-27443247D01*
X23789523Y-27443247D02*
X23827618Y-27519438D01*
X23827618Y-27519438D02*
X23827618Y-27709914D01*
X23827618Y-27709914D02*
X23789523Y-27786104D01*
X23789523Y-27786104D02*
X23751428Y-27824200D01*
X23751428Y-27824200D02*
X23675237Y-27862295D01*
X23675237Y-27862295D02*
X23446666Y-27862295D01*
X23446666Y-27862295D02*
X23370475Y-27824200D01*
X23370475Y-27824200D02*
X23332380Y-27786104D01*
X25167700Y-25257871D02*
X25129604Y-25295967D01*
X25129604Y-25295967D02*
X25015319Y-25334062D01*
X25015319Y-25334062D02*
X24939128Y-25334062D01*
X24939128Y-25334062D02*
X24824842Y-25295967D01*
X24824842Y-25295967D02*
X24748652Y-25219776D01*
X24748652Y-25219776D02*
X24710557Y-25143586D01*
X24710557Y-25143586D02*
X24672461Y-24991205D01*
X24672461Y-24991205D02*
X24672461Y-24876919D01*
X24672461Y-24876919D02*
X24710557Y-24724538D01*
X24710557Y-24724538D02*
X24748652Y-24648347D01*
X24748652Y-24648347D02*
X24824842Y-24572157D01*
X24824842Y-24572157D02*
X24939128Y-24534062D01*
X24939128Y-24534062D02*
X25015319Y-24534062D01*
X25015319Y-24534062D02*
X25129604Y-24572157D01*
X25129604Y-24572157D02*
X25167700Y-24610252D01*
X25929604Y-25334062D02*
X25472461Y-25334062D01*
X25701033Y-25334062D02*
X25701033Y-24534062D01*
X25701033Y-24534062D02*
X25624842Y-24648347D01*
X25624842Y-24648347D02*
X25548652Y-24724538D01*
X25548652Y-24724538D02*
X25472461Y-24762633D01*
X26386747Y-24876919D02*
X26310557Y-24838824D01*
X26310557Y-24838824D02*
X26272462Y-24800728D01*
X26272462Y-24800728D02*
X26234366Y-24724538D01*
X26234366Y-24724538D02*
X26234366Y-24686443D01*
X26234366Y-24686443D02*
X26272462Y-24610252D01*
X26272462Y-24610252D02*
X26310557Y-24572157D01*
X26310557Y-24572157D02*
X26386747Y-24534062D01*
X26386747Y-24534062D02*
X26539128Y-24534062D01*
X26539128Y-24534062D02*
X26615319Y-24572157D01*
X26615319Y-24572157D02*
X26653414Y-24610252D01*
X26653414Y-24610252D02*
X26691509Y-24686443D01*
X26691509Y-24686443D02*
X26691509Y-24724538D01*
X26691509Y-24724538D02*
X26653414Y-24800728D01*
X26653414Y-24800728D02*
X26615319Y-24838824D01*
X26615319Y-24838824D02*
X26539128Y-24876919D01*
X26539128Y-24876919D02*
X26386747Y-24876919D01*
X26386747Y-24876919D02*
X26310557Y-24915014D01*
X26310557Y-24915014D02*
X26272462Y-24953109D01*
X26272462Y-24953109D02*
X26234366Y-25029300D01*
X26234366Y-25029300D02*
X26234366Y-25181681D01*
X26234366Y-25181681D02*
X26272462Y-25257871D01*
X26272462Y-25257871D02*
X26310557Y-25295967D01*
X26310557Y-25295967D02*
X26386747Y-25334062D01*
X26386747Y-25334062D02*
X26539128Y-25334062D01*
X26539128Y-25334062D02*
X26615319Y-25295967D01*
X26615319Y-25295967D02*
X26653414Y-25257871D01*
X26653414Y-25257871D02*
X26691509Y-25181681D01*
X26691509Y-25181681D02*
X26691509Y-25029300D01*
X26691509Y-25029300D02*
X26653414Y-24953109D01*
X26653414Y-24953109D02*
X26615319Y-24915014D01*
X26615319Y-24915014D02*
X26539128Y-24876919D01*
X26417619Y14137704D02*
X26150952Y14518657D01*
X25960476Y14137704D02*
X25960476Y14937704D01*
X25960476Y14937704D02*
X26265238Y14937704D01*
X26265238Y14937704D02*
X26341428Y14899609D01*
X26341428Y14899609D02*
X26379523Y14861514D01*
X26379523Y14861514D02*
X26417619Y14785323D01*
X26417619Y14785323D02*
X26417619Y14671038D01*
X26417619Y14671038D02*
X26379523Y14594847D01*
X26379523Y14594847D02*
X26341428Y14556752D01*
X26341428Y14556752D02*
X26265238Y14518657D01*
X26265238Y14518657D02*
X25960476Y14518657D01*
X27179523Y14137704D02*
X26722380Y14137704D01*
X26950952Y14137704D02*
X26950952Y14937704D01*
X26950952Y14937704D02*
X26874761Y14823419D01*
X26874761Y14823419D02*
X26798571Y14747228D01*
X26798571Y14747228D02*
X26722380Y14709133D01*
X-8332379Y14637704D02*
X-8599046Y15018657D01*
X-8789522Y14637704D02*
X-8789522Y15437704D01*
X-8789522Y15437704D02*
X-8484760Y15437704D01*
X-8484760Y15437704D02*
X-8408570Y15399609D01*
X-8408570Y15399609D02*
X-8370475Y15361514D01*
X-8370475Y15361514D02*
X-8332379Y15285323D01*
X-8332379Y15285323D02*
X-8332379Y15171038D01*
X-8332379Y15171038D02*
X-8370475Y15094847D01*
X-8370475Y15094847D02*
X-8408570Y15056752D01*
X-8408570Y15056752D02*
X-8484760Y15018657D01*
X-8484760Y15018657D02*
X-8789522Y15018657D01*
X-8027618Y14675800D02*
X-7951427Y14637704D01*
X-7951427Y14637704D02*
X-7799046Y14637704D01*
X-7799046Y14637704D02*
X-7722856Y14675800D01*
X-7722856Y14675800D02*
X-7684760Y14751990D01*
X-7684760Y14751990D02*
X-7684760Y14790085D01*
X-7684760Y14790085D02*
X-7722856Y14866276D01*
X-7722856Y14866276D02*
X-7799046Y14904371D01*
X-7799046Y14904371D02*
X-7913332Y14904371D01*
X-7913332Y14904371D02*
X-7989522Y14942466D01*
X-7989522Y14942466D02*
X-8027618Y15018657D01*
X-8027618Y15018657D02*
X-8027618Y15056752D01*
X-8027618Y15056752D02*
X-7989522Y15132942D01*
X-7989522Y15132942D02*
X-7913332Y15171038D01*
X-7913332Y15171038D02*
X-7799046Y15171038D01*
X-7799046Y15171038D02*
X-7722856Y15132942D01*
X-6999046Y14637704D02*
X-6999046Y15437704D01*
X-6999046Y14675800D02*
X-7075237Y14637704D01*
X-7075237Y14637704D02*
X-7227618Y14637704D01*
X-7227618Y14637704D02*
X-7303808Y14675800D01*
X-7303808Y14675800D02*
X-7341903Y14713895D01*
X-7341903Y14713895D02*
X-7379999Y14790085D01*
X-7379999Y14790085D02*
X-7379999Y15018657D01*
X-7379999Y15018657D02*
X-7341903Y15094847D01*
X-7341903Y15094847D02*
X-7303808Y15132942D01*
X-7303808Y15132942D02*
X-7227618Y15171038D01*
X-7227618Y15171038D02*
X-7075237Y15171038D01*
X-7075237Y15171038D02*
X-6999046Y15132942D01*
X-6275236Y15171038D02*
X-6275236Y14637704D01*
X-6465712Y15475800D02*
X-6656189Y14904371D01*
X-6656189Y14904371D02*
X-6160950Y14904371D01*
X25985714Y-12892354D02*
X25947618Y-12930450D01*
X25947618Y-12930450D02*
X25833333Y-12968545D01*
X25833333Y-12968545D02*
X25757142Y-12968545D01*
X25757142Y-12968545D02*
X25642856Y-12930450D01*
X25642856Y-12930450D02*
X25566666Y-12854259D01*
X25566666Y-12854259D02*
X25528571Y-12778069D01*
X25528571Y-12778069D02*
X25490475Y-12625688D01*
X25490475Y-12625688D02*
X25490475Y-12511402D01*
X25490475Y-12511402D02*
X25528571Y-12359021D01*
X25528571Y-12359021D02*
X25566666Y-12282830D01*
X25566666Y-12282830D02*
X25642856Y-12206640D01*
X25642856Y-12206640D02*
X25757142Y-12168545D01*
X25757142Y-12168545D02*
X25833333Y-12168545D01*
X25833333Y-12168545D02*
X25947618Y-12206640D01*
X25947618Y-12206640D02*
X25985714Y-12244735D01*
X26747618Y-12968545D02*
X26290475Y-12968545D01*
X26519047Y-12968545D02*
X26519047Y-12168545D01*
X26519047Y-12168545D02*
X26442856Y-12282830D01*
X26442856Y-12282830D02*
X26366666Y-12359021D01*
X26366666Y-12359021D02*
X26290475Y-12397116D01*
X27471428Y-12168545D02*
X27090476Y-12168545D01*
X27090476Y-12168545D02*
X27052380Y-12549497D01*
X27052380Y-12549497D02*
X27090476Y-12511402D01*
X27090476Y-12511402D02*
X27166666Y-12473307D01*
X27166666Y-12473307D02*
X27357142Y-12473307D01*
X27357142Y-12473307D02*
X27433333Y-12511402D01*
X27433333Y-12511402D02*
X27471428Y-12549497D01*
X27471428Y-12549497D02*
X27509523Y-12625688D01*
X27509523Y-12625688D02*
X27509523Y-12816164D01*
X27509523Y-12816164D02*
X27471428Y-12892354D01*
X27471428Y-12892354D02*
X27433333Y-12930450D01*
X27433333Y-12930450D02*
X27357142Y-12968545D01*
X27357142Y-12968545D02*
X27166666Y-12968545D01*
X27166666Y-12968545D02*
X27090476Y-12930450D01*
X27090476Y-12930450D02*
X27052380Y-12892354D01*
X-22189166Y9231454D02*
X-22189166Y8660026D01*
X-22189166Y8660026D02*
X-22227261Y8545740D01*
X-22227261Y8545740D02*
X-22303452Y8469550D01*
X-22303452Y8469550D02*
X-22417737Y8431454D01*
X-22417737Y8431454D02*
X-22493928Y8431454D01*
X-21884404Y9231454D02*
X-21389166Y9231454D01*
X-21389166Y9231454D02*
X-21655832Y8926692D01*
X-21655832Y8926692D02*
X-21541547Y8926692D01*
X-21541547Y8926692D02*
X-21465356Y8888597D01*
X-21465356Y8888597D02*
X-21427261Y8850502D01*
X-21427261Y8850502D02*
X-21389166Y8774311D01*
X-21389166Y8774311D02*
X-21389166Y8583835D01*
X-21389166Y8583835D02*
X-21427261Y8507645D01*
X-21427261Y8507645D02*
X-21465356Y8469550D01*
X-21465356Y8469550D02*
X-21541547Y8431454D01*
X-21541547Y8431454D02*
X-21770118Y8431454D01*
X-21770118Y8431454D02*
X-21846309Y8469550D01*
X-21846309Y8469550D02*
X-21884404Y8507645D01*
X22616732Y-23864811D02*
X22616732Y-24512430D01*
X22616732Y-24512430D02*
X22654827Y-24588620D01*
X22654827Y-24588620D02*
X22692922Y-24626716D01*
X22692922Y-24626716D02*
X22769113Y-24664811D01*
X22769113Y-24664811D02*
X22921494Y-24664811D01*
X22921494Y-24664811D02*
X22997684Y-24626716D01*
X22997684Y-24626716D02*
X23035779Y-24588620D01*
X23035779Y-24588620D02*
X23073875Y-24512430D01*
X23073875Y-24512430D02*
X23073875Y-23864811D01*
X23416731Y-23941001D02*
X23454827Y-23902906D01*
X23454827Y-23902906D02*
X23531017Y-23864811D01*
X23531017Y-23864811D02*
X23721493Y-23864811D01*
X23721493Y-23864811D02*
X23797684Y-23902906D01*
X23797684Y-23902906D02*
X23835779Y-23941001D01*
X23835779Y-23941001D02*
X23873874Y-24017192D01*
X23873874Y-24017192D02*
X23873874Y-24093382D01*
X23873874Y-24093382D02*
X23835779Y-24207668D01*
X23835779Y-24207668D02*
X23378636Y-24664811D01*
X23378636Y-24664811D02*
X23873874Y-24664811D01*
X15910476Y-30534795D02*
X15910476Y-31182414D01*
X15910476Y-31182414D02*
X15948571Y-31258604D01*
X15948571Y-31258604D02*
X15986666Y-31296700D01*
X15986666Y-31296700D02*
X16062857Y-31334795D01*
X16062857Y-31334795D02*
X16215238Y-31334795D01*
X16215238Y-31334795D02*
X16291428Y-31296700D01*
X16291428Y-31296700D02*
X16329523Y-31258604D01*
X16329523Y-31258604D02*
X16367619Y-31182414D01*
X16367619Y-31182414D02*
X16367619Y-30534795D01*
X17091428Y-30534795D02*
X16939047Y-30534795D01*
X16939047Y-30534795D02*
X16862856Y-30572890D01*
X16862856Y-30572890D02*
X16824761Y-30610985D01*
X16824761Y-30610985D02*
X16748571Y-30725271D01*
X16748571Y-30725271D02*
X16710475Y-30877652D01*
X16710475Y-30877652D02*
X16710475Y-31182414D01*
X16710475Y-31182414D02*
X16748571Y-31258604D01*
X16748571Y-31258604D02*
X16786666Y-31296700D01*
X16786666Y-31296700D02*
X16862856Y-31334795D01*
X16862856Y-31334795D02*
X17015237Y-31334795D01*
X17015237Y-31334795D02*
X17091428Y-31296700D01*
X17091428Y-31296700D02*
X17129523Y-31258604D01*
X17129523Y-31258604D02*
X17167618Y-31182414D01*
X17167618Y-31182414D02*
X17167618Y-30991938D01*
X17167618Y-30991938D02*
X17129523Y-30915747D01*
X17129523Y-30915747D02*
X17091428Y-30877652D01*
X17091428Y-30877652D02*
X17015237Y-30839557D01*
X17015237Y-30839557D02*
X16862856Y-30839557D01*
X16862856Y-30839557D02*
X16786666Y-30877652D01*
X16786666Y-30877652D02*
X16748571Y-30915747D01*
X16748571Y-30915747D02*
X16710475Y-30991938D01*
X25487460Y29663716D02*
X25220793Y30044669D01*
X25030317Y29663716D02*
X25030317Y30463716D01*
X25030317Y30463716D02*
X25335079Y30463716D01*
X25335079Y30463716D02*
X25411269Y30425621D01*
X25411269Y30425621D02*
X25449364Y30387526D01*
X25449364Y30387526D02*
X25487460Y30311335D01*
X25487460Y30311335D02*
X25487460Y30197050D01*
X25487460Y30197050D02*
X25449364Y30120859D01*
X25449364Y30120859D02*
X25411269Y30082764D01*
X25411269Y30082764D02*
X25335079Y30044669D01*
X25335079Y30044669D02*
X25030317Y30044669D01*
X25792221Y29701812D02*
X25868412Y29663716D01*
X25868412Y29663716D02*
X26020793Y29663716D01*
X26020793Y29663716D02*
X26096983Y29701812D01*
X26096983Y29701812D02*
X26135079Y29778002D01*
X26135079Y29778002D02*
X26135079Y29816097D01*
X26135079Y29816097D02*
X26096983Y29892288D01*
X26096983Y29892288D02*
X26020793Y29930383D01*
X26020793Y29930383D02*
X25906507Y29930383D01*
X25906507Y29930383D02*
X25830317Y29968478D01*
X25830317Y29968478D02*
X25792221Y30044669D01*
X25792221Y30044669D02*
X25792221Y30082764D01*
X25792221Y30082764D02*
X25830317Y30158954D01*
X25830317Y30158954D02*
X25906507Y30197050D01*
X25906507Y30197050D02*
X26020793Y30197050D01*
X26020793Y30197050D02*
X26096983Y30158954D01*
X26363650Y30197050D02*
X26668412Y30197050D01*
X26477936Y30463716D02*
X26477936Y29778002D01*
X26477936Y29778002D02*
X26516031Y29701812D01*
X26516031Y29701812D02*
X26592221Y29663716D01*
X26592221Y29663716D02*
X26668412Y29663716D01*
X27277936Y29663716D02*
X27277936Y30082764D01*
X27277936Y30082764D02*
X27239841Y30158954D01*
X27239841Y30158954D02*
X27163650Y30197050D01*
X27163650Y30197050D02*
X27011269Y30197050D01*
X27011269Y30197050D02*
X26935079Y30158954D01*
X27277936Y29701812D02*
X27201745Y29663716D01*
X27201745Y29663716D02*
X27011269Y29663716D01*
X27011269Y29663716D02*
X26935079Y29701812D01*
X26935079Y29701812D02*
X26896983Y29778002D01*
X26896983Y29778002D02*
X26896983Y29854192D01*
X26896983Y29854192D02*
X26935079Y29930383D01*
X26935079Y29930383D02*
X27011269Y29968478D01*
X27011269Y29968478D02*
X27201745Y29968478D01*
X27201745Y29968478D02*
X27277936Y30006573D01*
X27544603Y30197050D02*
X27849365Y30197050D01*
X27658889Y30463716D02*
X27658889Y29778002D01*
X27658889Y29778002D02*
X27696984Y29701812D01*
X27696984Y29701812D02*
X27773174Y29663716D01*
X27773174Y29663716D02*
X27849365Y29663716D01*
X28829880Y-13983544D02*
X28829880Y-13183544D01*
X28829880Y-13183544D02*
X29096546Y-13754972D01*
X29096546Y-13754972D02*
X29363213Y-13183544D01*
X29363213Y-13183544D02*
X29363213Y-13983544D01*
X29744166Y-13983544D02*
X29744166Y-13183544D01*
X30201309Y-13983544D02*
X29858451Y-13526401D01*
X30201309Y-13183544D02*
X29744166Y-13640687D01*
X30963213Y-13983544D02*
X30506070Y-13983544D01*
X30734642Y-13983544D02*
X30734642Y-13183544D01*
X30734642Y-13183544D02*
X30658451Y-13297829D01*
X30658451Y-13297829D02*
X30582261Y-13374020D01*
X30582261Y-13374020D02*
X30506070Y-13412115D01*
X-8332379Y22137704D02*
X-8599046Y22518657D01*
X-8789522Y22137704D02*
X-8789522Y22937704D01*
X-8789522Y22937704D02*
X-8484760Y22937704D01*
X-8484760Y22937704D02*
X-8408570Y22899609D01*
X-8408570Y22899609D02*
X-8370475Y22861514D01*
X-8370475Y22861514D02*
X-8332379Y22785323D01*
X-8332379Y22785323D02*
X-8332379Y22671038D01*
X-8332379Y22671038D02*
X-8370475Y22594847D01*
X-8370475Y22594847D02*
X-8408570Y22556752D01*
X-8408570Y22556752D02*
X-8484760Y22518657D01*
X-8484760Y22518657D02*
X-8789522Y22518657D01*
X-8027618Y22175800D02*
X-7951427Y22137704D01*
X-7951427Y22137704D02*
X-7799046Y22137704D01*
X-7799046Y22137704D02*
X-7722856Y22175800D01*
X-7722856Y22175800D02*
X-7684760Y22251990D01*
X-7684760Y22251990D02*
X-7684760Y22290085D01*
X-7684760Y22290085D02*
X-7722856Y22366276D01*
X-7722856Y22366276D02*
X-7799046Y22404371D01*
X-7799046Y22404371D02*
X-7913332Y22404371D01*
X-7913332Y22404371D02*
X-7989522Y22442466D01*
X-7989522Y22442466D02*
X-8027618Y22518657D01*
X-8027618Y22518657D02*
X-8027618Y22556752D01*
X-8027618Y22556752D02*
X-7989522Y22632942D01*
X-7989522Y22632942D02*
X-7913332Y22671038D01*
X-7913332Y22671038D02*
X-7799046Y22671038D01*
X-7799046Y22671038D02*
X-7722856Y22632942D01*
X-6999046Y22137704D02*
X-6999046Y22937704D01*
X-6999046Y22175800D02*
X-7075237Y22137704D01*
X-7075237Y22137704D02*
X-7227618Y22137704D01*
X-7227618Y22137704D02*
X-7303808Y22175800D01*
X-7303808Y22175800D02*
X-7341903Y22213895D01*
X-7341903Y22213895D02*
X-7379999Y22290085D01*
X-7379999Y22290085D02*
X-7379999Y22518657D01*
X-7379999Y22518657D02*
X-7341903Y22594847D01*
X-7341903Y22594847D02*
X-7303808Y22632942D01*
X-7303808Y22632942D02*
X-7227618Y22671038D01*
X-7227618Y22671038D02*
X-7075237Y22671038D01*
X-7075237Y22671038D02*
X-6999046Y22632942D01*
X-6199046Y22137704D02*
X-6656189Y22137704D01*
X-6427617Y22137704D02*
X-6427617Y22937704D01*
X-6427617Y22937704D02*
X-6503808Y22823419D01*
X-6503808Y22823419D02*
X-6579998Y22747228D01*
X-6579998Y22747228D02*
X-6656189Y22709133D01*
X-20633332Y36887645D02*
X-20671428Y36849550D01*
X-20671428Y36849550D02*
X-20785713Y36811454D01*
X-20785713Y36811454D02*
X-20861904Y36811454D01*
X-20861904Y36811454D02*
X-20976190Y36849550D01*
X-20976190Y36849550D02*
X-21052380Y36925740D01*
X-21052380Y36925740D02*
X-21090475Y37001930D01*
X-21090475Y37001930D02*
X-21128571Y37154311D01*
X-21128571Y37154311D02*
X-21128571Y37268597D01*
X-21128571Y37268597D02*
X-21090475Y37420978D01*
X-21090475Y37420978D02*
X-21052380Y37497169D01*
X-21052380Y37497169D02*
X-20976190Y37573359D01*
X-20976190Y37573359D02*
X-20861904Y37611454D01*
X-20861904Y37611454D02*
X-20785713Y37611454D01*
X-20785713Y37611454D02*
X-20671428Y37573359D01*
X-20671428Y37573359D02*
X-20633332Y37535264D01*
X-20176190Y37268597D02*
X-20252380Y37306692D01*
X-20252380Y37306692D02*
X-20290475Y37344788D01*
X-20290475Y37344788D02*
X-20328571Y37420978D01*
X-20328571Y37420978D02*
X-20328571Y37459073D01*
X-20328571Y37459073D02*
X-20290475Y37535264D01*
X-20290475Y37535264D02*
X-20252380Y37573359D01*
X-20252380Y37573359D02*
X-20176190Y37611454D01*
X-20176190Y37611454D02*
X-20023809Y37611454D01*
X-20023809Y37611454D02*
X-19947618Y37573359D01*
X-19947618Y37573359D02*
X-19909523Y37535264D01*
X-19909523Y37535264D02*
X-19871428Y37459073D01*
X-19871428Y37459073D02*
X-19871428Y37420978D01*
X-19871428Y37420978D02*
X-19909523Y37344788D01*
X-19909523Y37344788D02*
X-19947618Y37306692D01*
X-19947618Y37306692D02*
X-20023809Y37268597D01*
X-20023809Y37268597D02*
X-20176190Y37268597D01*
X-20176190Y37268597D02*
X-20252380Y37230502D01*
X-20252380Y37230502D02*
X-20290475Y37192407D01*
X-20290475Y37192407D02*
X-20328571Y37116216D01*
X-20328571Y37116216D02*
X-20328571Y36963835D01*
X-20328571Y36963835D02*
X-20290475Y36887645D01*
X-20290475Y36887645D02*
X-20252380Y36849550D01*
X-20252380Y36849550D02*
X-20176190Y36811454D01*
X-20176190Y36811454D02*
X-20023809Y36811454D01*
X-20023809Y36811454D02*
X-19947618Y36849550D01*
X-19947618Y36849550D02*
X-19909523Y36887645D01*
X-19909523Y36887645D02*
X-19871428Y36963835D01*
X-19871428Y36963835D02*
X-19871428Y37116216D01*
X-19871428Y37116216D02*
X-19909523Y37192407D01*
X-19909523Y37192407D02*
X-19947618Y37230502D01*
X-19947618Y37230502D02*
X-20023809Y37268597D01*
X15619048Y-21531342D02*
X15619048Y-21912295D01*
X15352381Y-21112295D02*
X15619048Y-21531342D01*
X15619048Y-21531342D02*
X15885714Y-21112295D01*
X16571428Y-21912295D02*
X16114285Y-21912295D01*
X16342857Y-21912295D02*
X16342857Y-21112295D01*
X16342857Y-21112295D02*
X16266666Y-21226580D01*
X16266666Y-21226580D02*
X16190476Y-21302771D01*
X16190476Y-21302771D02*
X16114285Y-21340866D01*
X28780476Y-30474795D02*
X28780476Y-31122414D01*
X28780476Y-31122414D02*
X28818571Y-31198604D01*
X28818571Y-31198604D02*
X28856666Y-31236700D01*
X28856666Y-31236700D02*
X28932857Y-31274795D01*
X28932857Y-31274795D02*
X29085238Y-31274795D01*
X29085238Y-31274795D02*
X29161428Y-31236700D01*
X29161428Y-31236700D02*
X29199523Y-31198604D01*
X29199523Y-31198604D02*
X29237619Y-31122414D01*
X29237619Y-31122414D02*
X29237619Y-30474795D01*
X29732856Y-30817652D02*
X29656666Y-30779557D01*
X29656666Y-30779557D02*
X29618571Y-30741461D01*
X29618571Y-30741461D02*
X29580475Y-30665271D01*
X29580475Y-30665271D02*
X29580475Y-30627176D01*
X29580475Y-30627176D02*
X29618571Y-30550985D01*
X29618571Y-30550985D02*
X29656666Y-30512890D01*
X29656666Y-30512890D02*
X29732856Y-30474795D01*
X29732856Y-30474795D02*
X29885237Y-30474795D01*
X29885237Y-30474795D02*
X29961428Y-30512890D01*
X29961428Y-30512890D02*
X29999523Y-30550985D01*
X29999523Y-30550985D02*
X30037618Y-30627176D01*
X30037618Y-30627176D02*
X30037618Y-30665271D01*
X30037618Y-30665271D02*
X29999523Y-30741461D01*
X29999523Y-30741461D02*
X29961428Y-30779557D01*
X29961428Y-30779557D02*
X29885237Y-30817652D01*
X29885237Y-30817652D02*
X29732856Y-30817652D01*
X29732856Y-30817652D02*
X29656666Y-30855747D01*
X29656666Y-30855747D02*
X29618571Y-30893842D01*
X29618571Y-30893842D02*
X29580475Y-30970033D01*
X29580475Y-30970033D02*
X29580475Y-31122414D01*
X29580475Y-31122414D02*
X29618571Y-31198604D01*
X29618571Y-31198604D02*
X29656666Y-31236700D01*
X29656666Y-31236700D02*
X29732856Y-31274795D01*
X29732856Y-31274795D02*
X29885237Y-31274795D01*
X29885237Y-31274795D02*
X29961428Y-31236700D01*
X29961428Y-31236700D02*
X29999523Y-31198604D01*
X29999523Y-31198604D02*
X30037618Y-31122414D01*
X30037618Y-31122414D02*
X30037618Y-30970033D01*
X30037618Y-30970033D02*
X29999523Y-30893842D01*
X29999523Y-30893842D02*
X29961428Y-30855747D01*
X29961428Y-30855747D02*
X29885237Y-30817652D01*
X1233333Y32817704D02*
X1233333Y32246276D01*
X1233333Y32246276D02*
X1195238Y32131990D01*
X1195238Y32131990D02*
X1119047Y32055800D01*
X1119047Y32055800D02*
X1004762Y32017704D01*
X1004762Y32017704D02*
X928571Y32017704D01*
X2033333Y32017704D02*
X1576190Y32017704D01*
X1804762Y32017704D02*
X1804762Y32817704D01*
X1804762Y32817704D02*
X1728571Y32703419D01*
X1728571Y32703419D02*
X1652381Y32627228D01*
X1652381Y32627228D02*
X1576190Y32589133D01*
X26417619Y17713895D02*
X26379523Y17675800D01*
X26379523Y17675800D02*
X26265238Y17637704D01*
X26265238Y17637704D02*
X26189047Y17637704D01*
X26189047Y17637704D02*
X26074761Y17675800D01*
X26074761Y17675800D02*
X25998571Y17751990D01*
X25998571Y17751990D02*
X25960476Y17828180D01*
X25960476Y17828180D02*
X25922380Y17980561D01*
X25922380Y17980561D02*
X25922380Y18094847D01*
X25922380Y18094847D02*
X25960476Y18247228D01*
X25960476Y18247228D02*
X25998571Y18323419D01*
X25998571Y18323419D02*
X26074761Y18399609D01*
X26074761Y18399609D02*
X26189047Y18437704D01*
X26189047Y18437704D02*
X26265238Y18437704D01*
X26265238Y18437704D02*
X26379523Y18399609D01*
X26379523Y18399609D02*
X26417619Y18361514D01*
X26722380Y18361514D02*
X26760476Y18399609D01*
X26760476Y18399609D02*
X26836666Y18437704D01*
X26836666Y18437704D02*
X27027142Y18437704D01*
X27027142Y18437704D02*
X27103333Y18399609D01*
X27103333Y18399609D02*
X27141428Y18361514D01*
X27141428Y18361514D02*
X27179523Y18285323D01*
X27179523Y18285323D02*
X27179523Y18209133D01*
X27179523Y18209133D02*
X27141428Y18094847D01*
X27141428Y18094847D02*
X26684285Y17637704D01*
X26684285Y17637704D02*
X27179523Y17637704D01*
X-11514285Y13143895D02*
X-11552381Y13105800D01*
X-11552381Y13105800D02*
X-11666666Y13067704D01*
X-11666666Y13067704D02*
X-11742857Y13067704D01*
X-11742857Y13067704D02*
X-11857143Y13105800D01*
X-11857143Y13105800D02*
X-11933333Y13181990D01*
X-11933333Y13181990D02*
X-11971428Y13258180D01*
X-11971428Y13258180D02*
X-12009524Y13410561D01*
X-12009524Y13410561D02*
X-12009524Y13524847D01*
X-12009524Y13524847D02*
X-11971428Y13677228D01*
X-11971428Y13677228D02*
X-11933333Y13753419D01*
X-11933333Y13753419D02*
X-11857143Y13829609D01*
X-11857143Y13829609D02*
X-11742857Y13867704D01*
X-11742857Y13867704D02*
X-11666666Y13867704D01*
X-11666666Y13867704D02*
X-11552381Y13829609D01*
X-11552381Y13829609D02*
X-11514285Y13791514D01*
X-10752381Y13067704D02*
X-11209524Y13067704D01*
X-10980952Y13067704D02*
X-10980952Y13867704D01*
X-10980952Y13867704D02*
X-11057143Y13753419D01*
X-11057143Y13753419D02*
X-11133333Y13677228D01*
X-11133333Y13677228D02*
X-11209524Y13639133D01*
X-10066666Y13601038D02*
X-10066666Y13067704D01*
X-10257142Y13905800D02*
X-10447619Y13334371D01*
X-10447619Y13334371D02*
X-9952380Y13334371D01*
X25384238Y31296852D02*
X25384238Y32096852D01*
X25384238Y32096852D02*
X25574714Y32096852D01*
X25574714Y32096852D02*
X25689000Y32058757D01*
X25689000Y32058757D02*
X25765190Y31982567D01*
X25765190Y31982567D02*
X25803285Y31906376D01*
X25803285Y31906376D02*
X25841381Y31753995D01*
X25841381Y31753995D02*
X25841381Y31639709D01*
X25841381Y31639709D02*
X25803285Y31487328D01*
X25803285Y31487328D02*
X25765190Y31411138D01*
X25765190Y31411138D02*
X25689000Y31334948D01*
X25689000Y31334948D02*
X25574714Y31296852D01*
X25574714Y31296852D02*
X25384238Y31296852D01*
X26146142Y32020662D02*
X26184238Y32058757D01*
X26184238Y32058757D02*
X26260428Y32096852D01*
X26260428Y32096852D02*
X26450904Y32096852D01*
X26450904Y32096852D02*
X26527095Y32058757D01*
X26527095Y32058757D02*
X26565190Y32020662D01*
X26565190Y32020662D02*
X26603285Y31944471D01*
X26603285Y31944471D02*
X26603285Y31868281D01*
X26603285Y31868281D02*
X26565190Y31753995D01*
X26565190Y31753995D02*
X26108047Y31296852D01*
X26108047Y31296852D02*
X26603285Y31296852D01*
X29049285Y30813637D02*
X28782618Y31194590D01*
X28592142Y30813637D02*
X28592142Y31613637D01*
X28592142Y31613637D02*
X28896904Y31613637D01*
X28896904Y31613637D02*
X28973094Y31575542D01*
X28973094Y31575542D02*
X29011189Y31537447D01*
X29011189Y31537447D02*
X29049285Y31461256D01*
X29049285Y31461256D02*
X29049285Y31346971D01*
X29049285Y31346971D02*
X29011189Y31270780D01*
X29011189Y31270780D02*
X28973094Y31232685D01*
X28973094Y31232685D02*
X28896904Y31194590D01*
X28896904Y31194590D02*
X28592142Y31194590D01*
X29734999Y30851733D02*
X29658808Y30813637D01*
X29658808Y30813637D02*
X29506427Y30813637D01*
X29506427Y30813637D02*
X29430237Y30851733D01*
X29430237Y30851733D02*
X29392142Y30889828D01*
X29392142Y30889828D02*
X29354046Y30966018D01*
X29354046Y30966018D02*
X29354046Y31194590D01*
X29354046Y31194590D02*
X29392142Y31270780D01*
X29392142Y31270780D02*
X29430237Y31308875D01*
X29430237Y31308875D02*
X29506427Y31346971D01*
X29506427Y31346971D02*
X29658808Y31346971D01*
X29658808Y31346971D02*
X29734999Y31308875D01*
X30077856Y30813637D02*
X30077856Y31613637D01*
X30420713Y30813637D02*
X30420713Y31232685D01*
X30420713Y31232685D02*
X30382618Y31308875D01*
X30382618Y31308875D02*
X30306427Y31346971D01*
X30306427Y31346971D02*
X30192141Y31346971D01*
X30192141Y31346971D02*
X30115951Y31308875D01*
X30115951Y31308875D02*
X30077856Y31270780D01*
X31144523Y31346971D02*
X31144523Y30699352D01*
X31144523Y30699352D02*
X31106428Y30623161D01*
X31106428Y30623161D02*
X31068332Y30585066D01*
X31068332Y30585066D02*
X30992142Y30546971D01*
X30992142Y30546971D02*
X30877856Y30546971D01*
X30877856Y30546971D02*
X30801666Y30585066D01*
X31144523Y30851733D02*
X31068332Y30813637D01*
X31068332Y30813637D02*
X30915951Y30813637D01*
X30915951Y30813637D02*
X30839761Y30851733D01*
X30839761Y30851733D02*
X30801666Y30889828D01*
X30801666Y30889828D02*
X30763570Y30966018D01*
X30763570Y30966018D02*
X30763570Y31194590D01*
X30763570Y31194590D02*
X30801666Y31270780D01*
X30801666Y31270780D02*
X30839761Y31308875D01*
X30839761Y31308875D02*
X30915951Y31346971D01*
X30915951Y31346971D02*
X31068332Y31346971D01*
X31068332Y31346971D02*
X31144523Y31308875D01*
X4442380Y-32324200D02*
X4556666Y-32362295D01*
X4556666Y-32362295D02*
X4747142Y-32362295D01*
X4747142Y-32362295D02*
X4823333Y-32324200D01*
X4823333Y-32324200D02*
X4861428Y-32286104D01*
X4861428Y-32286104D02*
X4899523Y-32209914D01*
X4899523Y-32209914D02*
X4899523Y-32133723D01*
X4899523Y-32133723D02*
X4861428Y-32057533D01*
X4861428Y-32057533D02*
X4823333Y-32019438D01*
X4823333Y-32019438D02*
X4747142Y-31981342D01*
X4747142Y-31981342D02*
X4594761Y-31943247D01*
X4594761Y-31943247D02*
X4518571Y-31905152D01*
X4518571Y-31905152D02*
X4480476Y-31867057D01*
X4480476Y-31867057D02*
X4442380Y-31790866D01*
X4442380Y-31790866D02*
X4442380Y-31714676D01*
X4442380Y-31714676D02*
X4480476Y-31638485D01*
X4480476Y-31638485D02*
X4518571Y-31600390D01*
X4518571Y-31600390D02*
X4594761Y-31562295D01*
X4594761Y-31562295D02*
X4785238Y-31562295D01*
X4785238Y-31562295D02*
X4899523Y-31600390D01*
X5242381Y-32362295D02*
X5242381Y-31562295D01*
X5242381Y-31562295D02*
X5547143Y-31562295D01*
X5547143Y-31562295D02*
X5623333Y-31600390D01*
X5623333Y-31600390D02*
X5661428Y-31638485D01*
X5661428Y-31638485D02*
X5699524Y-31714676D01*
X5699524Y-31714676D02*
X5699524Y-31828961D01*
X5699524Y-31828961D02*
X5661428Y-31905152D01*
X5661428Y-31905152D02*
X5623333Y-31943247D01*
X5623333Y-31943247D02*
X5547143Y-31981342D01*
X5547143Y-31981342D02*
X5242381Y-31981342D01*
X6461428Y-32362295D02*
X6004285Y-32362295D01*
X6232857Y-32362295D02*
X6232857Y-31562295D01*
X6232857Y-31562295D02*
X6156666Y-31676580D01*
X6156666Y-31676580D02*
X6080476Y-31752771D01*
X6080476Y-31752771D02*
X6004285Y-31790866D01*
X19985714Y-18856104D02*
X19947618Y-18894200D01*
X19947618Y-18894200D02*
X19833333Y-18932295D01*
X19833333Y-18932295D02*
X19757142Y-18932295D01*
X19757142Y-18932295D02*
X19642856Y-18894200D01*
X19642856Y-18894200D02*
X19566666Y-18818009D01*
X19566666Y-18818009D02*
X19528571Y-18741819D01*
X19528571Y-18741819D02*
X19490475Y-18589438D01*
X19490475Y-18589438D02*
X19490475Y-18475152D01*
X19490475Y-18475152D02*
X19528571Y-18322771D01*
X19528571Y-18322771D02*
X19566666Y-18246580D01*
X19566666Y-18246580D02*
X19642856Y-18170390D01*
X19642856Y-18170390D02*
X19757142Y-18132295D01*
X19757142Y-18132295D02*
X19833333Y-18132295D01*
X19833333Y-18132295D02*
X19947618Y-18170390D01*
X19947618Y-18170390D02*
X19985714Y-18208485D01*
X20747618Y-18932295D02*
X20290475Y-18932295D01*
X20519047Y-18932295D02*
X20519047Y-18132295D01*
X20519047Y-18132295D02*
X20442856Y-18246580D01*
X20442856Y-18246580D02*
X20366666Y-18322771D01*
X20366666Y-18322771D02*
X20290475Y-18360866D01*
X21242857Y-18132295D02*
X21319047Y-18132295D01*
X21319047Y-18132295D02*
X21395238Y-18170390D01*
X21395238Y-18170390D02*
X21433333Y-18208485D01*
X21433333Y-18208485D02*
X21471428Y-18284676D01*
X21471428Y-18284676D02*
X21509523Y-18437057D01*
X21509523Y-18437057D02*
X21509523Y-18627533D01*
X21509523Y-18627533D02*
X21471428Y-18779914D01*
X21471428Y-18779914D02*
X21433333Y-18856104D01*
X21433333Y-18856104D02*
X21395238Y-18894200D01*
X21395238Y-18894200D02*
X21319047Y-18932295D01*
X21319047Y-18932295D02*
X21242857Y-18932295D01*
X21242857Y-18932295D02*
X21166666Y-18894200D01*
X21166666Y-18894200D02*
X21128571Y-18856104D01*
X21128571Y-18856104D02*
X21090476Y-18779914D01*
X21090476Y-18779914D02*
X21052380Y-18627533D01*
X21052380Y-18627533D02*
X21052380Y-18437057D01*
X21052380Y-18437057D02*
X21090476Y-18284676D01*
X21090476Y-18284676D02*
X21128571Y-18208485D01*
X21128571Y-18208485D02*
X21166666Y-18170390D01*
X21166666Y-18170390D02*
X21242857Y-18132295D01*
X20866667Y-29856104D02*
X20828571Y-29894200D01*
X20828571Y-29894200D02*
X20714286Y-29932295D01*
X20714286Y-29932295D02*
X20638095Y-29932295D01*
X20638095Y-29932295D02*
X20523809Y-29894200D01*
X20523809Y-29894200D02*
X20447619Y-29818009D01*
X20447619Y-29818009D02*
X20409524Y-29741819D01*
X20409524Y-29741819D02*
X20371428Y-29589438D01*
X20371428Y-29589438D02*
X20371428Y-29475152D01*
X20371428Y-29475152D02*
X20409524Y-29322771D01*
X20409524Y-29322771D02*
X20447619Y-29246580D01*
X20447619Y-29246580D02*
X20523809Y-29170390D01*
X20523809Y-29170390D02*
X20638095Y-29132295D01*
X20638095Y-29132295D02*
X20714286Y-29132295D01*
X20714286Y-29132295D02*
X20828571Y-29170390D01*
X20828571Y-29170390D02*
X20866667Y-29208485D01*
X21247619Y-29932295D02*
X21400000Y-29932295D01*
X21400000Y-29932295D02*
X21476190Y-29894200D01*
X21476190Y-29894200D02*
X21514286Y-29856104D01*
X21514286Y-29856104D02*
X21590476Y-29741819D01*
X21590476Y-29741819D02*
X21628571Y-29589438D01*
X21628571Y-29589438D02*
X21628571Y-29284676D01*
X21628571Y-29284676D02*
X21590476Y-29208485D01*
X21590476Y-29208485D02*
X21552381Y-29170390D01*
X21552381Y-29170390D02*
X21476190Y-29132295D01*
X21476190Y-29132295D02*
X21323809Y-29132295D01*
X21323809Y-29132295D02*
X21247619Y-29170390D01*
X21247619Y-29170390D02*
X21209524Y-29208485D01*
X21209524Y-29208485D02*
X21171428Y-29284676D01*
X21171428Y-29284676D02*
X21171428Y-29475152D01*
X21171428Y-29475152D02*
X21209524Y-29551342D01*
X21209524Y-29551342D02*
X21247619Y-29589438D01*
X21247619Y-29589438D02*
X21323809Y-29627533D01*
X21323809Y-29627533D02*
X21476190Y-29627533D01*
X21476190Y-29627533D02*
X21552381Y-29589438D01*
X21552381Y-29589438D02*
X21590476Y-29551342D01*
X21590476Y-29551342D02*
X21628571Y-29475152D01*
X-2633332Y37107645D02*
X-2671428Y37069550D01*
X-2671428Y37069550D02*
X-2785713Y37031454D01*
X-2785713Y37031454D02*
X-2861904Y37031454D01*
X-2861904Y37031454D02*
X-2976190Y37069550D01*
X-2976190Y37069550D02*
X-3052380Y37145740D01*
X-3052380Y37145740D02*
X-3090475Y37221930D01*
X-3090475Y37221930D02*
X-3128571Y37374311D01*
X-3128571Y37374311D02*
X-3128571Y37488597D01*
X-3128571Y37488597D02*
X-3090475Y37640978D01*
X-3090475Y37640978D02*
X-3052380Y37717169D01*
X-3052380Y37717169D02*
X-2976190Y37793359D01*
X-2976190Y37793359D02*
X-2861904Y37831454D01*
X-2861904Y37831454D02*
X-2785713Y37831454D01*
X-2785713Y37831454D02*
X-2671428Y37793359D01*
X-2671428Y37793359D02*
X-2633332Y37755264D01*
X-2366666Y37831454D02*
X-1833332Y37831454D01*
X-1833332Y37831454D02*
X-2176190Y37031454D01*
X-12684284Y39713895D02*
X-12722380Y39675800D01*
X-12722380Y39675800D02*
X-12836665Y39637704D01*
X-12836665Y39637704D02*
X-12912856Y39637704D01*
X-12912856Y39637704D02*
X-13027142Y39675800D01*
X-13027142Y39675800D02*
X-13103332Y39751990D01*
X-13103332Y39751990D02*
X-13141427Y39828180D01*
X-13141427Y39828180D02*
X-13179523Y39980561D01*
X-13179523Y39980561D02*
X-13179523Y40094847D01*
X-13179523Y40094847D02*
X-13141427Y40247228D01*
X-13141427Y40247228D02*
X-13103332Y40323419D01*
X-13103332Y40323419D02*
X-13027142Y40399609D01*
X-13027142Y40399609D02*
X-12912856Y40437704D01*
X-12912856Y40437704D02*
X-12836665Y40437704D01*
X-12836665Y40437704D02*
X-12722380Y40399609D01*
X-12722380Y40399609D02*
X-12684284Y40361514D01*
X-11960475Y40437704D02*
X-12341427Y40437704D01*
X-12341427Y40437704D02*
X-12379523Y40056752D01*
X-12379523Y40056752D02*
X-12341427Y40094847D01*
X-12341427Y40094847D02*
X-12265237Y40132942D01*
X-12265237Y40132942D02*
X-12074761Y40132942D01*
X-12074761Y40132942D02*
X-11998570Y40094847D01*
X-11998570Y40094847D02*
X-11960475Y40056752D01*
X-11960475Y40056752D02*
X-11922380Y39980561D01*
X-11922380Y39980561D02*
X-11922380Y39790085D01*
X-11922380Y39790085D02*
X-11960475Y39713895D01*
X-11960475Y39713895D02*
X-11998570Y39675800D01*
X-11998570Y39675800D02*
X-12074761Y39637704D01*
X-12074761Y39637704D02*
X-12265237Y39637704D01*
X-12265237Y39637704D02*
X-12341427Y39675800D01*
X-12341427Y39675800D02*
X-12379523Y39713895D01*
X28644761Y-28759689D02*
X28606665Y-28797785D01*
X28606665Y-28797785D02*
X28492380Y-28835880D01*
X28492380Y-28835880D02*
X28416189Y-28835880D01*
X28416189Y-28835880D02*
X28301903Y-28797785D01*
X28301903Y-28797785D02*
X28225713Y-28721594D01*
X28225713Y-28721594D02*
X28187618Y-28645404D01*
X28187618Y-28645404D02*
X28149522Y-28493023D01*
X28149522Y-28493023D02*
X28149522Y-28378737D01*
X28149522Y-28378737D02*
X28187618Y-28226356D01*
X28187618Y-28226356D02*
X28225713Y-28150165D01*
X28225713Y-28150165D02*
X28301903Y-28073975D01*
X28301903Y-28073975D02*
X28416189Y-28035880D01*
X28416189Y-28035880D02*
X28492380Y-28035880D01*
X28492380Y-28035880D02*
X28606665Y-28073975D01*
X28606665Y-28073975D02*
X28644761Y-28112070D01*
X29406665Y-28835880D02*
X28949522Y-28835880D01*
X29178094Y-28835880D02*
X29178094Y-28035880D01*
X29178094Y-28035880D02*
X29101903Y-28150165D01*
X29101903Y-28150165D02*
X29025713Y-28226356D01*
X29025713Y-28226356D02*
X28949522Y-28264451D01*
X29673332Y-28035880D02*
X30206666Y-28035880D01*
X30206666Y-28035880D02*
X29863808Y-28835880D01*
X-16514285Y-24606104D02*
X-16552381Y-24644200D01*
X-16552381Y-24644200D02*
X-16666666Y-24682295D01*
X-16666666Y-24682295D02*
X-16742857Y-24682295D01*
X-16742857Y-24682295D02*
X-16857143Y-24644200D01*
X-16857143Y-24644200D02*
X-16933333Y-24568009D01*
X-16933333Y-24568009D02*
X-16971428Y-24491819D01*
X-16971428Y-24491819D02*
X-17009524Y-24339438D01*
X-17009524Y-24339438D02*
X-17009524Y-24225152D01*
X-17009524Y-24225152D02*
X-16971428Y-24072771D01*
X-16971428Y-24072771D02*
X-16933333Y-23996580D01*
X-16933333Y-23996580D02*
X-16857143Y-23920390D01*
X-16857143Y-23920390D02*
X-16742857Y-23882295D01*
X-16742857Y-23882295D02*
X-16666666Y-23882295D01*
X-16666666Y-23882295D02*
X-16552381Y-23920390D01*
X-16552381Y-23920390D02*
X-16514285Y-23958485D01*
X-16209524Y-23958485D02*
X-16171428Y-23920390D01*
X-16171428Y-23920390D02*
X-16095238Y-23882295D01*
X-16095238Y-23882295D02*
X-15904762Y-23882295D01*
X-15904762Y-23882295D02*
X-15828571Y-23920390D01*
X-15828571Y-23920390D02*
X-15790476Y-23958485D01*
X-15790476Y-23958485D02*
X-15752381Y-24034676D01*
X-15752381Y-24034676D02*
X-15752381Y-24110866D01*
X-15752381Y-24110866D02*
X-15790476Y-24225152D01*
X-15790476Y-24225152D02*
X-16247619Y-24682295D01*
X-16247619Y-24682295D02*
X-15752381Y-24682295D01*
X-15257142Y-23882295D02*
X-15180952Y-23882295D01*
X-15180952Y-23882295D02*
X-15104761Y-23920390D01*
X-15104761Y-23920390D02*
X-15066666Y-23958485D01*
X-15066666Y-23958485D02*
X-15028571Y-24034676D01*
X-15028571Y-24034676D02*
X-14990476Y-24187057D01*
X-14990476Y-24187057D02*
X-14990476Y-24377533D01*
X-14990476Y-24377533D02*
X-15028571Y-24529914D01*
X-15028571Y-24529914D02*
X-15066666Y-24606104D01*
X-15066666Y-24606104D02*
X-15104761Y-24644200D01*
X-15104761Y-24644200D02*
X-15180952Y-24682295D01*
X-15180952Y-24682295D02*
X-15257142Y-24682295D01*
X-15257142Y-24682295D02*
X-15333333Y-24644200D01*
X-15333333Y-24644200D02*
X-15371428Y-24606104D01*
X-15371428Y-24606104D02*
X-15409523Y-24529914D01*
X-15409523Y-24529914D02*
X-15447619Y-24377533D01*
X-15447619Y-24377533D02*
X-15447619Y-24187057D01*
X-15447619Y-24187057D02*
X-15409523Y-24034676D01*
X-15409523Y-24034676D02*
X-15371428Y-23958485D01*
X-15371428Y-23958485D02*
X-15333333Y-23920390D01*
X-15333333Y-23920390D02*
X-15257142Y-23882295D01*
%TO.C,SW1*%
D11*
X-29230000Y-8770000D02*
X-22770000Y-8770000D01*
X-29230000Y-8800000D02*
X-29230000Y-8770000D01*
X-29230000Y-10700000D02*
X-29230000Y-13300000D01*
X-29230000Y-15230000D02*
X-29230000Y-15200000D01*
X-29230000Y-15230000D02*
X-22770000Y-15230000D01*
X-22770000Y-8770000D02*
X-22770000Y-8800000D01*
X-22770000Y-10700000D02*
X-22770000Y-13300000D01*
X-22770000Y-15230000D02*
X-22770000Y-15200000D01*
%TO.C,C6*%
X-11010000Y35859420D02*
X-11010000Y36140580D01*
X-9990000Y35859420D02*
X-9990000Y36140580D01*
%TO.C,R4*%
X23762742Y36522500D02*
X24237258Y36522500D01*
X23762742Y35477500D02*
X24237258Y35477500D01*
%TO.C,R3*%
X14977500Y39762742D02*
X14977500Y40237258D01*
X16022500Y39762742D02*
X16022500Y40237258D01*
%TO.C,U1*%
X6200000Y25800000D02*
X21800000Y25800000D01*
X6200000Y10200000D02*
X6200000Y25800000D01*
X21800000Y25800000D02*
X21800000Y10200000D01*
X21800000Y10200000D02*
X6200000Y10200000D01*
X6025000Y23950000D02*
X5689000Y23710000D01*
X5689000Y24190000D01*
X6025000Y23950000D01*
G36*
X6025000Y23950000D02*
G01*
X5689000Y23710000D01*
X5689000Y24190000D01*
X6025000Y23950000D01*
G37*
%TO.C,U5*%
X-16910000Y41060000D02*
X-15090000Y41060000D01*
X-16910000Y41010000D02*
X-16910000Y41060000D01*
X-16910000Y37940000D02*
X-16910000Y37990000D01*
X-15090000Y41060000D02*
X-15090000Y41010000D01*
X-15090000Y39890000D02*
X-15090000Y39110000D01*
X-15090000Y37990000D02*
X-15090000Y37940000D01*
X-15090000Y37940000D02*
X-16910000Y37940000D01*
X-17450000Y41010000D02*
X-17690000Y41340000D01*
X-17210000Y41340000D01*
X-17450000Y41010000D01*
G36*
X-17450000Y41010000D02*
G01*
X-17690000Y41340000D01*
X-17210000Y41340000D01*
X-17450000Y41010000D01*
G37*
%TO.C,H1*%
D10*
X-26550000Y39500000D02*
G75*
G02*
X-30450000Y39500000I-1950000J0D01*
G01*
X-30450000Y39500000D02*
G75*
G02*
X-26550000Y39500000I1950000J0D01*
G01*
%TO.C,Rboot*%
D11*
X23977500Y10762742D02*
X23977500Y11237258D01*
X25022500Y10762742D02*
X25022500Y11237258D01*
%TO.C,Rsd2*%
X-11237258Y20522500D02*
X-10762742Y20522500D01*
X-11237258Y19477500D02*
X-10762742Y19477500D01*
%TO.C,Rsd3*%
X-11237258Y18022500D02*
X-10762742Y18022500D01*
X-11237258Y16977500D02*
X-10762742Y16977500D01*
%TO.C,Ragnd*%
X25762742Y-15977500D02*
X26237258Y-15977500D01*
X25762742Y-17022500D02*
X26237258Y-17022500D01*
%TO.C,C4*%
X19990000Y39859420D02*
X19990000Y40140580D01*
X21010000Y39859420D02*
X21010000Y40140580D01*
%TO.C,C1*%
X23765000Y24738748D02*
X23765000Y25261252D01*
X25235000Y24738748D02*
X25235000Y25261252D01*
%TO.C,F1*%
X16990000Y39837221D02*
X16990000Y40162779D01*
X18010000Y39837221D02*
X18010000Y40162779D01*
%TO.C,Rsd0*%
X-11237258Y25522500D02*
X-10762742Y25522500D01*
X-11237258Y24477500D02*
X-10762742Y24477500D01*
%TO.C,U7*%
X7090000Y32560000D02*
X8910000Y32560000D01*
X7090000Y32510000D02*
X7090000Y32560000D01*
X7090000Y29440000D02*
X7090000Y29490000D01*
X8910000Y32560000D02*
X8910000Y32510000D01*
X8910000Y29490000D02*
X8910000Y29440000D01*
X8910000Y29440000D02*
X7090000Y29440000D01*
X6550000Y32510000D02*
X6310000Y32840000D01*
X6790000Y32840000D01*
X6550000Y32510000D01*
G36*
X6550000Y32510000D02*
G01*
X6310000Y32840000D01*
X6790000Y32840000D01*
X6550000Y32510000D01*
G37*
%TO.C,C16*%
X20359420Y-25490000D02*
X20640580Y-25490000D01*
X20359420Y-26510000D02*
X20640580Y-26510000D01*
%TO.C,Rled*%
X-29522500Y-22237258D02*
X-29522500Y-21762742D01*
X-28477500Y-22237258D02*
X-28477500Y-21762742D01*
%TO.C,R7*%
X16262742Y-26977500D02*
X16737258Y-26977500D01*
X16262742Y-28022500D02*
X16737258Y-28022500D01*
%TO.C,R5*%
X21762742Y-33977500D02*
X22237258Y-33977500D01*
X21762742Y-35022500D02*
X22237258Y-35022500D01*
%TO.C,C11*%
X29990000Y-17140580D02*
X29990000Y-16859420D01*
X31010000Y-17140580D02*
X31010000Y-16859420D01*
%TO.C,U3*%
X23090000Y41060000D02*
X24910000Y41060000D01*
X23090000Y41010000D02*
X23090000Y41060000D01*
X23090000Y37940000D02*
X23090000Y37990000D01*
X24910000Y41060000D02*
X24910000Y41010000D01*
X24910000Y39890000D02*
X24910000Y39110000D01*
X24910000Y37990000D02*
X24910000Y37940000D01*
X24910000Y37940000D02*
X23090000Y37940000D01*
X22550000Y41010000D02*
X22310000Y41340000D01*
X22790000Y41340000D01*
X22550000Y41010000D01*
G36*
X22550000Y41010000D02*
G01*
X22310000Y41340000D01*
X22790000Y41340000D01*
X22550000Y41010000D01*
G37*
%TO.C,C19*%
X11859420Y-26990000D02*
X12140580Y-26990000D01*
X11859420Y-28010000D02*
X12140580Y-28010000D01*
%TO.C,R6*%
X26762742Y-33977500D02*
X27237258Y-33977500D01*
X26762742Y-35022500D02*
X27237258Y-35022500D01*
%TO.C,U4*%
X-6910000Y41060000D02*
X-5090000Y41060000D01*
X-6910000Y41010000D02*
X-6910000Y41060000D01*
X-6910000Y37940000D02*
X-6910000Y37990000D01*
X-5090000Y41060000D02*
X-5090000Y41010000D01*
X-5090000Y39890000D02*
X-5090000Y39110000D01*
X-5090000Y37990000D02*
X-5090000Y37940000D01*
X-5090000Y37940000D02*
X-6910000Y37940000D01*
X-7450000Y41010000D02*
X-7690000Y41340000D01*
X-7210000Y41340000D01*
X-7450000Y41010000D01*
G36*
X-7450000Y41010000D02*
G01*
X-7690000Y41340000D01*
X-7210000Y41340000D01*
X-7450000Y41010000D01*
G37*
%TO.C,R2*%
X-22500Y39762742D02*
X-22500Y40237258D01*
X1022500Y39762742D02*
X1022500Y40237258D01*
%TO.C,C3*%
X23990000Y21359420D02*
X23990000Y21640580D01*
X25010000Y21359420D02*
X25010000Y21640580D01*
%TO.C,D1*%
X-29735000Y-17200000D02*
X-29735000Y-19485000D01*
X-29735000Y-19485000D02*
X-28265000Y-19485000D01*
X-28265000Y-19485000D02*
X-28265000Y-17200000D01*
%TO.C,J2*%
X3300000Y39500000D02*
X3300000Y37500000D01*
X3300000Y35600000D02*
X3300000Y33700000D01*
X3300000Y33700000D02*
X12700000Y33700000D01*
X12700000Y39500000D02*
X12700000Y37500000D01*
X12700000Y35600000D02*
X12700000Y33700000D01*
%TO.C,C12*%
X29990000Y-20140580D02*
X29990000Y-19859420D01*
X31010000Y-20140580D02*
X31010000Y-19859420D01*
%TO.C,C13*%
X25859420Y-26990000D02*
X26140580Y-26990000D01*
X25859420Y-28010000D02*
X26140580Y-28010000D01*
%TO.C,C18*%
X29990000Y-22859420D02*
X29990000Y-23140580D01*
X31010000Y-22859420D02*
X31010000Y-23140580D01*
%TO.C,R1*%
X23977500Y14262742D02*
X23977500Y14737258D01*
X25022500Y14262742D02*
X25022500Y14737258D01*
%TO.C,Rsd4*%
X-11237258Y15522500D02*
X-10762742Y15522500D01*
X-11237258Y14477500D02*
X-10762742Y14477500D01*
%TO.C,C15*%
X25990000Y-10140580D02*
X25990000Y-9859420D01*
X27010000Y-10140580D02*
X27010000Y-9859420D01*
%TO.C,J3*%
X-29810000Y13000000D02*
X-29810000Y23000000D01*
X-29210000Y12500000D02*
X-29010000Y13300000D01*
X-29110000Y23000000D02*
X-29210000Y23500000D01*
X-29010000Y13300000D02*
X-28710000Y15000000D01*
X-28810000Y21700000D02*
X-29110000Y23000000D01*
X-28710000Y15000000D02*
X-28610000Y15800000D01*
X-28610000Y20200000D02*
X-28810000Y21700000D01*
X-28610000Y15800000D02*
X-28510000Y17100000D01*
X-28510000Y18900000D02*
X-28610000Y20200000D01*
X-28510000Y17100000D02*
X-28510000Y18900000D01*
X-28310000Y24910000D02*
X-27910000Y24910000D01*
X-28310000Y23500000D02*
X-29310000Y23500000D01*
X-28310000Y12500000D02*
X-29310000Y12500000D01*
X-28310000Y11090000D02*
X-28310000Y24910000D01*
X-28310000Y11090000D02*
X-27910000Y11090000D01*
X-25390000Y24910000D02*
X-19610000Y24910000D01*
X-25390000Y11090000D02*
X-19610000Y11090000D01*
X-17090000Y24910000D02*
X-14390000Y24910000D01*
X-17090000Y11090000D02*
X-14390000Y11090000D01*
X-14390000Y24910000D02*
X-14390000Y11090000D01*
X-29810000Y23000000D02*
G75*
G02*
X-29310000Y23500000I500000J0D01*
G01*
X-29310000Y12500000D02*
G75*
G02*
X-29810000Y13000000I1J500001D01*
G01*
%TO.C,U2*%
X24390000Y-20390000D02*
X24840000Y-20390000D01*
X24390000Y-20840000D02*
X24390000Y-20390000D01*
X24390000Y-23610000D02*
X24390000Y-23160000D01*
X24840000Y-23610000D02*
X24390000Y-23610000D01*
X27160000Y-20390000D02*
X27610000Y-20390000D01*
X27610000Y-20390000D02*
X27610000Y-20840000D01*
X27610000Y-23160000D02*
X27610000Y-23610000D01*
X27610000Y-23610000D02*
X27160000Y-23610000D01*
X23860000Y-21200000D02*
X23530000Y-21440000D01*
X23530000Y-20960000D01*
X23860000Y-21200000D01*
G36*
X23860000Y-21200000D02*
G01*
X23530000Y-21440000D01*
X23530000Y-20960000D01*
X23860000Y-21200000D01*
G37*
%TO.C,U6*%
X10390000Y-29390000D02*
X13610000Y-29390000D01*
X10390000Y-29565000D02*
X10390000Y-29390000D01*
X10390000Y-32610000D02*
X10390000Y-32435000D01*
X13610000Y-29390000D02*
X13610000Y-29565000D01*
X13610000Y-32435000D02*
X13610000Y-32610000D01*
X13610000Y-32610000D02*
X10390000Y-32610000D01*
X9840000Y-29560000D02*
X9600000Y-29230000D01*
X10080000Y-29230000D01*
X9840000Y-29560000D01*
G36*
X9840000Y-29560000D02*
G01*
X9600000Y-29230000D01*
X10080000Y-29230000D01*
X9840000Y-29560000D01*
G37*
%TO.C,Rstat*%
X27762742Y36522500D02*
X28237258Y36522500D01*
X27762742Y35477500D02*
X28237258Y35477500D01*
%TO.C,MK1*%
X28320000Y-7820000D02*
X31680000Y-7820000D01*
X28320000Y-11880000D02*
X28320000Y-7820000D01*
X28620000Y-12180000D02*
X31680000Y-12180000D01*
X31680000Y-12180000D02*
X31680000Y-7820000D01*
X28320000Y-12180000D02*
X28320000Y-12460000D01*
X28040000Y-12180000D01*
X28320000Y-12180000D01*
G36*
X28320000Y-12460000D02*
G01*
X28040000Y-12180000D01*
X28320000Y-12180000D01*
X28320000Y-12460000D01*
G37*
%TO.C,Rsd1*%
X-11237258Y23022500D02*
X-10762742Y23022500D01*
X-11237258Y21977500D02*
X-10762742Y21977500D01*
%TO.C,C8*%
X-21235000Y39738748D02*
X-21235000Y40261252D01*
X-19765000Y39738748D02*
X-19765000Y40261252D01*
%TO.C,Y1*%
X14040000Y-22365000D02*
X14040000Y-25635000D01*
X14040000Y-25635000D02*
X17960000Y-25635000D01*
%TO.C,H3*%
D10*
X-26550000Y-39500000D02*
G75*
G02*
X-30450000Y-39500000I-1950000J0D01*
G01*
X-30450000Y-39500000D02*
G75*
G02*
X-26550000Y-39500000I1950000J0D01*
G01*
%TO.C,U8*%
D11*
X25090000Y-29440000D02*
X26910000Y-29440000D01*
X25090000Y-29490000D02*
X25090000Y-29440000D01*
X25090000Y-32560000D02*
X25090000Y-32510000D01*
X26910000Y-29440000D02*
X26910000Y-29490000D01*
X26910000Y-30610000D02*
X26910000Y-31390000D01*
X26910000Y-32510000D02*
X26910000Y-32560000D01*
X26910000Y-32560000D02*
X25090000Y-32560000D01*
X24550000Y-29490000D02*
X24310000Y-29160000D01*
X24790000Y-29160000D01*
X24550000Y-29490000D01*
G36*
X24550000Y-29490000D02*
G01*
X24310000Y-29160000D01*
X24790000Y-29160000D01*
X24550000Y-29490000D01*
G37*
%TO.C,J1*%
X120000Y31380000D02*
X1500000Y31380000D01*
X120000Y30000000D02*
X120000Y31380000D01*
X120000Y28730000D02*
X120000Y21000000D01*
X120000Y28730000D02*
X2880000Y28730000D01*
X120000Y21000000D02*
X2880000Y21000000D01*
X2880000Y28730000D02*
X2880000Y21000000D01*
%TO.C,H2*%
D10*
X30450000Y39500000D02*
G75*
G02*
X26550000Y39500000I-1950000J0D01*
G01*
X26550000Y39500000D02*
G75*
G02*
X30450000Y39500000I1950000J0D01*
G01*
%TO.C,C2*%
D11*
X23990000Y17859420D02*
X23990000Y18140580D01*
X25010000Y17859420D02*
X25010000Y18140580D01*
%TO.C,C14*%
X-11140580Y12510000D02*
X-10859420Y12510000D01*
X-11140580Y11490000D02*
X-10859420Y11490000D01*
%TO.C,D2*%
X22515000Y33735000D02*
X22515000Y32265000D01*
X22515000Y32265000D02*
X24800000Y32265000D01*
X24800000Y33735000D02*
X22515000Y33735000D01*
%TO.C,Rchg*%
X27762742Y33522500D02*
X28237258Y33522500D01*
X27762742Y32477500D02*
X28237258Y32477500D01*
%TO.C,SP1*%
X-11620000Y-26380000D02*
X3620000Y-26380000D01*
X3620000Y-37620000D01*
X-11620000Y-37620000D01*
X-11620000Y-26380000D01*
%TO.C,C10*%
X20359420Y-19490000D02*
X20640580Y-19490000D01*
X20359420Y-20510000D02*
X20640580Y-20510000D01*
%TO.C,H4*%
D10*
X30450000Y-39500000D02*
G75*
G02*
X26550000Y-39500000I-1950000J0D01*
G01*
X26550000Y-39500000D02*
G75*
G02*
X30450000Y-39500000I1950000J0D01*
G01*
%TO.C,C9*%
D11*
X20859420Y-30490000D02*
X21140580Y-30490000D01*
X20859420Y-31510000D02*
X21140580Y-31510000D01*
%TO.C,C7*%
X-3010000Y39859420D02*
X-3010000Y40140580D01*
X-1990000Y39859420D02*
X-1990000Y40140580D01*
%TO.C,C5*%
X-11010000Y39859420D02*
X-11010000Y40140580D01*
X-9990000Y39859420D02*
X-9990000Y40140580D01*
%TO.C,C17*%
X29990000Y-25859420D02*
X29990000Y-26140580D01*
X31010000Y-25859420D02*
X31010000Y-26140580D01*
%TO.C,C20*%
X-16261252Y-25265000D02*
X-15738748Y-25265000D01*
X-16261252Y-26735000D02*
X-15738748Y-26735000D01*
%TD*%
M02*
