M48
; DRILL file KiCad 10.0.6-10.0.6~ubuntu24.04.1 date 2026-09-06T18:12:06
; FORMAT={-:-/ absolute / metric / decimal}
; #@! TF.CreationDate,2026-09-06T18:12:06+00:00
; #@! TF.GenerationSoftware,Kicad,Pcbnew,10.0.6-10.0.6~ubuntu24.04.1
; #@! TF.FileFunction,Plated,1,4,PTH
FMAT,2
METRIC
; #@! TA.AperFunction,Plated,PTH,ViaDrill
T1C0.300
; #@! TA.AperFunction,Plated,PTH,ComponentDrill
T2C0.600
; #@! TA.AperFunction,Plated,PTH,ComponentDrill
T3C1.000
; #@! TA.AperFunction,Plated,PTH,ComponentDrill
T4C2.500
%
G90
G05
T1
X-29.0Y34.0
X-29.0Y28.0
X-29.0Y22.0
X-29.0Y16.0
X-29.0Y10.0
X-29.0Y4.0
X-29.0Y-2.0
X-29.0Y-8.0
X-29.0Y-20.0
X-29.0Y-26.0
X-29.0Y-32.0
X-28.063Y-18.34
X-25.15Y18.1
X-23.0Y40.0
X-23.0Y34.0
X-23.0Y28.0
X-23.0Y10.0
X-23.0Y4.0
X-23.0Y-2.0
X-23.0Y-8.0
X-23.0Y-20.0
X-23.0Y-26.0
X-23.0Y-38.0
X-22.845Y18.795
X-22.841Y15.819
X-22.833Y17.289
X-22.831Y14.8
X-21.02Y41.245
X-20.5Y40.0
X-19.945Y19.04
X-19.4Y39.05
X-18.238Y40.45
X-17.0Y34.0
X-17.0Y28.0
X-17.0Y22.0
X-17.0Y16.0
X-17.0Y10.0
X-17.0Y4.0
X-17.0Y-2.0
X-17.0Y-8.0
X-17.0Y-14.0
X-17.0Y-20.0
X-17.0Y-32.0
X-17.0Y-38.0
X-16.95Y-27.235
X-12.925Y25.0
X-12.925Y22.5
X-12.875Y12.0
X-11.825Y21.1
X-11.825Y16.1
X-11.0Y34.0
X-11.0Y28.0
X-11.0Y10.0
X-11.0Y4.0
X-11.0Y-2.0
X-11.0Y-8.0
X-11.0Y-14.0
X-11.0Y-26.0
X-11.0Y-32.0
X-11.0Y-38.0
X-10.839Y14.206
X-10.47Y12.27
X-10.175Y24.061
X-9.526Y19.227
X-9.31Y14.864
X-9.227Y17.404
X-9.0Y-34.241
X-6.928Y37.758
X-5.0Y34.0
X-5.0Y28.0
X-5.0Y22.0
X-5.0Y10.0
X-5.0Y4.0
X-5.0Y-2.0
X-5.0Y-8.0
X-5.0Y-14.0
X-5.0Y-20.0
X-5.0Y-26.0
X-5.0Y-32.0
X-5.0Y-38.0
X-4.377Y-17.834
X1.0Y34.0
X1.0Y10.0
X1.0Y4.0
X1.0Y-2.0
X1.0Y-8.0
X1.0Y-14.0
X1.0Y-20.0
X1.0Y-26.0
X1.0Y-32.0
X1.0Y-38.0
X2.6Y30.0
X2.655Y-35.773
X4.063Y8.919
X5.545Y19.505
X5.55Y39.2
X5.943Y16.302
X6.135Y15.471
X6.142Y11.8
X6.602Y31.103
X7.0Y34.0
X7.0Y28.0
X7.0Y10.0
X7.0Y4.0
X7.0Y-2.0
X7.0Y-8.0
X7.0Y-14.0
X7.0Y-20.0
X7.0Y-26.0
X7.0Y-32.0
X7.0Y-38.0
X7.6Y36.9
X7.854Y12.917
X7.863Y17.239
X7.871Y21.245
X8.0Y30.753
X8.05Y10.145
X8.1Y22.25
X8.396Y-10.761
X9.2Y36.9
X9.285Y9.194
X9.809Y12.427
X10.45Y39.2
X10.6Y11.875
X11.161Y18.7
X11.531Y-34.04
X11.847Y11.846
X12.3Y10.132
X12.77Y-31.325
X13.0Y28.0
X13.0Y22.0
X13.0Y-2.0
X13.875Y-27.5
X14.0Y11.882
X14.112Y-32.64
X14.85Y11.904
X15.212Y-30.675
X15.379Y-29.885
X16.5Y39.2
X17.05Y-25.925
X18.0Y-29.904
X18.17Y-22.917
X18.561Y-28.638
X19.0Y34.0
X19.0Y28.0
X19.0Y22.0
X19.0Y16.0
X19.0Y10.0
X19.0Y4.0
X19.0Y-2.0
X19.725Y-26.946
X19.743Y19.275
X20.14Y19.952
X20.451Y-19.274
X21.175Y-33.4
X21.734Y38.805
X22.488Y36.724
X22.675Y-20.4
X22.675Y-21.2
X22.675Y-22.0
X22.675Y-22.8
X22.675Y-23.6
X23.4Y13.675
X23.748Y-29.604
X23.762Y-31.0
X24.06Y33.728
X24.089Y-28.137
X24.198Y19.068
X24.4Y-18.675
X24.4Y-25.325
X24.862Y-33.05
X25.0Y34.0
X25.0Y28.0
X25.0Y4.0
X25.0Y-2.0
X25.075Y-34.5
X25.2Y-18.675
X25.2Y-25.325
X25.344Y-29.29
X25.457Y15.044
X25.551Y-8.855
X25.6Y10.175
X26.0Y-18.675
X26.0Y-25.325
X26.075Y36.0
X26.173Y39.968
X26.189Y38.016
X26.8Y-18.675
X26.8Y-25.325
X27.6Y-18.675
X27.925Y-16.5
X28.272Y-29.724
X29.325Y-23.6
T3
X1.5Y30.0
X1.5Y27.46
X1.5Y24.92
X1.5Y22.38
T4
X-23.5Y-34.0
X-15.7Y-34.0
T2
X3.68Y41.28G85X3.68Y40.18
G05
X3.68Y36.85G85X3.68Y36.25
G05
X12.32Y41.28G85X12.32Y40.18
G05
X12.32Y36.85G85X12.32Y36.25
G05
M30
