%TF.GenerationSoftware,KiCad,Pcbnew,10.0.6-10.0.6~ubuntu24.04.1*%
%TF.CreationDate,2026-09-06T18:34:02+00:00*%
%TF.ProjectId,recorder,7265636f-7264-4657-922e-6b696361645f,rev?*%
%TF.SameCoordinates,Original*%
%TF.FileFunction,Copper,L4,Bot*%
%TF.FilePolarity,Positive*%
%FSLAX46Y46*%
G04 Gerber Fmt 4.6, Leading zero omitted, Abs format (unit mm)*
G04 Created by KiCad (PCBNEW 10.0.6-10.0.6~ubuntu24.04.1) date 2026-09-06 18:34:02*
%MOMM*%
%LPD*%
G01*
G04 APERTURE LIST*
G04 Aperture macros list*
%AMRoundRect*
0 Rectangle with rounded corners*
0 $1 Rounding radius*
0 $2 $3 $4 $5 $6 $7 $8 $9 X,Y pos of 4 corners*
0 Add a 4 corners polygon primitive as box body*
4,1,4,$2,$3,$4,$5,$6,$7,$8,$9,$2,$3,0*
0 Add four circle primitives for the rounded corners*
1,1,$1+$1,$2,$3*
1,1,$1+$1,$4,$5*
1,1,$1+$1,$6,$7*
1,1,$1+$1,$8,$9*
0 Add four rect primitives between the rounded corners*
20,1,$1+$1,$2,$3,$4,$5,0*
20,1,$1+$1,$4,$5,$6,$7,0*
20,1,$1+$1,$6,$7,$8,$9,0*
20,1,$1+$1,$8,$9,$2,$3,0*%
G04 Aperture macros list end*
%TA.AperFunction,ComponentPad*%
%ADD10RoundRect,0.250002X-1.699998X-1.699998X1.699998X-1.699998X1.699998X1.699998X-1.699998X1.699998X0*%
%TD*%
%TA.AperFunction,ComponentPad*%
%ADD11C,3.900000*%
%TD*%
%TA.AperFunction,ComponentPad*%
%ADD12O,1.000000X2.100000*%
%TD*%
%TA.AperFunction,ComponentPad*%
%ADD13O,1.000000X1.600000*%
%TD*%
%TA.AperFunction,ComponentPad*%
%ADD14R,1.700000X1.700000*%
%TD*%
%TA.AperFunction,ComponentPad*%
%ADD15C,1.700000*%
%TD*%
%TA.AperFunction,ViaPad*%
%ADD16C,0.600000*%
%TD*%
%TA.AperFunction,Conductor*%
%ADD17C,0.150000*%
%TD*%
%TA.AperFunction,Conductor*%
%ADD18C,0.300000*%
%TD*%
%TA.AperFunction,Conductor*%
%ADD19C,0.200000*%
%TD*%
G04 APERTURE END LIST*
D10*
%TO.P,BT1,1*%
%TO.N,VBAT*%
X-23500000Y-34000000D03*
D11*
%TO.P,BT1,2*%
%TO.N,GND*%
X-15700000Y-34000000D03*
%TD*%
D12*
%TO.P,J2,SH*%
%TO.N,GND*%
X3680000Y40730000D03*
D13*
X3680000Y36550000D03*
D12*
X12320000Y40730000D03*
D13*
X12320000Y36550000D03*
%TD*%
D14*
%TO.P,J1,1*%
%TO.N,VDD33*%
X1500000Y30000000D03*
D15*
%TO.P,J1,2*%
%TO.N,/MCU_USB/UART_RX*%
X1500000Y27460000D03*
%TO.P,J1,3*%
%TO.N,/MCU_USB/UART_TX*%
X1500000Y24920000D03*
%TO.P,J1,4*%
%TO.N,GND*%
X1500000Y22380000D03*
%TD*%
D16*
%TO.N,GND*%
X-23000000Y34000000D03*
X-5000000Y22000000D03*
X-11000000Y-8000000D03*
X-17000000Y-20000000D03*
X13000000Y4000000D03*
X-5000000Y4000000D03*
X-17000000Y-38000000D03*
X-17000000Y-14000000D03*
X-11000000Y34000000D03*
X25000000Y28000000D03*
X-17000000Y-32000000D03*
X-23000000Y4000000D03*
X1000000Y-14000000D03*
X-5000000Y28000000D03*
X-23000000Y10000000D03*
X-11000000Y-14000000D03*
X19000000Y4000000D03*
X-17000000Y-2000000D03*
X-11000000Y-32000000D03*
X-5000000Y-26000000D03*
X-11000000Y28000000D03*
X25000000Y34000000D03*
X13000000Y28000000D03*
X1000000Y10000000D03*
X13875000Y-27500000D03*
X-640000Y34300000D03*
X-29000000Y-2000000D03*
X19000000Y34000000D03*
X-11000000Y-2000000D03*
X16150000Y-25724999D03*
X-23000000Y-2000000D03*
X-23000000Y40000000D03*
X1000000Y-20000000D03*
X19000000Y22000000D03*
X13000000Y34000000D03*
X-11000000Y-38000000D03*
X19000000Y16000000D03*
X-29000000Y28000000D03*
X-5000000Y-20000000D03*
X-23000000Y-38000000D03*
X1000000Y4000000D03*
X23762500Y-31000000D03*
X-5000000Y-2000000D03*
X-5000000Y-14000000D03*
X-29000000Y4000000D03*
X-5000000Y10000000D03*
X19000000Y-2000000D03*
X-29000000Y-20000000D03*
X1000000Y-26000000D03*
X22675000Y-23600000D03*
X-5000000Y-32000000D03*
X1000000Y34000000D03*
X-11000000Y-26000000D03*
X27925000Y-16500000D03*
X-5000000Y-38000000D03*
X-21020000Y41245000D03*
X7000000Y-32000000D03*
X-17000000Y4000000D03*
X-29000000Y22000000D03*
X13000000Y22000000D03*
X-23000000Y28000000D03*
X-29000000Y10000000D03*
X-17000000Y34000000D03*
X-11000000Y4000000D03*
X-17000000Y28000000D03*
X-29000000Y16000000D03*
X-23000000Y-20000000D03*
X-29000000Y-8000000D03*
X-10470000Y12270000D03*
X-5000000Y-8000000D03*
X7000000Y34000000D03*
X-5000000Y34000000D03*
X13000000Y40000000D03*
X-23000000Y-8000000D03*
X-17000000Y10000000D03*
X25000000Y4000000D03*
X-29000000Y-32000000D03*
X17325000Y-28600000D03*
X-29000000Y34000000D03*
X-23000000Y-26000000D03*
X-17000000Y22000000D03*
X19000000Y10000000D03*
X7000000Y-38000000D03*
X19000000Y28000000D03*
X16640000Y34300000D03*
X-29000000Y-26000000D03*
X7000000Y28000000D03*
X1000000Y-2000000D03*
X-11000000Y10000000D03*
X25000000Y-2000000D03*
X1000000Y-8000000D03*
X13000000Y-2000000D03*
X1000000Y-38000000D03*
X-17000000Y-8000000D03*
%TO.N,BTN*%
X6091700Y20011000D03*
X-16049900Y19729300D03*
%TO.N,VBAT*%
X-16950000Y-27235300D03*
X21697600Y38841400D03*
X-4014000Y39225000D03*
X16216800Y-31325000D03*
%TO.N,/Power/PROG*%
X25984900Y39754500D03*
X23175000Y36944600D03*
%TO.N,VDD33*%
X24000000Y13675000D03*
X25600000Y10175000D03*
X25075000Y-34500000D03*
X23400000Y13675000D03*
X-12924999Y25000000D03*
X-25150000Y18100000D03*
X22675000Y-22799999D03*
X24854250Y21079250D03*
X-12875000Y12000000D03*
X24400000Y-18675000D03*
X-20500000Y40000000D03*
X2600000Y30000000D03*
X-19400000Y39050000D03*
X-12725000Y15900000D03*
X-11825000Y18900000D03*
X-12924999Y22500000D03*
X23262500Y-31950000D03*
X21175000Y-32900000D03*
X8100000Y22250000D03*
X28075000Y35100000D03*
X-18237500Y40450000D03*
X22675000Y-22000000D03*
%TO.N,/MCU_USB/BOOT*%
X7863600Y20582700D03*
X25457000Y15043600D03*
%TO.N,LED*%
X-28063500Y-14788500D03*
X8297500Y18373800D03*
%TO.N,I2C_SDA*%
X25200000Y-18675000D03*
X23037200Y-33055700D03*
X6136000Y19101500D03*
%TO.N,I2C_SCL*%
X6166300Y14176200D03*
X22675000Y-20400000D03*
%TO.N,SD_D0*%
X8387600Y17619000D03*
X-9888200Y21336400D03*
%TO.N,SD_CMD*%
X-10175000Y26650000D03*
X-22832700Y17288800D03*
X9553300Y18090400D03*
%TO.N,PA_EN*%
X7854300Y14731000D03*
X7374000Y9280900D03*
%TO.N,CHG_STAT*%
X10759900Y18409400D03*
X29469400Y24316100D03*
%TO.N,I2S_DIN*%
X25200000Y-25325000D03*
X6129100Y10819100D03*
%TO.N,I2S_DOUT*%
X26799999Y-25325000D03*
X8674500Y13757300D03*
%TO.N,I2S_WS*%
X8356700Y11859000D03*
X26000000Y-25325000D03*
%TO.N,I2S_BCLK*%
X24400000Y-25325000D03*
X8970400Y12331900D03*
%TO.N,I2S_MCLK*%
X9597600Y11853700D03*
X22675000Y-21200000D03*
X18161100Y-24286100D03*
%TO.N,SD_CLK*%
X10593100Y13430500D03*
X-22845200Y18795200D03*
%TO.N,SD_D1*%
X11450000Y12980300D03*
X-9181800Y17948700D03*
%TO.N,SD_D2*%
X12300000Y11858100D03*
X-22831100Y14800000D03*
X-10839400Y14206300D03*
%TO.N,SD_D3*%
X-22841500Y15819000D03*
X-9310100Y14863800D03*
X10122200Y14532300D03*
%TO.N,USB_DP*%
X4800000Y36900000D03*
X7600000Y36900000D03*
X9200000Y36900000D03*
%TO.N,/MCU_USB/UART_TX*%
X19743200Y19274800D03*
%TO.N,/MCU_USB/UART_RX*%
X20139900Y19952200D03*
%TO.N,/Audio/AGND*%
X21782600Y-27498300D03*
X27600000Y-25325000D03*
%TO.N,VBUS*%
X10450000Y39200000D03*
X5550000Y39200000D03*
X16500000Y39200000D03*
%TO.N,/Audio/MIC_N*%
X26799999Y-18675000D03*
X19725000Y-25063200D03*
%TO.N,3V3A*%
X29325000Y-23600000D03*
X28752000Y-19766800D03*
X25390400Y-28471700D03*
X20985400Y-30239600D03*
%TO.N,/Audio/PA_INN*%
X28272400Y-29723700D03*
X10213900Y-33514300D03*
%TO.N,/Audio/VMID*%
X23020300Y-17912400D03*
X27600000Y-18675000D03*
%TO.N,/Audio/SPK_N*%
X14765000Y-32627500D03*
X1000000Y-30183000D03*
%TO.N,/Audio/SPK_P*%
X-7295300Y-32696200D03*
X12606000Y-31245900D03*
%TD*%
%TO.N,BTN*%
D17*
X-16049900Y19729300D02*
X-15768200Y20011000D01*
X-15768200Y20011000D02*
X6091700Y20011000D01*
%TO.N,VBAT*%
D18*
X21412300Y38556100D02*
X-3345100Y38556100D01*
X21697600Y38841400D02*
X21412300Y38556100D01*
X12127100Y-27235300D02*
X16216800Y-31325000D01*
X-16950000Y-27235300D02*
X-23500000Y-33785300D01*
X-16950000Y-27235300D02*
X12127100Y-27235300D01*
X-23500000Y-33785300D02*
X-23500000Y-34000000D01*
X-3345100Y38556100D02*
X-4014000Y39225000D01*
%TO.N,/Power/PROG*%
D17*
X23175000Y36944600D02*
X25984900Y39754500D01*
%TO.N,/MCU_USB/BOOT*%
X25457000Y15043600D02*
X13369700Y15043600D01*
X13369700Y15043600D02*
X7863600Y20549700D01*
X7863600Y20549700D02*
X7863600Y20582700D01*
%TO.N,LED*%
X-23091300Y18264900D02*
X-23405900Y18579500D01*
X-28063500Y-14788500D02*
X-28063500Y11413300D01*
X-23405900Y18579500D02*
X-23405900Y19012800D01*
X-22986300Y18264900D02*
X-23091300Y18264900D01*
X-22301600Y17073400D02*
X-22301600Y17580200D01*
X6286000Y20561700D02*
X8297500Y18550200D01*
X-28063500Y11413300D02*
X-22716300Y16760500D01*
X-22614500Y16760500D02*
X-22301600Y17073400D01*
X-21857000Y20561700D02*
X6286000Y20561700D01*
X-22716300Y16760500D02*
X-22614500Y16760500D01*
X8297500Y18550200D02*
X8297500Y18373800D01*
X-23405900Y19012800D02*
X-21857000Y20561700D01*
X-22301600Y17580200D02*
X-22986300Y18264900D01*
%TO.N,I2C_SDA*%
X8169500Y17068000D02*
X9298700Y17068000D01*
X29916200Y-20175000D02*
X29916200Y-26176700D01*
X22817900Y-17363000D02*
X27104200Y-17363000D01*
X25200000Y-18675000D02*
X24673300Y-19201700D01*
X23504300Y-19201700D02*
X22493500Y-18190900D01*
X6136000Y19101500D02*
X8169500Y17068000D01*
X29916200Y-26176700D02*
X23037200Y-33055700D01*
X27104200Y-17363000D02*
X29916200Y-20175000D01*
X9298700Y17068000D02*
X22817900Y3548800D01*
X22493500Y-17687400D02*
X22817900Y-17363000D01*
X24673300Y-19201700D02*
X23504300Y-19201700D01*
X22817900Y3548800D02*
X22817900Y-17363000D01*
X22493500Y-18190900D02*
X22493500Y-17687400D01*
%TO.N,I2C_SCL*%
X8982800Y13230500D02*
X22154900Y58400D01*
X8145000Y13532800D02*
X8447300Y13230500D01*
X22154900Y-19880000D02*
X22155000Y-19880000D01*
X8440000Y14902100D02*
X8440000Y14267600D01*
X8440000Y14267600D02*
X8145000Y13972600D01*
X6166300Y14176200D02*
X7247900Y15257800D01*
X8084300Y15257800D02*
X8440000Y14902100D01*
X8447300Y13230500D02*
X8982800Y13230500D01*
X8145000Y13972600D02*
X8145000Y13532800D01*
X22155000Y-19880000D02*
X22675000Y-20400000D01*
X7247900Y15257800D02*
X8084300Y15257800D01*
X22154900Y58400D02*
X22154900Y-19880000D01*
%TO.N,SD_D0*%
X-9521200Y20969400D02*
X-9888200Y21336400D01*
X8102000Y19172500D02*
X6305100Y20969400D01*
X8876800Y18545000D02*
X8249300Y19172500D01*
X8876800Y18108200D02*
X8876800Y18545000D01*
X8387600Y17619000D02*
X8876800Y18108200D01*
X8249300Y19172500D02*
X8102000Y19172500D01*
X6305100Y20969400D02*
X-9521200Y20969400D01*
%TO.N,SD_CMD*%
X7819200Y19882000D02*
X4051200Y23650000D01*
X-10175000Y26650000D02*
X-16195400Y26650000D01*
X9553300Y18369900D02*
X8041200Y19882000D01*
X-23707600Y19137800D02*
X-23707600Y18163700D01*
X-16195400Y26650000D02*
X-23707600Y19137800D01*
X9553300Y18090400D02*
X9553300Y18369900D01*
X8041200Y19882000D02*
X7819200Y19882000D01*
X4051200Y23650000D02*
X-7175000Y23650000D01*
X-23707600Y18163700D02*
X-22832700Y17288800D01*
X-7175000Y23650000D02*
X-10175000Y26650000D01*
%TO.N,PA_EN*%
X7374000Y9280900D02*
X7374000Y14250700D01*
X7374000Y14250700D02*
X7854300Y14731000D01*
%TO.N,CHG_STAT*%
X10759900Y18409400D02*
X23562700Y18409400D01*
X23562700Y18409400D02*
X29469400Y24316100D01*
%TO.N,I2S_DIN*%
X6129100Y10819100D02*
X6129100Y-13921700D01*
X24321200Y-26203800D02*
X25200000Y-25325000D01*
X18411200Y-26203800D02*
X24321200Y-26203800D01*
X6129100Y-13921700D02*
X18411200Y-26203800D01*
%TO.N,I2S_DOUT*%
X8752000Y13834800D02*
X8752000Y15084600D01*
X6785500Y15559500D02*
X5594700Y14368700D01*
X8277100Y15559500D02*
X6785500Y15559500D01*
X18286200Y-26505500D02*
X25619500Y-26505500D01*
X5594700Y14368700D02*
X5594700Y-13814000D01*
X8752000Y15084600D02*
X8277100Y15559500D01*
X8674500Y13757300D02*
X8752000Y13834800D01*
X5594700Y-13814000D02*
X18286200Y-26505500D01*
X25619500Y-26505500D02*
X26800000Y-25325000D01*
%TO.N,I2S_WS*%
X24001400Y-24780300D02*
X23189500Y-25592200D01*
X23189500Y-25592200D02*
X18655200Y-25592200D01*
X8356700Y-15293700D02*
X8356700Y11859000D01*
X26000000Y-25325000D02*
X25455300Y-24780300D01*
X18655200Y-25592200D02*
X8356700Y-15293700D01*
X25455300Y-24780300D02*
X24001400Y-24780300D01*
%TO.N,I2S_BCLK*%
X23822900Y-25902100D02*
X18536200Y-25902100D01*
X7829900Y12089000D02*
X8143200Y12402300D01*
X7829900Y11634200D02*
X7829900Y12089000D01*
X24400000Y-25325000D02*
X23822900Y-25902100D01*
X18536200Y-25902100D02*
X7977200Y-15343100D01*
X7977200Y-15343100D02*
X7977200Y11486900D01*
X7977200Y11486900D02*
X7829900Y11634200D01*
X8143200Y12402300D02*
X8900000Y12402300D01*
X8900000Y12402300D02*
X8970400Y12331900D01*
%TO.N,I2S_MCLK*%
X20617300Y-21829900D02*
X20617300Y-21200000D01*
X22675000Y-21200000D02*
X20617300Y-21200000D01*
X18161100Y-24286100D02*
X20617300Y-21829900D01*
X20617300Y-21200000D02*
X20617300Y834000D01*
X20617300Y834000D02*
X9597600Y11853700D01*
%TO.N,SD_CLK*%
X-20514600Y16464600D02*
X8950200Y16464600D01*
X8950200Y16464600D02*
X10688400Y14726400D01*
X10688400Y14726400D02*
X10688400Y13525800D01*
X-22845200Y18795200D02*
X-20514600Y16464600D01*
X10688400Y13525800D02*
X10593100Y13430500D01*
%TO.N,SD_D1*%
X-7999400Y16766300D02*
X9147800Y16766300D01*
X9147800Y16766300D02*
X11450000Y14464100D01*
X11450000Y14464100D02*
X11450000Y12980300D01*
X-9181800Y17948700D02*
X-7999400Y16766300D01*
%TO.N,SD_D2*%
X9286100Y13980400D02*
X11408400Y11858100D01*
X-10839400Y14206300D02*
X4846700Y14206300D01*
X11408400Y11858100D02*
X12300000Y11858100D01*
X9286100Y15022900D02*
X9286100Y13980400D01*
X-22237400Y14206300D02*
X-22831100Y14800000D01*
X-10839400Y14206300D02*
X-22237400Y14206300D01*
X6501600Y15861200D02*
X8447800Y15861200D01*
X4846700Y14206300D02*
X6501600Y15861200D01*
X8447800Y15861200D02*
X9286100Y15022900D01*
%TO.N,SD_D3*%
X-9310100Y14863800D02*
X-8011000Y16162900D01*
X-8011000Y16162900D02*
X8609400Y16162900D01*
X8609400Y16162900D02*
X10122200Y14650100D01*
X10122200Y14650100D02*
X10122200Y14532300D01*
X-21886300Y14863800D02*
X-22841500Y15819000D01*
X-9310100Y14863800D02*
X-21886300Y14863800D01*
%TO.N,USB_DP*%
D19*
X7600000Y36900000D02*
X4800000Y36900000D01*
X7600000Y36900000D02*
X9200000Y36900000D01*
%TO.N,/MCU_USB/UART_TX*%
D17*
X1500000Y24920000D02*
X14098000Y24920000D01*
X14098000Y24920000D02*
X19743200Y19274800D01*
%TO.N,/MCU_USB/UART_RX*%
X1500000Y27460000D02*
X12632100Y27460000D01*
X12632100Y27460000D02*
X20139900Y19952200D01*
%TO.N,/Audio/AGND*%
X21782600Y-27498300D02*
X25426700Y-27498300D01*
X25426700Y-27498300D02*
X27600000Y-25325000D01*
%TO.N,VBUS*%
D18*
X5550000Y39200000D02*
X16500000Y39200000D01*
%TO.N,/Audio/MIC_N*%
D17*
X21982600Y-25063200D02*
X19725000Y-25063200D01*
X26800000Y-20245800D02*
X21982600Y-25063200D01*
X26800000Y-18675000D02*
X26800000Y-20245800D01*
%TO.N,3V3A*%
D18*
X25390400Y-28471700D02*
X22753300Y-28471700D01*
X29325000Y-23600000D02*
X29224900Y-23600000D01*
X29325000Y-23600000D02*
X29325000Y-24537100D01*
X29325000Y-24537100D02*
X25390400Y-28471700D01*
X29224900Y-23600000D02*
X28723300Y-23098400D01*
X22753300Y-28471700D02*
X20985400Y-30239600D01*
X28723300Y-19795500D02*
X28752000Y-19766800D01*
X28723300Y-23098400D02*
X28723300Y-19795500D01*
%TO.N,/Audio/PA_INN*%
D17*
X24413700Y-33582400D02*
X28272400Y-29723700D01*
X10213900Y-33514300D02*
X10282000Y-33582400D01*
X10282000Y-33582400D02*
X24413700Y-33582400D01*
%TO.N,/Audio/VMID*%
X26837400Y-17912400D02*
X27600000Y-18675000D01*
X23020300Y-17912400D02*
X26837400Y-17912400D01*
%TO.N,/Audio/SPK_N*%
X12320500Y-30183000D02*
X1000000Y-30183000D01*
X14765000Y-32627500D02*
X12320500Y-30183000D01*
%TO.N,/Audio/SPK_P*%
X11155700Y-32696200D02*
X12606000Y-31245900D01*
X-7295300Y-32696200D02*
X11155700Y-32696200D01*
%TD*%
%TA.AperFunction,Conductor*%
%TO.N,GND*%
G36*
X26398469Y-18206807D02*
G01*
X26434433Y-18256307D01*
X26434433Y-18317493D01*
X26410283Y-18356901D01*
X26400753Y-18366432D01*
X26399496Y-18367689D01*
X26399495Y-18367690D01*
X26333608Y-18481809D01*
X26333607Y-18481814D01*
X26299499Y-18609108D01*
X26299499Y-18740892D01*
X26324807Y-18835345D01*
X26333608Y-18868190D01*
X26399495Y-18982309D01*
X26399497Y-18982311D01*
X26399499Y-18982314D01*
X26492685Y-19075500D01*
X26492687Y-19075501D01*
X26495504Y-19078318D01*
X26523281Y-19132835D01*
X26524500Y-19148322D01*
X26524500Y-20090676D01*
X26505593Y-20148867D01*
X26495504Y-20160680D01*
X21897481Y-24758704D01*
X21842964Y-24786481D01*
X21827477Y-24787700D01*
X20198321Y-24787700D01*
X20140130Y-24768793D01*
X20128317Y-24758704D01*
X20125501Y-24755888D01*
X20125500Y-24755886D01*
X20032314Y-24662700D01*
X20032311Y-24662698D01*
X20032309Y-24662696D01*
X19918189Y-24596809D01*
X19918191Y-24596809D01*
X19868799Y-24583575D01*
X19790892Y-24562700D01*
X19659108Y-24562700D01*
X19581200Y-24583575D01*
X19531809Y-24596809D01*
X19417690Y-24662696D01*
X19324496Y-24755890D01*
X19258609Y-24870009D01*
X19258608Y-24870014D01*
X19224500Y-24997308D01*
X19224500Y-25129092D01*
X19240045Y-25187107D01*
X19241377Y-25192077D01*
X19238174Y-25253179D01*
X19199669Y-25300729D01*
X19145750Y-25316700D01*
X18810324Y-25316700D01*
X18752133Y-25297793D01*
X18740320Y-25287704D01*
X18350941Y-24898325D01*
X18323164Y-24843808D01*
X18332735Y-24783376D01*
X18371442Y-24742586D01*
X18468414Y-24686600D01*
X18561600Y-24593414D01*
X18588546Y-24546742D01*
X18627490Y-24479290D01*
X18627490Y-24479288D01*
X18627492Y-24479286D01*
X18661600Y-24351992D01*
X18661600Y-24220208D01*
X18661600Y-24216222D01*
X18680507Y-24158031D01*
X18690596Y-24146218D01*
X19149531Y-23687283D01*
X20850857Y-21985959D01*
X20872334Y-21934108D01*
X20892800Y-21884700D01*
X20892800Y-21574500D01*
X20911707Y-21516309D01*
X20961207Y-21480345D01*
X20991800Y-21475500D01*
X22201679Y-21475500D01*
X22259870Y-21494407D01*
X22271684Y-21504498D01*
X22297183Y-21529998D01*
X22324959Y-21584515D01*
X22315387Y-21644947D01*
X22297183Y-21670002D01*
X22274501Y-21692684D01*
X22274496Y-21692690D01*
X22208609Y-21806809D01*
X22208608Y-21806814D01*
X22174500Y-21934108D01*
X22174500Y-22065892D01*
X22204579Y-22178151D01*
X22208609Y-22193190D01*
X22274496Y-22307309D01*
X22274498Y-22307311D01*
X22274500Y-22307314D01*
X22297183Y-22329997D01*
X22324959Y-22384512D01*
X22315388Y-22444944D01*
X22297183Y-22470001D01*
X22274499Y-22492685D01*
X22208609Y-22606808D01*
X22208608Y-22606813D01*
X22174500Y-22734107D01*
X22174500Y-22865891D01*
X22186911Y-22912210D01*
X22208609Y-22993189D01*
X22274496Y-23107308D01*
X22274498Y-23107310D01*
X22274500Y-23107313D01*
X22367686Y-23200499D01*
X22367688Y-23200500D01*
X22367690Y-23200502D01*
X22481810Y-23266389D01*
X22481808Y-23266389D01*
X22481812Y-23266390D01*
X22481814Y-23266391D01*
X22609108Y-23300499D01*
X22609110Y-23300499D01*
X22740890Y-23300499D01*
X22740892Y-23300499D01*
X22868186Y-23266391D01*
X22868188Y-23266389D01*
X22868190Y-23266389D01*
X22982309Y-23200502D01*
X22982309Y-23200501D01*
X22982314Y-23200499D01*
X23075500Y-23107313D01*
X23080011Y-23099500D01*
X23141390Y-22993189D01*
X23141390Y-22993187D01*
X23141392Y-22993185D01*
X23175500Y-22865891D01*
X23175500Y-22734107D01*
X23141392Y-22606813D01*
X23141390Y-22606810D01*
X23141390Y-22606808D01*
X23075503Y-22492689D01*
X23075501Y-22492687D01*
X23075500Y-22492685D01*
X23052815Y-22470000D01*
X23025040Y-22415486D01*
X23034611Y-22355054D01*
X23052817Y-22329995D01*
X23075500Y-22307314D01*
X23141392Y-22193186D01*
X23175500Y-22065892D01*
X23175500Y-21934108D01*
X23141392Y-21806814D01*
X23141390Y-21806811D01*
X23141390Y-21806809D01*
X23075503Y-21692690D01*
X23075501Y-21692688D01*
X23075500Y-21692686D01*
X23052815Y-21670001D01*
X23025040Y-21615487D01*
X23034611Y-21555055D01*
X23052816Y-21529998D01*
X23075500Y-21507314D01*
X23141392Y-21393186D01*
X23175500Y-21265892D01*
X23175500Y-21134108D01*
X23141392Y-21006814D01*
X23141390Y-21006811D01*
X23141390Y-21006809D01*
X23075503Y-20892690D01*
X23075501Y-20892688D01*
X23075500Y-20892686D01*
X23052815Y-20870001D01*
X23025040Y-20815487D01*
X23034611Y-20755055D01*
X23052816Y-20729998D01*
X23075500Y-20707314D01*
X23141392Y-20593186D01*
X23175500Y-20465892D01*
X23175500Y-20334108D01*
X23141392Y-20206814D01*
X23141390Y-20206811D01*
X23141390Y-20206809D01*
X23075503Y-20092690D01*
X23075501Y-20092688D01*
X23075500Y-20092686D01*
X22982314Y-19999500D01*
X22982311Y-19999498D01*
X22982309Y-19999496D01*
X22868189Y-19933609D01*
X22868191Y-19933609D01*
X22818799Y-19920375D01*
X22740892Y-19899500D01*
X22609108Y-19899500D01*
X22605124Y-19899500D01*
X22546933Y-19880593D01*
X22535120Y-19870504D01*
X22459396Y-19794780D01*
X22431619Y-19740263D01*
X22430400Y-19724776D01*
X22430400Y-18756423D01*
X22449307Y-18698232D01*
X22498807Y-18662268D01*
X22559993Y-18662268D01*
X22599403Y-18686418D01*
X23348241Y-19435257D01*
X23360139Y-19440185D01*
X23360140Y-19440186D01*
X23449500Y-19477200D01*
X24728099Y-19477200D01*
X24728100Y-19477200D01*
X24829358Y-19435257D01*
X24906857Y-19357758D01*
X24906856Y-19357758D01*
X25060119Y-19204496D01*
X25114636Y-19176719D01*
X25130122Y-19175500D01*
X25265890Y-19175500D01*
X25265892Y-19175500D01*
X25393186Y-19141392D01*
X25393188Y-19141390D01*
X25393190Y-19141390D01*
X25507309Y-19075503D01*
X25507309Y-19075502D01*
X25507314Y-19075500D01*
X25600500Y-18982314D01*
X25643814Y-18907293D01*
X25666390Y-18868190D01*
X25666390Y-18868188D01*
X25666392Y-18868186D01*
X25700500Y-18740892D01*
X25700500Y-18609108D01*
X25666392Y-18481814D01*
X25666390Y-18481811D01*
X25666390Y-18481809D01*
X25600503Y-18367690D01*
X25600501Y-18367688D01*
X25600500Y-18367686D01*
X25589715Y-18356901D01*
X25561940Y-18302387D01*
X25571511Y-18241955D01*
X25614776Y-18198690D01*
X25659721Y-18187900D01*
X26340278Y-18187900D01*
X26398469Y-18206807D01*
G37*
%TD.AperFunction*%
%TA.AperFunction,Conductor*%
G36*
X9067645Y11812493D02*
G01*
X9103609Y11762993D01*
X9105081Y11758023D01*
X9131209Y11660509D01*
X9197096Y11546390D01*
X9290290Y11453196D01*
X9404410Y11387309D01*
X9404408Y11387309D01*
X9472054Y11369183D01*
X9531708Y11353200D01*
X9531710Y11353200D01*
X9667476Y11353200D01*
X9725667Y11334293D01*
X9737480Y11324204D01*
X20312804Y748880D01*
X20340581Y694363D01*
X20341800Y678876D01*
X20341800Y-21674776D01*
X20322893Y-21732967D01*
X20312804Y-21744780D01*
X18300980Y-23756604D01*
X18246463Y-23784381D01*
X18230976Y-23785600D01*
X18226992Y-23785600D01*
X18095208Y-23785600D01*
X18017300Y-23806475D01*
X17967909Y-23819709D01*
X17853790Y-23885596D01*
X17760596Y-23978790D01*
X17704614Y-24075754D01*
X17659144Y-24116695D01*
X17598294Y-24123090D01*
X17548874Y-24096258D01*
X8661196Y-15208580D01*
X8633419Y-15154063D01*
X8632200Y-15138576D01*
X8632200Y11385679D01*
X8651107Y11443870D01*
X8661196Y11455683D01*
X8664011Y11458498D01*
X8664014Y11458500D01*
X8757200Y11551686D01*
X8757201Y11551688D01*
X8757203Y11551690D01*
X8823090Y11665809D01*
X8823090Y11665811D01*
X8823092Y11665814D01*
X8847799Y11758023D01*
X8881123Y11809338D01*
X8938245Y11831264D01*
X8943426Y11831400D01*
X9009454Y11831400D01*
X9067645Y11812493D01*
G37*
%TD.AperFunction*%
%TA.AperFunction,Conductor*%
G36*
X11894504Y14082581D02*
G01*
X22513404Y3463681D01*
X22541181Y3409164D01*
X22542400Y3393677D01*
X22542400Y299522D01*
X22523493Y241331D01*
X22473993Y205367D01*
X22412807Y205367D01*
X22373401Y229514D01*
X11136574Y11466340D01*
X11108800Y11520853D01*
X11118371Y11581285D01*
X11161636Y11624550D01*
X11222068Y11634121D01*
X11244465Y11627805D01*
X11252341Y11624543D01*
X11279999Y11613087D01*
X11353600Y11582600D01*
X11826679Y11582600D01*
X11884870Y11563693D01*
X11896683Y11553604D01*
X11899498Y11550788D01*
X11899500Y11550786D01*
X11950786Y11499500D01*
X11992689Y11457597D01*
X11992690Y11457596D01*
X12106810Y11391709D01*
X12106808Y11391709D01*
X12174454Y11373583D01*
X12234108Y11357600D01*
X12234110Y11357600D01*
X12365890Y11357600D01*
X12365892Y11357600D01*
X12493186Y11391708D01*
X12493190Y11391709D01*
X12607309Y11457596D01*
X12607311Y11457598D01*
X12607314Y11457600D01*
X12700500Y11550786D01*
X12700501Y11550788D01*
X12700503Y11550790D01*
X12766390Y11664909D01*
X12766390Y11664911D01*
X12766392Y11664914D01*
X12800500Y11792208D01*
X12800500Y11923992D01*
X12766392Y12051286D01*
X12757960Y12065890D01*
X12700503Y12165409D01*
X12700502Y12165409D01*
X12700500Y12165414D01*
X12607314Y12258600D01*
X12493189Y12324490D01*
X12493188Y12324490D01*
X12493186Y12324492D01*
X12365892Y12358600D01*
X12234108Y12358600D01*
X12106814Y12324492D01*
X12106811Y12324490D01*
X12106809Y12324490D01*
X11992690Y12258603D01*
X11992688Y12258601D01*
X11992686Y12258600D01*
X11899500Y12165414D01*
X11899498Y12165411D01*
X11896683Y12162596D01*
X11842166Y12134819D01*
X11826679Y12133600D01*
X11563523Y12133600D01*
X11505332Y12152507D01*
X11493525Y12162590D01*
X11345318Y12310797D01*
X11317542Y12365313D01*
X11327113Y12425745D01*
X11370378Y12469010D01*
X11415323Y12479800D01*
X11515890Y12479800D01*
X11515892Y12479800D01*
X11643186Y12513908D01*
X11643190Y12513909D01*
X11757309Y12579796D01*
X11757311Y12579798D01*
X11757314Y12579800D01*
X11850500Y12672986D01*
X11850501Y12672988D01*
X11850503Y12672990D01*
X11916390Y12787109D01*
X11916390Y12787111D01*
X11916392Y12787114D01*
X11950500Y12914408D01*
X11950500Y13046192D01*
X11916392Y13173486D01*
X11896114Y13208608D01*
X11850503Y13287609D01*
X11850502Y13287610D01*
X11850500Y13287614D01*
X11757314Y13380800D01*
X11757311Y13380801D01*
X11754496Y13383617D01*
X11726719Y13438134D01*
X11725500Y13453621D01*
X11725500Y14012577D01*
X11744407Y14070768D01*
X11793907Y14106732D01*
X11855093Y14106732D01*
X11894504Y14082581D01*
G37*
%TD.AperFunction*%
%TA.AperFunction,Conductor*%
G36*
X14001068Y24625593D02*
G01*
X14012881Y24615504D01*
X19213704Y19414679D01*
X19241481Y19360162D01*
X19242700Y19344675D01*
X19242700Y19340692D01*
X19242700Y19208908D01*
X19246239Y19195700D01*
X19276809Y19081609D01*
X19342696Y18967490D01*
X19435890Y18874296D01*
X19443963Y18869636D01*
X19484904Y18824167D01*
X19491300Y18763317D01*
X19460707Y18710329D01*
X19404811Y18685442D01*
X19394463Y18684900D01*
X11233221Y18684900D01*
X11175030Y18703807D01*
X11163217Y18713896D01*
X11160401Y18716711D01*
X11160400Y18716714D01*
X11067214Y18809900D01*
X10953089Y18875790D01*
X10953088Y18875790D01*
X10953086Y18875792D01*
X10825792Y18909900D01*
X10694008Y18909900D01*
X10566714Y18875792D01*
X10566711Y18875790D01*
X10566709Y18875790D01*
X10452590Y18809903D01*
X10452589Y18809902D01*
X10452586Y18809900D01*
X10359400Y18716714D01*
X10359398Y18716711D01*
X10359396Y18716709D01*
X10323911Y18655247D01*
X10278442Y18614306D01*
X10217591Y18607910D01*
X10168173Y18634741D01*
X8388032Y20414881D01*
X8360257Y20469396D01*
X8362411Y20510505D01*
X8364100Y20516808D01*
X8364100Y20648592D01*
X8329992Y20775886D01*
X8275650Y20870008D01*
X8264103Y20890009D01*
X8264102Y20890009D01*
X8264100Y20890014D01*
X8170914Y20983200D01*
X8056789Y21049090D01*
X8056788Y21049090D01*
X8056786Y21049092D01*
X7929492Y21083200D01*
X7797708Y21083200D01*
X7670414Y21049092D01*
X7670411Y21049090D01*
X7670409Y21049090D01*
X7556290Y20983203D01*
X7556288Y20983201D01*
X7556286Y20983200D01*
X7463100Y20890014D01*
X7431600Y20835455D01*
X7386132Y20794516D01*
X7325282Y20788120D01*
X7275863Y20814951D01*
X5774922Y22315892D01*
X7599500Y22315892D01*
X7599500Y22315890D01*
X7599500Y22184109D01*
X7633609Y22056809D01*
X7699496Y21942690D01*
X7792690Y21849496D01*
X7906810Y21783609D01*
X7906808Y21783609D01*
X7974454Y21765483D01*
X8034108Y21749500D01*
X8034110Y21749500D01*
X8165890Y21749500D01*
X8165892Y21749500D01*
X8293186Y21783608D01*
X8293190Y21783609D01*
X8407309Y21849496D01*
X8407311Y21849498D01*
X8407314Y21849500D01*
X8500500Y21942686D01*
X8500501Y21942688D01*
X8500503Y21942690D01*
X8566390Y22056809D01*
X8566390Y22056811D01*
X8566392Y22056814D01*
X8600500Y22184108D01*
X8600500Y22315892D01*
X8566392Y22443186D01*
X8500500Y22557314D01*
X8407314Y22650500D01*
X8293189Y22716390D01*
X8293188Y22716390D01*
X8293186Y22716392D01*
X8165892Y22750500D01*
X8034108Y22750500D01*
X7906814Y22716392D01*
X7906811Y22716390D01*
X7906809Y22716390D01*
X7792690Y22650503D01*
X7792688Y22650501D01*
X7792686Y22650500D01*
X7699500Y22557314D01*
X7699498Y22557311D01*
X7699496Y22557309D01*
X7633609Y22443190D01*
X7633608Y22443186D01*
X7599500Y22315892D01*
X5774922Y22315892D01*
X4207258Y23883557D01*
X4106000Y23925500D01*
X4105999Y23925500D01*
X2228811Y23925500D01*
X2170620Y23944407D01*
X2134656Y23993907D01*
X2134656Y24055093D01*
X2166004Y24101026D01*
X2169646Y24104015D01*
X2169651Y24104020D01*
X2169655Y24104023D01*
X2315977Y24250345D01*
X2430941Y24422402D01*
X2497623Y24583386D01*
X2537360Y24629911D01*
X2589087Y24644500D01*
X13942877Y24644500D01*
X14001068Y24625593D01*
G37*
%TD.AperFunction*%
%TA.AperFunction,Conductor*%
G36*
X-10590130Y26355593D02*
G01*
X-10578317Y26345504D01*
X-10575501Y26342688D01*
X-10575500Y26342686D01*
X-10482314Y26249500D01*
X-10482311Y26249498D01*
X-10482309Y26249496D01*
X-10368189Y26183609D01*
X-10368191Y26183609D01*
X-10318799Y26170375D01*
X-10240892Y26149500D01*
X-10240890Y26149500D01*
X-10105123Y26149500D01*
X-10046932Y26130593D01*
X-10035119Y26120504D01*
X-7331058Y23416442D01*
X-7331056Y23416441D01*
X-7331055Y23416440D01*
X-7229802Y23374500D01*
X-7229800Y23374500D01*
X3896077Y23374500D01*
X3954268Y23355593D01*
X3966081Y23345504D01*
X5897680Y21413904D01*
X5925457Y21359387D01*
X5915886Y21298955D01*
X5872621Y21255690D01*
X5827676Y21244900D01*
X-9288700Y21244900D01*
X-9346891Y21263807D01*
X-9382855Y21313307D01*
X-9387700Y21343900D01*
X-9387700Y21402290D01*
X-9387700Y21402292D01*
X-9421808Y21529586D01*
X-9421809Y21529590D01*
X-9487696Y21643709D01*
X-9487698Y21643711D01*
X-9487700Y21643714D01*
X-9580886Y21736900D01*
X-9580888Y21736901D01*
X-9580890Y21736903D01*
X-9695010Y21802790D01*
X-9695008Y21802790D01*
X-9695012Y21802791D01*
X-9695014Y21802792D01*
X-9822308Y21836900D01*
X-9954092Y21836900D01*
X-10081386Y21802792D01*
X-10081388Y21802790D01*
X-10081390Y21802790D01*
X-10114612Y21783609D01*
X-10195514Y21736900D01*
X-10288700Y21643714D01*
X-10354592Y21529586D01*
X-10388700Y21402292D01*
X-10388700Y21270508D01*
X-10354592Y21143214D01*
X-10354590Y21143211D01*
X-10354590Y21143209D01*
X-10288703Y21029090D01*
X-10288701Y21029088D01*
X-10288700Y21029086D01*
X-10265815Y21006201D01*
X-10238040Y20951687D01*
X-10247611Y20891255D01*
X-10290876Y20847990D01*
X-10335821Y20837200D01*
X-21379577Y20837200D01*
X-21437768Y20856107D01*
X-21473732Y20905607D01*
X-21473732Y20966793D01*
X-21449581Y21006204D01*
X-19889893Y22565892D01*
X-13425499Y22565892D01*
X-13425499Y22434108D01*
X-13391391Y22306814D01*
X-13391389Y22306811D01*
X-13391389Y22306809D01*
X-13325502Y22192690D01*
X-13325500Y22192688D01*
X-13325499Y22192686D01*
X-13232313Y22099500D01*
X-13232310Y22099498D01*
X-13232308Y22099496D01*
X-13118188Y22033609D01*
X-13118190Y22033609D01*
X-13068798Y22020375D01*
X-12990891Y21999500D01*
X-12990889Y21999500D01*
X-12859109Y21999500D01*
X-12859107Y21999500D01*
X-12781199Y22020375D01*
X-12731808Y22033609D01*
X-12617689Y22099496D01*
X-12524495Y22192690D01*
X-12458608Y22306809D01*
X-12424499Y22434109D01*
X-12424499Y22565890D01*
X-12424499Y22565892D01*
X-12458607Y22693186D01*
X-12458608Y22693190D01*
X-12524495Y22807309D01*
X-12524497Y22807311D01*
X-12524499Y22807314D01*
X-12617685Y22900500D01*
X-12617687Y22900501D01*
X-12617689Y22900503D01*
X-12731809Y22966390D01*
X-12731807Y22966390D01*
X-12731811Y22966391D01*
X-12731813Y22966392D01*
X-12859107Y23000500D01*
X-12990891Y23000500D01*
X-13118185Y22966392D01*
X-13118187Y22966390D01*
X-13118189Y22966390D01*
X-13232308Y22900503D01*
X-13232313Y22900500D01*
X-13325499Y22807314D01*
X-13391391Y22693186D01*
X-13425499Y22565892D01*
X-19889893Y22565892D01*
X-19813400Y22642385D01*
X-18669180Y23786604D01*
X-17389892Y25065892D01*
X-13425499Y25065892D01*
X-13425499Y24934108D01*
X-13391391Y24806814D01*
X-13391389Y24806811D01*
X-13391389Y24806809D01*
X-13325502Y24692690D01*
X-13325500Y24692688D01*
X-13325499Y24692686D01*
X-13232313Y24599500D01*
X-13232310Y24599498D01*
X-13232308Y24599496D01*
X-13118188Y24533609D01*
X-13118190Y24533609D01*
X-13068798Y24520375D01*
X-12990891Y24499500D01*
X-12990889Y24499500D01*
X-12859109Y24499500D01*
X-12859107Y24499500D01*
X-12781199Y24520375D01*
X-12731808Y24533609D01*
X-12617689Y24599496D01*
X-12524495Y24692690D01*
X-12458608Y24806809D01*
X-12424499Y24934109D01*
X-12424499Y25065890D01*
X-12424499Y25065892D01*
X-12458607Y25193186D01*
X-12458608Y25193190D01*
X-12524495Y25307309D01*
X-12524497Y25307311D01*
X-12524499Y25307314D01*
X-12617685Y25400500D01*
X-12617687Y25400501D01*
X-12617689Y25400503D01*
X-12731809Y25466390D01*
X-12731807Y25466390D01*
X-12731811Y25466391D01*
X-12731813Y25466392D01*
X-12859107Y25500500D01*
X-12990891Y25500500D01*
X-13118185Y25466392D01*
X-13118187Y25466390D01*
X-13118189Y25466390D01*
X-13202700Y25417597D01*
X-13232313Y25400500D01*
X-13325499Y25307314D01*
X-13325501Y25307309D01*
X-13325502Y25307309D01*
X-13372204Y25226418D01*
X-13391391Y25193186D01*
X-13425499Y25065892D01*
X-17389892Y25065892D01*
X-16110280Y26345504D01*
X-16055763Y26373281D01*
X-16040276Y26374500D01*
X-10648321Y26374500D01*
X-10590130Y26355593D01*
G37*
%TD.AperFunction*%
%TA.AperFunction,Conductor*%
G36*
X31658691Y42680593D02*
G01*
X31694655Y42631093D01*
X31699500Y42600500D01*
X31699500Y-42600500D01*
X31680593Y-42658691D01*
X31631093Y-42694655D01*
X31600500Y-42699500D01*
X-31600500Y-42699500D01*
X-31658691Y-42680593D01*
X-31694655Y-42631093D01*
X-31699500Y-42600500D01*
X-31699500Y-39413385D01*
X-29600500Y-39413385D01*
X-29600500Y-39586614D01*
X-29573402Y-39757702D01*
X-29573401Y-39757706D01*
X-29519876Y-39922438D01*
X-29519874Y-39922440D01*
X-29519873Y-39922445D01*
X-29441232Y-40076788D01*
X-29339414Y-40216928D01*
X-29216928Y-40339414D01*
X-29076788Y-40441232D01*
X-28922445Y-40519873D01*
X-28922440Y-40519874D01*
X-28922438Y-40519876D01*
X-28757706Y-40573401D01*
X-28757702Y-40573402D01*
X-28586614Y-40600500D01*
X-28586611Y-40600500D01*
X-28413386Y-40600500D01*
X-28242297Y-40573402D01*
X-28242293Y-40573401D01*
X-28077561Y-40519876D01*
X-28077558Y-40519874D01*
X-28077557Y-40519873D01*
X-28077555Y-40519873D01*
X-27923212Y-40441232D01*
X-27783072Y-40339414D01*
X-27660586Y-40216928D01*
X-27558768Y-40076788D01*
X-27480127Y-39922445D01*
X-27480126Y-39922444D01*
X-27480125Y-39922441D01*
X-27480123Y-39922438D01*
X-27426598Y-39757706D01*
X-27426597Y-39757702D01*
X-27399500Y-39586614D01*
X-27399500Y-39413385D01*
X27399500Y-39413385D01*
X27399500Y-39586614D01*
X27426597Y-39757702D01*
X27426598Y-39757706D01*
X27480123Y-39922438D01*
X27480125Y-39922441D01*
X27480126Y-39922444D01*
X27480127Y-39922445D01*
X27558768Y-40076788D01*
X27660586Y-40216928D01*
X27783072Y-40339414D01*
X27923212Y-40441232D01*
X28077555Y-40519873D01*
X28077557Y-40519873D01*
X28077558Y-40519874D01*
X28077561Y-40519876D01*
X28242293Y-40573401D01*
X28242297Y-40573402D01*
X28413386Y-40600500D01*
X28413389Y-40600500D01*
X28586614Y-40600500D01*
X28757702Y-40573402D01*
X28757706Y-40573401D01*
X28922438Y-40519876D01*
X28922440Y-40519874D01*
X28922445Y-40519873D01*
X29076788Y-40441232D01*
X29216928Y-40339414D01*
X29339414Y-40216928D01*
X29441232Y-40076788D01*
X29519873Y-39922445D01*
X29519874Y-39922440D01*
X29519876Y-39922438D01*
X29573401Y-39757706D01*
X29573402Y-39757702D01*
X29600500Y-39586614D01*
X29600500Y-39413385D01*
X29573402Y-39242297D01*
X29573401Y-39242293D01*
X29519876Y-39077561D01*
X29519874Y-39077558D01*
X29519873Y-39077557D01*
X29519873Y-39077555D01*
X29441232Y-38923212D01*
X29339414Y-38783072D01*
X29216928Y-38660586D01*
X29076788Y-38558768D01*
X29076787Y-38558767D01*
X29076785Y-38558766D01*
X28922441Y-38480125D01*
X28922438Y-38480123D01*
X28757706Y-38426598D01*
X28757702Y-38426597D01*
X28586614Y-38399500D01*
X28586611Y-38399500D01*
X28413389Y-38399500D01*
X28413386Y-38399500D01*
X28242297Y-38426597D01*
X28242293Y-38426598D01*
X28077561Y-38480123D01*
X28077558Y-38480125D01*
X27923214Y-38558766D01*
X27783073Y-38660585D01*
X27660585Y-38783073D01*
X27558766Y-38923214D01*
X27480125Y-39077558D01*
X27480123Y-39077561D01*
X27426598Y-39242293D01*
X27426597Y-39242297D01*
X27399500Y-39413385D01*
X-27399500Y-39413385D01*
X-27426597Y-39242297D01*
X-27426598Y-39242293D01*
X-27480123Y-39077561D01*
X-27480125Y-39077558D01*
X-27558766Y-38923214D01*
X-27660585Y-38783073D01*
X-27783073Y-38660585D01*
X-27923214Y-38558766D01*
X-28077558Y-38480125D01*
X-28077561Y-38480123D01*
X-28242293Y-38426598D01*
X-28242297Y-38426597D01*
X-28413386Y-38399500D01*
X-28413389Y-38399500D01*
X-28586611Y-38399500D01*
X-28586614Y-38399500D01*
X-28757702Y-38426597D01*
X-28757706Y-38426598D01*
X-28922438Y-38480123D01*
X-28922441Y-38480125D01*
X-29076785Y-38558766D01*
X-29076787Y-38558767D01*
X-29076788Y-38558768D01*
X-29216928Y-38660586D01*
X-29339414Y-38783072D01*
X-29441232Y-38923212D01*
X-29519873Y-39077555D01*
X-29519873Y-39077557D01*
X-29519874Y-39077558D01*
X-29519876Y-39077561D01*
X-29573401Y-39242293D01*
X-29573402Y-39242297D01*
X-29600500Y-39413385D01*
X-31699500Y-39413385D01*
X-31699500Y-32245729D01*
X-25650500Y-32245729D01*
X-25650500Y-35754271D01*
X-25650499Y-35754271D01*
X-25647646Y-35784698D01*
X-25602793Y-35912881D01*
X-25522149Y-36022149D01*
X-25412881Y-36102793D01*
X-25284698Y-36147646D01*
X-25254271Y-36150499D01*
X-25254271Y-36150500D01*
X-25254264Y-36150500D01*
X-21745729Y-36150500D01*
X-21745727Y-36150499D01*
X-21715302Y-36147646D01*
X-21587119Y-36102793D01*
X-21477851Y-36022149D01*
X-21397207Y-35912881D01*
X-21397206Y-35912880D01*
X-21352355Y-35784702D01*
X-21352353Y-35784693D01*
X-21349500Y-35754272D01*
X-21349500Y-34434108D01*
X24574500Y-34434108D01*
X24574500Y-34565892D01*
X24604579Y-34678151D01*
X24608609Y-34693190D01*
X24674496Y-34807309D01*
X24674498Y-34807311D01*
X24674500Y-34807314D01*
X24767686Y-34900500D01*
X24767688Y-34900501D01*
X24767690Y-34900503D01*
X24881810Y-34966390D01*
X24881808Y-34966390D01*
X24881812Y-34966391D01*
X24881814Y-34966392D01*
X25009108Y-35000500D01*
X25009110Y-35000500D01*
X25140890Y-35000500D01*
X25140892Y-35000500D01*
X25268186Y-34966392D01*
X25268188Y-34966390D01*
X25268190Y-34966390D01*
X25382309Y-34900503D01*
X25382309Y-34900502D01*
X25382314Y-34900500D01*
X25475500Y-34807314D01*
X25541392Y-34693186D01*
X25575500Y-34565892D01*
X25575500Y-34434108D01*
X25541392Y-34306814D01*
X25541390Y-34306811D01*
X25541390Y-34306809D01*
X25475503Y-34192690D01*
X25475501Y-34192688D01*
X25475500Y-34192686D01*
X25382314Y-34099500D01*
X25382311Y-34099498D01*
X25382309Y-34099496D01*
X25268189Y-34033609D01*
X25268191Y-34033609D01*
X25218799Y-34020375D01*
X25140892Y-33999500D01*
X25009108Y-33999500D01*
X24931200Y-34020375D01*
X24881809Y-34033609D01*
X24767690Y-34099496D01*
X24674496Y-34192690D01*
X24608609Y-34306809D01*
X24608608Y-34306814D01*
X24574500Y-34434108D01*
X-21349500Y-34434108D01*
X-21349500Y-32245727D01*
X-21352353Y-32215302D01*
X-21352354Y-32215300D01*
X-21353059Y-32213285D01*
X-21353089Y-32211935D01*
X-21353639Y-32209418D01*
X-21353147Y-32209310D01*
X-21354423Y-32152115D01*
X-21329614Y-32110596D01*
X-16983814Y-27764796D01*
X-16929297Y-27737019D01*
X-16913810Y-27735800D01*
X-16884110Y-27735800D01*
X-16884108Y-27735800D01*
X-16756814Y-27701692D01*
X-16756811Y-27701690D01*
X-16756809Y-27701690D01*
X-16642690Y-27635803D01*
X-16642688Y-27635801D01*
X-16642686Y-27635800D01*
X-16621680Y-27614794D01*
X-16567166Y-27587019D01*
X-16551679Y-27585800D01*
X11940910Y-27585800D01*
X11999101Y-27604707D01*
X12010914Y-27614796D01*
X15687304Y-31291186D01*
X15715081Y-31345703D01*
X15716300Y-31361190D01*
X15716300Y-31390892D01*
X15732004Y-31449500D01*
X15750409Y-31518190D01*
X15816296Y-31632309D01*
X15816298Y-31632311D01*
X15816300Y-31632314D01*
X15909486Y-31725500D01*
X15909488Y-31725501D01*
X15909490Y-31725503D01*
X16023610Y-31791390D01*
X16023608Y-31791390D01*
X16023612Y-31791391D01*
X16023614Y-31791392D01*
X16150908Y-31825500D01*
X16150910Y-31825500D01*
X16282690Y-31825500D01*
X16282692Y-31825500D01*
X16409986Y-31791392D01*
X16409988Y-31791390D01*
X16409990Y-31791390D01*
X16524109Y-31725503D01*
X16524109Y-31725502D01*
X16524114Y-31725500D01*
X16617300Y-31632314D01*
X16683192Y-31518186D01*
X16717300Y-31390892D01*
X16717300Y-31259108D01*
X16683192Y-31131814D01*
X16683190Y-31131811D01*
X16683190Y-31131809D01*
X16617303Y-31017690D01*
X16617301Y-31017688D01*
X16617300Y-31017686D01*
X16524114Y-30924500D01*
X16524111Y-30924498D01*
X16524109Y-30924496D01*
X16409989Y-30858609D01*
X16409991Y-30858609D01*
X16360599Y-30845375D01*
X16282692Y-30824500D01*
X16282690Y-30824500D01*
X16252990Y-30824500D01*
X16194799Y-30805593D01*
X16182986Y-30795504D01*
X14325572Y-28938090D01*
X12342312Y-26954830D01*
X12262388Y-26908686D01*
X12173244Y-26884800D01*
X12173242Y-26884800D01*
X-16551679Y-26884800D01*
X-16609870Y-26865893D01*
X-16621676Y-26855809D01*
X-16642686Y-26834800D01*
X-16642686Y-26834799D01*
X-16642689Y-26834797D01*
X-16642690Y-26834796D01*
X-16756810Y-26768909D01*
X-16756808Y-26768909D01*
X-16824454Y-26750783D01*
X-16884108Y-26734800D01*
X-17015892Y-26734800D01*
X-17077624Y-26751341D01*
X-17143190Y-26768909D01*
X-17257309Y-26834796D01*
X-17257311Y-26834798D01*
X-17257314Y-26834800D01*
X-17350500Y-26927986D01*
X-17350501Y-26927988D01*
X-17350503Y-26927990D01*
X-17416390Y-27042109D01*
X-17416390Y-27042111D01*
X-17416392Y-27042114D01*
X-17450500Y-27169408D01*
X-17450500Y-27169409D01*
X-17450500Y-27199110D01*
X-17469407Y-27257301D01*
X-17479496Y-27269114D01*
X-22030886Y-31820504D01*
X-22085403Y-31848281D01*
X-22100890Y-31849500D01*
X-25254272Y-31849500D01*
X-25284693Y-31852353D01*
X-25284702Y-31852355D01*
X-25412880Y-31897206D01*
X-25412881Y-31897207D01*
X-25522149Y-31977851D01*
X-25602793Y-32087119D01*
X-25647646Y-32215302D01*
X-25648743Y-32227000D01*
X-25650499Y-32245727D01*
X-25650500Y-32245729D01*
X-31699500Y-32245729D01*
X-31699500Y-14722608D01*
X-28564000Y-14722608D01*
X-28564000Y-14854392D01*
X-28529892Y-14981686D01*
X-28464000Y-15095814D01*
X-28370814Y-15189000D01*
X-28370809Y-15189002D01*
X-28370809Y-15189003D01*
X-28256689Y-15254890D01*
X-28256688Y-15254890D01*
X-28256686Y-15254892D01*
X-28129392Y-15289000D01*
X-28129390Y-15289000D01*
X-27997610Y-15289000D01*
X-27997608Y-15289000D01*
X-27870314Y-15254892D01*
X-27870311Y-15254890D01*
X-27870309Y-15254890D01*
X-27756190Y-15189003D01*
X-27756188Y-15189001D01*
X-27756186Y-15189000D01*
X-27663000Y-15095814D01*
X-27662998Y-15095811D01*
X-27662996Y-15095809D01*
X-27597109Y-14981690D01*
X-27566024Y-14865676D01*
X-27563000Y-14854392D01*
X-27563000Y-14722608D01*
X-27597108Y-14595314D01*
X-27597109Y-14595309D01*
X-27662996Y-14481190D01*
X-27662997Y-14481189D01*
X-27663000Y-14481186D01*
X-27756186Y-14388000D01*
X-27756188Y-14387998D01*
X-27759004Y-14385183D01*
X-27786781Y-14330666D01*
X-27788000Y-14315179D01*
X-27788000Y11258175D01*
X-27769093Y11316366D01*
X-27759004Y11328179D01*
X-27021291Y12065892D01*
X-13375500Y12065892D01*
X-13375500Y11934108D01*
X-13341392Y11806814D01*
X-13341390Y11806811D01*
X-13341390Y11806809D01*
X-13275503Y11692690D01*
X-13275501Y11692688D01*
X-13275500Y11692686D01*
X-13182314Y11599500D01*
X-13182311Y11599498D01*
X-13182309Y11599496D01*
X-13068189Y11533609D01*
X-13068191Y11533609D01*
X-13020583Y11520853D01*
X-12940892Y11499500D01*
X-12940890Y11499500D01*
X-12809110Y11499500D01*
X-12809108Y11499500D01*
X-12729417Y11520853D01*
X-12681809Y11533609D01*
X-12567690Y11599496D01*
X-12474496Y11692690D01*
X-12408609Y11806809D01*
X-12374500Y11934109D01*
X-12374500Y12065890D01*
X-12374500Y12065892D01*
X-12408608Y12193186D01*
X-12408609Y12193190D01*
X-12474496Y12307309D01*
X-12474498Y12307311D01*
X-12474500Y12307314D01*
X-12567686Y12400500D01*
X-12567688Y12400501D01*
X-12567690Y12400503D01*
X-12681810Y12466390D01*
X-12681808Y12466390D01*
X-12681812Y12466391D01*
X-12681814Y12466392D01*
X-12809108Y12500500D01*
X-12940892Y12500500D01*
X-13068186Y12466392D01*
X-13068188Y12466390D01*
X-13068190Y12466390D01*
X-13182309Y12400503D01*
X-13182314Y12400500D01*
X-13275500Y12307314D01*
X-13275502Y12307309D01*
X-13275503Y12307309D01*
X-13303623Y12258603D01*
X-13341392Y12193186D01*
X-13375500Y12065892D01*
X-27021291Y12065892D01*
X-26944798Y12142385D01*
X-23455299Y15631883D01*
X-23400782Y15659660D01*
X-23340350Y15650089D01*
X-23299559Y15611379D01*
X-23242003Y15511690D01*
X-23242001Y15511688D01*
X-23242000Y15511686D01*
X-23148814Y15418500D01*
X-23148811Y15418498D01*
X-23103320Y15392233D01*
X-23062379Y15346763D01*
X-23055985Y15285912D01*
X-23086578Y15232925D01*
X-23103319Y15220762D01*
X-23138414Y15200500D01*
X-23231600Y15107314D01*
X-23231602Y15107309D01*
X-23231603Y15107309D01*
X-23291433Y15003680D01*
X-23297492Y14993186D01*
X-23331600Y14865892D01*
X-23331600Y14734108D01*
X-23297492Y14606814D01*
X-23297490Y14606811D01*
X-23297490Y14606809D01*
X-23231603Y14492690D01*
X-23231601Y14492688D01*
X-23231600Y14492686D01*
X-23138414Y14399500D01*
X-23138411Y14399498D01*
X-23138409Y14399496D01*
X-23024289Y14333609D01*
X-23024291Y14333609D01*
X-22990156Y14324463D01*
X-22896992Y14299500D01*
X-22896990Y14299500D01*
X-22761224Y14299500D01*
X-22703033Y14280593D01*
X-22691221Y14270504D01*
X-22393456Y13972740D01*
X-22292202Y13930800D01*
X-22292200Y13930800D01*
X-11312721Y13930800D01*
X-11254530Y13911893D01*
X-11242717Y13901804D01*
X-11239901Y13898988D01*
X-11239900Y13898986D01*
X-11146714Y13805800D01*
X-11146711Y13805798D01*
X-11146709Y13805796D01*
X-11032589Y13739909D01*
X-11032591Y13739909D01*
X-10983199Y13726675D01*
X-10905292Y13705800D01*
X-10905290Y13705800D01*
X-10773510Y13705800D01*
X-10773508Y13705800D01*
X-10695600Y13726675D01*
X-10646209Y13739909D01*
X-10532090Y13805796D01*
X-10532089Y13805797D01*
X-10506886Y13831000D01*
X-10438900Y13898986D01*
X-10438898Y13898988D01*
X-10436083Y13901804D01*
X-10381566Y13929581D01*
X-10366079Y13930800D01*
X4901499Y13930800D01*
X4901500Y13930800D01*
X5002758Y13972743D01*
X5013029Y13983014D01*
X5080257Y14050241D01*
X5080257Y14050242D01*
X5150196Y14120181D01*
X5204713Y14147958D01*
X5265145Y14138387D01*
X5308410Y14095122D01*
X5319200Y14050177D01*
X5319200Y-13868800D01*
X5361143Y-13970058D01*
X18130141Y-26739057D01*
X18159795Y-26751339D01*
X18159797Y-26751341D01*
X18159798Y-26751341D01*
X18195599Y-26766170D01*
X18231400Y-26781000D01*
X18231401Y-26781000D01*
X25515377Y-26781000D01*
X25573568Y-26799907D01*
X25609532Y-26849407D01*
X25609532Y-26910593D01*
X25585381Y-26950004D01*
X25341581Y-27193804D01*
X25287064Y-27221581D01*
X25271577Y-27222800D01*
X22255921Y-27222800D01*
X22197730Y-27203893D01*
X22185917Y-27193804D01*
X22183101Y-27190988D01*
X22183100Y-27190986D01*
X22089914Y-27097800D01*
X22089911Y-27097798D01*
X22089909Y-27097796D01*
X21975789Y-27031909D01*
X21975791Y-27031909D01*
X21926399Y-27018675D01*
X21848492Y-26997800D01*
X21716708Y-26997800D01*
X21638800Y-27018675D01*
X21589409Y-27031909D01*
X21475290Y-27097796D01*
X21382096Y-27190990D01*
X21316209Y-27305109D01*
X21316208Y-27305114D01*
X21282100Y-27432408D01*
X21282100Y-27564192D01*
X21292956Y-27604707D01*
X21316209Y-27691490D01*
X21382096Y-27805609D01*
X21382098Y-27805611D01*
X21382100Y-27805614D01*
X21475286Y-27898800D01*
X21475288Y-27898801D01*
X21475290Y-27898803D01*
X21589410Y-27964690D01*
X21589408Y-27964690D01*
X21589412Y-27964691D01*
X21589414Y-27964692D01*
X21716708Y-27998800D01*
X21716710Y-27998800D01*
X21848490Y-27998800D01*
X21848492Y-27998800D01*
X21975786Y-27964692D01*
X21975788Y-27964690D01*
X21975790Y-27964690D01*
X22089909Y-27898803D01*
X22089909Y-27898802D01*
X22089914Y-27898800D01*
X22183100Y-27805614D01*
X22183101Y-27805611D01*
X22185917Y-27802796D01*
X22240434Y-27775019D01*
X22255921Y-27773800D01*
X25313462Y-27773800D01*
X25371653Y-27792707D01*
X25407617Y-27842207D01*
X25407617Y-27903393D01*
X25371653Y-27952893D01*
X25330698Y-27969232D01*
X25330776Y-27969521D01*
X25328334Y-27970175D01*
X25326385Y-27970953D01*
X25324510Y-27971199D01*
X25197209Y-28005309D01*
X25083090Y-28071196D01*
X25083089Y-28071197D01*
X25083086Y-28071199D01*
X25083086Y-28071200D01*
X25062080Y-28092205D01*
X25007566Y-28119981D01*
X24992079Y-28121200D01*
X22707156Y-28121200D01*
X22618012Y-28145086D01*
X22538088Y-28191230D01*
X21019214Y-29710104D01*
X20964697Y-29737881D01*
X20949210Y-29739100D01*
X20919508Y-29739100D01*
X20841600Y-29759975D01*
X20792209Y-29773209D01*
X20678090Y-29839096D01*
X20584896Y-29932290D01*
X20519009Y-30046409D01*
X20519008Y-30046414D01*
X20484900Y-30173708D01*
X20484900Y-30305492D01*
X20503842Y-30376186D01*
X20519009Y-30432790D01*
X20584896Y-30546909D01*
X20584898Y-30546911D01*
X20584900Y-30546914D01*
X20678086Y-30640100D01*
X20678088Y-30640101D01*
X20678090Y-30640103D01*
X20792210Y-30705990D01*
X20792208Y-30705990D01*
X20792212Y-30705991D01*
X20792214Y-30705992D01*
X20919508Y-30740100D01*
X20919510Y-30740100D01*
X21051290Y-30740100D01*
X21051292Y-30740100D01*
X21178586Y-30705992D01*
X21178588Y-30705990D01*
X21178590Y-30705990D01*
X21292709Y-30640103D01*
X21292709Y-30640102D01*
X21292714Y-30640100D01*
X21385900Y-30546914D01*
X21451792Y-30432786D01*
X21485900Y-30305492D01*
X21485900Y-30275790D01*
X21504807Y-30217599D01*
X21514896Y-30205786D01*
X22869486Y-28851196D01*
X22924003Y-28823419D01*
X22939490Y-28822200D01*
X24992079Y-28822200D01*
X25050270Y-28841107D01*
X25062076Y-28851190D01*
X25083086Y-28872200D01*
X25083088Y-28872201D01*
X25083090Y-28872203D01*
X25197210Y-28938090D01*
X25197208Y-28938090D01*
X25197212Y-28938091D01*
X25197214Y-28938092D01*
X25324508Y-28972200D01*
X25324510Y-28972200D01*
X25456290Y-28972200D01*
X25456292Y-28972200D01*
X25583586Y-28938092D01*
X25583588Y-28938090D01*
X25583590Y-28938090D01*
X25697709Y-28872203D01*
X25697709Y-28872202D01*
X25697714Y-28872200D01*
X25790900Y-28779014D01*
X25856792Y-28664886D01*
X25890900Y-28537592D01*
X25890900Y-28507889D01*
X25909807Y-28449698D01*
X25919890Y-28437891D01*
X29471698Y-24886083D01*
X29526213Y-24858308D01*
X29586645Y-24867879D01*
X29629910Y-24911144D01*
X29640700Y-24956089D01*
X29640700Y-26021576D01*
X29621793Y-26079767D01*
X29611704Y-26091580D01*
X23896121Y-31807162D01*
X23841604Y-31834939D01*
X23781172Y-31825368D01*
X23737907Y-31782103D01*
X23730490Y-31762778D01*
X23728892Y-31756814D01*
X23728889Y-31756809D01*
X23663003Y-31642690D01*
X23663001Y-31642688D01*
X23663000Y-31642686D01*
X23569814Y-31549500D01*
X23569811Y-31549498D01*
X23569809Y-31549496D01*
X23455689Y-31483609D01*
X23455691Y-31483609D01*
X23406299Y-31470375D01*
X23328392Y-31449500D01*
X23196608Y-31449500D01*
X23118700Y-31470375D01*
X23069309Y-31483609D01*
X22955190Y-31549496D01*
X22861996Y-31642690D01*
X22796109Y-31756809D01*
X22796108Y-31756814D01*
X22762000Y-31884108D01*
X22762000Y-32015892D01*
X22781085Y-32087119D01*
X22796109Y-32143190D01*
X22861996Y-32257309D01*
X22861998Y-32257311D01*
X22862000Y-32257314D01*
X22955186Y-32350500D01*
X22955188Y-32350501D01*
X22955190Y-32350503D01*
X22995472Y-32373760D01*
X23036413Y-32419229D01*
X23042809Y-32480080D01*
X23012216Y-32533068D01*
X22971595Y-32555123D01*
X22844009Y-32589309D01*
X22729890Y-32655196D01*
X22636696Y-32748390D01*
X22570809Y-32862509D01*
X22556525Y-32915818D01*
X22536700Y-32989808D01*
X22536700Y-33121592D01*
X22552960Y-33182279D01*
X22549758Y-33243378D01*
X22511253Y-33290928D01*
X22457334Y-33306900D01*
X21689477Y-33306900D01*
X21631286Y-33287993D01*
X21595322Y-33238493D01*
X21595322Y-33177307D01*
X21603741Y-33158400D01*
X21641390Y-33093190D01*
X21641390Y-33093188D01*
X21641392Y-33093186D01*
X21675500Y-32965892D01*
X21675500Y-32834108D01*
X21641392Y-32706814D01*
X21641390Y-32706811D01*
X21641390Y-32706809D01*
X21575503Y-32592690D01*
X21575501Y-32592688D01*
X21575500Y-32592686D01*
X21482314Y-32499500D01*
X21482311Y-32499498D01*
X21482309Y-32499496D01*
X21368189Y-32433609D01*
X21368191Y-32433609D01*
X21303934Y-32416392D01*
X21240892Y-32399500D01*
X21109108Y-32399500D01*
X21046066Y-32416392D01*
X20981809Y-32433609D01*
X20867690Y-32499496D01*
X20774496Y-32592690D01*
X20708609Y-32706809D01*
X20708608Y-32706814D01*
X20674500Y-32834108D01*
X20674500Y-32965892D01*
X20694386Y-33040107D01*
X20708609Y-33093190D01*
X20746259Y-33158400D01*
X20758981Y-33218248D01*
X20734095Y-33274144D01*
X20681107Y-33304736D01*
X20660523Y-33306900D01*
X14915208Y-33306900D01*
X14857017Y-33287993D01*
X14821053Y-33238493D01*
X14821053Y-33177307D01*
X14857017Y-33127807D01*
X14889583Y-33112273D01*
X14958186Y-33093892D01*
X14958188Y-33093890D01*
X14958190Y-33093890D01*
X15072309Y-33028003D01*
X15072309Y-33028002D01*
X15072314Y-33028000D01*
X15165500Y-32934814D01*
X15169647Y-32927631D01*
X15231390Y-32820690D01*
X15231390Y-32820688D01*
X15231392Y-32820686D01*
X15265500Y-32693392D01*
X15265500Y-32561608D01*
X15231392Y-32434314D01*
X15231390Y-32434311D01*
X15231390Y-32434309D01*
X15165503Y-32320190D01*
X15165501Y-32320188D01*
X15165500Y-32320186D01*
X15072314Y-32227000D01*
X15072311Y-32226998D01*
X15072309Y-32226996D01*
X14958189Y-32161109D01*
X14958191Y-32161109D01*
X14891314Y-32143190D01*
X14830892Y-32127000D01*
X14699108Y-32127000D01*
X14695124Y-32127000D01*
X14636933Y-32108093D01*
X14625120Y-32098004D01*
X14159425Y-31632309D01*
X12476558Y-29949443D01*
X12476556Y-29949442D01*
X12476555Y-29949441D01*
X12446729Y-29937087D01*
X12446728Y-29937087D01*
X12375300Y-29907500D01*
X12375299Y-29907500D01*
X1473321Y-29907500D01*
X1415130Y-29888593D01*
X1403317Y-29878504D01*
X1400501Y-29875688D01*
X1400500Y-29875686D01*
X1307314Y-29782500D01*
X1307311Y-29782498D01*
X1307309Y-29782496D01*
X1193189Y-29716609D01*
X1193191Y-29716609D01*
X1143799Y-29703375D01*
X1065892Y-29682500D01*
X934108Y-29682500D01*
X856200Y-29703375D01*
X806809Y-29716609D01*
X692690Y-29782496D01*
X599496Y-29875690D01*
X533609Y-29989809D01*
X518442Y-30046414D01*
X499500Y-30117108D01*
X499500Y-30248892D01*
X514666Y-30305492D01*
X533609Y-30376190D01*
X599496Y-30490309D01*
X599498Y-30490311D01*
X599500Y-30490314D01*
X692686Y-30583500D01*
X692688Y-30583501D01*
X692690Y-30583503D01*
X806810Y-30649390D01*
X806808Y-30649390D01*
X806812Y-30649391D01*
X806814Y-30649392D01*
X934108Y-30683500D01*
X934110Y-30683500D01*
X1065890Y-30683500D01*
X1065892Y-30683500D01*
X1193186Y-30649392D01*
X1193188Y-30649390D01*
X1193190Y-30649390D01*
X1307309Y-30583503D01*
X1307309Y-30583502D01*
X1307314Y-30583500D01*
X1400500Y-30490314D01*
X1400501Y-30490311D01*
X1403317Y-30487496D01*
X1457834Y-30459719D01*
X1473321Y-30458500D01*
X12165377Y-30458500D01*
X12223568Y-30477407D01*
X12235381Y-30487496D01*
X12394223Y-30646338D01*
X12422000Y-30700855D01*
X12412429Y-30761287D01*
X12373720Y-30802078D01*
X12298688Y-30845398D01*
X12205496Y-30938590D01*
X12139609Y-31052709D01*
X12105500Y-31180009D01*
X12105500Y-31315776D01*
X12086593Y-31373967D01*
X12076504Y-31385780D01*
X11070581Y-32391704D01*
X11016064Y-32419481D01*
X11000577Y-32420700D01*
X-6821979Y-32420700D01*
X-6880170Y-32401793D01*
X-6891983Y-32391704D01*
X-6894798Y-32388888D01*
X-6894800Y-32388886D01*
X-6987986Y-32295700D01*
X-6987986Y-32295699D01*
X-6987989Y-32295697D01*
X-6987990Y-32295696D01*
X-7102110Y-32229809D01*
X-7102108Y-32229809D01*
X-7169754Y-32211683D01*
X-7229408Y-32195700D01*
X-7361192Y-32195700D01*
X-7434348Y-32215302D01*
X-7488490Y-32229809D01*
X-7602609Y-32295696D01*
X-7602611Y-32295698D01*
X-7602614Y-32295700D01*
X-7695800Y-32388886D01*
X-7695801Y-32388888D01*
X-7695803Y-32388890D01*
X-7761690Y-32503009D01*
X-7761690Y-32503011D01*
X-7761692Y-32503014D01*
X-7795800Y-32630308D01*
X-7795800Y-32762092D01*
X-7761692Y-32889386D01*
X-7761690Y-32889388D01*
X-7761690Y-32889390D01*
X-7738384Y-32929757D01*
X-7695800Y-33003514D01*
X-7602614Y-33096700D01*
X-7495747Y-33158400D01*
X-7488489Y-33162590D01*
X-7488488Y-33162590D01*
X-7488486Y-33162592D01*
X-7361192Y-33196700D01*
X-7361190Y-33196700D01*
X-7229410Y-33196700D01*
X-7229408Y-33196700D01*
X-7102114Y-33162592D01*
X-7102111Y-33162590D01*
X-7102109Y-33162590D01*
X-6987990Y-33096703D01*
X-6987988Y-33096701D01*
X-6987986Y-33096700D01*
X-6894800Y-33003514D01*
X-6894798Y-33003511D01*
X-6891983Y-33000696D01*
X-6837466Y-32972919D01*
X-6821979Y-32971700D01*
X9809679Y-32971700D01*
X9867870Y-32990607D01*
X9903834Y-33040107D01*
X9903834Y-33101293D01*
X9879684Y-33140701D01*
X9843079Y-33177307D01*
X9813397Y-33206989D01*
X9813396Y-33206990D01*
X9747509Y-33321109D01*
X9747508Y-33321114D01*
X9713400Y-33448408D01*
X9713400Y-33580192D01*
X9743479Y-33692451D01*
X9747509Y-33707490D01*
X9813396Y-33821609D01*
X9813398Y-33821611D01*
X9813400Y-33821614D01*
X9906586Y-33914800D01*
X9906588Y-33914801D01*
X9906590Y-33914803D01*
X10020710Y-33980690D01*
X10020708Y-33980690D01*
X10020712Y-33980691D01*
X10020714Y-33980692D01*
X10148008Y-34014800D01*
X10148010Y-34014800D01*
X10279790Y-34014800D01*
X10279792Y-34014800D01*
X10407086Y-33980692D01*
X10407088Y-33980690D01*
X10407090Y-33980690D01*
X10521209Y-33914803D01*
X10521209Y-33914802D01*
X10521214Y-33914800D01*
X10535167Y-33900846D01*
X10549120Y-33886895D01*
X10603636Y-33859119D01*
X10619122Y-33857900D01*
X24468499Y-33857900D01*
X24468500Y-33857900D01*
X24569758Y-33815957D01*
X24647257Y-33738458D01*
X28132518Y-30253195D01*
X28187035Y-30225419D01*
X28202522Y-30224200D01*
X28338290Y-30224200D01*
X28338292Y-30224200D01*
X28465586Y-30190092D01*
X28465588Y-30190090D01*
X28465590Y-30190090D01*
X28579709Y-30124203D01*
X28579709Y-30124202D01*
X28579714Y-30124200D01*
X28672900Y-30031014D01*
X28719995Y-29949443D01*
X28738790Y-29916890D01*
X28738790Y-29916888D01*
X28738792Y-29916886D01*
X28772900Y-29789592D01*
X28772900Y-29657808D01*
X28738792Y-29530514D01*
X28738790Y-29530511D01*
X28738790Y-29530509D01*
X28672903Y-29416390D01*
X28672901Y-29416388D01*
X28672900Y-29416386D01*
X28579714Y-29323200D01*
X28579711Y-29323198D01*
X28579709Y-29323196D01*
X28465589Y-29257309D01*
X28465591Y-29257309D01*
X28416199Y-29244075D01*
X28338292Y-29223200D01*
X28206508Y-29223200D01*
X28128600Y-29244075D01*
X28079209Y-29257309D01*
X27965090Y-29323196D01*
X27871896Y-29416390D01*
X27806009Y-29530509D01*
X27771900Y-29657809D01*
X27771900Y-29793576D01*
X27752993Y-29851767D01*
X27742904Y-29863580D01*
X24328581Y-33277904D01*
X24274064Y-33305681D01*
X24258577Y-33306900D01*
X23617066Y-33306900D01*
X23558875Y-33287993D01*
X23522911Y-33238493D01*
X23521439Y-33182279D01*
X23537700Y-33121592D01*
X23537700Y-32989808D01*
X23537700Y-32985822D01*
X23556607Y-32927631D01*
X23566696Y-32915818D01*
X25170722Y-31311792D01*
X30149757Y-26332759D01*
X30162041Y-26303100D01*
X30191700Y-26231500D01*
X30191700Y-20120200D01*
X30174850Y-20079520D01*
X30149758Y-20018942D01*
X27260258Y-17129443D01*
X27159000Y-17087500D01*
X27158999Y-17087500D01*
X23192400Y-17087500D01*
X23134209Y-17068593D01*
X23098245Y-17019093D01*
X23093400Y-16988500D01*
X23093400Y-9255930D01*
X29349500Y-9255930D01*
X29349500Y-9384069D01*
X29374499Y-9509742D01*
X29374500Y-9509747D01*
X29423534Y-9628125D01*
X29423538Y-9628133D01*
X29466365Y-9692226D01*
X29494724Y-9734669D01*
X29585331Y-9825276D01*
X29648848Y-9867717D01*
X29691866Y-9896461D01*
X29691870Y-9896463D01*
X29691873Y-9896465D01*
X29810256Y-9945501D01*
X29935931Y-9970500D01*
X29935932Y-9970500D01*
X30064068Y-9970500D01*
X30064069Y-9970500D01*
X30189744Y-9945501D01*
X30308127Y-9896465D01*
X30414669Y-9825276D01*
X30505276Y-9734669D01*
X30576465Y-9628127D01*
X30625501Y-9509744D01*
X30650500Y-9384069D01*
X30650500Y-9255931D01*
X30625501Y-9130256D01*
X30576465Y-9011873D01*
X30576463Y-9011870D01*
X30576461Y-9011866D01*
X30547717Y-8968848D01*
X30505276Y-8905331D01*
X30414669Y-8814724D01*
X30372226Y-8786365D01*
X30308133Y-8743538D01*
X30308125Y-8743534D01*
X30189747Y-8694500D01*
X30189745Y-8694499D01*
X30189744Y-8694499D01*
X30064069Y-8669500D01*
X29935931Y-8669500D01*
X29935930Y-8669500D01*
X29873093Y-8681999D01*
X29810256Y-8694499D01*
X29810255Y-8694499D01*
X29810252Y-8694500D01*
X29691874Y-8743534D01*
X29691866Y-8743538D01*
X29585331Y-8814724D01*
X29585327Y-8814727D01*
X29494727Y-8905327D01*
X29494724Y-8905331D01*
X29423538Y-9011866D01*
X29423534Y-9011874D01*
X29374500Y-9130252D01*
X29374499Y-9130257D01*
X29349500Y-9255930D01*
X23093400Y-9255930D01*
X23093400Y3603599D01*
X23093400Y3603600D01*
X23051457Y3704858D01*
X22973958Y3782357D01*
X16515423Y10240892D01*
X25099500Y10240892D01*
X25099500Y10240890D01*
X25099500Y10109109D01*
X25133609Y9981809D01*
X25199496Y9867690D01*
X25292690Y9774496D01*
X25406810Y9708609D01*
X25406808Y9708609D01*
X25474454Y9690483D01*
X25534108Y9674500D01*
X25534110Y9674500D01*
X25665890Y9674500D01*
X25665892Y9674500D01*
X25793186Y9708608D01*
X25793190Y9708609D01*
X25907309Y9774496D01*
X25907311Y9774498D01*
X25907314Y9774500D01*
X26000500Y9867686D01*
X26000501Y9867688D01*
X26000503Y9867690D01*
X26066390Y9981809D01*
X26066390Y9981811D01*
X26066392Y9981814D01*
X26100500Y10109108D01*
X26100500Y10240892D01*
X26066392Y10368186D01*
X26037285Y10418600D01*
X26000503Y10482309D01*
X26000502Y10482309D01*
X26000500Y10482314D01*
X25907314Y10575500D01*
X25793189Y10641390D01*
X25793188Y10641390D01*
X25793186Y10641392D01*
X25665892Y10675500D01*
X25534108Y10675500D01*
X25406814Y10641392D01*
X25406811Y10641390D01*
X25406809Y10641390D01*
X25292690Y10575503D01*
X25292688Y10575501D01*
X25292686Y10575500D01*
X25199500Y10482314D01*
X25199498Y10482311D01*
X25199496Y10482309D01*
X25133609Y10368190D01*
X25133608Y10368186D01*
X25099500Y10240892D01*
X16515423Y10240892D01*
X13015423Y13740892D01*
X22899500Y13740892D01*
X22899500Y13609108D01*
X22911556Y13564114D01*
X22933609Y13481809D01*
X22999496Y13367690D01*
X23092690Y13274496D01*
X23206810Y13208609D01*
X23206808Y13208609D01*
X23274454Y13190483D01*
X23334108Y13174500D01*
X23334110Y13174500D01*
X23465890Y13174500D01*
X23465892Y13174500D01*
X23550754Y13197238D01*
X23593187Y13208608D01*
X23650501Y13241698D01*
X23710349Y13254419D01*
X23749499Y13241698D01*
X23806812Y13208608D01*
X23870461Y13191554D01*
X23934108Y13174500D01*
X23934110Y13174500D01*
X24065890Y13174500D01*
X24065892Y13174500D01*
X24193186Y13208608D01*
X24193190Y13208609D01*
X24307309Y13274496D01*
X24307311Y13274498D01*
X24307314Y13274500D01*
X24400500Y13367686D01*
X24400501Y13367688D01*
X24400503Y13367690D01*
X24466390Y13481809D01*
X24466390Y13481811D01*
X24466392Y13481814D01*
X24500500Y13609108D01*
X24500500Y13740892D01*
X24466392Y13868186D01*
X24461990Y13875810D01*
X24400503Y13982309D01*
X24400502Y13982309D01*
X24400500Y13982314D01*
X24307314Y14075500D01*
X24295049Y14082581D01*
X24215242Y14128658D01*
X24193189Y14141390D01*
X24193188Y14141390D01*
X24193186Y14141392D01*
X24065892Y14175500D01*
X23934108Y14175500D01*
X23806814Y14141392D01*
X23749498Y14108300D01*
X23689654Y14095579D01*
X23650503Y14108299D01*
X23593186Y14141392D01*
X23465892Y14175500D01*
X23334108Y14175500D01*
X23206814Y14141392D01*
X23206811Y14141390D01*
X23206809Y14141390D01*
X23092690Y14075503D01*
X23092688Y14075501D01*
X23092686Y14075500D01*
X22999500Y13982314D01*
X22999498Y13982311D01*
X22999496Y13982309D01*
X22933609Y13868190D01*
X22933608Y13868186D01*
X22899500Y13740892D01*
X13015423Y13740892D01*
X9454758Y17301557D01*
X9441721Y17306957D01*
X9353500Y17343500D01*
X9353499Y17343500D01*
X8960955Y17343500D01*
X8902764Y17362407D01*
X8866800Y17411907D01*
X8865328Y17468121D01*
X8888100Y17553108D01*
X8888100Y17684892D01*
X8888100Y17688877D01*
X8907007Y17747068D01*
X8917091Y17758875D01*
X8984155Y17825940D01*
X9038672Y17853717D01*
X9099104Y17844146D01*
X9139895Y17805437D01*
X9152798Y17783088D01*
X9245990Y17689896D01*
X9360110Y17624009D01*
X9360108Y17624009D01*
X9427754Y17605883D01*
X9487408Y17589900D01*
X9487410Y17589900D01*
X9619190Y17589900D01*
X9619192Y17589900D01*
X9746486Y17624008D01*
X9746490Y17624009D01*
X9860609Y17689896D01*
X9860611Y17689898D01*
X9860614Y17689900D01*
X9953800Y17783086D01*
X9994265Y17853174D01*
X10039734Y17894114D01*
X10100584Y17900510D01*
X10150005Y17873677D01*
X13213643Y14810041D01*
X13242937Y14797908D01*
X13242938Y14797908D01*
X13314900Y14768100D01*
X24983679Y14768100D01*
X25041870Y14749193D01*
X25053683Y14739104D01*
X25056498Y14736288D01*
X25056500Y14736286D01*
X25122172Y14670614D01*
X25149689Y14643097D01*
X25149690Y14643096D01*
X25263810Y14577209D01*
X25263808Y14577209D01*
X25325856Y14560584D01*
X25391108Y14543100D01*
X25391110Y14543100D01*
X25522890Y14543100D01*
X25522892Y14543100D01*
X25650186Y14577208D01*
X25650190Y14577209D01*
X25764309Y14643096D01*
X25764311Y14643098D01*
X25764314Y14643100D01*
X25857500Y14736286D01*
X25857501Y14736288D01*
X25857503Y14736290D01*
X25923390Y14850409D01*
X25923390Y14850411D01*
X25923392Y14850414D01*
X25957500Y14977708D01*
X25957500Y15109492D01*
X25923392Y15236786D01*
X25870725Y15328007D01*
X25857503Y15350909D01*
X25857502Y15350909D01*
X25857500Y15350914D01*
X25764314Y15444100D01*
X25650189Y15509990D01*
X25650188Y15509990D01*
X25650186Y15509992D01*
X25522892Y15544100D01*
X25391108Y15544100D01*
X25263814Y15509992D01*
X25263811Y15509990D01*
X25263809Y15509990D01*
X25149690Y15444103D01*
X25149688Y15444101D01*
X25149686Y15444100D01*
X25056500Y15350914D01*
X25056498Y15350911D01*
X25053683Y15348096D01*
X24999166Y15320319D01*
X24983679Y15319100D01*
X13524824Y15319100D01*
X13466633Y15338007D01*
X13454820Y15348096D01*
X12915516Y15887400D01*
X10985241Y17817673D01*
X10957466Y17872188D01*
X10967037Y17932620D01*
X11005747Y17973411D01*
X11067209Y18008896D01*
X11067211Y18008898D01*
X11067214Y18008900D01*
X11160400Y18102086D01*
X11160401Y18102088D01*
X11163217Y18104904D01*
X11217734Y18132681D01*
X11233221Y18133900D01*
X23617499Y18133900D01*
X23617500Y18133900D01*
X23718758Y18175843D01*
X23723529Y18180614D01*
X23796257Y18253341D01*
X23796257Y18253342D01*
X29329520Y23786604D01*
X29384037Y23814381D01*
X29399524Y23815600D01*
X29535290Y23815600D01*
X29535292Y23815600D01*
X29662586Y23849708D01*
X29662590Y23849709D01*
X29776709Y23915596D01*
X29776711Y23915598D01*
X29776714Y23915600D01*
X29869900Y24008786D01*
X29869901Y24008788D01*
X29869903Y24008790D01*
X29935790Y24122909D01*
X29935790Y24122911D01*
X29935792Y24122914D01*
X29969900Y24250208D01*
X29969900Y24381992D01*
X29935792Y24509286D01*
X29869900Y24623414D01*
X29776714Y24716600D01*
X29662589Y24782490D01*
X29662588Y24782490D01*
X29662586Y24782492D01*
X29535292Y24816600D01*
X29403508Y24816600D01*
X29276214Y24782492D01*
X29276211Y24782490D01*
X29276209Y24782490D01*
X29162090Y24716603D01*
X29162088Y24716601D01*
X29162086Y24716600D01*
X29068900Y24623414D01*
X29068898Y24623411D01*
X29068896Y24623409D01*
X29003009Y24509290D01*
X29003008Y24509286D01*
X28968900Y24381992D01*
X28968900Y24381990D01*
X28968900Y24246223D01*
X28949993Y24188032D01*
X28939909Y24176225D01*
X26177589Y21413904D01*
X23477581Y18713896D01*
X23423064Y18686119D01*
X23407577Y18684900D01*
X20091937Y18684900D01*
X20033746Y18703807D01*
X19997782Y18753307D01*
X19997782Y18814493D01*
X20033746Y18863993D01*
X20042437Y18869636D01*
X20050509Y18874296D01*
X20050511Y18874298D01*
X20050514Y18874300D01*
X20143700Y18967486D01*
X20143701Y18967488D01*
X20143703Y18967490D01*
X20209590Y19081609D01*
X20209590Y19081611D01*
X20209592Y19081614D01*
X20243700Y19208908D01*
X20243700Y19340692D01*
X20239032Y19358112D01*
X20242232Y19419211D01*
X20280736Y19466763D01*
X20309032Y19479362D01*
X20333088Y19485808D01*
X20333089Y19485809D01*
X20447209Y19551696D01*
X20447211Y19551698D01*
X20447214Y19551700D01*
X20540400Y19644886D01*
X20540401Y19644888D01*
X20540403Y19644890D01*
X20606290Y19759009D01*
X20606290Y19759011D01*
X20606292Y19759014D01*
X20640400Y19886308D01*
X20640400Y20018092D01*
X20606292Y20145386D01*
X20563045Y20220291D01*
X20540403Y20259509D01*
X20540402Y20259509D01*
X20540400Y20259514D01*
X20447214Y20352700D01*
X20333089Y20418590D01*
X20333088Y20418590D01*
X20333086Y20418592D01*
X20205792Y20452700D01*
X20074008Y20452700D01*
X20070023Y20452700D01*
X20011832Y20471607D01*
X20000019Y20481696D01*
X19400088Y21081627D01*
X19336573Y21145142D01*
X24353750Y21145142D01*
X24353750Y21145140D01*
X24353750Y21013359D01*
X24387859Y20886059D01*
X24453746Y20771940D01*
X24546940Y20678746D01*
X24661060Y20612859D01*
X24661058Y20612859D01*
X24728704Y20594733D01*
X24788358Y20578750D01*
X24788360Y20578750D01*
X24920140Y20578750D01*
X24920142Y20578750D01*
X25047436Y20612858D01*
X25047440Y20612859D01*
X25161559Y20678746D01*
X25161561Y20678748D01*
X25161564Y20678750D01*
X25254750Y20771936D01*
X25254751Y20771938D01*
X25254753Y20771940D01*
X25320640Y20886059D01*
X25320640Y20886061D01*
X25320642Y20886064D01*
X25354750Y21013358D01*
X25354750Y21145142D01*
X25320642Y21272436D01*
X25254750Y21386564D01*
X25161564Y21479750D01*
X25047439Y21545640D01*
X25047438Y21545640D01*
X25047436Y21545642D01*
X24920142Y21579750D01*
X24788358Y21579750D01*
X24661064Y21545642D01*
X24661061Y21545640D01*
X24661059Y21545640D01*
X24546940Y21479753D01*
X24546938Y21479751D01*
X24546936Y21479750D01*
X24453750Y21386564D01*
X24453748Y21386561D01*
X24453746Y21386559D01*
X24387859Y21272440D01*
X24387858Y21272436D01*
X24353750Y21145142D01*
X19336573Y21145142D01*
X17765323Y22716392D01*
X12788158Y27693557D01*
X12686900Y27735500D01*
X12686899Y27735500D01*
X2589087Y27735500D01*
X2530896Y27754407D01*
X2497623Y27796614D01*
X2430941Y27957597D01*
X2430941Y27957598D01*
X2315977Y28129655D01*
X2169655Y28275977D01*
X1997598Y28390941D01*
X1806420Y28470130D01*
X1603465Y28510500D01*
X1396535Y28510500D01*
X1193580Y28470130D01*
X1002402Y28390941D01*
X830345Y28275977D01*
X684023Y28129655D01*
X684020Y28129651D01*
X569058Y27957597D01*
X489869Y27766418D01*
X449500Y27563467D01*
X449500Y27356532D01*
X489869Y27153581D01*
X569058Y26962402D01*
X684020Y26790348D01*
X830348Y26644020D01*
X1002402Y26529058D01*
X1193581Y26449869D01*
X1396532Y26409500D01*
X1396535Y26409500D01*
X1603467Y26409500D01*
X1806418Y26449869D01*
X1997597Y26529058D01*
X2169651Y26644020D01*
X2169655Y26644023D01*
X2315977Y26790345D01*
X2430941Y26962402D01*
X2497623Y27123386D01*
X2537360Y27169911D01*
X2589087Y27184500D01*
X12476977Y27184500D01*
X12535168Y27165593D01*
X12546980Y27155504D01*
X14395170Y25307314D01*
X19610404Y20092079D01*
X19638181Y20037562D01*
X19639400Y20022075D01*
X19639400Y20007222D01*
X19620493Y19949031D01*
X19570993Y19913067D01*
X19509807Y19913067D01*
X19470398Y19937216D01*
X14254058Y25153557D01*
X14254054Y25153558D01*
X14254054Y25153559D01*
X14251575Y25154586D01*
X14251566Y25154589D01*
X14152800Y25195500D01*
X14152799Y25195500D01*
X2589087Y25195500D01*
X2530896Y25214407D01*
X2497623Y25256614D01*
X2430941Y25417597D01*
X2430941Y25417598D01*
X2315977Y25589655D01*
X2169655Y25735977D01*
X1997598Y25850941D01*
X1806420Y25930130D01*
X1603465Y25970500D01*
X1396535Y25970500D01*
X1193580Y25930130D01*
X1002402Y25850941D01*
X830345Y25735977D01*
X684023Y25589655D01*
X684020Y25589651D01*
X569058Y25417597D01*
X489869Y25226418D01*
X449500Y25023467D01*
X449500Y24816532D01*
X489869Y24613581D01*
X569058Y24422402D01*
X684020Y24250348D01*
X830353Y24104015D01*
X833996Y24101026D01*
X866982Y24049493D01*
X863378Y23988414D01*
X824561Y23941119D01*
X771189Y23925500D01*
X-7019876Y23925500D01*
X-7078067Y23944407D01*
X-7089880Y23954496D01*
X-9645504Y26510119D01*
X-9673281Y26564636D01*
X-9674500Y26580123D01*
X-9674500Y26715890D01*
X-9674500Y26715892D01*
X-9708608Y26843186D01*
X-9708609Y26843190D01*
X-9774496Y26957309D01*
X-9774498Y26957311D01*
X-9774500Y26957314D01*
X-9867686Y27050500D01*
X-9867689Y27050502D01*
X-9867690Y27050503D01*
X-9981810Y27116390D01*
X-9981808Y27116390D01*
X-9981812Y27116391D01*
X-9981814Y27116392D01*
X-10109108Y27150500D01*
X-10240892Y27150500D01*
X-10368186Y27116392D01*
X-10368188Y27116390D01*
X-10368190Y27116390D01*
X-10482309Y27050503D01*
X-10482314Y27050500D01*
X-10575500Y26957314D01*
X-10575501Y26957311D01*
X-10578317Y26954496D01*
X-10632834Y26926719D01*
X-10648321Y26925500D01*
X-16250200Y26925500D01*
X-16321628Y26895913D01*
X-16351459Y26883557D01*
X-23863658Y19371357D01*
X-23941157Y19293858D01*
X-23983100Y19192600D01*
X-23983100Y18108900D01*
X-23950974Y18031343D01*
X-23941157Y18007642D01*
X-23941156Y18007641D01*
X-23362196Y17428680D01*
X-23334419Y17374163D01*
X-23333200Y17358676D01*
X-23333200Y17354692D01*
X-23333200Y17222908D01*
X-23299092Y17095614D01*
X-23299090Y17095611D01*
X-23299090Y17095609D01*
X-23233203Y16981490D01*
X-23233201Y16981488D01*
X-23233200Y16981486D01*
X-23140014Y16888300D01*
X-23140009Y16888297D01*
X-23137973Y16886735D01*
X-23136928Y16885215D01*
X-23135425Y16883712D01*
X-23135703Y16883433D01*
X-23103313Y16836313D01*
X-23104910Y16775149D01*
X-23128228Y16738186D01*
X-28219558Y11646857D01*
X-28297057Y11569358D01*
X-28339000Y11468100D01*
X-28339000Y11468099D01*
X-28339000Y-14315179D01*
X-28357907Y-14373370D01*
X-28367996Y-14385183D01*
X-28370811Y-14387998D01*
X-28370814Y-14388000D01*
X-28464000Y-14481186D01*
X-28464001Y-14481188D01*
X-28464003Y-14481190D01*
X-28529890Y-14595309D01*
X-28529890Y-14595311D01*
X-28529892Y-14595314D01*
X-28564000Y-14722608D01*
X-31699500Y-14722608D01*
X-31699500Y18165892D01*
X-25650500Y18165892D01*
X-25650500Y18034108D01*
X-25616392Y17906814D01*
X-25616390Y17906811D01*
X-25616390Y17906809D01*
X-25550503Y17792690D01*
X-25550501Y17792688D01*
X-25550500Y17792686D01*
X-25457314Y17699500D01*
X-25457311Y17699498D01*
X-25457309Y17699496D01*
X-25343189Y17633609D01*
X-25343191Y17633609D01*
X-25307362Y17624009D01*
X-25215892Y17599500D01*
X-25215890Y17599500D01*
X-25084110Y17599500D01*
X-25084108Y17599500D01*
X-24992638Y17624009D01*
X-24956809Y17633609D01*
X-24842690Y17699496D01*
X-24749496Y17792690D01*
X-24683609Y17906809D01*
X-24656592Y18007641D01*
X-24649500Y18034108D01*
X-24649500Y18165892D01*
X-24683608Y18293186D01*
X-24683609Y18293190D01*
X-24749496Y18407309D01*
X-24749498Y18407311D01*
X-24749500Y18407314D01*
X-24842686Y18500500D01*
X-24842688Y18500501D01*
X-24842690Y18500503D01*
X-24956810Y18566390D01*
X-24956808Y18566390D01*
X-24956812Y18566391D01*
X-24956814Y18566392D01*
X-25084108Y18600500D01*
X-25215892Y18600500D01*
X-25343186Y18566392D01*
X-25343188Y18566390D01*
X-25343190Y18566390D01*
X-25407781Y18529098D01*
X-25457314Y18500500D01*
X-25550500Y18407314D01*
X-25550502Y18407309D01*
X-25550503Y18407309D01*
X-25607892Y18307908D01*
X-25616392Y18293186D01*
X-25650500Y18165892D01*
X-31699500Y18165892D01*
X-31699500Y30869746D01*
X449500Y30869746D01*
X449500Y29130253D01*
X449501Y29130241D01*
X461132Y29071772D01*
X461134Y29071766D01*
X505445Y29005451D01*
X505451Y29005445D01*
X571766Y28961134D01*
X571772Y28961132D01*
X630241Y28949501D01*
X630251Y28949500D01*
X630252Y28949500D01*
X630253Y28949500D01*
X2369747Y28949500D01*
X2369748Y28949500D01*
X2369758Y28949501D01*
X2428227Y28961132D01*
X2428228Y28961132D01*
X2428231Y28961133D01*
X2428233Y28961134D01*
X2494548Y29005445D01*
X2494552Y29005448D01*
X2538867Y29071769D01*
X2550500Y29130252D01*
X2550500Y29400500D01*
X2569407Y29458691D01*
X2618907Y29494655D01*
X2649500Y29499500D01*
X2665890Y29499500D01*
X2665892Y29499500D01*
X2793186Y29533608D01*
X2793190Y29533609D01*
X2907309Y29599496D01*
X2907311Y29599498D01*
X2907314Y29599500D01*
X3000500Y29692686D01*
X3000501Y29692688D01*
X3000503Y29692690D01*
X3066390Y29806809D01*
X3066390Y29806811D01*
X3066392Y29806814D01*
X3100500Y29934108D01*
X3100500Y30065892D01*
X3066392Y30193186D01*
X3000500Y30307314D01*
X2907314Y30400500D01*
X2793189Y30466390D01*
X2793188Y30466390D01*
X2793186Y30466392D01*
X2665892Y30500500D01*
X2665890Y30500500D01*
X2649500Y30500500D01*
X2591309Y30519407D01*
X2555345Y30568907D01*
X2550500Y30599500D01*
X2550500Y30869746D01*
X2550498Y30869758D01*
X2538867Y30928231D01*
X2494552Y30994552D01*
X2428231Y31038867D01*
X2369748Y31050500D01*
X630252Y31050500D01*
X630246Y31050498D01*
X630241Y31050498D01*
X616231Y31047711D01*
X571769Y31038867D01*
X505448Y30994552D01*
X505445Y30994548D01*
X461134Y30928233D01*
X461132Y30928227D01*
X449501Y30869758D01*
X449500Y30869746D01*
X-31699500Y30869746D01*
X-31699500Y35165892D01*
X27574500Y35165892D01*
X27574500Y35165890D01*
X27574500Y35034109D01*
X27608609Y34906809D01*
X27674496Y34792690D01*
X27767690Y34699496D01*
X27881810Y34633609D01*
X27881808Y34633609D01*
X27949454Y34615483D01*
X28009108Y34599500D01*
X28009110Y34599500D01*
X28140890Y34599500D01*
X28140892Y34599500D01*
X28268186Y34633608D01*
X28268190Y34633609D01*
X28382309Y34699496D01*
X28382311Y34699498D01*
X28382314Y34699500D01*
X28475500Y34792686D01*
X28475501Y34792688D01*
X28475503Y34792690D01*
X28541390Y34906809D01*
X28541390Y34906811D01*
X28541392Y34906814D01*
X28575500Y35034108D01*
X28575500Y35165892D01*
X28541392Y35293186D01*
X28475500Y35407314D01*
X28382314Y35500500D01*
X28268189Y35566390D01*
X28268188Y35566390D01*
X28268186Y35566392D01*
X28140892Y35600500D01*
X28009108Y35600500D01*
X27881814Y35566392D01*
X27881811Y35566390D01*
X27881809Y35566390D01*
X27767690Y35500503D01*
X27767688Y35500501D01*
X27767686Y35500500D01*
X27674500Y35407314D01*
X27674498Y35407311D01*
X27674496Y35407309D01*
X27608609Y35293190D01*
X27608608Y35293186D01*
X27574500Y35165892D01*
X-31699500Y35165892D01*
X-31699500Y36965892D01*
X4299500Y36965892D01*
X4299500Y36965890D01*
X4299500Y36834109D01*
X4333609Y36706809D01*
X4399496Y36592690D01*
X4492690Y36499496D01*
X4606810Y36433609D01*
X4606808Y36433609D01*
X4674454Y36415483D01*
X4734108Y36399500D01*
X4734110Y36399500D01*
X4865890Y36399500D01*
X4865892Y36399500D01*
X4993186Y36433608D01*
X4993190Y36433609D01*
X5107309Y36499496D01*
X5107311Y36499498D01*
X5107314Y36499500D01*
X5178319Y36570505D01*
X5232834Y36598281D01*
X5248321Y36599500D01*
X7151679Y36599500D01*
X7209870Y36580593D01*
X7221676Y36570509D01*
X7292686Y36499500D01*
X7292689Y36499497D01*
X7292690Y36499496D01*
X7406810Y36433609D01*
X7406808Y36433609D01*
X7474454Y36415483D01*
X7534108Y36399500D01*
X7534110Y36399500D01*
X7665890Y36399500D01*
X7665892Y36399500D01*
X7793186Y36433608D01*
X7793190Y36433609D01*
X7907309Y36499496D01*
X7907311Y36499498D01*
X7907314Y36499500D01*
X7978319Y36570505D01*
X8032834Y36598281D01*
X8048321Y36599500D01*
X8751679Y36599500D01*
X8809870Y36580593D01*
X8821676Y36570509D01*
X8892686Y36499500D01*
X8892689Y36499497D01*
X8892690Y36499496D01*
X9006810Y36433609D01*
X9006808Y36433609D01*
X9074454Y36415483D01*
X9134108Y36399500D01*
X9134110Y36399500D01*
X9265890Y36399500D01*
X9265892Y36399500D01*
X9393186Y36433608D01*
X9393190Y36433609D01*
X9507309Y36499496D01*
X9507311Y36499498D01*
X9507314Y36499500D01*
X9600500Y36592686D01*
X9600501Y36592688D01*
X9600503Y36592690D01*
X9666390Y36706809D01*
X9666390Y36706811D01*
X9666392Y36706814D01*
X9700500Y36834108D01*
X9700500Y36965892D01*
X9688550Y37010492D01*
X22674500Y37010492D01*
X22674500Y37010490D01*
X22674500Y36878709D01*
X22708609Y36751409D01*
X22774496Y36637290D01*
X22867690Y36544096D01*
X22981810Y36478209D01*
X22981808Y36478209D01*
X23049454Y36460083D01*
X23109108Y36444100D01*
X23109110Y36444100D01*
X23240890Y36444100D01*
X23240892Y36444100D01*
X23368186Y36478208D01*
X23368190Y36478209D01*
X23482309Y36544096D01*
X23482311Y36544098D01*
X23482314Y36544100D01*
X23575500Y36637286D01*
X23575501Y36637288D01*
X23575503Y36637290D01*
X23641390Y36751409D01*
X23641390Y36751411D01*
X23641392Y36751414D01*
X23675500Y36878708D01*
X23675500Y37010492D01*
X23675500Y37014476D01*
X23694407Y37072667D01*
X23704496Y37084480D01*
X25845020Y39225004D01*
X25899537Y39252781D01*
X25915024Y39254000D01*
X26050790Y39254000D01*
X26050792Y39254000D01*
X26178086Y39288108D01*
X26178090Y39288109D01*
X26292209Y39353996D01*
X26292211Y39353998D01*
X26292214Y39354000D01*
X26385400Y39447186D01*
X26385401Y39447188D01*
X26385403Y39447190D01*
X26451290Y39561309D01*
X26451290Y39561311D01*
X26451292Y39561314D01*
X26458071Y39586614D01*
X27399500Y39586614D01*
X27399500Y39413385D01*
X27426597Y39242297D01*
X27426598Y39242293D01*
X27480123Y39077561D01*
X27480125Y39077558D01*
X27558766Y38923214D01*
X27660585Y38783073D01*
X27783073Y38660585D01*
X27923214Y38558766D01*
X28077558Y38480125D01*
X28077561Y38480123D01*
X28242293Y38426598D01*
X28242297Y38426597D01*
X28413386Y38399500D01*
X28413389Y38399500D01*
X28586614Y38399500D01*
X28757702Y38426597D01*
X28757706Y38426598D01*
X28922438Y38480123D01*
X28922441Y38480125D01*
X29076785Y38558766D01*
X29110977Y38583608D01*
X29216928Y38660586D01*
X29339414Y38783072D01*
X29441232Y38923212D01*
X29519873Y39077555D01*
X29519874Y39077558D01*
X29519876Y39077561D01*
X29573401Y39242293D01*
X29573402Y39242297D01*
X29600500Y39413385D01*
X29600500Y39586614D01*
X29573402Y39757702D01*
X29573401Y39757706D01*
X29519876Y39922438D01*
X29519874Y39922441D01*
X29519873Y39922445D01*
X29441232Y40076788D01*
X29339414Y40216928D01*
X29216928Y40339414D01*
X29076788Y40441232D01*
X28922445Y40519873D01*
X28922440Y40519874D01*
X28922438Y40519876D01*
X28757706Y40573401D01*
X28757702Y40573402D01*
X28586614Y40600500D01*
X28586611Y40600500D01*
X28413389Y40600500D01*
X28413386Y40600500D01*
X28242297Y40573402D01*
X28242293Y40573401D01*
X28077561Y40519876D01*
X28077558Y40519874D01*
X28077555Y40519873D01*
X27923212Y40441232D01*
X27783072Y40339414D01*
X27660586Y40216928D01*
X27593240Y40124234D01*
X27558766Y40076785D01*
X27480125Y39922441D01*
X27480123Y39922438D01*
X27426598Y39757706D01*
X27426597Y39757702D01*
X27399500Y39586614D01*
X26458071Y39586614D01*
X26485400Y39688608D01*
X26485400Y39820392D01*
X26451292Y39947686D01*
X26433869Y39977863D01*
X26385403Y40061809D01*
X26385402Y40061809D01*
X26385400Y40061814D01*
X26292214Y40155000D01*
X26178089Y40220890D01*
X26178088Y40220890D01*
X26178086Y40220892D01*
X26050792Y40255000D01*
X25919008Y40255000D01*
X25791714Y40220892D01*
X25791711Y40220890D01*
X25791709Y40220890D01*
X25677590Y40155003D01*
X25677588Y40155001D01*
X25677586Y40155000D01*
X25584400Y40061814D01*
X25584398Y40061811D01*
X25584396Y40061809D01*
X25518509Y39947690D01*
X25518508Y39947686D01*
X25484400Y39820392D01*
X25484400Y39820390D01*
X25484400Y39684623D01*
X25465493Y39626432D01*
X25455409Y39614625D01*
X24374875Y38534090D01*
X23314881Y37474096D01*
X23260364Y37446319D01*
X23244877Y37445100D01*
X23240892Y37445100D01*
X23109108Y37445100D01*
X22981814Y37410992D01*
X22981811Y37410990D01*
X22981809Y37410990D01*
X22867690Y37345103D01*
X22867688Y37345101D01*
X22867686Y37345100D01*
X22774500Y37251914D01*
X22774498Y37251911D01*
X22774496Y37251909D01*
X22708609Y37137790D01*
X22708608Y37137786D01*
X22674500Y37010492D01*
X9688550Y37010492D01*
X9666392Y37093186D01*
X9600500Y37207314D01*
X9507314Y37300500D01*
X9393189Y37366390D01*
X9393188Y37366390D01*
X9393186Y37366392D01*
X9265892Y37400500D01*
X9134108Y37400500D01*
X9006814Y37366392D01*
X9006811Y37366390D01*
X9006809Y37366390D01*
X8892690Y37300503D01*
X8892689Y37300502D01*
X8892686Y37300500D01*
X8821680Y37229494D01*
X8767166Y37201719D01*
X8751679Y37200500D01*
X8048321Y37200500D01*
X7990130Y37219407D01*
X7978323Y37229490D01*
X7907314Y37300500D01*
X7793189Y37366390D01*
X7793188Y37366390D01*
X7793186Y37366392D01*
X7665892Y37400500D01*
X7534108Y37400500D01*
X7406814Y37366392D01*
X7406811Y37366390D01*
X7406809Y37366390D01*
X7292690Y37300503D01*
X7292689Y37300502D01*
X7292686Y37300500D01*
X7221680Y37229494D01*
X7167166Y37201719D01*
X7151679Y37200500D01*
X5248321Y37200500D01*
X5190130Y37219407D01*
X5178323Y37229490D01*
X5107314Y37300500D01*
X4993189Y37366390D01*
X4993188Y37366390D01*
X4993186Y37366392D01*
X4865892Y37400500D01*
X4734108Y37400500D01*
X4606814Y37366392D01*
X4606811Y37366390D01*
X4606809Y37366390D01*
X4492690Y37300503D01*
X4492689Y37300502D01*
X4492686Y37300500D01*
X4399500Y37207314D01*
X4399498Y37207311D01*
X4399496Y37207309D01*
X4333609Y37093190D01*
X4333608Y37093186D01*
X4299500Y36965892D01*
X-31699500Y36965892D01*
X-31699500Y39586614D01*
X-29600500Y39586614D01*
X-29600500Y39413385D01*
X-29573402Y39242297D01*
X-29573401Y39242293D01*
X-29519876Y39077561D01*
X-29519874Y39077558D01*
X-29519873Y39077555D01*
X-29441232Y38923212D01*
X-29339414Y38783072D01*
X-29216928Y38660586D01*
X-29110977Y38583608D01*
X-29076785Y38558766D01*
X-28922441Y38480125D01*
X-28922438Y38480123D01*
X-28757706Y38426598D01*
X-28757702Y38426597D01*
X-28586614Y38399500D01*
X-28586611Y38399500D01*
X-28413386Y38399500D01*
X-28242297Y38426597D01*
X-28242293Y38426598D01*
X-28077561Y38480123D01*
X-28077558Y38480125D01*
X-27923214Y38558766D01*
X-27783073Y38660585D01*
X-27660585Y38783073D01*
X-27558766Y38923214D01*
X-27480127Y39077554D01*
X-27467670Y39115892D01*
X-19900500Y39115892D01*
X-19900500Y38984108D01*
X-19866392Y38856814D01*
X-19866390Y38856811D01*
X-19866390Y38856809D01*
X-19800503Y38742690D01*
X-19800501Y38742688D01*
X-19800500Y38742686D01*
X-19707314Y38649500D01*
X-19707311Y38649498D01*
X-19707309Y38649496D01*
X-19593189Y38583609D01*
X-19593191Y38583609D01*
X-19543799Y38570375D01*
X-19465892Y38549500D01*
X-19465890Y38549500D01*
X-19334110Y38549500D01*
X-19334108Y38549500D01*
X-19256200Y38570375D01*
X-19206809Y38583609D01*
X-19092690Y38649496D01*
X-18999496Y38742690D01*
X-18933609Y38856809D01*
X-18899500Y38984109D01*
X-18899500Y39115890D01*
X-18899500Y39115892D01*
X-18933608Y39243186D01*
X-18936318Y39247880D01*
X-18936318Y39247881D01*
X-18961150Y39290892D01*
X-4514500Y39290892D01*
X-4514500Y39159108D01*
X-4480392Y39031814D01*
X-4480390Y39031811D01*
X-4480390Y39031809D01*
X-4414503Y38917690D01*
X-4414501Y38917688D01*
X-4414500Y38917686D01*
X-4321314Y38824500D01*
X-4321311Y38824498D01*
X-4321309Y38824496D01*
X-4207189Y38758609D01*
X-4207191Y38758609D01*
X-4157799Y38745375D01*
X-4079892Y38724500D01*
X-4050190Y38724500D01*
X-3991999Y38705593D01*
X-3980187Y38695504D01*
X-3560313Y38275631D01*
X-3560308Y38275627D01*
X-3480391Y38229487D01*
X-3480393Y38229487D01*
X-3445802Y38220218D01*
X-3391244Y38205600D01*
X-3391242Y38205600D01*
X21458442Y38205600D01*
X21458444Y38205600D01*
X21547588Y38229486D01*
X21627512Y38275630D01*
X21627514Y38275632D01*
X21663787Y38311904D01*
X21718304Y38339681D01*
X21733790Y38340900D01*
X21763490Y38340900D01*
X21763492Y38340900D01*
X21890786Y38375008D01*
X21890790Y38375009D01*
X22004909Y38440896D01*
X22004911Y38440898D01*
X22004914Y38440900D01*
X22098100Y38534086D01*
X22098101Y38534088D01*
X22098103Y38534090D01*
X22163990Y38648209D01*
X22163990Y38648211D01*
X22163992Y38648214D01*
X22198100Y38775508D01*
X22198100Y38907292D01*
X22163992Y39034586D01*
X22139184Y39077554D01*
X22098103Y39148709D01*
X22098102Y39148709D01*
X22098100Y39148714D01*
X22004914Y39241900D01*
X22004226Y39242297D01*
X21963359Y39265892D01*
X21890789Y39307790D01*
X21890788Y39307790D01*
X21890786Y39307792D01*
X21763492Y39341900D01*
X21631708Y39341900D01*
X21504414Y39307792D01*
X21504411Y39307790D01*
X21504409Y39307790D01*
X21390290Y39241903D01*
X21390288Y39241901D01*
X21390286Y39241900D01*
X21297100Y39148714D01*
X21297098Y39148711D01*
X21297096Y39148709D01*
X21231209Y39034590D01*
X21216576Y38979977D01*
X21183252Y38928662D01*
X21126130Y38906736D01*
X21120949Y38906600D01*
X17068559Y38906600D01*
X17010368Y38925507D01*
X16974404Y38975007D01*
X16972932Y39031223D01*
X16973091Y39031814D01*
X17000500Y39134108D01*
X17000500Y39265892D01*
X16966392Y39393186D01*
X16905011Y39499500D01*
X16900503Y39507309D01*
X16900502Y39507309D01*
X16900500Y39507314D01*
X16807314Y39600500D01*
X16693189Y39666390D01*
X16693188Y39666390D01*
X16693186Y39666392D01*
X16565892Y39700500D01*
X16434108Y39700500D01*
X16306814Y39666392D01*
X16306811Y39666390D01*
X16306809Y39666390D01*
X16192690Y39600503D01*
X16192689Y39600502D01*
X16192686Y39600500D01*
X16171680Y39579494D01*
X16117166Y39551719D01*
X16101679Y39550500D01*
X11285507Y39550500D01*
X11227316Y39569407D01*
X11191352Y39618907D01*
X11191352Y39680093D01*
X11227316Y39729593D01*
X11236006Y39735236D01*
X11243362Y39739483D01*
X11243365Y39739485D01*
X11350515Y39846635D01*
X11350516Y39846637D01*
X11350518Y39846639D01*
X11426279Y39977860D01*
X11426280Y39977863D01*
X11426281Y39977865D01*
X11465500Y40124234D01*
X11465500Y40275766D01*
X11426281Y40422135D01*
X11415255Y40441232D01*
X11350518Y40553360D01*
X11350517Y40553360D01*
X11350515Y40553365D01*
X11243365Y40660515D01*
X11112138Y40736279D01*
X11112137Y40736279D01*
X11112135Y40736281D01*
X10965766Y40775500D01*
X10814234Y40775500D01*
X10667865Y40736281D01*
X10667862Y40736279D01*
X10667860Y40736279D01*
X10536639Y40660518D01*
X10536637Y40660516D01*
X10536635Y40660515D01*
X10429485Y40553365D01*
X10429483Y40553362D01*
X10429481Y40553360D01*
X10353720Y40422139D01*
X10353719Y40422135D01*
X10314500Y40275766D01*
X10314500Y40275764D01*
X10314500Y40124235D01*
X10353719Y39977863D01*
X10431963Y39842341D01*
X10444684Y39782492D01*
X10419797Y39726597D01*
X10371850Y39697215D01*
X10256814Y39666392D01*
X10256811Y39666390D01*
X10256810Y39666390D01*
X10142690Y39600503D01*
X10142689Y39600502D01*
X10142686Y39600500D01*
X10121680Y39579494D01*
X10067166Y39551719D01*
X10051679Y39550500D01*
X5948321Y39550500D01*
X5890130Y39569407D01*
X5878323Y39579490D01*
X5857314Y39600500D01*
X5743186Y39666392D01*
X5628147Y39697216D01*
X5576836Y39730538D01*
X5554909Y39787659D01*
X5568036Y39842341D01*
X5646280Y39977863D01*
X5647820Y39983608D01*
X5685500Y40124234D01*
X5685500Y40275766D01*
X5646281Y40422135D01*
X5635255Y40441232D01*
X5570518Y40553360D01*
X5570517Y40553360D01*
X5570515Y40553365D01*
X5463365Y40660515D01*
X5332138Y40736279D01*
X5332137Y40736279D01*
X5332135Y40736281D01*
X5185766Y40775500D01*
X5034234Y40775500D01*
X4887865Y40736281D01*
X4887862Y40736279D01*
X4887860Y40736279D01*
X4756639Y40660518D01*
X4756637Y40660516D01*
X4756635Y40660515D01*
X4649485Y40553365D01*
X4649483Y40553362D01*
X4649481Y40553360D01*
X4573720Y40422139D01*
X4573719Y40422135D01*
X4534500Y40275766D01*
X4534500Y40275764D01*
X4534500Y40124235D01*
X4573720Y39977860D01*
X4649481Y39846639D01*
X4756639Y39739481D01*
X4887861Y39663720D01*
X4887859Y39663720D01*
X4965641Y39642879D01*
X5034234Y39624500D01*
X5034236Y39624500D01*
X5045684Y39624500D01*
X5103875Y39605593D01*
X5139839Y39556093D01*
X5139839Y39494907D01*
X5131420Y39476000D01*
X5083609Y39393190D01*
X5083608Y39393186D01*
X5049500Y39265892D01*
X5049500Y39134108D01*
X5076909Y39031814D01*
X5077068Y39031223D01*
X5073865Y38970121D01*
X5035360Y38922571D01*
X4981441Y38906600D01*
X-3158910Y38906600D01*
X-3217101Y38925507D01*
X-3228914Y38935596D01*
X-3484504Y39191186D01*
X-3512281Y39245703D01*
X-3513500Y39261190D01*
X-3513500Y39290890D01*
X-3513500Y39290892D01*
X-3547608Y39418186D01*
X-3547609Y39418190D01*
X-3613496Y39532309D01*
X-3613498Y39532311D01*
X-3613500Y39532314D01*
X-3706686Y39625500D01*
X-3706688Y39625501D01*
X-3706690Y39625503D01*
X-3820810Y39691390D01*
X-3820808Y39691390D01*
X-3820812Y39691391D01*
X-3820814Y39691392D01*
X-3948108Y39725500D01*
X-4079892Y39725500D01*
X-4207186Y39691392D01*
X-4207188Y39691390D01*
X-4207190Y39691390D01*
X-4255117Y39663719D01*
X-4321314Y39625500D01*
X-4414500Y39532314D01*
X-4414502Y39532309D01*
X-4414503Y39532309D01*
X-4463646Y39447190D01*
X-4480392Y39418186D01*
X-4514500Y39290892D01*
X-18961150Y39290892D01*
X-18999496Y39357309D01*
X-18999498Y39357311D01*
X-18999500Y39357314D01*
X-19092686Y39450500D01*
X-19092688Y39450501D01*
X-19092690Y39450503D01*
X-19206810Y39516390D01*
X-19206808Y39516390D01*
X-19206812Y39516391D01*
X-19206814Y39516392D01*
X-19334108Y39550500D01*
X-19465892Y39550500D01*
X-19593186Y39516392D01*
X-19593188Y39516390D01*
X-19593190Y39516390D01*
X-19622444Y39499500D01*
X-19707314Y39450500D01*
X-19800500Y39357314D01*
X-19800502Y39357309D01*
X-19800503Y39357309D01*
X-19863681Y39247881D01*
X-19866392Y39243186D01*
X-19900500Y39115892D01*
X-27467670Y39115892D01*
X-27461751Y39134109D01*
X-27455621Y39152974D01*
X-27455620Y39152976D01*
X-27426598Y39242293D01*
X-27426597Y39242297D01*
X-27399500Y39413385D01*
X-27399500Y39586614D01*
X-27426597Y39757702D01*
X-27426598Y39757706D01*
X-27480123Y39922438D01*
X-27480125Y39922441D01*
X-27533622Y40027436D01*
X-27553216Y40065892D01*
X-21000500Y40065892D01*
X-21000500Y39934108D01*
X-20966392Y39806814D01*
X-20966390Y39806811D01*
X-20966390Y39806809D01*
X-20900503Y39692690D01*
X-20900501Y39692688D01*
X-20900500Y39692686D01*
X-20807314Y39599500D01*
X-20807311Y39599498D01*
X-20807309Y39599496D01*
X-20693189Y39533609D01*
X-20693191Y39533609D01*
X-20643799Y39520375D01*
X-20565892Y39499500D01*
X-20565890Y39499500D01*
X-20434110Y39499500D01*
X-20434108Y39499500D01*
X-20356200Y39520375D01*
X-20306809Y39533609D01*
X-20192690Y39599496D01*
X-20099496Y39692690D01*
X-20033609Y39806809D01*
X-19999500Y39934109D01*
X-19999500Y40065890D01*
X-19999500Y40065892D01*
X-20033608Y40193186D01*
X-20033609Y40193190D01*
X-20099496Y40307309D01*
X-20099498Y40307311D01*
X-20099500Y40307314D01*
X-20192686Y40400500D01*
X-20192688Y40400501D01*
X-20192690Y40400503D01*
X-20255285Y40436643D01*
X-20255289Y40436644D01*
X-20306812Y40466391D01*
X-20306814Y40466392D01*
X-20434108Y40500500D01*
X-20565892Y40500500D01*
X-20693186Y40466392D01*
X-20693188Y40466390D01*
X-20693190Y40466390D01*
X-20769841Y40422135D01*
X-20807314Y40400500D01*
X-20900500Y40307314D01*
X-20900502Y40307309D01*
X-20900503Y40307309D01*
X-20918715Y40275764D01*
X-20966392Y40193186D01*
X-21000500Y40065892D01*
X-27553216Y40065892D01*
X-27558766Y40076785D01*
X-27593240Y40124234D01*
X-27660586Y40216928D01*
X-27783072Y40339414D01*
X-27923212Y40441232D01*
X-28069742Y40515892D01*
X-18738000Y40515892D01*
X-18738000Y40384108D01*
X-18703892Y40256814D01*
X-18703890Y40256811D01*
X-18703890Y40256809D01*
X-18638003Y40142690D01*
X-18638001Y40142688D01*
X-18638000Y40142686D01*
X-18544814Y40049500D01*
X-18544811Y40049498D01*
X-18544809Y40049496D01*
X-18430689Y39983609D01*
X-18430691Y39983609D01*
X-18381299Y39970375D01*
X-18303392Y39949500D01*
X-18303390Y39949500D01*
X-18171610Y39949500D01*
X-18171608Y39949500D01*
X-18093700Y39970375D01*
X-18044309Y39983609D01*
X-17930190Y40049496D01*
X-17836996Y40142690D01*
X-17771109Y40256809D01*
X-17737000Y40384109D01*
X-17737000Y40515890D01*
X-17737000Y40515892D01*
X-17771108Y40643186D01*
X-17771109Y40643190D01*
X-17836996Y40757309D01*
X-17836998Y40757311D01*
X-17837000Y40757314D01*
X-17930186Y40850500D01*
X-17930188Y40850501D01*
X-17930190Y40850503D01*
X-18044310Y40916390D01*
X-18044308Y40916390D01*
X-18044312Y40916391D01*
X-18044314Y40916392D01*
X-18171608Y40950500D01*
X-18303392Y40950500D01*
X-18430686Y40916392D01*
X-18430688Y40916390D01*
X-18430690Y40916390D01*
X-18544809Y40850503D01*
X-18544814Y40850500D01*
X-18638000Y40757314D01*
X-18638002Y40757309D01*
X-18638003Y40757309D01*
X-18693885Y40660518D01*
X-18703892Y40643186D01*
X-18738000Y40515892D01*
X-28069742Y40515892D01*
X-28077555Y40519873D01*
X-28077558Y40519874D01*
X-28077561Y40519876D01*
X-28242293Y40573401D01*
X-28242297Y40573402D01*
X-28413386Y40600500D01*
X-28413389Y40600500D01*
X-28586611Y40600500D01*
X-28586614Y40600500D01*
X-28757702Y40573402D01*
X-28757706Y40573401D01*
X-28922438Y40519876D01*
X-28922440Y40519874D01*
X-28922445Y40519873D01*
X-29076788Y40441232D01*
X-29216928Y40339414D01*
X-29339414Y40216928D01*
X-29441232Y40076788D01*
X-29519873Y39922445D01*
X-29519874Y39922441D01*
X-29519876Y39922438D01*
X-29573401Y39757706D01*
X-29573402Y39757702D01*
X-29600500Y39586614D01*
X-31699500Y39586614D01*
X-31699500Y42600500D01*
X-31680593Y42658691D01*
X-31631093Y42694655D01*
X-31600500Y42699500D01*
X31600500Y42699500D01*
X31658691Y42680593D01*
G37*
%TD.AperFunction*%
%TD*%
M02*
