%TF.GenerationSoftware,KiCad,Pcbnew,10.0.6-10.0.6~ubuntu24.04.1*%
%TF.CreationDate,2026-09-06T18:12:05+00:00*%
%TF.ProjectId,recorder,7265636f-7264-4657-922e-6b696361645f,rev?*%
%TF.SameCoordinates,Original*%
%TF.FileFunction,Other,Comment*%
%FSLAX46Y46*%
G04 Gerber Fmt 4.6, Leading zero omitted, Abs format (unit mm)*
G04 Created by KiCad (PCBNEW 10.0.6-10.0.6~ubuntu24.04.1) date 2026-09-06 18:12:05*
%MOMM*%
%LPD*%
G01*
G04 APERTURE LIST*
%ADD10C,0.150000*%
%ADD11C,0.175000*%
G04 APERTURE END LIST*
D10*
X22000000Y0D02*
X21999162Y-191984D01*
X21999162Y-191984D02*
X21996649Y-383953D01*
X21996649Y-383953D02*
X21992461Y-575893D01*
X21992461Y-575893D02*
X21986598Y-767789D01*
X21986598Y-767789D02*
X21979061Y-959627D01*
X21979061Y-959627D02*
X21969850Y-1151391D01*
X21969850Y-1151391D02*
X21958966Y-1343068D01*
X21958966Y-1343068D02*
X21946409Y-1534642D01*
X21946409Y-1534642D02*
X21938154Y-1648454D01*
X21885043Y-2246080D02*
X21864610Y-2436975D01*
X21864610Y-2436975D02*
X21842511Y-2627684D01*
X21842511Y-2627684D02*
X21818748Y-2818194D01*
X21818748Y-2818194D02*
X21793325Y-3008488D01*
X21793325Y-3008488D02*
X21766241Y-3198554D01*
X21766241Y-3198554D02*
X21737500Y-3388376D01*
X21737500Y-3388376D02*
X21707104Y-3577940D01*
X21707104Y-3577940D02*
X21675054Y-3767232D01*
X21675054Y-3767232D02*
X21655223Y-3879605D01*
X21541375Y-4468686D02*
X21501559Y-4656498D01*
X21501559Y-4656498D02*
X21460105Y-4843955D01*
X21460105Y-4843955D02*
X21417017Y-5031043D01*
X21417017Y-5031043D02*
X21372298Y-5217747D01*
X21372298Y-5217747D02*
X21325951Y-5404055D01*
X21325951Y-5404055D02*
X21277980Y-5589951D01*
X21277980Y-5589951D02*
X21228389Y-5775421D01*
X21228389Y-5775421D02*
X21177182Y-5960451D01*
X21177182Y-5960451D02*
X21145981Y-6070213D01*
X20972587Y-6644593D02*
X20913804Y-6827358D01*
X20913804Y-6827358D02*
X20853428Y-7009603D01*
X20853428Y-7009603D02*
X20791465Y-7191314D01*
X20791465Y-7191314D02*
X20727918Y-7372478D01*
X20727918Y-7372478D02*
X20662792Y-7553080D01*
X20662792Y-7553080D02*
X20596093Y-7733107D01*
X20596093Y-7733107D02*
X20527826Y-7912545D01*
X20527826Y-7912545D02*
X20457995Y-8091381D01*
X20457995Y-8091381D02*
X20415751Y-8197383D01*
X20184622Y-8751059D02*
X20107487Y-8926868D01*
X20107487Y-8926868D02*
X20028821Y-9101997D01*
X20028821Y-9101997D02*
X19948629Y-9276432D01*
X19948629Y-9276432D02*
X19866918Y-9450161D01*
X19866918Y-9450161D02*
X19783695Y-9623171D01*
X19783695Y-9623171D02*
X19698965Y-9795448D01*
X19698965Y-9795448D02*
X19612734Y-9966978D01*
X19612734Y-9966978D02*
X19525010Y-10137750D01*
X19525010Y-10137750D02*
X19472165Y-10238886D01*
X19185716Y-10766072D02*
X19091035Y-10933087D01*
X19091035Y-10933087D02*
X18994900Y-11099269D01*
X18994900Y-11099269D02*
X18897319Y-11264606D01*
X18897319Y-11264606D02*
X18798298Y-11429085D01*
X18798298Y-11429085D02*
X18697846Y-11592694D01*
X18697846Y-11592694D02*
X18595970Y-11755420D01*
X18595970Y-11755420D02*
X18492678Y-11917251D01*
X18492678Y-11917251D02*
X18387977Y-12078174D01*
X18387977Y-12078174D02*
X18325083Y-12173386D01*
X17986308Y-12668572D02*
X17875070Y-12825048D01*
X17875070Y-12825048D02*
X17762471Y-12980547D01*
X17762471Y-12980547D02*
X17648520Y-13135058D01*
X17648520Y-13135058D02*
X17533224Y-13288568D01*
X17533224Y-13288568D02*
X17416594Y-13441067D01*
X17416594Y-13441067D02*
X17298636Y-13592541D01*
X17298636Y-13592541D02*
X17179362Y-13742981D01*
X17179362Y-13742981D02*
X17058779Y-13892374D01*
X17058779Y-13892374D02*
X16986493Y-13980668D01*
X16598932Y-14438679D02*
X16472300Y-14582980D01*
X16472300Y-14582980D02*
X16344414Y-14726171D01*
X16344414Y-14726171D02*
X16215284Y-14868241D01*
X16215284Y-14868241D02*
X16084918Y-15009178D01*
X16084918Y-15009178D02*
X15953327Y-15148972D01*
X15953327Y-15148972D02*
X15820522Y-15287612D01*
X15820522Y-15287612D02*
X15686511Y-15425089D01*
X15686511Y-15425089D02*
X15551307Y-15561390D01*
X15551307Y-15561390D02*
X15470383Y-15641842D01*
X15038088Y-16057893D02*
X14897385Y-16188512D01*
X14897385Y-16188512D02*
X14755548Y-16317898D01*
X14755548Y-16317898D02*
X14612588Y-16446041D01*
X14612588Y-16446041D02*
X14468514Y-16572932D01*
X14468514Y-16572932D02*
X14323339Y-16698561D01*
X14323339Y-16698561D02*
X14177073Y-16822919D01*
X14177073Y-16822919D02*
X14029728Y-16945995D01*
X14029728Y-16945995D02*
X13881314Y-17067781D01*
X13881314Y-17067781D02*
X13792600Y-17139551D01*
X13320086Y-17509292D02*
X13166783Y-17624864D01*
X13166783Y-17624864D02*
X13012478Y-17739093D01*
X13012478Y-17739093D02*
X12857182Y-17851971D01*
X12857182Y-17851971D02*
X12700906Y-17963490D01*
X12700906Y-17963490D02*
X12543664Y-18073641D01*
X12543664Y-18073641D02*
X12385466Y-18182416D01*
X12385466Y-18182416D02*
X12226325Y-18289805D01*
X12226325Y-18289805D02*
X12066253Y-18395803D01*
X12066253Y-18395803D02*
X11970675Y-18458140D01*
X11462882Y-18777709D02*
X11298581Y-18877025D01*
X11298581Y-18877025D02*
X11133420Y-18974904D01*
X11133420Y-18974904D02*
X10967411Y-19071337D01*
X10967411Y-19071337D02*
X10800566Y-19166319D01*
X10800566Y-19166319D02*
X10632899Y-19259840D01*
X10632899Y-19259840D02*
X10464423Y-19351895D01*
X10464423Y-19351895D02*
X10295149Y-19442477D01*
X10295149Y-19442477D02*
X10125092Y-19531577D01*
X10125092Y-19531577D02*
X10023649Y-19583831D01*
X9485883Y-19849887D02*
X9312301Y-19931910D01*
X9312301Y-19931910D02*
X9138010Y-20012415D01*
X9138010Y-20012415D02*
X8963023Y-20091396D01*
X8963023Y-20091396D02*
X8787354Y-20168848D01*
X8787354Y-20168848D02*
X8611015Y-20244763D01*
X8611015Y-20244763D02*
X8434020Y-20319136D01*
X8434020Y-20319136D02*
X8256384Y-20391962D01*
X8256384Y-20391962D02*
X8078118Y-20463236D01*
X8078118Y-20463236D02*
X7971871Y-20504860D01*
X7409752Y-20714622D02*
X7228703Y-20778495D01*
X7228703Y-20778495D02*
X7047103Y-20840785D01*
X7047103Y-20840785D02*
X6864967Y-20901489D01*
X6864967Y-20901489D02*
X6682308Y-20960600D01*
X6682308Y-20960600D02*
X6499140Y-21018115D01*
X6499140Y-21018115D02*
X6315478Y-21074030D01*
X6315478Y-21074030D02*
X6131334Y-21128340D01*
X6131334Y-21128340D02*
X5946723Y-21181041D01*
X5946723Y-21181041D02*
X5836781Y-21211600D01*
X5256184Y-21362877D02*
X5069560Y-21407932D01*
X5069560Y-21407932D02*
X4882550Y-21451357D01*
X4882550Y-21451357D02*
X4695168Y-21493148D01*
X4695168Y-21493148D02*
X4507429Y-21533302D01*
X4507429Y-21533302D02*
X4319346Y-21571816D01*
X4319346Y-21571816D02*
X4130934Y-21608688D01*
X4130934Y-21608688D02*
X3942208Y-21643914D01*
X3942208Y-21643914D02*
X3753181Y-21677491D01*
X3753181Y-21677491D02*
X3640694Y-21696667D01*
X3047686Y-21787878D02*
X2857437Y-21813644D01*
X2857437Y-21813644D02*
X2666971Y-21837749D01*
X2666971Y-21837749D02*
X2476302Y-21860191D01*
X2476302Y-21860191D02*
X2285444Y-21880968D01*
X2285444Y-21880968D02*
X2094411Y-21900079D01*
X2094411Y-21900079D02*
X1903220Y-21917522D01*
X1903220Y-21917522D02*
X1711883Y-21933296D01*
X1711883Y-21933296D02*
X1520417Y-21947399D01*
X1520417Y-21947399D02*
X1406559Y-21954990D01*
X807338Y-21985181D02*
X615453Y-21991390D01*
X615453Y-21991390D02*
X423521Y-21995923D01*
X423521Y-21995923D02*
X231556Y-21998781D01*
X231556Y-21998781D02*
X39574Y-21999964D01*
X39574Y-21999964D02*
X-152411Y-21999472D01*
X-152411Y-21999472D02*
X-344384Y-21997304D01*
X-344384Y-21997304D02*
X-536331Y-21993462D01*
X-536331Y-21993462D02*
X-728237Y-21987944D01*
X-728237Y-21987944D02*
X-842275Y-21983871D01*
X-1441447Y-21952727D02*
X-1632964Y-21939312D01*
X-1632964Y-21939312D02*
X-1824356Y-21924227D01*
X-1824356Y-21924227D02*
X-2015609Y-21907472D01*
X-2015609Y-21907472D02*
X-2206709Y-21889048D01*
X-2206709Y-21889048D02*
X-2397640Y-21868958D01*
X-2397640Y-21868958D02*
X-2588389Y-21847202D01*
X-2588389Y-21847202D02*
X-2778941Y-21823783D01*
X-2778941Y-21823783D02*
X-2969281Y-21798701D01*
X-2969281Y-21798701D02*
X-3082307Y-21783007D01*
X-3675169Y-21690854D02*
X-3864315Y-21657956D01*
X-3864315Y-21657956D02*
X-4053167Y-21623410D01*
X-4053167Y-21623410D02*
X-4241710Y-21587216D01*
X-4241710Y-21587216D02*
X-4429930Y-21549379D01*
X-4429930Y-21549379D02*
X-4617813Y-21509900D01*
X-4617813Y-21509900D02*
X-4805344Y-21468784D01*
X-4805344Y-21468784D02*
X-4992509Y-21426032D01*
X-4992509Y-21426032D02*
X-5179294Y-21381649D01*
X-5179294Y-21381649D02*
X-5290127Y-21354497D01*
X-5870483Y-21202298D02*
X-6055282Y-21150262D01*
X-6055282Y-21150262D02*
X-6239620Y-21096615D01*
X-6239620Y-21096615D02*
X-6423482Y-21041361D01*
X-6423482Y-21041361D02*
X-6606856Y-20984505D01*
X-6606856Y-20984505D02*
X-6789726Y-20926051D01*
X-6789726Y-20926051D02*
X-6972080Y-20866004D01*
X-6972080Y-20866004D02*
X-7153902Y-20804367D01*
X-7153902Y-20804367D02*
X-7335180Y-20741146D01*
X-7335180Y-20741146D02*
X-7442661Y-20702821D01*
X-8004446Y-20492165D02*
X-8182967Y-20421534D01*
X-8182967Y-20421534D02*
X-8360865Y-20349347D01*
X-8360865Y-20349347D02*
X-8538126Y-20275611D01*
X-8538126Y-20275611D02*
X-8714736Y-20200331D01*
X-8714736Y-20200331D02*
X-8890683Y-20123512D01*
X-8890683Y-20123512D02*
X-9065953Y-20045161D01*
X-9065953Y-20045161D02*
X-9240533Y-19965284D01*
X-9240533Y-19965284D02*
X-9414409Y-19883886D01*
X-9414409Y-19883886D02*
X-9517416Y-19834787D01*
X-10054758Y-19567878D02*
X-10225135Y-19479389D01*
X-10225135Y-19479389D02*
X-10394734Y-19389418D01*
X-10394734Y-19389418D02*
X-10563540Y-19297969D01*
X-10563540Y-19297969D02*
X-10731542Y-19205051D01*
X-10731542Y-19205051D02*
X-10898727Y-19110671D01*
X-10898727Y-19110671D02*
X-11065082Y-19014835D01*
X-11065082Y-19014835D02*
X-11230595Y-18917551D01*
X-11230595Y-18917551D02*
X-11395252Y-18818827D01*
X-11395252Y-18818827D02*
X-11492708Y-18759469D01*
X-11999993Y-18439094D02*
X-12160445Y-18333673D01*
X-12160445Y-18333673D02*
X-12319972Y-18226857D01*
X-12319972Y-18226857D02*
X-12478560Y-18118652D01*
X-12478560Y-18118652D02*
X-12636198Y-18009067D01*
X-12636198Y-18009067D02*
X-12792873Y-17898111D01*
X-12792873Y-17898111D02*
X-12948575Y-17785792D01*
X-12948575Y-17785792D02*
X-13103290Y-17672119D01*
X-13103290Y-17672119D02*
X-13257007Y-17557100D01*
X-13257007Y-17557100D02*
X-13347894Y-17488102D01*
X-13819820Y-17117610D02*
X-13968671Y-16996359D01*
X-13968671Y-16996359D02*
X-14116458Y-16873814D01*
X-14116458Y-16873814D02*
X-14263171Y-16749984D01*
X-14263171Y-16749984D02*
X-14408797Y-16624878D01*
X-14408797Y-16624878D02*
X-14553326Y-16498506D01*
X-14553326Y-16498506D02*
X-14696747Y-16370878D01*
X-14696747Y-16370878D02*
X-14839048Y-16242003D01*
X-14839048Y-16242003D02*
X-14980219Y-16111891D01*
X-14980219Y-16111891D02*
X-15063587Y-16033975D01*
X-15495221Y-15617238D02*
X-15630916Y-15481423D01*
X-15630916Y-15481423D02*
X-15765420Y-15344430D01*
X-15765420Y-15344430D02*
X-15898723Y-15206268D01*
X-15898723Y-15206268D02*
X-16030816Y-15066949D01*
X-16030816Y-15066949D02*
X-16161688Y-14926481D01*
X-16161688Y-14926481D02*
X-16291329Y-14784878D01*
X-16291329Y-14784878D02*
X-16419729Y-14642148D01*
X-16419729Y-14642148D02*
X-16546879Y-14498303D01*
X-16546879Y-14498303D02*
X-16621857Y-14412282D01*
X-17008689Y-13953656D02*
X-17129808Y-13804697D01*
X-17129808Y-13804697D02*
X-17249623Y-13654688D01*
X-17249623Y-13654688D02*
X-17368124Y-13503639D01*
X-17368124Y-13503639D02*
X-17485303Y-13351561D01*
X-17485303Y-13351561D02*
X-17601150Y-13198466D01*
X-17601150Y-13198466D02*
X-17715657Y-13044367D01*
X-17715657Y-13044367D02*
X-17828814Y-12889274D01*
X-17828814Y-12889274D02*
X-17940614Y-12733199D01*
X-17940614Y-12733199D02*
X-18006418Y-12639973D01*
X-18344405Y-12144250D02*
X-18449684Y-11983704D01*
X-18449684Y-11983704D02*
X-18553558Y-11822246D01*
X-18553558Y-11822246D02*
X-18656018Y-11659887D01*
X-18656018Y-11659887D02*
X-18757059Y-11496641D01*
X-18757059Y-11496641D02*
X-18856670Y-11332519D01*
X-18856670Y-11332519D02*
X-18954846Y-11167534D01*
X-18954846Y-11167534D02*
X-19051578Y-11001699D01*
X-19051578Y-11001699D02*
X-19146859Y-10835026D01*
X-19146859Y-10835026D02*
X-19202801Y-10735569D01*
X-19488412Y-10207929D02*
X-19576749Y-10037474D01*
X-19576749Y-10037474D02*
X-19663596Y-9866254D01*
X-19663596Y-9866254D02*
X-19748946Y-9694284D01*
X-19748946Y-9694284D02*
X-19832791Y-9521575D01*
X-19832791Y-9521575D02*
X-19915127Y-9348141D01*
X-19915127Y-9348141D02*
X-19995945Y-9173995D01*
X-19995945Y-9173995D02*
X-20075241Y-8999150D01*
X-20075241Y-8999150D02*
X-20153008Y-8823620D01*
X-20153008Y-8823620D02*
X-20198503Y-8718971D01*
X-20428753Y-8164929D02*
X-20499226Y-7986346D01*
X-20499226Y-7986346D02*
X-20568139Y-7807155D01*
X-20568139Y-7807155D02*
X-20635485Y-7627369D01*
X-20635485Y-7627369D02*
X-20701260Y-7447002D01*
X-20701260Y-7447002D02*
X-20765458Y-7266068D01*
X-20765458Y-7266068D02*
X-20828075Y-7084581D01*
X-20828075Y-7084581D02*
X-20889106Y-6902554D01*
X-20889106Y-6902554D02*
X-20948546Y-6720002D01*
X-20948546Y-6720002D02*
X-20983119Y-6611256D01*
X-21155601Y-6036601D02*
X-21207474Y-5851756D01*
X-21207474Y-5851756D02*
X-21257732Y-5666465D01*
X-21257732Y-5666465D02*
X-21306371Y-5480743D01*
X-21306371Y-5480743D02*
X-21353388Y-5294604D01*
X-21353388Y-5294604D02*
X-21398778Y-5108061D01*
X-21398778Y-5108061D02*
X-21442539Y-4921129D01*
X-21442539Y-4921129D02*
X-21484667Y-4733823D01*
X-21484667Y-4733823D02*
X-21525159Y-4546156D01*
X-21525159Y-4546156D02*
X-21548449Y-4434448D01*
X-21661360Y-3845187D02*
X-21694091Y-3656012D01*
X-21694091Y-3656012D02*
X-21725169Y-3466558D01*
X-21725169Y-3466558D02*
X-21754593Y-3276841D01*
X-21754593Y-3276841D02*
X-21782360Y-3086874D01*
X-21782360Y-3086874D02*
X-21808468Y-2896672D01*
X-21808468Y-2896672D02*
X-21832916Y-2706249D01*
X-21832916Y-2706249D02*
X-21855701Y-2515620D01*
X-21855701Y-2515620D02*
X-21876821Y-2324800D01*
X-21876821Y-2324800D02*
X-21888585Y-2211298D01*
X-21940746Y-1613588D02*
X-21953992Y-1422060D01*
X-21953992Y-1422060D02*
X-21965565Y-1230424D01*
X-21965565Y-1230424D02*
X-21975466Y-1038693D01*
X-21975466Y-1038693D02*
X-21983694Y-846884D01*
X-21983694Y-846884D02*
X-21990247Y-655010D01*
X-21990247Y-655010D02*
X-21995126Y-463087D01*
X-21995126Y-463087D02*
X-21998329Y-271128D01*
X-21998329Y-271128D02*
X-21999858Y-79148D01*
X-21999858Y-79148D02*
X-21999972Y34962D01*
X-21990838Y634873D02*
X-21984460Y826753D01*
X-21984460Y826753D02*
X-21976408Y1018570D01*
X-21976408Y1018570D02*
X-21966683Y1210309D01*
X-21966683Y1210309D02*
X-21955285Y1401956D01*
X-21955285Y1401956D02*
X-21942214Y1593496D01*
X-21942214Y1593496D02*
X-21927473Y1784915D01*
X-21927473Y1784915D02*
X-21911062Y1976198D01*
X-21911062Y1976198D02*
X-21892982Y2167330D01*
X-21892982Y2167330D02*
X-21881446Y2280856D01*
X-21811112Y2876700D02*
X-21785178Y3066926D01*
X-21785178Y3066926D02*
X-21757584Y3256919D01*
X-21757584Y3256919D02*
X-21728334Y3446663D01*
X-21728334Y3446663D02*
X-21697430Y3636145D01*
X-21697430Y3636145D02*
X-21664872Y3825350D01*
X-21664872Y3825350D02*
X-21630666Y4014263D01*
X-21630666Y4014263D02*
X-21594811Y4202871D01*
X-21594811Y4202871D02*
X-21557313Y4391159D01*
X-21557313Y4391159D02*
X-21534246Y4502914D01*
X-21403447Y5088464D02*
X-21358227Y5275048D01*
X-21358227Y5275048D02*
X-21311381Y5461231D01*
X-21311381Y5461231D02*
X-21262912Y5646997D01*
X-21262912Y5646997D02*
X-21212824Y5832334D01*
X-21212824Y5832334D02*
X-21161120Y6017226D01*
X-21161120Y6017226D02*
X-21107805Y6201660D01*
X-21107805Y6201660D02*
X-21052882Y6385622D01*
X-21052882Y6385622D02*
X-20996356Y6569098D01*
X-20996356Y6569098D02*
X-20962001Y6677913D01*
X-20772103Y7247050D02*
X-20708071Y7428043D01*
X-20708071Y7428043D02*
X-20642461Y7608469D01*
X-20642461Y7608469D02*
X-20575279Y7788317D01*
X-20575279Y7788317D02*
X-20506531Y7967571D01*
X-20506531Y7967571D02*
X-20436221Y8146219D01*
X-20436221Y8146219D02*
X-20364354Y8324246D01*
X-20364354Y8324246D02*
X-20290937Y8501639D01*
X-20290937Y8501639D02*
X-20215975Y8678385D01*
X-20215975Y8678385D02*
X-20170690Y8783125D01*
X-19923678Y9329900D02*
X-19841502Y9503410D01*
X-19841502Y9503410D02*
X-19757815Y9676195D01*
X-19757815Y9676195D02*
X-19672623Y9848244D01*
X-19672623Y9848244D02*
X-19585933Y10019543D01*
X-19585933Y10019543D02*
X-19497751Y10190079D01*
X-19497751Y10190079D02*
X-19408085Y10359839D01*
X-19408085Y10359839D02*
X-19316940Y10528809D01*
X-19316940Y10528809D02*
X-19224324Y10696978D01*
X-19224324Y10696978D02*
X-19168583Y10796547D01*
X-18867040Y11315247D02*
X-18767578Y11479460D01*
X-18767578Y11479460D02*
X-18666688Y11642799D01*
X-18666688Y11642799D02*
X-18564376Y11805251D01*
X-18564376Y11805251D02*
X-18460650Y11966804D01*
X-18460650Y11966804D02*
X-18355518Y12127446D01*
X-18355518Y12127446D02*
X-18248989Y12287165D01*
X-18248989Y12287165D02*
X-18141069Y12445947D01*
X-18141069Y12445947D02*
X-18031769Y12603782D01*
X-18031769Y12603782D02*
X-17966153Y12697140D01*
X-17613229Y13182343D02*
X-17497522Y13335544D01*
X-17497522Y13335544D02*
X-17380483Y13487729D01*
X-17380483Y13487729D02*
X-17262120Y13638886D01*
X-17262120Y13638886D02*
X-17142442Y13789006D01*
X-17142442Y13789006D02*
X-17021459Y13938075D01*
X-17021459Y13938075D02*
X-16899180Y14086082D01*
X-16899180Y14086082D02*
X-16775614Y14233017D01*
X-16775614Y14233017D02*
X-16650770Y14378868D01*
X-16650770Y14378868D02*
X-16575966Y14465039D01*
X-16175349Y14911676D02*
X-16044606Y15052263D01*
X-16044606Y15052263D02*
X-15912641Y15191703D01*
X-15912641Y15191703D02*
X-15779464Y15329987D01*
X-15779464Y15329987D02*
X-15645086Y15467104D01*
X-15645086Y15467104D02*
X-15509516Y15603042D01*
X-15509516Y15603042D02*
X-15372765Y15737792D01*
X-15372765Y15737792D02*
X-15234843Y15871344D01*
X-15234843Y15871344D02*
X-15095761Y16003687D01*
X-15095761Y16003687D02*
X-15012550Y16081771D01*
X-14568428Y16485173D02*
X-14424015Y16611677D01*
X-14424015Y16611677D02*
X-14278503Y16736916D01*
X-14278503Y16736916D02*
X-14131904Y16860880D01*
X-14131904Y16860880D02*
X-13984229Y16983561D01*
X-13984229Y16983561D02*
X-13835489Y17104948D01*
X-13835489Y17104948D02*
X-13685695Y17225033D01*
X-13685695Y17225033D02*
X-13534859Y17343806D01*
X-13534859Y17343806D02*
X-13382992Y17461258D01*
X-13382992Y17461258D02*
X-13292244Y17530438D01*
X-12809257Y17886389D02*
X-12652683Y17997489D01*
X-12652683Y17997489D02*
X-12495146Y18107218D01*
X-12495146Y18107218D02*
X-12336657Y18215567D01*
X-12336657Y18215567D02*
X-12177228Y18322530D01*
X-12177228Y18322530D02*
X-12016873Y18428097D01*
X-12016873Y18428097D02*
X-11855601Y18532261D01*
X-11855601Y18532261D02*
X-11693428Y18635014D01*
X-11693428Y18635014D02*
X-11530363Y18736348D01*
X-11530363Y18736348D02*
X-11433026Y18795901D01*
X-10916223Y19100683D02*
X-10749124Y19195216D01*
X-10749124Y19195216D02*
X-10581207Y19288288D01*
X-10581207Y19288288D02*
X-10412484Y19379891D01*
X-10412484Y19379891D02*
X-10242969Y19470018D01*
X-10242969Y19470018D02*
X-10072673Y19558662D01*
X-10072673Y19558662D02*
X-9901610Y19645817D01*
X-9901610Y19645817D02*
X-9729793Y19731476D01*
X-9729793Y19731476D02*
X-9557235Y19815632D01*
X-9557235Y19815632D02*
X-9454327Y19864937D01*
X-8909107Y20115363D02*
X-8733230Y20192342D01*
X-8733230Y20192342D02*
X-8556689Y20267784D01*
X-8556689Y20267784D02*
X-8379495Y20341683D01*
X-8379495Y20341683D02*
X-8201664Y20414032D01*
X-8201664Y20414032D02*
X-8023208Y20484827D01*
X-8023208Y20484827D02*
X-7844141Y20554062D01*
X-7844141Y20554062D02*
X-7664476Y20621731D01*
X-7664476Y20621731D02*
X-7484228Y20687830D01*
X-7484228Y20687830D02*
X-7376824Y20726371D01*
X-6808886Y20919825D02*
X-6626069Y20978446D01*
X-6626069Y20978446D02*
X-6442747Y21035470D01*
X-6442747Y21035470D02*
X-6258935Y21090892D01*
X-6258935Y21090892D02*
X-6074647Y21144708D01*
X-6074647Y21144708D02*
X-5889895Y21196913D01*
X-5889895Y21196913D02*
X-5704695Y21247505D01*
X-5704695Y21247505D02*
X-5519061Y21296478D01*
X-5519061Y21296478D02*
X-5333006Y21343829D01*
X-5333006Y21343829D02*
X-5222228Y21371203D01*
X-4637508Y21505663D02*
X-4449661Y21545313D01*
X-4449661Y21545313D02*
X-4261476Y21583323D01*
X-4261476Y21583323D02*
X-4072966Y21619689D01*
X-4072966Y21619689D02*
X-3884146Y21654409D01*
X-3884146Y21654409D02*
X-3695030Y21687479D01*
X-3695030Y21687479D02*
X-3505633Y21718898D01*
X-3505633Y21718898D02*
X-3315968Y21748663D01*
X-3315968Y21748663D02*
X-3126052Y21776772D01*
X-3126052Y21776772D02*
X-3013058Y21792693D01*
X-2417665Y21866753D02*
X-2226752Y21887018D01*
X-2226752Y21887018D02*
X-2035669Y21905617D01*
X-2035669Y21905617D02*
X-1844431Y21922547D01*
X-1844431Y21922547D02*
X-1653053Y21937808D01*
X-1653053Y21937808D02*
X-1461549Y21951398D01*
X-1461549Y21951398D02*
X-1269934Y21963316D01*
X-1269934Y21963316D02*
X-1078222Y21973562D01*
X-1078222Y21973562D02*
X-886428Y21982135D01*
X-886428Y21982135D02*
X-772399Y21986437D01*
X-172556Y21999323D02*
X19429Y21999991D01*
X19429Y21999991D02*
X211412Y21998984D01*
X211412Y21998984D02*
X403378Y21996302D01*
X403378Y21996302D02*
X595315Y21991944D01*
X595315Y21991944D02*
X787205Y21985912D01*
X787205Y21985912D02*
X979036Y21978205D01*
X979036Y21978205D02*
X1170793Y21968824D01*
X1170793Y21968824D02*
X1362460Y21957771D01*
X1362460Y21957771D02*
X1476332Y21950409D01*
X2074356Y21901987D02*
X2265406Y21883051D01*
X2265406Y21883051D02*
X2456283Y21862449D01*
X2456283Y21862449D02*
X2646973Y21840182D01*
X2646973Y21840182D02*
X2837461Y21816251D01*
X2837461Y21816251D02*
X3027733Y21790659D01*
X3027733Y21790659D02*
X3217775Y21763408D01*
X3217775Y21763408D02*
X3407572Y21734499D01*
X3407572Y21734499D02*
X3597109Y21703935D01*
X3597109Y21703935D02*
X3709635Y21684986D01*
X4299590Y21575762D02*
X4487708Y21537420D01*
X4487708Y21537420D02*
X4675485Y21497438D01*
X4675485Y21497438D02*
X4862905Y21455819D01*
X4862905Y21455819D02*
X5049954Y21412565D01*
X5049954Y21412565D02*
X5236620Y21367682D01*
X5236620Y21367682D02*
X5422886Y21321170D01*
X5422886Y21321170D02*
X5608740Y21273036D01*
X5608740Y21273036D02*
X5794166Y21223281D01*
X5794166Y21223281D02*
X5904169Y21192942D01*
X6479891Y21024058D02*
X6663112Y20966710D01*
X6663112Y20966710D02*
X6845825Y20907766D01*
X6845825Y20907766D02*
X7028016Y20847230D01*
X7028016Y20847230D02*
X7209673Y20785106D01*
X7209673Y20785106D02*
X7390780Y20721399D01*
X7390780Y20721399D02*
X7571325Y20656114D01*
X7571325Y20656114D02*
X7751293Y20589256D01*
X7751293Y20589256D02*
X7930671Y20520830D01*
X7930671Y20520830D02*
X8037001Y20479419D01*
X8592473Y20252640D02*
X8768881Y20176886D01*
X8768881Y20176886D02*
X8944622Y20099596D01*
X8944622Y20099596D02*
X9119681Y20020775D01*
X9119681Y20020775D02*
X9294046Y19940429D01*
X9294046Y19940429D02*
X9467703Y19858565D01*
X9467703Y19858565D02*
X9640639Y19775189D01*
X9640639Y19775189D02*
X9812840Y19690306D01*
X9812840Y19690306D02*
X9984295Y19603924D01*
X9984295Y19603924D02*
X10085842Y19551874D01*
X10615258Y19269569D02*
X10783011Y19176201D01*
X10783011Y19176201D02*
X10949942Y19081372D01*
X10949942Y19081372D02*
X11116039Y18985091D01*
X11116039Y18985091D02*
X11281290Y18887363D01*
X11281290Y18887363D02*
X11445682Y18788198D01*
X11445682Y18788198D02*
X11609202Y18687601D01*
X11609202Y18687601D02*
X11771838Y18585581D01*
X11771838Y18585581D02*
X11933577Y18482146D01*
X11933577Y18482146D02*
X12029280Y18420000D01*
X12527108Y18085120D02*
X12684452Y17975113D01*
X12684452Y17975113D02*
X12840829Y17863737D01*
X12840829Y17863737D02*
X12996229Y17751001D01*
X12996229Y17751001D02*
X13150639Y17636913D01*
X13150639Y17636913D02*
X13304047Y17521482D01*
X13304047Y17521482D02*
X13456442Y17404717D01*
X13456442Y17404717D02*
X13607813Y17286626D01*
X13607813Y17286626D02*
X13758147Y17167219D01*
X13758147Y17167219D02*
X13847005Y17095627D01*
X14308042Y16711670D02*
X14453332Y16586175D01*
X14453332Y16586175D02*
X14597522Y16459415D01*
X14597522Y16459415D02*
X14740600Y16331403D01*
X14740600Y16331403D02*
X14882555Y16202147D01*
X14882555Y16202147D02*
X15023377Y16071657D01*
X15023377Y16071657D02*
X15163055Y15939943D01*
X15163055Y15939943D02*
X15301578Y15807015D01*
X15301578Y15807015D02*
X15438936Y15672883D01*
X15438936Y15672883D02*
X15520020Y15592594D01*
X15939448Y15163574D02*
X16071167Y15023901D01*
X16071167Y15023901D02*
X16201662Y14883083D01*
X16201662Y14883083D02*
X16330923Y14741132D01*
X16330923Y14741132D02*
X16458940Y14598058D01*
X16458940Y14598058D02*
X16585703Y14453873D01*
X16585703Y14453873D02*
X16711204Y14308587D01*
X16711204Y14308587D02*
X16835432Y14162211D01*
X16835432Y14162211D02*
X16958378Y14014757D01*
X16958378Y14014757D02*
X17030842Y13926608D01*
X17404278Y13457009D02*
X17521048Y13304618D01*
X17521048Y13304618D02*
X17636485Y13151213D01*
X17636485Y13151213D02*
X17750578Y12996807D01*
X17750578Y12996807D02*
X17863319Y12841411D01*
X17863319Y12841411D02*
X17974700Y12685037D01*
X17974700Y12685037D02*
X18084712Y12527698D01*
X18084712Y12527698D02*
X18193346Y12369404D01*
X18193346Y12369404D02*
X18300596Y12210168D01*
X18300596Y12210168D02*
X18363681Y12115082D01*
X18687223Y11609811D02*
X18787824Y11446294D01*
X18787824Y11446294D02*
X18886996Y11281906D01*
X18886996Y11281906D02*
X18984728Y11116658D01*
X18984728Y11116658D02*
X19081015Y10950564D01*
X19081015Y10950564D02*
X19175849Y10783636D01*
X19175849Y10783636D02*
X19269223Y10615887D01*
X19269223Y10615887D02*
X19361129Y10447329D01*
X19361129Y10447329D02*
X19451561Y10277975D01*
X19451561Y10277975D02*
X19504609Y10176946D01*
X19774874Y9641283D02*
X19858257Y9468350D01*
X19858257Y9468350D02*
X19940126Y9294696D01*
X19940126Y9294696D02*
X20020477Y9120333D01*
X20020477Y9120333D02*
X20099304Y8945277D01*
X20099304Y8945277D02*
X20176600Y8769539D01*
X20176600Y8769539D02*
X20252359Y8593133D01*
X20252359Y8593133D02*
X20326577Y8416073D01*
X20326577Y8416073D02*
X20399246Y8238372D01*
X20399246Y8238372D02*
X20441702Y8132454D01*
X20655867Y7571998D02*
X20721158Y7391456D01*
X20721158Y7391456D02*
X20784871Y7210350D01*
X20784871Y7210350D02*
X20847001Y7028696D01*
X20847001Y7028696D02*
X20907543Y6846506D01*
X20907543Y6846506D02*
X20966493Y6663795D01*
X20966493Y6663795D02*
X21023847Y6480576D01*
X21023847Y6480576D02*
X21079599Y6296864D01*
X21079599Y6296864D02*
X21133746Y6112673D01*
X21133746Y6112673D02*
X21165167Y6002974D01*
X21320994Y5423581D02*
X21367511Y5237316D01*
X21367511Y5237316D02*
X21412401Y5050652D01*
X21412401Y5050652D02*
X21455660Y4863604D01*
X21455660Y4863604D02*
X21497286Y4676185D01*
X21497286Y4676185D02*
X21537274Y4488410D01*
X21537274Y4488410D02*
X21575622Y4300294D01*
X21575622Y4300294D02*
X21612327Y4111849D01*
X21612327Y4111849D02*
X21647387Y3923092D01*
X21647387Y3923092D02*
X21667444Y3810759D01*
X21763303Y3218484D02*
X21790561Y3028444D01*
X21790561Y3028444D02*
X21816159Y2838172D01*
X21816159Y2838172D02*
X21840095Y2647685D01*
X21840095Y2647685D02*
X21862369Y2456995D01*
X21862369Y2456995D02*
X21882977Y2266119D01*
X21882977Y2266119D02*
X21901920Y2075070D01*
X21901920Y2075070D02*
X21919194Y1883863D01*
X21919194Y1883863D02*
X21934799Y1692513D01*
X21934799Y1692513D02*
X21943283Y1578719D01*
X21978173Y979753D02*
X21985886Y787922D01*
X21985886Y787922D02*
X21991925Y596031D01*
X21991925Y596031D02*
X21996288Y404095D01*
X21996288Y404095D02*
X21998977Y212129D01*
X21998977Y212129D02*
X21999991Y20146D01*
X21999991Y20146D02*
X22000000Y0D01*
X28000000Y0D02*
X27998934Y-244343D01*
X27998934Y-244343D02*
X27995735Y-488667D01*
X27995735Y-488667D02*
X27990405Y-732955D01*
X27990405Y-732955D02*
X27982943Y-977186D01*
X27982943Y-977186D02*
X27973350Y-1221343D01*
X27973350Y-1221343D02*
X27961627Y-1465407D01*
X27961627Y-1465407D02*
X27951398Y-1649045D01*
X27909647Y-2247579D02*
X27888971Y-2491048D01*
X27888971Y-2491048D02*
X27866170Y-2734327D01*
X27866170Y-2734327D02*
X27841248Y-2977398D01*
X27841248Y-2977398D02*
X27814206Y-3220243D01*
X27814206Y-3220243D02*
X27785045Y-3462842D01*
X27785045Y-3462842D02*
X27753768Y-3705177D01*
X27753768Y-3705177D02*
X27728832Y-3887402D01*
X27639171Y-4480653D02*
X27599018Y-4721677D01*
X27599018Y-4721677D02*
X27556763Y-4962341D01*
X27556763Y-4962341D02*
X27512409Y-5202627D01*
X27512409Y-5202627D02*
X27465961Y-5442517D01*
X27465961Y-5442517D02*
X27417421Y-5681992D01*
X27417421Y-5681992D02*
X27366793Y-5921035D01*
X27366793Y-5921035D02*
X27327309Y-6100670D01*
X27190317Y-6684810D02*
X27130946Y-6921833D01*
X27130946Y-6921833D02*
X27069509Y-7158328D01*
X27069509Y-7158328D02*
X27006011Y-7394279D01*
X27006011Y-7394279D02*
X26940457Y-7629666D01*
X26940457Y-7629666D02*
X26872850Y-7864472D01*
X26872850Y-7864472D02*
X26803197Y-8098680D01*
X26803197Y-8098680D02*
X26749422Y-8274566D01*
X26565982Y-8845824D02*
X26487777Y-9077316D01*
X26487777Y-9077316D02*
X26407555Y-9308117D01*
X26407555Y-9308117D02*
X26325322Y-9538209D01*
X26325322Y-9538209D02*
X26241084Y-9767575D01*
X26241084Y-9767575D02*
X26154848Y-9996197D01*
X26154848Y-9996197D02*
X26066620Y-10224057D01*
X26066620Y-10224057D02*
X25998899Y-10395059D01*
X25770196Y-10949749D02*
X25673661Y-11174217D01*
X25673661Y-11174217D02*
X25575171Y-11397833D01*
X25575171Y-11397833D02*
X25474734Y-11620582D01*
X25474734Y-11620582D02*
X25372357Y-11842446D01*
X25372357Y-11842446D02*
X25268047Y-12063408D01*
X25268047Y-12063408D02*
X25161813Y-12283451D01*
X25161813Y-12283451D02*
X25080585Y-12448465D01*
X24808094Y-12983007D02*
X24693853Y-13199001D01*
X24693853Y-13199001D02*
X24577731Y-13413990D01*
X24577731Y-13413990D02*
X24459737Y-13627958D01*
X24459737Y-13627958D02*
X24339881Y-13840888D01*
X24339881Y-13840888D02*
X24218171Y-14052764D01*
X24218171Y-14052764D02*
X24094617Y-14263569D01*
X24094617Y-14263569D02*
X24000405Y-14421531D01*
X23685886Y-14932475D02*
X23554675Y-15138602D01*
X23554675Y-15138602D02*
X23421671Y-15343576D01*
X23421671Y-15343576D02*
X23286883Y-15547382D01*
X23286883Y-15547382D02*
X23150321Y-15750004D01*
X23150321Y-15750004D02*
X23011997Y-15951426D01*
X23011997Y-15951426D02*
X22871920Y-16151634D01*
X22871920Y-16151634D02*
X22765332Y-16301523D01*
X22410814Y-16785572D02*
X22263481Y-16980501D01*
X22263481Y-16980501D02*
X22114452Y-17174138D01*
X22114452Y-17174138D02*
X21963739Y-17366466D01*
X21963739Y-17366466D02*
X21811354Y-17557472D01*
X21811354Y-17557472D02*
X21657308Y-17747142D01*
X21657308Y-17747142D02*
X21501612Y-17935459D01*
X21501612Y-17935459D02*
X21383336Y-18076309D01*
X20991107Y-18530338D02*
X20828602Y-18712812D01*
X20828602Y-18712812D02*
X20664511Y-18893861D01*
X20664511Y-18893861D02*
X20498846Y-19073471D01*
X20498846Y-19073471D02*
X20331620Y-19251629D01*
X20331620Y-19251629D02*
X20162846Y-19428320D01*
X20162846Y-19428320D02*
X19992537Y-19603532D01*
X19992537Y-19603532D02*
X19863337Y-19734433D01*
X19435928Y-20155513D02*
X19259300Y-20324354D01*
X19259300Y-20324354D02*
X19081206Y-20491647D01*
X19081206Y-20491647D02*
X18901658Y-20657379D01*
X18901658Y-20657379D02*
X18720671Y-20821539D01*
X18720671Y-20821539D02*
X18538258Y-20984113D01*
X18538258Y-20984113D02*
X18354434Y-21145088D01*
X18354434Y-21145088D02*
X18215143Y-21265196D01*
X17755313Y-21650609D02*
X17565702Y-21804727D01*
X17565702Y-21804727D02*
X17374754Y-21957184D01*
X17374754Y-21957184D02*
X17182482Y-22107969D01*
X17182482Y-22107969D02*
X16988902Y-22257071D01*
X16988902Y-22257071D02*
X16794028Y-22404478D01*
X16794028Y-22404478D02*
X16597875Y-22550178D01*
X16597875Y-22550178D02*
X16449393Y-22658717D01*
X15960109Y-23005975D02*
X15758739Y-23144376D01*
X15758739Y-23144376D02*
X15556169Y-23281014D01*
X15556169Y-23281014D02*
X15352414Y-23415879D01*
X15352414Y-23415879D02*
X15147490Y-23548961D01*
X15147490Y-23548961D02*
X14941412Y-23680249D01*
X14941412Y-23680249D02*
X14734197Y-23809734D01*
X14734197Y-23809734D02*
X14577481Y-23906004D01*
X14061902Y-24212866D02*
X13850072Y-24334656D01*
X13850072Y-24334656D02*
X13637188Y-24454593D01*
X13637188Y-24454593D02*
X13423265Y-24572667D01*
X13423265Y-24572667D02*
X13208319Y-24688870D01*
X13208319Y-24688870D02*
X12992368Y-24803193D01*
X12992368Y-24803193D02*
X12775427Y-24915627D01*
X12775427Y-24915627D02*
X12611490Y-24999006D01*
X12072942Y-25263493D02*
X11852020Y-25367886D01*
X11852020Y-25367886D02*
X11630195Y-25470347D01*
X11630195Y-25470347D02*
X11407484Y-25570868D01*
X11407484Y-25570868D02*
X11183905Y-25669442D01*
X11183905Y-25669442D02*
X10959474Y-25766062D01*
X10959474Y-25766062D02*
X10734208Y-25860719D01*
X10734208Y-25860719D02*
X10564106Y-25930670D01*
X10006066Y-26151073D02*
X9777477Y-26237396D01*
X9777477Y-26237396D02*
X9548143Y-26321720D01*
X9548143Y-26321720D02*
X9318082Y-26404040D01*
X9318082Y-26404040D02*
X9087312Y-26484349D01*
X9087312Y-26484349D02*
X8855849Y-26562642D01*
X8855849Y-26562642D02*
X8623712Y-26638911D01*
X8623712Y-26638911D02*
X8448544Y-26694983D01*
X7874613Y-26869880D02*
X7639832Y-26937575D01*
X7639832Y-26937575D02*
X7404470Y-27003219D01*
X7404470Y-27003219D02*
X7168543Y-27066806D01*
X7168543Y-27066806D02*
X6932071Y-27128332D01*
X6932071Y-27128332D02*
X6695070Y-27187792D01*
X6695070Y-27187792D02*
X6457560Y-27245181D01*
X6457560Y-27245181D02*
X6278457Y-27287011D01*
X5692339Y-27415275D02*
X5452882Y-27463905D01*
X5452882Y-27463905D02*
X5213009Y-27510444D01*
X5213009Y-27510444D02*
X4972740Y-27554888D01*
X4972740Y-27554888D02*
X4732092Y-27597234D01*
X4732092Y-27597234D02*
X4491083Y-27637478D01*
X4491083Y-27637478D02*
X4249733Y-27675617D01*
X4249733Y-27675617D02*
X4067850Y-27702935D01*
X3473327Y-27783736D02*
X3230739Y-27812988D01*
X3230739Y-27812988D02*
X2987905Y-27840123D01*
X2987905Y-27840123D02*
X2744843Y-27865137D01*
X2744843Y-27865137D02*
X2501573Y-27888028D01*
X2501573Y-27888028D02*
X2258112Y-27908797D01*
X2258112Y-27908797D02*
X2014479Y-27927439D01*
X2014479Y-27927439D02*
X1830990Y-27940069D01*
X1231899Y-27972887D02*
X987746Y-27982572D01*
X987746Y-27982572D02*
X743518Y-27990127D01*
X743518Y-27990127D02*
X499232Y-27995549D01*
X499232Y-27995549D02*
X254909Y-27998840D01*
X254909Y-27998840D02*
X10567Y-27999998D01*
X10567Y-27999998D02*
X-233777Y-27999024D01*
X-233777Y-27999024D02*
X-417687Y-27996884D01*
X-1017479Y-27981507D02*
X-1261622Y-27971563D01*
X-1261622Y-27971563D02*
X-1505668Y-27959488D01*
X-1505668Y-27959488D02*
X-1749601Y-27945284D01*
X-1749601Y-27945284D02*
X-1993399Y-27928952D01*
X-1993399Y-27928952D02*
X-2237047Y-27910493D01*
X-2237047Y-27910493D02*
X-2480523Y-27889909D01*
X-2480523Y-27889909D02*
X-2663669Y-27873013D01*
X-3260290Y-27809540D02*
X-3502847Y-27780030D01*
X-3502847Y-27780030D02*
X-3745137Y-27748404D01*
X-3745137Y-27748404D02*
X-3987142Y-27714666D01*
X-3987142Y-27714666D02*
X-4228843Y-27678817D01*
X-4228843Y-27678817D02*
X-4470222Y-27640859D01*
X-4470222Y-27640859D02*
X-4711261Y-27600797D01*
X-4711261Y-27600797D02*
X-4892459Y-27569255D01*
X-5482061Y-27458096D02*
X-5721466Y-27409211D01*
X-5721466Y-27409211D02*
X-5960436Y-27358238D01*
X-5960436Y-27358238D02*
X-6198951Y-27305183D01*
X-6198951Y-27305183D02*
X-6436995Y-27250048D01*
X-6436995Y-27250048D02*
X-6674548Y-27192837D01*
X-6674548Y-27192837D02*
X-6911593Y-27133556D01*
X-6911593Y-27133556D02*
X-7089675Y-27087571D01*
X-7668451Y-26929442D02*
X-7903160Y-26861498D01*
X-7903160Y-26861498D02*
X-8137267Y-26791508D01*
X-8137267Y-26791508D02*
X-8370754Y-26719478D01*
X-8370754Y-26719478D02*
X-8603603Y-26645413D01*
X-8603603Y-26645413D02*
X-8835798Y-26569318D01*
X-8835798Y-26569318D02*
X-9067320Y-26491201D01*
X-9067320Y-26491201D02*
X-9241135Y-26431069D01*
X-9805350Y-26226992D02*
X-10033848Y-26140426D01*
X-10033848Y-26140426D02*
X-10261581Y-26051870D01*
X-10261581Y-26051870D02*
X-10488533Y-25961330D01*
X-10488533Y-25961330D02*
X-10714686Y-25868813D01*
X-10714686Y-25868813D02*
X-10940023Y-25774326D01*
X-10940023Y-25774326D02*
X-11164527Y-25677876D01*
X-11164527Y-25677876D02*
X-11332955Y-25603986D01*
X-11878968Y-25355278D02*
X-12099780Y-25250650D01*
X-12099780Y-25250650D02*
X-12319670Y-25144099D01*
X-12319670Y-25144099D02*
X-12538621Y-25035634D01*
X-12538621Y-25035634D02*
X-12756618Y-24925262D01*
X-12756618Y-24925262D02*
X-12973644Y-24812992D01*
X-12973644Y-24812992D02*
X-13189681Y-24698832D01*
X-13189681Y-24698832D02*
X-13351635Y-24611661D01*
X-13875922Y-24319926D02*
X-14087622Y-24197911D01*
X-14087622Y-24197911D02*
X-14298250Y-24074054D01*
X-14298250Y-24074054D02*
X-14507788Y-23948363D01*
X-14507788Y-23948363D02*
X-14716222Y-23820848D01*
X-14716222Y-23820848D02*
X-14923535Y-23691520D01*
X-14923535Y-23691520D02*
X-15129712Y-23560387D01*
X-15129712Y-23560387D02*
X-15284145Y-23460497D01*
X-15783323Y-23127618D02*
X-15984546Y-22989004D01*
X-15984546Y-22989004D02*
X-16184551Y-22848639D01*
X-16184551Y-22848639D02*
X-16383325Y-22706534D01*
X-16383325Y-22706534D02*
X-16580850Y-22562699D01*
X-16580850Y-22562699D02*
X-16777113Y-22417147D01*
X-16777113Y-22417147D02*
X-16972098Y-22269887D01*
X-16972098Y-22269887D02*
X-17118015Y-22157923D01*
X-17588861Y-21786050D02*
X-17778308Y-21631730D01*
X-17778308Y-21631730D02*
X-17966402Y-21475763D01*
X-17966402Y-21475763D02*
X-18153126Y-21318161D01*
X-18153126Y-21318161D02*
X-18338469Y-21158936D01*
X-18338469Y-21158936D02*
X-18522415Y-20998099D01*
X-18522415Y-20998099D02*
X-18704950Y-20835663D01*
X-18704950Y-20835663D02*
X-18841409Y-20712347D01*
X-19280885Y-20303878D02*
X-19457334Y-20134850D01*
X-19457334Y-20134850D02*
X-19632300Y-19964288D01*
X-19632300Y-19964288D02*
X-19805772Y-19792206D01*
X-19805772Y-19792206D02*
X-19977735Y-19618616D01*
X-19977735Y-19618616D02*
X-20148177Y-19443533D01*
X-20148177Y-19443533D02*
X-20317084Y-19266969D01*
X-20317084Y-19266969D02*
X-20443204Y-19133097D01*
X-20848474Y-18690670D02*
X-21010785Y-18508023D01*
X-21010785Y-18508023D02*
X-21171496Y-18323967D01*
X-21171496Y-18323967D02*
X-21330594Y-18138515D01*
X-21330594Y-18138515D02*
X-21488069Y-17951683D01*
X-21488069Y-17951683D02*
X-21643906Y-17763483D01*
X-21643906Y-17763483D02*
X-21798096Y-17573930D01*
X-21798096Y-17573930D02*
X-21913063Y-17430367D01*
X-22281511Y-16956835D02*
X-22428637Y-16761749D01*
X-22428637Y-16761749D02*
X-22574055Y-16565387D01*
X-22574055Y-16565387D02*
X-22717754Y-16367763D01*
X-22717754Y-16367763D02*
X-22859723Y-16168892D01*
X-22859723Y-16168892D02*
X-22999951Y-15968790D01*
X-22999951Y-15968790D02*
X-23138427Y-15767472D01*
X-23138427Y-15767472D02*
X-23241499Y-15615144D01*
X-23570748Y-15113565D02*
X-23701739Y-14907299D01*
X-23701739Y-14907299D02*
X-23830926Y-14699897D01*
X-23830926Y-14699897D02*
X-23958298Y-14491376D01*
X-23958298Y-14491376D02*
X-24083845Y-14281751D01*
X-24083845Y-14281751D02*
X-24207558Y-14071039D01*
X-24207558Y-14071039D02*
X-24329428Y-13859255D01*
X-24329428Y-13859255D02*
X-24419939Y-13699144D01*
X-24707864Y-13172755D02*
X-24821875Y-12956639D01*
X-24821875Y-12956639D02*
X-24933997Y-12739537D01*
X-24933997Y-12739537D02*
X-25044219Y-12521465D01*
X-25044219Y-12521465D02*
X-25152535Y-12302439D01*
X-25152535Y-12302439D02*
X-25258935Y-12082476D01*
X-25258935Y-12082476D02*
X-25363411Y-11861593D01*
X-25363411Y-11861593D02*
X-25440779Y-11694733D01*
X-25685520Y-11146931D02*
X-25781816Y-10922361D01*
X-25781816Y-10922361D02*
X-25876149Y-10696959D01*
X-25876149Y-10696959D02*
X-25968511Y-10470742D01*
X-25968511Y-10470742D02*
X-26058895Y-10243728D01*
X-26058895Y-10243728D02*
X-26147295Y-10015935D01*
X-26147295Y-10015935D02*
X-26233704Y-9787378D01*
X-26233704Y-9787378D02*
X-26297428Y-9614847D01*
X-26497407Y-9049166D02*
X-26575366Y-8817591D01*
X-26575366Y-8817591D02*
X-26651301Y-8585344D01*
X-26651301Y-8585344D02*
X-26725207Y-8352444D01*
X-26725207Y-8352444D02*
X-26797077Y-8118908D01*
X-26797077Y-8118908D02*
X-26866907Y-7884753D01*
X-26866907Y-7884753D02*
X-26934690Y-7649997D01*
X-26934690Y-7649997D02*
X-26984359Y-7472908D01*
X-27138286Y-6893000D02*
X-27197404Y-6655915D01*
X-27197404Y-6655915D02*
X-27254452Y-6418322D01*
X-27254452Y-6418322D02*
X-27309424Y-6180241D01*
X-27309424Y-6180241D02*
X-27362316Y-5941689D01*
X-27362316Y-5941689D02*
X-27413124Y-5702684D01*
X-27413124Y-5702684D02*
X-27461845Y-5463246D01*
X-27461845Y-5463246D02*
X-27497139Y-5282741D01*
X-27604019Y-4692348D02*
X-27643916Y-4451282D01*
X-27643916Y-4451282D02*
X-27681708Y-4209877D01*
X-27681708Y-4209877D02*
X-27717391Y-3968151D01*
X-27717391Y-3968151D02*
X-27750964Y-3726124D01*
X-27750964Y-3726124D02*
X-27782423Y-3483812D01*
X-27782423Y-3483812D02*
X-27811767Y-3241235D01*
X-27811767Y-3241235D02*
X-27832458Y-3058479D01*
X-27891602Y-2461413D02*
X-27912019Y-2217922D01*
X-27912019Y-2217922D02*
X-27930311Y-1974263D01*
X-27930311Y-1974263D02*
X-27946476Y-1730453D01*
X-27946476Y-1730453D02*
X-27960513Y-1486511D01*
X-27960513Y-1486511D02*
X-27972420Y-1242456D01*
X-27972420Y-1242456D02*
X-27982198Y-998306D01*
X-27982198Y-998306D02*
X-27988151Y-814479D01*
X-27999178Y-214592D02*
X-27999984Y29752D01*
X-27999984Y29752D02*
X-27998658Y274094D01*
X-27998658Y274094D02*
X-27995200Y518414D01*
X-27995200Y518414D02*
X-27989610Y762696D01*
X-27989610Y762696D02*
X-27981889Y1006919D01*
X-27981889Y1006919D02*
X-27972037Y1251066D01*
X-27972037Y1251066D02*
X-27963215Y1434777D01*
X-27926053Y2033614D02*
X-27907243Y2277234D01*
X-27907243Y2277234D02*
X-27886308Y2520681D01*
X-27886308Y2520681D02*
X-27863249Y2763936D01*
X-27863249Y2763936D02*
X-27838069Y3006980D01*
X-27838069Y3006980D02*
X-27810768Y3249795D01*
X-27810768Y3249795D02*
X-27781350Y3492363D01*
X-27781350Y3492363D02*
X-27757810Y3674774D01*
X-27672699Y4268695D02*
X-27634394Y4510019D01*
X-27634394Y4510019D02*
X-27593985Y4751000D01*
X-27593985Y4751000D02*
X-27551474Y4991619D01*
X-27551474Y4991619D02*
X-27506866Y5231858D01*
X-27506866Y5231858D02*
X-27460162Y5471698D01*
X-27460162Y5471698D02*
X-27411368Y5711122D01*
X-27411368Y5711122D02*
X-27373262Y5891054D01*
X-27240750Y6476227D02*
X-27183198Y6713698D01*
X-27183198Y6713698D02*
X-27123576Y6950657D01*
X-27123576Y6950657D02*
X-27061888Y7187087D01*
X-27061888Y7187087D02*
X-26998139Y7422970D01*
X-26998139Y7422970D02*
X-26932334Y7658288D01*
X-26932334Y7658288D02*
X-26864478Y7893022D01*
X-26864478Y7893022D02*
X-26812052Y8069315D01*
X-26632996Y8641962D02*
X-26556568Y8874047D01*
X-26556568Y8874047D02*
X-26478117Y9105456D01*
X-26478117Y9105456D02*
X-26397650Y9336172D01*
X-26397650Y9336172D02*
X-26315172Y9566176D01*
X-26315172Y9566176D02*
X-26230690Y9795452D01*
X-26230690Y9795452D02*
X-26144211Y10023982D01*
X-26144211Y10023982D02*
X-26077803Y10195498D01*
X-25853358Y10751925D02*
X-25758546Y10977126D01*
X-25758546Y10977126D02*
X-25661773Y11201490D01*
X-25661773Y11201490D02*
X-25563046Y11425002D01*
X-25563046Y11425002D02*
X-25462372Y11647644D01*
X-25462372Y11647644D02*
X-25359759Y11869399D01*
X-25359759Y11869399D02*
X-25255215Y12090250D01*
X-25255215Y12090250D02*
X-25175253Y12255881D01*
X-24906867Y12792496D02*
X-24794285Y13009360D01*
X-24794285Y13009360D02*
X-24679814Y13225233D01*
X-24679814Y13225233D02*
X-24563464Y13440098D01*
X-24563464Y13440098D02*
X-24445243Y13653940D01*
X-24445243Y13653940D02*
X-24325161Y13866743D01*
X-24325161Y13866743D02*
X-24203226Y14078489D01*
X-24203226Y14078489D02*
X-24110227Y14237168D01*
X-23799633Y14750508D02*
X-23670006Y14957634D01*
X-23670006Y14957634D02*
X-23538576Y15163622D01*
X-23538576Y15163622D02*
X-23405354Y15368455D01*
X-23405354Y15368455D02*
X-23270350Y15572117D01*
X-23270350Y15572117D02*
X-23133573Y15774594D01*
X-23133573Y15774594D02*
X-22995034Y15975869D01*
X-22995034Y15975869D02*
X-22889599Y16126571D01*
X-22538801Y16613322D02*
X-22392966Y16809375D01*
X-22392966Y16809375D02*
X-22245425Y17004148D01*
X-22245425Y17004148D02*
X-22096191Y17197626D01*
X-22096191Y17197626D02*
X-21945274Y17389794D01*
X-21945274Y17389794D02*
X-21792686Y17580639D01*
X-21792686Y17580639D02*
X-21638438Y17770144D01*
X-21638438Y17770144D02*
X-21521245Y17911896D01*
X-21132507Y18368918D02*
X-20971406Y18552632D01*
X-20971406Y18552632D02*
X-20808707Y18734933D01*
X-20808707Y18734933D02*
X-20644424Y18915808D01*
X-20644424Y18915808D02*
X-20478568Y19095242D01*
X-20478568Y19095242D02*
X-20311153Y19273222D01*
X-20311153Y19273222D02*
X-20142191Y19449734D01*
X-20142191Y19449734D02*
X-20013998Y19581621D01*
X-19589829Y20005964D02*
X-19414501Y20176154D01*
X-19414501Y20176154D02*
X-19237693Y20344807D01*
X-19237693Y20344807D02*
X-19059421Y20511910D01*
X-19059421Y20511910D02*
X-18879698Y20677452D01*
X-18879698Y20677452D02*
X-18698536Y20841419D01*
X-18698536Y20841419D02*
X-18515951Y21003799D01*
X-18515951Y21003799D02*
X-18377585Y21124971D01*
X-17920722Y21513896D02*
X-17732298Y21669462D01*
X-17732298Y21669462D02*
X-17542524Y21823379D01*
X-17542524Y21823379D02*
X-17351413Y21975633D01*
X-17351413Y21975633D02*
X-17158981Y22126214D01*
X-17158981Y22126214D02*
X-16965243Y22275110D01*
X-16965243Y22275110D02*
X-16770212Y22422310D01*
X-16770212Y22422310D02*
X-16622566Y22531984D01*
X-16135959Y22882981D02*
X-15935655Y23022921D01*
X-15935655Y23022921D02*
X-15734138Y23161108D01*
X-15734138Y23161108D02*
X-15531423Y23297530D01*
X-15531423Y23297530D02*
X-15327525Y23432179D01*
X-15327525Y23432179D02*
X-15122459Y23565043D01*
X-15122459Y23565043D02*
X-14916242Y23696112D01*
X-14916242Y23696112D02*
X-14760269Y23793580D01*
X-14247057Y24104385D02*
X-14036167Y24227795D01*
X-14036167Y24227795D02*
X-13824207Y24349359D01*
X-13824207Y24349359D02*
X-13611196Y24469069D01*
X-13611196Y24469069D02*
X-13397147Y24586916D01*
X-13397147Y24586916D02*
X-13182078Y24702891D01*
X-13182078Y24702891D02*
X-12966006Y24816984D01*
X-12966006Y24816984D02*
X-12802712Y24901618D01*
X-12266207Y25170224D02*
X-12046092Y25276307D01*
X-12046092Y25276307D02*
X-11825058Y25380465D01*
X-11825058Y25380465D02*
X-11603125Y25482690D01*
X-11603125Y25482690D02*
X-11380307Y25582975D01*
X-11380307Y25582975D02*
X-11156623Y25681312D01*
X-11156623Y25681312D02*
X-10932089Y25777692D01*
X-10932089Y25777692D02*
X-10762529Y25848945D01*
X-10206194Y26073619D02*
X-9978274Y26161691D01*
X-9978274Y26161691D02*
X-9749593Y26247770D01*
X-9749593Y26247770D02*
X-9520169Y26331851D01*
X-9520169Y26331851D02*
X-9290021Y26413926D01*
X-9290021Y26413926D02*
X-9059165Y26493990D01*
X-9059165Y26493990D02*
X-8827619Y26572037D01*
X-8827619Y26572037D02*
X-8652887Y26629449D01*
X-8080313Y26808740D02*
X-7846058Y26878232D01*
X-7846058Y26878232D02*
X-7611205Y26945678D01*
X-7611205Y26945678D02*
X-7375773Y27011071D01*
X-7375773Y27011071D02*
X-7139779Y27074408D01*
X-7139779Y27074408D02*
X-6903241Y27135682D01*
X-6903241Y27135682D02*
X-6666178Y27194891D01*
X-6666178Y27194891D02*
X-6487401Y27238092D01*
X-5902282Y27370843D02*
X-5663205Y27421308D01*
X-5663205Y27421308D02*
X-5423696Y27469684D01*
X-5423696Y27469684D02*
X-5183775Y27515968D01*
X-5183775Y27515968D02*
X-4943458Y27560156D01*
X-4943458Y27560156D02*
X-4702765Y27602246D01*
X-4702765Y27602246D02*
X-4461714Y27642234D01*
X-4461714Y27642234D02*
X-4280046Y27670945D01*
X-3686160Y27756301D02*
X-3443803Y27787411D01*
X-3443803Y27787411D02*
X-3201184Y27816406D01*
X-3201184Y27816406D02*
X-2958321Y27843282D01*
X-2958321Y27843282D02*
X-2715233Y27868037D01*
X-2715233Y27868037D02*
X-2471939Y27890671D01*
X-2471939Y27890671D02*
X-2228456Y27911180D01*
X-2228456Y27911180D02*
X-2045069Y27925216D01*
X-1446248Y27962624D02*
X-1202176Y27974180D01*
X-1202176Y27974180D02*
X-958012Y27983606D01*
X-958012Y27983606D02*
X-713776Y27990901D01*
X-713776Y27990901D02*
X-469485Y27996064D01*
X-469485Y27996064D02*
X-225159Y27999095D01*
X-225159Y27999095D02*
X19185Y27999993D01*
X19185Y27999993D02*
X203107Y27999263D01*
X802998Y27988483D02*
X1047210Y27980410D01*
X1047210Y27980410D02*
X1291343Y27970206D01*
X1291343Y27970206D02*
X1535376Y27957872D01*
X1535376Y27957872D02*
X1779293Y27943409D01*
X1779293Y27943409D02*
X2023075Y27926818D01*
X2023075Y27926818D02*
X2266702Y27908100D01*
X2266702Y27908100D02*
X2449972Y27892609D01*
X3047062Y27833710D02*
X3289838Y27806060D01*
X3289838Y27806060D02*
X3532363Y27776292D01*
X3532363Y27776292D02*
X3774620Y27744409D01*
X3774620Y27744409D02*
X4016588Y27710414D01*
X4016588Y27710414D02*
X4258251Y27674307D01*
X4258251Y27674307D02*
X4499590Y27636094D01*
X4499590Y27636094D02*
X4681025Y27605942D01*
X5271461Y27499304D02*
X5511234Y27452255D01*
X5511234Y27452255D02*
X5750587Y27403116D01*
X5750587Y27403116D02*
X5989502Y27351890D01*
X5989502Y27351890D02*
X6227961Y27298581D01*
X6227961Y27298581D02*
X6465946Y27243193D01*
X6465946Y27243193D02*
X6703439Y27185730D01*
X6703439Y27185730D02*
X6881867Y27141111D01*
X7461838Y26987422D02*
X7697061Y26921279D01*
X7697061Y26921279D02*
X7931697Y26853085D01*
X7931697Y26853085D02*
X8165730Y26782846D01*
X8165730Y26782846D02*
X8399140Y26710568D01*
X8399140Y26710568D02*
X8631911Y26636256D01*
X8631911Y26636256D02*
X8864025Y26559915D01*
X8864025Y26559915D02*
X9038296Y26501117D01*
X9604059Y26301370D02*
X9833213Y26216558D01*
X9833213Y26216558D02*
X10061618Y26129750D01*
X10061618Y26129750D02*
X10289257Y26040952D01*
X10289257Y26040952D02*
X10516113Y25950171D01*
X10516113Y25950171D02*
X10742167Y25857414D01*
X10742167Y25857414D02*
X10967404Y25762687D01*
X10967404Y25762687D02*
X11136393Y25690090D01*
X11684296Y25445574D02*
X11905903Y25342641D01*
X11905903Y25342641D02*
X12126603Y25237779D01*
X12126603Y25237779D02*
X12346380Y25130995D01*
X12346380Y25130995D02*
X12565216Y25022297D01*
X12565216Y25022297D02*
X12783096Y24911693D01*
X12783096Y24911693D02*
X13000002Y24799193D01*
X13000002Y24799193D02*
X13162619Y24713265D01*
X13689126Y24425557D02*
X13901755Y24305168D01*
X13901755Y24305168D02*
X14113326Y24182929D01*
X14113326Y24182929D02*
X14323822Y24058847D01*
X14323822Y24058847D02*
X14533227Y23932934D01*
X14533227Y23932934D02*
X14741525Y23805198D01*
X14741525Y23805198D02*
X14948701Y23675649D01*
X14948701Y23675649D02*
X15103895Y23576945D01*
X15605609Y23247902D02*
X15807888Y23110834D01*
X15807888Y23110834D02*
X16008964Y22972006D01*
X16008964Y22972006D02*
X16208820Y22831429D01*
X16208820Y22831429D02*
X16407443Y22689113D01*
X16407443Y22689113D02*
X16604815Y22545068D01*
X16604815Y22545068D02*
X16800923Y22399308D01*
X16800923Y22399308D02*
X16947694Y22288465D01*
X17421376Y21920211D02*
X17612001Y21767348D01*
X17612001Y21767348D02*
X17801284Y21612827D01*
X17801284Y21612827D02*
X17989211Y21456661D01*
X17989211Y21456661D02*
X18175768Y21298860D01*
X18175768Y21298860D02*
X18360941Y21139438D01*
X18360941Y21139438D02*
X18544716Y20978406D01*
X18544716Y20978406D02*
X18682116Y20856139D01*
X19124710Y20451051D02*
X19302448Y20283379D01*
X19302448Y20283379D02*
X19478717Y20114164D01*
X19478717Y20114164D02*
X19653502Y19943416D01*
X19653502Y19943416D02*
X19826791Y19771150D01*
X19826791Y19771150D02*
X19998570Y19597378D01*
X19998570Y19597378D02*
X20168825Y19422113D01*
X20168825Y19422113D02*
X20295967Y19289212D01*
X20704616Y18849904D02*
X20868322Y18668506D01*
X20868322Y18668506D02*
X21030439Y18485687D01*
X21030439Y18485687D02*
X21190954Y18301460D01*
X21190954Y18301460D02*
X21349856Y18115840D01*
X21349856Y18115840D02*
X21507131Y17928840D01*
X21507131Y17928840D02*
X21662769Y17740475D01*
X21662769Y17740475D02*
X21778833Y17597797D01*
X22150899Y17127103D02*
X22299516Y16933150D01*
X22299516Y16933150D02*
X22446435Y16737908D01*
X22446435Y16737908D02*
X22591644Y16541391D01*
X22591644Y16541391D02*
X22735133Y16343614D01*
X22735133Y16343614D02*
X22876890Y16144593D01*
X22876890Y16144593D02*
X23016906Y15944342D01*
X23016906Y15944342D02*
X23121142Y15792809D01*
X23454225Y15293768D02*
X23586794Y15088511D01*
X23586794Y15088511D02*
X23717566Y14882106D01*
X23717566Y14882106D02*
X23846532Y14674567D01*
X23846532Y14674567D02*
X23973682Y14465910D01*
X23973682Y14465910D02*
X24099007Y14256152D01*
X24099007Y14256152D02*
X24222496Y14045309D01*
X24222496Y14045309D02*
X24314232Y13885897D01*
X24606182Y13361729D02*
X24721847Y13146494D01*
X24721847Y13146494D02*
X24835629Y12930257D01*
X24835629Y12930257D02*
X24947519Y12713036D01*
X24947519Y12713036D02*
X25057510Y12494846D01*
X25057510Y12494846D02*
X25165593Y12275705D01*
X25165593Y12275705D02*
X25271759Y12055630D01*
X25271759Y12055630D02*
X25350403Y11889368D01*
X25599335Y11343457D02*
X25697350Y11119632D01*
X25697350Y11119632D02*
X25793407Y10894960D01*
X25793407Y10894960D02*
X25887500Y10669458D01*
X25887500Y10669458D02*
X25979622Y10443143D01*
X25979622Y10443143D02*
X26069765Y10216033D01*
X26069765Y10216033D02*
X26157923Y9988146D01*
X26157923Y9988146D02*
X26222967Y9816108D01*
X26427276Y9251977D02*
X26507008Y9021006D01*
X26507008Y9021006D02*
X26584720Y8789348D01*
X26584720Y8789348D02*
X26660409Y8557021D01*
X26660409Y8557021D02*
X26734067Y8324042D01*
X26734067Y8324042D02*
X26805689Y8090429D01*
X26805689Y8090429D02*
X26875270Y7856200D01*
X26875270Y7856200D02*
X26926294Y7679497D01*
X27084661Y7100786D02*
X27145595Y6864160D01*
X27145595Y6864160D02*
X27204461Y6627012D01*
X27204461Y6627012D02*
X27261256Y6389359D01*
X27261256Y6389359D02*
X27315975Y6151219D01*
X27315975Y6151219D02*
X27368614Y5912611D01*
X27368614Y5912611D02*
X27419168Y5673553D01*
X27419168Y5673553D02*
X27455844Y5493324D01*
X27567246Y4903768D02*
X27608989Y4663015D01*
X27608989Y4663015D02*
X27648630Y4421906D01*
X27648630Y4421906D02*
X27686165Y4180461D01*
X27686165Y4180461D02*
X27721592Y3938698D01*
X27721592Y3938698D02*
X27754908Y3696634D01*
X27754908Y3696634D02*
X27786110Y3454289D01*
X27786110Y3454289D02*
X27808200Y3271698D01*
X27871918Y2675102D02*
X27894201Y2431775D01*
X27894201Y2431775D02*
X27914360Y2188263D01*
X27914360Y2188263D02*
X27932393Y1944584D01*
X27932393Y1944584D02*
X27948299Y1700757D01*
X27948299Y1700757D02*
X27962077Y1456800D01*
X27962077Y1456800D02*
X27973725Y1212733D01*
X27973725Y1212733D02*
X27981087Y1028957D01*
X27996711Y429172D02*
X27999390Y184841D01*
X27999390Y184841D02*
X28000000Y0D01*
D11*
X-24000002Y3361433D02*
X-24000002Y4761433D01*
X-23333335Y4294766D02*
X-23333335Y3361433D01*
X-23333335Y4161433D02*
X-23266669Y4228100D01*
X-23266669Y4228100D02*
X-23133335Y4294766D01*
X-23133335Y4294766D02*
X-22933335Y4294766D01*
X-22933335Y4294766D02*
X-22800002Y4228100D01*
X-22800002Y4228100D02*
X-22733335Y4094766D01*
X-22733335Y4094766D02*
X-22733335Y3361433D01*
X-21333335Y3361433D02*
X-22133335Y3361433D01*
X-21733335Y3361433D02*
X-21733335Y4761433D01*
X-21733335Y4761433D02*
X-21866668Y4561433D01*
X-21866668Y4561433D02*
X-22000002Y4428100D01*
X-22000002Y4428100D02*
X-22133335Y4361433D01*
X-20733335Y3494766D02*
X-20666669Y3428100D01*
X-20666669Y3428100D02*
X-20733335Y3361433D01*
X-20733335Y3361433D02*
X-20800002Y3428100D01*
X-20800002Y3428100D02*
X-20733335Y3494766D01*
X-20733335Y3494766D02*
X-20733335Y3361433D01*
X-19266668Y3494766D02*
X-19333335Y3428100D01*
X-19333335Y3428100D02*
X-19533335Y3361433D01*
X-19533335Y3361433D02*
X-19666668Y3361433D01*
X-19666668Y3361433D02*
X-19866668Y3428100D01*
X-19866668Y3428100D02*
X-20000002Y3561433D01*
X-20000002Y3561433D02*
X-20066668Y3694766D01*
X-20066668Y3694766D02*
X-20133335Y3961433D01*
X-20133335Y3961433D02*
X-20133335Y4161433D01*
X-20133335Y4161433D02*
X-20066668Y4428100D01*
X-20066668Y4428100D02*
X-20000002Y4561433D01*
X-20000002Y4561433D02*
X-19866668Y4694766D01*
X-19866668Y4694766D02*
X-19666668Y4761433D01*
X-19666668Y4761433D02*
X-19533335Y4761433D01*
X-19533335Y4761433D02*
X-19333335Y4694766D01*
X-19333335Y4694766D02*
X-19266668Y4628100D01*
X-18066668Y4294766D02*
X-18066668Y3361433D01*
X-18666668Y4294766D02*
X-18666668Y3561433D01*
X-18666668Y3561433D02*
X-18600002Y3428100D01*
X-18600002Y3428100D02*
X-18466668Y3361433D01*
X-18466668Y3361433D02*
X-18266668Y3361433D01*
X-18266668Y3361433D02*
X-18133335Y3428100D01*
X-18133335Y3428100D02*
X-18066668Y3494766D01*
X-16333334Y4094766D02*
X-15266668Y4094766D01*
X-15266668Y3694766D02*
X-16333334Y3694766D01*
X-12800001Y4694766D02*
X-12933334Y4761433D01*
X-12933334Y4761433D02*
X-13133334Y4761433D01*
X-13133334Y4761433D02*
X-13333334Y4694766D01*
X-13333334Y4694766D02*
X-13466668Y4561433D01*
X-13466668Y4561433D02*
X-13533334Y4428100D01*
X-13533334Y4428100D02*
X-13600001Y4161433D01*
X-13600001Y4161433D02*
X-13600001Y3961433D01*
X-13600001Y3961433D02*
X-13533334Y3694766D01*
X-13533334Y3694766D02*
X-13466668Y3561433D01*
X-13466668Y3561433D02*
X-13333334Y3428100D01*
X-13333334Y3428100D02*
X-13133334Y3361433D01*
X-13133334Y3361433D02*
X-13000001Y3361433D01*
X-13000001Y3361433D02*
X-12800001Y3428100D01*
X-12800001Y3428100D02*
X-12733334Y3494766D01*
X-12733334Y3494766D02*
X-12733334Y3961433D01*
X-12733334Y3961433D02*
X-13000001Y3961433D01*
X-12133334Y3361433D02*
X-12133334Y4761433D01*
X-12133334Y4761433D02*
X-11333334Y3361433D01*
X-11333334Y3361433D02*
X-11333334Y4761433D01*
X-10666667Y3361433D02*
X-10666667Y4761433D01*
X-10666667Y4761433D02*
X-10333334Y4761433D01*
X-10333334Y4761433D02*
X-10133334Y4694766D01*
X-10133334Y4694766D02*
X-10000001Y4561433D01*
X-10000001Y4561433D02*
X-9933334Y4428100D01*
X-9933334Y4428100D02*
X-9866667Y4161433D01*
X-9866667Y4161433D02*
X-9866667Y3961433D01*
X-9866667Y3961433D02*
X-9933334Y3694766D01*
X-9933334Y3694766D02*
X-10000001Y3561433D01*
X-10000001Y3561433D02*
X-10133334Y3428100D01*
X-10133334Y3428100D02*
X-10333334Y3361433D01*
X-10333334Y3361433D02*
X-10666667Y3361433D01*
X-8200000Y4294766D02*
X-8200000Y2894766D01*
X-8200000Y4228100D02*
X-8066667Y4294766D01*
X-8066667Y4294766D02*
X-7800000Y4294766D01*
X-7800000Y4294766D02*
X-7666667Y4228100D01*
X-7666667Y4228100D02*
X-7600000Y4161433D01*
X-7600000Y4161433D02*
X-7533334Y4028100D01*
X-7533334Y4028100D02*
X-7533334Y3628100D01*
X-7533334Y3628100D02*
X-7600000Y3494766D01*
X-7600000Y3494766D02*
X-7666667Y3428100D01*
X-7666667Y3428100D02*
X-7800000Y3361433D01*
X-7800000Y3361433D02*
X-8066667Y3361433D01*
X-8066667Y3361433D02*
X-8200000Y3428100D01*
X-6733333Y3361433D02*
X-6866667Y3428100D01*
X-6866667Y3428100D02*
X-6933333Y3561433D01*
X-6933333Y3561433D02*
X-6933333Y4761433D01*
X-5600000Y3361433D02*
X-5600000Y4094766D01*
X-5600000Y4094766D02*
X-5666667Y4228100D01*
X-5666667Y4228100D02*
X-5800000Y4294766D01*
X-5800000Y4294766D02*
X-6066667Y4294766D01*
X-6066667Y4294766D02*
X-6200000Y4228100D01*
X-5600000Y3428100D02*
X-5733334Y3361433D01*
X-5733334Y3361433D02*
X-6066667Y3361433D01*
X-6066667Y3361433D02*
X-6200000Y3428100D01*
X-6200000Y3428100D02*
X-6266667Y3561433D01*
X-6266667Y3561433D02*
X-6266667Y3694766D01*
X-6266667Y3694766D02*
X-6200000Y3828100D01*
X-6200000Y3828100D02*
X-6066667Y3894766D01*
X-6066667Y3894766D02*
X-5733334Y3894766D01*
X-5733334Y3894766D02*
X-5600000Y3961433D01*
X-4933333Y4294766D02*
X-4933333Y3361433D01*
X-4933333Y4161433D02*
X-4866667Y4228100D01*
X-4866667Y4228100D02*
X-4733333Y4294766D01*
X-4733333Y4294766D02*
X-4533333Y4294766D01*
X-4533333Y4294766D02*
X-4400000Y4228100D01*
X-4400000Y4228100D02*
X-4333333Y4094766D01*
X-4333333Y4094766D02*
X-4333333Y3361433D01*
X-3133333Y3428100D02*
X-3266666Y3361433D01*
X-3266666Y3361433D02*
X-3533333Y3361433D01*
X-3533333Y3361433D02*
X-3666666Y3428100D01*
X-3666666Y3428100D02*
X-3733333Y3561433D01*
X-3733333Y3561433D02*
X-3733333Y4094766D01*
X-3733333Y4094766D02*
X-3666666Y4228100D01*
X-3666666Y4228100D02*
X-3533333Y4294766D01*
X-3533333Y4294766D02*
X-3266666Y4294766D01*
X-3266666Y4294766D02*
X-3133333Y4228100D01*
X-3133333Y4228100D02*
X-3066666Y4094766D01*
X-3066666Y4094766D02*
X-3066666Y3961433D01*
X-3066666Y3961433D02*
X-3733333Y3828100D01*
X733334Y3361433D02*
X733334Y4761433D01*
X1400001Y4294766D02*
X1400001Y3361433D01*
X1400001Y4161433D02*
X1466668Y4228100D01*
X1466668Y4228100D02*
X1600001Y4294766D01*
X1600001Y4294766D02*
X1800001Y4294766D01*
X1800001Y4294766D02*
X1933334Y4228100D01*
X1933334Y4228100D02*
X2000001Y4094766D01*
X2000001Y4094766D02*
X2000001Y3361433D01*
X2600001Y4628100D02*
X2666668Y4694766D01*
X2666668Y4694766D02*
X2800001Y4761433D01*
X2800001Y4761433D02*
X3133335Y4761433D01*
X3133335Y4761433D02*
X3266668Y4694766D01*
X3266668Y4694766D02*
X3333335Y4628100D01*
X3333335Y4628100D02*
X3400001Y4494766D01*
X3400001Y4494766D02*
X3400001Y4361433D01*
X3400001Y4361433D02*
X3333335Y4161433D01*
X3333335Y4161433D02*
X2533335Y3361433D01*
X2533335Y3361433D02*
X3400001Y3361433D01*
X4000001Y3494766D02*
X4066668Y3428100D01*
X4066668Y3428100D02*
X4000001Y3361433D01*
X4000001Y3361433D02*
X3933334Y3428100D01*
X3933334Y3428100D02*
X4000001Y3494766D01*
X4000001Y3494766D02*
X4000001Y3361433D01*
X5466668Y3494766D02*
X5400001Y3428100D01*
X5400001Y3428100D02*
X5200001Y3361433D01*
X5200001Y3361433D02*
X5066668Y3361433D01*
X5066668Y3361433D02*
X4866668Y3428100D01*
X4866668Y3428100D02*
X4733335Y3561433D01*
X4733335Y3561433D02*
X4666668Y3694766D01*
X4666668Y3694766D02*
X4600001Y3961433D01*
X4600001Y3961433D02*
X4600001Y4161433D01*
X4600001Y4161433D02*
X4666668Y4428100D01*
X4666668Y4428100D02*
X4733335Y4561433D01*
X4733335Y4561433D02*
X4866668Y4694766D01*
X4866668Y4694766D02*
X5066668Y4761433D01*
X5066668Y4761433D02*
X5200001Y4761433D01*
X5200001Y4761433D02*
X5400001Y4694766D01*
X5400001Y4694766D02*
X5466668Y4628100D01*
X6666668Y4294766D02*
X6666668Y3361433D01*
X6066668Y4294766D02*
X6066668Y3561433D01*
X6066668Y3561433D02*
X6133335Y3428100D01*
X6133335Y3428100D02*
X6266668Y3361433D01*
X6266668Y3361433D02*
X6466668Y3361433D01*
X6466668Y3361433D02*
X6600001Y3428100D01*
X6600001Y3428100D02*
X6666668Y3494766D01*
X8400002Y4094766D02*
X9466669Y4094766D01*
X9466669Y3694766D02*
X8400002Y3694766D01*
X11000002Y4761433D02*
X11466669Y3361433D01*
X11466669Y3361433D02*
X11933335Y4761433D01*
X12400002Y3361433D02*
X12400002Y4761433D01*
X12400002Y4761433D02*
X12733335Y4761433D01*
X12733335Y4761433D02*
X12933335Y4694766D01*
X12933335Y4694766D02*
X13066669Y4561433D01*
X13066669Y4561433D02*
X13133335Y4428100D01*
X13133335Y4428100D02*
X13200002Y4161433D01*
X13200002Y4161433D02*
X13200002Y3961433D01*
X13200002Y3961433D02*
X13133335Y3694766D01*
X13133335Y3694766D02*
X13066669Y3561433D01*
X13066669Y3561433D02*
X12933335Y3428100D01*
X12933335Y3428100D02*
X12733335Y3361433D01*
X12733335Y3361433D02*
X12400002Y3361433D01*
X13800002Y3361433D02*
X13800002Y4761433D01*
X13800002Y4761433D02*
X14133335Y4761433D01*
X14133335Y4761433D02*
X14333335Y4694766D01*
X14333335Y4694766D02*
X14466669Y4561433D01*
X14466669Y4561433D02*
X14533335Y4428100D01*
X14533335Y4428100D02*
X14600002Y4161433D01*
X14600002Y4161433D02*
X14600002Y3961433D01*
X14600002Y3961433D02*
X14533335Y3694766D01*
X14533335Y3694766D02*
X14466669Y3561433D01*
X14466669Y3561433D02*
X14333335Y3428100D01*
X14333335Y3428100D02*
X14133335Y3361433D01*
X14133335Y3361433D02*
X13800002Y3361433D01*
X15066669Y4761433D02*
X15933335Y4761433D01*
X15933335Y4761433D02*
X15466669Y4228100D01*
X15466669Y4228100D02*
X15666669Y4228100D01*
X15666669Y4228100D02*
X15800002Y4161433D01*
X15800002Y4161433D02*
X15866669Y4094766D01*
X15866669Y4094766D02*
X15933335Y3961433D01*
X15933335Y3961433D02*
X15933335Y3628100D01*
X15933335Y3628100D02*
X15866669Y3494766D01*
X15866669Y3494766D02*
X15800002Y3428100D01*
X15800002Y3428100D02*
X15666669Y3361433D01*
X15666669Y3361433D02*
X15266669Y3361433D01*
X15266669Y3361433D02*
X15133335Y3428100D01*
X15133335Y3428100D02*
X15066669Y3494766D01*
X16400002Y4761433D02*
X17266668Y4761433D01*
X17266668Y4761433D02*
X16800002Y4228100D01*
X16800002Y4228100D02*
X17000002Y4228100D01*
X17000002Y4228100D02*
X17133335Y4161433D01*
X17133335Y4161433D02*
X17200002Y4094766D01*
X17200002Y4094766D02*
X17266668Y3961433D01*
X17266668Y3961433D02*
X17266668Y3628100D01*
X17266668Y3628100D02*
X17200002Y3494766D01*
X17200002Y3494766D02*
X17133335Y3428100D01*
X17133335Y3428100D02*
X17000002Y3361433D01*
X17000002Y3361433D02*
X16600002Y3361433D01*
X16600002Y3361433D02*
X16466668Y3428100D01*
X16466668Y3428100D02*
X16400002Y3494766D01*
X18933335Y4294766D02*
X18933335Y2894766D01*
X18933335Y4228100D02*
X19066668Y4294766D01*
X19066668Y4294766D02*
X19333335Y4294766D01*
X19333335Y4294766D02*
X19466668Y4228100D01*
X19466668Y4228100D02*
X19533335Y4161433D01*
X19533335Y4161433D02*
X19600002Y4028100D01*
X19600002Y4028100D02*
X19600002Y3628100D01*
X19600002Y3628100D02*
X19533335Y3494766D01*
X19533335Y3494766D02*
X19466668Y3428100D01*
X19466668Y3428100D02*
X19333335Y3361433D01*
X19333335Y3361433D02*
X19066668Y3361433D01*
X19066668Y3361433D02*
X18933335Y3428100D01*
X20400002Y3361433D02*
X20266669Y3428100D01*
X20266669Y3428100D02*
X20200002Y3561433D01*
X20200002Y3561433D02*
X20200002Y4761433D01*
X21533335Y3361433D02*
X21533335Y4094766D01*
X21533335Y4094766D02*
X21466668Y4228100D01*
X21466668Y4228100D02*
X21333335Y4294766D01*
X21333335Y4294766D02*
X21066668Y4294766D01*
X21066668Y4294766D02*
X20933335Y4228100D01*
X21533335Y3428100D02*
X21400002Y3361433D01*
X21400002Y3361433D02*
X21066668Y3361433D01*
X21066668Y3361433D02*
X20933335Y3428100D01*
X20933335Y3428100D02*
X20866668Y3561433D01*
X20866668Y3561433D02*
X20866668Y3694766D01*
X20866668Y3694766D02*
X20933335Y3828100D01*
X20933335Y3828100D02*
X21066668Y3894766D01*
X21066668Y3894766D02*
X21400002Y3894766D01*
X21400002Y3894766D02*
X21533335Y3961433D01*
X22200002Y4294766D02*
X22200002Y3361433D01*
X22200002Y4161433D02*
X22266669Y4228100D01*
X22266669Y4228100D02*
X22400002Y4294766D01*
X22400002Y4294766D02*
X22600002Y4294766D01*
X22600002Y4294766D02*
X22733335Y4228100D01*
X22733335Y4228100D02*
X22800002Y4094766D01*
X22800002Y4094766D02*
X22800002Y3361433D01*
X24000002Y3428100D02*
X23866669Y3361433D01*
X23866669Y3361433D02*
X23600002Y3361433D01*
X23600002Y3361433D02*
X23466669Y3428100D01*
X23466669Y3428100D02*
X23400002Y3561433D01*
X23400002Y3561433D02*
X23400002Y4094766D01*
X23400002Y4094766D02*
X23466669Y4228100D01*
X23466669Y4228100D02*
X23600002Y4294766D01*
X23600002Y4294766D02*
X23866669Y4294766D01*
X23866669Y4294766D02*
X24000002Y4228100D01*
X24000002Y4228100D02*
X24066669Y4094766D01*
X24066669Y4094766D02*
X24066669Y3961433D01*
X24066669Y3961433D02*
X23400002Y3828100D01*
X-46900006Y-638566D02*
X-46900006Y761433D01*
X-46900006Y761433D02*
X-46366673Y761433D01*
X-46366673Y761433D02*
X-46233340Y694766D01*
X-46233340Y694766D02*
X-46166673Y628100D01*
X-46166673Y628100D02*
X-46100006Y494766D01*
X-46100006Y494766D02*
X-46100006Y294766D01*
X-46100006Y294766D02*
X-46166673Y161433D01*
X-46166673Y161433D02*
X-46233340Y94766D01*
X-46233340Y94766D02*
X-46366673Y28100D01*
X-46366673Y28100D02*
X-46900006Y28100D01*
X-45500006Y-638566D02*
X-45500006Y294766D01*
X-45500006Y761433D02*
X-45566673Y694766D01*
X-45566673Y694766D02*
X-45500006Y628100D01*
X-45500006Y628100D02*
X-45433340Y694766D01*
X-45433340Y694766D02*
X-45500006Y761433D01*
X-45500006Y761433D02*
X-45500006Y628100D01*
X-44966673Y-638566D02*
X-44233339Y294766D01*
X-44966673Y294766D02*
X-44233339Y-638566D01*
X-43166673Y-571900D02*
X-43300006Y-638566D01*
X-43300006Y-638566D02*
X-43566673Y-638566D01*
X-43566673Y-638566D02*
X-43700006Y-571900D01*
X-43700006Y-571900D02*
X-43766673Y-438566D01*
X-43766673Y-438566D02*
X-43766673Y94766D01*
X-43766673Y94766D02*
X-43700006Y228100D01*
X-43700006Y228100D02*
X-43566673Y294766D01*
X-43566673Y294766D02*
X-43300006Y294766D01*
X-43300006Y294766D02*
X-43166673Y228100D01*
X-43166673Y228100D02*
X-43100006Y94766D01*
X-43100006Y94766D02*
X-43100006Y-38566D01*
X-43100006Y-38566D02*
X-43766673Y-171900D01*
X-42300006Y-638566D02*
X-42433340Y-571900D01*
X-42433340Y-571900D02*
X-42500006Y-438566D01*
X-42500006Y-438566D02*
X-42500006Y761433D01*
X-41833340Y-571900D02*
X-41700007Y-638566D01*
X-41700007Y-638566D02*
X-41433340Y-638566D01*
X-41433340Y-638566D02*
X-41300007Y-571900D01*
X-41300007Y-571900D02*
X-41233340Y-438566D01*
X-41233340Y-438566D02*
X-41233340Y-371900D01*
X-41233340Y-371900D02*
X-41300007Y-238566D01*
X-41300007Y-238566D02*
X-41433340Y-171900D01*
X-41433340Y-171900D02*
X-41633340Y-171900D01*
X-41633340Y-171900D02*
X-41766673Y-105233D01*
X-41766673Y-105233D02*
X-41833340Y28100D01*
X-41833340Y28100D02*
X-41833340Y94766D01*
X-41833340Y94766D02*
X-41766673Y228100D01*
X-41766673Y228100D02*
X-41633340Y294766D01*
X-41633340Y294766D02*
X-41433340Y294766D01*
X-41433340Y294766D02*
X-41300007Y228100D01*
X-40633340Y294766D02*
X-40633340Y-638566D01*
X-40633340Y161433D02*
X-40566674Y228100D01*
X-40566674Y228100D02*
X-40433340Y294766D01*
X-40433340Y294766D02*
X-40233340Y294766D01*
X-40233340Y294766D02*
X-40100007Y228100D01*
X-40100007Y228100D02*
X-40033340Y94766D01*
X-40033340Y94766D02*
X-40033340Y-638566D01*
X-38766673Y-638566D02*
X-38766673Y94766D01*
X-38766673Y94766D02*
X-38833340Y228100D01*
X-38833340Y228100D02*
X-38966673Y294766D01*
X-38966673Y294766D02*
X-39233340Y294766D01*
X-39233340Y294766D02*
X-39366673Y228100D01*
X-38766673Y-571900D02*
X-38900007Y-638566D01*
X-38900007Y-638566D02*
X-39233340Y-638566D01*
X-39233340Y-638566D02*
X-39366673Y-571900D01*
X-39366673Y-571900D02*
X-39433340Y-438566D01*
X-39433340Y-438566D02*
X-39433340Y-305233D01*
X-39433340Y-305233D02*
X-39366673Y-171900D01*
X-39366673Y-171900D02*
X-39233340Y-105233D01*
X-39233340Y-105233D02*
X-38900007Y-105233D01*
X-38900007Y-105233D02*
X-38766673Y-38566D01*
X-38100006Y294766D02*
X-38100006Y-1105233D01*
X-38100006Y228100D02*
X-37966673Y294766D01*
X-37966673Y294766D02*
X-37700006Y294766D01*
X-37700006Y294766D02*
X-37566673Y228100D01*
X-37566673Y228100D02*
X-37500006Y161433D01*
X-37500006Y161433D02*
X-37433340Y28100D01*
X-37433340Y28100D02*
X-37433340Y-371900D01*
X-37433340Y-371900D02*
X-37500006Y-505233D01*
X-37500006Y-505233D02*
X-37566673Y-571900D01*
X-37566673Y-571900D02*
X-37700006Y-638566D01*
X-37700006Y-638566D02*
X-37966673Y-638566D01*
X-37966673Y-638566D02*
X-38100006Y-571900D01*
X-35766672Y-638566D02*
X-35766672Y294766D01*
X-35766672Y28100D02*
X-35700006Y161433D01*
X-35700006Y161433D02*
X-35633339Y228100D01*
X-35633339Y228100D02*
X-35500006Y294766D01*
X-35500006Y294766D02*
X-35366672Y294766D01*
X-34900005Y-638566D02*
X-34900005Y294766D01*
X-34900005Y761433D02*
X-34966672Y694766D01*
X-34966672Y694766D02*
X-34900005Y628100D01*
X-34900005Y628100D02*
X-34833339Y694766D01*
X-34833339Y694766D02*
X-34900005Y761433D01*
X-34900005Y761433D02*
X-34900005Y628100D01*
X-34233338Y294766D02*
X-34233338Y-638566D01*
X-34233338Y161433D02*
X-34166672Y228100D01*
X-34166672Y228100D02*
X-34033338Y294766D01*
X-34033338Y294766D02*
X-33833338Y294766D01*
X-33833338Y294766D02*
X-33700005Y228100D01*
X-33700005Y228100D02*
X-33633338Y94766D01*
X-33633338Y94766D02*
X-33633338Y-638566D01*
X-32366671Y294766D02*
X-32366671Y-838566D01*
X-32366671Y-838566D02*
X-32433338Y-971900D01*
X-32433338Y-971900D02*
X-32500005Y-1038566D01*
X-32500005Y-1038566D02*
X-32633338Y-1105233D01*
X-32633338Y-1105233D02*
X-32833338Y-1105233D01*
X-32833338Y-1105233D02*
X-32966671Y-1038566D01*
X-32366671Y-571900D02*
X-32500005Y-638566D01*
X-32500005Y-638566D02*
X-32766671Y-638566D01*
X-32766671Y-638566D02*
X-32900005Y-571900D01*
X-32900005Y-571900D02*
X-32966671Y-505233D01*
X-32966671Y-505233D02*
X-33033338Y-371900D01*
X-33033338Y-371900D02*
X-33033338Y28100D01*
X-33033338Y28100D02*
X-32966671Y161433D01*
X-32966671Y161433D02*
X-32900005Y228100D01*
X-32900005Y228100D02*
X-32766671Y294766D01*
X-32766671Y294766D02*
X-32500005Y294766D01*
X-32500005Y294766D02*
X-32366671Y228100D01*
X-30366671Y761433D02*
X-30100004Y761433D01*
X-30100004Y761433D02*
X-29966671Y694766D01*
X-29966671Y694766D02*
X-29833337Y561433D01*
X-29833337Y561433D02*
X-29766671Y294766D01*
X-29766671Y294766D02*
X-29766671Y-171900D01*
X-29766671Y-171900D02*
X-29833337Y-438566D01*
X-29833337Y-438566D02*
X-29966671Y-571900D01*
X-29966671Y-571900D02*
X-30100004Y-638566D01*
X-30100004Y-638566D02*
X-30366671Y-638566D01*
X-30366671Y-638566D02*
X-30500004Y-571900D01*
X-30500004Y-571900D02*
X-30633337Y-438566D01*
X-30633337Y-438566D02*
X-30700004Y-171900D01*
X-30700004Y-171900D02*
X-30700004Y294766D01*
X-30700004Y294766D02*
X-30633337Y561433D01*
X-30633337Y561433D02*
X-30500004Y694766D01*
X-30500004Y694766D02*
X-30366671Y761433D01*
X-29166670Y-638566D02*
X-29166670Y761433D01*
X-29166670Y761433D02*
X-28833337Y761433D01*
X-28833337Y761433D02*
X-28633337Y694766D01*
X-28633337Y694766D02*
X-28500004Y561433D01*
X-28500004Y561433D02*
X-28433337Y428099D01*
X-28433337Y428099D02*
X-28366670Y161433D01*
X-28366670Y161433D02*
X-28366670Y-38566D01*
X-28366670Y-38566D02*
X-28433337Y-305233D01*
X-28433337Y-305233D02*
X-28500004Y-438566D01*
X-28500004Y-438566D02*
X-28633337Y-571900D01*
X-28633337Y-571900D02*
X-28833337Y-638566D01*
X-28833337Y-638566D02*
X-29166670Y-638566D01*
X-26033337Y761433D02*
X-26700003Y761433D01*
X-26700003Y761433D02*
X-26766670Y94766D01*
X-26766670Y94766D02*
X-26700003Y161433D01*
X-26700003Y161433D02*
X-26566670Y228100D01*
X-26566670Y228100D02*
X-26233337Y228100D01*
X-26233337Y228100D02*
X-26100003Y161433D01*
X-26100003Y161433D02*
X-26033337Y94766D01*
X-26033337Y94766D02*
X-25966670Y-38566D01*
X-25966670Y-38566D02*
X-25966670Y-371900D01*
X-25966670Y-371900D02*
X-26033337Y-505233D01*
X-26033337Y-505233D02*
X-26100003Y-571900D01*
X-26100003Y-571900D02*
X-26233337Y-638566D01*
X-26233337Y-638566D02*
X-26566670Y-638566D01*
X-26566670Y-638566D02*
X-26700003Y-571900D01*
X-26700003Y-571900D02*
X-26766670Y-505233D01*
X-24766670Y761433D02*
X-25033337Y761433D01*
X-25033337Y761433D02*
X-25166670Y694766D01*
X-25166670Y694766D02*
X-25233337Y628100D01*
X-25233337Y628100D02*
X-25366670Y428099D01*
X-25366670Y428099D02*
X-25433337Y161433D01*
X-25433337Y161433D02*
X-25433337Y-371900D01*
X-25433337Y-371900D02*
X-25366670Y-505233D01*
X-25366670Y-505233D02*
X-25300004Y-571900D01*
X-25300004Y-571900D02*
X-25166670Y-638566D01*
X-25166670Y-638566D02*
X-24900004Y-638566D01*
X-24900004Y-638566D02*
X-24766670Y-571900D01*
X-24766670Y-571900D02*
X-24700004Y-505233D01*
X-24700004Y-505233D02*
X-24633337Y-371900D01*
X-24633337Y-371900D02*
X-24633337Y-38566D01*
X-24633337Y-38566D02*
X-24700004Y94766D01*
X-24700004Y94766D02*
X-24766670Y161433D01*
X-24766670Y161433D02*
X-24900004Y228100D01*
X-24900004Y228100D02*
X-25166670Y228100D01*
X-25166670Y228100D02*
X-25300004Y161433D01*
X-25300004Y161433D02*
X-25366670Y94766D01*
X-25366670Y94766D02*
X-25433337Y-38566D01*
X-21966670Y828100D02*
X-23166670Y-971900D01*
X-20433336Y-638566D02*
X-20433336Y761433D01*
X-19766669Y-638566D02*
X-19766669Y761433D01*
X-19766669Y761433D02*
X-19433336Y761433D01*
X-19433336Y761433D02*
X-19233336Y694766D01*
X-19233336Y694766D02*
X-19100003Y561433D01*
X-19100003Y561433D02*
X-19033336Y428099D01*
X-19033336Y428099D02*
X-18966669Y161433D01*
X-18966669Y161433D02*
X-18966669Y-38566D01*
X-18966669Y-38566D02*
X-19033336Y-305233D01*
X-19033336Y-305233D02*
X-19100003Y-438566D01*
X-19100003Y-438566D02*
X-19233336Y-571900D01*
X-19233336Y-571900D02*
X-19433336Y-638566D01*
X-19433336Y-638566D02*
X-19766669Y-638566D01*
X-16700002Y294766D02*
X-16700002Y-638566D01*
X-17033336Y828100D02*
X-17366669Y-171900D01*
X-17366669Y-171900D02*
X-16500002Y-171900D01*
X-15366669Y294766D02*
X-15366669Y-638566D01*
X-15700003Y828100D02*
X-16033336Y-171900D01*
X-16033336Y-171900D02*
X-15166669Y-171900D01*
X-13633336Y-571900D02*
X-13500003Y-638566D01*
X-13500003Y-638566D02*
X-13233336Y-638566D01*
X-13233336Y-638566D02*
X-13100003Y-571900D01*
X-13100003Y-571900D02*
X-13033336Y-438566D01*
X-13033336Y-438566D02*
X-13033336Y-371900D01*
X-13033336Y-371900D02*
X-13100003Y-238566D01*
X-13100003Y-238566D02*
X-13233336Y-171900D01*
X-13233336Y-171900D02*
X-13433336Y-171900D01*
X-13433336Y-171900D02*
X-13566669Y-105233D01*
X-13566669Y-105233D02*
X-13633336Y28100D01*
X-13633336Y28100D02*
X-13633336Y94766D01*
X-13633336Y94766D02*
X-13566669Y228100D01*
X-13566669Y228100D02*
X-13433336Y294766D01*
X-13433336Y294766D02*
X-13233336Y294766D01*
X-13233336Y294766D02*
X-13100003Y228100D01*
X-12433336Y-638566D02*
X-12433336Y294766D01*
X-12433336Y761433D02*
X-12500003Y694766D01*
X-12500003Y694766D02*
X-12433336Y628100D01*
X-12433336Y628100D02*
X-12366670Y694766D01*
X-12366670Y694766D02*
X-12433336Y761433D01*
X-12433336Y761433D02*
X-12433336Y628100D01*
X-11966669Y294766D02*
X-11433336Y294766D01*
X-11766669Y761433D02*
X-11766669Y-438566D01*
X-11766669Y-438566D02*
X-11700003Y-571900D01*
X-11700003Y-571900D02*
X-11566669Y-638566D01*
X-11566669Y-638566D02*
X-11433336Y-638566D01*
X-11033336Y-571900D02*
X-10900003Y-638566D01*
X-10900003Y-638566D02*
X-10633336Y-638566D01*
X-10633336Y-638566D02*
X-10500003Y-571900D01*
X-10500003Y-571900D02*
X-10433336Y-438566D01*
X-10433336Y-438566D02*
X-10433336Y-371900D01*
X-10433336Y-371900D02*
X-10500003Y-238566D01*
X-10500003Y-238566D02*
X-10633336Y-171900D01*
X-10633336Y-171900D02*
X-10833336Y-171900D01*
X-10833336Y-171900D02*
X-10966669Y-105233D01*
X-10966669Y-105233D02*
X-11033336Y28100D01*
X-11033336Y28100D02*
X-11033336Y94766D01*
X-11033336Y94766D02*
X-10966669Y228100D01*
X-10966669Y228100D02*
X-10833336Y294766D01*
X-10833336Y294766D02*
X-10633336Y294766D01*
X-10633336Y294766D02*
X-10500003Y228100D01*
X-8166669Y294766D02*
X-8166669Y-638566D01*
X-8766669Y294766D02*
X-8766669Y-438566D01*
X-8766669Y-438566D02*
X-8700003Y-571900D01*
X-8700003Y-571900D02*
X-8566669Y-638566D01*
X-8566669Y-638566D02*
X-8366669Y-638566D01*
X-8366669Y-638566D02*
X-8233336Y-571900D01*
X-8233336Y-571900D02*
X-8166669Y-505233D01*
X-7500002Y294766D02*
X-7500002Y-638566D01*
X-7500002Y161433D02*
X-7433336Y228100D01*
X-7433336Y228100D02*
X-7300002Y294766D01*
X-7300002Y294766D02*
X-7100002Y294766D01*
X-7100002Y294766D02*
X-6966669Y228100D01*
X-6966669Y228100D02*
X-6900002Y94766D01*
X-6900002Y94766D02*
X-6900002Y-638566D01*
X-5633335Y-638566D02*
X-5633335Y761433D01*
X-5633335Y-571900D02*
X-5766669Y-638566D01*
X-5766669Y-638566D02*
X-6033335Y-638566D01*
X-6033335Y-638566D02*
X-6166669Y-571900D01*
X-6166669Y-571900D02*
X-6233335Y-505233D01*
X-6233335Y-505233D02*
X-6300002Y-371900D01*
X-6300002Y-371900D02*
X-6300002Y28100D01*
X-6300002Y28100D02*
X-6233335Y161433D01*
X-6233335Y161433D02*
X-6166669Y228100D01*
X-6166669Y228100D02*
X-6033335Y294766D01*
X-6033335Y294766D02*
X-5766669Y294766D01*
X-5766669Y294766D02*
X-5633335Y228100D01*
X-4433335Y-571900D02*
X-4566668Y-638566D01*
X-4566668Y-638566D02*
X-4833335Y-638566D01*
X-4833335Y-638566D02*
X-4966668Y-571900D01*
X-4966668Y-571900D02*
X-5033335Y-438566D01*
X-5033335Y-438566D02*
X-5033335Y94766D01*
X-5033335Y94766D02*
X-4966668Y228100D01*
X-4966668Y228100D02*
X-4833335Y294766D01*
X-4833335Y294766D02*
X-4566668Y294766D01*
X-4566668Y294766D02*
X-4433335Y228100D01*
X-4433335Y228100D02*
X-4366668Y94766D01*
X-4366668Y94766D02*
X-4366668Y-38566D01*
X-4366668Y-38566D02*
X-5033335Y-171900D01*
X-3766668Y-638566D02*
X-3766668Y294766D01*
X-3766668Y28100D02*
X-3700002Y161433D01*
X-3700002Y161433D02*
X-3633335Y228100D01*
X-3633335Y228100D02*
X-3500002Y294766D01*
X-3500002Y294766D02*
X-3366668Y294766D01*
X-1366668Y94766D02*
X-1166668Y28100D01*
X-1166668Y28100D02*
X-1100001Y-38566D01*
X-1100001Y-38566D02*
X-1033334Y-171900D01*
X-1033334Y-171900D02*
X-1033334Y-371900D01*
X-1033334Y-371900D02*
X-1100001Y-505233D01*
X-1100001Y-505233D02*
X-1166668Y-571900D01*
X-1166668Y-571900D02*
X-1300001Y-638566D01*
X-1300001Y-638566D02*
X-1833334Y-638566D01*
X-1833334Y-638566D02*
X-1833334Y761433D01*
X-1833334Y761433D02*
X-1366668Y761433D01*
X-1366668Y761433D02*
X-1233334Y694766D01*
X-1233334Y694766D02*
X-1166668Y628100D01*
X-1166668Y628100D02*
X-1100001Y494766D01*
X-1100001Y494766D02*
X-1100001Y361433D01*
X-1100001Y361433D02*
X-1166668Y228100D01*
X-1166668Y228100D02*
X-1233334Y161433D01*
X-1233334Y161433D02*
X-1366668Y94766D01*
X-1366668Y94766D02*
X-1833334Y94766D01*
X-433334Y-505233D02*
X-366668Y-571900D01*
X-366668Y-571900D02*
X-433334Y-638566D01*
X-433334Y-638566D02*
X-500001Y-571900D01*
X-500001Y-571900D02*
X-433334Y-505233D01*
X-433334Y-505233D02*
X-433334Y-638566D01*
X1033332Y-505233D02*
X966665Y-571900D01*
X966665Y-571900D02*
X766665Y-638566D01*
X766665Y-638566D02*
X633332Y-638566D01*
X633332Y-638566D02*
X433332Y-571900D01*
X433332Y-571900D02*
X299999Y-438566D01*
X299999Y-438566D02*
X233332Y-305233D01*
X233332Y-305233D02*
X166665Y-38566D01*
X166665Y-38566D02*
X166665Y161433D01*
X166665Y161433D02*
X233332Y428099D01*
X233332Y428099D02*
X299999Y561433D01*
X299999Y561433D02*
X433332Y694766D01*
X433332Y694766D02*
X633332Y761433D01*
X633332Y761433D02*
X766665Y761433D01*
X766665Y761433D02*
X966665Y694766D01*
X966665Y694766D02*
X1033332Y628100D01*
X2233332Y294766D02*
X2233332Y-638566D01*
X1633332Y294766D02*
X1633332Y-438566D01*
X1633332Y-438566D02*
X1699999Y-571900D01*
X1699999Y-571900D02*
X1833332Y-638566D01*
X1833332Y-638566D02*
X2033332Y-638566D01*
X2033332Y-638566D02*
X2166665Y-571900D01*
X2166665Y-571900D02*
X2233332Y-505233D01*
X2899999Y-505233D02*
X2966666Y-571900D01*
X2966666Y-571900D02*
X2899999Y-638566D01*
X2899999Y-638566D02*
X2833332Y-571900D01*
X2833332Y-571900D02*
X2899999Y-505233D01*
X2899999Y-505233D02*
X2899999Y-638566D01*
X4633333Y-638566D02*
X4633333Y761433D01*
X4633333Y761433D02*
X5433333Y-638566D01*
X5433333Y-638566D02*
X5433333Y761433D01*
X6300000Y-638566D02*
X6166667Y-571900D01*
X6166667Y-571900D02*
X6100000Y-505233D01*
X6100000Y-505233D02*
X6033333Y-371900D01*
X6033333Y-371900D02*
X6033333Y28100D01*
X6033333Y28100D02*
X6100000Y161433D01*
X6100000Y161433D02*
X6166667Y228100D01*
X6166667Y228100D02*
X6300000Y294766D01*
X6300000Y294766D02*
X6500000Y294766D01*
X6500000Y294766D02*
X6633333Y228100D01*
X6633333Y228100D02*
X6700000Y161433D01*
X6700000Y161433D02*
X6766667Y28100D01*
X6766667Y28100D02*
X6766667Y-371900D01*
X6766667Y-371900D02*
X6700000Y-505233D01*
X6700000Y-505233D02*
X6633333Y-571900D01*
X6633333Y-571900D02*
X6500000Y-638566D01*
X6500000Y-638566D02*
X6300000Y-638566D01*
X8233334Y294766D02*
X8766667Y294766D01*
X8433334Y761433D02*
X8433334Y-438566D01*
X8433334Y-438566D02*
X8500001Y-571900D01*
X8500001Y-571900D02*
X8633334Y-638566D01*
X8633334Y-638566D02*
X8766667Y-638566D01*
X9833334Y-638566D02*
X9833334Y94766D01*
X9833334Y94766D02*
X9766667Y228100D01*
X9766667Y228100D02*
X9633334Y294766D01*
X9633334Y294766D02*
X9366667Y294766D01*
X9366667Y294766D02*
X9233334Y228100D01*
X9833334Y-571900D02*
X9700001Y-638566D01*
X9700001Y-638566D02*
X9366667Y-638566D01*
X9366667Y-638566D02*
X9233334Y-571900D01*
X9233334Y-571900D02*
X9166667Y-438566D01*
X9166667Y-438566D02*
X9166667Y-305233D01*
X9166667Y-305233D02*
X9233334Y-171900D01*
X9233334Y-171900D02*
X9366667Y-105233D01*
X9366667Y-105233D02*
X9700001Y-105233D01*
X9700001Y-105233D02*
X9833334Y-38566D01*
X10700001Y-638566D02*
X10566668Y-571900D01*
X10566668Y-571900D02*
X10500001Y-438566D01*
X10500001Y-438566D02*
X10500001Y761433D01*
X11433334Y-638566D02*
X11300001Y-571900D01*
X11300001Y-571900D02*
X11233334Y-438566D01*
X11233334Y-438566D02*
X11233334Y761433D01*
X13033334Y294766D02*
X13033334Y-1105233D01*
X13033334Y228100D02*
X13166667Y294766D01*
X13166667Y294766D02*
X13433334Y294766D01*
X13433334Y294766D02*
X13566667Y228100D01*
X13566667Y228100D02*
X13633334Y161433D01*
X13633334Y161433D02*
X13700001Y28100D01*
X13700001Y28100D02*
X13700001Y-371900D01*
X13700001Y-371900D02*
X13633334Y-505233D01*
X13633334Y-505233D02*
X13566667Y-571900D01*
X13566667Y-571900D02*
X13433334Y-638566D01*
X13433334Y-638566D02*
X13166667Y-638566D01*
X13166667Y-638566D02*
X13033334Y-571900D01*
X14900001Y-638566D02*
X14900001Y94766D01*
X14900001Y94766D02*
X14833334Y228100D01*
X14833334Y228100D02*
X14700001Y294766D01*
X14700001Y294766D02*
X14433334Y294766D01*
X14433334Y294766D02*
X14300001Y228100D01*
X14900001Y-571900D02*
X14766668Y-638566D01*
X14766668Y-638566D02*
X14433334Y-638566D01*
X14433334Y-638566D02*
X14300001Y-571900D01*
X14300001Y-571900D02*
X14233334Y-438566D01*
X14233334Y-438566D02*
X14233334Y-305233D01*
X14233334Y-305233D02*
X14300001Y-171900D01*
X14300001Y-171900D02*
X14433334Y-105233D01*
X14433334Y-105233D02*
X14766668Y-105233D01*
X14766668Y-105233D02*
X14900001Y-38566D01*
X15566668Y-638566D02*
X15566668Y294766D01*
X15566668Y28100D02*
X15633335Y161433D01*
X15633335Y161433D02*
X15700001Y228100D01*
X15700001Y228100D02*
X15833335Y294766D01*
X15833335Y294766D02*
X15966668Y294766D01*
X16233335Y294766D02*
X16766668Y294766D01*
X16433335Y761433D02*
X16433335Y-438566D01*
X16433335Y-438566D02*
X16500002Y-571900D01*
X16500002Y-571900D02*
X16633335Y-638566D01*
X16633335Y-638566D02*
X16766668Y-638566D01*
X17166668Y-571900D02*
X17300002Y-638566D01*
X17300002Y-638566D02*
X17566668Y-638566D01*
X17566668Y-638566D02*
X17700002Y-571900D01*
X17700002Y-571900D02*
X17766668Y-438566D01*
X17766668Y-438566D02*
X17766668Y-371900D01*
X17766668Y-371900D02*
X17700002Y-238566D01*
X17700002Y-238566D02*
X17566668Y-171900D01*
X17566668Y-171900D02*
X17366668Y-171900D01*
X17366668Y-171900D02*
X17233335Y-105233D01*
X17233335Y-105233D02*
X17166668Y28100D01*
X17166668Y28100D02*
X17166668Y94766D01*
X17166668Y94766D02*
X17233335Y228100D01*
X17233335Y228100D02*
X17366668Y294766D01*
X17366668Y294766D02*
X17566668Y294766D01*
X17566668Y294766D02*
X17700002Y228100D01*
X19633335Y-638566D02*
X19500002Y-571900D01*
X19500002Y-571900D02*
X19433335Y-505233D01*
X19433335Y-505233D02*
X19366668Y-371900D01*
X19366668Y-371900D02*
X19366668Y28100D01*
X19366668Y28100D02*
X19433335Y161433D01*
X19433335Y161433D02*
X19500002Y228100D01*
X19500002Y228100D02*
X19633335Y294766D01*
X19633335Y294766D02*
X19833335Y294766D01*
X19833335Y294766D02*
X19966668Y228100D01*
X19966668Y228100D02*
X20033335Y161433D01*
X20033335Y161433D02*
X20100002Y28100D01*
X20100002Y28100D02*
X20100002Y-371900D01*
X20100002Y-371900D02*
X20033335Y-505233D01*
X20033335Y-505233D02*
X19966668Y-571900D01*
X19966668Y-571900D02*
X19833335Y-638566D01*
X19833335Y-638566D02*
X19633335Y-638566D01*
X20700002Y294766D02*
X20700002Y-638566D01*
X20700002Y161433D02*
X20766669Y228100D01*
X20766669Y228100D02*
X20900002Y294766D01*
X20900002Y294766D02*
X21100002Y294766D01*
X21100002Y294766D02*
X21233335Y228100D01*
X21233335Y228100D02*
X21300002Y94766D01*
X21300002Y94766D02*
X21300002Y-638566D01*
X23500003Y94766D02*
X23700003Y28100D01*
X23700003Y28100D02*
X23766669Y-38566D01*
X23766669Y-38566D02*
X23833336Y-171900D01*
X23833336Y-171900D02*
X23833336Y-371900D01*
X23833336Y-371900D02*
X23766669Y-505233D01*
X23766669Y-505233D02*
X23700003Y-571900D01*
X23700003Y-571900D02*
X23566669Y-638566D01*
X23566669Y-638566D02*
X23033336Y-638566D01*
X23033336Y-638566D02*
X23033336Y761433D01*
X23033336Y761433D02*
X23500003Y761433D01*
X23500003Y761433D02*
X23633336Y694766D01*
X23633336Y694766D02*
X23700003Y628100D01*
X23700003Y628100D02*
X23766669Y494766D01*
X23766669Y494766D02*
X23766669Y361433D01*
X23766669Y361433D02*
X23700003Y228100D01*
X23700003Y228100D02*
X23633336Y161433D01*
X23633336Y161433D02*
X23500003Y94766D01*
X23500003Y94766D02*
X23033336Y94766D01*
X24433336Y-505233D02*
X24500003Y-571900D01*
X24500003Y-571900D02*
X24433336Y-638566D01*
X24433336Y-638566D02*
X24366669Y-571900D01*
X24366669Y-571900D02*
X24433336Y-505233D01*
X24433336Y-505233D02*
X24433336Y-638566D01*
X25900003Y-505233D02*
X25833336Y-571900D01*
X25833336Y-571900D02*
X25633336Y-638566D01*
X25633336Y-638566D02*
X25500003Y-638566D01*
X25500003Y-638566D02*
X25300003Y-571900D01*
X25300003Y-571900D02*
X25166670Y-438566D01*
X25166670Y-438566D02*
X25100003Y-305233D01*
X25100003Y-305233D02*
X25033336Y-38566D01*
X25033336Y-38566D02*
X25033336Y161433D01*
X25033336Y161433D02*
X25100003Y428099D01*
X25100003Y428099D02*
X25166670Y561433D01*
X25166670Y561433D02*
X25300003Y694766D01*
X25300003Y694766D02*
X25500003Y761433D01*
X25500003Y761433D02*
X25633336Y761433D01*
X25633336Y761433D02*
X25833336Y694766D01*
X25833336Y694766D02*
X25900003Y628100D01*
X27100003Y294766D02*
X27100003Y-638566D01*
X26500003Y294766D02*
X26500003Y-438566D01*
X26500003Y-438566D02*
X26566670Y-571900D01*
X26566670Y-571900D02*
X26700003Y-638566D01*
X26700003Y-638566D02*
X26900003Y-638566D01*
X26900003Y-638566D02*
X27033336Y-571900D01*
X27033336Y-571900D02*
X27100003Y-505233D01*
X28833337Y-638566D02*
X28833337Y294766D01*
X28833337Y761433D02*
X28766670Y694766D01*
X28766670Y694766D02*
X28833337Y628100D01*
X28833337Y628100D02*
X28900004Y694766D01*
X28900004Y694766D02*
X28833337Y761433D01*
X28833337Y761433D02*
X28833337Y628100D01*
X29500004Y294766D02*
X29500004Y-638566D01*
X29500004Y161433D02*
X29566671Y228100D01*
X29566671Y228100D02*
X29700004Y294766D01*
X29700004Y294766D02*
X29900004Y294766D01*
X29900004Y294766D02*
X30033337Y228100D01*
X30033337Y228100D02*
X30100004Y94766D01*
X30100004Y94766D02*
X30100004Y-638566D01*
X30700004Y-571900D02*
X30833338Y-638566D01*
X30833338Y-638566D02*
X31100004Y-638566D01*
X31100004Y-638566D02*
X31233338Y-571900D01*
X31233338Y-571900D02*
X31300004Y-438566D01*
X31300004Y-438566D02*
X31300004Y-371900D01*
X31300004Y-371900D02*
X31233338Y-238566D01*
X31233338Y-238566D02*
X31100004Y-171900D01*
X31100004Y-171900D02*
X30900004Y-171900D01*
X30900004Y-171900D02*
X30766671Y-105233D01*
X30766671Y-105233D02*
X30700004Y28100D01*
X30700004Y28100D02*
X30700004Y94766D01*
X30700004Y94766D02*
X30766671Y228100D01*
X30766671Y228100D02*
X30900004Y294766D01*
X30900004Y294766D02*
X31100004Y294766D01*
X31100004Y294766D02*
X31233338Y228100D01*
X31900004Y-638566D02*
X31900004Y294766D01*
X31900004Y761433D02*
X31833337Y694766D01*
X31833337Y694766D02*
X31900004Y628100D01*
X31900004Y628100D02*
X31966671Y694766D01*
X31966671Y694766D02*
X31900004Y761433D01*
X31900004Y761433D02*
X31900004Y628100D01*
X33166671Y-638566D02*
X33166671Y761433D01*
X33166671Y-571900D02*
X33033338Y-638566D01*
X33033338Y-638566D02*
X32766671Y-638566D01*
X32766671Y-638566D02*
X32633338Y-571900D01*
X32633338Y-571900D02*
X32566671Y-505233D01*
X32566671Y-505233D02*
X32500004Y-371900D01*
X32500004Y-371900D02*
X32500004Y28100D01*
X32500004Y28100D02*
X32566671Y161433D01*
X32566671Y161433D02*
X32633338Y228100D01*
X32633338Y228100D02*
X32766671Y294766D01*
X32766671Y294766D02*
X33033338Y294766D01*
X33033338Y294766D02*
X33166671Y228100D01*
X34366671Y-571900D02*
X34233338Y-638566D01*
X34233338Y-638566D02*
X33966671Y-638566D01*
X33966671Y-638566D02*
X33833338Y-571900D01*
X33833338Y-571900D02*
X33766671Y-438566D01*
X33766671Y-438566D02*
X33766671Y94766D01*
X33766671Y94766D02*
X33833338Y228100D01*
X33833338Y228100D02*
X33966671Y294766D01*
X33966671Y294766D02*
X34233338Y294766D01*
X34233338Y294766D02*
X34366671Y228100D01*
X34366671Y228100D02*
X34433338Y94766D01*
X34433338Y94766D02*
X34433338Y-38566D01*
X34433338Y-38566D02*
X33766671Y-171900D01*
X35900005Y294766D02*
X36433338Y294766D01*
X36100005Y761433D02*
X36100005Y-438566D01*
X36100005Y-438566D02*
X36166672Y-571900D01*
X36166672Y-571900D02*
X36300005Y-638566D01*
X36300005Y-638566D02*
X36433338Y-638566D01*
X36900005Y-638566D02*
X36900005Y761433D01*
X37500005Y-638566D02*
X37500005Y94766D01*
X37500005Y94766D02*
X37433338Y228100D01*
X37433338Y228100D02*
X37300005Y294766D01*
X37300005Y294766D02*
X37100005Y294766D01*
X37100005Y294766D02*
X36966672Y228100D01*
X36966672Y228100D02*
X36900005Y161433D01*
X38166672Y-638566D02*
X38166672Y294766D01*
X38166672Y761433D02*
X38100005Y694766D01*
X38100005Y694766D02*
X38166672Y628100D01*
X38166672Y628100D02*
X38233339Y694766D01*
X38233339Y694766D02*
X38166672Y761433D01*
X38166672Y761433D02*
X38166672Y628100D01*
X38766672Y-571900D02*
X38900006Y-638566D01*
X38900006Y-638566D02*
X39166672Y-638566D01*
X39166672Y-638566D02*
X39300006Y-571900D01*
X39300006Y-571900D02*
X39366672Y-438566D01*
X39366672Y-438566D02*
X39366672Y-371900D01*
X39366672Y-371900D02*
X39300006Y-238566D01*
X39300006Y-238566D02*
X39166672Y-171900D01*
X39166672Y-171900D02*
X38966672Y-171900D01*
X38966672Y-171900D02*
X38833339Y-105233D01*
X38833339Y-105233D02*
X38766672Y28100D01*
X38766672Y28100D02*
X38766672Y94766D01*
X38766672Y94766D02*
X38833339Y228100D01*
X38833339Y228100D02*
X38966672Y294766D01*
X38966672Y294766D02*
X39166672Y294766D01*
X39166672Y294766D02*
X39300006Y228100D01*
X41633339Y-571900D02*
X41500006Y-638566D01*
X41500006Y-638566D02*
X41233339Y-638566D01*
X41233339Y-638566D02*
X41100006Y-571900D01*
X41100006Y-571900D02*
X41033339Y-505233D01*
X41033339Y-505233D02*
X40966672Y-371900D01*
X40966672Y-371900D02*
X40966672Y28100D01*
X40966672Y28100D02*
X41033339Y161433D01*
X41033339Y161433D02*
X41100006Y228100D01*
X41100006Y228100D02*
X41233339Y294766D01*
X41233339Y294766D02*
X41500006Y294766D01*
X41500006Y294766D02*
X41633339Y228100D01*
X42233339Y-638566D02*
X42233339Y294766D01*
X42233339Y761433D02*
X42166672Y694766D01*
X42166672Y694766D02*
X42233339Y628100D01*
X42233339Y628100D02*
X42300006Y694766D01*
X42300006Y694766D02*
X42233339Y761433D01*
X42233339Y761433D02*
X42233339Y628100D01*
X42900006Y-638566D02*
X42900006Y294766D01*
X42900006Y28100D02*
X42966673Y161433D01*
X42966673Y161433D02*
X43033339Y228100D01*
X43033339Y228100D02*
X43166673Y294766D01*
X43166673Y294766D02*
X43300006Y294766D01*
X44366673Y-571900D02*
X44233340Y-638566D01*
X44233340Y-638566D02*
X43966673Y-638566D01*
X43966673Y-638566D02*
X43833340Y-571900D01*
X43833340Y-571900D02*
X43766673Y-505233D01*
X43766673Y-505233D02*
X43700006Y-371900D01*
X43700006Y-371900D02*
X43700006Y28100D01*
X43700006Y28100D02*
X43766673Y161433D01*
X43766673Y161433D02*
X43833340Y228100D01*
X43833340Y228100D02*
X43966673Y294766D01*
X43966673Y294766D02*
X44233340Y294766D01*
X44233340Y294766D02*
X44366673Y228100D01*
X45166673Y-638566D02*
X45033340Y-571900D01*
X45033340Y-571900D02*
X44966673Y-438566D01*
X44966673Y-438566D02*
X44966673Y761433D01*
X46233339Y-571900D02*
X46100006Y-638566D01*
X46100006Y-638566D02*
X45833339Y-638566D01*
X45833339Y-638566D02*
X45700006Y-571900D01*
X45700006Y-571900D02*
X45633339Y-438566D01*
X45633339Y-438566D02*
X45633339Y94766D01*
X45633339Y94766D02*
X45700006Y228100D01*
X45700006Y228100D02*
X45833339Y294766D01*
X45833339Y294766D02*
X46100006Y294766D01*
X46100006Y294766D02*
X46233339Y228100D01*
X46233339Y228100D02*
X46300006Y94766D01*
X46300006Y94766D02*
X46300006Y-38566D01*
X46300006Y-38566D02*
X45633339Y-171900D01*
X46900006Y-505233D02*
X46966673Y-571900D01*
X46966673Y-571900D02*
X46900006Y-638566D01*
X46900006Y-638566D02*
X46833339Y-571900D01*
X46833339Y-571900D02*
X46900006Y-505233D01*
X46900006Y-505233D02*
X46900006Y-638566D01*
X-35266673Y-3905233D02*
X-35066673Y-3971900D01*
X-35066673Y-3971900D02*
X-35000006Y-4038566D01*
X-35000006Y-4038566D02*
X-34933339Y-4171900D01*
X-34933339Y-4171900D02*
X-34933339Y-4371900D01*
X-34933339Y-4371900D02*
X-35000006Y-4505233D01*
X-35000006Y-4505233D02*
X-35066673Y-4571900D01*
X-35066673Y-4571900D02*
X-35200006Y-4638566D01*
X-35200006Y-4638566D02*
X-35733339Y-4638566D01*
X-35733339Y-4638566D02*
X-35733339Y-3238566D01*
X-35733339Y-3238566D02*
X-35266673Y-3238566D01*
X-35266673Y-3238566D02*
X-35133339Y-3305233D01*
X-35133339Y-3305233D02*
X-35066673Y-3371900D01*
X-35066673Y-3371900D02*
X-35000006Y-3505233D01*
X-35000006Y-3505233D02*
X-35000006Y-3638566D01*
X-35000006Y-3638566D02*
X-35066673Y-3771900D01*
X-35066673Y-3771900D02*
X-35133339Y-3838566D01*
X-35133339Y-3838566D02*
X-35266673Y-3905233D01*
X-35266673Y-3905233D02*
X-35733339Y-3905233D01*
X-34333339Y-4505233D02*
X-34266673Y-4571900D01*
X-34266673Y-4571900D02*
X-34333339Y-4638566D01*
X-34333339Y-4638566D02*
X-34400006Y-4571900D01*
X-34400006Y-4571900D02*
X-34333339Y-4505233D01*
X-34333339Y-4505233D02*
X-34333339Y-4638566D01*
X-32866672Y-4505233D02*
X-32933339Y-4571900D01*
X-32933339Y-4571900D02*
X-33133339Y-4638566D01*
X-33133339Y-4638566D02*
X-33266672Y-4638566D01*
X-33266672Y-4638566D02*
X-33466672Y-4571900D01*
X-33466672Y-4571900D02*
X-33600006Y-4438566D01*
X-33600006Y-4438566D02*
X-33666672Y-4305233D01*
X-33666672Y-4305233D02*
X-33733339Y-4038566D01*
X-33733339Y-4038566D02*
X-33733339Y-3838566D01*
X-33733339Y-3838566D02*
X-33666672Y-3571900D01*
X-33666672Y-3571900D02*
X-33600006Y-3438566D01*
X-33600006Y-3438566D02*
X-33466672Y-3305233D01*
X-33466672Y-3305233D02*
X-33266672Y-3238566D01*
X-33266672Y-3238566D02*
X-33133339Y-3238566D01*
X-33133339Y-3238566D02*
X-32933339Y-3305233D01*
X-32933339Y-3305233D02*
X-32866672Y-3371900D01*
X-31666672Y-3705233D02*
X-31666672Y-4638566D01*
X-32266672Y-3705233D02*
X-32266672Y-4438566D01*
X-32266672Y-4438566D02*
X-32200006Y-4571900D01*
X-32200006Y-4571900D02*
X-32066672Y-4638566D01*
X-32066672Y-4638566D02*
X-31866672Y-4638566D01*
X-31866672Y-4638566D02*
X-31733339Y-4571900D01*
X-31733339Y-4571900D02*
X-31666672Y-4505233D01*
X-30133338Y-3705233D02*
X-29600005Y-3705233D01*
X-29933338Y-4638566D02*
X-29933338Y-3438566D01*
X-29933338Y-3438566D02*
X-29866672Y-3305233D01*
X-29866672Y-3305233D02*
X-29733338Y-3238566D01*
X-29733338Y-3238566D02*
X-29600005Y-3238566D01*
X-28533338Y-4638566D02*
X-28533338Y-3905233D01*
X-28533338Y-3905233D02*
X-28600005Y-3771900D01*
X-28600005Y-3771900D02*
X-28733338Y-3705233D01*
X-28733338Y-3705233D02*
X-29000005Y-3705233D01*
X-29000005Y-3705233D02*
X-29133338Y-3771900D01*
X-28533338Y-4571900D02*
X-28666672Y-4638566D01*
X-28666672Y-4638566D02*
X-29000005Y-4638566D01*
X-29000005Y-4638566D02*
X-29133338Y-4571900D01*
X-29133338Y-4571900D02*
X-29200005Y-4438566D01*
X-29200005Y-4438566D02*
X-29200005Y-4305233D01*
X-29200005Y-4305233D02*
X-29133338Y-4171900D01*
X-29133338Y-4171900D02*
X-29000005Y-4105233D01*
X-29000005Y-4105233D02*
X-28666672Y-4105233D01*
X-28666672Y-4105233D02*
X-28533338Y-4038566D01*
X-27266671Y-4571900D02*
X-27400005Y-4638566D01*
X-27400005Y-4638566D02*
X-27666671Y-4638566D01*
X-27666671Y-4638566D02*
X-27800005Y-4571900D01*
X-27800005Y-4571900D02*
X-27866671Y-4505233D01*
X-27866671Y-4505233D02*
X-27933338Y-4371900D01*
X-27933338Y-4371900D02*
X-27933338Y-3971900D01*
X-27933338Y-3971900D02*
X-27866671Y-3838566D01*
X-27866671Y-3838566D02*
X-27800005Y-3771900D01*
X-27800005Y-3771900D02*
X-27666671Y-3705233D01*
X-27666671Y-3705233D02*
X-27400005Y-3705233D01*
X-27400005Y-3705233D02*
X-27266671Y-3771900D01*
X-26133338Y-4571900D02*
X-26266671Y-4638566D01*
X-26266671Y-4638566D02*
X-26533338Y-4638566D01*
X-26533338Y-4638566D02*
X-26666671Y-4571900D01*
X-26666671Y-4571900D02*
X-26733338Y-4438566D01*
X-26733338Y-4438566D02*
X-26733338Y-3905233D01*
X-26733338Y-3905233D02*
X-26666671Y-3771900D01*
X-26666671Y-3771900D02*
X-26533338Y-3705233D01*
X-26533338Y-3705233D02*
X-26266671Y-3705233D01*
X-26266671Y-3705233D02*
X-26133338Y-3771900D01*
X-26133338Y-3771900D02*
X-26066671Y-3905233D01*
X-26066671Y-3905233D02*
X-26066671Y-4038566D01*
X-26066671Y-4038566D02*
X-26733338Y-4171900D01*
X-25533338Y-4571900D02*
X-25400005Y-4638566D01*
X-25400005Y-4638566D02*
X-25133338Y-4638566D01*
X-25133338Y-4638566D02*
X-25000005Y-4571900D01*
X-25000005Y-4571900D02*
X-24933338Y-4438566D01*
X-24933338Y-4438566D02*
X-24933338Y-4371900D01*
X-24933338Y-4371900D02*
X-25000005Y-4238566D01*
X-25000005Y-4238566D02*
X-25133338Y-4171900D01*
X-25133338Y-4171900D02*
X-25333338Y-4171900D01*
X-25333338Y-4171900D02*
X-25466671Y-4105233D01*
X-25466671Y-4105233D02*
X-25533338Y-3971900D01*
X-25533338Y-3971900D02*
X-25533338Y-3905233D01*
X-25533338Y-3905233D02*
X-25466671Y-3771900D01*
X-25466671Y-3771900D02*
X-25333338Y-3705233D01*
X-25333338Y-3705233D02*
X-25133338Y-3705233D01*
X-25133338Y-3705233D02*
X-25000005Y-3771900D01*
X-23466671Y-3705233D02*
X-22933338Y-3705233D01*
X-23266671Y-3238566D02*
X-23266671Y-4438566D01*
X-23266671Y-4438566D02*
X-23200005Y-4571900D01*
X-23200005Y-4571900D02*
X-23066671Y-4638566D01*
X-23066671Y-4638566D02*
X-22933338Y-4638566D01*
X-22466671Y-4638566D02*
X-22466671Y-3238566D01*
X-21866671Y-4638566D02*
X-21866671Y-3905233D01*
X-21866671Y-3905233D02*
X-21933338Y-3771900D01*
X-21933338Y-3771900D02*
X-22066671Y-3705233D01*
X-22066671Y-3705233D02*
X-22266671Y-3705233D01*
X-22266671Y-3705233D02*
X-22400005Y-3771900D01*
X-22400005Y-3771900D02*
X-22466671Y-3838566D01*
X-20666671Y-4571900D02*
X-20800004Y-4638566D01*
X-20800004Y-4638566D02*
X-21066671Y-4638566D01*
X-21066671Y-4638566D02*
X-21200004Y-4571900D01*
X-21200004Y-4571900D02*
X-21266671Y-4438566D01*
X-21266671Y-4438566D02*
X-21266671Y-3905233D01*
X-21266671Y-3905233D02*
X-21200004Y-3771900D01*
X-21200004Y-3771900D02*
X-21066671Y-3705233D01*
X-21066671Y-3705233D02*
X-20800004Y-3705233D01*
X-20800004Y-3705233D02*
X-20666671Y-3771900D01*
X-20666671Y-3771900D02*
X-20600004Y-3905233D01*
X-20600004Y-3905233D02*
X-20600004Y-4038566D01*
X-20600004Y-4038566D02*
X-21266671Y-4171900D01*
X-18933337Y-3705233D02*
X-18933337Y-5105233D01*
X-18933337Y-3771900D02*
X-18800004Y-3705233D01*
X-18800004Y-3705233D02*
X-18533337Y-3705233D01*
X-18533337Y-3705233D02*
X-18400004Y-3771900D01*
X-18400004Y-3771900D02*
X-18333337Y-3838566D01*
X-18333337Y-3838566D02*
X-18266671Y-3971900D01*
X-18266671Y-3971900D02*
X-18266671Y-4371900D01*
X-18266671Y-4371900D02*
X-18333337Y-4505233D01*
X-18333337Y-4505233D02*
X-18400004Y-4571900D01*
X-18400004Y-4571900D02*
X-18533337Y-4638566D01*
X-18533337Y-4638566D02*
X-18800004Y-4638566D01*
X-18800004Y-4638566D02*
X-18933337Y-4571900D01*
X-17666670Y-4638566D02*
X-17666670Y-3238566D01*
X-17066670Y-4638566D02*
X-17066670Y-3905233D01*
X-17066670Y-3905233D02*
X-17133337Y-3771900D01*
X-17133337Y-3771900D02*
X-17266670Y-3705233D01*
X-17266670Y-3705233D02*
X-17466670Y-3705233D01*
X-17466670Y-3705233D02*
X-17600004Y-3771900D01*
X-17600004Y-3771900D02*
X-17666670Y-3838566D01*
X-16200003Y-4638566D02*
X-16333337Y-4571900D01*
X-16333337Y-4571900D02*
X-16400003Y-4505233D01*
X-16400003Y-4505233D02*
X-16466670Y-4371900D01*
X-16466670Y-4371900D02*
X-16466670Y-3971900D01*
X-16466670Y-3971900D02*
X-16400003Y-3838566D01*
X-16400003Y-3838566D02*
X-16333337Y-3771900D01*
X-16333337Y-3771900D02*
X-16200003Y-3705233D01*
X-16200003Y-3705233D02*
X-16000003Y-3705233D01*
X-16000003Y-3705233D02*
X-15866670Y-3771900D01*
X-15866670Y-3771900D02*
X-15800003Y-3838566D01*
X-15800003Y-3838566D02*
X-15733337Y-3971900D01*
X-15733337Y-3971900D02*
X-15733337Y-4371900D01*
X-15733337Y-4371900D02*
X-15800003Y-4505233D01*
X-15800003Y-4505233D02*
X-15866670Y-4571900D01*
X-15866670Y-4571900D02*
X-16000003Y-4638566D01*
X-16000003Y-4638566D02*
X-16200003Y-4638566D01*
X-15133336Y-3705233D02*
X-15133336Y-4638566D01*
X-15133336Y-3838566D02*
X-15066670Y-3771900D01*
X-15066670Y-3771900D02*
X-14933336Y-3705233D01*
X-14933336Y-3705233D02*
X-14733336Y-3705233D01*
X-14733336Y-3705233D02*
X-14600003Y-3771900D01*
X-14600003Y-3771900D02*
X-14533336Y-3905233D01*
X-14533336Y-3905233D02*
X-14533336Y-4638566D01*
X-13333336Y-4571900D02*
X-13466669Y-4638566D01*
X-13466669Y-4638566D02*
X-13733336Y-4638566D01*
X-13733336Y-4638566D02*
X-13866669Y-4571900D01*
X-13866669Y-4571900D02*
X-13933336Y-4438566D01*
X-13933336Y-4438566D02*
X-13933336Y-3905233D01*
X-13933336Y-3905233D02*
X-13866669Y-3771900D01*
X-13866669Y-3771900D02*
X-13733336Y-3705233D01*
X-13733336Y-3705233D02*
X-13466669Y-3705233D01*
X-13466669Y-3705233D02*
X-13333336Y-3771900D01*
X-13333336Y-3771900D02*
X-13266669Y-3905233D01*
X-13266669Y-3905233D02*
X-13266669Y-4038566D01*
X-13266669Y-4038566D02*
X-13933336Y-4171900D01*
X-12666669Y-4505233D02*
X-12600003Y-4571900D01*
X-12600003Y-4571900D02*
X-12666669Y-4638566D01*
X-12666669Y-4638566D02*
X-12733336Y-4571900D01*
X-12733336Y-4571900D02*
X-12666669Y-4505233D01*
X-12666669Y-4505233D02*
X-12666669Y-4638566D01*
X-10466669Y-3905233D02*
X-10933335Y-3905233D01*
X-10933335Y-4638566D02*
X-10933335Y-3238566D01*
X-10933335Y-3238566D02*
X-10266669Y-3238566D01*
X-9733335Y-4505233D02*
X-9666669Y-4571900D01*
X-9666669Y-4571900D02*
X-9733335Y-4638566D01*
X-9733335Y-4638566D02*
X-9800002Y-4571900D01*
X-9800002Y-4571900D02*
X-9733335Y-4505233D01*
X-9733335Y-4505233D02*
X-9733335Y-4638566D01*
X-8266668Y-4505233D02*
X-8333335Y-4571900D01*
X-8333335Y-4571900D02*
X-8533335Y-4638566D01*
X-8533335Y-4638566D02*
X-8666668Y-4638566D01*
X-8666668Y-4638566D02*
X-8866668Y-4571900D01*
X-8866668Y-4571900D02*
X-9000002Y-4438566D01*
X-9000002Y-4438566D02*
X-9066668Y-4305233D01*
X-9066668Y-4305233D02*
X-9133335Y-4038566D01*
X-9133335Y-4038566D02*
X-9133335Y-3838566D01*
X-9133335Y-3838566D02*
X-9066668Y-3571900D01*
X-9066668Y-3571900D02*
X-9000002Y-3438566D01*
X-9000002Y-3438566D02*
X-8866668Y-3305233D01*
X-8866668Y-3305233D02*
X-8666668Y-3238566D01*
X-8666668Y-3238566D02*
X-8533335Y-3238566D01*
X-8533335Y-3238566D02*
X-8333335Y-3305233D01*
X-8333335Y-3305233D02*
X-8266668Y-3371900D01*
X-7066668Y-3705233D02*
X-7066668Y-4638566D01*
X-7666668Y-3705233D02*
X-7666668Y-4438566D01*
X-7666668Y-4438566D02*
X-7600002Y-4571900D01*
X-7600002Y-4571900D02*
X-7466668Y-4638566D01*
X-7466668Y-4638566D02*
X-7266668Y-4638566D01*
X-7266668Y-4638566D02*
X-7133335Y-4571900D01*
X-7133335Y-4571900D02*
X-7066668Y-4505233D01*
X-4733334Y-4571900D02*
X-4866668Y-4638566D01*
X-4866668Y-4638566D02*
X-5133334Y-4638566D01*
X-5133334Y-4638566D02*
X-5266668Y-4571900D01*
X-5266668Y-4571900D02*
X-5333334Y-4505233D01*
X-5333334Y-4505233D02*
X-5400001Y-4371900D01*
X-5400001Y-4371900D02*
X-5400001Y-3971900D01*
X-5400001Y-3971900D02*
X-5333334Y-3838566D01*
X-5333334Y-3838566D02*
X-5266668Y-3771900D01*
X-5266668Y-3771900D02*
X-5133334Y-3705233D01*
X-5133334Y-3705233D02*
X-4866668Y-3705233D01*
X-4866668Y-3705233D02*
X-4733334Y-3771900D01*
X-3533334Y-4638566D02*
X-3533334Y-3905233D01*
X-3533334Y-3905233D02*
X-3600001Y-3771900D01*
X-3600001Y-3771900D02*
X-3733334Y-3705233D01*
X-3733334Y-3705233D02*
X-4000001Y-3705233D01*
X-4000001Y-3705233D02*
X-4133334Y-3771900D01*
X-3533334Y-4571900D02*
X-3666668Y-4638566D01*
X-3666668Y-4638566D02*
X-4000001Y-4638566D01*
X-4000001Y-4638566D02*
X-4133334Y-4571900D01*
X-4133334Y-4571900D02*
X-4200001Y-4438566D01*
X-4200001Y-4438566D02*
X-4200001Y-4305233D01*
X-4200001Y-4305233D02*
X-4133334Y-4171900D01*
X-4133334Y-4171900D02*
X-4000001Y-4105233D01*
X-4000001Y-4105233D02*
X-3666668Y-4105233D01*
X-3666668Y-4105233D02*
X-3533334Y-4038566D01*
X-2866667Y-4638566D02*
X-2866667Y-3705233D01*
X-2866667Y-3971900D02*
X-2800001Y-3838566D01*
X-2800001Y-3838566D02*
X-2733334Y-3771900D01*
X-2733334Y-3771900D02*
X-2600001Y-3705233D01*
X-2600001Y-3705233D02*
X-2466667Y-3705233D01*
X-2000000Y-4638566D02*
X-2000000Y-3705233D01*
X-2000000Y-3971900D02*
X-1933334Y-3838566D01*
X-1933334Y-3838566D02*
X-1866667Y-3771900D01*
X-1866667Y-3771900D02*
X-1733334Y-3705233D01*
X-1733334Y-3705233D02*
X-1600000Y-3705233D01*
X-1133333Y-4638566D02*
X-1133333Y-3705233D01*
X-1133333Y-3238566D02*
X-1200000Y-3305233D01*
X-1200000Y-3305233D02*
X-1133333Y-3371900D01*
X-1133333Y-3371900D02*
X-1066667Y-3305233D01*
X-1066667Y-3305233D02*
X-1133333Y-3238566D01*
X-1133333Y-3238566D02*
X-1133333Y-3371900D01*
X66666Y-4571900D02*
X-66666Y-4638566D01*
X-66666Y-4638566D02*
X-333333Y-4638566D01*
X-333333Y-4638566D02*
X-466666Y-4571900D01*
X-466666Y-4571900D02*
X-533333Y-4438566D01*
X-533333Y-4438566D02*
X-533333Y-3905233D01*
X-533333Y-3905233D02*
X-466666Y-3771900D01*
X-466666Y-3771900D02*
X-333333Y-3705233D01*
X-333333Y-3705233D02*
X-66666Y-3705233D01*
X-66666Y-3705233D02*
X66666Y-3771900D01*
X66666Y-3771900D02*
X133333Y-3905233D01*
X133333Y-3905233D02*
X133333Y-4038566D01*
X133333Y-4038566D02*
X-533333Y-4171900D01*
X666666Y-4571900D02*
X800000Y-4638566D01*
X800000Y-4638566D02*
X1066666Y-4638566D01*
X1066666Y-4638566D02*
X1200000Y-4571900D01*
X1200000Y-4571900D02*
X1266666Y-4438566D01*
X1266666Y-4438566D02*
X1266666Y-4371900D01*
X1266666Y-4371900D02*
X1200000Y-4238566D01*
X1200000Y-4238566D02*
X1066666Y-4171900D01*
X1066666Y-4171900D02*
X866666Y-4171900D01*
X866666Y-4171900D02*
X733333Y-4105233D01*
X733333Y-4105233D02*
X666666Y-3971900D01*
X666666Y-3971900D02*
X666666Y-3905233D01*
X666666Y-3905233D02*
X733333Y-3771900D01*
X733333Y-3771900D02*
X866666Y-3705233D01*
X866666Y-3705233D02*
X1066666Y-3705233D01*
X1066666Y-3705233D02*
X1200000Y-3771900D01*
X2733333Y-3705233D02*
X3266666Y-3705233D01*
X2933333Y-3238566D02*
X2933333Y-4438566D01*
X2933333Y-4438566D02*
X3000000Y-4571900D01*
X3000000Y-4571900D02*
X3133333Y-4638566D01*
X3133333Y-4638566D02*
X3266666Y-4638566D01*
X3733333Y-4638566D02*
X3733333Y-3238566D01*
X4333333Y-4638566D02*
X4333333Y-3905233D01*
X4333333Y-3905233D02*
X4266666Y-3771900D01*
X4266666Y-3771900D02*
X4133333Y-3705233D01*
X4133333Y-3705233D02*
X3933333Y-3705233D01*
X3933333Y-3705233D02*
X3800000Y-3771900D01*
X3800000Y-3771900D02*
X3733333Y-3838566D01*
X5533333Y-4571900D02*
X5400000Y-4638566D01*
X5400000Y-4638566D02*
X5133333Y-4638566D01*
X5133333Y-4638566D02*
X5000000Y-4571900D01*
X5000000Y-4571900D02*
X4933333Y-4438566D01*
X4933333Y-4438566D02*
X4933333Y-3905233D01*
X4933333Y-3905233D02*
X5000000Y-3771900D01*
X5000000Y-3771900D02*
X5133333Y-3705233D01*
X5133333Y-3705233D02*
X5400000Y-3705233D01*
X5400000Y-3705233D02*
X5533333Y-3771900D01*
X5533333Y-3771900D02*
X5600000Y-3905233D01*
X5600000Y-3905233D02*
X5600000Y-4038566D01*
X5600000Y-4038566D02*
X4933333Y-4171900D01*
X7266667Y-4638566D02*
X7266667Y-3238566D01*
X7266667Y-3771900D02*
X7400000Y-3705233D01*
X7400000Y-3705233D02*
X7666667Y-3705233D01*
X7666667Y-3705233D02*
X7800000Y-3771900D01*
X7800000Y-3771900D02*
X7866667Y-3838566D01*
X7866667Y-3838566D02*
X7933334Y-3971900D01*
X7933334Y-3971900D02*
X7933334Y-4371900D01*
X7933334Y-4371900D02*
X7866667Y-4505233D01*
X7866667Y-4505233D02*
X7800000Y-4571900D01*
X7800000Y-4571900D02*
X7666667Y-4638566D01*
X7666667Y-4638566D02*
X7400000Y-4638566D01*
X7400000Y-4638566D02*
X7266667Y-4571900D01*
X9133334Y-4638566D02*
X9133334Y-3905233D01*
X9133334Y-3905233D02*
X9066667Y-3771900D01*
X9066667Y-3771900D02*
X8933334Y-3705233D01*
X8933334Y-3705233D02*
X8666667Y-3705233D01*
X8666667Y-3705233D02*
X8533334Y-3771900D01*
X9133334Y-4571900D02*
X9000001Y-4638566D01*
X9000001Y-4638566D02*
X8666667Y-4638566D01*
X8666667Y-4638566D02*
X8533334Y-4571900D01*
X8533334Y-4571900D02*
X8466667Y-4438566D01*
X8466667Y-4438566D02*
X8466667Y-4305233D01*
X8466667Y-4305233D02*
X8533334Y-4171900D01*
X8533334Y-4171900D02*
X8666667Y-4105233D01*
X8666667Y-4105233D02*
X9000001Y-4105233D01*
X9000001Y-4105233D02*
X9133334Y-4038566D01*
X9600001Y-3705233D02*
X10133334Y-3705233D01*
X9800001Y-3238566D02*
X9800001Y-4438566D01*
X9800001Y-4438566D02*
X9866668Y-4571900D01*
X9866668Y-4571900D02*
X10000001Y-4638566D01*
X10000001Y-4638566D02*
X10133334Y-4638566D01*
X10400001Y-3705233D02*
X10933334Y-3705233D01*
X10600001Y-3238566D02*
X10600001Y-4438566D01*
X10600001Y-4438566D02*
X10666668Y-4571900D01*
X10666668Y-4571900D02*
X10800001Y-4638566D01*
X10800001Y-4638566D02*
X10933334Y-4638566D01*
X11933334Y-4571900D02*
X11800001Y-4638566D01*
X11800001Y-4638566D02*
X11533334Y-4638566D01*
X11533334Y-4638566D02*
X11400001Y-4571900D01*
X11400001Y-4571900D02*
X11333334Y-4438566D01*
X11333334Y-4438566D02*
X11333334Y-3905233D01*
X11333334Y-3905233D02*
X11400001Y-3771900D01*
X11400001Y-3771900D02*
X11533334Y-3705233D01*
X11533334Y-3705233D02*
X11800001Y-3705233D01*
X11800001Y-3705233D02*
X11933334Y-3771900D01*
X11933334Y-3771900D02*
X12000001Y-3905233D01*
X12000001Y-3905233D02*
X12000001Y-4038566D01*
X12000001Y-4038566D02*
X11333334Y-4171900D01*
X12600001Y-4638566D02*
X12600001Y-3705233D01*
X12600001Y-3971900D02*
X12666668Y-3838566D01*
X12666668Y-3838566D02*
X12733334Y-3771900D01*
X12733334Y-3771900D02*
X12866668Y-3705233D01*
X12866668Y-3705233D02*
X13000001Y-3705233D01*
X13333335Y-3705233D02*
X13666668Y-4638566D01*
X14000001Y-3705233D02*
X13666668Y-4638566D01*
X13666668Y-4638566D02*
X13533335Y-4971900D01*
X13533335Y-4971900D02*
X13466668Y-5038566D01*
X13466668Y-5038566D02*
X13333335Y-5105233D01*
X16200002Y-4638566D02*
X16200002Y-3905233D01*
X16200002Y-3905233D02*
X16133335Y-3771900D01*
X16133335Y-3771900D02*
X16000002Y-3705233D01*
X16000002Y-3705233D02*
X15733335Y-3705233D01*
X15733335Y-3705233D02*
X15600002Y-3771900D01*
X16200002Y-4571900D02*
X16066669Y-4638566D01*
X16066669Y-4638566D02*
X15733335Y-4638566D01*
X15733335Y-4638566D02*
X15600002Y-4571900D01*
X15600002Y-4571900D02*
X15533335Y-4438566D01*
X15533335Y-4438566D02*
X15533335Y-4305233D01*
X15533335Y-4305233D02*
X15600002Y-4171900D01*
X15600002Y-4171900D02*
X15733335Y-4105233D01*
X15733335Y-4105233D02*
X16066669Y-4105233D01*
X16066669Y-4105233D02*
X16200002Y-4038566D01*
X16866669Y-3705233D02*
X16866669Y-4638566D01*
X16866669Y-3838566D02*
X16933336Y-3771900D01*
X16933336Y-3771900D02*
X17066669Y-3705233D01*
X17066669Y-3705233D02*
X17266669Y-3705233D01*
X17266669Y-3705233D02*
X17400002Y-3771900D01*
X17400002Y-3771900D02*
X17466669Y-3905233D01*
X17466669Y-3905233D02*
X17466669Y-4638566D01*
X18733336Y-4638566D02*
X18733336Y-3238566D01*
X18733336Y-4571900D02*
X18600003Y-4638566D01*
X18600003Y-4638566D02*
X18333336Y-4638566D01*
X18333336Y-4638566D02*
X18200003Y-4571900D01*
X18200003Y-4571900D02*
X18133336Y-4505233D01*
X18133336Y-4505233D02*
X18066669Y-4371900D01*
X18066669Y-4371900D02*
X18066669Y-3971900D01*
X18066669Y-3971900D02*
X18133336Y-3838566D01*
X18133336Y-3838566D02*
X18200003Y-3771900D01*
X18200003Y-3771900D02*
X18333336Y-3705233D01*
X18333336Y-3705233D02*
X18600003Y-3705233D01*
X18600003Y-3705233D02*
X18733336Y-3771900D01*
X21000003Y-4571900D02*
X20866670Y-4638566D01*
X20866670Y-4638566D02*
X20600003Y-4638566D01*
X20600003Y-4638566D02*
X20466670Y-4571900D01*
X20466670Y-4571900D02*
X20400003Y-4438566D01*
X20400003Y-4438566D02*
X20400003Y-3905233D01*
X20400003Y-3905233D02*
X20466670Y-3771900D01*
X20466670Y-3771900D02*
X20600003Y-3705233D01*
X20600003Y-3705233D02*
X20866670Y-3705233D01*
X20866670Y-3705233D02*
X21000003Y-3771900D01*
X21000003Y-3771900D02*
X21066670Y-3905233D01*
X21066670Y-3905233D02*
X21066670Y-4038566D01*
X21066670Y-4038566D02*
X20400003Y-4171900D01*
X21533337Y-3705233D02*
X21866670Y-4638566D01*
X21866670Y-4638566D02*
X22200003Y-3705233D01*
X23266670Y-4571900D02*
X23133337Y-4638566D01*
X23133337Y-4638566D02*
X22866670Y-4638566D01*
X22866670Y-4638566D02*
X22733337Y-4571900D01*
X22733337Y-4571900D02*
X22666670Y-4438566D01*
X22666670Y-4438566D02*
X22666670Y-3905233D01*
X22666670Y-3905233D02*
X22733337Y-3771900D01*
X22733337Y-3771900D02*
X22866670Y-3705233D01*
X22866670Y-3705233D02*
X23133337Y-3705233D01*
X23133337Y-3705233D02*
X23266670Y-3771900D01*
X23266670Y-3771900D02*
X23333337Y-3905233D01*
X23333337Y-3905233D02*
X23333337Y-4038566D01*
X23333337Y-4038566D02*
X22666670Y-4171900D01*
X23933337Y-4638566D02*
X23933337Y-3705233D01*
X23933337Y-3971900D02*
X24000004Y-3838566D01*
X24000004Y-3838566D02*
X24066670Y-3771900D01*
X24066670Y-3771900D02*
X24200004Y-3705233D01*
X24200004Y-3705233D02*
X24333337Y-3705233D01*
X24666671Y-3705233D02*
X25000004Y-4638566D01*
X25333337Y-3705233D02*
X25000004Y-4638566D01*
X25000004Y-4638566D02*
X24866671Y-4971900D01*
X24866671Y-4971900D02*
X24800004Y-5038566D01*
X24800004Y-5038566D02*
X24666671Y-5105233D01*
X26733338Y-3705233D02*
X27266671Y-3705233D01*
X26933338Y-3238566D02*
X26933338Y-4438566D01*
X26933338Y-4438566D02*
X27000005Y-4571900D01*
X27000005Y-4571900D02*
X27133338Y-4638566D01*
X27133338Y-4638566D02*
X27266671Y-4638566D01*
X28333338Y-4638566D02*
X28333338Y-3905233D01*
X28333338Y-3905233D02*
X28266671Y-3771900D01*
X28266671Y-3771900D02*
X28133338Y-3705233D01*
X28133338Y-3705233D02*
X27866671Y-3705233D01*
X27866671Y-3705233D02*
X27733338Y-3771900D01*
X28333338Y-4571900D02*
X28200005Y-4638566D01*
X28200005Y-4638566D02*
X27866671Y-4638566D01*
X27866671Y-4638566D02*
X27733338Y-4571900D01*
X27733338Y-4571900D02*
X27666671Y-4438566D01*
X27666671Y-4438566D02*
X27666671Y-4305233D01*
X27666671Y-4305233D02*
X27733338Y-4171900D01*
X27733338Y-4171900D02*
X27866671Y-4105233D01*
X27866671Y-4105233D02*
X28200005Y-4105233D01*
X28200005Y-4105233D02*
X28333338Y-4038566D01*
X29200005Y-4638566D02*
X29066672Y-4571900D01*
X29066672Y-4571900D02*
X29000005Y-4438566D01*
X29000005Y-4438566D02*
X29000005Y-3238566D01*
X29933338Y-4638566D02*
X29800005Y-4571900D01*
X29800005Y-4571900D02*
X29733338Y-4438566D01*
X29733338Y-4438566D02*
X29733338Y-3238566D01*
X31533338Y-3705233D02*
X31533338Y-5105233D01*
X31533338Y-3771900D02*
X31666671Y-3705233D01*
X31666671Y-3705233D02*
X31933338Y-3705233D01*
X31933338Y-3705233D02*
X32066671Y-3771900D01*
X32066671Y-3771900D02*
X32133338Y-3838566D01*
X32133338Y-3838566D02*
X32200005Y-3971900D01*
X32200005Y-3971900D02*
X32200005Y-4371900D01*
X32200005Y-4371900D02*
X32133338Y-4505233D01*
X32133338Y-4505233D02*
X32066671Y-4571900D01*
X32066671Y-4571900D02*
X31933338Y-4638566D01*
X31933338Y-4638566D02*
X31666671Y-4638566D01*
X31666671Y-4638566D02*
X31533338Y-4571900D01*
X33400005Y-4638566D02*
X33400005Y-3905233D01*
X33400005Y-3905233D02*
X33333338Y-3771900D01*
X33333338Y-3771900D02*
X33200005Y-3705233D01*
X33200005Y-3705233D02*
X32933338Y-3705233D01*
X32933338Y-3705233D02*
X32800005Y-3771900D01*
X33400005Y-4571900D02*
X33266672Y-4638566D01*
X33266672Y-4638566D02*
X32933338Y-4638566D01*
X32933338Y-4638566D02*
X32800005Y-4571900D01*
X32800005Y-4571900D02*
X32733338Y-4438566D01*
X32733338Y-4438566D02*
X32733338Y-4305233D01*
X32733338Y-4305233D02*
X32800005Y-4171900D01*
X32800005Y-4171900D02*
X32933338Y-4105233D01*
X32933338Y-4105233D02*
X33266672Y-4105233D01*
X33266672Y-4105233D02*
X33400005Y-4038566D01*
X34066672Y-4638566D02*
X34066672Y-3705233D01*
X34066672Y-3971900D02*
X34133339Y-3838566D01*
X34133339Y-3838566D02*
X34200005Y-3771900D01*
X34200005Y-3771900D02*
X34333339Y-3705233D01*
X34333339Y-3705233D02*
X34466672Y-3705233D01*
X34733339Y-3705233D02*
X35266672Y-3705233D01*
X34933339Y-3238566D02*
X34933339Y-4438566D01*
X34933339Y-4438566D02*
X35000006Y-4571900D01*
X35000006Y-4571900D02*
X35133339Y-4638566D01*
X35133339Y-4638566D02*
X35266672Y-4638566D01*
X35733339Y-4505233D02*
X35800006Y-4571900D01*
X35800006Y-4571900D02*
X35733339Y-4638566D01*
X35733339Y-4638566D02*
X35666672Y-4571900D01*
X35666672Y-4571900D02*
X35733339Y-4505233D01*
X35733339Y-4505233D02*
X35733339Y-4638566D01*
M02*
